# Created by Open3D 
# object name: m1343
# number of vertices: 114
# number of triangles: 224
v 0.499314 0.948935 0.367961
vn 0.440209 0.897184 0.0357319
v 0.489368 0.948935 0.317888
vn 0.420206 0.89727 -0.1354
v 0.36796 0.975 0.367961
vn 0 1 0
v 0.460902 0.948935 0.275018
vn 0.335908 0.897475 -0.285839
v 0.418032 0.948935 0.246553
vn 0.20095 0.897331 -0.392958
v 0.36796 0.948935 0.236607
vn 0.0357303 0.897184 -0.440209
v 0.317888 0.948935 0.246553
vn -0.135396 0.89727 -0.420207
v 0.275018 0.948935 0.275018
vn -0.285836 0.897476 -0.33591
v 0.246552 0.948935 0.317888
vn -0.392958 0.897331 -0.200951
v 0.236606 0.948935 0.367961
vn -0.440209 0.897184 -0.0357321
v 0.246552 0.948935 0.418033
vn -0.420208 0.897269 0.1354
v 0.275018 0.948935 0.460903
vn -0.335909 0.897474 0.285843
v 0.317888 0.948935 0.489368
vn -0.200952 0.897329 0.392962
v 0.36796 0.948935 0.499314
vn -0.0357308 0.897182 0.440214
v 0.418032 0.948935 0.489368
vn 0.135398 0.897268 0.420212
v 0.460902 0.948935 0.460903
vn 0.285839 0.897473 0.335914
v 0.489368 0.948935 0.418033
vn 0.392958 0.89733 0.200955
v 0.610433 0.874513 0.36796
vn 0.724861 0.688365 0.027023
v 0.591913 0.874513 0.275018
vn 0.680031 0.688586 -0.25181
v 0.53944 0.874513 0.19648
vn 0.53142 0.68815 -0.494007
v 0.460902 0.874513 0.144007
vn 0.302884 0.688433 -0.65903
v 0.36796 0.874513 0.125488
vn 0.0270203 0.688366 -0.724861
v 0.275018 0.874513 0.144007
vn -0.251805 0.688587 -0.680031
v 0.19648 0.874513 0.19648
vn -0.494007 0.688149 -0.531421
v 0.144007 0.874513 0.275018
vn -0.65903 0.688432 -0.302886
v 0.125487 0.874513 0.36796
vn -0.724862 0.688364 -0.0270203
v 0.144007 0.874513 0.460903
vn -0.680033 0.688583 0.251812
v 0.19648 0.874512 0.539441
vn -0.531421 0.688146 0.494011
v 0.275018 0.874512 0.591914
vn -0.302885 0.68843 0.659034
v 0.36796 0.874512 0.610433
vn -0.0270216 0.688363 0.724863
v 0.460902 0.874512 0.591914
vn 0.251808 0.688583 0.680034
v 0.53944 0.874512 0.539441
vn 0.494007 0.688146 0.531424
v 0.591913 0.874513 0.460903
vn 0.659032 0.68843 0.302889
v 0.684856 0.763394 0.36796
vn 0.927769 0.372867 0.0146573
v 0.660848 0.763394 0.246552
vn 0.862764 0.372723 -0.341637
v 0.591913 0.763394 0.144007
vn 0.666455 0.372571 -0.645777
v 0.489368 0.763394 0.075072
vn 0.369227 0.373187 -0.851119
v 0.36796 0.763394 0.051065
vn 0.0146576 0.372865 -0.92777
v 0.246552 0.763394 0.075072
vn -0.341635 0.372721 -0.862766
v 0.144007 0.763394 0.144007
vn -0.645777 0.37257 -0.666456
v 0.075072 0.763394 0.246552
vn -0.851119 0.373186 -0.369228
v 0.051065 0.763394 0.36796
vn -0.927771 0.372863 -0.0146551
v 0.075072 0.763393 0.489368
vn -0.862765 0.372719 0.341637
v 0.144007 0.763393 0.591913
vn -0.666456 0.372569 0.645778
v 0.246552 0.763393 0.660848
vn -0.36923 0.373187 0.851117
v 0.36796 0.763393 0.684856
vn -0.0146576 0.372865 0.92777
v 0.489368 0.763393 0.660848
vn 0.341638 0.37272 0.862765
v 0.591913 0.763393 0.591913
vn 0.645778 0.372569 0.666456
v 0.660848 0.763393 0.489368
vn 0.851116 0.373188 0.369232
v 0.710921 0.63204 0.36796
vn 1 0 1.41808e-08
v 0.684856 0.63204 0.236606
vn 0.923749 0.000112213 -0.382999
v 0.610433 0.63204 0.125487
vn 0.707105 -9.93866e-07 -0.707108
v 0.499314 0.63204 0.051065
vn 0.382995 -0.000112197 -0.92375
v 0.36796 0.63204 0.025
vn 1.41802e-08 0 -1
v 0.236606 0.63204 0.051065
vn -0.382995 0.000112196 -0.92375
v 0.125487 0.63204 0.125487
vn -0.707107 0 -0.707107
v 0.051065 0.63204 0.236606
vn -0.92375 -0.000112196 -0.382995
v 0.025 0.63204 0.36796
vn -1 0 -1.41802e-08
v 0.051065 0.63204 0.499314
vn -0.92375 0.000112197 0.382995
v 0.125487 0.632039 0.610433
vn -0.707108 9.93868e-07 0.707105
v 0.236606 0.632039 0.684856
vn -0.382998 -0.000112214 0.923749
v 0.36796 0.632039 0.710921
vn 1.54586e-06 -2.53809e-06 1
v 0.499314 0.632039 0.684856
vn 0.382998 0.000110995 0.923749
v 0.610433 0.632039 0.610433
vn 0.707107 0 0.707107
v 0.684856 0.63204 0.499314
vn 0.923749 -0.000112215 0.382999
v 0.684856 0.500686 0.36796
vn 0.927769 -0.372866 -0.0146564
v 0.660848 0.500686 0.246552
vn 0.851116 -0.373189 -0.369231
v 0.591913 0.500686 0.144007
vn 0.645777 -0.37257 -0.666456
v 0.489368 0.500686 0.075072
vn 0.341635 -0.372721 -0.862766
v 0.36796 0.500686 0.051065
vn -0.0146565 -0.372863 -0.927771
v 0.246552 0.500686 0.075072
vn -0.369228 -0.373186 -0.851119
v 0.144007 0.500686 0.144007
vn -0.666456 -0.37257 -0.645777
v 0.075072 0.500686 0.246552
vn -0.862766 -0.372721 -0.341635
v 0.051065 0.500686 0.36796
vn -0.927771 -0.372863 0.0146565
v 0.075072 0.500686 0.489368
vn -0.851119 -0.373186 0.369228
v 0.144007 0.500686 0.591913
vn -0.645777 -0.372572 0.666455
v 0.246552 0.500686 0.660848
vn -0.341635 -0.372725 0.862764
v 0.36796 0.500686 0.684855
vn 0.0146562 -0.372868 0.927769
v 0.489368 0.500686 0.660848
vn 0.369229 -0.373189 0.851117
v 0.591913 0.500686 0.591913
vn 0.666455 -0.372572 0.645777
v 0.660848 0.500686 0.489368
vn 0.862764 -0.372723 0.341637
v 0.610433 0.389567 0.36796
vn 0.724862 -0.688364 -0.0270216
v 0.591913 0.389567 0.275018
vn 0.659031 -0.688431 -0.302888
v 0.53944 0.389567 0.19648
vn 0.494007 -0.688149 -0.531421
v 0.460902 0.389567 0.144007
vn 0.251809 -0.688585 -0.680032
v 0.36796 0.389567 0.125487
vn -0.0270204 -0.688364 -0.724862
v 0.275018 0.389567 0.144007
vn -0.302887 -0.688432 -0.65903
v 0.19648 0.389567 0.19648
vn -0.531421 -0.688149 -0.494007
v 0.144007 0.389567 0.275018
vn -0.680032 -0.688585 -0.251809
v 0.125487 0.389567 0.36796
vn -0.724863 -0.688363 0.0270189
v 0.144007 0.389567 0.460902
vn -0.659032 -0.68843 0.302887
v 0.19648 0.389567 0.53944
vn -0.494008 -0.688148 0.531422
v 0.275018 0.389567 0.591913
vn -0.25181 -0.688583 0.680033
v 0.36796 0.389567 0.610433
vn 0.0270201 -0.688362 0.724864
v 0.460902 0.389567 0.591913
vn 0.302887 -0.68843 0.659032
v 0.53944 0.389567 0.53944
vn 0.531422 -0.688148 0.494008
v 0.591913 0.389567 0.460902
vn 0.680032 -0.688584 0.251811
v 0.499314 0.315144 0.36796
vn 0.440211 -0.897183 -0.0357384
v 0.489368 0.315145 0.317888
vn 0.392957 -0.89733 -0.200958
v 0.460902 0.315145 0.275018
vn 0.285839 -0.897474 -0.335911
v 0.418032 0.315145 0.246552
vn 0.135402 -0.897269 -0.420209
v 0.36796 0.315145 0.236606
vn -0.0357323 -0.897183 -0.440211
v 0.317888 0.315145 0.246552
vn -0.200953 -0.89733 -0.39296
v 0.275018 0.315145 0.275018
vn -0.335911 -0.897474 -0.285839
v 0.246552 0.315145 0.317888
vn -0.420208 -0.897268 -0.135408
v 0.236606 0.315144 0.36796
vn -0.440213 -0.897182 0.0357265
v 0.246552 0.315144 0.418032
vn -0.392961 -0.897329 0.200954
v 0.275018 0.315144 0.460902
vn -0.28584 -0.897473 0.335913
v 0.317888 0.315144 0.489368
vn -0.135402 -0.897268 0.420211
v 0.36796 0.315144 0.499314
vn 0.0357327 -0.897182 0.440213
v 0.418032 0.315144 0.489368
vn 0.200954 -0.897329 0.392961
v 0.460902 0.315144 0.460902
vn 0.335913 -0.897473 0.28584
v 0.489368 0.315144 0.418032
vn 0.420211 -0.897268 0.135402
v 0.36796 0.289079 0.36796
vn 0 -1 -4.70547e-06
f 82//82 97//97 113//113
f 97//97 96//96 112//112
f 96//96 95//95 111//111
f 95//95 94//94 110//110
f 94//94 93//93 109//109
f 93//93 92//92 108//108
f 92//92 91//91 107//107
f 91//91 90//90 106//106
f 90//90 89//89 105//105
f 89//89 88//88 104//104
f 88//88 87//87 103//103
f 87//87 86//86 102//102
f 86//86 85//85 101//101
f 85//85 84//84 100//100
f 84//84 83//83 99//99
f 83//83 82//82 98//98
f 66//66 81//81 97//97
f 81//81 80//80 96//96
f 80//80 79//79 95//95
f 79//79 78//78 94//94
f 78//78 77//77 93//93
f 77//77 76//76 92//92
f 76//76 75//75 91//91
f 75//75 74//74 90//90
f 74//74 73//73 89//89
f 73//73 72//72 88//88
f 72//72 71//71 87//87
f 71//71 70//70 86//86
f 70//70 69//69 85//85
f 69//69 68//68 84//84
f 68//68 67//67 83//83
f 67//67 66//66 82//82
f 50//50 65//65 81//81
f 65//65 64//64 80//80
f 64//64 63//63 79//79
f 63//63 62//62 78//78
f 62//62 61//61 77//77
f 61//61 60//60 76//76
f 60//60 59//59 75//75
f 59//59 58//58 74//74
f 58//58 57//57 73//73
f 57//57 56//56 72//72
f 56//56 55//55 71//71
f 55//55 54//54 70//70
f 54//54 53//53 69//69
f 53//53 52//52 68//68
f 52//52 51//51 67//67
f 51//51 50//50 66//66
f 34//34 49//49 65//65
f 49//49 48//48 64//64
f 48//48 47//47 63//63
f 47//47 46//46 62//62
f 46//46 45//45 61//61
f 45//45 44//44 60//60
f 44//44 43//43 59//59
f 43//43 42//42 58//58
f 42//42 41//41 57//57
f 41//41 40//40 56//56
f 40//40 39//39 55//55
f 39//39 38//38 54//54
f 38//38 37//37 53//53
f 37//37 36//36 52//52
f 36//36 35//35 51//51
f 35//35 34//34 50//50
f 18//18 33//33 49//49
f 33//33 32//32 48//48
f 32//32 31//31 47//47
f 31//31 30//30 46//46
f 30//30 29//29 45//45
f 29//29 28//28 44//44
f 28//28 27//27 43//43
f 27//27 26//26 42//42
f 26//26 25//25 41//41
f 25//25 24//24 40//40
f 24//24 23//23 39//39
f 23//23 22//22 38//38
f 22//22 21//21 37//37
f 21//21 20//20 36//36
f 20//20 19//19 35//35
f 19//19 18//18 34//34
f 1//1 17//17 33//33
f 17//17 16//16 32//32
f 16//16 15//15 31//31
f 15//15 14//14 30//30
f 14//14 13//13 29//29
f 13//13 12//12 28//28
f 12//12 11//11 27//27
f 11//11 10//10 26//26
f 10//10 9//9 25//25
f 9//9 8//8 24//24
f 8//8 7//7 23//23
f 7//7 6//6 22//22
f 6//6 5//5 21//21
f 5//5 4//4 20//20
f 4//4 2//2 19//19
f 2//2 1//1 18//18
f 98//98 113//113 114//114
f 113//113 112//112 114//114
f 112//112 111//111 114//114
f 111//111 110//110 114//114
f 110//110 109//109 114//114
f 109//109 108//108 114//114
f 108//108 107//107 114//114
f 107//107 106//106 114//114
f 106//106 105//105 114//114
f 105//105 104//104 114//114
f 104//104 103//103 114//114
f 103//103 102//102 114//114
f 102//102 101//101 114//114
f 101//101 100//100 114//114
f 100//100 99//99 114//114
f 99//99 98//98 114//114
f 98//98 82//82 113//113
f 113//113 97//97 112//112
f 112//112 96//96 111//111
f 111//111 95//95 110//110
f 110//110 94//94 109//109
f 109//109 93//93 108//108
f 108//108 92//92 107//107
f 107//107 91//91 106//106
f 106//106 90//90 105//105
f 105//105 89//89 104//104
f 104//104 88//88 103//103
f 103//103 87//87 102//102
f 102//102 86//86 101//101
f 101//101 85//85 100//100
f 100//100 84//84 99//99
f 99//99 83//83 98//98
f 82//82 66//66 97//97
f 97//97 81//81 96//96
f 96//96 80//80 95//95
f 95//95 79//79 94//94
f 94//94 78//78 93//93
f 93//93 77//77 92//92
f 92//92 76//76 91//91
f 91//91 75//75 90//90
f 90//90 74//74 89//89
f 89//89 73//73 88//88
f 88//88 72//72 87//87
f 87//87 71//71 86//86
f 86//86 70//70 85//85
f 85//85 69//69 84//84
f 84//84 68//68 83//83
f 83//83 67//67 82//82
f 66//66 50//50 81//81
f 81//81 65//65 80//80
f 80//80 64//64 79//79
f 79//79 63//63 78//78
f 78//78 62//62 77//77
f 77//77 61//61 76//76
f 76//76 60//60 75//75
f 75//75 59//59 74//74
f 74//74 58//58 73//73
f 73//73 57//57 72//72
f 72//72 56//56 71//71
f 71//71 55//55 70//70
f 70//70 54//54 69//69
f 69//69 53//53 68//68
f 68//68 52//52 67//67
f 67//67 51//51 66//66
f 50//50 34//34 65//65
f 65//65 49//49 64//64
f 64//64 48//48 63//63
f 63//63 47//47 62//62
f 62//62 46//46 61//61
f 61//61 45//45 60//60
f 60//60 44//44 59//59
f 59//59 43//43 58//58
f 58//58 42//42 57//57
f 57//57 41//41 56//56
f 56//56 40//40 55//55
f 55//55 39//39 54//54
f 54//54 38//38 53//53
f 53//53 37//37 52//52
f 52//52 36//36 51//51
f 51//51 35//35 50//50
f 34//34 18//18 49//49
f 49//49 33//33 48//48
f 48//48 32//32 47//47
f 47//47 31//31 46//46
f 46//46 30//30 45//45
f 45//45 29//29 44//44
f 44//44 28//28 43//43
f 43//43 27//27 42//42
f 42//42 26//26 41//41
f 41//41 25//25 40//40
f 40//40 24//24 39//39
f 39//39 23//23 38//38
f 38//38 22//22 37//37
f 37//37 21//21 36//36
f 36//36 20//20 35//35
f 35//35 19//19 34//34
f 18//18 1//1 33//33
f 33//33 17//17 32//32
f 32//32 16//16 31//31
f 31//31 15//15 30//30
f 30//30 14//14 29//29
f 29//29 13//13 28//28
f 28//28 12//12 27//27
f 27//27 11//11 26//26
f 26//26 10//10 25//25
f 25//25 9//9 24//24
f 24//24 8//8 23//23
f 23//23 7//7 22//22
f 22//22 6//6 21//21
f 21//21 5//5 20//20
f 20//20 4//4 19//19
f 19//19 2//2 18//18
f 1//1 3//3 17//17
f 17//17 3//3 16//16
f 16//16 3//3 15//15
f 15//15 3//3 14//14
f 14//14 3//3 13//13
f 13//13 3//3 12//12
f 12//12 3//3 11//11
f 11//11 3//3 10//10
f 10//10 3//3 9//9
f 9//9 3//3 8//8
f 8//8 3//3 7//7
f 7//7 3//3 6//6
f 6//6 3//3 5//5
f 5//5 3//3 4//4
f 4//4 3//3 2//2
f 2//2 3//3 1//1
