# Created by Open3D 
# object name: m661
# number of vertices: 82
# number of triangles: 164
v 0.368392 0.04519 0.242356
vn 0.0873142 -0.994783 0.0527626
v 0.393296 0.06482 0.242602
vn 0.598835 -0.226982 0.768033
v 0.382613 0.063698 0.265433
vn 0.896827 -0.437692 -0.0642387
v 0.363361 0.043508 0.278606
vn 0.0170894 -0.997183 -0.0730403
v 0.401783 0.05136 0.296364
vn 0.640747 -0.289956 -0.710893
v 0.397971 0.041264 0.306456
vn 0.198537 -0.976649 -0.082097
v 0.41433 0.050799 0.31513
vn 0.215874 -0.415489 0.88361
v 0.365025 0.041264 0.327576
vn 0.0596859 -0.997736 -0.030984
v 0.39007 0.060333 0.328935
vn 0.877371 -0.393306 0.274828
v 0.386921 0.053603 0.474049
vn 0.883082 -0.464398 -0.0670785
v 0.39195 0.099031 0.330393
vn 0.971989 0.188673 0.14014
v 0.388801 0.092301 0.475508
vn 0.875601 0.476199 -0.0809747
v 0.369342 0.120904 0.330423
vn 0.131558 0.989046 0.0669387
v 0.364043 0.113613 0.480896
vn 0.102713 0.99376 0.0434971
v 0.163644 0.122586 0.438377
vn -0.132914 0.991097 0.00773793
v 0.161085 0.119782 0.503144
vn -0.180561 0.982501 0.0457119
v 0.142219 0.083327 0.438822
vn -0.979061 0.0219157 -0.202384
v 0.139104 0.079962 0.503659
vn -0.99924 -0.0069321 0.038348
v 0.159257 0.042947 0.434974
vn -0.175101 -0.981978 -0.0711302
v 0.156768 0.040143 0.500297
vn -0.202074 -0.978917 -0.0297967
v 0.360283 0.033973 0.47798
vn 0.0324371 -0.998216 -0.0501208
v 0.373749 0.032291 0.508501
vn 0.118872 -0.645432 0.754511
v 0.40581 0.05192 0.502754
vn 0.852453 -0.303877 0.425421
v 0.40769 0.090057 0.504212
vn 0.909211 0.413818 0.0457177
v 0.378065 0.11193 0.511347
vn 0.143346 0.324497 0.934962
v 0.193613 0.047434 0.322096
vn -0.291073 -0.950512 -0.108643
v 0.176019 0.087253 0.326015
vn -0.97059 0.150685 -0.187747
v 0.197443 0.127073 0.32557
vn -0.148091 0.988723 0.0222665
v 0.367678 0.123147 0.281452
vn 0.0869314 0.996068 0.0170447
v 0.401731 0.120343 0.309372
vn 0.278221 0.960458 -0.0106527
v 0.404917 0.110248 0.298794
vn 0.536951 0.26586 -0.800626
v 0.417463 0.109126 0.31756
vn 0.370216 0.310036 0.875681
v 0.439573 0.108565 0.309114
vn -0.0351531 0.172593 -0.984366
v 0.435831 0.108565 0.319762
vn 0.0861768 0.0976216 0.991486
v 0.527698 0.106322 0.299677
vn -0.285966 0.404892 -0.868496
v 0.557271 0.104639 0.305551
vn 0.686696 0.207776 0.696619
v 0.536724 0.106322 0.286101
vn -0.88391 0.455913 -0.104144
v 0.553311 0.107444 0.256306
vn 0.904873 0.425587 0.00896133
v 0.537175 0.108004 0.258344
vn -0.919247 0.209649 0.333215
v 0.528805 0.119782 0.241312
vn -0.646564 0.280162 0.709552
v 0.413591 0.044069 0.228733
vn 0.449167 -0.133192 0.883464
v 0.431666 0.044069 0.219666
vn 0.0485267 -0.905545 0.421465
v 0.162306 0.050799 0.266695
vn -0.143209 -0.985446 0.0915785
v 0.125899 0.052481 0.246987
vn -0.0579395 -0.978191 0.199463
v 0.146252 0.090618 0.278333
vn -0.636556 0.0116232 0.771143
v 0.125015 0.092301 0.262361
vn -0.0158338 -0.0510386 0.998571
v 0.166067 0.130438 0.269612
vn -0.0697931 0.981568 0.177912
v 0.129729 0.132681 0.25046
vn 0.0507574 0.918228 0.392787
v 0.435425 0.123708 0.222582
vn 0.129806 0.907699 0.39904
v 0.602052 0.119782 0.185704
vn -0.0109982 0.470202 -0.88249
v 0.484531 0.122025 0.217509
vn 0.0246626 0.27634 0.960743
v 0.570009 0.119782 0.205015
vn 0.614389 0.50504 0.606185
v 0.50882 0.120904 0.226312
vn -0.433222 0.350703 0.830257
v 0.550019 0.11866 0.239197
vn 0.914643 0.221464 0.338203
v 0.187597 0.048555 0.296853
vn -0.291033 -0.953442 0.0790429
v 0.169932 0.088936 0.300215
vn -0.858343 -0.0184801 0.512744
v 0.191358 0.128195 0.299769
vn -0.210267 0.954642 0.210824
v 0.372709 0.12483 0.245203
vn 0.155488 0.976364 0.150124
v 0.417421 0.123708 0.232206
vn 0.466002 0.0289126 0.884311
v 0.597665 0.040143 0.182301
vn -0.090923 -0.164017 -0.982258
v 0.4807 0.042386 0.214036
vn -0.138294 -0.425796 0.894188
v 0.566248 0.040143 0.202098
vn 0.667076 -0.384063 0.638361
v 0.50513 0.041264 0.223952
vn -0.404271 -0.624621 0.668142
v 0.546259 0.039582 0.23628
vn 0.804017 -0.526409 0.276495
v 0.524488 0.040143 0.238465
vn -0.699542 -0.143554 0.700023
v 0.550804 0.049116 0.254361
vn 0.953739 -0.288293 -0.0852558
v 0.534041 0.049116 0.255913
vn -0.980911 -0.131459 0.14329
v 0.533661 0.047995 0.284226
vn -0.8484 -0.437081 -0.298627
v 0.103279 0.134364 0.237973
vn -0.138101 0.150084 -0.97898
v 0.098892 0.054164 0.23457
vn -0.145886 -0.147982 -0.978171
v 0.026446 0.055285 0.265203
vn -0.643225 -0.498606 -0.58108
v 0.025 0.095105 0.276127
vn 0.094706 0.0628704 0.993518
v 0.030833 0.135486 0.268606
vn -0.568893 0.667716 -0.48012
v 0.395732 0.102957 0.24399
vn 0.72736 0.134482 0.672951
v 0.525121 0.047434 0.297176
vn -0.171418 -0.180854 -0.968456
v 0.554764 0.046312 0.303607
vn 0.297705 -0.21816 0.929397
v 0.433324 0.049677 0.317818
vn 0.0678277 -0.311095 0.947955
v 0.167522 0.1181 0.531726
vn -0.0149109 0.326566 0.945057
v 0.145541 0.07828 0.532242
vn -0.809092 -0.120299 0.575238
v 0.163206 0.03846 0.52888
vn 0.0557601 -0.225027 0.972756
v 0.38505 0.102396 0.266821
vn 0.922766 0.278018 -0.26685
v 0.43644 0.050238 0.306683
vn 0.0641389 -0.142846 -0.987664
f 65//65 53//53 63//63
f 36//36 34//34 76//76
f 3//3 81//81 5//5
f 74//74 81//81 3//3
f 25//25 23//23 24//24
f 14//14 25//25 12//12
f 69//69 48//48 50//50
f 10//10 21//21 8//8
f 4//4 6//6 8//8
f 1//1 4//4 43//43
f 32//32 30//30 13//13
f 11//11 32//32 13//13
f 71//71 72//72 73//73
f 71//71 73//73 69//69
f 70//70 71//71 69//69
f 82//82 75//75 77//77
f 82//82 77//77 7//7
f 5//5 82//82 7//7
f 78//78 79//79 80//80
f 25//25 78//78 80//80
f 25//25 80//80 22//22
f 23//23 25//25 22//22
f 62//62 60//60 50//50
f 62//62 50//50 52//52
f 62//62 52//52 54//54
f 62//62 54//54 64//64
f 29//29 31//31 81//81
f 58//58 29//29 81//81
f 58//58 81//81 74//74
f 59//59 58//58 74//74
f 43//43 4//4 55//55
f 43//43 55//55 56//56
f 45//45 43//43 56//56
f 45//45 56//56 57//57
f 47//47 45//45 57//57
f 67//67 68//68 37//37
f 67//67 37//37 39//39
f 65//65 67//67 39//39
f 65//65 39//39 40//40
f 53//53 65//65 40//40
f 66//66 64//64 54//54
f 66//66 54//54 38//38
f 66//66 38//38 36//36
f 66//66 36//36 76//76
f 66//66 76//76 68//68
f 35//35 37//37 68//68
f 35//35 68//68 75//75
f 33//33 35//35 75//75
f 33//33 75//75 82//82
f 31//31 33//33 82//82
f 31//31 82//82 5//5
f 81//81 31//31 5//5
f 20//20 22//22 80//80
f 20//20 80//80 79//79
f 18//18 20//20 79//79
f 18//18 79//79 78//78
f 16//16 18//18 78//78
f 16//16 78//78 25//25
f 14//14 16//16 25//25
f 32//32 11//11 9//9
f 32//32 9//9 7//7
f 34//34 32//32 7//7
f 34//34 7//7 77//77
f 76//76 34//34 77//77
f 76//76 77//77 75//75
f 68//68 76//76 75//75
f 61//61 63//63 53//53
f 61//61 53//53 51//51
f 42//42 61//61 51//51
f 42//42 51//51 49//49
f 41//41 42//42 49//49
f 41//41 49//49 59//59
f 2//2 41//41 59//59
f 2//2 59//59 74//74
f 3//3 2//2 74//74
f 48//48 69//69 73//73
f 48//48 73//73 72//72
f 46//46 48//48 72//72
f 46//46 72//72 71//71
f 44//44 46//46 71//71
f 44//44 71//71 70//70
f 60//60 44//44 70//70
f 60//60 70//70 69//69
f 50//50 60//60 69//69
f 66//66 68//68 67//67
f 66//66 67//67 65//65
f 64//64 66//66 65//65
f 64//64 65//65 63//63
f 62//62 64//64 63//63
f 62//62 63//63 61//61
f 60//60 62//62 61//61
f 60//60 61//61 42//42
f 44//44 60//60 42//42
f 58//58 59//59 49//49
f 58//58 49//49 47//47
f 29//29 58//58 47//47
f 29//29 47//47 57//57
f 28//28 29//29 57//57
f 28//28 57//57 56//56
f 27//27 28//28 56//56
f 27//27 56//56 55//55
f 26//26 27//27 55//55
f 26//26 55//55 4//4
f 8//8 26//26 4//4
f 40//40 38//38 54//54
f 53//53 40//40 54//54
f 53//53 54//54 52//52
f 51//51 53//53 52//52
f 51//51 52//52 50//50
f 49//49 51//51 50//50
f 49//49 50//50 48//48
f 47//47 49//49 48//48
f 47//47 48//48 46//46
f 45//45 47//47 46//46
f 45//45 46//46 44//44
f 43//43 45//45 44//44
f 43//43 44//44 42//42
f 1//1 43//43 42//42
f 1//1 42//42 41//41
f 2//2 1//1 41//41
f 38//38 40//40 39//39
f 38//38 39//39 37//37
f 36//36 38//38 37//37
f 36//36 37//37 35//35
f 34//34 36//36 35//35
f 34//34 35//35 33//33
f 32//32 34//34 33//33
f 32//32 33//33 31//31
f 30//30 32//32 31//31
f 30//30 31//31 29//29
f 13//13 30//30 29//29
f 13//13 29//29 28//28
f 15//15 13//13 28//28
f 15//15 28//28 27//27
f 17//17 15//15 27//27
f 17//17 27//27 26//26
f 19//19 17//17 26//26
f 19//19 26//26 8//8
f 21//21 19//19 8//8
f 12//12 25//25 24//24
f 12//12 24//24 23//23
f 10//10 12//12 23//23
f 10//10 23//23 22//22
f 21//21 10//10 22//22
f 21//21 22//22 20//20
f 19//19 21//21 20//20
f 19//19 20//20 18//18
f 17//17 19//19 18//18
f 17//17 18//18 16//16
f 15//15 17//17 16//16
f 15//15 16//16 14//14
f 13//13 15//15 14//14
f 13//13 14//14 12//12
f 11//11 13//13 12//12
f 11//11 12//12 10//10
f 9//9 11//11 10//10
f 9//9 10//10 8//8
f 7//7 9//9 8//8
f 7//7 8//8 6//6
f 5//5 7//7 6//6
f 5//5 6//6 4//4
f 3//3 5//5 4//4
f 3//3 4//4 1//1
f 2//2 3//3 1//1
