# Blender 4.2.3 LTS
# www.blender.org
o m1219
v 0.027879 0.340285 0.101601
v 0.069433 0.351370 0.171376
v 0.075987 0.339383 0.214972
v 0.058672 0.364622 0.163430
v 0.068993 0.377048 0.170141
v 0.027941 0.377048 0.025000
v 0.100965 0.344672 0.316470
v 0.136259 0.367529 0.316597
v 0.101966 0.325743 0.447859
v 0.069648 0.327526 0.295094
v 0.075200 0.327846 0.317328
v 0.033120 0.262275 0.301141
v 0.030401 0.264894 0.278906
v 0.035961 0.264273 0.302137
v 0.027808 0.312862 0.159753
v 0.039319 0.310322 0.269892
v 0.035921 0.268081 0.299213
v 0.027669 0.255216 0.280910
v 0.036772 0.249317 0.547322
v 0.030960 0.252104 0.643715
v 0.027268 0.260378 0.707297
v 0.027218 0.245266 0.642795
v 0.031604 0.262865 0.655202
v 0.028222 0.263301 0.705340
v 0.039466 0.258116 0.648565
v 0.038363 0.262988 0.655268
v 0.033044 0.263388 0.705387
v 0.135948 0.384882 0.316426
v 0.100780 0.407390 0.316809
v 0.075380 0.425288 0.317371
v 0.069828 0.424968 0.295098
v 0.036751 0.488110 0.301906
v 0.030260 0.487764 0.278675
v 0.033823 0.490972 0.300861
v 0.039825 0.442525 0.269561
v 0.063987 0.428699 0.291168
v 0.028121 0.497402 0.281447
v 0.027730 0.508231 0.301621
v 0.035900 0.484229 0.299010
v 0.028400 0.440243 0.159471
v 0.043703 0.507064 0.446508
v 0.032626 0.508297 0.591104
v 0.027323 0.506779 0.643141
v 0.027920 0.491961 0.706989
v 0.028978 0.489074 0.705091
v 0.031308 0.500100 0.644233
v 0.032342 0.489625 0.654942
v 0.039101 0.489747 0.655008
v 0.040021 0.494531 0.649197
v 0.069511 0.401558 0.171838
v 0.027521 0.412648 0.101843
v 0.058240 0.388734 0.163191
v 0.063929 0.324460 0.291193
v 0.027659 0.244818 0.301256
v 0.032573 0.243897 0.590748
v 0.102076 0.427058 0.447863
v 0.075633 0.413683 0.215196
v 0.037015 0.503122 0.547782
v 0.033800 0.489161 0.705138
v 0.025000 0.377048 0.830600
v 0.062827 0.277289 0.593648
v 0.074563 0.293424 0.548255
v 0.035639 0.359443 0.756593
v 0.072279 0.341122 0.593121
v 0.039474 0.359512 0.756631
v 0.137044 0.377048 0.317470
v 0.078416 0.377048 0.592843
v 0.053562 0.363001 0.692088
v 0.057213 0.377048 0.690055
v 0.044089 0.377048 0.747818
v 0.041359 0.367171 0.747876
v 0.033074 0.377048 0.790173
v 0.074455 0.459394 0.548577
v 0.063097 0.475097 0.593627
v 0.039873 0.392338 0.756315
v 0.071995 0.411549 0.593383
v 0.035983 0.393217 0.756268
v 0.054045 0.389066 0.691839
v 0.041030 0.385511 0.747695
v 0.031962 0.385758 0.789081
v 0.032308 0.366468 0.789272
v 0.090148 0.344681 0.237243
v 0.117532 0.360922 0.270174
v 0.123030 0.363197 0.294326
v 0.140083 0.377048 0.302080
v 0.139200 0.377048 0.295311
v 0.086355 0.341736 0.238184
v 0.101102 0.346440 0.299096
v 0.084501 0.344456 0.224655
v 0.115638 0.362748 0.262389
v 0.117526 0.367568 0.258525
v 0.077536 0.377048 0.185681
v 0.075956 0.358363 0.182958
v 0.072213 0.356301 0.177129
v 0.092988 0.360894 0.212045
v 0.120370 0.370496 0.257537
v 0.122163 0.377048 0.261372
v 0.072799 0.377048 0.176938
v 0.089985 0.408349 0.237573
v 0.086050 0.411175 0.238493
v 0.100969 0.406272 0.299462
v 0.123551 0.389263 0.294078
v 0.117928 0.391810 0.269878
v 0.116103 0.389763 0.262131
v 0.084299 0.408123 0.224984
v 0.117214 0.384921 0.258353
v 0.076303 0.394074 0.182613
v 0.093422 0.391745 0.211749
v 0.091424 0.394643 0.212651
v 0.072435 0.396834 0.176737
v 0.120162 0.382078 0.257422
v 0.091132 0.357945 0.213005
v 0.030378 0.359787 0.800902
v 0.026444 0.357874 0.810530
v 0.028410 0.358850 0.805716
v 0.030739 0.392612 0.800587
v 0.028737 0.393573 0.805382
v 0.026773 0.394573 0.810176
v 0.092711 0.377048 0.211892
v 0.091249 0.277310 0.448224
v 0.043598 0.245550 0.446124
v 0.066282 0.282418 0.326380
v 0.061492 0.284202 0.319554
v 0.091557 0.475118 0.448242
v 0.066763 0.470581 0.326493
v 0.062042 0.468492 0.319705
v 0.095868 0.415086 0.807774
v 0.097233 0.411861 0.775001
v 0.155906 0.450067 0.920915
v 0.156028 0.449014 0.910291
v 0.160054 0.448934 0.894911
v 0.176848 0.462106 0.928716
v 0.155837 0.449202 0.929583
v 0.091678 0.419134 0.836637
v 0.038831 0.397129 0.854636
v 0.048356 0.400292 0.861460
v 0.050677 0.400883 0.820949
v 0.177559 0.462357 0.952840
v 0.176667 0.462283 0.947021
v 0.175403 0.462538 0.975000
v 0.159762 0.303202 0.894387
v 0.097535 0.340485 0.774748
v 0.176897 0.289555 0.946803
v 0.175650 0.288859 0.974753
v 0.177789 0.289628 0.952584
v 0.038604 0.354696 0.855046
v 0.095381 0.336896 0.807542
v 0.091291 0.333273 0.836480
v 0.155791 0.302333 0.909778
v 0.155703 0.301488 0.920420
v 0.177078 0.289377 0.928460
v 0.048244 0.352041 0.860979
v 0.155600 0.302521 0.929070
v 0.050581 0.351682 0.820477
v 0.067486 0.336268 0.598894
v 0.061679 0.283100 0.599353
v 0.044190 0.266805 0.642754
v 0.039878 0.350610 0.731614
v 0.067978 0.416357 0.599070
v 0.039939 0.401748 0.732105
v 0.062194 0.469327 0.599486
v 0.044117 0.485839 0.642561
v 0.035691 0.726201 0.766513
v 0.041474 0.688414 0.737994
v 0.036336 0.727486 0.795450
v 0.035719 0.685439 0.839268
v 0.037015 0.687017 0.800674
v 0.034199 0.586426 0.682963
v 0.033052 0.587497 0.697413
v 0.027949 0.585783 0.729210
v 0.036749 0.663575 0.773893
v 0.035645 0.662739 0.787412
v 0.034419 0.662994 0.815353
v 0.033187 0.088859 0.815149
v 0.027804 0.166055 0.729452
v 0.034799 0.025689 0.766552
v 0.035479 0.025000 0.795509
v 0.040165 0.064092 0.737289
v 0.035293 0.066943 0.838515
v 0.034034 0.165709 0.683177
v 0.035534 0.088491 0.773697
v 0.032959 0.164883 0.697646
v 0.034396 0.089553 0.787160
v 0.036642 0.065598 0.799950
vn -0.6681 0.6857 0.2890
vn -0.5698 0.0297 0.8212
vn -0.7881 -0.3273 0.5213
vn -0.8060 0.5463 0.2280
vn -0.5397 0.8327 0.1241
vn -0.5398 0.8328 0.1228
vn -0.6055 0.7784 0.1657
vn -0.5617 0.8218 0.0954
vn 0.0482 0.9926 0.1110
vn 0.5423 -0.5081 -0.6692
vn 0.0985 0.1750 0.9796
vn -0.7575 -0.6523 -0.0268
vn -0.8650 0.4887 -0.1138
vn -0.9890 0.1316 -0.0679
vn -0.0090 0.8082 -0.5889
vn -0.0181 0.9998 -0.0099
vn -0.0984 -0.1704 0.9804
vn -0.5670 -0.8094 0.1530
vn -0.7207 -0.6602 0.2112
vn -0.6272 -0.7459 0.2241
vn -0.9625 -0.2463 0.1135
vn -0.9446 -0.2440 0.2196
vn -0.9684 -0.2260 0.1052
vn -0.8284 0.5560 -0.0682
vn -0.9497 -0.3070 -0.0624
vn -0.9837 -0.1664 -0.0678
vn -0.1182 -0.7574 -0.6422
vn 0.0181 -0.9998 -0.0098
vn -0.6987 -0.6410 0.3176
vn -0.5758 -0.0444 0.8164
vn -0.7833 0.3357 0.5231
vn -0.8256 -0.5138 0.2335
vn -0.7021 0.6444 0.3030
vn -0.8449 0.4825 0.2309
vn -0.5508 -0.0332 0.8340
vn -0.3975 0.9065 -0.1423
vn -0.5279 0.8460 0.0747
vn -0.9723 0.2082 0.1059
vn -0.9506 0.2908 0.1087
vn -0.9447 0.2315 0.2323
vn -0.9683 0.2260 0.1064
vn -0.8668 0.4881 -0.1020
vn -0.9618 0.2646 -0.0703
vn -0.9629 0.2547 -0.0891
vn -0.1297 0.7272 -0.6740
vn -0.0179 0.9998 -0.0099
vn -0.5494 -0.8264 0.1236
vn -0.5341 -0.8416 0.0801
vn -0.5558 -0.8278 0.0765
vn -0.5500 -0.8318 0.0743
vn -0.9368 -0.3351 0.1006
vn -0.9219 -0.3341 0.1964
vn -0.9631 0.0105 0.2689
vn -0.9626 -0.2462 0.1132
vn -0.8520 -0.5193 -0.0667
vn -0.9056 -0.4172 -0.0760
vn -0.8425 -0.5235 -0.1271
vn 0.0197 -0.7138 -0.7001
vn -0.7011 -0.6549 0.2821
vn -0.7691 -0.6231 0.1422
vn 0.9996 0.0269 -0.0071
vn -0.7593 0.6498 0.0347
vn -0.6936 0.7190 -0.0440
vn -0.0167 0.9932 -0.1151
vn -0.9732 0.0993 -0.2072
vn -0.9729 0.1031 -0.2068
vn -0.9640 0.1630 -0.2103
vn -0.9521 0.2162 -0.2163
vn -0.9353 0.2571 -0.2432
vn -0.7595 -0.6496 0.0350
vn -0.6771 -0.7332 -0.0630
vn -0.2159 -0.9638 -0.1562
vn -0.9709 -0.1352 -0.1977
vn -0.9697 -0.1302 -0.2065
vn -0.9607 -0.1754 -0.2152
vn -0.9480 -0.2151 -0.2346
vn -0.9206 -0.3356 -0.1997
vn -0.5626 0.7489 -0.3500
vn 1.0000 0.0059 0.0037
vn 1.0000 0.0052 0.0037
vn 1.0000 0.0053 0.0037
vn 1.0000 0.0060 0.0035
vn 0.9999 0.0150 0.0013
vn -0.5542 0.8304 -0.0574
vn 0.0227 -0.0116 -0.9997
vn -0.9688 0.1498 -0.1972
vn -0.9644 0.1577 -0.2125
vn -0.9678 0.1423 -0.2076
vn -0.9501 0.2141 -0.2270
vn -0.9395 0.2584 -0.2248
vn -0.9734 0.0885 -0.2113
vn -0.5603 -0.8264 0.0563
vn -0.9628 -0.1760 -0.2050
vn -0.9647 -0.1626 -0.2071
vn -0.9702 -0.1157 -0.2129
vn -0.9645 -0.1523 -0.2156
vn -0.9530 -0.2204 -0.2079
vn -0.9188 -0.3351 -0.2087
vn -0.9564 -0.1533 -0.2487
vn 0.9998 -0.0215 0.0036
vn 0.9997 0.0234 -0.0039
vn 1.0000 -0.0009 0.0012
vn -0.9499 -0.2828 0.1334
vn 0.2087 -0.8854 0.4154
vn -0.5506 0.8334 0.0468
vn -0.9763 0.0982 -0.1928
vn -0.8519 0.5117 0.1111
vn -0.7766 0.5077 0.3730
vn -0.6513 0.7549 0.0772
vn -0.5760 0.7982 0.1764
vn -0.5804 0.8106 0.0779
vn -0.4163 0.9043 -0.0948
vn -0.7723 0.5530 0.3125
vn -0.8401 -0.0080 0.5423
vn -0.3418 0.9397 0.0074
vn -0.8554 0.1815 0.4851
vn -0.8936 -0.0180 0.4486
vn -0.8722 0.0291 0.4884
vn -0.5703 -0.8181 0.0738
vn -0.9683 -0.1609 -0.1912
vn -0.5941 -0.8031 0.0453
vn -0.7318 -0.5981 0.3268
vn -0.6171 -0.7845 0.0608
vn -0.5513 -0.8192 0.1583
vn -0.1332 -0.9900 -0.0470
vn -0.7923 -0.3136 0.5233
vn -0.7973 -0.4742 0.3733
vn -0.8790 0.0222 0.4763
vn -0.7429 -0.6028 0.2910
vn -0.8837 -0.0667 0.4632
vn -0.8937 -0.0032 0.4486
vn -0.8724 -0.0154 0.4885
vn -0.5938 0.8004 0.0820
vn -0.5977 0.7971 0.0857
vn -0.5420 0.8365 0.0808
vn -0.5713 0.7999 0.1838
vn -0.6402 0.7304 0.2382
vn -0.7967 0.1635 0.5819
vn -0.2385 0.9711 0.0081
vn -0.5119 0.8591 -0.0000
vn -0.8789 0.0292 0.4762
vn -0.8673 0.1753 0.4658
vn -0.7567 0.5766 0.3081
vn -0.7584 0.5764 0.3043
vn -0.8445 -0.1301 0.5196
vn -0.9021 0.0053 0.4314
vn -0.5927 -0.8037 0.0531
vn -0.5696 -0.8186 0.0736
vn -0.5132 -0.8068 0.2927
vn -0.5910 -0.8030 0.0771
vn -0.6158 -0.7878 0.0113
vn -0.8102 -0.2825 0.5136
vn -0.4388 -0.8970 0.0530
vn -0.6015 -0.7904 0.1158
vn -0.8374 -0.0099 0.5466
vn -0.6391 -0.7359 0.2234
vn -0.6405 -0.7360 0.2192
vn -0.7081 -0.6027 0.3679
vn -0.8575 -0.2718 0.4368
vn -0.8632 -0.0108 0.5048
vn -0.9909 0.0832 -0.1058
vn -0.0058 0.7038 -0.7104
vn -0.9639 0.1896 -0.1867
vn -0.9769 0.0873 -0.1951
vn -0.9852 -0.0129 -0.1709
vn -0.9092 0.2668 -0.3197
vn -0.9104 0.2645 -0.3182
vn -0.9917 -0.0731 -0.1057
vn 0.0198 -0.7241 -0.6894
vn -0.9004 -0.3114 -0.3039
vn -0.9698 -0.1481 -0.1937
vn -0.9859 0.0751 -0.1496
vn -0.9036 -0.2844 -0.3203
vn -0.9085 -0.2750 -0.3148
vn 0.1233 0.7220 -0.6809
vn -0.6335 -0.5592 -0.5348
vn -0.9889 0.0897 -0.1181
vn -0.8968 0.3212 -0.3041
vn -0.8983 0.3192 -0.3021
vn -0.9887 -0.0921 -0.1182
vn -0.9030 -0.2872 -0.3195
vn -0.9547 -0.2142 -0.2063
vn -0.7631 0.5589 0.3243
vn -0.8593 -0.0099 0.5115
vn -0.7374 0.6111 0.2878
vn -0.8654 -0.0101 0.5010
vn -0.7239 -0.6332 0.2738
vn -0.8577 0.0465 0.5120
vn -0.7204 -0.6348 0.2792
vn -0.8651 0.0276 0.5009
vn -0.7271 0.6172 0.3008
vn -0.8471 -0.0760 0.5259
vn -0.7082 0.6463 0.2842
vn -0.8629 -0.0007 0.5053
vn -0.7654 -0.4958 0.4103
vn -0.8578 0.0597 0.5106
vn -0.7209 -0.6350 0.2776
vn -0.8596 0.0465 0.5088
vn -0.9582 0.2106 -0.1938
vn -0.5594 0.8189 0.1279
vn -0.7375 0.6366 -0.2256
vn -0.5512 0.8316 -0.0681
vn -0.5530 0.8200 0.1477
vn -0.7058 0.3837 0.5955
vn -0.6673 0.4575 0.5878
vn -0.9583 -0.2082 -0.1960
vn -0.9578 -0.2038 0.2027
vn -0.7380 -0.6360 -0.2255
vn -0.5522 -0.8309 -0.0688
vn -0.6984 -0.5451 0.4638
vn -0.7035 -0.3739 0.6044
vn -0.6781 -0.4471 0.5834
vn -0.9554 0.2129 0.2047
vn -0.9553 0.2132 0.2046
vn -0.6011 0.7878 0.1343
vn -0.5860 0.7990 0.1350
vn -0.7123 0.4228 0.5603
vn -0.6553 0.4611 0.5983
vn -0.9571 -0.2110 0.1987
vn -0.9197 -0.3154 0.2338
vn -0.5538 -0.8227 0.1285
vn -0.6030 -0.7831 0.1520
vn -0.7051 -0.3183 0.6337
vn -0.6558 -0.4609 0.5979
vn 0.2972 -0.9489 0.1058
vn 0.3596 -0.9281 0.0961
vn 0.3591 -0.9281 0.0988
vn 0.4487 -0.8853 0.1221
vn 0.5167 -0.8523 -0.0809
vn 0.3125 -0.9499 0.0040
vn 0.5762 -0.8136 -0.0780
vn 0.4748 -0.8784 0.0534
vn -0.3329 0.9335 -0.1330
vn -0.5753 0.8143 0.0778
vn -0.2227 -0.7280 0.6484
vn 0.8816 0.4407 -0.1688
vn -0.5999 0.7999 -0.0137
vn 0.3088 -0.9441 0.1158
vn 0.1620 -0.9737 0.1601
vn 0.2390 -0.9562 0.1688
vn 0.3451 -0.9326 0.1061
vn 0.4139 -0.9054 0.0945
vn 0.5237 -0.8518 0.0134
vn -0.2043 -0.8814 0.4258
vn 0.3825 -0.9234 0.0327
vn 0.4200 -0.9065 -0.0430
vn 0.4001 -0.9162 0.0202
vn 0.3624 -0.9317 0.0236
vn 0.5755 -0.8142 -0.0767
vn 0.4089 -0.9125 0.0101
vn 0.3443 -0.9305 0.1249
vn -0.4093 0.9116 -0.0373
vn -0.3918 0.9167 -0.0781
vn -0.3831 0.9194 -0.0894
vn -0.3486 0.9290 -0.1246
vn -0.3981 0.9162 -0.0462
vn 0.8252 -0.2492 -0.5069
vn -0.3812 -0.9192 -0.0989
vn -0.4028 -0.9126 -0.0705
vn 0.8210 -0.5432 -0.1758
vn 0.2463 0.9568 0.1546
vn 0.3589 0.9302 0.0768
vn 0.3120 0.9406 0.1336
vn 0.4940 0.8695 -0.0036
vn 0.2330 0.9709 0.0559
vn 0.5704 0.8163 -0.0907
vn 0.4320 0.9017 0.0169
vn -0.6256 -0.7801 0.0014
vn -0.4587 -0.8880 -0.0340
vn -0.1718 -0.9656 -0.1952
vn -0.5460 -0.8324 0.0948
vn -0.1708 -0.9726 -0.1577
vn -0.3650 -0.9251 -0.1050
vn 0.2777 0.9541 0.1122
vn 0.2744 0.9538 0.1224
vn 0.2757 0.9482 0.1577
vn 0.3237 0.9380 0.1239
vn 0.0912 0.9926 0.0796
vn 0.4518 0.8828 0.1286
vn -0.3889 -0.9199 -0.0500
vn 0.5464 0.8323 -0.0929
vn 0.3838 0.9222 0.0463
vn 0.3210 0.9452 0.0601
vn 0.3618 0.9322 0.0126
vn 0.5794 0.8089 -0.0996
vn -0.6708 0.1644 0.7232
vn 0.3790 0.9229 0.0686
vn -0.8187 0.5208 -0.2419
vn -0.9354 0.1358 -0.3266
vn -0.9275 0.1520 -0.3415
vn -0.9530 0.1959 -0.2310
vn -0.8636 -0.4480 -0.2312
vn -0.9627 -0.1032 -0.2500
vn -0.9281 -0.1952 -0.3171
vn -0.9290 -0.1999 -0.3116
vn -0.9645 0.1505 -0.2169
vn -0.7997 0.0822 -0.5948
vn -0.9112 0.3336 -0.2419
vn -0.7570 0.4630 -0.4611
vn -0.9074 0.2900 -0.3041
vn -0.9456 -0.2255 -0.2344
vn -0.8553 -0.1178 -0.5045
vn -0.9297 -0.1804 -0.3210
vn -0.9502 -0.2104 -0.2299
vn -0.9209 -0.2619 -0.2889
vn -0.9714 0.1043 -0.2133
vn -0.9305 -0.0988 -0.3526
vn -0.7123 0.4380 0.5484
vn -0.7252 -0.4414 0.5285
vn -0.9271 0.2492 -0.2800
vn -0.9564 -0.1893 -0.2224
vn -0.7194 0.4286 0.5466
vn -0.7051 -0.4357 0.5594
vn -0.9601 -0.2466 0.1321
vn -0.9845 -0.1730 0.0296
vn -0.9992 -0.0212 -0.0344
vn -0.8400 0.5322 -0.1061
vn -0.9901 0.1193 -0.0735
vn -0.9952 0.0875 -0.0445
vn -0.9984 0.0474 -0.0316
vn -0.7425 -0.5003 0.4453
vn 0.9997 0.0122 -0.0228
vn -0.9774 -0.1828 0.1063
vn -0.9971 -0.0260 -0.0715
vn -0.9887 0.1140 -0.0974
vn -0.9765 0.1720 -0.1296
vn -0.9862 0.1400 -0.0887
vn -0.9609 0.2382 -0.1414
vn -0.9935 0.1050 -0.0446
vn -0.9840 0.1637 -0.0702
vn -0.9909 0.1103 -0.0769
vn -0.9906 0.1125 -0.0776
vn -0.9919 0.1075 -0.0682
vn 1.0000 -0.0092 0.0012
vn 0.9944 -0.1038 0.0183
vn 0.9979 -0.0647 0.0065
vn 0.9997 -0.0224 -0.0075
vn -0.1720 0.7265 0.6653
vn -0.9752 0.1940 0.1063
vn -0.9870 0.1584 0.0269
vn -0.9977 0.0461 -0.0493
vn -0.9861 -0.1342 -0.0979
vn -0.9904 -0.1131 -0.0800
vn -0.9690 -0.1965 -0.1498
vn -0.9278 -0.3699 -0.0492
vn -0.9916 -0.1044 -0.0768
vn 0.9994 0.0352 0.0012
vn 0.9995 0.0216 -0.0230
vn 0.9995 0.0242 -0.0192
vn 0.3797 0.6916 0.6144
vn -0.9611 0.2393 0.1378
vn 0.4541 -0.8897 0.0469
vn -0.9733 -0.1728 -0.1514
vn -0.9888 -0.1256 -0.0806
vn -0.9913 -0.1083 -0.0752
vn -0.9917 -0.1200 -0.0458
vn -0.9914 -0.1275 -0.0302
vn -0.9923 -0.1113 -0.0552
vn -0.9916 -0.1063 -0.0743
vn -0.5539 -0.6389 -0.5338
vn -0.9948 -0.0859 -0.0539
s 0
f 1//1 3//1 2//1
f 4//2 2//2 5//2
f 1//3 2//3 4//3
f 6//4 4//4 5//4
f 7//5 9//5 8//5
f 10//6 11//6 7//6
f 12//7 14//7 13//7
f 15//8 7//8 3//8
f 13//9 121//9 12//9
f 16//10 14//10 17//10
f 16//11 18//11 13//11
f 121//12 20//12 19//12
f 21//13 20//13 22//13
f 23//14 20//14 24//14
f 25//15 23//15 26//15
f 23//16 27//16 26//16
f 28//17 30//17 29//17
f 30//18 31//18 29//18
f 32//19 34//19 33//19
f 35//20 31//20 36//20
f 33//21 38//21 37//21
f 39//22 33//22 35//22
f 33//23 40//23 35//23
f 41//24 43//24 42//24
f 43//25 45//25 44//25
f 46//26 47//26 45//26
f 48//27 46//27 49//27
f 48//28 45//28 47//28
f 50//29 40//29 51//29
f 50//30 52//30 5//30
f 50//31 51//31 52//31
f 5//32 51//32 6//32
f 3//33 1//33 15//33
f 4//34 6//34 1//34
f 9//5 7//5 11//5
f 7//35 53//35 10//35
f 7//36 16//36 53//36
f 7//37 15//37 16//37
f 121//38 18//38 54//38
f 121//39 13//39 18//39
f 14//40 16//40 13//40
f 18//41 16//41 15//41
f 20//42 55//42 22//42
f 20//43 121//43 55//43
f 20//44 21//44 24//44
f 23//45 25//45 20//45
f 27//46 23//46 24//46
f 30//47 28//47 56//47
f 31//48 57//48 29//48
f 31//49 40//49 57//49
f 31//50 35//50 40//50
f 38//51 34//51 41//51
f 38//52 33//52 34//52
f 33//53 39//53 32//53
f 40//54 33//54 37//54
f 43//55 58//55 46//55
f 43//56 41//56 58//56
f 45//57 43//57 46//57
f 46//58 48//58 47//58
f 45//28 48//28 59//28
f 40//59 50//59 57//59
f 51//60 5//60 52//60
f 22//61 60//61 21//61
f 61//62 62//62 19//62
f 19//63 25//63 61//63
f 63//64 65//64 64//64
f 8//65 67//65 66//65
f 64//66 65//66 68//66
f 64//67 69//67 67//67
f 68//68 70//68 69//68
f 71//69 72//69 70//69
f 73//70 74//70 58//70
f 74//71 46//71 58//71
f 75//72 77//72 76//72
f 73//73 76//73 74//73
f 75//74 76//74 78//74
f 67//75 78//75 76//75
f 69//76 79//76 78//76
f 70//77 80//77 79//77
f 40//78 6//78 51//78
f 60//79 1//79 6//79
f 60//80 15//80 1//80
f 60//81 18//81 15//81
f 60//82 54//82 18//82
f 60//83 22//83 54//83
f 25//84 19//84 20//84
f 67//85 61//85 64//85
f 67//86 62//86 61//86
f 67//87 9//87 62//87
f 67//88 8//88 9//88
f 69//89 64//89 68//89
f 70//90 68//90 71//90
f 72//91 71//91 81//91
f 46//92 74//92 49//92
f 76//93 66//93 67//93
f 76//94 28//94 66//94
f 76//95 56//95 28//95
f 76//96 73//96 56//96
f 78//97 67//97 69//97
f 79//98 69//98 70//98
f 80//99 70//99 72//99
f 6//100 44//100 60//100
f 6//101 43//101 44//101
f 6//102 38//102 43//102
f 6//103 37//103 38//103
f 6//104 40//104 37//104
f 82//105 84//105 83//105
f 8//106 66//106 85//106
f 86//107 8//107 85//107
f 82//108 86//108 3//108
f 84//109 86//109 83//109
f 82//110 3//110 87//110
f 87//111 7//111 88//111
f 89//112 86//112 90//112
f 90//113 86//113 91//113
f 92//114 94//114 93//114
f 95//115 86//115 96//115
f 94//116 95//116 93//116
f 96//117 86//117 97//117
f 5//118 94//118 98//118
f 99//119 101//119 100//119
f 66//120 28//120 85//120
f 102//121 29//121 101//121
f 57//122 103//122 99//122
f 86//123 102//123 103//123
f 57//124 99//124 100//124
f 101//125 57//125 100//125
f 104//126 57//126 105//126
f 86//127 104//127 106//127
f 107//128 98//128 92//128
f 108//129 106//129 109//129
f 110//130 109//130 50//130
f 86//131 111//131 97//131
f 98//132 50//132 5//132
f 84//133 87//133 88//133
f 84//134 82//134 87//134
f 8//135 88//135 7//135
f 8//136 84//136 88//136
f 8//137 86//137 84//137
f 86//138 82//138 83//138
f 7//139 87//139 3//139
f 86//140 89//140 3//140
f 94//141 92//141 98//141
f 86//142 112//142 91//142
f 86//143 95//143 112//143
f 95//144 2//144 112//144
f 95//145 94//145 2//145
f 94//146 5//146 2//146
f 101//147 103//147 102//147
f 101//148 99//148 103//148
f 29//149 85//149 28//149
f 29//150 86//150 85//150
f 29//151 102//151 86//151
f 103//152 57//152 86//152
f 57//153 101//153 29//153
f 57//154 104//154 86//154
f 98//155 107//155 110//155
f 106//156 111//156 86//156
f 106//157 108//157 111//157
f 109//158 107//158 108//158
f 109//159 110//159 107//159
f 50//160 98//160 110//160
f 27//161 63//161 26//161
f 24//162 113//162 27//162
f 114//163 24//163 21//163
f 81//164 60//164 72//164
f 113//165 60//165 81//165
f 115//166 60//166 113//166
f 114//167 60//167 115//167
f 48//168 116//168 59//168
f 59//169 117//169 45//169
f 44//170 117//170 118//170
f 60//171 80//171 72//171
f 60//172 116//172 80//172
f 60//173 117//173 116//173
f 60//174 118//174 117//174
f 21//175 60//175 114//175
f 60//176 44//176 118//176
f 63//177 27//177 113//177
f 113//178 24//178 115//178
f 24//179 114//179 115//179
f 116//180 48//180 77//180
f 117//181 59//181 116//181
f 117//182 44//182 45//182
f 112//183 90//183 91//183
f 95//184 97//184 119//184
f 2//185 89//185 112//185
f 92//186 95//186 119//186
f 106//187 105//187 109//187
f 119//188 111//188 108//188
f 109//189 57//189 50//189
f 119//190 107//190 92//190
f 90//191 112//191 89//191
f 97//192 95//192 96//192
f 89//193 2//193 3//193
f 95//194 92//194 93//194
f 105//195 106//195 104//195
f 111//196 119//196 97//196
f 57//197 109//197 105//197
f 107//198 119//198 108//198
f 120//199 62//199 9//199
f 10//200 9//200 11//200
f 19//201 62//201 120//201
f 121//202 19//202 120//202
f 122//203 121//203 120//203
f 123//204 14//204 122//204
f 10//205 123//205 122//205
f 73//206 124//206 56//206
f 31//207 124//207 125//207
f 73//208 58//208 124//208
f 58//209 41//209 124//209
f 125//210 34//210 32//210
f 125//211 39//211 126//211
f 125//212 36//212 31//212
f 9//213 122//213 120//213
f 9//214 10//214 122//214
f 121//215 14//215 12//215
f 121//216 122//216 14//216
f 14//217 123//217 17//217
f 123//218 10//218 53//218
f 124//219 30//219 56//219
f 124//220 31//220 30//220
f 34//221 124//221 41//221
f 34//222 125//222 124//222
f 39//223 125//223 32//223
f 36//224 125//224 126//224
f 127//225 78//225 128//225
f 129//226 127//226 130//226
f 130//227 128//227 131//227
f 132//228 130//228 131//228
f 133//229 134//229 129//229
f 135//230 137//230 136//230
f 133//231 139//231 138//231
f 140//232 133//232 138//232
f 131//233 79//233 139//233
f 79//234 138//234 139//234
f 140//235 135//235 136//235
f 80//236 116//236 135//236
f 131//237 139//237 132//237
f 78//238 134//238 75//238
f 78//239 127//239 134//239
f 127//240 129//240 134//240
f 128//241 130//241 127//241
f 130//242 139//242 129//242
f 130//243 132//243 139//243
f 134//244 77//244 75//244
f 134//245 116//245 77//245
f 134//246 137//246 116//246
f 134//247 133//247 137//247
f 137//248 135//248 116//248
f 139//249 133//249 129//249
f 133//250 136//250 137//250
f 133//251 140//251 136//251
f 79//252 128//252 78//252
f 79//253 131//253 128//253
f 138//254 79//254 80//254
f 135//255 138//255 80//255
f 135//256 140//256 138//256
f 141//257 68//257 142//257
f 143//258 81//258 71//258
f 144//259 81//259 145//259
f 113//260 81//260 146//260
f 147//261 65//261 148//261
f 149//262 148//262 150//262
f 141//263 147//263 149//263
f 151//264 150//264 143//264
f 113//46 65//46 63//46
f 152//265 113//265 146//265
f 145//266 150//266 153//266
f 144//267 154//267 152//267
f 143//268 141//268 151//268
f 68//269 143//269 71//269
f 68//270 141//270 143//270
f 81//271 143//271 145//271
f 81//272 152//272 146//272
f 81//273 144//273 152//273
f 65//274 142//274 68//274
f 65//275 147//275 142//275
f 148//276 149//276 147//276
f 147//277 141//277 142//277
f 150//278 141//278 149//278
f 150//279 151//279 141//279
f 65//280 150//280 148//280
f 65//281 153//281 150//281
f 65//282 154//282 153//282
f 65//283 113//283 154//283
f 113//284 152//284 154//284
f 150//285 145//285 143//285
f 154//286 145//286 153//286
f 154//287 144//287 145//287
f 155//288 63//288 64//288
f 156//289 64//289 61//289
f 25//290 156//290 61//290
f 157//291 63//291 158//291
f 76//292 160//292 159//292
f 74//293 159//293 161//293
f 74//294 162//294 49//294
f 162//295 48//295 49//295
f 63//296 155//296 158//296
f 64//297 156//297 155//297
f 156//298 25//298 157//298
f 63//299 25//299 26//299
f 63//300 157//300 25//300
f 160//301 76//301 77//301
f 159//302 74//302 76//302
f 162//303 74//303 161//303
f 48//304 160//304 77//304
f 48//305 162//305 160//305
f 156//306 158//306 155//306
f 159//307 162//307 161//307
f 123//308 16//308 17//308
f 36//309 39//309 35//309
f 158//310 156//310 157//310
f 162//311 159//311 160//311
f 16//312 123//312 53//312
f 39//313 36//313 126//313
f 38//314 164//314 163//314
f 164//315 165//315 163//315
f 165//316 167//316 166//316
f 168//317 170//317 169//317
f 168//318 172//318 171//318
f 169//319 173//319 172//319
f 171//320 166//320 167//320
f 167//321 168//321 171//321
f 165//322 38//322 163//322
f 164//323 38//323 41//323
f 167//324 165//324 164//324
f 170//325 42//325 43//325
f 170//326 168//326 42//326
f 172//327 168//327 169//327
f 173//328 169//328 170//328
f 166//329 172//329 173//329
f 166//330 171//330 172//330
f 168//331 41//331 42//331
f 168//332 164//332 41//332
f 168//333 167//333 164//333
f 38//334 170//334 43//334
f 38//335 173//335 170//335
f 38//336 166//336 173//336
f 38//337 165//337 166//337
f 174//338 22//338 175//338
f 176//339 121//339 54//339
f 177//340 178//340 176//340
f 179//341 178//341 177//341
f 180//342 22//342 55//342
f 181//343 182//343 180//343
f 183//344 175//344 182//344
f 181//345 174//345 183//345
f 178//346 55//346 121//346
f 22//347 176//347 54//347
f 22//348 177//348 176//348
f 22//349 179//349 177//349
f 22//350 174//350 179//350
f 121//351 176//351 178//351
f 178//352 179//352 184//352
f 22//353 182//353 175//353
f 22//354 180//354 182//354
f 182//355 181//355 183//355
f 175//356 183//356 174//356
f 174//357 184//357 179//357
f 174//358 181//358 184//358
f 55//359 181//359 180//359
f 55//360 184//360 181//360
f 55//361 178//361 184//361
