# Blender 4.2.3 LTS
# www.blender.org
o m1295
v 0.027924 0.500000 0.033754
v 0.034219 0.500000 0.038403
v 0.040515 0.500000 0.039565
v 0.046811 0.500000 0.040728
v 0.053107 0.500000 0.041018
v 0.065698 0.500000 0.041309
v 0.103473 0.500000 0.040728
v 0.153839 0.500000 0.033754
v 0.103473 0.500000 0.026780
v 0.065698 0.500000 0.026199
v 0.053107 0.500000 0.026489
v 0.046811 0.500000 0.026780
v 0.040515 0.500000 0.027942
v 0.034219 0.500000 0.029105
v 0.391025 0.975000 0.033754
v 0.396476 0.975000 0.037779
v 0.401926 0.975000 0.038785
v 0.407376 0.975000 0.039791
v 0.412827 0.975000 0.040043
v 0.423727 0.975000 0.040294
v 0.456430 0.975000 0.039791
v 0.500033 0.975000 0.033754
v 0.456430 0.975000 0.027717
v 0.423727 0.975000 0.027213
v 0.412827 0.975000 0.027465
v 0.407376 0.975000 0.027717
v 0.401926 0.975000 0.028723
v 0.396476 0.975000 0.029729
v 0.391025 0.025000 0.033754
v 0.396476 0.025000 0.037779
v 0.401926 0.025000 0.038785
v 0.407376 0.025000 0.039791
v 0.412827 0.025000 0.040043
v 0.423727 0.025000 0.040294
v 0.456430 0.025000 0.039791
v 0.500033 0.025000 0.033754
v 0.456430 0.025000 0.027717
v 0.423727 0.025000 0.027213
v 0.412827 0.025000 0.027465
v 0.407376 0.025000 0.027717
v 0.401926 0.025000 0.028723
v 0.396476 0.025000 0.029729
v 0.025000 0.500000 0.033754
v 0.046885 0.500000 0.039141
v 0.068769 0.500000 0.040488
v 0.090654 0.500000 0.041834
v 0.112538 0.500000 0.042171
v 0.156307 0.500000 0.042508
v 0.287615 0.500000 0.041834
v 0.462691 0.500000 0.033754
v 0.287615 0.500000 0.025673
v 0.156307 0.500000 0.025000
v 0.112538 0.500000 0.025337
v 0.090654 0.500000 0.025673
v 0.068769 0.500000 0.027020
v 0.046885 0.500000 0.028367
v 0.131935 0.636864 0.033754
v 0.142911 0.636864 0.036456
v 0.153887 0.636864 0.037131
v 0.164863 0.636864 0.037806
v 0.175839 0.636864 0.037975
v 0.197791 0.636864 0.038144
v 0.263646 0.636864 0.037806
v 0.351454 0.636864 0.033754
v 0.263646 0.636864 0.029701
v 0.197791 0.636864 0.029364
v 0.175839 0.636864 0.029532
v 0.164863 0.636864 0.029701
v 0.153887 0.636864 0.030377
v 0.142911 0.636864 0.031052
v 0.131935 0.363136 0.033754
v 0.142911 0.363136 0.036456
v 0.153887 0.363136 0.037131
v 0.164863 0.363136 0.037806
v 0.175839 0.363136 0.037975
v 0.197791 0.363136 0.038144
v 0.263646 0.363136 0.037806
v 0.351454 0.363136 0.033754
v 0.263646 0.363136 0.029701
v 0.197791 0.363136 0.029364
v 0.175839 0.363136 0.029532
v 0.164863 0.363136 0.029701
v 0.153887 0.363136 0.030377
v 0.142911 0.363136 0.031052
v 0.028332 0.500107 0.033902
v 0.028332 0.500075 0.034411
v 0.028332 0.500000 0.034628
v 0.028332 0.499925 0.034411
v 0.028332 0.499893 0.033902
v 0.028332 0.499925 0.033723
v 0.028332 0.500000 0.033647
v 0.028332 0.500075 0.033723
v 0.155921 0.533379 0.039376
v 0.155921 0.523439 0.060022
v 0.155921 0.500000 0.068777
v 0.155921 0.476561 0.060022
v 0.155921 0.466621 0.039376
v 0.155921 0.476561 0.032122
v 0.155921 0.500000 0.029046
v 0.155921 0.523439 0.032122
v 0.461950 0.500627 0.034738
v 0.461950 0.500440 0.035162
v 0.461950 0.500000 0.035342
v 0.461950 0.499560 0.035162
v 0.461950 0.499373 0.034738
v 0.461950 0.499560 0.034589
v 0.461950 0.500000 0.034525
v 0.461950 0.500440 0.034589
v 0.171911 0.654627 0.030078
v 0.171911 0.648366 0.049173
v 0.171911 0.627274 0.054841
v 0.171911 0.606181 0.049173
v 0.171911 0.599920 0.030078
v 0.171911 0.606181 0.029885
v 0.171911 0.627274 0.029827
v 0.171911 0.648366 0.029885
v 0.338736 0.654715 0.036275
v 0.338736 0.648434 0.050596
v 0.338736 0.627274 0.054846
v 0.338736 0.606114 0.050596
v 0.338736 0.599833 0.036275
v 0.338736 0.606114 0.036131
v 0.338736 0.627274 0.036088
v 0.338736 0.648434 0.036131
v 0.171911 0.400080 0.030078
v 0.171911 0.393819 0.049173
v 0.171911 0.372726 0.054841
v 0.171911 0.351634 0.049173
v 0.171911 0.345373 0.030078
v 0.171911 0.351634 0.029885
v 0.171911 0.372726 0.029827
v 0.171911 0.393819 0.029885
v 0.338736 0.400167 0.036275
v 0.338736 0.393886 0.050596
v 0.338736 0.372726 0.054846
v 0.338736 0.351566 0.050596
v 0.338736 0.345285 0.036275
v 0.338736 0.351566 0.036131
v 0.338736 0.372726 0.036088
v 0.338736 0.393886 0.036131
v 0.231935 0.632652 0.033560
v 0.238190 0.651897 0.033560
v 0.244445 0.656708 0.033560
v 0.250699 0.661520 0.033560
v 0.256954 0.662722 0.033560
v 0.269464 0.663925 0.033560
v 0.306992 0.661520 0.033560
v 0.357030 0.632652 0.033560
v 0.306992 0.603783 0.033560
v 0.269464 0.601378 0.033560
v 0.256954 0.602581 0.033560
v 0.250699 0.603783 0.033560
v 0.244445 0.608595 0.033560
v 0.238190 0.613406 0.033560
v 0.286681 0.714987 0.036048
v 0.293051 0.754188 0.036048
v 0.299422 0.763988 0.036048
v 0.305792 0.773789 0.036048
v 0.312162 0.776239 0.036048
v 0.324902 0.778689 0.036048
v 0.363124 0.773789 0.036048
v 0.414086 0.714987 0.036048
v 0.363124 0.656184 0.036048
v 0.324902 0.651284 0.036048
v 0.312162 0.653734 0.036048
v 0.305792 0.656184 0.036048
v 0.299422 0.665985 0.036048
v 0.293051 0.675785 0.036048
v 0.231935 0.367348 0.033560
v 0.238190 0.386594 0.033560
v 0.244445 0.391405 0.033560
v 0.250699 0.396216 0.033560
v 0.256954 0.397419 0.033560
v 0.269464 0.398622 0.033560
v 0.306992 0.396216 0.033560
v 0.357030 0.367348 0.033560
v 0.306992 0.338480 0.033560
v 0.269464 0.336075 0.033560
v 0.256954 0.337278 0.033560
v 0.250699 0.338480 0.033560
v 0.244445 0.343292 0.033560
v 0.238190 0.348103 0.033560
v 0.286681 0.285013 0.036048
v 0.293051 0.324215 0.036048
v 0.299422 0.334015 0.036048
v 0.305792 0.343816 0.036048
v 0.312162 0.346266 0.036048
v 0.324902 0.348716 0.036048
v 0.363124 0.343816 0.036048
v 0.414086 0.285013 0.036048
v 0.363124 0.226211 0.036048
v 0.324902 0.221311 0.036048
v 0.312162 0.223761 0.036048
v 0.305792 0.226211 0.036048
v 0.299422 0.236012 0.036048
v 0.293051 0.245812 0.036048
v 0.155921 0.498631 0.033754
v 0.172345 0.498631 0.033754
v 0.172345 0.506843 0.033754
v 0.155921 0.506843 0.033754
v 0.155921 0.498631 0.047440
v 0.172345 0.498631 0.047440
v 0.172345 0.506843 0.047440
v 0.155921 0.506843 0.047440
vn -0.5409 0.4134 0.7325
vn -0.1798 0.1384 0.9739
vn -0.0461 0.0370 0.9982
vn -0.0230 0.0195 0.9995
vn 0.0154 -0.0095 0.9998
vn 0.1365 -0.0995 0.9856
vn 0.1365 -0.0995 -0.9856
vn 0.0154 -0.0095 -0.9998
vn -0.0231 0.0196 -0.9995
vn -0.0461 0.0370 -0.9982
vn -0.1798 0.1384 -0.9739
vn -0.5409 0.4135 -0.7325
vn -0.5409 0.4135 0.7324
vn -0.1797 0.1384 0.9739
vn -0.1799 0.1385 0.9739
vn -0.0460 0.0369 0.9983
vn -0.0231 0.0195 0.9995
vn -0.0230 0.0195 -0.9995
vn -0.1799 0.1385 -0.9739
vn -0.5409 0.4135 -0.7324
vn -0.5409 -0.4134 0.7325
vn -0.1798 -0.1384 0.9739
vn -0.0461 -0.0370 0.9982
vn -0.0230 -0.0195 0.9995
vn 0.0154 0.0095 0.9998
vn 0.1365 0.0995 0.9856
vn 0.1365 0.0995 -0.9856
vn 0.0154 0.0095 -0.9998
vn -0.0231 -0.0196 -0.9995
vn -0.0461 -0.0370 -0.9982
vn -0.1798 -0.1384 -0.9739
vn -0.5409 -0.4134 -0.7325
vn -0.5409 -0.4135 0.7324
vn -0.1799 -0.1385 0.9739
vn -0.0460 -0.0369 0.9983
vn -0.0231 -0.0195 0.9995
vn -0.0230 -0.0195 -0.9995
vn -0.1797 -0.1384 -0.9739
vn -0.1799 -0.1385 -0.9739
vn -0.5409 -0.4135 -0.7324
vn -0.2350 0.1836 0.9545
vn -0.0613 0.0625 0.9962
vn -0.0154 0.0377 0.9992
vn -0.0077 0.0342 0.9994
vn 0.0051 0.0303 0.9995
vn 0.0461 0.0374 0.9982
vn 0.0461 0.0374 -0.9982
vn 0.0051 0.0303 -0.9995
vn -0.0076 0.0342 -0.9994
vn -0.0154 0.0377 -0.9992
vn -0.0614 0.0626 -0.9962
vn -0.0613 0.0625 -0.9962
vn -0.2350 0.1836 -0.9545
vn -0.0613 0.0626 0.9962
vn -0.0077 0.0342 -0.9994
vn -0.0153 0.0377 -0.9992
vn -0.0613 0.0626 -0.9962
vn -0.2350 -0.1836 0.9545
vn -0.0613 -0.0625 0.9962
vn -0.0154 -0.0377 0.9992
vn -0.0077 -0.0342 0.9994
vn 0.0051 -0.0303 0.9995
vn 0.0461 -0.0374 0.9982
vn 0.0461 -0.0374 -0.9982
vn 0.0051 -0.0303 -0.9995
vn -0.0076 -0.0342 -0.9994
vn -0.0154 -0.0377 -0.9992
vn -0.0614 -0.0626 -0.9962
vn -0.0613 -0.0625 -0.9962
vn -0.2350 -0.1836 -0.9545
vn -0.0613 -0.0626 0.9962
vn -0.0077 -0.0342 -0.9994
vn -0.0153 -0.0377 -0.9992
vn -0.0613 -0.0626 -0.9962
vn -0.2458 0.8734 0.4205
vn -0.2445 0.3393 0.9084
vn -0.2432 -0.3394 0.9087
vn -0.2444 -0.8737 0.4206
vn -0.1182 -0.5854 -0.8021
vn -0.0362 -0.1300 -0.9908
vn -0.0357 0.1300 -0.9909
vn -0.1173 0.5854 -0.8022
vn 0.1035 0.9100 0.4015
vn 0.1031 0.3766 0.9206
vn 0.1006 -0.3767 0.9208
vn 0.1010 -0.9103 0.4014
vn 0.0547 -0.6221 -0.7810
vn 0.0188 -0.1439 -0.9894
vn 0.0177 0.1439 -0.9894
vn 0.0531 0.6223 -0.7810
vn -0.1917 0.9795 0.0616
vn -0.0871 0.9416 0.3253
vn -0.2321 -0.9193 0.3179
vn -0.2543 -0.9652 0.0607
vn -0.1795 -0.9685 -0.1728
vn -0.0253 -0.7116 -0.7021
vn -0.1377 0.7045 -0.6962
vn -0.2417 0.9551 -0.1714
vn 0.1024 0.8963 0.4315
vn 0.1018 0.3481 0.9319
vn 0.1019 -0.3481 0.9319
vn 0.1025 -0.8963 0.4315
vn 0.0507 -0.5887 -0.8067
vn 0.0177 -0.1301 -0.9913
vn 0.0178 0.1301 -0.9913
vn 0.0508 0.5887 -0.8067
vn -0.0154 0.9157 0.4016
vn -0.0084 0.1969 0.9804
vn -0.0000 -0.1969 0.9804
vn -0.0038 -0.9158 0.4017
vn 0.0371 -0.0229 -0.9990
vn 0.0374 -0.0020 -0.9993
vn 0.0375 0.0020 -0.9993
vn 0.0374 0.0229 -0.9990
vn -0.0030 0.9502 0.3116
vn -0.0000 0.2595 0.9657
vn -0.0083 -0.2595 0.9657
vn -0.0121 -0.9502 0.3115
vn 0.0374 -0.0308 -0.9988
vn 0.0375 -0.0027 -0.9993
vn 0.0374 0.0027 -0.9993
vn 0.0371 0.0308 -0.9988
vn 0.0600 -0.0098 -0.9981
vn 0.2071 -0.1347 0.9690
vn 0.1654 -0.1075 0.9804
vn 0.0105 -0.0273 0.9996
vn 0.0046 -0.0242 0.9997
vn -0.0026 -0.0204 0.9998
vn -0.0162 -0.0141 0.9998
vn -0.1695 0.1469 -0.9745
vn -0.0070 0.0550 -0.9985
vn 0.0079 0.0410 -0.9991
vn 0.0132 0.0343 -0.9993
vn 0.0279 0.0181 -0.9994
vn 0.0269 0.0175 -0.9995
vn 0.0382 0.0062 -0.9992
vn 0.1143 -0.0371 -0.9928
vn 0.0294 -0.0382 0.9988
vn 0.0274 -0.0356 0.9990
vn 0.0022 -0.0227 0.9997
vn -0.0014 -0.0215 0.9998
vn -0.0125 -0.0216 0.9997
vn -0.0710 0.1230 -0.9899
vn -0.0034 0.0536 -0.9986
vn 0.0042 0.0440 -0.9990
vn 0.0076 0.0395 -0.9992
vn 0.0192 0.0249 -0.9995
vn 0.0183 0.0238 -0.9995
vn 0.0305 0.0099 -0.9995
vn -0.0365 0.0059 0.9993
vn -0.0261 0.0169 0.9995
vn -0.0269 0.0175 0.9995
vn -0.0130 0.0338 0.9993
vn -0.0077 0.0402 0.9992
vn 0.0074 0.0580 0.9983
vn 0.2219 0.1923 -0.9559
vn 0.0194 -0.0168 -0.9997
vn 0.0027 -0.0208 -0.9998
vn -0.0046 -0.0239 -0.9997
vn -0.0104 -0.0269 -0.9996
vn -0.1373 -0.0892 -0.9865
vn -0.1652 -0.1074 -0.9804
vn -0.0649 -0.0105 0.9978
vn -0.0331 0.0108 0.9994
vn -0.0192 0.0249 0.9995
vn -0.0202 0.0262 0.9995
vn -0.0043 0.0450 0.9990
vn 0.0033 0.0509 0.9987
vn 0.0290 0.0503 0.9983
vn 0.0099 -0.0172 -0.9998
vn 0.0013 -0.0210 -0.9998
vn -0.0022 -0.0230 -0.9997
vn -0.0047 -0.0245 -0.9997
vn -0.0294 -0.0382 -0.9988
vn -0.0318 -0.0413 -0.9986
vn -0.0885 -0.0288 0.9957
vn -0.0000 -0.0000 -1.0000
vn -0.0000 -1.0000 -0.0000
vn -1.0000 -0.0000 -0.0000
vn -0.0000 1.0000 -0.0000
vn 1.0000 -0.0000 -0.0000
vn -0.0000 -0.0000 1.0000
vn 1.0000 -0.0003 -0.0000
vn 1.0000 0.0001 -0.0000
s 0
f 1//1 16//1 15//1
f 2//2 17//2 16//2
f 3//2 18//2 17//2
f 4//3 19//3 18//3
f 5//4 20//4 19//4
f 6//5 21//5 20//5
f 7//6 22//6 21//6
f 8//7 23//7 22//7
f 9//8 24//8 23//8
f 10//9 25//9 24//9
f 11//10 26//10 25//10
f 12//11 27//11 26//11
f 13//11 28//11 27//11
f 14//12 15//12 28//12
f 1//13 2//13 16//13
f 2//14 3//14 17//14
f 3//15 4//15 18//15
f 4//16 5//16 19//16
f 5//17 6//17 20//17
f 6//5 7//5 21//5
f 7//6 8//6 22//6
f 8//7 9//7 23//7
f 9//8 10//8 24//8
f 10//18 11//18 25//18
f 11//10 12//10 26//10
f 12//11 13//11 27//11
f 13//19 14//19 28//19
f 14//20 1//20 15//20
f 1//21 29//21 30//21
f 2//22 30//22 31//22
f 3//22 31//22 32//22
f 4//23 32//23 33//23
f 5//24 33//24 34//24
f 6//25 34//25 35//25
f 7//26 35//26 36//26
f 8//27 36//27 37//27
f 9//28 37//28 38//28
f 10//29 38//29 39//29
f 11//30 39//30 40//30
f 12//31 40//31 41//31
f 13//31 41//31 42//31
f 14//32 42//32 29//32
f 1//33 30//33 2//33
f 2//22 31//22 3//22
f 3//34 32//34 4//34
f 4//35 33//35 5//35
f 5//36 34//36 6//36
f 6//25 35//25 7//25
f 7//26 36//26 8//26
f 8//27 37//27 9//27
f 9//28 38//28 10//28
f 10//37 39//37 11//37
f 11//30 40//30 12//30
f 12//38 41//38 13//38
f 13//39 42//39 14//39
f 14//40 29//40 1//40
f 43//41 58//41 57//41
f 44//42 59//42 58//42
f 45//42 60//42 59//42
f 46//43 61//43 60//43
f 47//44 62//44 61//44
f 48//45 63//45 62//45
f 49//46 64//46 63//46
f 50//47 65//47 64//47
f 51//48 66//48 65//48
f 52//49 67//49 66//49
f 53//50 68//50 67//50
f 54//51 69//51 68//51
f 55//52 70//52 69//52
f 56//53 57//53 70//53
f 43//41 44//41 58//41
f 44//54 45//54 59//54
f 45//42 46//42 60//42
f 46//43 47//43 61//43
f 47//44 48//44 62//44
f 48//45 49//45 63//45
f 49//46 50//46 64//46
f 50//47 51//47 65//47
f 51//48 52//48 66//48
f 52//55 53//55 67//55
f 53//56 54//56 68//56
f 54//57 55//57 69//57
f 55//57 56//57 70//57
f 56//53 43//53 57//53
f 43//58 71//58 72//58
f 44//59 72//59 73//59
f 45//59 73//59 74//59
f 46//60 74//60 75//60
f 47//61 75//61 76//61
f 48//62 76//62 77//62
f 49//63 77//63 78//63
f 50//64 78//64 79//64
f 51//65 79//65 80//65
f 52//66 80//66 81//66
f 53//67 81//67 82//67
f 54//68 82//68 83//68
f 55//69 83//69 84//69
f 56//70 84//70 71//70
f 43//58 72//58 44//58
f 44//71 73//71 45//71
f 45//59 74//59 46//59
f 46//60 75//60 47//60
f 47//61 76//61 48//61
f 48//62 77//62 49//62
f 49//63 78//63 50//63
f 50//64 79//64 51//64
f 51//65 80//65 52//65
f 52//72 81//72 53//72
f 53//73 82//73 54//73
f 54//74 83//74 55//74
f 55//74 84//74 56//74
f 56//70 71//70 43//70
f 85//75 94//75 93//75
f 86//76 95//76 94//76
f 87//77 96//77 95//77
f 88//78 97//78 96//78
f 89//79 98//79 97//79
f 90//80 99//80 98//80
f 91//81 100//81 99//81
f 92//82 93//82 100//82
f 93//83 102//83 101//83
f 94//84 103//84 102//84
f 95//85 104//85 103//85
f 96//86 105//86 104//86
f 97//87 106//87 105//87
f 98//88 107//88 106//88
f 99//89 108//89 107//89
f 100//90 101//90 108//90
f 85//91 86//91 94//91
f 86//92 87//92 95//92
f 87//93 88//93 96//93
f 88//94 89//94 97//94
f 89//95 90//95 98//95
f 90//96 91//96 99//96
f 91//97 92//97 100//97
f 92//98 85//98 93//98
f 93//99 94//99 102//99
f 94//100 95//100 103//100
f 95//101 96//101 104//101
f 96//102 97//102 105//102
f 97//103 98//103 106//103
f 98//104 99//104 107//104
f 99//105 100//105 108//105
f 100//106 93//106 101//106
f 109//107 118//107 117//107
f 110//108 119//108 118//108
f 111//109 120//109 119//109
f 112//110 121//110 120//110
f 113//111 122//111 121//111
f 114//112 123//112 122//112
f 115//113 124//113 123//113
f 116//114 117//114 124//114
f 109//115 110//115 118//115
f 110//116 111//116 119//116
f 111//117 112//117 120//117
f 112//118 113//118 121//118
f 113//119 114//119 122//119
f 114//120 115//120 123//120
f 115//121 116//121 124//121
f 116//122 109//122 117//122
f 125//107 134//107 133//107
f 126//108 135//108 134//108
f 127//109 136//109 135//109
f 128//110 137//110 136//110
f 129//111 138//111 137//111
f 130//112 139//112 138//112
f 131//113 140//113 139//113
f 132//114 133//114 140//114
f 125//115 126//115 134//115
f 126//116 127//116 135//116
f 127//117 128//117 136//117
f 128//118 129//118 137//118
f 129//119 130//119 138//119
f 130//120 131//120 139//120
f 131//121 132//121 140//121
f 132//122 125//122 133//122
f 141//123 156//123 155//123
f 142//124 157//124 156//124
f 143//125 158//125 157//125
f 144//126 159//126 158//126
f 145//127 160//127 159//127
f 146//128 161//128 160//128
f 147//129 162//129 161//129
f 148//130 163//130 162//130
f 149//131 164//131 163//131
f 150//132 165//132 164//132
f 151//133 166//133 165//133
f 152//134 167//134 166//134
f 153//135 168//135 167//135
f 154//136 155//136 168//136
f 141//137 142//137 156//137
f 142//138 143//138 157//138
f 143//139 144//139 158//139
f 144//127 145//127 159//127
f 145//140 146//140 160//140
f 146//141 147//141 161//141
f 147//142 148//142 162//142
f 148//143 149//143 163//143
f 149//144 150//144 164//144
f 150//145 151//145 165//145
f 151//146 152//146 166//146
f 152//147 153//147 167//147
f 153//148 154//148 168//148
f 154//149 141//149 155//149
f 169//150 183//150 184//150
f 170//151 184//151 185//151
f 171//152 185//152 186//152
f 172//153 186//153 187//153
f 173//154 187//154 188//154
f 174//155 188//155 189//155
f 175//156 189//156 190//156
f 176//157 190//157 191//157
f 177//158 191//158 192//158
f 178//159 192//159 193//159
f 179//160 193//160 194//160
f 180//161 194//161 195//161
f 181//162 195//162 196//162
f 182//163 196//163 183//163
f 169//164 184//164 170//164
f 170//165 185//165 171//165
f 171//166 186//166 172//166
f 172//154 187//154 173//154
f 173//167 188//167 174//167
f 174//168 189//168 175//168
f 175//169 190//169 176//169
f 176//170 191//170 177//170
f 177//171 192//171 178//171
f 178//172 193//172 179//172
f 179//173 194//173 180//173
f 180//174 195//174 181//174
f 181//175 196//175 182//175
f 182//176 183//176 169//176
f 197//177 200//177 198//177
f 198//177 200//177 199//177
f 197//178 202//178 201//178
f 197//178 198//178 202//178
f 197//179 201//179 200//179
f 200//179 201//179 204//179
f 200//180 204//180 203//180
f 200//180 203//180 199//180
f 198//181 203//181 202//181
f 198//181 199//181 203//181
f 202//182 204//182 201//182
f 202//182 203//182 204//182
f 26//180 27//180 17//180
f 34//178 33//178 38//178
f 68//180 69//180 59//180
f 76//178 75//178 80//178
f 107//181 104//181 106//181
f 88//179 87//179 86//179
f 123//181 120//181 122//181
f 112//179 111//179 115//179
f 139//181 136//181 138//181
f 128//179 127//179 131//179
f 161//177 163//177 155//177
f 146//182 145//182 150//182
f 188//182 187//182 185//182
f 179//177 181//177 171//177
f 27//180 28//180 16//180
f 28//180 15//180 16//180
f 16//180 17//180 27//180
f 17//180 18//180 26//180
f 18//180 19//180 25//180
f 19//180 20//180 25//180
f 20//180 21//180 24//180
f 25//180 20//180 24//180
f 21//180 22//180 23//180
f 23//180 24//180 21//180
f 25//180 26//180 18//180
f 30//178 29//178 42//178
f 41//178 40//178 31//178
f 40//178 39//178 32//178
f 31//178 40//178 32//178
f 30//178 42//178 41//178
f 33//178 32//178 39//178
f 31//178 30//178 41//178
f 39//178 38//178 33//178
f 38//178 37//178 34//178
f 37//178 36//178 35//178
f 34//178 37//178 35//178
f 69//180 70//180 58//180
f 70//180 57//180 58//180
f 58//180 59//180 69//180
f 59//180 60//180 68//180
f 60//180 61//180 67//180
f 61//180 62//180 67//180
f 62//180 63//180 66//180
f 67//180 62//180 66//180
f 63//180 64//180 65//180
f 65//180 66//180 63//180
f 67//180 68//180 60//180
f 72//178 71//178 84//178
f 83//178 82//178 73//178
f 82//178 81//178 74//178
f 73//178 82//178 74//178
f 72//178 84//178 83//178
f 75//178 74//178 81//178
f 73//178 72//178 83//178
f 81//178 80//178 75//178
f 80//178 79//178 77//178
f 79//178 78//178 77//178
f 77//178 76//178 80//178
f 107//181 108//181 102//181
f 108//183 101//183 102//183
f 102//181 103//181 107//181
f 103//181 104//181 107//181
f 104//184 105//184 106//184
f 86//179 85//179 89//179
f 85//179 92//179 90//179
f 92//179 91//179 90//179
f 90//179 89//179 85//179
f 89//179 88//179 86//179
f 123//181 124//181 118//181
f 124//181 117//181 118//181
f 118//181 119//181 123//181
f 119//181 120//181 123//181
f 120//181 121//181 122//181
f 110//179 109//179 116//179
f 116//179 115//179 110//179
f 115//179 114//179 112//179
f 110//179 115//179 111//179
f 114//179 113//179 112//179
f 139//181 140//181 134//181
f 140//181 133//181 134//181
f 134//181 135//181 139//181
f 135//181 136//181 139//181
f 136//181 137//181 138//181
f 126//179 125//179 132//179
f 132//179 131//179 126//179
f 131//179 130//179 128//179
f 126//179 131//179 127//179
f 130//179 129//179 128//179
f 167//177 168//177 164//177
f 168//177 155//177 163//177
f 155//177 156//177 161//177
f 156//177 157//177 160//177
f 161//177 156//177 160//177
f 157//177 158//177 159//177
f 159//177 160//177 157//177
f 161//177 162//177 163//177
f 163//177 164//177 168//177
f 164//177 165//177 167//177
f 165//177 166//177 167//177
f 142//182 141//182 143//182
f 141//182 154//182 153//182
f 153//182 152//182 151//182
f 141//182 153//182 143//182
f 145//182 144//182 143//182
f 153//182 151//182 143//182
f 151//182 150//182 145//182
f 143//182 151//182 145//182
f 150//182 149//182 147//182
f 149//182 148//182 147//182
f 147//182 146//182 150//182
f 184//182 183//182 189//182
f 183//182 196//182 191//182
f 195//182 194//182 193//182
f 183//182 191//182 189//182
f 196//182 195//182 192//182
f 191//182 196//182 192//182
f 187//182 186//182 185//182
f 185//182 184//182 188//182
f 195//182 193//182 192//182
f 191//182 190//182 189//182
f 189//182 188//182 184//182
f 181//177 182//177 169//177
f 169//177 170//177 171//177
f 171//177 172//177 173//177
f 173//177 174//177 179//177
f 174//177 175//177 178//177
f 179//177 174//177 178//177
f 175//177 176//177 177//177
f 177//177 178//177 175//177
f 179//177 180//177 181//177
f 181//177 169//177 171//177
f 171//177 173//177 179//177
