# Blender 4.2.3 LTS
# www.blender.org
o m1300
v 0.401302 0.060199 0.284612
v 0.347216 0.060199 0.284612
v 0.482430 0.173779 0.106129
v 0.266087 0.173779 0.106129
v 0.482430 0.173779 0.025000
v 0.266087 0.173779 0.025000
v 0.252566 0.079129 0.390079
v 0.495952 0.079129 0.390079
v 0.290426 0.025043 0.728115
v 0.458092 0.025043 0.728115
v 0.441866 0.079129 0.701072
v 0.306652 0.079129 0.701072
v 0.306652 0.106172 0.552336
v 0.441866 0.106172 0.552336
v 0.374259 0.079129 0.322472
v 0.374259 0.079129 0.849808
v 0.374259 0.160258 0.768679
v 0.482430 0.079129 0.660508
v 0.266087 0.079129 0.660508
v 0.252566 0.079129 0.538815
v 0.495952 0.079129 0.538815
v 0.212001 0.025043 0.538815
v 0.536516 0.025043 0.538815
v 0.239044 0.025043 0.701072
v 0.509473 0.025043 0.701072
v 0.504478 0.025888 0.301633
v 0.244039 0.025888 0.301633
v 0.515294 0.026089 0.358423
v 0.233224 0.026089 0.358423
v 0.696475 0.026626 0.193461
v 0.052043 0.026626 0.193461
v 0.025000 0.026634 0.220504
v 0.723517 0.026634 0.220504
v 0.025000 0.026642 0.258364
v 0.723517 0.026642 0.258364
vn -0.0989 -0.9790 0.1780
vn 0.0025 -1.0000 -0.0022
vn -0.9125 -0.3954 0.1051
vn -0.8397 -0.5248 -0.1399
vn -0.4472 -0.8944 -0.0000
vn -0.1761 -0.9685 -0.1761
vn -0.4025 -0.5031 -0.7648
vn -0.8885 -0.4259 0.1707
vn 0.0989 -0.9790 0.1780
vn -0.0155 -0.9999 0.0026
vn 0.8000 -0.6000 -0.0000
vn 0.8397 -0.5248 -0.1399
vn 0.4472 -0.8944 -0.0000
vn 0.1761 -0.9685 -0.1761
vn 0.4025 -0.5031 -0.7648
vn 0.8885 -0.4259 0.1707
vn -0.2657 -0.8371 0.4783
vn -0.0001 0.9988 -0.0490
vn -0.0000 0.9988 -0.0490
vn -0.0021 -1.0000 -0.0056
vn 0.0079 -1.0000 0.0002
vn 0.0155 -0.9999 0.0026
vn -0.8000 -0.6000 -0.0000
vn -0.7969 -0.5976 -0.0885
vn -0.4568 -0.8881 -0.0508
vn -0.5298 -0.6623 -0.5298
vn 0.2657 -0.8371 0.4783
vn 0.0017 1.0000 0.0014
vn -0.0079 -1.0000 0.0002
vn 0.0021 -1.0000 -0.0056
vn -0.0025 -1.0000 -0.0022
vn 0.9125 -0.3954 0.1051
vn 0.7969 -0.5976 -0.0885
vn 0.4568 -0.8881 -0.0507
vn 0.5298 -0.6623 -0.5298
vn -0.0001 0.9988 -0.0491
vn -0.0000 0.9988 -0.0491
vn 0.0003 0.9988 -0.0490
s 0
f 8//1 17//1 15//1
f 25//2 30//2 33//2
f 23//3 8//3 28//3
f 25//4 18//4 23//4
f 21//5 14//5 8//5
f 11//6 14//6 18//6
f 10//7 11//7 25//7
f 8//8 26//8 28//8
f 7//9 15//9 17//9
f 24//10 31//10 22//10
f 22//11 7//11 20//11
f 24//12 22//12 19//12
f 20//13 7//13 13//13
f 12//14 19//14 13//14
f 9//15 24//15 12//15
f 7//16 29//16 27//16
f 15//17 26//17 8//17
f 17//18 14//19 9//19
f 30//20 23//20 28//20
f 25//21 33//21 35//21
f 30//22 25//22 23//22
f 8//23 23//23 21//23
f 23//24 18//24 21//24
f 18//25 14//25 21//25
f 25//26 11//26 18//26
f 27//27 15//27 7//27
f 32//28 29//28 31//28
f 32//29 24//29 34//29
f 22//30 31//30 29//30
f 31//31 24//31 32//31
f 7//32 22//32 29//32
f 19//33 22//33 20//33
f 13//34 19//34 20//34
f 12//35 24//35 19//35
f 14//36 11//18 25//18
f 25//19 35//19 28//19
f 14//18 25//18 28//36
f 35//18 33//19 30//19
f 28//19 26//19 15//37
f 35//19 30//19 28//19
f 17//19 8//18 14//18
f 13//37 7//19 17//19
f 9//18 12//18 17//18
f 12//37 13//19 17//37
f 34//19 24//38 29//19
f 24//18 9//19 14//18
f 29//18 24//18 14//18
f 29//19 32//19 34//19
f 15//18 27//18 29//18
f 28//19 15//37 14//37
f 15//18 29//18 14//18
l 16 17
l 3 5
l 4 6
l 1 3
l 2 4
