# Blender 4.2.3 LTS
# www.blender.org
o D01110
v 0.050673 0.007239 0.340233
v 0.007239 0.282321 0.340233
v 0.007239 0.007239 0.340233
v 0.050673 0.282321 0.340233
v 0.050673 0.289560 0.340233
v 0.050673 0.289560 -0.000000
v 0.057912 0.289560 0.347472
v 0.050673 0.289560 0.347472
v 0.007239 0.282321 -0.000000
v 0.007239 0.007239 0.007239
v 0.007239 0.007239 -0.000000
v 0.007239 0.282321 0.007239
v 0.000000 0.289560 0.347472
v 0.007239 0.289560 -0.000000
v 0.000000 0.289560 -0.000000
v 0.007239 0.289560 0.340233
v 0.007239 0.289560 0.347472
v 0.050673 0.282321 0.007239
v 0.050673 0.282321 -0.000000
v 0.007239 0.007239 0.347472
v 0.050673 0.007239 0.347472
v 0.050673 0.007239 -0.000000
v 0.000000 0.000000 0.000000
v 0.057912 0.000000 0.000000
v 0.050673 0.007239 0.007239
v 0.000000 0.000000 0.347472
v 0.057912 0.000000 0.347472
v 0.102362 0.012885 0.298450
v 0.064262 0.282466 0.298450
v 0.064262 0.012885 0.298450
v 0.102362 0.282466 0.298450
v 0.102362 0.289560 0.298450
v 0.108712 0.289560 -0.000000
v 0.102362 0.289560 -0.000000
v 0.108712 0.289560 0.304800
v 0.102362 0.289560 0.304800
v 0.064262 0.282466 -0.000000
v 0.064262 0.012885 0.006350
v 0.064262 0.012885 -0.000000
v 0.064262 0.282466 0.006350
v 0.057912 0.289560 0.304800
v 0.064262 0.289560 -0.000000
v 0.057912 0.289560 -0.000000
v 0.064262 0.289560 0.298450
v 0.064262 0.289560 0.304800
v 0.102362 0.282466 0.006350
v 0.102362 0.282466 -0.000000
v 0.064262 0.012885 0.304800
v 0.102362 0.012885 0.304800
v 0.102362 0.012885 -0.000000
v 0.057912 0.005791 -0.000000
v 0.108712 0.005791 -0.000000
v 0.102362 0.012885 0.006350
v 0.057912 0.005791 0.304800
v 0.108712 0.005791 0.304800
v 0.169831 0.023952 0.271590
v 0.117443 0.282750 0.271590
v 0.117443 0.023952 0.271590
v 0.169831 0.282750 0.271590
v 0.169831 0.289560 0.271590
v 0.169831 0.289560 -0.000000
v 0.178562 0.289560 0.277368
v 0.169831 0.289560 0.277368
v 0.117443 0.282750 -0.000000
v 0.117443 0.023952 0.005779
v 0.117443 0.023952 -0.000000
v 0.117443 0.282750 0.005779
v 0.108712 0.289560 0.277368
v 0.117443 0.289560 -0.000000
v 0.117443 0.289560 0.271590
v 0.117443 0.289560 0.277368
v 0.169831 0.282750 0.005779
v 0.169831 0.282750 -0.000000
v 0.117443 0.023952 0.277368
v 0.169831 0.023952 0.277368
v 0.169831 0.023952 -0.000000
v 0.108712 0.017142 -0.000000
v 0.178562 0.017142 -0.000000
v 0.169831 0.023952 0.005779
v 0.108712 0.017142 0.277368
v 0.178562 0.017142 0.277368
v 0.204912 0.031921 0.232791
v 0.182326 0.282954 0.232791
v 0.182326 0.031921 0.232791
v 0.204912 0.282954 0.232791
v 0.204912 0.289560 0.232791
v 0.208676 0.289560 -0.000000
v 0.204912 0.289560 -0.000000
v 0.208676 0.289560 0.237744
v 0.204912 0.289560 0.237744
v 0.182326 0.282954 -0.000000
v 0.182326 0.031921 0.004953
v 0.182326 0.031921 -0.000000
v 0.182326 0.282954 0.004953
v 0.178562 0.289560 0.237744
v 0.182326 0.289560 -0.000000
v 0.178562 0.289560 -0.000000
v 0.182326 0.289560 0.232791
v 0.182326 0.289560 0.237744
v 0.204912 0.282954 0.004953
v 0.204912 0.282954 -0.000000
v 0.182326 0.031921 0.237744
v 0.204912 0.031921 0.237744
v 0.204912 0.031921 -0.000000
v 0.178562 0.025314 -0.000000
v 0.208676 0.025314 -0.000000
v 0.204912 0.031921 0.004953
v 0.178562 0.025314 0.237744
v 0.208676 0.025314 0.237744
v 0.235026 0.031921 0.232791
v 0.212441 0.282954 0.232791
v 0.212441 0.031921 0.232791
v 0.235026 0.282954 0.232791
v 0.235026 0.289560 0.232791
v 0.238790 0.289560 -0.000000
v 0.235026 0.289560 -0.000000
v 0.238790 0.289560 0.237744
v 0.235026 0.289560 0.237744
v 0.212441 0.282954 -0.000000
v 0.212441 0.031921 0.004953
v 0.212441 0.031921 -0.000000
v 0.212441 0.282954 0.004953
v 0.212441 0.289560 -0.000000
v 0.212441 0.289560 0.232791
v 0.212441 0.289560 0.237744
v 0.235026 0.282954 0.004953
v 0.235026 0.282954 -0.000000
v 0.212441 0.031921 0.237744
v 0.235026 0.031921 0.237744
v 0.235026 0.031921 -0.000000
v 0.238790 0.025314 -0.000000
v 0.235026 0.031921 0.004953
v 0.238790 0.025314 0.237744
v 0.264993 0.058057 0.167982
v 0.242534 0.283624 0.167982
v 0.242534 0.058057 0.167982
v 0.264993 0.283624 0.167982
v 0.264993 0.289560 0.167982
v 0.268736 0.289560 -0.000000
v 0.264993 0.289560 -0.000000
v 0.268736 0.289560 0.171556
v 0.264993 0.289560 0.171556
v 0.242534 0.283624 -0.000000
v 0.242534 0.058057 0.003574
v 0.242534 0.058057 -0.000000
v 0.242534 0.283624 0.003574
v 0.238790 0.289560 0.171556
v 0.242534 0.289560 -0.000000
v 0.242534 0.289560 0.167982
v 0.242534 0.289560 0.171556
v 0.264993 0.283624 0.003574
v 0.264993 0.283624 -0.000000
v 0.242534 0.058057 0.171556
v 0.264993 0.058057 0.171556
v 0.264993 0.058057 -0.000000
v 0.238790 0.052121 -0.000000
v 0.268736 0.052121 -0.000000
v 0.264993 0.058057 0.003574
v 0.238790 0.052121 0.171556
v 0.268736 0.052121 0.171556
vn -0.0000 -0.0000 1.0000
vn -0.0000 1.0000 -0.0000
vn 1.0000 -0.0000 -0.0000
vn -1.0000 -0.0000 -0.0000
vn -0.0000 -0.0000 -1.0000
vn -0.0000 -1.0000 -0.0000
vn -1.0000 0.0001 -0.0000
s 0
f 1//1 2//1 3//1
f 2//1 1//1 4//1
f 5//2 43//2 6//2
f 43//2 5//2 7//2
f 7//2 5//2 8//2
f 9//3 10//3 11//3
f 10//3 9//3 12//3
f 13//2 14//2 15//2
f 14//2 13//2 16//2
f 16//2 13//2 17//2
f 5//4 18//4 4//4
f 18//4 5//4 19//4
f 19//4 5//4 6//4
f 14//3 12//3 9//3
f 12//3 14//3 2//3
f 2//3 14//3 16//3
f 2//2 18//2 12//2
f 18//2 2//2 4//2
f 20//2 1//2 3//2
f 1//2 20//2 21//2
f 8//4 1//4 21//4
f 1//4 8//4 4//4
f 4//4 8//4 5//4
f 43//5 19//5 6//5
f 19//5 43//5 22//5
f 14//5 23//5 15//5
f 23//5 14//5 11//5
f 23//5 11//5 24//5
f 11//1 14//1 9//1
f 24//5 11//5 22//5
f 24//5 22//5 43//5
f 18//4 22//4 25//4
f 22//4 18//4 19//4
f 10//2 22//2 11//2
f 22//2 10//2 25//2
f 13//4 23//4 26//4
f 23//4 13//4 15//4
f 24//6 26//6 23//6
f 26//6 24//6 27//6
f 18//5 10//5 12//5
f 10//5 18//5 25//5
f 43//3 27//3 24//3
f 27//3 43//3 7//3
f 2//3 20//3 3//3
f 20//3 2//3 17//3
f 17//3 2//3 16//3
f 26//1 20//1 13//1
f 20//1 26//1 27//1
f 20//1 27//1 21//1
f 21//1 27//1 8//1
f 8//1 27//1 7//1
f 17//1 13//1 20//1
f 28//1 29//1 30//1
f 29//1 28//1 31//1
f 32//2 33//2 34//2
f 33//2 32//2 35//2
f 35//2 32//2 36//2
f 37//3 38//3 39//3
f 38//3 37//3 40//3
f 41//2 42//2 43//2
f 42//2 41//2 44//2
f 44//2 41//2 45//2
f 32//4 46//4 31//4
f 46//7 32//7 47//7
f 47//4 32//4 34//4
f 42//3 40//3 37//3
f 40//3 42//3 29//3
f 29//3 42//3 44//3
f 29//2 46//2 40//2
f 46//2 29//2 31//2
f 48//2 28//2 30//2
f 28//2 48//2 49//2
f 36//4 28//4 49//4
f 28//4 36//4 31//4
f 31//4 36//4 32//4
f 33//5 47//5 34//5
f 47//5 33//5 50//5
f 42//5 51//5 43//5
f 51//5 42//5 39//5
f 51//5 39//5 52//5
f 39//1 42//1 37//1
f 52//5 39//5 50//5
f 52//5 50//5 33//5
f 46//4 50//4 53//4
f 50//4 46//4 47//4
f 38//2 50//2 39//2
f 50//2 38//2 53//2
f 41//4 51//4 54//4
f 51//4 41//4 43//4
f 52//6 54//6 51//6
f 54//6 52//6 55//6
f 46//5 38//5 40//5
f 38//5 46//5 53//5
f 33//3 55//3 52//3
f 55//3 33//3 35//3
f 29//3 48//3 30//3
f 48//3 29//3 45//3
f 45//3 29//3 44//3
f 54//1 48//1 41//1
f 48//1 54//1 55//1
f 48//1 55//1 49//1
f 49//1 55//1 36//1
f 36//1 55//1 35//1
f 45//1 41//1 48//1
f 56//1 57//1 58//1
f 57//1 56//1 59//1
f 60//2 97//2 61//2
f 97//2 60//2 62//2
f 62//2 60//2 63//2
f 64//3 65//3 66//3
f 65//3 64//3 67//3
f 68//2 69//2 33//2
f 69//2 68//2 70//2
f 70//2 68//2 71//2
f 60//4 72//4 59//4
f 72//4 60//4 73//4
f 73//4 60//4 61//4
f 69//3 67//3 64//3
f 67//3 69//3 57//3
f 57//3 69//3 70//3
f 57//2 72//2 67//2
f 72//2 57//2 59//2
f 74//2 56//2 58//2
f 56//2 74//2 75//2
f 63//4 56//4 75//4
f 56//4 63//4 59//4
f 59//4 63//4 60//4
f 97//5 73//5 61//5
f 73//5 97//5 76//5
f 69//5 77//5 33//5
f 77//5 69//5 66//5
f 77//5 66//5 78//5
f 66//1 69//1 64//1
f 78//5 66//5 76//5
f 78//5 76//5 97//5
f 72//4 76//4 79//4
f 76//4 72//4 73//4
f 65//2 76//2 66//2
f 76//2 65//2 79//2
f 68//4 77//4 80//4
f 77//4 68//4 33//4
f 78//6 80//6 77//6
f 80//6 78//6 81//6
f 72//5 65//5 67//5
f 65//5 72//5 79//5
f 97//3 81//3 78//3
f 81//3 97//3 62//3
f 57//3 74//3 58//3
f 74//3 57//3 71//3
f 71//3 57//3 70//3
f 80//1 74//1 68//1
f 74//1 80//1 81//1
f 74//1 81//1 75//1
f 75//1 81//1 63//1
f 63//1 81//1 62//1
f 71//1 68//1 74//1
f 82//1 83//1 84//1
f 83//1 82//1 85//1
f 86//2 87//2 88//2
f 87//2 86//2 89//2
f 89//2 86//2 90//2
f 91//3 92//3 93//3
f 92//3 91//3 94//3
f 95//2 96//2 97//2
f 96//2 95//2 98//2
f 98//2 95//2 99//2
f 86//4 100//4 85//4
f 100//4 86//4 101//4
f 101//4 86//4 88//4
f 96//3 94//3 91//3
f 94//3 96//3 83//3
f 83//3 96//3 98//3
f 83//2 100//2 94//2
f 100//2 83//2 85//2
f 102//2 82//2 84//2
f 82//2 102//2 103//2
f 90//4 82//4 103//4
f 82//4 90//4 85//4
f 85//4 90//4 86//4
f 87//5 101//5 88//5
f 101//5 87//5 104//5
f 96//5 105//5 97//5
f 105//5 96//5 93//5
f 105//5 93//5 106//5
f 93//1 96//1 91//1
f 106//5 93//5 104//5
f 106//5 104//5 87//5
f 100//4 104//4 107//4
f 104//4 100//4 101//4
f 92//2 104//2 93//2
f 104//2 92//2 107//2
f 95//4 105//4 108//4
f 105//4 95//4 97//4
f 106//6 108//6 105//6
f 108//6 106//6 109//6
f 100//5 92//5 94//5
f 92//5 100//5 107//5
f 87//3 109//3 106//3
f 109//3 87//3 89//3
f 83//3 102//3 84//3
f 102//3 83//3 99//3
f 99//3 83//3 98//3
f 108//1 102//1 95//1
f 102//1 108//1 109//1
f 102//1 109//1 103//1
f 103//1 109//1 90//1
f 90//1 109//1 89//1
f 99//1 95//1 102//1
f 110//1 111//1 112//1
f 111//1 110//1 113//1
f 114//2 115//2 116//2
f 115//2 114//2 117//2
f 117//2 114//2 118//2
f 119//3 120//3 121//3
f 120//3 119//3 122//3
f 89//2 123//2 87//2
f 123//2 89//2 124//2
f 124//2 89//2 125//2
f 114//4 126//4 113//4
f 126//4 114//4 127//4
f 127//4 114//4 116//4
f 123//3 122//3 119//3
f 122//3 123//3 111//3
f 111//3 123//3 124//3
f 111//2 126//2 122//2
f 126//2 111//2 113//2
f 128//2 110//2 112//2
f 110//2 128//2 129//2
f 118//4 110//4 129//4
f 110//4 118//4 113//4
f 113//4 118//4 114//4
f 115//5 127//5 116//5
f 127//5 115//5 130//5
f 123//5 106//5 87//5
f 106//5 123//5 121//5
f 106//5 121//5 131//5
f 121//1 123//1 119//1
f 131//5 121//5 130//5
f 131//5 130//5 115//5
f 126//4 130//4 132//4
f 130//4 126//4 127//4
f 120//2 130//2 121//2
f 130//2 120//2 132//2
f 89//4 106//4 109//4
f 106//4 89//4 87//4
f 131//6 109//6 106//6
f 109//6 131//6 133//6
f 126//5 120//5 122//5
f 120//5 126//5 132//5
f 115//3 133//3 131//3
f 133//3 115//3 117//3
f 111//3 128//3 112//3
f 128//3 111//3 125//3
f 125//3 111//3 124//3
f 109//1 128//1 89//1
f 128//1 109//1 133//1
f 128//1 133//1 129//1
f 129//1 133//1 118//1
f 118//1 133//1 117//1
f 125//1 89//1 128//1
f 134//1 135//1 136//1
f 135//1 134//1 137//1
f 138//2 139//2 140//2
f 139//2 138//2 141//2
f 141//2 138//2 142//2
f 143//3 144//3 145//3
f 144//3 143//3 146//3
f 147//2 148//2 115//2
f 148//2 147//2 149//2
f 149//2 147//2 150//2
f 138//4 151//4 137//4
f 151//4 138//4 152//4
f 152//4 138//4 140//4
f 148//3 146//3 143//3
f 146//3 148//3 135//3
f 135//3 148//3 149//3
f 135//2 151//2 146//2
f 151//2 135//2 137//2
f 153//2 134//2 136//2
f 134//2 153//2 154//2
f 142//4 134//4 154//4
f 134//4 142//4 137//4
f 137//4 142//4 138//4
f 139//5 152//5 140//5
f 152//5 139//5 155//5
f 148//5 156//5 115//5
f 156//5 148//5 145//5
f 156//5 145//5 157//5
f 145//1 148//1 143//1
f 157//5 145//5 155//5
f 157//5 155//5 139//5
f 151//4 155//4 158//4
f 155//4 151//4 152//4
f 144//2 155//2 145//2
f 155//2 144//2 158//2
f 147//4 156//4 159//4
f 156//4 147//4 115//4
f 157//6 159//6 156//6
f 159//6 157//6 160//6
f 151//5 144//5 146//5
f 144//5 151//5 158//5
f 139//3 160//3 157//3
f 160//3 139//3 141//3
f 135//3 153//3 136//3
f 153//3 135//3 150//3
f 150//3 135//3 149//3
f 159//1 153//1 147//1
f 153//1 159//1 160//1
f 153//1 160//1 154//1
f 154//1 160//1 142//1
f 142//1 160//1 141//1
f 150//1 147//1 153//1
