# Blender 4.2.3 LTS
# www.blender.org
o m475
v 0.025000 0.025000 0.025000
v 0.975000 0.025000 0.025000
v 0.025000 0.025000 0.975000
v 0.975000 0.025000 0.975000
v 0.557818 0.029160 0.557818
v 0.564088 0.030050 0.557755
v 0.492912 0.526617 0.486578
v 0.486641 0.525727 0.486641
v 0.557755 0.030050 0.564088
v 0.564025 0.030940 0.564025
v 0.492849 0.527507 0.492849
v 0.486578 0.526617 0.492912
v 0.816983 0.025697 0.816287
v 0.777653 0.041087 0.746810
v 0.752383 0.053183 0.683097
v 0.737627 0.062430 0.621473
v 0.731610 0.068637 0.559850
v 0.733320 0.071297 0.496580
v 0.742187 0.069650 0.430017
v 0.758337 0.062620 0.358133
v 0.782467 0.048623 0.277890
v 0.816793 0.025127 0.183967
v 0.747380 0.041087 0.777083
v 0.730153 0.051917 0.729647
v 0.715143 0.063253 0.676510
v 0.706467 0.073387 0.621853
v 0.703997 0.081430 0.565930
v 0.707417 0.086940 0.508360
v 0.716283 0.089093 0.448637
v 0.730217 0.087193 0.386443
v 0.748393 0.081050 0.322223
v 0.767330 0.072817 0.262817
v 0.683477 0.053247 0.751877
v 0.676827 0.063317 0.714763
v 0.671317 0.074717 0.671000
v 0.668910 0.086243 0.623373
v 0.670557 0.096883 0.573593
v 0.676193 0.105877 0.522230
v 0.685377 0.112527 0.469917
v 0.697410 0.116453 0.417477
v 0.711027 0.117847 0.367317
v 0.723820 0.117657 0.323743
v 0.621727 0.062493 0.737247
v 0.622043 0.073387 0.706087
v 0.623563 0.086243 0.668657
v 0.627110 0.100113 0.626983
v 0.633063 0.114047 0.582713
v 0.641297 0.127220 0.537177
v 0.651367 0.138937 0.491513
v 0.662703 0.148753 0.447243
v 0.674040 0.156480 0.406520
v 0.684173 0.162307 0.372130
v 0.559977 0.068700 0.731293
v 0.565993 0.081493 0.703743
v 0.573657 0.096947 0.670367
v 0.582777 0.114047 0.632937
v 0.593163 0.132033 0.593100
v 0.604437 0.150083 0.552377
v 0.616153 0.167373 0.512097
v 0.627680 0.183270 0.473843
v 0.638383 0.197203 0.439453
v 0.647377 0.208477 0.410890
v 0.496580 0.071360 0.733003
v 0.508360 0.087003 0.707227
v 0.522230 0.105940 0.676003
v 0.537177 0.127220 0.641170
v 0.552377 0.150083 0.604373
v 0.567133 0.173643 0.567070
v 0.580940 0.197203 0.530717
v 0.593480 0.219877 0.496707
v 0.604373 0.240523 0.466497
v 0.613177 0.257813 0.441670
v 0.429890 0.069713 0.741997
v 0.448510 0.089157 0.716093
v 0.469790 0.112590 0.685187
v 0.491450 0.139000 0.651303
v 0.512033 0.167373 0.616090
v 0.530717 0.197267 0.580940
v 0.547057 0.227920 0.547120
v 0.560990 0.258510 0.515770
v 0.572453 0.287327 0.488157
v 0.581320 0.311963 0.465547
v 0.357817 0.062683 0.758147
v 0.386190 0.087257 0.730027
v 0.417287 0.116517 0.697283
v 0.447117 0.148817 0.662577
v 0.473717 0.183333 0.627617
v 0.496643 0.219940 0.593480
v 0.515707 0.258510 0.561053
v 0.531097 0.298537 0.531160
v 0.543003 0.338120 0.504750
v 0.551933 0.373143 0.483153
v 0.277510 0.048687 0.782340
v 0.321843 0.081113 0.748330
v 0.367063 0.117910 0.710900
v 0.406267 0.156543 0.673977
v 0.439263 0.197203 0.638320
v 0.466370 0.240587 0.604373
v 0.488030 0.287327 0.572453
v 0.504687 0.338120 0.543067
v 0.516657 0.392713 0.516720
v 0.524953 0.444457 0.494680
v 0.183333 0.025190 0.816667
v 0.262310 0.072880 0.767203
v 0.323363 0.117720 0.723757
v 0.371877 0.162370 0.684110
v 0.410700 0.208540 0.647377
v 0.441480 0.257813 0.613113
v 0.465420 0.312027 0.581320
v 0.483027 0.373207 0.551997
v 0.494617 0.444520 0.524953
v 0.500000 0.531667 0.500000
vn -0.0000 1.0000 -0.0000
vn 0.0100 -0.1405 -0.9900
vn 0.1405 -0.9801 0.1405
vn -0.9900 -0.1405 0.0100
vn -0.1405 0.9801 -0.1405
vn 0.9900 0.1405 -0.0100
vn -0.0100 0.1405 0.9900
vn 0.1136 0.9768 0.1817
vn 0.1817 0.9768 0.1135
vn 0.1636 0.9732 0.1614
vn 0.2459 0.9655 0.0858
vn 0.2351 0.9617 0.1410
vn 0.3318 0.9413 0.0618
vn 0.3306 0.9361 0.1200
vn 0.4287 0.9021 0.0490
vn 0.4378 0.8921 0.1114
vn 0.5328 0.8447 0.0499
vn 0.5504 0.8274 0.1115
vn 0.6283 0.7753 0.0645
vn 0.6507 0.7493 0.1229
vn 0.7050 0.7035 0.0896
vn 0.7286 0.6700 0.1421
vn 0.7604 0.6388 0.1173
vn 0.7854 0.5959 0.1678
vn 0.7961 0.5878 0.1439
vn 0.0865 0.9653 0.2464
vn 0.1625 0.9731 0.1632
vn 0.1407 0.9623 0.2329
vn 0.2342 0.9622 0.1391
vn 0.2211 0.9504 0.2188
vn 0.3259 0.9375 0.1221
vn 0.3243 0.9228 0.2080
vn 0.4375 0.8926 0.1091
vn 0.4486 0.8707 0.2017
vn 0.5512 0.8269 0.1119
vn 0.5718 0.7953 0.2015
vn 0.6523 0.7478 0.1238
vn 0.6780 0.7049 0.2083
vn 0.7308 0.6674 0.1433
vn 0.7578 0.6133 0.2228
vn 0.7862 0.5954 0.1655
vn 0.8114 0.5348 0.2359
vn 0.8193 0.5423 0.1860
vn 0.0629 0.9419 0.3299
vn 0.1394 0.9617 0.2360
vn 0.1205 0.9374 0.3268
vn 0.2187 0.9507 0.2201
vn 0.2068 0.9229 0.3248
vn 0.3242 0.9231 0.2070
vn 0.3231 0.8894 0.3234
vn 0.4477 0.8713 0.2010
vn 0.4577 0.8286 0.3225
vn 0.5725 0.7946 0.2020
vn 0.5903 0.7409 0.3203
vn 0.6790 0.7038 0.2087
vn 0.6995 0.6386 0.3207
vn 0.7590 0.6128 0.2200
vn 0.7777 0.5415 0.3193
vn 0.8101 0.5373 0.2348
vn 0.8255 0.4637 0.3218
vn 0.8414 0.4817 0.2449
vn 0.0492 0.9017 0.4295
vn 0.1217 0.9366 0.3287
vn 0.1107 0.8919 0.4384
vn 0.2090 0.9223 0.3252
vn 0.2022 0.8712 0.4473
vn 0.3230 0.8894 0.3235
vn 0.3219 0.8286 0.4580
vn 0.4575 0.8287 0.3224
vn 0.4616 0.7566 0.4631
vn 0.5913 0.7399 0.3209
vn 0.5973 0.6593 0.4567
vn 0.7012 0.6379 0.3183
vn 0.7056 0.5534 0.4426
vn 0.7771 0.5424 0.3193
vn 0.7781 0.4594 0.4283
vn 0.8258 0.4657 0.3182
vn 0.8242 0.3879 0.4126
vn 0.8534 0.4106 0.3210
vn 0.0498 0.8436 0.5347
vn 0.1118 0.8918 0.4385
vn 0.1124 0.8267 0.5513
vn 0.2014 0.8704 0.4493
vn 0.2017 0.7949 0.5722
vn 0.3220 0.8290 0.4572
vn 0.3205 0.7395 0.5919
vn 0.4626 0.7566 0.4622
vn 0.4568 0.6593 0.5971
vn 0.5966 0.6594 0.4574
vn 0.5850 0.5610 0.5857
vn 0.7042 0.5548 0.4430
vn 0.6874 0.4613 0.5610
vn 0.7784 0.4610 0.4261
vn 0.7587 0.3770 0.5312
vn 0.8235 0.3883 0.4136
vn 0.8035 0.3157 0.5048
vn 0.8507 0.3391 0.4017
vn 0.0657 0.7748 0.6288
vn 0.1116 0.8261 0.5523
vn 0.1235 0.7480 0.6522
vn 0.2010 0.7955 0.5717
vn 0.2083 0.7024 0.6806
vn 0.3215 0.7404 0.5903
vn 0.3196 0.6378 0.7007
vn 0.4561 0.6591 0.5979
vn 0.4422 0.5535 0.7058
vn 0.5862 0.5599 0.5855
vn 0.5608 0.4604 0.6882
vn 0.6886 0.4606 0.5600
vn 0.6560 0.3734 0.6559
vn 0.7592 0.3765 0.5309
vn 0.7246 0.3043 0.6183
vn 0.8038 0.3146 0.5048
vn 0.7714 0.2567 0.5822
vn 0.8301 0.2743 0.4854
vn 0.0893 0.7036 0.7050
vn 0.1226 0.7494 0.6507
vn 0.1433 0.6665 0.7316
vn 0.2089 0.7046 0.6781
vn 0.2207 0.6121 0.7594
vn 0.3195 0.6375 0.7011
vn 0.3179 0.5426 0.7775
vn 0.4428 0.5538 0.7051
vn 0.4259 0.4598 0.7792
vn 0.5598 0.4603 0.6890
vn 0.5302 0.3766 0.7597
vn 0.6561 0.3737 0.6557
vn 0.6184 0.3036 0.7249
vn 0.7249 0.3036 0.6184
vn 0.6861 0.2496 0.6834
vn 0.7695 0.2549 0.5855
vn 0.7317 0.2127 0.6475
vn 0.7996 0.2237 0.5573
vn 0.1185 0.6370 0.7617
vn 0.1436 0.6688 0.7294
vn 0.1669 0.5948 0.7864
vn 0.2227 0.6123 0.7586
vn 0.2346 0.5366 0.8106
vn 0.3194 0.5410 0.7780
vn 0.3185 0.4656 0.8257
vn 0.4270 0.4597 0.7787
vn 0.4122 0.3876 0.8245
vn 0.5301 0.3765 0.7597
vn 0.5043 0.3153 0.8039
vn 0.6167 0.3052 0.7256
vn 0.5832 0.2550 0.7713
vn 0.6834 0.2496 0.6861
vn 0.6472 0.2115 0.7324
vn 0.7324 0.2115 0.6472
vn 0.6963 0.1839 0.6938
vn 0.7618 0.1880 0.6199
vn 0.1434 0.5881 0.7960
vn 0.1666 0.5961 0.7855
vn 0.1848 0.5424 0.8195
vn 0.2364 0.5348 0.8113
vn 0.2456 0.4807 0.8418
vn 0.3218 0.4629 0.8260
vn 0.3210 0.4095 0.8540
vn 0.4146 0.3862 0.8240
vn 0.4039 0.3387 0.8498
vn 0.5017 0.3165 0.8051
vn 0.4823 0.2748 0.8318
vn 0.5827 0.2566 0.7711
vn 0.5573 0.2230 0.7998
vn 0.6461 0.2123 0.7331
vn 0.6194 0.1884 0.7622
vn 0.6933 0.1842 0.6967
vn 0.6651 0.1673 0.7278
vn 0.7267 0.1673 0.6663
s 0
f 1//1 3//1 4//1
f 1//1 4//1 2//1
f 5//2 8//2 6//2
f 6//2 8//2 7//2
f 5//3 10//3 9//3
f 5//3 6//3 10//3
f 5//4 9//4 8//4
f 8//4 9//4 12//4
f 8//5 12//5 11//5
f 8//5 11//5 7//5
f 6//6 11//6 10//6
f 6//6 7//6 11//6
f 10//7 12//7 9//7
f 10//7 11//7 12//7
f 13//8 24//8 23//8
f 13//9 14//9 24//9
f 14//10 25//10 24//10
f 14//11 15//11 25//11
f 15//12 26//12 25//12
f 15//13 16//13 26//13
f 16//14 27//14 26//14
f 16//15 17//15 27//15
f 17//16 28//16 27//16
f 17//17 18//17 28//17
f 18//18 29//18 28//18
f 18//19 19//19 29//19
f 19//20 30//20 29//20
f 19//21 20//21 30//21
f 20//22 31//22 30//22
f 20//23 21//23 31//23
f 21//24 32//24 31//24
f 21//25 22//25 32//25
f 23//26 34//26 33//26
f 23//27 24//27 34//27
f 24//28 35//28 34//28
f 24//29 25//29 35//29
f 25//30 36//30 35//30
f 25//31 26//31 36//31
f 26//32 37//32 36//32
f 26//33 27//33 37//33
f 27//34 38//34 37//34
f 27//35 28//35 38//35
f 28//36 39//36 38//36
f 28//37 29//37 39//37
f 29//38 40//38 39//38
f 29//39 30//39 40//39
f 30//40 41//40 40//40
f 30//41 31//41 41//41
f 31//42 42//42 41//42
f 31//43 32//43 42//43
f 33//44 44//44 43//44
f 33//45 34//45 44//45
f 34//46 45//46 44//46
f 34//47 35//47 45//47
f 35//48 46//48 45//48
f 35//49 36//49 46//49
f 36//50 47//50 46//50
f 36//51 37//51 47//51
f 37//52 48//52 47//52
f 37//53 38//53 48//53
f 38//54 49//54 48//54
f 38//55 39//55 49//55
f 39//56 50//56 49//56
f 39//57 40//57 50//57
f 40//58 51//58 50//58
f 40//59 41//59 51//59
f 41//60 52//60 51//60
f 41//61 42//61 52//61
f 43//62 54//62 53//62
f 43//63 44//63 54//63
f 44//64 55//64 54//64
f 44//65 45//65 55//65
f 45//66 56//66 55//66
f 45//67 46//67 56//67
f 46//68 57//68 56//68
f 46//69 47//69 57//69
f 47//70 58//70 57//70
f 47//71 48//71 58//71
f 48//72 59//72 58//72
f 48//73 49//73 59//73
f 49//74 60//74 59//74
f 49//75 50//75 60//75
f 50//76 61//76 60//76
f 50//77 51//77 61//77
f 51//78 62//78 61//78
f 51//79 52//79 62//79
f 53//80 64//80 63//80
f 53//81 54//81 64//81
f 54//82 65//82 64//82
f 54//83 55//83 65//83
f 55//84 66//84 65//84
f 55//85 56//85 66//85
f 56//86 67//86 66//86
f 56//87 57//87 67//87
f 57//88 68//88 67//88
f 57//89 58//89 68//89
f 58//90 69//90 68//90
f 58//91 59//91 69//91
f 59//92 70//92 69//92
f 59//93 60//93 70//93
f 60//94 71//94 70//94
f 60//95 61//95 71//95
f 61//96 72//96 71//96
f 61//97 62//97 72//97
f 63//98 74//98 73//98
f 63//99 64//99 74//99
f 64//100 75//100 74//100
f 64//101 65//101 75//101
f 65//102 76//102 75//102
f 65//103 66//103 76//103
f 66//104 77//104 76//104
f 66//105 67//105 77//105
f 67//106 78//106 77//106
f 67//107 68//107 78//107
f 68//108 79//108 78//108
f 68//109 69//109 79//109
f 69//110 80//110 79//110
f 69//111 70//111 80//111
f 70//112 81//112 80//112
f 70//113 71//113 81//113
f 71//114 82//114 81//114
f 71//115 72//115 82//115
f 73//116 84//116 83//116
f 73//117 74//117 84//117
f 74//118 85//118 84//118
f 74//119 75//119 85//119
f 75//120 86//120 85//120
f 75//121 76//121 86//121
f 76//122 87//122 86//122
f 76//123 77//123 87//123
f 77//124 88//124 87//124
f 77//125 78//125 88//125
f 78//126 89//126 88//126
f 78//127 79//127 89//127
f 79//128 90//128 89//128
f 79//129 80//129 90//129
f 80//130 91//130 90//130
f 80//131 81//131 91//131
f 81//132 92//132 91//132
f 81//133 82//133 92//133
f 83//134 94//134 93//134
f 83//135 84//135 94//135
f 84//136 95//136 94//136
f 84//137 85//137 95//137
f 85//138 96//138 95//138
f 85//139 86//139 96//139
f 86//140 97//140 96//140
f 86//141 87//141 97//141
f 87//142 98//142 97//142
f 87//143 88//143 98//143
f 88//144 99//144 98//144
f 88//145 89//145 99//145
f 89//146 100//146 99//146
f 89//147 90//147 100//147
f 90//148 101//148 100//148
f 90//149 91//149 101//149
f 91//150 102//150 101//150
f 91//151 92//151 102//151
f 93//152 104//152 103//152
f 93//153 94//153 104//153
f 94//154 105//154 104//154
f 94//155 95//155 105//155
f 95//156 106//156 105//156
f 95//157 96//157 106//157
f 96//158 107//158 106//158
f 96//159 97//159 107//159
f 97//160 108//160 107//160
f 97//161 98//161 108//161
f 98//162 109//162 108//162
f 98//163 99//163 109//163
f 99//164 110//164 109//164
f 99//165 100//165 110//165
f 100//166 111//166 110//166
f 100//167 101//167 111//167
f 101//168 112//168 111//168
f 101//169 102//169 112//169
