# Created by Open3D 
# object name: D00385
# number of vertices: 95
# number of triangles: 186
v 0.313526 0.538283 -0.102142
vn -0.528262 0.631966 -0.567061
v 0.328952 0.519468 -0.103492
vn 0.279724 -0.296717 -0.913079
v 0.216225 0.447759 -0.080694
vn -0.267535 0.138811 -0.953497
v 0.258876 0.449568 -0.081137
vn 0.347734 -0.603341 -0.717677
v 0.33455 0.522304 -0.08043
vn 0.745828 -0.457857 0.483846
v 0.241024 0.430835 -0.049309
vn 0.650179 -0.730059 0.210432
v 0.234044 0.44287 -0.037765
vn 0.399876 -0.133908 0.906735
v 0.319002 0.540574 -0.078963
vn -0.0517004 0.669269 0.74122
v 0.222544 0.456131 -0.038447
vn 0.0104927 0.401914 0.915617
v 0.212633 0.46325 -0.051829
vn -0.423444 0.813343 0.398959
v 0.209741 0.459495 -0.069363
vn -0.551941 0.756486 -0.350842
v 0.090719 0.370859 -0.062949
vn -0.219803 0.0274078 -0.975159
v 0.035451 0.292987 -0.042225
vn 0.147119 -0.351769 -0.924454
v 0.115366 0.339042 -0.043189
vn 0.5542 -0.785369 -0.275787
v 0.117512 0.342861 -0.01855
vn 0.647874 -0.629878 0.428385
v 0.109922 0.360321 -0.003526
vn 0.415392 -0.114727 0.902379
v 0.030285 0.330618 0.021583
vn -0.113876 0.452697 0.884363
v 0.085022 0.392118 -0.023849
vn -0.44215 0.845114 0.300476
v 0.082886 0.388637 -0.047149
vn -0.558795 0.696943 -0.449465
v 0.011646 0.305383 -0.040752
vn -0.432606 0.249969 -0.866237
v 0.048381 0.273064 -0.018967
vn 0.652871 -0.625294 -0.427512
v 0.052867 0.279471 0.009272
vn 0.780369 -0.524965 0.339758
v 0.042817 0.299099 0.02804
vn 0.475144 -0.115472 0.872299
v 0.005829 0.331399 0.005692
vn -0.57657 0.714806 0.395753
v 0.001596 0.32501 -0.021985
vn -0.694169 0.613185 -0.377005
v -0.073635 0.205578 -0.029516
vn -0.305695 0.233045 -0.923169
v -0.04598 0.183592 -0.029043
vn 0.27747 -0.273906 -0.920862
v -0.02462 0.170357 -0.003681
vn 0.711694 -0.585235 -0.388576
v -0.021955 0.174332 0.030876
vn 0.75671 -0.533272 0.378169
v -0.039821 0.193586 0.055206
vn 0.300195 -0.0643908 0.951702
v -0.130503 0.152092 0.066022
vn -0.216056 0.300394 0.929023
v -0.088087 0.228527 0.029721
vn -0.666921 0.694841 0.269095
v -0.09051 0.224233 -0.005612
vn -0.675702 0.623193 -0.393772
v -0.152603 0.126843 -0.030434
vn -0.33943 0.246358 -0.907797
v -0.125423 0.096654 -0.029525
vn 0.273315 -0.241615 -0.931086
v -0.101275 0.082122 -0.000787
vn 0.71205 -0.55572 -0.429138
v -0.101987 0.080783 0.04006
vn 0.73837 -0.521275 0.427881
v -0.122312 0.103985 0.067556
vn 0.349627 -0.193901 0.916604
v -0.172292 0.150659 0.037711
vn -0.669681 0.585923 0.456313
v -0.172919 0.147756 -0.002539
vn -0.731424 0.586315 -0.348216
v -0.25733 -0.087705 0.078667
vn 0.350837 -0.152605 0.923918
v -0.307872 -0.085644 0.079141
vn -0.291339 0.318428 0.902067
v -0.314604 -0.043468 0.046812
vn -0.785309 0.563051 0.257416
v -0.315051 -0.045782 0.004187
vn -0.757516 0.476507 -0.446218
v -0.291181 -0.064364 -0.02486
vn -0.274317 0.103082 -0.956098
v -0.279681 -0.124867 -0.019036
vn 0.298398 -0.291013 -0.908994
v -0.233237 -0.105368 0.006628
vn 0.793889 -0.54727 -0.265019
v -0.233143 -0.103728 0.049192
vn 0.811375 -0.477646 0.336935
v -0.333897 -0.146371 -0.011029
vn -0.522005 0.02337 -0.852622
v -0.266548 -0.174688 0.019189
vn 0.809139 -0.379644 -0.448513
v -0.26382 -0.168694 0.061777
vn 0.924408 -0.240684 0.295875
v -0.288015 -0.150711 0.09103
vn 0.54787 0.0317001 0.835963
v -0.355365 -0.122393 0.060812
vn -0.786142 0.43031 0.443638
v -0.358602 -0.12861 0.019137
vn -0.897754 0.299364 -0.323139
v -0.381579 -0.293529 0.020072
vn -0.430892 -0.0986799 -0.896992
v -0.338073 -0.306898 0.018541
vn 0.296063 -0.266141 -0.917342
v -0.303591 -0.310259 0.049857
vn 0.872161 -0.252401 -0.419082
v -0.299259 -0.300875 0.094996
vn 0.942986 -0.0774992 0.323683
v -0.327025 -0.284597 0.127266
vn 0.44578 0.161578 0.880439
v -0.37128 -0.270947 0.128448
vn -0.280952 0.326934 0.902319
v -0.405508 -0.267568 0.097695
vn -0.857576 0.323164 0.400161
v -0.409841 -0.276952 0.052556
vn -0.928865 0.151441 -0.338048
v -0.396517 -0.412525 0.044979
vn -0.466243 -0.0865417 -0.880413
v -0.347775 -0.418379 0.041517
vn 0.269324 -0.255955 -0.928413
v -0.309076 -0.414668 0.07273
vn 0.858651 -0.243677 -0.450933
v -0.304953 -0.403773 0.120622
vn 0.957514 -0.0524507 0.283578
v -0.335854 -0.391919 0.15716
vn 0.493147 0.208259 0.84465
v -0.384596 -0.386065 0.160621
vn -0.260758 0.378783 0.887991
v -0.422534 -0.389535 0.129057
vn -0.845987 0.360385 0.392973
v -0.427672 -0.40069 0.080954
vn -0.926538 0.167952 -0.336629
v -0.433855 -0.52079 0.074192
vn -0.448995 -0.0176662 -0.89336
v -0.378863 -0.538312 0.073046
vn 0.265033 -0.280913 -0.922413
v -0.335189 -0.537472 0.110919
vn 0.846924 -0.324433 -0.421264
v -0.328609 -0.519701 0.165602
vn 0.943415 -0.13051 0.304852
v -0.363203 -0.49495 0.204049
vn 0.517121 0.193839 0.833674
v -0.417712 -0.478248 0.205682
vn -0.19613 0.466382 0.862566
v -0.46112 -0.478549 0.167672
vn -0.773436 0.51622 0.36785
v -0.467446 -0.496301 0.113552
vn -0.877194 0.315502 -0.361923
v -0.489573 -0.644681 0.09878
vn -0.414518 -0.0203218 -0.909814
v -0.422392 -0.661344 0.096058
vn 0.359388 -0.32898 -0.873277
v -0.37284 -0.667434 0.143028
vn 0.84454 -0.378385 -0.378916
v -0.368449 -0.653604 0.211045
vn 0.942975 -0.170334 0.28598
v -0.40543 -0.61653 0.254355
vn 0.550736 0.20499 0.809116
v -0.468116 -0.590427 0.253955
vn -0.135642 0.524233 0.840703
v -0.5181 -0.584427 0.207268
vn -0.718195 0.601327 0.350146
v -0.532649 -0.615957 0.146108
vn -0.847138 0.385834 -0.365363
v -0.456611 -0.746632 0.121749
vn 0.284005 -0.35155 -0.89205
v -0.431574 -0.856072 0.208794
vn 0.320909 -0.946943 0.0178007
v -0.578595 -0.814498 0.145734
vn -0.505556 -0.464392 -0.727154
v -0.496641 -0.851674 0.147327
vn 0.17226 -0.588737 -0.789756
v -0.419961 -0.827284 0.291448
vn 0.865679 -0.183098 0.465912
v -0.470107 -0.781332 0.349733
vn -0.0396168 -0.502748 0.863525
v -0.551832 -0.744994 0.348065
vn -0.321751 0.502285 0.802612
v -0.616795 -0.739656 0.287742
vn -0.916755 0.22718 0.328557
v -0.628246 -0.768844 0.203806
vn -0.841469 -0.539448 -0.0304321
f 1//1 8//8 2//2
f 8//8 5//5 2//2
f 93//93 94//94 92//92
f 92//92 88//88 91//91
f 95//95 92//92 94//94
f 88//88 89//89 90//90
f 95//95 89//89 88//88
f 95//95 88//88 92//92
f 79//79 89//89 95//95
f 79//79 95//95 86//86
f 86//86 95//95 94//94
f 86//86 94//94 85//85
f 85//85 94//94 93//93
f 85//85 93//93 84//84
f 84//84 93//93 92//92
f 84//84 92//92 83//83
f 83//83 92//92 91//91
f 83//83 91//91 82//82
f 82//82 91//91 88//88
f 88//88 90//90 87//87
f 87//87 90//90 89//89
f 87//87 89//89 79//79
f 82//82 88//88 81//81
f 81//81 88//88 87//87
f 81//81 87//87 80//80
f 80//80 87//87 79//79
f 71//71 79//79 86//86
f 71//71 86//86 78//78
f 78//78 86//86 85//85
f 78//78 85//85 77//77
f 77//77 85//85 84//84
f 77//77 84//84 76//76
f 76//76 84//84 83//83
f 76//76 83//83 75//75
f 75//75 83//83 82//82
f 75//75 82//82 74//74
f 74//74 82//82 81//81
f 74//74 81//81 73//73
f 73//73 81//81 80//80
f 73//73 80//80 72//72
f 72//72 80//80 79//79
f 72//72 79//79 71//71
f 63//63 71//71 78//78
f 63//63 78//78 70//70
f 70//70 78//78 77//77
f 70//70 77//77 69//69
f 69//69 77//77 76//76
f 69//69 76//76 68//68
f 68//68 76//76 75//75
f 68//68 75//75 67//67
f 67//67 75//75 74//74
f 67//67 74//74 66//66
f 66//66 74//74 73//73
f 66//66 73//73 65//65
f 65//65 73//73 72//72
f 65//65 72//72 64//64
f 64//64 72//72 71//71
f 64//64 71//71 63//63
f 55//55 63//63 70//70
f 55//55 70//70 62//62
f 62//62 70//70 69//69
f 62//62 69//69 61//61
f 61//61 69//69 68//68
f 61//61 68//68 60//60
f 60//60 68//68 67//67
f 60//60 67//67 59//59
f 59//59 67//67 66//66
f 59//59 66//66 58//58
f 58//58 66//66 65//65
f 58//58 65//65 57//57
f 57//57 65//65 64//64
f 57//57 64//64 56//56
f 56//56 64//64 63//63
f 56//56 63//63 55//55
f 49//49 55//55 62//62
f 49//49 62//62 54//54
f 54//54 62//62 61//61
f 54//54 61//61 53//53
f 53//53 61//61 60//60
f 53//53 60//60 42//42
f 42//42 60//60 59//59
f 42//42 59//59 52//52
f 52//52 59//59 58//58
f 52//52 58//58 51//51
f 51//51 58//58 57//57
f 51//51 57//57 50//50
f 50//50 57//57 56//56
f 50//50 56//56 46//46
f 46//46 56//56 55//55
f 46//46 55//55 49//49
f 45//45 49//49 54//54
f 45//45 54//54 44//44
f 44//44 54//54 53//53
f 44//44 53//53 43//43
f 43//43 53//53 42//42
f 42//42 52//52 41//41
f 41//41 52//52 51//51
f 41//41 51//51 48//48
f 48//48 51//51 50//50
f 48//48 50//50 47//47
f 47//47 50//50 46//46
f 46//46 49//49 45//45
f 34//34 45//45 44//44
f 41//41 48//48 37//37
f 37//37 48//48 47//47
f 37//37 47//47 36//36
f 36//36 47//47 46//46
f 36//36 46//46 35//35
f 35//35 46//46 45//45
f 35//35 45//45 34//34
f 34//34 44//44 40//40
f 40//40 44//44 43//43
f 40//40 43//43 39//39
f 39//39 43//43 42//42
f 39//39 42//42 31//31
f 31//31 42//42 41//41
f 31//31 41//41 38//38
f 38//38 41//41 37//37
f 26//26 34//34 40//40
f 26//26 40//40 33//33
f 33//33 40//40 39//39
f 33//33 39//39 32//32
f 32//32 39//39 31//31
f 31//31 38//38 30//30
f 30//30 38//38 37//37
f 30//30 37//37 29//29
f 29//29 37//37 36//36
f 29//29 36//36 28//28
f 28//28 36//36 35//35
f 28//28 35//35 27//27
f 27//27 35//35 34//34
f 27//27 34//34 26//26
f 20//20 26//26 33//33
f 20//20 33//33 25//25
f 25//25 33//33 32//32
f 25//25 32//32 24//24
f 24//24 32//32 31//31
f 24//24 31//31 17//17
f 17//17 31//31 30//30
f 17//17 30//30 23//23
f 23//23 30//30 29//29
f 23//23 29//29 22//22
f 22//22 29//29 28//28
f 22//22 28//28 21//21
f 21//21 28//28 27//27
f 21//21 27//27 13//13
f 13//13 27//27 26//26
f 13//13 26//26 20//20
f 12//12 20//20 25//25
f 12//12 25//25 19//19
f 19//19 25//25 24//24
f 19//19 24//24 18//18
f 18//18 24//24 17//17
f 17//17 23//23 16//16
f 16//16 23//23 22//22
f 16//16 22//22 15//15
f 15//15 22//22 21//21
f 15//15 21//21 14//14
f 14//14 21//21 13//13
f 13//13 20//20 12//12
f 3//3 12//12 19//19
f 3//3 19//19 11//11
f 11//11 19//19 18//18
f 11//11 18//18 10//10
f 10//10 18//18 17//17
f 10//10 17//17 9//9
f 9//9 17//17 16//16
f 9//9 16//16 7//7
f 7//7 16//16 15//15
f 7//7 15//15 6//6
f 6//6 15//15 14//14
f 6//6 14//14 4//4
f 4//4 14//14 13//13
f 4//4 13//13 12//12
f 4//4 12//12 3//3
f 1//1 3//3 11//11
f 1//1 11//11 10//10
f 1//1 10//10 8//8
f 8//8 10//10 9//9
f 8//8 9//9 7//7
f 8//8 7//7 5//5
f 5//5 7//7 6//6
f 5//5 6//6 4//4
f 5//5 4//4 2//2
f 2//2 4//4 3//3
f 2//2 3//3 1//1
