# Created by Open3D 
# object name: m1685
# number of vertices: 34
# number of triangles: 64
v 0.089658 0.623942 0.302705
vn 0.79138 -0.489412 -0.366324
v 0.090018 0.624135 0.303299
vn 0.922372 -0.38402 -0.0419435
v 0.088265 0.624318 0.303863
vn -8.84558e-05 -0.95104 0.309069
v 0.090111 0.624356 0.303981
vn 0.912853 -0.271234 0.305175
v 0.089924 0.624572 0.304643
vn 0.764286 -0.168115 0.622578
v 0.089483 0.624749 0.305187
vn 0.499453 -0.09046 0.861605
v 0.088858 0.62486 0.30553
vn 0.158735 -0.0500092 0.986054
v 0.088142 0.624889 0.305619
vn -0.206315 -0.0529221 0.977053
v 0.087445 0.624831 0.305441
vn -0.540148 -0.098839 0.835746
v 0.086873 0.624695 0.305022
vn -0.791295 -0.180595 0.584156
v 0.086513 0.624502 0.304427
vn -0.922373 -0.286114 0.259551
v 0.086419 0.624281 0.303746
vn -0.912797 -0.398896 -0.0876584
v 0.086607 0.624065 0.303083
vn -0.764492 -0.501849 -0.404598
v 0.087047 0.623888 0.302539
vn -0.499346 -0.579644 -0.643946
v 0.087673 0.623777 0.302197
vn -0.158441 -0.620062 -0.768388
v 0.088389 0.623748 0.302108
vn 0.206375 -0.617101 -0.759339
v 0.089085 0.623806 0.302286
vn 0.540051 -0.571223 -0.618101
v 0.09873 0.652552 0.285061
vn 0.743987 -0.177702 -0.644132
v 0.101438 0.654005 0.289533
vn 0.942809 -0.0739379 -0.325031
v 0.10214 0.655667 0.29465
vn 0.998082 0.0452973 0.0421914
v 0.10073 0.657287 0.299633
vn 0.901413 0.16211 0.401465
v 0.097422 0.658616 0.303724
vn 0.667431 0.258507 0.698362
v 0.092721 0.659452 0.306298
vn 0.33195 0.319954 0.887377
v 0.087341 0.659669 0.306966
vn -0.0540777 0.337025 0.939941
v 0.082101 0.659233 0.305625
vn -0.431889 0.307174 0.848007
v 0.077801 0.658212 0.302479
vn -0.74394 0.234892 0.625603
v 0.07509 0.656758 0.298007
vn -0.94277 0.131218 0.30654
v 0.074389 0.655096 0.29289
vn -0.99807 0.0117934 -0.0609643
v 0.075801 0.653477 0.287908
vn -0.901362 -0.104919 -0.420164
v 0.079108 0.652147 0.283817
vn -0.667548 -0.201294 -0.716841
v 0.08381 0.651311 0.281242
vn -0.331805 -0.262784 -0.906008
v 0.08919 0.651094 0.280575
vn 0.0541524 -0.279843 -0.958517
v 0.09443 0.65153 0.281916
vn 0.431887 -0.249923 -0.86661
v 0.088265 0.655382 0.29377
vn -1.03492e-06 0.951056 -0.30902
f 34//34 18//18 33//33
f 34//34 33//33 32//32
f 34//34 32//32 31//31
f 34//34 31//31 30//30
f 34//34 30//30 29//29
f 34//34 29//29 28//28
f 34//34 28//28 27//27
f 34//34 27//27 26//26
f 34//34 26//26 25//25
f 34//34 25//25 24//24
f 34//34 24//24 23//23
f 34//34 23//23 22//22
f 34//34 22//22 21//21
f 34//34 21//21 20//20
f 34//34 20//20 19//19
f 34//34 19//19 18//18
f 18//18 1//1 17//17
f 33//33 18//18 17//17
f 33//33 17//17 16//16
f 32//32 33//33 16//16
f 32//32 16//16 15//15
f 31//31 32//32 15//15
f 31//31 15//15 14//14
f 30//30 31//31 14//14
f 30//30 14//14 13//13
f 29//29 30//30 13//13
f 29//29 13//13 12//12
f 28//28 29//29 12//12
f 28//28 12//12 11//11
f 27//27 28//28 11//11
f 27//27 11//11 10//10
f 26//26 27//27 10//10
f 26//26 10//10 9//9
f 25//25 26//26 9//9
f 25//25 9//9 8//8
f 24//24 25//25 8//8
f 24//24 8//8 7//7
f 23//23 24//24 7//7
f 23//23 7//7 6//6
f 22//22 23//23 6//6
f 22//22 6//6 5//5
f 21//21 22//22 5//5
f 21//21 5//5 4//4
f 20//20 21//21 4//4
f 20//20 4//4 2//2
f 19//19 20//20 2//2
f 19//19 2//2 1//1
f 18//18 19//19 1//1
f 1//1 3//3 17//17
f 17//17 3//3 16//16
f 16//16 3//3 15//15
f 15//15 3//3 14//14
f 14//14 3//3 13//13
f 13//13 3//3 12//12
f 12//12 3//3 11//11
f 11//11 3//3 10//10
f 10//10 3//3 9//9
f 9//9 3//3 8//8
f 8//8 3//3 7//7
f 7//7 3//3 6//6
f 6//6 3//3 5//5
f 5//5 3//3 4//4
f 4//4 3//3 2//2
f 2//2 3//3 1//1
