# Created by Open3D 
# object name: D00100
# number of vertices: 144
# number of triangles: 288
v 0.161328 0.391305 -0.508743
vn 0.100925 0.993861 -0.0453304
v 0.12577 0.397611 -0.469921
vn 0.0840612 0.995432 -0.0452559
v 0.138899 0.391193 -0.447802
vn 0.33129 0.862813 0.381839
v 0.183347 0.38331 -0.49633
vn 0.520179 0.830987 0.197167
v 0.172609 0.386267 -0.560306
vn 0.115426 0.991856 -0.053846
v 0.197448 0.377013 -0.560783
vn 0.590877 0.804675 -0.0579965
v 0.156591 0.383846 -0.610792
vn 0.123679 0.989955 -0.0685092
v 0.177425 0.373987 -0.62389
vn 0.524425 0.79094 -0.315264
v 0.117564 0.384692 -0.646675
vn 0.123482 0.988667 -0.0853811
v 0.128642 0.375045 -0.668744
vn 0.338647 0.793444 -0.505733
v 0.065987 0.388578 -0.658339
vn 0.114875 0.988337 -0.099972
v 0.064171 0.379901 -0.683324
vn 0.0833062 0.811518 -0.578359
v 0.01568 0.394462 -0.642659
vn 0.10017 0.989053 -0.108352
v 0.001286 0.387256 -0.663724
vn -0.17316 0.840342 -0.513654
v -0.019878 0.400768 -0.603837
vn 0.0833149 0.990625 -0.108266
v -0.043162 0.395139 -0.615196
vn -0.362064 0.87217 -0.328982
v -0.03116 0.405806 -0.552274
vn 0.0688017 0.992632 -0.0997448
v -0.057263 0.401436 -0.550743
vn -0.432758 0.898482 -0.0738255
v -0.015141 0.408226 -0.501788
vn 0.0605502 0.994532 -0.0850871
v -0.03724 0.404462 -0.487635
vn -0.366311 0.91223 0.18345
v 0.023885 0.40738 -0.465905
vn 0.0607539 0.995819 -0.0682099
v 0.011544 0.403405 -0.442782
vn -0.180537 0.909721 0.373918
v 0.075462 0.403495 -0.454241
vn 0.0693572 0.996149 -0.0536284
v 0.076015 0.398548 -0.428202
vn 0.0748031 0.891634 0.446534
v 0.147245 0.37287 -0.430555
vn 0.497383 0.505056 0.705357
v 0.1982 0.363834 -0.486188
vn 0.806367 0.451357 0.382163
v 0.214366 0.356614 -0.560077
vn 0.911461 0.407883 -0.053575
v 0.191412 0.353146 -0.632425
vn 0.784511 0.386268 -0.485118
v 0.135486 0.354358 -0.683845
vn 0.459527 0.392304 -0.796827
v 0.061576 0.359926 -0.700559
vn 0.0235926 0.424406 -0.905164
v -0.010516 0.368358 -0.67809
vn -0.406487 0.473935 -0.781124
v -0.061471 0.377394 -0.622457
vn -0.715483 0.527619 -0.457933
v -0.077637 0.384614 -0.548568
vn -0.820573 0.571111 -0.0221928
v -0.054682 0.388082 -0.47622
vn -0.693621 0.592726 0.409348
v 0.001243 0.38687 -0.4248
vn -0.368636 0.586687 0.721045
v 0.075154 0.381302 -0.408085
vn 0.0673005 0.554589 0.829398
v 0.148572 0.347553 -0.422802
vn 0.53739 0.0153832 0.843193
v 0.201909 0.338094 -0.481035
vn 0.884536 -0.0461764 0.464181
v 0.218831 0.330537 -0.558379
vn 0.994669 -0.0953746 -0.0392048
v 0.194803 0.326906 -0.634108
vn 0.838282 -0.119014 -0.53209
v 0.136264 0.328175 -0.687932
vn 0.457282 -0.11074 -0.8824
v 0.058898 0.334004 -0.705428
vn -0.0462514 -0.0728096 -0.996273
v -0.016563 0.34283 -0.681908
vn -0.537392 -0.0153781 -0.843193
v -0.0699 0.352288 -0.623674
vn -0.884534 0.0461892 -0.464184
v -0.086822 0.359846 -0.546331
vn -0.994669 0.0953741 0.0392058
v -0.062794 0.363476 -0.470601
vn -0.838286 0.119 0.532086
v -0.004255 0.362208 -0.416778
vn -0.457278 0.110736 0.882403
v 0.073111 0.356379 -0.399282
vn 0.046251 0.0728078 0.996273
v 0.142525 0.322025 -0.426619
vn 0.437463 -0.478322 0.761469
v 0.19348 0.312989 -0.482252
vn 0.732372 -0.531722 0.425327
v 0.209646 0.305769 -0.556142
vn 0.818865 -0.5738 -0.0146184
v 0.186691 0.3023 -0.628489
vn 0.673766 -0.593297 -0.440498
v 0.130766 0.303512 -0.67991
vn 0.335952 -0.584981 -0.738196
v 0.056856 0.30908 -0.696624
vn -0.104051 -0.551069 -0.827947
v -0.015236 0.317512 -0.674155
vn -0.528353 -0.500662 -0.685697
v -0.066191 0.326549 -0.618522
vn -0.823261 -0.447272 -0.349554
v -0.082357 0.333768 -0.544632
vn -0.909751 -0.405194 0.0903907
v -0.059402 0.337237 -0.472285
vn -0.764646 -0.385715 0.516276
v -0.003477 0.336025 -0.420865
vn -0.426845 -0.394023 0.813971
v 0.070433 0.330457 -0.40415
vn 0.0131586 -0.427917 0.903722
v 0.130723 0.303126 -0.440986
vn 0.220346 -0.847046 0.483695
v 0.175171 0.295244 -0.489514
vn 0.387798 -0.878404 0.279319
v 0.189272 0.288946 -0.553966
vn 0.43015 -0.902583 0.0177522
v 0.169249 0.285921 -0.617074
vn 0.336063 -0.913095 -0.230908
v 0.120466 0.286978 -0.661927
vn 0.130748 -0.907125 -0.400037
v 0.055995 0.291835 -0.676508
vn -0.130785 -0.886268 -0.444325
v -0.00689 0.29919 -0.656908
vn -0.378467 -0.856118 -0.351888
v -0.051337 0.307072 -0.60838
vn -0.545922 -0.824749 -0.147506
v -0.065439 0.31337 -0.543927
vn -0.588264 -0.800583 0.114076
v -0.045415 0.316396 -0.480819
vn -0.494184 -0.790066 0.362737
v 0.003368 0.315338 -0.435966
vn -0.288872 -0.796032 0.53187
v 0.067839 0.310481 -0.421386
vn -0.0273278 -0.816893 0.576142
v 0.116329 0.295921 -0.462051
vn -0.060074 -0.994747 0.0828879
v 0.151887 0.289615 -0.500873
vn -0.0614454 -0.995923 0.0660484
v 0.163169 0.284577 -0.552435
vn -0.071026 -0.996113 0.0520936
v 0.14715 0.282156 -0.602921
vn -0.0862593 -0.995267 0.0447557
v 0.108124 0.283002 -0.638804
vn -0.103068 -0.99361 0.0460004
v 0.056547 0.286887 -0.650468
vn -0.116939 -0.991588 0.0554907
v 0.006239 0.292771 -0.634788
vn -0.124164 -0.989739 0.0707039
v -0.029319 0.299077 -0.595966
vn -0.122789 -0.988563 0.0875579
v -0.0406 0.304116 -0.544403
vn -0.113209 -0.988372 0.101508
v -0.024581 0.306536 -0.493917
vn -0.0979774 -0.989219 0.108841
v 0.014445 0.30569 -0.458035
vn -0.0811615 -0.990877 0.107587
v 0.066022 0.301805 -0.446371
vn -0.0672908 -0.9929 0.0980864
v 0.1032 0.302339 -0.48417
vn -0.330505 -0.880438 -0.339993
v 0.129869 0.29761 -0.513287
vn -0.499661 -0.850953 -0.161918
v 0.13833 0.293831 -0.551958
vn -0.556631 -0.827124 0.0776374
v 0.126316 0.292016 -0.589823
vn -0.48615 -0.815333 0.314468
v 0.097046 0.29265 -0.616735
vn -0.307087 -0.818748 0.485128
v 0.058363 0.295564 -0.625483
vn -0.0674379 -0.836443 0.543888
v 0.020633 0.299977 -0.613723
vn 0.16859 -0.863683 0.475004
v -0.006036 0.304707 -0.584607
vn 0.337748 -0.89318 0.29691
v -0.014496 0.308485 -0.545935
vn 0.394716 -0.917012 0.0573528
v -0.002482 0.310301 -0.50807
vn 0.324234 -0.928795 -0.179476
v 0.026787 0.309666 -0.481158
vn 0.145175 -0.925381 -0.350135
v 0.06547 0.306752 -0.47241
vn -0.0944776 -0.907681 -0.408888
v 0.094854 0.320661 -0.501417
vn -0.510914 -0.525375 -0.680403
v 0.115015 0.317086 -0.523429
vn -0.806766 -0.472689 -0.354535
v 0.121412 0.314229 -0.552664
vn -0.899201 -0.430713 0.0769672
v 0.112329 0.312857 -0.581289
vn -0.763445 -0.410694 0.498479
v 0.090202 0.313337 -0.601634
vn -0.435876 -0.417998 0.797051
v 0.060958 0.31554 -0.608247
vn -0.00426972 -0.45066 0.892685
v 0.032434 0.318876 -0.599357
vn 0.415721 -0.499942 0.759759
v 0.012273 0.322451 -0.577345
vn 0.71158 -0.552636 0.433876
v 0.005877 0.325308 -0.54811
vn 0.804016 -0.594602 0.00238406
v 0.01496 0.32668 -0.519485
vn 0.668254 -0.614631 -0.419124
v 0.037087 0.326201 -0.49914
vn 0.340698 -0.60733 -0.717687
v 0.06633 0.323998 -0.492527
vn -0.0909208 -0.574659 -0.813326
v 0.093527 0.345979 -0.50917
vn -0.537387 -0.0153617 -0.843196
v 0.111306 0.342826 -0.528581
vn -0.884529 0.0462016 -0.464191
v 0.116947 0.340307 -0.554362
vn -0.994669 0.0953742 0.0392149
v 0.108937 0.339096 -0.579606
vn -0.838286 0.119009 0.532084
v 0.089424 0.339519 -0.597547
vn -0.457276 0.110747 0.882402
v 0.063636 0.341462 -0.603379
vn 0.0462469 0.0728204 0.996272
v 0.038482 0.344404 -0.595539
vn 0.537388 0.0153755 0.843195
v 0.020703 0.347557 -0.576128
vn 0.884533 -0.0461888 0.464186
v 0.015062 0.350076 -0.550347
vn 0.994668 -0.0953855 -0.039213
v 0.023072 0.351286 -0.525104
vn 0.838286 -0.119003 -0.532086
v 0.042585 0.350863 -0.507162
vn 0.457295 -0.110734 -0.882394
v 0.068373 0.348921 -0.50133
vn -0.0462533 -0.0728072 -0.996273
v 0.099575 0.371507 -0.505352
vn -0.409462 0.499053 -0.763732
v 0.119736 0.367931 -0.527364
vn -0.708163 0.551801 -0.440478
v 0.126132 0.365075 -0.556599
vn -0.804359 0.594063 -0.00982392
v 0.11705 0.363702 -0.585224
vn -0.672272 0.614514 0.412822
v 0.094922 0.364182 -0.605569
vn -0.347302 0.607667 0.714229
v 0.065679 0.366385 -0.612183
vn 0.0834756 0.575372 0.813621
v 0.037155 0.369721 -0.603293
vn 0.504658 0.526259 0.684377
v 0.016994 0.373297 -0.581281
vn 0.803355 0.473512 0.361119
v 0.010598 0.376153 -0.552045
vn 0.899545 0.431259 -0.0695374
v 0.01968 0.377526 -0.52342
vn 0.767462 0.410817 -0.492171
v 0.041807 0.377046 -0.503075
vn 0.442484 0.417648 -0.793586
v 0.071051 0.374843 -0.496462
vn 0.0116999 0.449948 -0.892978
v 0.111376 0.390406 -0.490986
vn -0.183048 0.865749 -0.465803
v 0.138045 0.385676 -0.520103
vn -0.345638 0.895093 -0.281678
v 0.146506 0.381898 -0.558775
vn -0.393921 0.918266 -0.0401691
v 0.134492 0.380082 -0.596639
vn -0.314952 0.929064 0.194026
v 0.105222 0.380717 -0.623551
vn -0.129901 0.924589 0.358136
v 0.066539 0.383631 -0.632299
vn 0.111645 0.906037 0.408207
v 0.028809 0.388044 -0.620539
vn 0.34497 0.878385 0.330812
v 0.00214 0.392773 -0.591423
vn 0.507555 0.849041 0.146688
v -0.006321 0.396552 -0.552751
vn 0.555835 0.825867 -0.0948221
v 0.005693 0.398367 -0.514886
vn 0.476871 0.815074 -0.329012
v 0.034963 0.397733 -0.487974
vn 0.29182 0.81955 -0.493132
v 0.073646 0.394819 -0.479226
vn 0.0502736 0.8381 -0.543195
f 133//133 23//23 2//2
f 144//144 23//23 133//133
f 144//144 21//21 23//23
f 143//143 21//21 144//144
f 143//143 19//19 21//21
f 142//142 19//19 143//143
f 142//142 17//17 19//19
f 141//141 17//17 142//142
f 141//141 15//15 17//17
f 140//140 15//15 141//141
f 140//140 13//13 15//15
f 139//139 13//13 140//140
f 139//139 11//11 13//13
f 138//138 11//11 139//139
f 138//138 9//9 11//11
f 137//137 9//9 138//138
f 137//137 7//7 9//9
f 136//136 7//7 137//137
f 136//136 5//5 7//7
f 135//135 5//5 136//136
f 135//135 1//1 5//5
f 134//134 1//1 135//135
f 134//134 2//2 1//1
f 133//133 2//2 134//134
f 121//121 144//144 133//133
f 132//132 144//144 121//121
f 132//132 143//143 144//144
f 131//131 143//143 132//132
f 131//131 142//142 143//143
f 130//130 142//142 131//131
f 130//130 141//141 142//142
f 129//129 141//141 130//130
f 129//129 140//140 141//141
f 128//128 140//140 129//129
f 128//128 139//139 140//140
f 127//127 139//139 128//128
f 127//127 138//138 139//139
f 126//126 138//138 127//127
f 126//126 137//137 138//138
f 125//125 137//137 126//126
f 125//125 136//136 137//137
f 124//124 136//136 125//125
f 124//124 135//135 136//136
f 123//123 135//135 124//124
f 123//123 134//134 135//135
f 122//122 134//134 123//123
f 122//122 133//133 134//134
f 121//121 133//133 122//122
f 109//109 132//132 121//121
f 120//120 132//132 109//109
f 120//120 131//131 132//132
f 119//119 131//131 120//120
f 119//119 130//130 131//131
f 118//118 130//130 119//119
f 118//118 129//129 130//130
f 117//117 129//129 118//118
f 117//117 128//128 129//129
f 116//116 128//128 117//117
f 116//116 127//127 128//128
f 115//115 127//127 116//116
f 115//115 126//126 127//127
f 114//114 126//126 115//115
f 114//114 125//125 126//126
f 113//113 125//125 114//114
f 113//113 124//124 125//125
f 112//112 124//124 113//113
f 112//112 123//123 124//124
f 111//111 123//123 112//112
f 111//111 122//122 123//123
f 110//110 122//122 111//111
f 110//110 121//121 122//122
f 109//109 121//121 110//110
f 97//97 120//120 109//109
f 108//108 120//120 97//97
f 108//108 119//119 120//120
f 107//107 119//119 108//108
f 107//107 118//118 119//119
f 106//106 118//118 107//107
f 106//106 117//117 118//118
f 105//105 117//117 106//106
f 105//105 116//116 117//117
f 104//104 116//116 105//105
f 104//104 115//115 116//116
f 103//103 115//115 104//104
f 103//103 114//114 115//115
f 102//102 114//114 103//103
f 102//102 113//113 114//114
f 101//101 113//113 102//102
f 101//101 112//112 113//113
f 100//100 112//112 101//101
f 100//100 111//111 112//112
f 99//99 111//111 100//100
f 99//99 110//110 111//111
f 98//98 110//110 99//99
f 98//98 109//109 110//110
f 97//97 109//109 98//98
f 85//85 108//108 97//97
f 96//96 108//108 85//85
f 96//96 107//107 108//108
f 95//95 107//107 96//96
f 95//95 106//106 107//107
f 94//94 106//106 95//95
f 94//94 105//105 106//106
f 93//93 105//105 94//94
f 93//93 104//104 105//105
f 92//92 104//104 93//93
f 92//92 103//103 104//104
f 91//91 103//103 92//92
f 91//91 102//102 103//103
f 90//90 102//102 91//91
f 90//90 101//101 102//102
f 89//89 101//101 90//90
f 89//89 100//100 101//101
f 88//88 100//100 89//89
f 88//88 99//99 100//100
f 87//87 99//99 88//88
f 87//87 98//98 99//99
f 86//86 98//98 87//87
f 86//86 97//97 98//98
f 85//85 97//97 86//86
f 73//73 96//96 85//85
f 84//84 96//96 73//73
f 84//84 95//95 96//96
f 83//83 95//95 84//84
f 83//83 94//94 95//95
f 82//82 94//94 83//83
f 82//82 93//93 94//94
f 81//81 93//93 82//82
f 81//81 92//92 93//93
f 80//80 92//92 81//81
f 80//80 91//91 92//92
f 79//79 91//91 80//80
f 79//79 90//90 91//91
f 78//78 90//90 79//79
f 78//78 89//89 90//90
f 77//77 89//89 78//78
f 77//77 88//88 89//89
f 76//76 88//88 77//77
f 76//76 87//87 88//88
f 75//75 87//87 76//76
f 75//75 86//86 87//87
f 74//74 86//86 75//75
f 74//74 85//85 86//86
f 73//73 85//85 74//74
f 61//61 84//84 73//73
f 72//72 84//84 61//61
f 72//72 83//83 84//84
f 71//71 83//83 72//72
f 71//71 82//82 83//83
f 70//70 82//82 71//71
f 70//70 81//81 82//82
f 69//69 81//81 70//70
f 69//69 80//80 81//81
f 68//68 80//80 69//69
f 68//68 79//79 80//80
f 67//67 79//79 68//68
f 67//67 78//78 79//79
f 66//66 78//78 67//67
f 66//66 77//77 78//78
f 65//65 77//77 66//66
f 65//65 76//76 77//77
f 64//64 76//76 65//65
f 64//64 75//75 76//76
f 63//63 75//75 64//64
f 63//63 74//74 75//75
f 62//62 74//74 63//63
f 62//62 73//73 74//74
f 61//61 73//73 62//62
f 49//49 72//72 61//61
f 60//60 72//72 49//49
f 60//60 71//71 72//72
f 59//59 71//71 60//60
f 59//59 70//70 71//71
f 58//58 70//70 59//59
f 58//58 69//69 70//70
f 57//57 69//69 58//58
f 57//57 68//68 69//69
f 56//56 68//68 57//57
f 56//56 67//67 68//68
f 55//55 67//67 56//56
f 55//55 66//66 67//67
f 54//54 66//66 55//55
f 54//54 65//65 66//66
f 53//53 65//65 54//54
f 53//53 64//64 65//65
f 52//52 64//64 53//53
f 52//52 63//63 64//64
f 51//51 63//63 52//52
f 51//51 62//62 63//63
f 50//50 62//62 51//51
f 50//50 61//61 62//62
f 49//49 61//61 50//50
f 37//37 60//60 49//49
f 48//48 60//60 37//37
f 48//48 59//59 60//60
f 47//47 59//59 48//48
f 47//47 58//58 59//59
f 46//46 58//58 47//47
f 46//46 57//57 58//58
f 45//45 57//57 46//46
f 45//45 56//56 57//57
f 44//44 56//56 45//45
f 44//44 55//55 56//56
f 43//43 55//55 44//44
f 43//43 54//54 55//55
f 42//42 54//54 43//43
f 42//42 53//53 54//54
f 41//41 53//53 42//42
f 41//41 52//52 53//53
f 40//40 52//52 41//41
f 40//40 51//51 52//52
f 39//39 51//51 40//40
f 39//39 50//50 51//51
f 38//38 50//50 39//39
f 38//38 49//49 50//50
f 37//37 49//49 38//38
f 25//25 48//48 37//37
f 36//36 48//48 25//25
f 36//36 47//47 48//48
f 35//35 47//47 36//36
f 35//35 46//46 47//47
f 34//34 46//46 35//35
f 34//34 45//45 46//46
f 33//33 45//45 34//34
f 33//33 44//44 45//45
f 32//32 44//44 33//33
f 32//32 43//43 44//44
f 31//31 43//43 32//32
f 31//31 42//42 43//43
f 30//30 42//42 31//31
f 30//30 41//41 42//42
f 29//29 41//41 30//30
f 29//29 40//40 41//41
f 28//28 40//40 29//29
f 28//28 39//39 40//40
f 27//27 39//39 28//28
f 27//27 38//38 39//39
f 26//26 38//38 27//27
f 26//26 37//37 38//38
f 25//25 37//37 26//26
f 3//3 36//36 25//25
f 24//24 36//36 3//3
f 24//24 35//35 36//36
f 22//22 35//35 24//24
f 22//22 34//34 35//35
f 20//20 34//34 22//22
f 20//20 33//33 34//34
f 18//18 33//33 20//20
f 18//18 32//32 33//33
f 16//16 32//32 18//18
f 16//16 31//31 32//32
f 14//14 31//31 16//16
f 14//14 30//30 31//31
f 12//12 30//30 14//14
f 12//12 29//29 30//30
f 10//10 29//29 12//12
f 10//10 28//28 29//29
f 8//8 28//28 10//10
f 8//8 27//27 28//28
f 6//6 27//27 8//8
f 6//6 26//26 27//27
f 4//4 26//26 6//6
f 4//4 25//25 26//26
f 3//3 25//25 4//4
f 2//2 24//24 3//3
f 23//23 24//24 2//2
f 23//23 22//22 24//24
f 21//21 22//22 23//23
f 21//21 20//20 22//22
f 19//19 20//20 21//21
f 19//19 18//18 20//20
f 17//17 18//18 19//19
f 17//17 16//16 18//18
f 15//15 16//16 17//17
f 15//15 14//14 16//16
f 13//13 14//14 15//15
f 13//13 12//12 14//14
f 11//11 12//12 13//13
f 11//11 10//10 12//12
f 9//9 10//10 11//11
f 9//9 8//8 10//10
f 7//7 8//8 9//9
f 7//7 6//6 8//8
f 5//5 6//6 7//7
f 5//5 4//4 6//6
f 1//1 4//4 5//5
f 1//1 3//3 4//4
f 2//2 3//3 1//1
