# Blender 4.2.3 LTS
# www.blender.org
o m527
v 0.927500 0.025000 0.500000
v 0.893300 0.025000 0.337550
v 0.803525 0.025000 0.196475
v 0.662450 0.025000 0.106700
v 0.500000 0.025000 0.072500
v 0.337550 0.025000 0.106700
v 0.196475 0.025000 0.196475
v 0.106700 0.025000 0.337550
v 0.072500 0.025000 0.500000
v 0.106700 0.025000 0.662450
v 0.196475 0.025000 0.803525
v 0.337550 0.025000 0.893300
v 0.500000 0.025000 0.927500
v 0.662450 0.025000 0.893300
v 0.803525 0.025000 0.803525
v 0.893300 0.025000 0.662450
v 0.963125 0.120000 0.500000
v 0.926075 0.120000 0.324012
v 0.828819 0.120000 0.171181
v 0.675987 0.120000 0.073925
v 0.500000 0.120000 0.036875
v 0.324012 0.120000 0.073925
v 0.171181 0.120000 0.171181
v 0.073925 0.120000 0.324012
v 0.036875 0.120000 0.500000
v 0.073925 0.120000 0.675987
v 0.171181 0.120000 0.828819
v 0.324012 0.120000 0.926075
v 0.500000 0.120000 0.963125
v 0.675987 0.120000 0.926075
v 0.828819 0.120000 0.828819
v 0.926075 0.120000 0.675987
v 0.975000 0.215000 0.500000
v 0.937000 0.215000 0.319500
v 0.837250 0.215000 0.162750
v 0.680500 0.215000 0.063000
v 0.500000 0.215000 0.025000
v 0.319500 0.215000 0.063000
v 0.162750 0.215000 0.162750
v 0.063000 0.215000 0.319500
v 0.025000 0.215000 0.500000
v 0.063000 0.215000 0.680500
v 0.162750 0.215000 0.837250
v 0.319500 0.215000 0.937000
v 0.500000 0.215000 0.975000
v 0.680500 0.215000 0.937000
v 0.837250 0.215000 0.837250
v 0.937000 0.215000 0.680500
v 0.963125 0.310000 0.500000
v 0.926075 0.310000 0.324012
v 0.828819 0.310000 0.171181
v 0.675987 0.310000 0.073925
v 0.500000 0.310000 0.036875
v 0.324012 0.310000 0.073925
v 0.171181 0.310000 0.171181
v 0.073925 0.310000 0.324012
v 0.036875 0.310000 0.500000
v 0.073925 0.310000 0.675987
v 0.171181 0.310000 0.828819
v 0.324012 0.310000 0.926075
v 0.500000 0.310000 0.963125
v 0.675987 0.310000 0.926075
v 0.828819 0.310000 0.828819
v 0.926075 0.310000 0.675987
v 0.927500 0.405000 0.500000
v 0.893300 0.405000 0.337550
v 0.803525 0.405000 0.196475
v 0.662450 0.405000 0.106700
v 0.500000 0.405000 0.072500
v 0.337550 0.405000 0.106700
v 0.196475 0.405000 0.196475
v 0.106700 0.405000 0.337550
v 0.072500 0.405000 0.500000
v 0.106700 0.405000 0.662450
v 0.196475 0.405000 0.803525
v 0.337550 0.405000 0.893300
v 0.500000 0.405000 0.927500
v 0.662450 0.405000 0.893300
v 0.803525 0.405000 0.803525
v 0.893300 0.405000 0.662450
v 0.856250 0.500000 0.500000
v 0.827750 0.500000 0.364625
v 0.752937 0.500000 0.247063
v 0.635375 0.500000 0.172250
v 0.500000 0.500000 0.143750
v 0.364625 0.500000 0.172250
v 0.247063 0.500000 0.247063
v 0.172250 0.500000 0.364625
v 0.143750 0.500000 0.500000
v 0.172250 0.500000 0.635375
v 0.247063 0.500000 0.752937
v 0.364625 0.500000 0.827750
v 0.500000 0.500000 0.856250
v 0.635375 0.500000 0.827750
v 0.752937 0.500000 0.752937
v 0.827750 0.500000 0.635375
v 0.785000 0.595000 0.500000
v 0.762200 0.595000 0.391700
v 0.702350 0.595000 0.297650
v 0.608300 0.595000 0.237800
v 0.500000 0.595000 0.215000
v 0.391700 0.595000 0.237800
v 0.297650 0.595000 0.297650
v 0.237800 0.595000 0.391700
v 0.215000 0.595000 0.500000
v 0.237800 0.595000 0.608300
v 0.297650 0.595000 0.702350
v 0.391700 0.595000 0.762200
v 0.500000 0.595000 0.785000
v 0.608300 0.595000 0.762200
v 0.702350 0.595000 0.702350
v 0.762200 0.595000 0.608300
v 0.749375 0.690000 0.500000
v 0.729425 0.690000 0.405237
v 0.677056 0.690000 0.322944
v 0.594763 0.690000 0.270575
v 0.500000 0.690000 0.250625
v 0.405237 0.690000 0.270575
v 0.322944 0.690000 0.322944
v 0.270575 0.690000 0.405237
v 0.250625 0.690000 0.500000
v 0.270575 0.690000 0.594763
v 0.322944 0.690000 0.677056
v 0.405237 0.690000 0.729425
v 0.500000 0.690000 0.749375
v 0.594763 0.690000 0.729425
v 0.677056 0.690000 0.677056
v 0.729425 0.690000 0.594763
v 0.737500 0.785000 0.500000
v 0.718500 0.785000 0.409750
v 0.668625 0.785000 0.331375
v 0.590250 0.785000 0.281500
v 0.500000 0.785000 0.262500
v 0.409750 0.785000 0.281500
v 0.331375 0.785000 0.331375
v 0.281500 0.785000 0.409750
v 0.262500 0.785000 0.500000
v 0.281500 0.785000 0.590250
v 0.331375 0.785000 0.668625
v 0.409750 0.785000 0.718500
v 0.500000 0.785000 0.737500
v 0.590250 0.785000 0.718500
v 0.668625 0.785000 0.668625
v 0.718500 0.785000 0.590250
v 0.749375 0.880000 0.500000
v 0.729425 0.880000 0.405237
v 0.677056 0.880000 0.322944
v 0.594763 0.880000 0.270575
v 0.500000 0.880000 0.250625
v 0.405237 0.880000 0.270575
v 0.322944 0.880000 0.322944
v 0.270575 0.880000 0.405237
v 0.250625 0.880000 0.500000
v 0.270575 0.880000 0.594763
v 0.322944 0.880000 0.677056
v 0.405237 0.880000 0.729425
v 0.500000 0.880000 0.749375
v 0.594763 0.880000 0.729425
v 0.677056 0.880000 0.677056
v 0.729425 0.880000 0.594763
v 0.773125 0.975000 0.500000
v 0.751275 0.975000 0.396212
v 0.693919 0.975000 0.306081
v 0.603787 0.975000 0.248725
v 0.500000 0.975000 0.226875
v 0.396212 0.975000 0.248725
v 0.306081 0.975000 0.306081
v 0.248725 0.975000 0.396212
v 0.226875 0.975000 0.500000
v 0.248725 0.975000 0.603787
v 0.306081 0.975000 0.693919
v 0.396212 0.975000 0.751275
v 0.500000 0.975000 0.773125
v 0.603787 0.975000 0.751275
v 0.693919 0.975000 0.693919
v 0.751275 0.975000 0.603787
vn -0.0000 -1.0000 -0.0000
vn 0.9187 -0.3445 -0.1934
vn 0.7919 -0.3450 -0.5039
vn 0.5039 -0.3450 -0.7919
vn 0.1934 -0.3445 -0.9187
vn -0.1934 -0.3445 -0.9187
vn -0.5039 -0.3450 -0.7919
vn -0.7919 -0.3450 -0.5039
vn -0.9187 -0.3445 -0.1934
vn -0.9187 -0.3445 0.1934
vn -0.7919 -0.3450 0.5039
vn -0.5039 -0.3450 0.7919
vn -0.1934 -0.3445 0.9187
vn 0.1934 -0.3445 0.9187
vn 0.5039 -0.3450 0.7919
vn 0.7919 -0.3450 0.5039
vn 0.9187 -0.3445 0.1934
vn 0.9713 -0.1214 -0.2045
vn 0.8374 -0.1216 -0.5329
vn 0.5329 -0.1216 -0.8374
vn 0.2045 -0.1214 -0.9713
vn -0.2045 -0.1214 -0.9713
vn -0.5329 -0.1216 -0.8374
vn -0.8374 -0.1216 -0.5329
vn -0.9713 -0.1214 -0.2045
vn -0.9713 -0.1214 0.2045
vn -0.8374 -0.1216 0.5329
vn -0.5329 -0.1216 0.8374
vn -0.2045 -0.1214 0.9713
vn 0.2045 -0.1214 0.9713
vn 0.5329 -0.1216 0.8374
vn 0.8374 -0.1216 0.5329
vn 0.9713 -0.1214 0.2045
vn 0.9713 0.1214 -0.2045
vn 0.8374 0.1216 -0.5329
vn 0.5329 0.1216 -0.8374
vn 0.2045 0.1214 -0.9713
vn -0.2045 0.1214 -0.9713
vn -0.5329 0.1216 -0.8374
vn -0.8374 0.1216 -0.5329
vn -0.9713 0.1214 -0.2045
vn -0.9713 0.1214 0.2045
vn -0.8374 0.1216 0.5329
vn -0.5329 0.1216 0.8374
vn -0.2045 0.1214 0.9713
vn 0.2045 0.1214 0.9713
vn 0.5329 0.1216 0.8374
vn 0.8374 0.1216 0.5329
vn 0.9713 0.1214 0.2045
vn 0.9187 0.3445 -0.1934
vn 0.7919 0.3450 -0.5039
vn 0.5039 0.3450 -0.7919
vn 0.1934 0.3445 -0.9187
vn -0.1934 0.3445 -0.9187
vn -0.5039 0.3450 -0.7919
vn -0.7919 0.3450 -0.5039
vn -0.9187 0.3445 -0.1934
vn -0.9187 0.3445 0.1934
vn -0.7919 0.3450 0.5039
vn -0.5039 0.3450 0.7919
vn -0.1934 0.3445 0.9187
vn 0.1934 0.3445 0.9187
vn 0.5039 0.3450 0.7919
vn 0.7919 0.3450 0.5039
vn 0.9187 0.3445 0.1934
vn 0.7889 0.5917 -0.1661
vn 0.6797 0.5923 -0.4326
vn 0.4326 0.5923 -0.6797
vn 0.1661 0.5917 -0.7889
vn -0.1661 0.5917 -0.7889
vn -0.4326 0.5923 -0.6797
vn -0.6797 0.5923 -0.4326
vn -0.7889 0.5917 -0.1661
vn -0.7889 0.5917 0.1661
vn -0.6797 0.5923 0.4326
vn -0.4326 0.5923 0.6797
vn -0.1661 0.5917 0.7889
vn 0.1661 0.5917 0.7889
vn 0.4326 0.5923 0.6797
vn 0.6797 0.5923 0.4326
vn 0.7889 0.5917 0.1661
vn 0.4326 0.5923 -0.6798
vn -0.6798 0.5923 -0.4326
vn -0.4326 0.5923 0.6798
vn 0.6798 0.5923 0.4326
vn 0.9505 -0.2376 -0.2001
vn 0.8194 -0.2380 -0.5214
vn 0.8194 -0.2380 -0.5215
vn 0.5214 -0.2380 -0.8194
vn 0.5215 -0.2380 -0.8194
vn 0.2001 -0.2376 -0.9505
vn -0.2001 -0.2376 -0.9505
vn -0.5214 -0.2380 -0.8194
vn -0.5215 -0.2380 -0.8194
vn -0.8194 -0.2380 -0.5214
vn -0.8194 -0.2380 -0.5215
vn -0.9505 -0.2376 -0.2001
vn -0.9505 -0.2376 0.2001
vn -0.8194 -0.2380 0.5214
vn -0.8194 -0.2380 0.5215
vn -0.5214 -0.2380 0.8194
vn -0.5215 -0.2380 0.8194
vn -0.2001 -0.2376 0.9505
vn 0.2001 -0.2376 0.9505
vn 0.5214 -0.2380 0.8194
vn 0.5215 -0.2380 0.8194
vn 0.8194 -0.2380 0.5214
vn 0.8194 -0.2380 0.5215
vn 0.9505 -0.2376 0.2001
vn -0.0000 1.0000 -0.0000
s 0
f 3//1 2//1 1//1
f 4//1 3//1 1//1
f 5//1 4//1 1//1
f 6//1 5//1 1//1
f 7//1 6//1 1//1
f 8//1 7//1 1//1
f 9//1 8//1 1//1
f 10//1 9//1 1//1
f 11//1 10//1 1//1
f 12//1 11//1 1//1
f 13//1 12//1 1//1
f 14//1 13//1 1//1
f 15//1 14//1 1//1
f 16//1 15//1 1//1
f 1//2 18//2 17//2
f 1//2 2//2 18//2
f 2//3 19//3 18//3
f 2//3 3//3 19//3
f 3//4 20//4 19//4
f 3//4 4//4 20//4
f 4//5 21//5 20//5
f 4//5 5//5 21//5
f 5//6 22//6 21//6
f 5//6 6//6 22//6
f 6//7 23//7 22//7
f 6//7 7//7 23//7
f 7//8 24//8 23//8
f 7//8 8//8 24//8
f 8//9 25//9 24//9
f 8//9 9//9 25//9
f 9//10 26//10 25//10
f 9//10 10//10 26//10
f 10//11 27//11 26//11
f 10//11 11//11 27//11
f 11//12 28//12 27//12
f 11//12 12//12 28//12
f 12//13 29//13 28//13
f 12//13 13//13 29//13
f 13//14 30//14 29//14
f 13//14 14//14 30//14
f 14//15 31//15 30//15
f 14//15 15//15 31//15
f 15//16 32//16 31//16
f 15//16 16//16 32//16
f 16//17 17//17 32//17
f 16//17 1//17 17//17
f 17//18 34//18 33//18
f 17//18 18//18 34//18
f 18//19 35//19 34//19
f 18//19 19//19 35//19
f 19//20 36//20 35//20
f 19//20 20//20 36//20
f 20//21 37//21 36//21
f 20//21 21//21 37//21
f 21//22 38//22 37//22
f 21//22 22//22 38//22
f 22//23 39//23 38//23
f 22//23 23//23 39//23
f 23//24 40//24 39//24
f 23//24 24//24 40//24
f 24//25 41//25 40//25
f 24//25 25//25 41//25
f 25//26 42//26 41//26
f 25//26 26//26 42//26
f 26//27 43//27 42//27
f 26//27 27//27 43//27
f 27//28 44//28 43//28
f 27//28 28//28 44//28
f 28//29 45//29 44//29
f 28//29 29//29 45//29
f 29//30 46//30 45//30
f 29//30 30//30 46//30
f 30//31 47//31 46//31
f 30//31 31//31 47//31
f 31//32 48//32 47//32
f 31//32 32//32 48//32
f 32//33 33//33 48//33
f 32//33 17//33 33//33
f 33//34 50//34 49//34
f 33//34 34//34 50//34
f 34//35 51//35 50//35
f 34//35 35//35 51//35
f 35//36 52//36 51//36
f 35//36 36//36 52//36
f 36//37 53//37 52//37
f 36//37 37//37 53//37
f 37//38 54//38 53//38
f 37//38 38//38 54//38
f 38//39 55//39 54//39
f 38//39 39//39 55//39
f 39//40 56//40 55//40
f 39//40 40//40 56//40
f 40//41 57//41 56//41
f 40//41 41//41 57//41
f 41//42 58//42 57//42
f 41//42 42//42 58//42
f 42//43 59//43 58//43
f 42//43 43//43 59//43
f 43//44 60//44 59//44
f 43//44 44//44 60//44
f 44//45 61//45 60//45
f 44//45 45//45 61//45
f 45//46 62//46 61//46
f 45//46 46//46 62//46
f 46//47 63//47 62//47
f 46//47 47//47 63//47
f 47//48 64//48 63//48
f 47//48 48//48 64//48
f 48//49 49//49 64//49
f 48//49 33//49 49//49
f 49//50 66//50 65//50
f 49//50 50//50 66//50
f 50//51 67//51 66//51
f 50//51 51//51 67//51
f 51//52 68//52 67//52
f 51//52 52//52 68//52
f 52//53 69//53 68//53
f 52//53 53//53 69//53
f 53//54 70//54 69//54
f 53//54 54//54 70//54
f 54//55 71//55 70//55
f 54//55 55//55 71//55
f 55//56 72//56 71//56
f 55//56 56//56 72//56
f 56//57 73//57 72//57
f 56//57 57//57 73//57
f 57//58 74//58 73//58
f 57//58 58//58 74//58
f 58//59 75//59 74//59
f 58//59 59//59 75//59
f 59//60 76//60 75//60
f 59//60 60//60 76//60
f 60//61 77//61 76//61
f 60//61 61//61 77//61
f 61//62 78//62 77//62
f 61//62 62//62 78//62
f 62//63 79//63 78//63
f 62//63 63//63 79//63
f 63//64 80//64 79//64
f 63//64 64//64 80//64
f 64//65 65//65 80//65
f 64//65 49//65 65//65
f 65//66 82//66 81//66
f 65//66 66//66 82//66
f 66//67 83//67 82//67
f 66//67 67//67 83//67
f 67//68 84//68 83//68
f 67//68 68//68 84//68
f 68//69 85//69 84//69
f 68//69 69//69 85//69
f 69//70 86//70 85//70
f 69//70 70//70 86//70
f 70//71 87//71 86//71
f 70//71 71//71 87//71
f 71//72 88//72 87//72
f 71//72 72//72 88//72
f 72//73 89//73 88//73
f 72//73 73//73 89//73
f 73//74 90//74 89//74
f 73//74 74//74 90//74
f 74//75 91//75 90//75
f 74//75 75//75 91//75
f 75//76 92//76 91//76
f 75//76 76//76 92//76
f 76//77 93//77 92//77
f 76//77 77//77 93//77
f 77//78 94//78 93//78
f 77//78 78//78 94//78
f 78//79 95//79 94//79
f 78//79 79//79 95//79
f 79//80 96//80 95//80
f 79//80 80//80 96//80
f 80//81 81//81 96//81
f 80//81 65//81 81//81
f 81//66 98//66 97//66
f 81//66 82//66 98//66
f 82//67 99//67 98//67
f 82//67 83//67 99//67
f 83//82 100//82 99//82
f 83//68 84//68 100//68
f 84//69 101//69 100//69
f 84//69 85//69 101//69
f 85//70 102//70 101//70
f 85//70 86//70 102//70
f 86//71 103//71 102//71
f 86//71 87//71 103//71
f 87//83 104//83 103//83
f 87//72 88//72 104//72
f 88//73 105//73 104//73
f 88//73 89//73 105//73
f 89//74 106//74 105//74
f 89//74 90//74 106//74
f 90//75 107//75 106//75
f 90//75 91//75 107//75
f 91//84 108//84 107//84
f 91//76 92//76 108//76
f 92//77 109//77 108//77
f 92//77 93//77 109//77
f 93//78 110//78 109//78
f 93//78 94//78 110//78
f 94//79 111//79 110//79
f 94//79 95//79 111//79
f 95//85 112//85 111//85
f 95//80 96//80 112//80
f 96//81 97//81 112//81
f 96//81 81//81 97//81
f 97//50 114//50 113//50
f 97//50 98//50 114//50
f 98//51 115//51 114//51
f 98//51 99//51 115//51
f 99//52 116//52 115//52
f 99//52 100//52 116//52
f 100//53 117//53 116//53
f 100//53 101//53 117//53
f 101//54 118//54 117//54
f 101//54 102//54 118//54
f 102//55 119//55 118//55
f 102//55 103//55 119//55
f 103//56 120//56 119//56
f 103//56 104//56 120//56
f 104//57 121//57 120//57
f 104//57 105//57 121//57
f 105//58 122//58 121//58
f 105//58 106//58 122//58
f 106//59 123//59 122//59
f 106//59 107//59 123//59
f 107//60 124//60 123//60
f 107//60 108//60 124//60
f 108//61 125//61 124//61
f 108//61 109//61 125//61
f 109//62 126//62 125//62
f 109//62 110//62 126//62
f 110//63 127//63 126//63
f 110//63 111//63 127//63
f 111//64 128//64 127//64
f 111//64 112//64 128//64
f 112//65 113//65 128//65
f 112//65 97//65 113//65
f 113//34 130//34 129//34
f 113//34 114//34 130//34
f 114//35 131//35 130//35
f 114//35 115//35 131//35
f 115//36 132//36 131//36
f 115//36 116//36 132//36
f 116//37 133//37 132//37
f 116//37 117//37 133//37
f 117//38 134//38 133//38
f 117//38 118//38 134//38
f 118//39 135//39 134//39
f 118//39 119//39 135//39
f 119//40 136//40 135//40
f 119//40 120//40 136//40
f 120//41 137//41 136//41
f 120//41 121//41 137//41
f 121//42 138//42 137//42
f 121//42 122//42 138//42
f 122//43 139//43 138//43
f 122//43 123//43 139//43
f 123//44 140//44 139//44
f 123//44 124//44 140//44
f 124//45 141//45 140//45
f 124//45 125//45 141//45
f 125//46 142//46 141//46
f 125//46 126//46 142//46
f 126//47 143//47 142//47
f 126//47 127//47 143//47
f 127//48 144//48 143//48
f 127//48 128//48 144//48
f 128//49 129//49 144//49
f 128//49 113//49 129//49
f 129//18 146//18 145//18
f 129//18 130//18 146//18
f 130//19 147//19 146//19
f 130//19 131//19 147//19
f 131//20 148//20 147//20
f 131//20 132//20 148//20
f 132//21 149//21 148//21
f 132//21 133//21 149//21
f 133//22 150//22 149//22
f 133//22 134//22 150//22
f 134//23 151//23 150//23
f 134//23 135//23 151//23
f 135//24 152//24 151//24
f 135//24 136//24 152//24
f 136//25 153//25 152//25
f 136//25 137//25 153//25
f 137//26 154//26 153//26
f 137//26 138//26 154//26
f 138//27 155//27 154//27
f 138//27 139//27 155//27
f 139//28 156//28 155//28
f 139//28 140//28 156//28
f 140//29 157//29 156//29
f 140//29 141//29 157//29
f 141//30 158//30 157//30
f 141//30 142//30 158//30
f 142//31 159//31 158//31
f 142//31 143//31 159//31
f 143//32 160//32 159//32
f 143//32 144//32 160//32
f 144//33 145//33 160//33
f 144//33 129//33 145//33
f 145//86 162//86 161//86
f 145//86 146//86 162//86
f 146//87 163//87 162//87
f 146//88 147//88 163//88
f 147//89 164//89 163//89
f 147//90 148//90 164//90
f 148//91 165//91 164//91
f 148//91 149//91 165//91
f 149//92 166//92 165//92
f 149//92 150//92 166//92
f 150//93 167//93 166//93
f 150//94 151//94 167//94
f 151//95 168//95 167//95
f 151//96 152//96 168//96
f 152//97 169//97 168//97
f 152//97 153//97 169//97
f 153//98 170//98 169//98
f 153//98 154//98 170//98
f 154//99 171//99 170//99
f 154//100 155//100 171//100
f 155//101 172//101 171//101
f 155//102 156//102 172//102
f 156//103 173//103 172//103
f 156//103 157//103 173//103
f 157//104 174//104 173//104
f 157//104 158//104 174//104
f 158//105 175//105 174//105
f 158//106 159//106 175//106
f 159//107 176//107 175//107
f 159//108 160//108 176//108
f 160//109 161//109 176//109
f 160//109 145//109 161//109
f 161//110 162//110 163//110
f 161//110 163//110 164//110
f 161//110 164//110 165//110
f 161//110 165//110 166//110
f 161//110 166//110 167//110
f 161//110 167//110 168//110
f 161//110 168//110 169//110
f 161//110 169//110 170//110
f 161//110 170//110 171//110
f 161//110 171//110 172//110
f 161//110 172//110 173//110
f 161//110 173//110 174//110
f 161//110 174//110 175//110
f 161//110 175//110 176//110
