# Blender 4.2.3 LTS
# www.blender.org
o m764
v 0.439314 0.025047 0.526182
v 0.449457 0.040354 0.526182
v 0.449410 0.040354 0.473626
v 0.439314 0.025047 0.473626
v 0.462441 0.048315 0.526182
v 0.462441 0.048315 0.473626
v 0.531349 0.025047 0.526231
v 0.531349 0.025047 0.473674
v 0.526467 0.064950 0.473626
v 0.526467 0.064950 0.526182
v 0.449410 0.040306 0.762948
v 0.462441 0.048315 0.762948
v 0.472205 0.054335 0.526231
v 0.472205 0.054286 0.762948
v 0.500639 0.062485 0.526231
v 0.500639 0.062439 0.762948
v 0.531349 0.025000 0.815553
v 0.526467 0.064902 0.815553
v 0.163593 0.025000 0.762948
v 0.163593 0.025000 0.815553
v 0.163593 0.030781 0.815553
v 0.404246 0.522890 0.526277
v 0.404246 0.522890 0.473721
v 0.469645 0.529049 0.526277
v 0.469645 0.529049 0.473721
v 0.472156 0.054335 0.473626
v 0.500639 0.062485 0.473626
v 0.439314 0.025047 0.236908
v 0.449410 0.040354 0.236908
v 0.462441 0.048363 0.236908
v 0.472205 0.054335 0.236908
v 0.500639 0.062485 0.236908
v 0.531349 0.025047 0.184303
v 0.526467 0.064950 0.184303
v 0.163593 0.030827 0.236908
v 0.163593 0.025047 0.236908
v 0.163593 0.025047 0.184303
v 0.163593 0.030827 0.184303
v 0.394340 0.544642 0.526277
v 0.392160 0.551277 0.526277
v 0.392160 0.551277 0.473721
v 0.394340 0.544642 0.473721
v 0.404151 0.533789 0.526277
v 0.404151 0.533789 0.473721
v 0.417942 0.527059 0.526277
v 0.417942 0.527059 0.473721
v 0.433629 0.525448 0.526277
v 0.433629 0.525448 0.473721
v 0.448888 0.529286 0.526277
v 0.448888 0.529286 0.473721
v 0.461257 0.537864 0.526277
v 0.461257 0.537864 0.473721
v 0.468934 0.549996 0.526277
v 0.468934 0.549996 0.473721
v 0.470735 0.563739 0.526277
v 0.470735 0.563739 0.473721
v 0.034574 0.507557 0.974953
v 0.710369 0.584472 0.974953
v 0.710369 0.584568 0.025000
v 0.034620 0.507652 0.025000
v 0.025000 0.541063 0.974953
v 0.025000 0.541109 0.025000
v 0.039739 0.542722 0.974953
v 0.039739 0.542769 0.025000
v 0.044904 0.525235 0.974953
v 0.044904 0.525330 0.025000
v 0.686578 0.648924 0.975000
v 0.686627 0.648973 0.025047
vn -0.8336 0.5524 0.0007
vn -0.8348 0.5506 -0.0000
vn -0.5227 0.8525 0.0005
vn -0.5213 0.8534 -0.0000
vn 0.9926 0.1214 -0.0000
vn -0.5227 0.8525 0.0001
vn -0.5236 0.8520 -0.0000
vn -0.5248 0.8512 -0.0000
vn -0.5217 0.8531 0.0002
vn -0.2755 0.9613 0.0002
vn -0.2756 0.9613 0.0002
vn -0.0000 -0.0000 -1.0000
vn -0.0000 -0.0000 1.0000
vn -0.9926 -0.1217 -0.0000
vn -0.0938 0.9956 -0.0000
vn 0.9926 0.1215 -0.0000
vn -0.0000 -0.0002 1.0000
vn -0.0049 -0.0001 1.0000
vn -0.0000 -0.0001 1.0000
vn 0.0019 -0.0000 1.0000
vn -0.0000 0.0002 -1.0000
vn -0.0001 0.0002 -1.0000
vn -0.5236 0.8520 0.0002
vn -0.5267 0.8500 0.0002
vn -0.5218 0.8531 -0.0001
vn -0.2751 0.9614 -0.0001
vn -0.2755 0.9613 -0.0000
vn -1.0000 -0.0000 -0.0000
vn -0.9500 -0.3121 -0.0000
vn -0.9500 -0.3122 -0.0000
vn -0.7418 -0.6706 -0.0000
vn -0.4386 -0.8987 -0.0000
vn -0.1022 -0.9948 -0.0000
vn 0.2439 -0.9698 -0.0000
vn 0.5699 -0.8217 -0.0000
vn 0.8450 -0.5347 -0.0000
vn 0.9915 -0.1299 -0.0000
vn -0.0000 -1.0000 -0.0000
vn -0.0000 -1.0000 -0.0001
vn 0.1131 -0.9936 -0.0001
vn -0.9615 -0.2747 -0.0001
vn -0.9611 -0.2763 -0.0000
vn -0.1119 0.9937 -0.0000
vn 0.9590 0.2833 -0.0000
vn 0.9588 0.2840 -0.0000
vn -0.1893 0.9819 0.0001
vn -0.1892 0.9819 -0.0000
vn 0.9381 0.3463 0.0001
vn 0.9383 0.3459 -0.0000
vn 0.0001 -0.0007 1.0000
vn -0.0001 0.0007 -1.0000
s 0
f 2//1 3//1 1//1
f 4//2 1//2 3//2
f 2//3 5//3 3//3
f 6//4 3//4 5//4
f 8//5 9//5 7//5
f 10//5 7//5 9//5
f 2//6 11//6 5//6
f 12//7 5//7 11//7
f 5//8 12//8 13//8
f 14//9 13//9 12//9
f 13//10 14//10 15//10
f 16//11 15//11 14//11
f 7//5 10//5 17//5
f 18//5 17//5 10//5
f 14//12 11//12 19//12
f 14//12 19//12 16//12
f 21//13 20//13 18//13
f 17//13 18//13 20//13
f 5//14 22//14 6//14
f 23//14 6//14 22//14
f 24//15 25//15 22//15
f 23//15 22//15 25//15
f 24//16 10//16 25//16
f 9//16 25//16 10//16
f 22//17 5//17 24//17
f 13//18 24//18 5//18
f 13//19 15//19 24//19
f 10//20 24//20 15//20
f 23//21 25//21 6//21
f 26//22 6//22 25//22
f 26//22 25//22 27//22
f 9//21 27//21 25//21
f 4//2 3//2 28//2
f 29//2 28//2 3//2
f 3//4 6//4 29//4
f 30//23 29//23 6//23
f 6//24 26//24 30//24
f 31//25 30//25 26//25
f 26//26 27//26 31//26
f 32//27 31//27 27//27
f 8//5 33//5 9//5
f 34//5 9//5 33//5
f 36//28 35//28 37//28
f 38//28 37//28 35//28
f 28//13 29//13 36//13
f 31//13 36//13 29//13
f 31//13 32//13 36//13
f 35//13 36//13 32//13
f 38//12 34//12 37//12
f 33//12 37//12 34//12
f 40//29 41//29 39//29
f 42//30 39//30 41//30
f 39//31 42//31 43//31
f 44//31 43//31 42//31
f 43//32 44//32 45//32
f 46//32 45//32 44//32
f 45//33 46//33 47//33
f 48//33 47//33 46//33
f 47//34 48//34 49//34
f 50//34 49//34 48//34
f 49//35 50//35 51//35
f 52//35 51//35 50//35
f 51//36 52//36 53//36
f 54//36 53//36 52//36
f 53//37 54//37 55//37
f 56//37 55//37 54//37
f 40//13 39//13 55//13
f 43//13 55//13 39//13
f 43//13 45//13 55//13
f 47//13 55//13 45//13
f 47//13 49//13 55//13
f 51//13 55//13 49//13
f 53//13 55//13 51//13
f 41//12 56//12 42//12
f 44//12 42//12 56//12
f 44//12 56//12 46//12
f 48//12 46//12 56//12
f 48//12 56//12 50//12
f 52//12 50//12 56//12
f 54//12 52//12 56//12
f 36//38 37//38 33//38
f 28//38 36//38 33//38
f 17//39 28//39 33//39
f 20//38 19//38 17//38
f 58//40 57//40 59//40
f 60//40 59//40 57//40
f 57//41 61//41 60//41
f 62//42 60//42 61//42
f 61//43 63//43 62//43
f 64//43 62//43 63//43
f 63//44 65//44 64//44
f 66//45 64//45 65//45
f 65//46 67//46 66//46
f 68//47 66//47 67//47
f 67//48 58//48 68//48
f 59//49 68//49 58//49
f 57//13 58//13 61//13
f 63//13 61//13 58//13
f 63//12 58//12 65//12
f 67//50 65//50 58//50
f 60//12 62//12 59//12
f 64//12 59//12 62//12
f 64//13 66//13 59//13
f 68//51 59//51 66//51
