# Blender 4.2.3 LTS
# www.blender.org
o m874
v 0.930893 0.143750 0.069107
v 0.930893 0.123393 0.069107
v 0.069107 0.123393 0.069107
v 0.069107 0.143750 0.069107
v 0.069107 0.143750 0.388036
v 0.069107 0.123393 0.388036
v 0.930893 0.123393 0.388036
v 0.930893 0.143750 0.388036
v 0.052143 0.355804 0.411786
v 0.052143 0.355804 0.045357
v 0.947857 0.355804 0.045357
v 0.947857 0.355804 0.411786
v 0.052143 0.313393 0.364286
v 0.052143 0.313393 0.092857
v 0.052143 0.265893 0.364286
v 0.052143 0.265893 0.092857
v 0.092857 0.265893 0.092857
v 0.092857 0.265893 0.364286
v 0.907143 0.313393 0.045357
v 0.092857 0.313393 0.045357
v 0.907143 0.265893 0.092857
v 0.907143 0.265893 0.045357
v 0.092857 0.265893 0.045357
v 0.947857 0.313393 0.364286
v 0.907143 0.313393 0.411786
v 0.947857 0.313393 0.092857
v 0.092857 0.313393 0.411786
v 0.092857 0.265893 0.411786
v 0.947857 0.265893 0.092857
v 0.907143 0.265893 0.411786
v 0.907143 0.265893 0.364286
v 0.947857 0.265893 0.364286
v 0.947857 0.025000 0.364286
v 0.975000 0.313393 0.364286
v 0.907143 0.025000 0.364286
v 0.975000 0.313393 0.432143
v 0.947857 0.025000 0.411786
v 0.907143 0.025000 0.411786
v 0.907143 0.313393 0.432143
v 0.907143 0.025000 0.045357
v 0.907143 0.313393 0.025000
v 0.907143 0.025000 0.092857
v 0.975000 0.313393 0.025000
v 0.947857 0.025000 0.045357
v 0.947857 0.025000 0.092857
v 0.975000 0.313393 0.092857
v 0.052143 0.025000 0.092857
v 0.025000 0.313393 0.092857
v 0.092857 0.025000 0.092857
v 0.025000 0.313393 0.025000
v 0.052143 0.025000 0.045357
v 0.092857 0.025000 0.045357
v 0.092857 0.313393 0.025000
v 0.092857 0.025000 0.411786
v 0.092857 0.313393 0.432143
v 0.092857 0.025000 0.364286
v 0.025000 0.313393 0.432143
v 0.052143 0.025000 0.411786
v 0.052143 0.025000 0.364286
v 0.025000 0.313393 0.364286
v 0.025000 0.347321 0.432143
v 0.975000 0.347321 0.432143
v 0.975000 0.347321 0.025000
v 0.025000 0.347321 0.025000
vn -0.0000 -0.0000 -1.0000
vn 1.0000 -0.0000 -0.0000
vn -0.0000 -0.0000 1.0000
vn -1.0000 -0.0000 -0.0000
vn -0.9956 -0.0937 -0.0000
vn -0.0000 -0.0704 0.9975
vn -0.0000 -0.0704 -0.9975
vn 0.9956 -0.0937 -0.0000
vn -0.0000 -1.0000 -0.0000
vn -0.0000 0.9231 -0.3847
vn 0.2983 0.9545 -0.0000
vn -0.0000 0.9231 0.3847
vn -0.2983 0.9545 -0.0000
vn -0.0000 1.0000 -0.0000
s 0
f 63//1 43//1 50//1
f 62//2 36//2 43//2
f 61//3 57//3 36//3
f 64//4 50//4 57//4
f 59//5 58//5 57//5
f 56//1 59//1 60//1
f 57//6 58//6 54//6
f 52//7 51//7 50//7
f 48//3 47//3 49//3
f 50//5 51//5 47//5
f 45//8 44//8 43//8
f 42//3 45//3 46//3
f 43//7 44//7 40//7
f 38//6 37//6 36//6
f 34//1 33//1 35//1
f 36//8 37//8 33//8
f 28//3 30//3 25//3
f 31//9 30//9 28//9
f 23//9 22//9 21//9
f 19//1 22//1 23//1
f 24//2 32//2 29//2
f 21//9 29//9 32//9
f 15//9 16//9 17//9
f 16//4 15//4 13//4
f 43//9 36//9 57//9
f 10//10 11//10 63//10
f 12//11 62//11 63//11
f 9//12 61//12 62//12
f 61//13 9//13 10//13
f 9//14 12//14 11//14
f 6//3 7//3 8//3
f 7//2 2//2 1//2
f 1//1 2//1 3//1
f 3//4 6//4 5//4
f 5//14 8//14 1//14
f 3//9 2//9 7//9
f 63//1 50//1 64//1
f 62//2 43//2 63//2
f 61//3 36//3 62//3
f 64//4 57//4 61//4
f 59//5 57//5 60//5
f 57//6 54//6 55//6
f 52//7 50//7 53//7
f 50//5 47//5 48//5
f 45//8 43//8 46//8
f 43//7 40//7 41//7
f 38//6 36//6 39//6
f 36//8 33//8 34//8
f 28//3 25//3 27//3
f 31//9 28//9 18//9
f 23//9 21//9 17//9
f 19//1 23//1 20//1
f 24//2 29//2 26//2
f 21//9 32//9 31//9
f 15//9 17//9 18//9
f 16//4 13//4 14//4
f 43//9 57//9 50//9
f 10//10 63//10 64//10
f 12//11 63//11 11//11
f 9//12 62//12 12//12
f 61//13 10//13 64//13
f 9//14 11//14 10//14
f 6//3 8//3 5//3
f 7//2 1//2 8//2
f 1//1 3//1 4//1
f 3//4 5//4 4//4
f 5//14 1//14 4//14
f 3//9 7//9 6//9
l 54 56
l 49 52
l 40 42
l 35 38
