# Blender 4.2.3 LTS
# www.blender.org
o m391
v 0.088823 0.060689 0.928943
v 0.088826 0.056434 0.928946
v 0.088818 0.056442 0.940400
v 0.088823 0.048887 0.940405
v 0.088815 0.048895 0.952019
v 0.088820 0.041156 0.952025
v 0.088812 0.041164 0.963455
v 0.088817 0.033609 0.963460
v 0.088810 0.033617 0.974730
v 0.088815 0.026223 0.974735
v 0.088854 0.026184 0.919078
v 0.088830 0.060452 0.919054
v 0.468304 0.060954 0.929208
v 0.468307 0.056699 0.929211
v 0.468299 0.056707 0.940665
v 0.468304 0.049152 0.940670
v 0.468296 0.049160 0.952284
v 0.468301 0.041421 0.952290
v 0.468293 0.041429 0.963720
v 0.468298 0.033874 0.963725
v 0.468291 0.033882 0.974995
v 0.468296 0.026488 0.975000
v 0.468335 0.026449 0.919343
v 0.468311 0.060717 0.919319
v 0.347559 0.390965 0.556603
v 0.209566 0.390965 0.556603
v 0.209566 0.390965 0.694596
v 0.347559 0.390965 0.694596
v 0.347559 0.528958 0.556603
v 0.209566 0.528958 0.556603
v 0.209566 0.528958 0.694596
v 0.347559 0.528958 0.694596
v 0.359058 0.480660 0.545104
v 0.198066 0.480660 0.545104
v 0.198066 0.480660 0.706096
v 0.359058 0.480660 0.706096
v 0.359058 0.503659 0.545104
v 0.198066 0.503659 0.545104
v 0.198066 0.503659 0.706096
v 0.359058 0.503659 0.706096
v 0.359058 0.526658 0.545104
v 0.198066 0.526658 0.545104
v 0.198066 0.526658 0.706096
v 0.359058 0.526658 0.706096
v 0.359058 0.538157 0.545104
v 0.198066 0.538157 0.545104
v 0.198066 0.538157 0.706096
v 0.359058 0.538157 0.706096
v 0.280483 0.804944 0.625600
v 0.211486 0.528958 0.694596
v 0.349479 0.528958 0.694596
v 0.349479 0.528958 0.556603
v 0.211486 0.528958 0.556603
v 0.280483 0.528958 0.625600
v 0.378198 0.179725 0.743800
v 0.378314 0.133728 0.743917
v 0.436155 0.179873 0.743947
v 0.436271 0.133875 0.744064
v 0.239774 0.177770 0.746014
v 0.240005 0.086523 0.746246
v 0.319970 0.177974 0.746217
v 0.320201 0.086727 0.746449
v 0.109456 0.179725 0.743800
v 0.109573 0.133728 0.743917
v 0.167413 0.179873 0.743947
v 0.167530 0.133875 0.744064
v 0.239140 0.343190 0.743771
v 0.239315 0.274194 0.743946
v 0.315036 0.343382 0.743963
v 0.315211 0.274386 0.744138
v 0.057957 0.266828 0.576432
v 0.057957 0.105836 0.576560
v 0.057957 0.266889 0.652328
v 0.057957 0.105897 0.652456
v 0.057957 0.266828 0.418200
v 0.057957 0.105836 0.418328
v 0.057957 0.266889 0.494096
v 0.057957 0.105897 0.494224
v 0.057957 0.266828 0.256403
v 0.057957 0.105836 0.256531
v 0.057957 0.266889 0.332299
v 0.057957 0.105897 0.332427
v 0.057957 0.266828 0.094261
v 0.057957 0.105836 0.094389
v 0.057957 0.266889 0.170157
v 0.057957 0.105897 0.170286
v 0.499535 0.266828 0.256403
v 0.499535 0.105836 0.256531
v 0.499535 0.266889 0.332299
v 0.499535 0.105897 0.332427
v 0.499535 0.266828 0.094261
v 0.499535 0.105836 0.094389
v 0.499535 0.266889 0.170157
v 0.499535 0.105897 0.170286
v 0.499535 0.266828 0.418200
v 0.499535 0.105836 0.418328
v 0.499535 0.266889 0.494096
v 0.499535 0.105897 0.494224
v 0.499535 0.266828 0.576432
v 0.499535 0.105836 0.576560
v 0.499535 0.266889 0.652328
v 0.499535 0.105897 0.652456
v 0.243030 0.088978 0.747252
v 0.243033 0.084723 0.747255
v 0.243025 0.084731 0.758709
v 0.243030 0.077176 0.758714
v 0.243022 0.077184 0.770328
v 0.243028 0.069445 0.770334
v 0.243020 0.069453 0.781764
v 0.243025 0.061897 0.781770
v 0.243017 0.061905 0.793039
v 0.243022 0.054511 0.793044
v 0.243061 0.054472 0.737387
v 0.243037 0.088741 0.737363
v 0.312027 0.089026 0.747301
v 0.312030 0.084771 0.747303
v 0.312021 0.084779 0.758757
v 0.312027 0.077224 0.758762
v 0.312019 0.077232 0.770377
v 0.312024 0.069493 0.770382
v 0.312016 0.069501 0.781812
v 0.312021 0.061946 0.781818
v 0.312013 0.061954 0.793087
v 0.312019 0.054559 0.793092
v 0.312058 0.054520 0.737435
v 0.312034 0.088789 0.737411
v 0.468303 0.027088 0.738294
v 0.088822 0.027088 0.738294
v 0.088822 0.027088 0.922285
v 0.468303 0.027088 0.922285
v 0.468303 0.061587 0.738294
v 0.088822 0.061587 0.738294
v 0.088822 0.061587 0.922285
v 0.468303 0.061587 0.922285
v 0.405056 0.195546 0.737105
v 0.152069 0.195546 0.737105
v 0.202666 0.183903 0.847578
v 0.354459 0.183903 0.847578
v 0.405056 0.217046 0.739371
v 0.152069 0.217046 0.739371
v 0.202666 0.196826 0.848940
v 0.354459 0.196826 0.848940
v 0.213016 0.041612 0.838914
v 0.207266 0.041612 0.838914
v 0.207266 0.041612 0.844664
v 0.213016 0.041612 0.844664
v 0.213016 0.191105 0.838914
v 0.207266 0.191105 0.838914
v 0.207266 0.191105 0.844664
v 0.213016 0.191105 0.844664
v 0.348709 0.041612 0.838914
v 0.342959 0.041612 0.838914
v 0.342959 0.041612 0.844664
v 0.348709 0.041612 0.844664
v 0.348709 0.191105 0.838914
v 0.342959 0.191105 0.838914
v 0.342959 0.191105 0.844664
v 0.348709 0.191105 0.844664
v 0.025000 0.285860 0.025141
v 0.025000 0.286446 0.761104
v 0.031900 0.279546 0.761110
v 0.031900 0.278960 0.025146
v 0.278562 0.462951 0.025000
v 0.278562 0.463537 0.760963
v 0.278562 0.452038 0.760972
v 0.278562 0.451451 0.025009
v 0.532125 0.285860 0.025141
v 0.532125 0.286446 0.761104
v 0.525225 0.279546 0.761110
v 0.525225 0.278960 0.025146
v 0.028450 0.283853 0.393124
v 0.528675 0.283853 0.393124
v 0.063223 0.025219 0.048387
v 0.062673 0.025219 0.738352
v 0.493902 0.025219 0.738696
v 0.494451 0.025219 0.048730
v 0.063223 0.082716 0.048387
v 0.062673 0.082716 0.738352
v 0.493902 0.082716 0.738696
v 0.494451 0.082716 0.048730
v 0.094380 0.062081 0.735994
v 0.092464 0.062081 0.735994
v 0.092464 0.062081 0.919985
v 0.094380 0.062081 0.919985
v 0.094380 0.096579 0.735994
v 0.092464 0.096579 0.735994
v 0.092464 0.096579 0.919985
v 0.094380 0.096579 0.919985
v 0.462361 0.062081 0.735994
v 0.460445 0.062081 0.735994
v 0.460445 0.062081 0.919985
v 0.462361 0.062081 0.919985
v 0.462361 0.096579 0.735994
v 0.460445 0.096579 0.735994
v 0.460445 0.096579 0.919985
v 0.462361 0.096579 0.919985
v 0.555986 0.025000 0.840351
v 0.553111 0.025000 0.840351
v 0.553111 0.025000 0.843226
v 0.555986 0.025000 0.843226
v 0.555986 0.105496 0.840351
v 0.553111 0.105496 0.840351
v 0.553111 0.105496 0.843226
v 0.555986 0.105496 0.843226
v 0.601984 0.025000 0.840351
v 0.599109 0.025000 0.840351
v 0.599109 0.025000 0.843226
v 0.601984 0.025000 0.843226
v 0.601984 0.105496 0.840351
v 0.599109 0.105496 0.840351
v 0.599109 0.105496 0.843226
v 0.601984 0.105496 0.843226
v 0.544659 0.102904 0.839465
v 0.544659 0.102909 0.845215
v 0.548109 0.099689 0.845218
v 0.548109 0.099684 0.839468
v 0.576397 0.124983 0.839448
v 0.576397 0.124987 0.845197
v 0.576397 0.119238 0.845202
v 0.576397 0.119233 0.839452
v 0.608136 0.102904 0.839465
v 0.608136 0.102909 0.845215
v 0.604686 0.099689 0.845218
v 0.604686 0.099684 0.839468
v 0.546384 0.101296 0.842342
v 0.606411 0.101296 0.842342
v 0.553380 0.105779 0.841031
v 0.553417 0.052881 0.840247
v 0.576366 0.123274 0.841035
v 0.576416 0.052897 0.840263
v 0.599378 0.105811 0.841063
v 0.599415 0.052913 0.840279
v 0.059777 0.075535 0.043784
v 0.059220 0.075535 0.742949
v 0.497348 0.075535 0.743298
v 0.497905 0.075535 0.044133
v 0.059777 0.305524 0.043784
v 0.059220 0.305524 0.742949
v 0.497348 0.305524 0.743298
v 0.497905 0.305524 0.044133
v 0.497626 0.301039 0.041471
v 0.278562 0.457431 0.041347
v 0.059498 0.301039 0.041471
v 0.497626 0.301598 0.742936
v 0.278562 0.457990 0.742811
v 0.059498 0.301598 0.742936
vn -0.0007 0.0007 1.0000
vn -0.0007 1.0000 -0.0007
vn -0.0007 0.0008 1.0000
vn -0.0007 0.9997 -0.0240
vn -1.0000 -0.0007 -0.0007
vn -1.0000 -0.0013 -0.0006
vn -1.0000 -0.0006 -0.0007
vn -1.0000 -0.0005 -0.0007
vn 1.0000 0.0007 0.0007
vn 1.0000 0.0013 0.0006
vn 1.0000 -0.0021 0.0004
vn -0.0000 -0.0000 -1.0000
vn -1.0000 -0.0000 -0.0000
vn -0.0000 -0.0000 1.0000
vn 1.0000 -0.0000 -0.0000
vn -0.0000 -1.0000 -0.0000
vn -0.0000 1.0000 -0.0000
vn -0.0000 0.2425 0.9701
vn 0.9701 0.2425 -0.0000
vn -0.0000 0.2425 -0.9701
vn -0.9701 0.2425 -0.0000
vn -0.0025 0.0025 1.0000
vn -0.0007 0.0005 1.0000
vn -0.0007 0.0006 1.0000
vn -1.0000 -0.0008 -0.0007
vn -0.9999 -0.0146 -0.0092
vn 1.0000 0.0008 0.0007
vn 1.0000 0.0006 0.0007
vn 1.0000 -0.0000 0.0004
vn 1.0000 0.0008 0.0008
vn -0.9100 -0.0434 0.4122
vn -0.0000 -0.1048 0.9945
vn 0.9100 -0.0434 0.4122
vn -0.0000 0.9834 0.1815
vn -0.5726 0.8198 -0.0007
vn -0.0000 0.0008 1.0000
vn -0.0000 -0.0008 -1.0000
vn 0.5726 0.8198 -0.0007
vn -0.5547 -0.8320 0.0007
vn -0.7071 -0.7071 -0.0016
vn -0.8000 -0.6000 0.0005
vn -0.7071 -0.7071 0.0028
vn 0.5547 -0.8320 0.0007
vn 0.7071 -0.7071 -0.0016
vn 0.8000 -0.6000 0.0005
vn 0.7071 -0.7071 0.0028
vn -1.0000 -0.0000 -0.0008
vn -0.0008 -0.0000 1.0000
vn 1.0000 -0.0000 0.0008
vn 0.0008 -0.0000 -1.0000
vn -0.5711 0.8209 -0.0006
vn -0.5710 0.8209 -0.0007
vn -0.0000 0.0009 1.0000
vn -0.0001 -0.0007 -1.0000
vn 0.0001 -0.0009 -1.0000
vn 0.5711 0.8209 -0.0007
vn 0.5710 0.8209 -0.0006
vn 0.0001 0.0009 1.0000
vn -0.0000 -0.0009 -1.0000
vn -0.0000 -0.0007 -1.0000
vn -0.6824 -0.7309 0.0006
vn -0.6823 -0.7310 0.0008
vn -0.6822 -0.7312 0.0006
vn -0.6824 -0.7310 0.0005
vn 0.6824 -0.7310 0.0006
vn 0.6823 -0.7310 0.0008
vn 0.6822 -0.7311 0.0006
vn 0.6824 -0.7310 0.0005
vn -0.0007 -0.0148 0.9999
vn 0.0082 -0.0110 0.9999
vn -0.0007 -0.0110 0.9999
vn -0.0125 -0.0148 0.9998
vn 0.0009 -0.8519 -0.5237
vn 0.0010 -0.8519 -0.5237
vn 0.0025 -0.0025 -1.0000
vn -0.0000 -0.9416 -0.3369
vn -0.0000 -1.0000 0.0008
vn -0.0000 -1.0000 0.0009
vn 0.0007 0.0127 -0.9999
vn 0.0011 -0.8519 -0.5237
vn -0.0000 -0.9415 -0.3369
vn -0.0001 -0.9415 -0.3369
vn -0.0000 -1.0000 0.0007
vn -0.0001 -1.0000 0.0008
vn -0.0001 -1.0000 0.0009
vn 0.0007 0.0126 -0.9999
s 0
f 1//1 2//1 14//1
f 1//1 14//1 13//1
f 2//2 3//2 15//2
f 2//2 15//2 14//2
f 3//1 4//1 16//1
f 3//1 16//1 15//1
f 4//2 5//2 17//2
f 4//2 17//2 16//2
f 5//3 6//3 18//3
f 5//3 18//3 17//3
f 6//2 7//2 19//2
f 6//2 19//2 18//2
f 7//1 8//1 20//1
f 7//1 20//1 19//1
f 8//2 9//2 21//2
f 8//2 21//2 20//2
f 9//1 10//1 22//1
f 9//1 22//1 21//1
f 12//4 1//4 13//4
f 12//4 13//4 24//4
f 12//5 2//5 1//5
f 11//5 2//5 12//5
f 9//5 11//5 10//5
f 8//6 11//6 9//6
f 6//5 8//5 7//5
f 6//5 11//5 8//5
f 6//5 2//5 11//5
f 4//7 6//7 5//7
f 4//8 2//8 6//8
f 4//5 3//5 2//5
f 24//9 13//9 14//9
f 23//9 24//9 14//9
f 21//9 22//9 23//9
f 20//10 21//10 23//10
f 18//9 19//9 20//9
f 18//9 20//9 23//9
f 18//9 23//9 14//9
f 16//9 17//9 18//9
f 16//11 18//11 14//11
f 16//9 14//9 15//9
f 25//12 26//12 30//12
f 25//12 30//12 29//12
f 26//13 27//13 31//13
f 26//13 31//13 30//13
f 27//14 28//14 32//14
f 27//14 32//14 31//14
f 28//15 25//15 29//15
f 28//15 29//15 32//15
f 33//12 34//12 38//12
f 33//12 38//12 37//12
f 34//13 35//13 39//13
f 34//13 39//13 38//13
f 35//14 36//14 40//14
f 35//14 40//14 39//14
f 36//15 33//15 37//15
f 36//15 37//15 40//15
f 35//16 33//16 36//16
f 34//16 33//16 35//16
f 41//12 42//12 46//12
f 41//12 46//12 45//12
f 42//13 43//13 47//13
f 42//13 47//13 46//13
f 43//14 44//14 48//14
f 43//14 48//14 47//14
f 44//15 41//15 45//15
f 44//15 45//15 48//15
f 43//16 41//16 44//16
f 42//16 41//16 43//16
f 47//17 48//17 45//17
f 46//17 47//17 45//17
f 49//18 50//18 51//18
f 49//19 51//19 52//19
f 49//20 52//20 53//20
f 49//21 53//21 50//21
f 50//16 54//16 51//16
f 51//16 54//16 52//16
f 52//16 54//16 53//16
f 53//16 54//16 50//16
f 55//22 56//22 58//22
f 55//22 58//22 57//22
f 59//22 60//22 62//22
f 59//22 62//22 61//22
f 63//22 64//22 66//22
f 63//22 66//22 65//22
f 67//22 68//22 70//22
f 67//22 70//22 69//22
f 71//15 74//15 72//15
f 71//15 73//15 74//15
f 75//15 78//15 76//15
f 75//15 77//15 78//15
f 79//15 82//15 80//15
f 79//15 81//15 82//15
f 83//15 86//15 84//15
f 83//15 85//15 86//15
f 88//15 87//15 90//15
f 90//15 87//15 89//15
f 92//15 91//15 94//15
f 94//15 91//15 93//15
f 96//15 95//15 98//15
f 98//15 95//15 97//15
f 100//15 99//15 102//15
f 102//15 99//15 101//15
f 103//1 104//1 116//1
f 103//23 116//23 115//23
f 104//2 105//2 117//2
f 104//2 117//2 116//2
f 105//1 106//1 118//1
f 105//1 118//1 117//1
f 106//2 107//2 119//2
f 106//2 119//2 118//2
f 107//3 108//3 120//3
f 107//24 120//24 119//24
f 108//2 109//2 121//2
f 108//2 121//2 120//2
f 109//3 110//3 122//3
f 109//3 122//3 121//3
f 110//2 111//2 123//2
f 110//2 123//2 122//2
f 111//1 112//1 124//1
f 111//1 124//1 123//1
f 114//4 103//4 115//4
f 114//4 115//4 126//4
f 114//5 104//5 103//5
f 113//5 104//5 114//5
f 111//5 113//5 112//5
f 110//7 113//7 111//7
f 108//5 110//5 109//5
f 108//5 113//5 110//5
f 108//5 104//5 113//5
f 106//25 108//25 107//25
f 106//26 104//26 108//26
f 106//5 105//5 104//5
f 126//9 115//9 116//9
f 125//9 126//9 116//9
f 123//27 124//27 125//27
f 122//27 123//27 125//27
f 120//9 121//9 122//9
f 120//9 122//9 125//9
f 120//9 125//9 116//9
f 118//28 119//28 120//28
f 118//29 120//29 116//29
f 118//30 116//30 117//30
f 127//12 128//12 132//12
f 127//12 132//12 131//12
f 128//13 129//13 133//13
f 128//13 133//13 132//13
f 129//14 130//14 134//14
f 129//14 134//14 133//14
f 130//15 127//15 131//15
f 130//15 131//15 134//15
f 133//17 134//17 131//17
f 133//17 131//17 132//17
f 136//31 137//31 141//31
f 136//31 141//31 140//31
f 137//32 138//32 142//32
f 137//32 142//32 141//32
f 138//33 135//33 139//33
f 138//33 139//33 142//33
f 141//34 142//34 139//34
f 141//34 139//34 140//34
f 143//12 144//12 148//12
f 143//12 148//12 147//12
f 144//13 145//13 149//13
f 144//13 149//13 148//13
f 145//14 146//14 150//14
f 145//14 150//14 149//14
f 146//15 143//15 147//15
f 146//15 147//15 150//15
f 151//12 152//12 156//12
f 151//12 156//12 155//12
f 152//13 153//13 157//13
f 152//13 157//13 156//13
f 153//14 154//14 158//14
f 153//14 158//14 157//14
f 154//15 151//15 155//15
f 154//15 155//15 158//15
f 159//35 164//35 163//35
f 159//35 160//35 164//35
f 160//36 165//36 164//36
f 160//36 161//36 165//36
f 162//37 163//37 166//37
f 162//37 159//37 163//37
f 163//38 168//38 167//38
f 163//38 164//38 168//38
f 164//36 169//36 168//36
f 164//36 165//36 169//36
f 166//37 167//37 170//37
f 166//37 163//37 167//37
f 171//39 160//39 159//39
f 171//40 161//40 160//40
f 171//41 162//41 161//41
f 171//42 159//42 162//42
f 172//43 167//43 168//43
f 172//44 168//44 169//44
f 172//45 169//45 170//45
f 172//46 170//46 167//46
f 173//47 174//47 178//47
f 173//47 178//47 177//47
f 174//48 175//48 179//48
f 174//48 179//48 178//48
f 175//49 176//49 180//49
f 175//49 180//49 179//49
f 176//50 173//50 177//50
f 176//50 177//50 180//50
f 181//12 182//12 186//12
f 181//12 186//12 185//12
f 182//13 183//13 187//13
f 182//13 187//13 186//13
f 183//14 184//14 188//14
f 183//14 188//14 187//14
f 184//15 181//15 185//15
f 184//15 185//15 188//15
f 187//17 188//17 185//17
f 186//17 187//17 185//17
f 189//12 190//12 194//12
f 189//12 194//12 193//12
f 190//13 191//13 195//13
f 190//13 195//13 194//13
f 191//14 192//14 196//14
f 191//14 196//14 195//14
f 192//15 189//15 193//15
f 192//15 193//15 196//15
f 195//17 196//17 193//17
f 194//17 195//17 193//17
f 197//12 198//12 202//12
f 197//12 202//12 201//12
f 198//13 199//13 203//13
f 198//13 203//13 202//13
f 199//14 200//14 204//14
f 199//14 204//14 203//14
f 200//15 197//15 201//15
f 200//15 201//15 204//15
f 205//12 206//12 210//12
f 205//12 210//12 209//12
f 206//13 207//13 211//13
f 206//13 211//13 210//13
f 207//14 208//14 212//14
f 207//14 212//14 211//14
f 208//15 205//15 209//15
f 208//15 209//15 212//15
f 213//51 218//51 217//51
f 213//52 214//52 218//52
f 214//53 219//53 218//53
f 214//53 215//53 219//53
f 216//54 217//54 220//54
f 216//55 213//55 217//55
f 217//56 222//56 221//56
f 217//57 218//57 222//57
f 218//58 223//58 222//58
f 218//53 219//53 223//53
f 220//59 221//59 224//59
f 220//60 217//60 221//60
f 225//61 214//61 213//61
f 225//62 215//62 214//62
f 225//63 216//63 215//63
f 225//64 213//64 216//64
f 226//65 221//65 222//65
f 226//66 222//66 223//66
f 226//67 223//67 224//67
f 226//68 224//68 221//68
f 227//69 228//69 230//69
f 227//70 230//70 229//70
f 229//71 230//71 232//71
f 229//72 232//72 231//72
f 233//47 234//47 238//47
f 233//47 238//47 237//47
f 234//48 235//48 239//48
f 234//48 239//48 238//48
f 235//49 236//49 240//49
f 235//49 240//49 239//49
f 236//50 233//50 237//50
f 236//50 237//50 240//50
f 242//37 241//37 243//37
f 245//37 244//37 246//37
f 23//73 22//74 11//74
f 28//16 26//16 25//16
f 29//17 31//17 32//17
f 37//17 39//17 40//17
f 65//75 64//75 63//75
f 69//75 68//75 67//75
f 125//73 124//74 113//74
f 130//16 128//16 127//16
f 135//76 138//76 137//76
f 146//16 144//16 143//16
f 147//17 149//17 150//17
f 154//16 152//16 151//16
f 155//17 157//17 158//17
f 166//77 169//77 165//77
f 176//16 174//16 173//16
f 180//17 178//17 179//17
f 184//16 182//16 181//16
f 192//16 190//16 189//16
f 200//16 198//16 197//16
f 201//17 203//17 204//17
f 208//16 206//16 205//16
f 209//17 211//17 212//17
f 220//78 223//78 219//78
f 231//79 232//79 230//79
f 236//16 234//16 233//16
f 237//17 239//17 240//17
f 22//74 10//74 11//74
f 11//73 12//74 24//80
f 24//74 23//73 11//74
f 28//16 27//16 26//16
f 29//17 30//17 31//17
f 37//17 38//17 39//17
f 65//75 66//75 64//75
f 69//75 70//75 68//75
f 124//74 112//74 113//73
f 113//74 114//74 126//74
f 126//74 125//73 113//73
f 130//16 129//16 128//16
f 137//76 136//76 135//76
f 136//81 140//81 135//82
f 140//81 139//81 135//82
f 146//16 145//16 144//16
f 147//17 148//17 149//17
f 154//16 153//16 152//16
f 155//17 156//17 157//17
f 165//77 161//77 162//83
f 166//77 170//77 169//78
f 165//77 162//77 166//77
f 176//16 175//16 174//16
f 180//17 177//17 178//17
f 184//16 183//16 182//16
f 192//16 191//16 190//16
f 200//16 199//16 198//16
f 201//17 202//17 203//17
f 208//16 207//16 206//16
f 209//17 210//17 211//17
f 219//78 215//78 220//77
f 215//84 216//85 220//78
f 220//78 224//78 223//78
f 227//86 229//86 231//86
f 230//79 227//79 231//79
f 236//16 235//16 234//16
f 237//17 238//17 239//17
