# Created by Open3D 
# object name: D00276
# number of vertices: 93
# number of triangles: 182
v -0.231578 0.524726 -0.055344
vn -0.267832 0.623651 -0.734388
v -0.268058 0.540347 0.009482
vn -0.545575 0.798878 -0.253261
v -0.134199 0.483813 0.034403
vn 0.392369 0.919808 -0.000844571
v -0.164311 0.496007 -0.082238
vn 0.213421 0.435624 -0.874462
v -0.070511 0.45601 -0.064749
vn 0.603562 0.253936 -0.755797
v -0.015305 0.432506 -0.015022
vn 0.924517 0.128385 -0.358868
v -0.000731 0.426357 0.059324
vn 0.959412 0.131904 0.24926
v -0.040391 0.443354 0.144336
vn 0.699245 0.245349 0.671461
v -0.109928 0.473054 0.185647
vn 0.216821 0.458075 0.862065
v -0.203728 0.513051 0.168159
vn -0.242734 0.655689 0.714949
v -0.256664 0.535574 0.104013
vn 0.389556 0.921003 0.000501472
v -0.622352 -0.61996 -0.035389
vn -0.589866 0.122722 -0.798121
v -0.631997 -0.615824 -0.012845
vn -0.929482 0.175089 -0.324665
v -0.548045 -0.324887 -0.025678
vn -0.66443 0.132226 -0.735561
v -0.571834 -0.314694 0.023678
vn -0.94466 0.237777 -0.226006
v -0.604554 -0.627563 -0.047115
vn -0.0145133 -0.0671553 -0.997637
v -0.502213 -0.344461 -0.050378
vn -0.131622 -0.0875629 -0.987425
v -0.585395 -0.635732 -0.043543
vn 0.547716 -0.331149 -0.768341
v -0.451845 -0.365938 -0.040987
vn 0.44849 -0.323047 -0.833365
v -0.572196 -0.641347 -0.026038
vn 0.813482 -0.528835 -0.242034
v -0.416182 -0.381115 -0.001093
vn 0.805721 -0.473476 -0.355857
v -0.569998 -0.642261 -0.001286
vn 0.741162 -0.589419 0.321346
v -0.408842 -0.384196 0.054067
vn 0.829481 -0.510539 0.226521
v -0.579641 -0.638127 0.021259
vn 0.394717 -0.512494 0.762593
v -0.432634 -0.374001 0.103422
vn 0.493817 -0.407831 0.767997
v -0.597441 -0.630523 0.032985
vn -0.148616 -0.3173 0.936608
v -0.478466 -0.354427 0.128121
vn 0.00992755 -0.196099 0.980534
v -0.616601 -0.622353 0.029413
vn -0.683318 -0.0761479 0.726139
v -0.528834 -0.33295 0.11873
vn -0.497742 0.00738326 0.867294
v -0.629797 -0.61674 0.011908
vn -0.966258 0.103824 0.235726
v -0.564497 -0.317773 0.078836
vn -0.91574 0.192566 0.352617
v -0.442495 -0.010304 -0.072359
vn -0.742046 0.188555 -0.643284
v -0.479346 0.005494 0.01263
vn -0.947971 0.288609 -0.134373
v -0.374118 -0.039512 -0.116382
vn -0.254782 -0.0500251 -0.965704
v -0.300332 -0.070975 -0.102625
vn 0.365386 -0.323615 -0.872792
v -0.249322 -0.092674 -0.036343
vn 0.776067 -0.473093 -0.417018
v -0.240566 -0.096323 0.057149
vn 0.86388 -0.485402 0.134523
v -0.277418 -0.080525 0.142136
vn 0.602903 -0.391067 0.695395
v -0.341571 -0.053143 0.159348
vn 0.0372189 -0.157782 0.986772
v -0.415358 -0.02168 0.145591
vn -0.358276 0.0400659 0.932756
v -0.470591 0.001845 0.10612
vn -0.841157 0.242355 0.483444
v -0.411106 0.070145 -0.072893
vn -0.63198 0.361731 -0.685384
v -0.448539 0.086191 0.011986
vn -0.909798 0.374546 -0.178838
v -0.341198 0.040283 -0.116631
vn -0.111089 0.263286 -0.9583
v -0.265521 0.008014 -0.102521
vn 0.465073 -0.0278695 -0.884834
v -0.212977 -0.014339 -0.035954
vn 0.845048 -0.33885 -0.413612
v -0.20364 -0.018236 0.057646
vn 0.892924 -0.421664 0.157752
v -0.241073 -0.00219 0.142525
vn 0.661193 -0.310742 0.682835
v -0.309492 0.027028 0.176804
vn 0.062537 -0.11243 0.99169
v -0.385169 0.059297 0.162694
vn -0.446684 0.0620857 0.892535
v -0.439202 0.082294 0.105585
vn -0.842497 0.296499 0.449763
v -0.375935 0.133625 -0.068149
vn -0.639111 0.0974238 -0.762919
v -0.425565 0.146834 0.011475
vn -0.92575 0.306879 -0.220937
v -0.308909 0.105021 -0.082146
vn -0.121957 -0.121594 -0.985059
v -0.251503 0.080542 -0.071443
vn 0.378471 -0.196806 -0.904449
v -0.192581 0.055442 -0.033964
vn 0.81621 -0.329755 -0.474409
v -0.175767 0.040318 0.058048
vn 0.901181 -0.408831 0.143978
v -0.213669 0.056565 0.14284
vn 0.62741 -0.293339 0.721325
v -0.28331 0.086303 0.17689
vn 0.103233 -0.0242648 0.994361
v -0.360503 0.119219 0.162498
vn -0.413095 0.184548 0.891793
v -0.415758 0.142737 0.105162
vn -0.853732 0.32592 0.4061
v -0.354927 0.21415 -0.082565
vn -0.745991 0.25964 -0.613257
v -0.395057 0.231355 0.010524
vn -0.935241 0.346315 -0.0734099
v -0.276767 0.190767 -0.132446
vn -0.280386 0.0146972 -0.959775
v -0.196676 0.156616 -0.117513
vn 0.326546 -0.269977 -0.905804
v -0.145243 0.12474 -0.04347
vn 0.764748 -0.412148 -0.495273
v -0.135873 0.120837 0.058847
vn 0.893728 -0.445223 0.055021
v -0.174671 0.137465 0.143472
vn 0.697597 -0.352349 0.623866
v -0.246106 0.167965 0.173568
vn 0.154731 -0.0784778 0.984835
v -0.326198 0.202117 0.158635
vn -0.303154 0.139658 0.942652
v -0.384355 0.226875 0.104378
vn -0.768407 0.290035 0.570465
v -0.600998 -0.629043 -0.007065
vn -0.392372 -0.919806 0.000851518
v -0.349247 0.352262 0.009505
vn -0.938889 0.243285 -0.243517
v -0.31125 0.335985 -0.063944
vn -0.612574 0.231653 -0.755705
v -0.234579 0.303236 -0.111346
vn -0.037888 0.132278 -0.990488
v -0.151471 0.267798 -0.095851
vn 0.58382 -0.134444 -0.800674
v -0.093671 0.243208 -0.023378
vn 0.843487 -0.413977 -0.342276
v -0.080305 0.237583 0.059648
vn 0.815729 -0.523633 0.245756
v -0.121253 0.255135 0.15184
vn 0.489763 -0.374401 0.787373
v -0.194065 0.286216 0.174731
vn -0.0660791 -0.135286 0.988601
v -0.277173 0.321654 0.159236
vn -0.492462 -0.0231502 0.870026
v -0.338832 0.347912 0.111274
vn -0.909815 0.203133 0.361904
v -0.361465 0.371556 0.006268
vn -0.912885 0.400531 -0.0788367
v -0.319936 0.353772 -0.068007
vn -0.640842 0.315157 -0.699998
v -0.234614 0.317334 -0.113796
vn -0.129724 0.180933 -0.974903
v -0.140814 0.277337 -0.096307
vn 0.396012 -0.0332475 -0.917643
v -0.074363 0.249059 -0.022221
vn 0.766996 -0.29109 -0.571824
v -0.05792 0.242122 0.062862
vn 0.917945 -0.390049 0.0723813
v -0.102173 0.261084 0.154439
vn 0.704775 -0.28667 0.648933
v -0.187494 0.297522 0.200228
vn 0.195578 -0.143193 0.970178
v -0.281294 0.337519 0.182739
vn -0.353528 0.128026 0.926621
v -0.347745 0.365798 0.108653
vn -0.793926 0.340472 0.503746
v -0.256664 0.535574 0.104014
vn -0.833741 0.458711 0.307344
f 2//2 93//93 11//11
f 93//93 10//10 11//11
f 83//83 93//93 2//2
f 93//93 83//83 92//92
f 92//92 10//10 93//93
f 10//10 92//92 91//91
f 91//91 9//9 10//10
f 9//9 91//91 90//90
f 90//90 8//8 9//9
f 8//8 90//90 89//89
f 89//89 7//7 8//8
f 7//7 89//89 88//88
f 88//88 6//6 7//7
f 6//6 88//88 87//87
f 87//87 5//5 6//6
f 5//5 87//87 86//86
f 86//86 4//4 5//5
f 4//4 86//86 85//85
f 85//85 1//1 4//4
f 1//1 85//85 84//84
f 84//84 2//2 1//1
f 2//2 84//84 83//83
f 73//73 92//92 83//83
f 92//92 73//73 82//82
f 82//82 91//91 92//92
f 91//91 82//82 81//81
f 81//81 90//90 91//91
f 90//90 81//81 80//80
f 80//80 89//89 90//90
f 89//89 80//80 79//79
f 79//79 88//88 89//89
f 88//88 79//79 78//78
f 78//78 87//87 88//88
f 87//87 78//78 77//77
f 77//77 86//86 87//87
f 86//86 77//77 76//76
f 76//76 85//85 86//86
f 85//85 76//76 75//75
f 75//75 84//84 85//85
f 84//84 75//75 74//74
f 74//74 83//83 84//84
f 83//83 74//74 73//73
f 63//63 82//82 73//73
f 82//82 63//63 71//71
f 71//71 81//81 82//82
f 81//81 71//71 70//70
f 70//70 80//80 81//81
f 80//80 70//70 69//69
f 69//69 79//79 80//80
f 79//79 69//69 68//68
f 68//68 78//78 79//79
f 78//78 68//68 67//67
f 67//67 77//77 78//78
f 77//77 67//67 66//66
f 66//66 76//76 77//77
f 76//76 66//66 65//65
f 65//65 75//75 76//76
f 75//75 65//65 64//64
f 64//64 74//74 75//75
f 74//74 64//64 62//62
f 62//62 73//73 74//74
f 73//73 62//62 63//63
f 13//13 72//72 30//30
f 30//30 72//72 28//28
f 28//28 72//72 26//26
f 26//26 72//72 24//24
f 24//24 72//72 22//22
f 22//22 72//72 20//20
f 20//20 72//72 18//18
f 18//18 72//72 16//16
f 16//16 72//72 12//12
f 12//12 72//72 13//13
f 61//61 71//71 63//63
f 61//61 63//63 53//53
f 60//60 70//70 71//71
f 60//60 71//71 61//61
f 59//59 69//69 70//70
f 59//59 70//70 60//60
f 58//58 68//68 69//69
f 58//58 69//69 59//59
f 57//57 67//67 68//68
f 57//57 68//68 58//58
f 56//56 66//66 67//67
f 56//56 67//67 57//57
f 55//55 65//65 66//66
f 55//55 66//66 56//56
f 54//54 64//64 65//65
f 54//54 65//65 55//55
f 52//52 62//62 64//64
f 52//52 64//64 54//54
f 53//53 63//63 62//62
f 53//53 62//62 52//52
f 51//51 61//61 53//53
f 51//51 53//53 43//43
f 50//50 60//60 61//61
f 50//50 61//61 51//51
f 49//49 59//59 60//60
f 49//49 60//60 50//50
f 48//48 58//58 59//59
f 48//48 59//59 49//49
f 47//47 57//57 58//58
f 47//47 58//58 48//48
f 46//46 56//56 57//57
f 46//46 57//57 47//47
f 45//45 55//55 56//56
f 45//45 56//56 46//46
f 44//44 54//54 55//55
f 44//44 55//55 45//45
f 42//42 52//52 54//54
f 42//42 54//54 44//44
f 43//43 53//53 52//52
f 43//43 52//52 42//42
f 41//41 51//51 43//43
f 41//41 43//43 33//33
f 40//40 50//50 51//51
f 40//40 51//51 41//41
f 39//39 49//49 50//50
f 39//39 50//50 40//40
f 38//38 48//48 49//49
f 38//38 49//49 39//39
f 37//37 47//47 48//48
f 37//37 48//48 38//38
f 36//36 46//46 47//47
f 36//36 47//47 37//37
f 35//35 45//45 46//46
f 35//35 46//46 36//36
f 34//34 44//44 45//45
f 34//34 45//45 35//35
f 32//32 42//42 44//44
f 32//32 44//44 34//34
f 33//33 43//43 42//42
f 33//33 42//42 32//32
f 31//31 41//41 33//33
f 31//31 33//33 15//15
f 29//29 40//40 41//41
f 29//29 41//41 31//31
f 27//27 39//39 40//40
f 27//27 40//40 29//29
f 25//25 38//38 39//39
f 25//25 39//39 27//27
f 23//23 37//37 38//38
f 23//23 38//38 25//25
f 21//21 36//36 37//37
f 21//21 37//37 23//23
f 19//19 35//35 36//36
f 19//19 36//36 21//21
f 17//17 34//34 35//35
f 17//17 35//35 19//19
f 14//14 32//32 34//34
f 14//14 34//34 17//17
f 15//15 33//33 32//32
f 15//15 32//32 14//14
f 30//30 31//31 15//15
f 30//30 15//15 13//13
f 28//28 29//29 31//31
f 28//28 31//31 30//30
f 26//26 27//27 29//29
f 26//26 29//29 28//28
f 24//24 25//25 27//27
f 24//24 27//27 26//26
f 22//22 23//23 25//25
f 22//22 25//25 24//24
f 20//20 21//21 23//23
f 20//20 23//23 22//22
f 18//18 19//19 21//21
f 18//18 21//21 20//20
f 16//16 17//17 19//19
f 16//16 19//19 18//18
f 12//12 14//14 17//17
f 12//12 17//17 16//16
f 13//13 15//15 14//14
f 13//13 14//14 12//12
f 11//11 3//3 2//2
f 10//10 3//3 11//11
f 9//9 3//3 10//10
f 8//8 3//3 9//9
f 7//7 3//3 8//8
f 6//6 3//3 7//7
f 5//5 3//3 6//6
f 4//4 3//3 5//5
f 1//1 3//3 4//4
f 2//2 3//3 1//1
