# Created by Open3D 
# object name: D00006
# number of vertices: 11
# number of triangles: 18
v 0.927425 -0.216326 0.150254
vn -0.0427054 0.967387 -0.249677
v 0.912385 -0.209636 0.16506
vn 0.261211 0.910471 -0.320643
v 0.926008 -0.203954 0.18423
vn -0.0294647 0.902617 -0.429436
v 0.913263 -0.212909 0.148419
vn 0.729 0.173079 0.662271
v 0.927646 -0.213863 0.149366
vn -0.176721 -0.898196 0.402509
v 0.912504 -0.206275 0.166639
vn 0.0951615 -0.93409 0.344123
v 0.926887 -0.207228 0.167586
vn -0.0843748 -0.937423 0.337814
v 0.92623 -0.201491 0.183343
vn -0.278307 -0.945109 0.171213
v 0.92699 -0.208126 0.165119
vn -0.628791 -0.738697 0.242793
v 0.912607 -0.207173 0.164173
vn 0.00614264 -0.939544 0.342374
v 0.911847 -0.200537 0.182396
vn 0.337879 -0.941037 0.016952
f 5//5 4//4 1//1
f 4//4 2//2 1//1
f 2//2 3//3 1//1
f 2//2 11//11 3//3
f 2//2 6//6 11//11
f 2//2 10//10 6//6
f 7//7 9//9 8//8
f 7//7 10//10 9//9
f 7//7 6//6 10//10
f 9//9 3//3 8//8
f 9//9 1//1 3//3
f 10//10 5//5 9//9
f 5//5 10//10 4//4
f 11//11 7//7 8//8
f 7//7 11//11 6//6
f 3//3 11//11 8//8
f 2//2 4//4 10//10
f 1//1 9//9 5//5
