# Created by Open3D 
# object name: m1099
# number of vertices: 160
# number of triangles: 316
v 0.039205 0.271225 0.059509
vn 0.946989 -0.0512301 0.317155
v 0.039205 0.271225 0.073313
vn 0.748083 -0.0344701 -0.66271
v 0.025 0.025 0.062469
vn 0.984817 -0.041441 0.168575
v 0.028867 0.025 0.066497
vn -0.889776 0.0852726 -0.44836
v 0.025 0.025 0.077457
vn 0.721332 -0.011116 -0.692501
v 0.049061 0.271225 0.070967
vn -0.780969 0.0760351 -0.619925
v 0.049061 0.271225 0.060752
vn -0.924242 0.0731263 -0.37474
v 0.039507 0.025 0.044956
vn -0.787714 0.0760927 -0.611324
v 0.032318 0.025 0.055936
vn -0.893428 0.0838986 -0.441302
v 0.055553 0.271225 0.050537
vn -0.714274 0.0657152 -0.696774
v 0.050866 0.025 0.033886
vn -0.537332 0.0702354 -0.840441
v 0.068535 0.271225 0.040322
vn -0.434859 0.0546817 -0.898837
v 0.068263 0.025 0.028486
vn -0.0345597 0.0433468 -0.998462
v 0.081518 0.271225 0.035215
vn -0.0102073 0.0293558 -0.999517
v 0.34144 0.025 0.028486
vn 0.0193439 0.0433819 -0.998871
v 0.328185 0.271225 0.035215
vn 0.0195203 0.0336474 -0.999243
v 0.341167 0.271225 0.040322
vn 0.460961 0.0517296 -0.885911
v 0.35415 0.271225 0.050537
vn 0.680761 0.0612534 -0.72994
v 0.355818 0.025 0.033976
vn 0.537332 0.070237 -0.840441
v 0.360641 0.271225 0.060752
vn 0.924074 0.0730942 -0.37516
v 0.370195 0.025 0.044956
vn 0.751323 0.079218 -0.655163
v 0.380835 0.025 0.066497
vn 0.890236 0.0788783 -0.448618
v 0.377384 0.025 0.055936
vn 0.893403 0.0842294 -0.441289
v 0.360641 0.271225 0.070967
vn 0.78197 0.0758691 -0.618682
v 0.370497 0.271225 0.073313
vn -0.748027 -0.0345782 -0.662767
v 0.384703 0.025 0.062469
vn -0.985108 -0.0335779 0.168625
v 0.384703 0.025 0.077457
vn -0.721241 -0.0111096 -0.692595
v 0.370497 0.271225 0.059509
vn -0.946802 -0.0511051 0.317733
v 0.377209 0.025 0.047481
vn -0.830179 -0.0176018 0.55722
v 0.363595 0.271225 0.045706
vn -0.767508 -0.0392408 0.639837
v 0.362221 0.025 0.032494
vn -0.637973 -0.0223383 0.769735
v 0.349791 0.271225 0.031902
vn -0.555428 -0.0291549 0.831053
v 0.347234 0.025 0.025
vn -0.0458592 0.0142455 0.998846
v 0.335988 0.271225 0.025
vn -0.0128531 -0.00541225 0.999903
v 0.062469 0.025 0.025
vn 0.0249902 0.0140498 0.999589
v 0.073715 0.271225 0.025
vn 0.0261343 -0.00647908 0.999637
v 0.059911 0.271225 0.031902
vn 0.555749 -0.0295121 0.830826
v 0.046107 0.271225 0.045706
vn 0.767755 -0.0394989 0.639525
v 0.047481 0.025 0.032494
vn 0.637973 -0.0223357 0.769735
v 0.032494 0.025 0.047481
vn 0.830215 -0.0156117 0.557225
v 0.039597 0.277855 0.060052
vn 0.95755 -0.0948149 0.272228
v 0.039418 0.274825 0.073591
vn 0.831356 0.0267438 -0.555096
v 0.049288 0.275309 0.071285
vn -0.831205 0.155732 -0.533709
v 0.049413 0.277552 0.061267
vn -0.939072 0.0987225 -0.329237
v 0.056009 0.279774 0.051263
vn -0.711704 0.149695 -0.686345
v 0.06906 0.281976 0.041273
vn -0.500925 0.176325 -0.847339
v 0.082042 0.283056 0.036281
vn -0.0192969 0.156225 -0.987533
v 0.327725 0.282283 0.036212
vn 0.0190979 0.214495 -0.976538
v 0.340711 0.281121 0.041197
vn 0.500468 0.173183 -0.848257
v 0.353764 0.278837 0.051184
vn 0.710586 0.145575 -0.688387
v 0.360358 0.276575 0.061188
vn 0.937224 0.0944331 -0.3357
v 0.360477 0.274332 0.071209
vn 0.845534 0.147861 -0.513039
v 0.370353 0.273786 0.073511
vn -0.848606 0.0247283 -0.528447
v 0.370182 0.276817 0.059967
vn -0.955956 -0.0905493 0.279192
v 0.363129 0.279868 0.046454
vn -0.78581 -0.138139 0.602844
v 0.349216 0.282942 0.032972
vn -0.590013 -0.169978 0.789299
v 0.335399 0.284501 0.026243
vn -0.024109 -0.21755 0.975751
v 0.074378 0.285323 0.02632
vn 0.0243934 -0.159541 0.98689
v 0.060566 0.283851 0.033054
vn 0.590497 -0.17353 0.788163
v 0.046653 0.280864 0.04654
vn 0.786819 -0.142527 0.600501
v 0.03999 0.284212 0.061812
vn 0.955463 -0.14644 0.256215
v 0.039631 0.278276 0.074532
vn 0.838482 0.127319 -0.529847
v 0.049517 0.279225 0.072356
vn -0.830044 0.254783 -0.496096
v 0.049767 0.283617 0.062944
vn -0.937067 0.160696 -0.309971
v 0.056468 0.28797 0.053554
vn -0.711654 0.275866 -0.646101
v 0.069592 0.292282 0.044185
vn -0.502499 0.331518 -0.798493
v 0.082575 0.294399 0.039503
vn -0.018694 0.337541 -0.941125
v 0.327313 0.292884 0.039225
vn 0.020326 0.393431 -0.919129
v 0.340299 0.290608 0.04388
vn 0.503364 0.326159 -0.800154
v 0.353415 0.286135 0.053225
vn 0.711525 0.268644 -0.649279
v 0.360101 0.281703 0.062607
vn 0.93576 0.152843 -0.317794
v 0.360327 0.277311 0.072024
vn 0.845126 0.238953 -0.478187
v 0.370221 0.276241 0.074181
vn -0.854964 0.124933 -0.503417
v 0.369895 0.282177 0.061453
vn -0.954367 -0.138593 0.264528
v 0.362705 0.288155 0.048784
vn -0.78564 -0.244931 0.568136
v 0.348695 0.294176 0.036176
vn -0.592139 -0.311004 0.743402
v 0.33487 0.297228 0.0299
vn -0.0253914 -0.395326 0.91819
v 0.075051 0.298839 0.030201
vn 0.0238363 -0.339895 0.940161
v 0.061226 0.295956 0.036505
vn 0.591421 -0.317171 0.741366
v 0.047202 0.290105 0.049136
vn 0.785776 -0.25274 0.564516
v 0.040368 0.290032 0.064709
vn 0.953849 -0.193816 0.229365
v 0.039837 0.281436 0.076096
vn 0.846937 0.22215 -0.483061
v 0.049738 0.28281 0.074132
vn -0.829949 0.345228 -0.43818
v 0.050109 0.289171 0.065707
vn -0.935666 0.217672 -0.277755
v 0.056913 0.295474 0.057303
vn -0.713386 0.392588 -0.580478
v 0.070108 0.301719 0.04892
vn -0.505912 0.476342 -0.719132
v 0.083097 0.304784 0.044726
vn -0.0127709 0.534752 -0.844913
v 0.326966 0.302589 0.044111
vn 0.0314342 0.535917 -0.843685
v 0.33995 0.299294 0.048243
vn 0.508952 0.468782 -0.72195
v 0.353116 0.292817 0.056568
vn 0.714844 0.382455 -0.585428
v 0.35988 0.286399 0.064946
vn 0.935168 0.206627 -0.28769
v 0.360199 0.280038 0.073377
vn 0.846127 0.322067 -0.424667
v 0.370108 0.278489 0.075295
vn -0.862024 0.219681 -0.456788
v 0.369648 0.287085 0.063899
vn -0.953461 -0.182845 0.239748
v 0.36234 0.295742 0.052587
vn -0.78762 -0.343178 0.511746
v 0.34825 0.30446 0.041361
vn -0.597131 -0.441599 0.669646
v 0.334422 0.308881 0.035791
vn -0.0390424 -0.536867 0.842763
v 0.075705 0.311214 0.03645
vn 0.0167911 -0.535695 0.844245
v 0.061866 0.307039 0.042085
vn 0.594511 -0.450246 0.66621
v 0.047731 0.298566 0.053372
vn 0.786398 -0.354134 0.50613
v 0.040716 0.295075 0.068618
vn 0.952627 -0.2353 0.192705
v 0.040025 0.284174 0.078216
vn 0.855992 0.307264 -0.415772
v 0.049941 0.285916 0.076538
vn -0.830314 0.423831 -0.361866
v 0.050424 0.293983 0.069437
vn -0.93473 0.267619 -0.233794
v 0.057324 0.301976 0.062348
vn -0.716252 0.496026 -0.490858
v 0.070588 0.309895 0.055271
vn -0.510487 0.606168 -0.609887
v 0.083584 0.313782 0.051719
vn -0.0155372 0.713339 -0.700647
v 0.326699 0.311 0.050655
vn 0.0238713 0.666396 -0.745216
v 0.339677 0.30682 0.054097
vn 0.516479 0.596513 -0.614346
v 0.35288 0.298607 0.061067
vn 0.719888 0.483218 -0.498259
v 0.359706 0.290467 0.068105
vn 0.935314 0.253803 -0.246518
v 0.360098 0.282401 0.07521
vn 0.848022 0.394114 -0.354305
v 0.370018 0.280437 0.076806
vn -0.869013 0.304632 -0.389892
v 0.36945 0.291337 0.067201
vn -0.95317 -0.221553 0.205865
v 0.362051 0.302316 0.057698
vn -0.791217 -0.42955 0.435274
v 0.347899 0.313372 0.048298
vn -0.604256 -0.557697 0.569077
v 0.334073 0.318978 0.043654
vn -0.0291168 -0.666531 0.744909
v 0.076314 0.321937 0.044789
vn 0.0209611 -0.713308 0.700538
v 0.062457 0.316642 0.049549
vn 0.599024 -0.568738 0.563655
v 0.048219 0.305897 0.059063
vn 0.788163 -0.443271 0.426977
v 0.041018 0.299132 0.073378
vn 0.951671 -0.269283 0.147678
v 0.04019 0.286377 0.080805
vn 0.864644 0.378831 -0.329967
v 0.050119 0.288415 0.079474
vn -0.830563 0.487303 -0.269632
v 0.0507 0.297854 0.07398
vn -0.934034 0.308684 -0.179708
v 0.057685 0.307207 0.068479
vn -0.719281 0.581798 -0.379665
v 0.07101 0.316474 0.062972
vn -0.515056 0.715253 -0.472366
v 0.084016 0.321022 0.060189
vn -0.0133229 0.843238 -0.537376
v 0.326522 0.317766 0.058583
vn 0.0268199 0.804693 -0.593085
v 0.339491 0.312875 0.061197
vn 0.524754 0.703671 -0.479041
v 0.352717 0.303265 0.066536
vn 0.725615 0.566849 -0.390084
v 0.359584 0.293741 0.071954
vn 0.935951 0.292682 -0.195786
v 0.360027 0.284302 0.077448
vn 0.85025 0.452159 -0.269493
v 0.369954 0.282004 0.078651
vn -0.875093 0.376283 -0.30434
v 0.369311 0.294759 0.071224
vn -0.953334 -0.253373 0.164185
v 0.361848 0.307605 0.063905
vn -0.795578 -0.500817 0.340936
v 0.347658 0.320542 0.056696
vn -0.61223 -0.654559 0.443538
v 0.333838 0.327102 0.053161
vn -0.0322202 -0.804218 0.593461
v 0.076852 0.330564 0.054869
vn 0.0188883 -0.842834 0.537842
v 0.062977 0.324369 0.058584
vn 0.603684 -0.667806 0.435432
v 0.048644 0.311796 0.065971
vn 0.790211 -0.516851 0.329291
v 0.041264 0.302036 0.078794
vn 0.896422 -0.419498 -0.143002
v 0.040324 0.287954 0.083757
vn 0.144528 -0.250332 -0.957312
v 0.050265 0.290204 0.082821
vn -0.699154 0.0271936 -0.714454
v 0.050925 0.300625 0.07915
vn -0.785955 0.179273 -0.591722
v 0.057979 0.310952 0.075446
vn -0.449623 0.181744 -0.874534
v 0.071359 0.321183 0.07171
vn -0.355802 0.378303 -0.854571
v 0.084376 0.326205 0.069793
vn -0.0170467 0.224722 -0.974274
v 0.326443 0.32261 0.067574
vn 0.00986861 0.5803 -0.814343
v 0.339401 0.31721 0.069255
vn 0.353019 0.377279 -0.856177
v 0.352632 0.3066 0.072752
vn 0.595363 0.40236 -0.695449
v 0.359519 0.296084 0.076334
vn 0.748108 0.133724 -0.649963
v 0.35999 0.285663 0.079999
vn 0.618881 -0.0474499 -0.78405
v 0.36992 0.283126 0.080755
vn -0.159162 -0.257188 -0.953164
v 0.369235 0.297208 0.075801
vn -0.320919 -0.418896 -0.849434
v 0.361739 0.311391 0.070954
vn -0.7725 -0.625726 0.10822
v 0.347535 0.325675 0.066216
vn -0.528339 -0.831627 -0.171036
v 0.333726 0.332917 0.063926
vn -0.0274882 -0.926029 -0.376449
v 0.077297 0.336739 0.066282
vn 0.0104762 -0.999241 -0.0375219
v 0.063403 0.329899 0.068823
vn 0.0753614 -0.443482 -0.89311
v 0.04899 0.316018 0.073816
vn 0.64126 -0.691189 -0.33323
f 147//147 159//159 157//157
f 157//157 149//149 148//148
f 147//147 146//146 159//159
f 157//157 150//150 149//149
f 146//146 145//145 159//159
f 157//157 153//153 150//150
f 145//145 142//142 159//159
f 157//157 154//154 153//153
f 145//145 144//144 142//142
f 153//153 151//151 150//150
f 157//157 156//156 154//154
f 142//142 160//160 159//159
f 144//144 143//143 142//142
f 153//153 152//152 151//151
f 156//156 155//155 154//154
f 159//159 158//158 157//157
f 142//142 141//141 160//160
f 15//15 33//33 35//35
f 35//35 11//11 13//13
f 15//15 19//19 33//33
f 35//35 40//40 11//11
f 19//19 29//29 33//33
f 40//40 8//8 11//11
f 19//19 21//21 29//29
f 40//40 9//9 8//8
f 21//21 26//26 29//29
f 40//40 4//4 9//9
f 21//21 23//23 26//26
f 40//40 3//3 4//4
f 23//23 22//22 26//26
f 3//3 5//5 4//4
f 35//35 39//39 40//40
f 29//29 31//31 33//33
f 22//22 27//27 26//26
f 141//141 121//121 140//140
f 160//160 140//140 139//139
f 159//159 139//139 138//138
f 157//157 158//158 138//138
f 156//156 157//157 137//137
f 155//155 156//156 136//136
f 154//154 155//155 135//135
f 153//153 154//154 134//134
f 153//153 133//133 132//132
f 152//152 132//132 131//131
f 151//151 131//131 130//130
f 150//150 130//130 129//129
f 149//149 129//129 128//128
f 148//148 128//128 127//127
f 146//146 147//147 127//127
f 145//145 146//146 126//126
f 144//144 145//145 125//125
f 143//143 144//144 124//124
f 142//142 143//143 123//123
f 142//142 122//122 121//121
f 121//121 101//101 120//120
f 140//140 120//120 119//119
f 139//139 119//119 118//118
f 137//137 138//138 118//118
f 136//136 137//137 117//117
f 135//135 136//136 116//116
f 134//134 135//135 115//115
f 133//133 134//134 114//114
f 133//133 113//113 112//112
f 132//132 112//112 111//111
f 131//131 111//111 110//110
f 130//130 110//110 109//109
f 129//129 109//109 108//108
f 128//128 108//108 107//107
f 126//126 127//127 107//107
f 125//125 126//126 106//106
f 124//124 125//125 105//105
f 123//123 124//124 104//104
f 122//122 123//123 103//103
f 122//122 102//102 101//101
f 101//101 81//81 100//100
f 120//120 100//100 99//99
f 119//119 99//99 98//98
f 117//117 118//118 98//98
f 116//116 117//117 97//97
f 115//115 116//116 96//96
f 114//114 115//115 95//95
f 113//113 114//114 94//94
f 113//113 93//93 92//92
f 112//112 92//92 91//91
f 111//111 91//91 90//90
f 110//110 90//90 89//89
f 109//109 89//89 88//88
f 108//108 88//88 87//87
f 106//106 107//107 87//87
f 105//105 106//106 86//86
f 104//104 105//105 85//85
f 103//103 104//104 84//84
f 102//102 103//103 83//83
f 102//102 82//82 81//81
f 81//81 61//61 80//80
f 100//100 80//80 79//79
f 99//99 79//79 78//78
f 98//98 78//78 77//77
f 96//96 97//97 77//77
f 95//95 96//96 76//76
f 94//94 95//95 75//75
f 93//93 94//94 74//74
f 93//93 73//73 72//72
f 92//92 72//72 71//71
f 91//91 71//71 70//70
f 90//90 70//70 69//69
f 89//89 69//69 68//68
f 87//87 88//88 68//68
f 86//86 87//87 67//67
f 85//85 86//86 66//66
f 84//84 85//85 65//65
f 83//83 84//84 64//64
f 82//82 83//83 63//63
f 82//82 62//62 61//61
f 61//61 41//41 60//60
f 80//80 60//60 59//59
f 79//79 59//59 58//58
f 78//78 58//58 57//57
f 76//76 77//77 57//57
f 75//75 76//76 56//56
f 74//74 75//75 55//55
f 73//73 74//74 54//54
f 73//73 53//53 52//52
f 72//72 52//52 51//51
f 71//71 51//51 50//50
f 70//70 50//50 49//49
f 69//69 49//49 48//48
f 67//67 68//68 48//48
f 66//66 67//67 47//47
f 65//65 66//66 46//46
f 64//64 65//65 45//45
f 63//63 64//64 44//44
f 62//62 63//63 43//43
f 62//62 42//42 41//41
f 41//41 1//1 38//38
f 60//60 38//38 37//37
f 59//59 37//37 36//36
f 58//58 36//36 34//34
f 56//56 57//57 34//34
f 55//55 56//56 32//32
f 54//54 55//55 30//30
f 53//53 54//54 28//28
f 53//53 25//25 24//24
f 52//52 24//24 20//20
f 51//51 20//20 18//18
f 50//50 18//18 17//17
f 49//49 17//17 16//16
f 47//47 48//48 16//16
f 46//46 47//47 14//14
f 45//45 46//46 12//12
f 44//44 45//45 10//10
f 43//43 44//44 7//7
f 42//42 43//43 6//6
f 42//42 2//2 1//1
f 1//1 3//3 40//40
f 38//38 40//40 39//39
f 37//37 39//39 35//35
f 34//34 36//36 35//35
f 32//32 34//34 33//33
f 30//30 32//32 31//31
f 28//28 30//30 29//29
f 25//25 28//28 26//26
f 25//25 27//27 22//22
f 20//20 24//24 22//22
f 20//20 23//23 21//21
f 18//18 21//21 19//19
f 17//17 19//19 15//15
f 14//14 16//16 15//15
f 12//12 14//14 13//13
f 10//10 12//12 11//11
f 7//7 10//10 8//8
f 7//7 9//9 4//4
f 2//2 6//6 4//4
f 2//2 5//5 3//3
f 148//148 147//147 157//157
f 15//15 35//35 13//13
f 141//141 140//140 160//160
f 160//160 139//139 159//159
f 159//159 138//138 158//158
f 138//138 137//137 157//157
f 137//137 136//136 156//156
f 136//136 135//135 155//155
f 135//135 134//134 154//154
f 134//134 133//133 153//153
f 153//153 132//132 152//152
f 152//152 131//131 151//151
f 151//151 130//130 150//150
f 150//150 129//129 149//149
f 149//149 128//128 148//148
f 148//148 127//127 147//147
f 127//127 126//126 146//146
f 126//126 125//125 145//145
f 125//125 124//124 144//144
f 124//124 123//123 143//143
f 123//123 122//122 142//142
f 142//142 121//121 141//141
f 121//121 120//120 140//140
f 140//140 119//119 139//139
f 139//139 118//118 138//138
f 118//118 117//117 137//137
f 117//117 116//116 136//136
f 116//116 115//115 135//135
f 115//115 114//114 134//134
f 114//114 113//113 133//133
f 133//133 112//112 132//132
f 132//132 111//111 131//131
f 131//131 110//110 130//130
f 130//130 109//109 129//129
f 129//129 108//108 128//128
f 128//128 107//107 127//127
f 107//107 106//106 126//126
f 106//106 105//105 125//125
f 105//105 104//104 124//124
f 104//104 103//103 123//123
f 103//103 102//102 122//122
f 122//122 101//101 121//121
f 101//101 100//100 120//120
f 120//120 99//99 119//119
f 119//119 98//98 118//118
f 98//98 97//97 117//117
f 97//97 96//96 116//116
f 96//96 95//95 115//115
f 95//95 94//94 114//114
f 94//94 93//93 113//113
f 113//113 92//92 112//112
f 112//112 91//91 111//111
f 111//111 90//90 110//110
f 110//110 89//89 109//109
f 109//109 88//88 108//108
f 108//108 87//87 107//107
f 87//87 86//86 106//106
f 86//86 85//85 105//105
f 85//85 84//84 104//104
f 84//84 83//83 103//103
f 83//83 82//82 102//102
f 102//102 81//81 101//101
f 81//81 80//80 100//100
f 100//100 79//79 99//99
f 99//99 78//78 98//98
f 98//98 77//77 97//97
f 77//77 76//76 96//96
f 76//76 75//75 95//95
f 75//75 74//74 94//94
f 74//74 73//73 93//93
f 93//93 72//72 92//92
f 92//92 71//71 91//91
f 91//91 70//70 90//90
f 90//90 69//69 89//89
f 89//89 68//68 88//88
f 68//68 67//67 87//87
f 67//67 66//66 86//86
f 66//66 65//65 85//85
f 65//65 64//64 84//84
f 64//64 63//63 83//83
f 63//63 62//62 82//82
f 82//82 61//61 81//81
f 61//61 60//60 80//80
f 80//80 59//59 79//79
f 79//79 58//58 78//78
f 78//78 57//57 77//77
f 57//57 56//56 76//76
f 56//56 55//55 75//75
f 55//55 54//54 74//74
f 54//54 53//53 73//73
f 73//73 52//52 72//72
f 72//72 51//51 71//71
f 71//71 50//50 70//70
f 70//70 49//49 69//69
f 69//69 48//48 68//68
f 48//48 47//47 67//67
f 47//47 46//46 66//66
f 46//46 45//45 65//65
f 45//45 44//44 64//64
f 44//44 43//43 63//63
f 43//43 42//42 62//62
f 62//62 41//41 61//61
f 41//41 38//38 60//60
f 60//60 37//37 59//59
f 59//59 36//36 58//58
f 58//58 34//34 57//57
f 34//34 32//32 56//56
f 32//32 30//30 55//55
f 30//30 28//28 54//54
f 28//28 25//25 53//53
f 53//53 24//24 52//52
f 52//52 20//20 51//51
f 51//51 18//18 50//50
f 50//50 17//17 49//49
f 49//49 16//16 48//48
f 16//16 14//14 47//47
f 14//14 12//12 46//46
f 12//12 10//10 45//45
f 10//10 7//7 44//44
f 7//7 6//6 43//43
f 6//6 2//2 42//42
f 42//42 1//1 41//41
f 1//1 40//40 38//38
f 38//38 39//39 37//37
f 37//37 35//35 36//36
f 35//35 33//33 34//34
f 33//33 31//31 32//32
f 31//31 29//29 30//30
f 29//29 26//26 28//28
f 26//26 27//27 25//25
f 25//25 22//22 24//24
f 22//22 23//23 20//20
f 20//20 21//21 18//18
f 18//18 19//19 17//17
f 17//17 15//15 16//16
f 15//15 13//13 14//14
f 13//13 11//11 12//12
f 11//11 8//8 10//10
f 8//8 9//9 7//7
f 7//7 4//4 6//6
f 4//4 5//5 2//2
f 2//2 3//3 1//1
