# Blender 4.2.3 LTS
# www.blender.org
o m844
v 0.975000 0.797306 0.026187
v 0.975000 0.797306 0.204295
v 0.975000 0.826961 0.204295
v 0.975000 0.826961 0.026187
v 0.025094 0.797306 0.026188
v 0.025094 0.797306 0.204296
v 0.025094 0.826961 0.204296
v 0.025094 0.826961 0.026188
v 0.965085 0.789902 0.026187
v 0.965085 0.789902 0.194404
v 0.965085 0.797320 0.194404
v 0.965085 0.797320 0.026187
v 0.035008 0.789902 0.026188
v 0.035009 0.789902 0.194405
v 0.035009 0.797320 0.194405
v 0.035008 0.797320 0.026188
v 0.960158 0.782481 0.026247
v 0.960158 0.782481 0.184525
v 0.960158 0.789899 0.184525
v 0.960158 0.789899 0.026247
v 0.039936 0.782481 0.026248
v 0.039936 0.782481 0.184526
v 0.039936 0.789899 0.184526
v 0.039936 0.789899 0.026248
v 0.025063 0.055789 0.026188
v 0.025063 0.055789 0.204296
v 0.025000 0.026135 0.204296
v 0.025000 0.026135 0.026188
v 0.974968 0.054655 0.026187
v 0.974968 0.054655 0.204295
v 0.974905 0.025000 0.204295
v 0.974905 0.025000 0.026187
v 0.034993 0.063183 0.026188
v 0.034993 0.063183 0.194405
v 0.034978 0.055764 0.194405
v 0.034978 0.055764 0.026188
v 0.965069 0.062072 0.026187
v 0.965069 0.062072 0.194404
v 0.965053 0.054653 0.194404
v 0.965053 0.054653 0.026187
v 0.039937 0.070597 0.026248
v 0.039937 0.070597 0.184526
v 0.039921 0.063179 0.184526
v 0.039921 0.063179 0.026248
v 0.960157 0.069498 0.026247
v 0.960157 0.069498 0.184525
v 0.960141 0.062080 0.184525
v 0.960141 0.062080 0.026247
v 0.945315 0.070050 0.025000
v 0.945315 0.070050 0.027375
v 0.945315 0.782479 0.027375
v 0.945315 0.782479 0.025000
v 0.054778 0.070050 0.025001
v 0.054778 0.070050 0.027376
v 0.054778 0.782479 0.027376
v 0.054778 0.782479 0.025001
v 0.940370 0.090458 0.026187
v 0.940370 0.090458 0.159768
v 0.940370 0.094168 0.159768
v 0.940370 0.094168 0.026187
v 0.059724 0.090458 0.026188
v 0.059724 0.090458 0.159769
v 0.059724 0.094168 0.159769
v 0.059724 0.094168 0.026188
v 0.940370 0.268565 0.026187
v 0.940370 0.268565 0.159768
v 0.940370 0.272276 0.159768
v 0.940370 0.272276 0.026187
v 0.059724 0.268565 0.026188
v 0.059724 0.268565 0.159769
v 0.059724 0.272276 0.159769
v 0.059724 0.272276 0.026188
v 0.940370 0.446672 0.026187
v 0.940370 0.446672 0.159768
v 0.940370 0.450383 0.159768
v 0.940370 0.450383 0.026187
v 0.059724 0.446672 0.026188
v 0.059724 0.446672 0.159769
v 0.059724 0.450383 0.159769
v 0.059724 0.450383 0.026188
v 0.940370 0.624780 0.026187
v 0.940370 0.624780 0.159768
v 0.940370 0.628491 0.159768
v 0.940370 0.628491 0.026187
v 0.059724 0.624780 0.026188
v 0.059724 0.624780 0.159769
v 0.059724 0.628491 0.159769
v 0.059724 0.628491 0.026188
v 0.950261 0.070050 0.159764
v 0.950261 0.070050 0.164712
v 0.950261 0.092313 0.164712
v 0.950261 0.092313 0.159764
v 0.049833 0.070050 0.159765
v 0.049833 0.070050 0.164712
v 0.049833 0.092313 0.164712
v 0.049833 0.092313 0.159765
v 0.950261 0.760216 0.159764
v 0.950261 0.760216 0.164712
v 0.950261 0.782479 0.164712
v 0.950261 0.782479 0.159764
v 0.049833 0.760216 0.159765
v 0.049833 0.760216 0.164712
v 0.049833 0.782479 0.164712
v 0.049833 0.782479 0.159765
v 0.079120 0.092313 0.159765
v 0.079120 0.092313 0.164712
v 0.079120 0.760216 0.164712
v 0.079120 0.760216 0.159765
v 0.049435 0.092313 0.159765
v 0.049435 0.092313 0.164712
v 0.049435 0.760216 0.164712
v 0.049435 0.760216 0.159765
v 0.514889 0.092313 0.159764
v 0.514889 0.092313 0.164712
v 0.514889 0.760216 0.164712
v 0.514889 0.760216 0.159764
v 0.485205 0.092313 0.159764
v 0.485205 0.092313 0.164712
v 0.485205 0.760216 0.164712
v 0.485205 0.760216 0.159764
v 0.950659 0.092313 0.159764
v 0.950659 0.092313 0.164712
v 0.950659 0.760216 0.164712
v 0.950659 0.760216 0.159764
v 0.920974 0.092313 0.159764
v 0.920974 0.092313 0.164712
v 0.920974 0.760216 0.164712
v 0.920974 0.760216 0.159764
v 0.065661 0.070050 0.026188
v 0.065661 0.070050 0.159769
v 0.065661 0.782479 0.159769
v 0.065661 0.782479 0.026188
v 0.055770 0.070050 0.026188
v 0.055770 0.070050 0.159769
v 0.055770 0.782479 0.159769
v 0.055770 0.782479 0.026188
v 0.504992 0.070050 0.026188
v 0.504992 0.070050 0.159768
v 0.504992 0.782479 0.159768
v 0.504992 0.782479 0.026188
v 0.495101 0.070050 0.026188
v 0.495102 0.070050 0.159768
v 0.495102 0.782479 0.159768
v 0.495101 0.782479 0.026188
v 0.944324 0.070050 0.026187
v 0.944324 0.070050 0.159768
v 0.944324 0.782479 0.159768
v 0.944324 0.782479 0.026187
v 0.934433 0.070050 0.026187
v 0.934433 0.070050 0.159768
v 0.934433 0.782479 0.159768
v 0.934433 0.782479 0.026187
v 0.949274 0.070050 0.130083
v 0.949274 0.070050 0.159768
v 0.949274 0.782479 0.159768
v 0.949274 0.782479 0.130083
v 0.944326 0.070050 0.159768
v 0.944326 0.782479 0.159768
v 0.949273 0.070050 0.026187
v 0.949273 0.070050 0.055872
v 0.949273 0.782479 0.055872
v 0.949273 0.782479 0.026187
v 0.944326 0.070050 0.026187
v 0.944326 0.782479 0.026187
v 0.949273 0.760216 0.055872
v 0.949274 0.760216 0.130083
v 0.944326 0.760216 0.055872
v 0.944326 0.760216 0.130083
v 0.944326 0.782479 0.130083
v 0.944326 0.782479 0.055872
v 0.949274 0.092313 0.130083
v 0.949273 0.092313 0.055872
v 0.944326 0.070050 0.055872
v 0.944326 0.070050 0.130083
v 0.944326 0.092313 0.130083
v 0.944326 0.092313 0.055872
v 0.058737 0.070050 0.130084
v 0.058737 0.070050 0.159769
v 0.058737 0.782479 0.159769
v 0.058737 0.782479 0.130084
v 0.053789 0.070050 0.130084
v 0.053789 0.070050 0.159769
v 0.053789 0.782479 0.159769
v 0.053789 0.782479 0.130084
v 0.058737 0.070050 0.026188
v 0.058737 0.070050 0.055873
v 0.058737 0.782479 0.055873
v 0.058737 0.782479 0.026188
v 0.053789 0.070050 0.026188
v 0.053789 0.782479 0.026188
v 0.058737 0.760216 0.055873
v 0.058737 0.760216 0.130084
v 0.053789 0.760216 0.055873
v 0.053789 0.760216 0.130084
v 0.053789 0.782479 0.055873
v 0.058737 0.092313 0.130084
v 0.058737 0.092313 0.055873
v 0.053789 0.070050 0.055873
v 0.053789 0.092313 0.130084
v 0.053789 0.092313 0.055873
vn 1.0000 -0.0000 -0.0000
vn -0.0000 -1.0000 -0.0000
vn -0.0000 -0.0000 -1.0000
vn -0.0000 1.0000 -0.0000
vn -0.0000 -0.0000 1.0000
vn -1.0000 -0.0000 -0.0000
vn -1.0000 0.0021 -0.0000
vn 0.0012 1.0000 -0.0000
vn -0.0012 -1.0000 -0.0000
vn 1.0000 -0.0021 -0.0000
vn -1.0000 0.0020 -0.0000
vn -1.0000 0.0022 -0.0000
vn 1.0000 -0.0022 -0.0000
s 0
f 1//1 4//1 2//1
f 2//1 4//1 3//1
f 1//2 6//2 5//2
f 1//2 2//2 6//2
f 1//3 5//3 4//3
f 4//3 5//3 8//3
f 4//4 8//4 7//4
f 4//4 7//4 3//4
f 2//5 7//5 6//5
f 2//5 3//5 7//5
f 6//6 8//6 5//6
f 6//6 7//6 8//6
f 9//1 12//1 10//1
f 10//1 12//1 11//1
f 9//2 14//2 13//2
f 9//2 10//2 14//2
f 9//3 13//3 12//3
f 12//3 13//3 16//3
f 12//4 16//4 15//4
f 12//4 15//4 11//4
f 10//5 15//5 14//5
f 10//5 11//5 15//5
f 14//6 16//6 13//6
f 14//6 15//6 16//6
f 17//1 20//1 18//1
f 18//1 20//1 19//1
f 17//2 22//2 21//2
f 17//2 18//2 22//2
f 17//3 21//3 20//3
f 20//3 21//3 24//3
f 20//4 24//4 23//4
f 20//4 23//4 19//4
f 18//5 23//5 22//5
f 18//5 19//5 23//5
f 22//6 24//6 21//6
f 22//6 23//6 24//6
f 25//7 28//7 26//7
f 26//7 28//7 27//7
f 25//8 30//8 29//8
f 25//8 26//8 30//8
f 25//3 29//3 28//3
f 28//3 29//3 32//3
f 28//9 32//9 31//9
f 28//9 31//9 27//9
f 26//5 31//5 30//5
f 26//5 27//5 31//5
f 30//10 32//10 29//10
f 30//10 31//10 32//10
f 33//11 36//11 34//11
f 34//11 36//11 35//11
f 33//8 38//8 37//8
f 33//8 34//8 38//8
f 33//3 37//3 36//3
f 36//3 37//3 40//3
f 36//9 40//9 39//9
f 36//9 39//9 35//9
f 34//5 39//5 38//5
f 34//5 35//5 39//5
f 38//10 40//10 37//10
f 38//10 39//10 40//10
f 41//12 44//12 42//12
f 42//12 44//12 43//12
f 41//8 46//8 45//8
f 41//8 42//8 46//8
f 41//3 45//3 44//3
f 44//3 45//3 48//3
f 44//9 48//9 47//9
f 44//9 47//9 43//9
f 42//5 47//5 46//5
f 42//5 43//5 47//5
f 46//13 48//13 45//13
f 46//13 47//13 48//13
f 49//1 52//1 50//1
f 50//1 52//1 51//1
f 49//2 54//2 53//2
f 49//2 50//2 54//2
f 49//3 53//3 52//3
f 52//3 53//3 56//3
f 52//4 56//4 55//4
f 52//4 55//4 51//4
f 50//5 55//5 54//5
f 50//5 51//5 55//5
f 54//6 56//6 53//6
f 54//6 55//6 56//6
f 57//1 60//1 58//1
f 58//1 60//1 59//1
f 57//2 62//2 61//2
f 57//2 58//2 62//2
f 57//3 61//3 60//3
f 60//3 61//3 64//3
f 60//4 64//4 63//4
f 60//4 63//4 59//4
f 58//5 63//5 62//5
f 58//5 59//5 63//5
f 62//6 64//6 61//6
f 62//6 63//6 64//6
f 65//1 68//1 66//1
f 66//1 68//1 67//1
f 65//2 70//2 69//2
f 65//2 66//2 70//2
f 65//3 69//3 68//3
f 68//3 69//3 72//3
f 68//4 72//4 71//4
f 68//4 71//4 67//4
f 66//5 71//5 70//5
f 66//5 67//5 71//5
f 70//6 72//6 69//6
f 70//6 71//6 72//6
f 73//1 76//1 74//1
f 74//1 76//1 75//1
f 73//2 78//2 77//2
f 73//2 74//2 78//2
f 73//3 77//3 76//3
f 76//3 77//3 80//3
f 76//4 80//4 79//4
f 76//4 79//4 75//4
f 74//5 79//5 78//5
f 74//5 75//5 79//5
f 78//6 80//6 77//6
f 78//6 79//6 80//6
f 81//1 84//1 82//1
f 82//1 84//1 83//1
f 81//2 86//2 85//2
f 81//2 82//2 86//2
f 81//3 85//3 84//3
f 84//3 85//3 88//3
f 84//4 88//4 87//4
f 84//4 87//4 83//4
f 82//5 87//5 86//5
f 82//5 83//5 87//5
f 86//6 88//6 85//6
f 86//6 87//6 88//6
f 89//1 92//1 90//1
f 90//1 92//1 91//1
f 89//2 94//2 93//2
f 89//2 90//2 94//2
f 89//3 93//3 92//3
f 92//3 93//3 96//3
f 92//4 96//4 95//4
f 92//4 95//4 91//4
f 90//5 95//5 94//5
f 90//5 91//5 95//5
f 94//6 96//6 93//6
f 94//6 95//6 96//6
f 97//1 100//1 98//1
f 98//1 100//1 99//1
f 97//2 102//2 101//2
f 97//2 98//2 102//2
f 97//3 101//3 100//3
f 100//3 101//3 104//3
f 100//4 104//4 103//4
f 100//4 103//4 99//4
f 98//5 103//5 102//5
f 98//5 99//5 103//5
f 102//6 104//6 101//6
f 102//6 103//6 104//6
f 105//1 108//1 106//1
f 106//1 108//1 107//1
f 105//2 110//2 109//2
f 105//2 106//2 110//2
f 105//3 109//3 108//3
f 108//3 109//3 112//3
f 108//4 112//4 111//4
f 108//4 111//4 107//4
f 106//5 111//5 110//5
f 106//5 107//5 111//5
f 110//6 112//6 109//6
f 110//6 111//6 112//6
f 113//1 116//1 114//1
f 114//1 116//1 115//1
f 113//2 118//2 117//2
f 113//2 114//2 118//2
f 113//3 117//3 116//3
f 116//3 117//3 120//3
f 116//4 120//4 119//4
f 116//4 119//4 115//4
f 114//5 119//5 118//5
f 114//5 115//5 119//5
f 118//6 120//6 117//6
f 118//6 119//6 120//6
f 121//1 124//1 122//1
f 122//1 124//1 123//1
f 121//2 126//2 125//2
f 121//2 122//2 126//2
f 121//3 125//3 124//3
f 124//3 125//3 128//3
f 124//4 128//4 127//4
f 124//4 127//4 123//4
f 122//5 127//5 126//5
f 122//5 123//5 127//5
f 126//6 128//6 125//6
f 126//6 127//6 128//6
f 129//1 132//1 130//1
f 130//1 132//1 131//1
f 129//2 134//2 133//2
f 129//2 130//2 134//2
f 129//3 133//3 132//3
f 132//3 133//3 136//3
f 132//4 136//4 135//4
f 132//4 135//4 131//4
f 130//5 135//5 134//5
f 130//5 131//5 135//5
f 134//6 136//6 133//6
f 134//6 135//6 136//6
f 137//1 140//1 138//1
f 138//1 140//1 139//1
f 137//2 142//2 141//2
f 137//2 138//2 142//2
f 137//3 141//3 140//3
f 140//3 141//3 144//3
f 140//4 144//4 143//4
f 140//4 143//4 139//4
f 138//5 143//5 142//5
f 138//5 139//5 143//5
f 142//6 144//6 141//6
f 142//6 143//6 144//6
f 145//1 148//1 146//1
f 146//1 148//1 147//1
f 145//2 150//2 149//2
f 145//2 146//2 150//2
f 145//3 149//3 148//3
f 148//3 149//3 152//3
f 148//4 152//4 151//4
f 148//4 151//4 147//4
f 146//5 151//5 150//5
f 146//5 147//5 151//5
f 150//6 152//6 149//6
f 150//6 151//6 152//6
f 153//1 156//1 154//1
f 154//1 156//1 155//1
f 153//2 157//2 174//2
f 153//2 154//2 157//2
f 153//3 174//3 156//3
f 156//3 174//3 169//3
f 156//4 169//4 158//4
f 156//4 158//4 155//4
f 154//5 158//5 157//5
f 154//5 155//5 158//5
f 157//6 169//6 174//6
f 157//6 158//6 169//6
f 159//1 162//1 160//1
f 160//1 162//1 161//1
f 159//2 173//2 163//2
f 159//2 160//2 173//2
f 159//3 163//3 162//3
f 162//3 163//3 164//3
f 162//4 164//4 170//4
f 162//4 170//4 161//4
f 160//5 170//5 173//5
f 160//5 161//5 170//5
f 173//6 164//6 163//6
f 173//6 170//6 164//6
f 165//1 161//1 166//1
f 166//1 161//1 156//1
f 165//2 168//2 167//2
f 165//2 166//2 168//2
f 165//3 167//3 161//3
f 161//3 167//3 170//3
f 161//4 170//4 169//4
f 161//4 169//4 156//4
f 166//5 169//5 168//5
f 166//5 156//5 169//5
f 168//6 170//6 167//6
f 168//6 169//6 170//6
f 160//1 172//1 153//1
f 153//1 172//1 171//1
f 160//2 174//2 173//2
f 160//2 153//2 174//2
f 160//3 173//3 172//3
f 172//3 173//3 176//3
f 172//4 176//4 175//4
f 172//4 175//4 171//4
f 153//5 175//5 174//5
f 153//5 171//5 175//5
f 174//6 176//6 173//6
f 174//6 175//6 176//6
f 177//1 180//1 178//1
f 178//1 180//1 179//1
f 177//2 182//2 181//2
f 177//2 178//2 182//2
f 177//3 181//3 180//3
f 180//3 181//3 184//3
f 180//4 184//4 183//4
f 180//4 183//4 179//4
f 178//5 183//5 182//5
f 178//5 179//5 183//5
f 182//6 184//6 181//6
f 182//6 183//6 184//6
f 185//1 188//1 186//1
f 186//1 188//1 187//1
f 185//2 198//2 189//2
f 185//2 186//2 198//2
f 185//3 189//3 188//3
f 188//3 189//3 190//3
f 188//4 190//4 195//4
f 188//4 195//4 187//4
f 186//5 195//5 198//5
f 186//5 187//5 195//5
f 198//6 190//6 189//6
f 198//6 195//6 190//6
f 191//1 187//1 192//1
f 192//1 187//1 180//1
f 191//2 194//2 193//2
f 191//2 192//2 194//2
f 191//3 193//3 187//3
f 187//3 193//3 195//3
f 187//4 195//4 184//4
f 187//4 184//4 180//4
f 192//5 184//5 194//5
f 192//5 180//5 184//5
f 194//6 195//6 193//6
f 194//6 184//6 195//6
f 186//1 197//1 177//1
f 177//1 197//1 196//1
f 186//2 181//2 198//2
f 186//2 177//2 181//2
f 186//3 198//3 197//3
f 197//3 198//3 200//3
f 197//4 200//4 199//4
f 197//4 199//4 196//4
f 177//5 199//5 181//5
f 177//5 196//5 199//5
f 181//6 200//6 198//6
f 181//6 199//6 200//6
