# Blender 4.2.3 LTS
# www.blender.org
o m443
v 0.025000 0.040703 0.872934
v 0.025000 0.025000 0.872934
v 0.539256 0.040703 0.872934
v 0.539256 0.025000 0.872934
v 0.539256 0.040703 0.500000
v 0.539256 0.025000 0.500000
v 0.025000 0.040703 0.500000
v 0.025000 0.025000 0.500000
v 0.301102 0.040703 0.872934
v 0.253994 0.040703 0.872934
v 0.301102 0.142769 0.872934
v 0.253994 0.142769 0.872934
v 0.418871 0.064256 0.872934
v 0.371763 0.064256 0.872934
v 0.418871 0.158471 0.872934
v 0.371763 0.158471 0.872934
v 0.183333 0.064256 0.872934
v 0.136226 0.064256 0.872934
v 0.183333 0.158471 0.872934
v 0.136226 0.158471 0.872934
v 0.303719 0.238292 0.872934
v 0.251377 0.238292 0.872934
v 0.303719 0.320730 0.872934
v 0.251377 0.320730 0.872934
v 0.539256 0.291942 0.872934
v 0.025000 0.291942 0.872934
v 0.539256 0.291942 0.500000
v 0.025000 0.291942 0.500000
v 0.539256 0.417562 0.686467
v 0.025000 0.417562 0.686467
v 0.348209 0.291942 0.872934
v 0.206887 0.291942 0.872934
v 0.277548 0.417562 0.872934
v 0.277548 0.417562 0.686467
v 0.025000 0.064256 0.757782
v 0.025000 0.064256 0.804890
v 0.025000 0.158471 0.757782
v 0.025000 0.158471 0.804890
v 0.025000 0.064256 0.568044
v 0.025000 0.064256 0.615152
v 0.025000 0.158471 0.568044
v 0.025000 0.158471 0.615152
v 0.025000 0.229132 0.757782
v 0.025000 0.229132 0.804890
v 0.025000 0.323347 0.757782
v 0.025000 0.323347 0.804890
v 0.025000 0.229132 0.568044
v 0.025000 0.229132 0.615152
v 0.025000 0.323347 0.568044
v 0.025000 0.323347 0.615152
v 0.539256 0.064256 0.757782
v 0.539256 0.064256 0.804890
v 0.539256 0.158471 0.757782
v 0.539256 0.158471 0.804890
v 0.539256 0.064256 0.568044
v 0.539256 0.064256 0.615152
v 0.539256 0.158471 0.568044
v 0.539256 0.158471 0.615152
v 0.539256 0.229132 0.757782
v 0.539256 0.229132 0.804890
v 0.539256 0.323347 0.757782
v 0.539256 0.323347 0.804890
v 0.539256 0.229132 0.568044
v 0.539256 0.229132 0.615152
v 0.539256 0.323347 0.568044
v 0.539256 0.323347 0.615152
v 0.091081 0.291942 0.500000
v 0.464015 0.291942 0.500000
v 0.464015 0.040703 0.500000
v 0.464015 0.025000 0.500000
v 0.091081 0.040703 0.500000
v 0.091081 0.025000 0.500000
v 0.116598 0.040703 0.872934
v 0.116598 0.025000 0.872934
v 0.447658 0.040703 0.872934
v 0.447658 0.025000 0.872934
v 0.447658 0.040703 0.967149
v 0.447658 0.025000 0.967149
v 0.116598 0.040703 0.967149
v 0.116598 0.025000 0.967149
v 0.219318 0.216047 0.872934
v 0.344938 0.216047 0.872934
v 0.108747 0.184642 0.872934
v 0.455510 0.184642 0.872934
v 0.108747 0.184642 0.975000
v 0.455510 0.184642 0.975000
v 0.325964 0.040703 0.959298
v 0.333815 0.040703 0.959298
v 0.333815 0.184642 0.959298
v 0.325964 0.184642 0.959298
v 0.325964 0.040703 0.967149
v 0.333815 0.040703 0.967149
v 0.333815 0.184642 0.967149
v 0.325964 0.184642 0.967149
v 0.116598 0.040703 0.959298
v 0.124449 0.040703 0.959298
v 0.124449 0.184642 0.959298
v 0.116598 0.184642 0.959298
v 0.124449 0.040703 0.967149
v 0.124449 0.184642 0.967149
v 0.116598 0.184642 0.967149
v 0.439807 0.040703 0.959298
v 0.447658 0.040703 0.959298
v 0.447658 0.184642 0.959298
v 0.439807 0.184642 0.959298
v 0.439807 0.040703 0.967149
v 0.447658 0.184642 0.967149
v 0.439807 0.184642 0.967149
v 0.221281 0.040703 0.959298
v 0.229132 0.040703 0.959298
v 0.229132 0.184642 0.959298
v 0.221281 0.184642 0.959298
v 0.221281 0.040703 0.967149
v 0.229132 0.040703 0.967149
v 0.229132 0.184642 0.967149
v 0.221281 0.184642 0.967149
v 0.539256 0.025000 0.733574
v 0.539256 0.025000 0.639360
v 0.570661 0.025000 0.733574
v 0.570661 0.025000 0.639360
v 0.539256 0.150620 0.733574
v 0.539256 0.150620 0.639360
v 0.570661 0.150620 0.733574
v 0.570661 0.150620 0.639360
v 0.539256 0.182025 0.710021
v 0.539256 0.182025 0.662913
v 0.562810 0.182025 0.710021
v 0.562810 0.182025 0.662913
v 0.539256 0.464669 0.710021
v 0.539256 0.464669 0.662913
v 0.562810 0.464669 0.710021
v 0.562810 0.464669 0.662913
v 0.464015 0.025000 0.127066
v 0.091081 0.025000 0.127066
v 0.464015 0.291942 0.127066
v 0.464015 0.291942 0.243526
v 0.464015 0.417562 0.314187
v 0.464015 0.291942 0.384848
v 0.277548 0.417562 0.127066
v 0.277548 0.417562 0.314187
v 0.091081 0.291942 0.127066
v 0.091081 0.291942 0.243526
v 0.091081 0.417562 0.314187
v 0.091081 0.291942 0.384848
v 0.464015 0.040703 0.387466
v 0.464015 0.040703 0.434573
v 0.464015 0.142769 0.387466
v 0.464015 0.142769 0.434573
v 0.464015 0.229132 0.294559
v 0.464015 0.229132 0.333815
v 0.464015 0.307645 0.294559
v 0.464015 0.307645 0.333815
v 0.091081 0.229132 0.294559
v 0.091081 0.229132 0.333815
v 0.091081 0.307645 0.294559
v 0.091081 0.307645 0.333815
v 0.353444 0.229132 0.127066
v 0.390083 0.229132 0.127066
v 0.353444 0.307645 0.127066
v 0.390083 0.307645 0.127066
v 0.165014 0.229132 0.127066
v 0.201653 0.229132 0.127066
v 0.165014 0.307645 0.127066
v 0.201653 0.307645 0.127066
v 0.253994 0.040703 0.127066
v 0.301102 0.040703 0.127066
v 0.253994 0.142769 0.127066
v 0.301102 0.142769 0.127066
v 0.464015 0.064256 0.201653
v 0.464015 0.064256 0.243526
v 0.464015 0.158471 0.201653
v 0.464015 0.158471 0.243526
v 0.091081 0.167631 0.383540
v 0.091081 0.167631 0.439807
v 0.091081 0.065565 0.187259
v 0.091081 0.167631 0.187259
v 0.091081 0.167631 0.243526
v 0.361295 0.103512 0.127066
v 0.413636 0.103512 0.127066
v 0.361295 0.142769 0.127066
v 0.413636 0.142769 0.127066
v 0.110055 0.064256 0.127066
v 0.214738 0.064256 0.127066
v 0.110055 0.142769 0.127066
v 0.214738 0.142769 0.127066
v 0.122486 0.036777 0.127066
v 0.122486 0.025000 0.127066
v 0.122486 0.036777 0.032851
v 0.122486 0.025000 0.032851
v 0.464015 0.036777 0.127066
v 0.570661 0.036777 0.032851
v 0.570661 0.025000 0.032851
v 0.570661 0.036777 0.531405
v 0.570661 0.025000 0.531405
v 0.539256 0.036777 0.531405
v 0.539256 0.025000 0.531405
v 0.539256 0.036777 0.500000
v 0.464015 0.036777 0.500000
v 0.219318 0.216047 0.127066
v 0.464015 0.216047 0.127066
v 0.108747 0.184642 0.127066
v 0.578512 0.184642 0.539256
v 0.108747 0.184642 0.025000
v 0.578512 0.184642 0.025000
v 0.539256 0.195411 0.500000
v 0.464015 0.216047 0.500000
v 0.539256 0.184642 0.539256
v 0.464015 0.184642 0.127066
v 0.464015 0.184642 0.500000
v 0.539256 0.184642 0.500000
v 0.562810 0.036777 0.523554
v 0.570661 0.036777 0.523554
v 0.570661 0.184642 0.523554
v 0.562810 0.184642 0.523554
v 0.562810 0.036777 0.531405
v 0.570661 0.184642 0.531405
v 0.562810 0.184642 0.531405
v 0.562810 0.036777 0.405785
v 0.570661 0.036777 0.405785
v 0.570661 0.184642 0.405785
v 0.562810 0.184642 0.405785
v 0.562810 0.036777 0.413636
v 0.570661 0.036777 0.413636
v 0.570661 0.184642 0.413636
v 0.562810 0.184642 0.413636
v 0.562810 0.036777 0.288017
v 0.570661 0.036777 0.288017
v 0.570661 0.184642 0.288017
v 0.562810 0.184642 0.288017
v 0.562810 0.036777 0.295868
v 0.570661 0.036777 0.295868
v 0.570661 0.184642 0.295868
v 0.562810 0.184642 0.295868
v 0.562810 0.036777 0.170248
v 0.570661 0.036777 0.170248
v 0.570661 0.184642 0.170248
v 0.562810 0.184642 0.170248
v 0.562810 0.036777 0.178099
v 0.570661 0.036777 0.178099
v 0.570661 0.184642 0.178099
v 0.562810 0.184642 0.178099
v 0.562810 0.036777 0.032851
v 0.570661 0.184642 0.032851
v 0.562810 0.184642 0.032851
v 0.562810 0.036777 0.040703
v 0.570661 0.036777 0.040703
v 0.570661 0.184642 0.040703
v 0.562810 0.184642 0.040703
v 0.439807 0.036777 0.032851
v 0.447658 0.036777 0.032851
v 0.447658 0.184642 0.032851
v 0.439807 0.184642 0.032851
v 0.439807 0.036777 0.040703
v 0.447658 0.036777 0.040703
v 0.447658 0.184642 0.040703
v 0.439807 0.184642 0.040703
v 0.325964 0.036777 0.032851
v 0.333815 0.036777 0.032851
v 0.333815 0.184642 0.032851
v 0.325964 0.184642 0.032851
v 0.325964 0.036777 0.040703
v 0.333815 0.036777 0.040703
v 0.333815 0.184642 0.040703
v 0.325964 0.184642 0.040703
v 0.221281 0.036777 0.032851
v 0.229132 0.036777 0.032851
v 0.229132 0.184642 0.032851
v 0.221281 0.184642 0.032851
v 0.221281 0.036777 0.040703
v 0.229132 0.036777 0.040703
v 0.229132 0.184642 0.040703
v 0.221281 0.184642 0.040703
v 0.130337 0.036777 0.032851
v 0.130337 0.184642 0.032851
v 0.122486 0.184642 0.032851
v 0.122486 0.036777 0.040703
v 0.130337 0.036777 0.040703
v 0.130337 0.184642 0.040703
v 0.122486 0.184642 0.040703
vn -0.0000 -0.0000 1.0000
vn 1.0000 -0.0000 -0.0000
vn -1.0000 -0.0000 -0.0000
vn -0.0000 -0.0000 -1.0000
vn 0.8716 0.4903 -0.0000
vn -0.8716 0.4903 -0.0000
vn -0.0000 0.8294 0.5587
vn -0.0000 0.8294 -0.5587
vn -0.2732 0.9620 -0.0000
vn -0.0000 0.9558 0.2941
vn 0.2732 0.9620 -0.0000
vn -0.0000 -1.0000 -0.0000
vn -0.0000 1.0000 -0.0000
vn -0.0000 0.6000 0.8000
vn 0.9701 0.2425 -0.0000
vn -0.0000 0.6000 -0.8000
vn -0.7348 -0.0000 0.6783
vn -0.7348 -0.0001 0.6783
vn -0.0000 -0.9864 -0.1644
vn -0.0572 -0.9966 0.0589
vn -0.9786 -0.2060 -0.0000
vn -0.0588 -0.9910 -0.1199
vn 0.5587 0.8294 -0.0000
vn -0.0000 0.4903 0.8716
vn -0.0000 0.4903 -0.8716
vn -0.5587 0.8294 -0.0000
vn -0.0000 0.9558 -0.2941
vn 0.2645 0.9644 -0.0000
vn 0.2646 0.9644 -0.0000
vn -0.0000 0.9644 0.2646
vn -0.7347 -0.0000 0.6784
vn -0.7347 -0.0001 0.6784
vn -0.0571 -0.9966 0.0589
vn -0.0572 -0.9966 0.0590
vn -0.0572 -0.9966 0.0591
vn -0.9786 -0.2060 -0.0001
vn -0.9786 -0.2060 0.0001
vn -0.0588 -0.9910 -0.1200
vn -0.0587 -0.9910 -0.1199
vn -0.0587 -0.9910 -0.1200
vn -0.0589 -0.9910 -0.1200
vn -0.0587 -0.9910 -0.1201
vn -0.0588 -0.9910 -0.1201
vn -0.0589 -0.9910 -0.1199
s 0
f 1//1 2//1 3//1
f 3//1 2//1 4//1
f 4//2 5//2 3//2
f 5//2 4//2 6//2
f 1//3 7//3 8//3
f 8//3 2//3 1//3
f 5//4 6//4 69//4
f 69//4 6//4 70//4
f 71//4 72//4 7//4
f 7//4 72//4 8//4
f 24//1 33//1 32//1
f 24//1 23//1 33//1
f 31//1 33//1 23//1
f 22//1 24//1 32//1
f 22//1 32//1 26//1
f 20//1 22//1 26//1
f 23//1 21//1 31//1
f 31//1 21//1 25//1
f 25//1 21//1 15//1
f 22//1 20//1 19//1
f 22//1 19//1 12//1
f 21//1 22//1 12//1
f 12//1 11//1 21//1
f 21//1 16//1 15//1
f 21//1 11//1 16//1
f 26//1 1//1 20//1
f 18//1 20//1 1//1
f 17//1 18//1 1//1
f 1//1 10//1 17//1
f 13//1 14//1 3//1
f 9//1 3//1 14//1
f 3//1 25//1 15//1
f 15//1 13//1 3//1
f 10//1 12//1 19//1
f 19//1 17//1 10//1
f 11//1 9//1 14//1
f 14//1 16//1 11//1
f 29//2 25//2 62//2
f 29//2 62//2 61//2
f 29//2 61//2 66//2
f 29//2 66//2 65//2
f 29//2 65//2 27//2
f 60//2 62//2 25//2
f 61//2 59//2 64//2
f 64//2 66//2 61//2
f 65//2 63//2 27//2
f 25//2 3//2 54//2
f 54//2 60//2 25//2
f 59//2 60//2 54//2
f 54//2 53//2 59//2
f 64//2 59//2 53//2
f 53//2 58//2 64//2
f 63//2 64//2 58//2
f 58//2 57//2 63//2
f 5//2 27//2 63//2
f 63//2 57//2 5//2
f 52//2 54//2 3//2
f 53//2 51//2 56//2
f 56//2 58//2 53//2
f 57//2 55//2 5//2
f 51//2 52//2 3//2
f 56//2 51//2 3//2
f 3//2 5//2 56//2
f 55//2 56//2 5//2
f 68//4 27//4 5//4
f 5//4 69//4 68//4
f 28//4 67//4 71//4
f 71//4 7//4 28//4
f 49//3 30//3 28//3
f 49//3 50//3 30//3
f 50//3 45//3 30//3
f 45//3 46//3 30//3
f 46//3 26//3 30//3
f 47//3 49//3 28//3
f 50//3 48//3 43//3
f 43//3 45//3 50//3
f 46//3 44//3 26//3
f 28//3 7//3 47//3
f 41//3 47//3 7//3
f 47//3 41//3 42//3
f 42//3 48//3 47//3
f 48//3 42//3 37//3
f 37//3 43//3 48//3
f 44//3 43//3 37//3
f 37//3 38//3 44//3
f 44//3 38//3 26//3
f 1//3 26//3 38//3
f 39//3 41//3 7//3
f 42//3 40//3 35//3
f 35//3 37//3 42//3
f 38//3 36//3 1//3
f 40//3 39//3 7//3
f 35//3 40//3 7//3
f 7//3 1//3 35//3
f 36//3 35//3 1//3
f 31//5 34//5 33//5
f 34//6 32//6 33//6
f 25//7 29//7 34//7
f 34//7 31//7 25//7
f 30//7 26//7 32//7
f 34//7 30//7 32//7
f 27//8 34//8 29//8
f 27//8 68//8 34//8
f 67//8 28//8 30//8
f 30//8 34//8 67//8
f 76//2 75//2 77//2
f 77//2 78//2 76//2
f 77//1 79//1 78//1
f 79//1 80//1 78//1
f 73//3 80//3 79//3
f 80//3 73//3 74//3
f 81//9 83//9 85//9
f 81//10 85//10 86//10
f 82//10 81//10 86//10
f 82//11 86//11 84//11
f 86//12 85//12 83//12
f 83//12 84//12 86//12
f 87//4 90//4 88//4
f 88//4 90//4 89//4
f 87//12 92//12 91//12
f 87//12 88//12 92//12
f 87//3 91//3 90//3
f 90//3 91//3 94//3
f 90//13 94//13 93//13
f 90//13 93//13 89//13
f 88//2 93//2 92//2
f 88//2 89//2 93//2
f 92//1 94//1 91//1
f 92//1 93//1 94//1
f 95//4 98//4 96//4
f 96//4 98//4 97//4
f 95//12 99//12 79//12
f 95//12 96//12 99//12
f 95//3 79//3 98//3
f 98//3 79//3 101//3
f 98//13 101//13 100//13
f 98//13 100//13 97//13
f 96//2 100//2 99//2
f 96//2 97//2 100//2
f 99//1 101//1 79//1
f 99//1 100//1 101//1
f 102//4 105//4 103//4
f 103//4 105//4 104//4
f 102//12 77//12 106//12
f 102//12 103//12 77//12
f 102//3 106//3 105//3
f 105//3 106//3 108//3
f 105//13 108//13 107//13
f 105//13 107//13 104//13
f 103//2 107//2 77//2
f 103//2 104//2 107//2
f 77//1 108//1 106//1
f 77//1 107//1 108//1
f 109//4 112//4 110//4
f 110//4 112//4 111//4
f 109//12 114//12 113//12
f 109//12 110//12 114//12
f 109//3 113//3 112//3
f 112//3 113//3 116//3
f 112//13 116//13 115//13
f 112//13 115//13 111//13
f 110//2 115//2 114//2
f 110//2 111//2 115//2
f 114//1 116//1 113//1
f 114//1 115//1 116//1
f 73//13 79//13 77//13
f 77//13 75//13 73//13
f 117//1 119//1 121//1
f 121//1 119//1 123//1
f 119//2 120//2 123//2
f 124//2 123//2 120//2
f 120//4 118//4 122//4
f 122//4 124//4 120//4
f 127//14 125//14 121//14
f 121//14 123//14 127//14
f 123//15 124//15 128//15
f 128//15 127//15 123//15
f 124//16 122//16 126//16
f 126//16 128//16 124//16
f 131//1 129//1 125//1
f 125//1 127//1 131//1
f 127//2 128//2 132//2
f 132//2 131//2 127//2
f 126//4 130//4 132//4
f 132//4 128//4 126//4
f 129//3 130//3 126//3
f 126//3 125//3 129//3
f 129//13 131//13 132//13
f 132//13 130//13 129//13
f 209//17 210//17 205//18
f 76//19 80//19 74//19
f 35//3 38//3 37//3
f 134//3 72//3 71//3
f 135//4 160//4 139//4
f 160//4 159//4 139//4
f 139//4 159//4 164//4
f 164//4 163//4 139//4
f 163//4 141//4 139//4
f 158//4 160//4 135//4
f 159//4 157//4 162//4
f 162//4 164//4 159//4
f 163//4 161//4 141//4
f 153//3 156//3 155//3
f 181//4 158//4 135//4
f 158//4 181//4 180//4
f 157//4 158//4 180//4
f 157//4 180//4 168//4
f 162//4 157//4 168//4
f 168//4 167//4 162//4
f 162//4 167//4 185//4
f 161//4 162//4 185//4
f 185//4 184//4 161//4
f 184//4 141//4 161//4
f 47//3 50//3 49//3
f 151//2 150//2 149//2
f 180//4 178//4 166//4
f 166//4 168//4 180//4
f 167//4 165//4 183//4
f 183//4 185//4 167//4
f 57//2 56//2 55//2
f 163//4 162//4 161//4
f 159//4 158//4 157//4
f 182//4 183//4 165//4
f 53//2 52//2 51//2
f 138//2 152//2 137//2
f 152//2 151//2 137//2
f 151//2 136//2 137//2
f 138//2 68//2 150//2
f 150//2 152//2 138//2
f 151//2 149//2 136//2
f 135//2 136//2 149//2
f 68//2 69//2 148//2
f 148//2 150//2 68//2
f 149//2 150//2 148//2
f 148//2 147//2 149//2
f 149//2 147//2 172//2
f 172//2 171//2 149//2
f 135//2 149//2 171//2
f 192//20 197//20 190//20
f 69//2 146//2 148//2
f 147//2 145//2 170//2
f 170//2 172//2 147//2
f 169//2 170//2 145//2
f 82//4 83//4 81//4
f 118//21 120//21 117//21
f 142//3 155//3 143//3
f 155//3 156//3 143//3
f 156//3 144//3 143//3
f 142//3 141//3 153//3
f 153//3 155//3 142//3
f 156//3 154//3 144//3
f 67//3 144//3 154//3
f 43//3 46//3 45//3
f 176//3 153//3 141//3
f 176//3 177//3 153//3
f 154//3 153//3 177//3
f 177//3 173//3 154//3
f 173//3 174//3 154//3
f 67//3 154//3 174//3
f 71//3 67//3 174//3
f 65//2 64//2 63//2
f 23//1 22//1 21//1
f 19//1 18//1 17//1
f 10//13 1//12 3//13
f 61//2 60//2 59//2
f 15//1 14//1 13//1
f 39//3 42//3 41//3
f 134//22 184//22 182//22
f 34//23 68//23 138//23
f 34//23 138//23 140//23
f 137//24 140//24 138//24
f 136//25 140//25 137//25
f 139//23 140//23 136//23
f 136//23 135//23 139//23
f 141//26 142//26 139//26
f 139//26 142//26 140//26
f 143//25 140//25 142//25
f 140//24 143//24 144//24
f 34//26 144//26 67//26
f 144//26 34//26 140//26
f 189//3 187//3 186//3
f 186//3 188//3 189//3
f 188//4 191//4 192//4
f 192//4 189//4 188//4
f 191//2 193//2 194//2
f 194//2 192//2 191//2
f 195//1 196//1 194//1
f 194//1 193//1 195//1
f 188//13 186//13 190//13
f 190//13 191//13 188//13
f 190//13 198//13 197//13
f 191//13 190//13 197//13
f 191//13 197//13 193//13
f 195//13 193//13 197//13
f 201//12 203//12 204//12
f 204//12 208//12 201//12
f 210//12 202//12 207//12
f 204//12 209//12 208//12
f 204//12 202//12 210//12
f 204//12 210//12 209//12
f 199//9 203//9 201//9
f 199//27 204//27 203//27
f 199//27 200//27 204//27
f 200//28 205//28 204//28
f 200//28 206//28 205//28
f 202//29 204//29 205//29
f 207//30 202//30 205//30
f 211//4 214//4 212//4
f 212//4 214//4 213//4
f 211//12 193//12 215//12
f 211//12 212//12 193//12
f 211//3 215//3 214//3
f 214//3 215//3 217//3
f 214//13 217//13 216//13
f 214//13 216//13 213//13
f 212//2 216//2 193//2
f 212//2 213//2 216//2
f 193//1 217//1 215//1
f 193//1 216//1 217//1
f 218//4 221//4 219//4
f 219//4 221//4 220//4
f 218//12 223//12 222//12
f 218//12 219//12 223//12
f 218//3 222//3 221//3
f 221//3 222//3 225//3
f 221//13 225//13 224//13
f 221//13 224//13 220//13
f 219//2 224//2 223//2
f 219//2 220//2 224//2
f 223//1 225//1 222//1
f 223//1 224//1 225//1
f 226//4 229//4 227//4
f 227//4 229//4 228//4
f 226//12 231//12 230//12
f 226//12 227//12 231//12
f 226//3 230//3 229//3
f 229//3 230//3 233//3
f 229//13 233//13 232//13
f 229//13 232//13 228//13
f 227//2 232//2 231//2
f 227//2 228//2 232//2
f 231//1 233//1 230//1
f 231//1 232//1 233//1
f 234//4 237//4 235//4
f 235//4 237//4 236//4
f 234//12 239//12 238//12
f 234//12 235//12 239//12
f 234//3 238//3 237//3
f 237//3 238//3 241//3
f 237//13 241//13 240//13
f 237//13 240//13 236//13
f 235//2 240//2 239//2
f 235//2 236//2 240//2
f 239//1 241//1 238//1
f 239//1 240//1 241//1
f 242//4 244//4 191//4
f 191//4 244//4 243//4
f 242//12 246//12 245//12
f 242//12 191//12 246//12
f 242//3 245//3 244//3
f 244//3 245//3 248//3
f 244//13 248//13 247//13
f 244//13 247//13 243//13
f 191//2 247//2 246//2
f 191//2 243//2 247//2
f 246//1 248//1 245//1
f 246//1 247//1 248//1
f 249//4 252//4 250//4
f 250//4 252//4 251//4
f 249//12 254//12 253//12
f 249//12 250//12 254//12
f 249//3 253//3 252//3
f 252//3 253//3 256//3
f 252//13 256//13 255//13
f 252//13 255//13 251//13
f 250//2 255//2 254//2
f 250//2 251//2 255//2
f 254//1 256//1 253//1
f 254//1 255//1 256//1
f 257//4 260//4 258//4
f 258//4 260//4 259//4
f 257//12 262//12 261//12
f 257//12 258//12 262//12
f 257//3 261//3 260//3
f 260//3 261//3 264//3
f 260//13 264//13 263//13
f 260//13 263//13 259//13
f 258//2 263//2 262//2
f 258//2 259//2 263//2
f 262//1 264//1 261//1
f 262//1 263//1 264//1
f 265//4 268//4 266//4
f 266//4 268//4 267//4
f 265//12 270//12 269//12
f 265//12 266//12 270//12
f 265//3 269//3 268//3
f 268//3 269//3 272//3
f 268//13 272//13 271//13
f 268//13 271//13 267//13
f 266//2 271//2 270//2
f 266//2 267//2 271//2
f 270//1 272//1 269//1
f 270//1 271//1 272//1
f 188//4 275//4 273//4
f 273//4 275//4 274//4
f 188//12 277//12 276//12
f 188//12 273//12 277//12
f 188//3 276//3 275//3
f 275//3 276//3 279//3
f 275//13 279//13 278//13
f 275//13 278//13 274//13
f 273//2 278//2 277//2
f 273//2 274//2 278//2
f 277//1 279//1 276//1
f 277//1 278//1 279//1
f 200//17 199//17 208//17
f 199//17 201//17 208//17
f 205//17 206//17 209//18
f 206//31 200//31 209//31
f 210//31 207//31 205//31
f 200//31 208//31 209//32
f 74//19 73//19 75//19
f 76//19 78//19 80//19
f 74//19 75//19 76//19
f 35//3 36//3 38//3
f 153//3 154//3 156//3
f 47//3 48//3 50//3
f 151//2 152//2 150//2
f 57//2 58//2 56//2
f 163//4 164//4 162//4
f 159//4 160//4 158//4
f 53//2 54//2 52//2
f 190//33 186//33 187//33
f 187//33 189//33 190//33
f 189//34 192//34 190//34
f 192//20 194//20 197//20
f 194//20 196//20 197//20
f 196//34 195//34 197//35
f 82//4 84//4 83//4
f 120//36 119//21 117//37
f 117//21 121//21 118//21
f 121//21 125//21 122//21
f 118//21 121//21 122//21
f 125//21 126//21 122//21
f 43//3 44//3 46//3
f 65//2 66//2 64//2
f 23//1 24//1 22//1
f 19//1 20//1 18//1
f 9//1 11//1 12//1
f 9//1 12//1 10//1
f 3//12 9//12 10//13
f 61//2 62//2 60//2
f 15//1 16//1 14//1
f 39//3 40//3 42//3
f 4//38 2//38 70//38
f 2//38 8//38 72//38
f 2//38 72//38 70//38
f 70//38 6//38 4//38
f 69//22 70//39 72//22
f 72//39 134//40 182//40
f 69//40 72//41 148//38
f 134//40 71//40 173//40
f 71//42 174//40 173//42
f 148//38 72//40 147//40
f 147//40 72//22 165//38
f 134//40 173//39 177//40
f 134//39 177//39 176//40
f 135//38 171//43 181//38
f 171//38 172//38 178//38
f 181//38 171//38 178//38
f 178//39 180//22 181//39
f 167//22 168//44 165//39
f 168//22 166//39 165//22
f 166//38 178//38 172//22
f 172//38 147//22 166//38
f 134//42 176//40 141//40
f 185//22 183//39 182//39
f 165//38 166//38 147//38
f 184//22 185//39 182//39
f 182//38 165//38 72//38
f 134//39 141//39 184//22
l 70 133
l 133 134
l 179 181
l 178 179
l 169 171
l 175 176
