# Created by Open3D 
# object name: m967
# number of vertices: 24
# number of triangles: 44
v 0.161064 0.19288 0.531108
vn -0.0218201 -0.132134 -0.990992
v 0.159708 0.215966 0.527434
vn 0.129651 -0.148225 -0.980418
v 0.162062 0.215994 0.526755
vn -0.609016 -0.159225 -0.777012
v 0.163407 0.192908 0.530427
vn -0.712105 0.11223 -0.693044
v 0.16324 0.215724 0.524631
vn -0.990131 -0.0765697 -0.117375
v 0.158935 0.192563 0.529948
vn 0.682977 0.0148172 -0.73029
v 0.157577 0.215664 0.526278
vn 0.791264 -0.0502833 -0.609404
v 0.163926 0.192242 0.525993
vn -0.683928 0.305202 0.662642
v 0.162568 0.215327 0.522319
vn -0.79054 0.0507534 0.610304
v 0.160441 0.21501 0.521161
vn -0.129796 0.148329 0.980383
v 0.161795 0.191934 0.524837
vn 0.0156809 0.246394 0.969043
v 0.158108 0.214985 0.521843
vn 0.609271 0.159368 0.776782
v 0.159453 0.191899 0.525515
vn 0.719042 0.175896 0.672339
v 0.156909 0.215252 0.523962
vn 0.989828 0.0772117 0.119494
v 0.164605 0.19264 0.528306
vn -0.999253 -0.0276254 0.0270149
v 0.158271 0.192168 0.527638
vn 0.937108 0.340916 -0.0748632
v 0.162142 0.234615 0.521635
vn -0.954355 -0.201989 -0.220017
v 0.158596 0.234856 0.524435
vn 0.252554 -0.169242 -0.952667
v 0.160939 0.234883 0.523755
vn -0.452858 -0.500396 -0.737918
v 0.155797 0.234142 0.520964
vn 0.942548 -0.190679 0.274309
v 0.159346 0.233901 0.518164
vn -0.219728 -0.178965 0.959005
v 0.156985 0.233874 0.518841
vn 0.508534 0.132199 0.850833
v 0.156466 0.234539 0.523275
vn 0.861214 -0.13779 -0.489208
v 0.161475 0.234203 0.519318
vn -0.857553 -0.000698204 0.514396
f 4//4 16//16 6//6
f 8//8 4//4 15//15
f 16//16 4//4 8//8
f 11//11 13//13 16//16
f 4//4 6//6 1//1
f 11//11 16//16 8//8
f 20//20 21//21 19//19
f 21//21 24//24 17//17
f 20//20 19//19 23//23
f 19//19 21//21 17//17
f 21//21 20//20 22//22
f 19//19 18//18 23//23
f 21//21 22//22 10//10
f 22//22 20//20 12//12
f 24//24 21//21 9//9
f 23//23 18//18 7//7
f 18//18 19//19 2//2
f 19//19 17//17 3//3
f 20//20 23//23 14//14
f 17//17 24//24 5//5
f 10//10 11//11 8//8
f 14//14 16//16 13//13
f 12//12 13//13 11//11
f 2//2 1//1 6//6
f 24//24 9//9 5//5
f 5//5 15//15 4//4
f 23//23 7//7 14//14
f 3//3 4//4 1//1
f 9//9 8//8 15//15
f 22//22 12//12 10//10
f 7//7 6//6 16//16
f 21//21 10//10 9//9
f 20//20 14//14 12//12
f 19//19 3//3 2//2
f 18//18 2//2 7//7
f 17//17 5//5 3//3
f 14//14 7//7 16//16
f 5//5 9//9 15//15
f 12//12 14//14 13//13
f 10//10 12//12 11//11
f 9//9 10//10 8//8
f 7//7 2//2 6//6
f 3//3 5//5 4//4
f 2//2 3//3 1//1
