# Blender 4.2.3 LTS
# www.blender.org
o m1675
v 0.232628 0.975000 0.043190
v 0.318628 0.889005 0.043190
v 0.318634 0.767387 0.043190
v 0.232643 0.681384 0.043190
v 0.111025 0.681371 0.043190
v 0.025018 0.767358 0.043190
v 0.025000 0.888976 0.043190
v 0.111010 0.974999 0.043190
v 0.111010 0.974999 0.044992
v 0.232628 0.975000 0.044992
v 0.318628 0.889005 0.044992
v 0.318634 0.767387 0.044992
v 0.232643 0.681384 0.044992
v 0.111025 0.681371 0.044992
v 0.025018 0.767358 0.044991
v 0.025000 0.888976 0.044991
v 0.180825 0.889796 0.043017
v 0.180825 0.025000 0.043017
v 0.162809 0.025000 0.043017
v 0.162809 0.889796 0.043017
v 0.180825 0.889796 0.025000
v 0.180825 0.025000 0.025000
v 0.162809 0.025000 0.025000
v 0.162809 0.889796 0.025000
v 0.113753 0.968378 0.044541
v 0.229886 0.968379 0.044541
v 0.312007 0.886262 0.044542
v 0.312013 0.770129 0.044542
v 0.229900 0.688004 0.044541
v 0.113767 0.687993 0.044541
v 0.031638 0.770102 0.044541
v 0.031622 0.886234 0.044541
v 0.111010 0.974999 0.044541
v 0.232628 0.975000 0.044541
v 0.318628 0.889005 0.044542
v 0.318634 0.767387 0.044542
v 0.232643 0.681384 0.044541
v 0.111025 0.681371 0.044541
v 0.025018 0.767358 0.044541
v 0.025000 0.888976 0.044541
vn -0.0000 -0.0000 -1.0000
vn -0.0000 1.0000 -0.0000
vn 0.7071 0.7071 -0.0000
vn 1.0000 -0.0000 -0.0000
vn 0.7072 -0.7071 -0.0000
vn 0.0001 -1.0000 -0.0000
vn -0.7070 -0.7072 -0.0000
vn -1.0000 -0.0001 -0.0000
vn -0.7072 0.7071 -0.0000
vn -0.0000 -0.0000 1.0000
vn -1.0000 -0.0000 -0.0000
vn -0.0000 -1.0000 -0.0000
s 0
f 2//1 3//1 4//1
f 1//1 2//1 4//1
f 8//1 1//1 4//1
f 7//1 8//1 4//1
f 6//1 7//1 4//1
f 5//1 6//1 4//1
f 1//2 8//2 9//2
f 10//2 1//2 9//2
f 2//3 1//3 10//3
f 11//3 2//3 10//3
f 3//4 2//4 11//4
f 12//4 3//4 11//4
f 4//5 3//5 12//5
f 13//5 4//5 12//5
f 5//6 4//6 13//6
f 14//6 5//6 13//6
f 6//7 5//7 14//7
f 15//7 6//7 14//7
f 7//8 6//8 15//8
f 16//8 7//8 15//8
f 8//9 7//9 16//9
f 9//9 8//9 16//9
f 19//10 18//10 17//10
f 20//10 19//10 17//10
f 22//1 23//1 24//1
f 21//1 22//1 24//1
f 23//11 19//11 20//11
f 24//11 23//11 20//11
f 18//4 22//4 21//4
f 17//4 18//4 21//4
f 27//10 26//10 25//10
f 28//10 27//10 25//10
f 29//10 28//10 25//10
f 30//10 29//10 25//10
f 31//10 30//10 25//10
f 32//10 31//10 25//10
f 25//10 26//10 34//10
f 33//10 25//10 34//10
f 26//10 27//10 35//10
f 34//10 26//10 35//10
f 27//10 28//10 36//10
f 35//10 27//10 36//10
f 28//10 29//10 37//10
f 36//10 28//10 37//10
f 29//10 30//10 38//10
f 37//10 29//10 38//10
f 30//10 31//10 39//10
f 38//10 30//10 39//10
f 31//10 32//10 40//10
f 39//10 31//10 40//10
f 32//10 25//10 33//10
f 40//10 32//10 33//10
f 12//10 11//10 10//10
f 18//12 23//12 22//12
f 21//2 20//2 17//2
f 33//1 35//1 37//1
f 10//10 9//10 16//10
f 16//10 15//10 10//10
f 15//10 14//10 10//10
f 14//10 13//10 10//10
f 13//10 12//10 10//10
f 18//12 19//12 23//12
f 21//2 24//2 20//2
f 39//1 40//1 33//1
f 33//1 34//1 35//1
f 35//1 36//1 37//1
f 37//1 38//1 39//1
f 39//1 33//1 37//1
