# Created by Open3D 
# object name: m454
# number of vertices: 24
# number of triangles: 44
v 0.246923 0.066156 0.412592
vn -0.0482111 0.766361 0.640599
v 0.246927 0.061115 0.412596
vn -0.634456 0.76012 0.140296
v 0.328672 0.061172 0.412653
vn 0.800405 0.481376 0.357253
v 0.328669 0.066213 0.412649
vn 0.0294505 0.981795 0.187647
v 0.246917 0.061124 0.426165
vn -0.0669766 0.603247 0.794737
v 0.328663 0.061181 0.426223
vn 0.051043 0.948642 0.312207
v 0.246924 0.052173 0.426172
vn -0.105492 0.945897 0.30684
v 0.328669 0.05223 0.426229
vn 0.132652 0.604606 0.785401
v 0.246914 0.052183 0.439932
vn -0.06814 0.599381 0.797559
v 0.32866 0.05224 0.439989
vn 0.052251 0.947655 0.314992
v 0.24692 0.043014 0.439939
vn -0.656289 0.714923 0.241184
v 0.328666 0.043071 0.439996
vn 0.735932 0.402695 0.544281
v 0.246911 0.043023 0.453481
vn -0.0668924 0.60249 0.795318
v 0.328657 0.04308 0.453538
vn 0.0510322 0.948458 0.312768
v 0.246917 0.034072 0.453487
vn -0.339113 0.892214 0.298256
v 0.328663 0.034129 0.453545
vn 0.411981 0.545317 0.730001
v 0.246908 0.034081 0.466839
vn -0.360817 0.565772 0.741426
v 0.328654 0.034138 0.466896
vn 0.288576 0.909916 0.297953
v 0.246914 0.025321 0.466845
vn -0.0527384 -0.996369 0.0668408
v 0.32866 0.025378 0.466902
vn 0.103508 -0.961077 0.256159
v 0.24696 0.025275 0.400904
vn -0.325334 -0.596644 -0.733603
v 0.328706 0.025332 0.400961
vn 0.253964 -0.924634 -0.283822
v 0.246932 0.065875 0.400875
vn -0.136598 0.489528 -0.861222
v 0.328677 0.065932 0.400933
vn 0.0798222 0.141256 -0.98675
f 3//3 6//6 8//8
f 12//12 3//3 8//8
f 10//10 12//12 8//8
f 22//22 3//3 12//12
f 16//16 22//22 12//12
f 14//14 16//16 12//12
f 18//18 22//22 16//16
f 20//20 22//22 18//18
f 24//24 3//3 22//22
f 4//4 3//3 24//24
f 5//5 2//2 7//7
f 2//2 11//11 7//7
f 11//11 9//9 7//7
f 2//2 21//21 11//11
f 21//21 15//15 11//11
f 15//15 13//13 11//11
f 21//21 17//17 15//15
f 21//21 19//19 17//17
f 2//2 23//23 21//21
f 2//2 1//1 23//23
f 4//4 24//24 23//23
f 1//1 4//4 23//23
f 24//24 22//22 21//21
f 23//23 24//24 21//21
f 22//22 20//20 19//19
f 21//21 22//22 19//19
f 20//20 18//18 17//17
f 19//19 20//20 17//17
f 18//18 16//16 15//15
f 17//17 18//18 15//15
f 16//16 14//14 13//13
f 15//15 16//16 13//13
f 14//14 12//12 11//11
f 13//13 14//14 11//11
f 12//12 10//10 9//9
f 11//11 12//12 9//9
f 10//10 8//8 7//7
f 9//9 10//10 7//7
f 8//8 6//6 5//5
f 7//7 8//8 5//5
f 6//6 3//3 2//2
f 5//5 6//6 2//2
f 3//3 4//4 1//1
f 2//2 3//3 1//1
