# Blender 4.2.3 LTS
# www.blender.org
o m1082
v 0.271519 0.121203 0.230862
v 0.265777 0.121203 0.248532
v 0.271519 0.025000 0.230862
v 0.265777 0.025000 0.248532
v 0.241456 0.025000 0.230862
v 0.241456 0.121203 0.230862
v 0.250746 0.121203 0.259453
v 0.250746 0.025000 0.259453
v 0.232166 0.121203 0.259453
v 0.232166 0.025000 0.259453
v 0.217134 0.121203 0.248532
v 0.217134 0.025000 0.248532
v 0.211392 0.121203 0.230862
v 0.211392 0.025000 0.230862
v 0.217134 0.121203 0.213191
v 0.217134 0.025000 0.213191
v 0.232166 0.121203 0.202270
v 0.232166 0.025000 0.202270
v 0.250746 0.121203 0.202270
v 0.250746 0.025000 0.202270
v 0.265777 0.121203 0.213191
v 0.265777 0.025000 0.213191
v 0.241456 0.590190 0.230862
v 0.416572 0.085127 0.358091
v 0.241456 0.085127 0.230862
v 0.308344 0.085127 0.436723
v 0.174567 0.085127 0.436723
v 0.066339 0.085127 0.358091
v 0.025000 0.085127 0.230862
v 0.066339 0.085127 0.103632
v 0.174567 0.085127 0.025000
v 0.308344 0.085127 0.025000
v 0.416572 0.085127 0.103632
v 0.457911 0.085127 0.230862
v 0.241456 0.698418 0.230862
v 0.377657 0.265506 0.329818
v 0.241456 0.265506 0.230862
v 0.293480 0.265506 0.390976
v 0.189431 0.265506 0.390976
v 0.105254 0.265506 0.329818
v 0.073101 0.265506 0.230862
v 0.105254 0.265506 0.131905
v 0.189431 0.265506 0.070747
v 0.293480 0.265506 0.070747
v 0.377657 0.265506 0.131905
v 0.409810 0.265506 0.230862
v 0.241456 0.806646 0.230862
v 0.338743 0.445886 0.301545
v 0.241456 0.445886 0.230862
v 0.278616 0.445886 0.345229
v 0.204295 0.445886 0.345229
v 0.144169 0.445886 0.301545
v 0.121203 0.445886 0.230862
v 0.144169 0.445886 0.160179
v 0.204295 0.445886 0.116494
v 0.278616 0.445886 0.116494
v 0.338743 0.445886 0.160179
v 0.361709 0.445886 0.230862
v 0.241456 0.914873 0.230862
v 0.299828 0.626266 0.273271
v 0.241456 0.626266 0.230862
v 0.263752 0.626266 0.299482
v 0.219160 0.626266 0.299482
v 0.183084 0.626266 0.273271
v 0.169304 0.626266 0.230862
v 0.183084 0.626266 0.188452
v 0.219160 0.626266 0.162241
v 0.263752 0.626266 0.162241
v 0.299828 0.626266 0.188452
v 0.313608 0.626266 0.230862
v 0.241456 0.975000 0.230862
v 0.280370 0.758544 0.259135
v 0.289557 0.758544 0.230862
v 0.241456 0.758544 0.230862
v 0.256320 0.758544 0.276609
v 0.226592 0.758544 0.276609
v 0.202541 0.758544 0.259135
v 0.193354 0.758544 0.230862
v 0.202541 0.758544 0.202588
v 0.226592 0.758544 0.185115
v 0.256320 0.758544 0.185115
v 0.280370 0.758544 0.202588
vn 0.9510 -0.0000 0.3091
vn -0.0000 -1.0000 -0.0000
vn -0.0000 1.0000 -0.0000
vn 0.5878 -0.0000 0.8090
vn -0.0000 -0.0000 1.0000
vn -0.5878 -0.0000 0.8090
vn -0.9510 -0.0000 0.3090
vn -0.9511 -0.0000 -0.3090
vn -0.5878 -0.0000 -0.8090
vn -0.0000 -0.0000 -1.0000
vn 0.5878 -0.0000 -0.8090
vn 0.9511 -0.0000 -0.3090
vn 0.8807 0.3774 0.2862
vn 0.5443 0.3774 0.7492
vn -0.0000 0.3774 0.9260
vn -0.5443 0.3774 0.7492
vn -0.8807 0.3774 0.2862
vn -0.8807 0.3774 -0.2862
vn -0.5443 0.3774 -0.7492
vn -0.0000 0.3774 -0.9260
vn 0.5443 0.3774 -0.7492
vn 0.8807 0.3774 -0.2862
vn 0.8920 0.3469 0.2898
vn 0.5513 0.3469 0.7588
vn -0.0000 0.3469 0.9379
vn -0.5513 0.3469 0.7588
vn -0.8920 0.3469 0.2898
vn -0.8920 0.3469 -0.2898
vn -0.5513 0.3469 -0.7588
vn -0.0000 0.3469 -0.9379
vn 0.5513 0.3469 -0.7588
vn 0.8920 0.3469 -0.2898
vn 0.9066 0.3022 0.2946
vn 0.5603 0.3022 0.7712
vn -0.0000 0.3022 0.9532
vn -0.5603 0.3022 0.7712
vn -0.9066 0.3022 0.2946
vn -0.9066 0.3022 -0.2946
vn -0.5603 0.3022 -0.7712
vn -0.0000 0.3022 -0.9532
vn 0.5603 0.3022 -0.7712
vn 0.9066 0.3022 -0.2946
vn 0.9253 0.2313 0.3006
vn 0.5718 0.2313 0.7871
vn -0.0000 0.2313 0.9729
vn -0.5718 0.2313 0.7871
vn -0.9253 0.2313 0.3006
vn -0.9253 0.2313 -0.3006
vn -0.5718 0.2313 -0.7871
vn -0.0000 0.2313 -0.9729
vn 0.5718 0.2313 -0.7871
vn 0.9253 0.2313 -0.3006
vn 0.9305 0.2068 0.3024
vn 0.5751 0.2068 0.7915
vn -0.0000 0.2068 0.9784
vn -0.5751 0.2068 0.7915
vn -0.9305 0.2068 0.3024
vn -0.9305 0.2068 -0.3023
vn -0.5751 0.2068 -0.7915
vn -0.0000 0.2068 -0.9784
vn 0.5751 0.2068 -0.7915
vn 0.9305 0.2068 -0.3023
s 0
f 1//1 2//1 3//1
f 2//1 4//1 3//1
f 5//2 3//2 4//2
f 6//3 2//3 1//3
f 2//4 7//4 4//4
f 7//4 8//4 4//4
f 5//2 4//2 8//2
f 6//3 7//3 2//3
f 7//5 9//5 8//5
f 9//5 10//5 8//5
f 5//2 8//2 10//2
f 6//3 9//3 7//3
f 9//6 11//6 10//6
f 11//6 12//6 10//6
f 5//2 10//2 12//2
f 6//3 11//3 9//3
f 11//7 13//7 12//7
f 13//7 14//7 12//7
f 5//2 12//2 14//2
f 6//3 13//3 11//3
f 13//8 15//8 14//8
f 15//8 16//8 14//8
f 5//2 14//2 16//2
f 6//3 15//3 13//3
f 15//9 17//9 16//9
f 17//9 18//9 16//9
f 5//2 16//2 18//2
f 6//3 17//3 15//3
f 17//10 19//10 18//10
f 19//10 20//10 18//10
f 5//2 18//2 20//2
f 6//3 19//3 17//3
f 19//11 21//11 20//11
f 21//11 22//11 20//11
f 5//2 20//2 22//2
f 6//3 21//3 19//3
f 21//12 1//12 22//12
f 1//12 3//12 22//12
f 5//2 22//2 3//2
f 6//3 1//3 21//3
f 23//13 24//13 34//13
f 25//2 34//2 24//2
f 23//14 26//14 24//14
f 25//2 24//2 26//2
f 23//15 27//15 26//15
f 25//2 26//2 27//2
f 23//16 28//16 27//16
f 25//2 27//2 28//2
f 23//17 29//17 28//17
f 25//2 28//2 29//2
f 23//18 30//18 29//18
f 25//2 29//2 30//2
f 23//19 31//19 30//19
f 25//2 30//2 31//2
f 23//20 32//20 31//20
f 25//2 31//2 32//2
f 23//21 33//21 32//21
f 25//2 32//2 33//2
f 23//22 34//22 33//22
f 25//2 33//2 34//2
f 35//23 36//23 46//23
f 37//2 46//2 36//2
f 35//24 38//24 36//24
f 37//2 36//2 38//2
f 35//25 39//25 38//25
f 37//2 38//2 39//2
f 35//26 40//26 39//26
f 37//2 39//2 40//2
f 35//27 41//27 40//27
f 37//2 40//2 41//2
f 35//28 42//28 41//28
f 37//2 41//2 42//2
f 35//29 43//29 42//29
f 37//2 42//2 43//2
f 35//30 44//30 43//30
f 37//2 43//2 44//2
f 35//31 45//31 44//31
f 37//2 44//2 45//2
f 35//32 46//32 45//32
f 37//2 45//2 46//2
f 47//33 48//33 58//33
f 49//2 58//2 48//2
f 47//34 50//34 48//34
f 49//2 48//2 50//2
f 47//35 51//35 50//35
f 49//2 50//2 51//2
f 47//36 52//36 51//36
f 49//2 51//2 52//2
f 47//37 53//37 52//37
f 49//2 52//2 53//2
f 47//38 54//38 53//38
f 49//2 53//2 54//2
f 47//39 55//39 54//39
f 49//2 54//2 55//2
f 47//40 56//40 55//40
f 49//2 55//2 56//2
f 47//41 57//41 56//41
f 49//2 56//2 57//2
f 47//42 58//42 57//42
f 49//2 57//2 58//2
f 59//43 60//43 70//43
f 61//2 70//2 60//2
f 59//44 62//44 60//44
f 61//2 60//2 62//2
f 59//45 63//45 62//45
f 61//2 62//2 63//2
f 59//46 64//46 63//46
f 61//2 63//2 64//2
f 59//47 65//47 64//47
f 61//2 64//2 65//2
f 59//48 66//48 65//48
f 61//2 65//2 66//2
f 59//49 67//49 66//49
f 61//2 66//2 67//2
f 59//50 68//50 67//50
f 61//2 67//2 68//2
f 59//51 69//51 68//51
f 61//2 68//2 69//2
f 59//52 70//52 69//52
f 61//2 69//2 70//2
f 71//53 72//53 73//53
f 74//2 73//2 72//2
f 71//54 75//54 72//54
f 74//2 72//2 75//2
f 71//55 76//55 75//55
f 74//2 75//2 76//2
f 71//56 77//56 76//56
f 74//2 76//2 77//2
f 71//57 78//57 77//57
f 74//2 77//2 78//2
f 71//58 79//58 78//58
f 74//2 78//2 79//2
f 71//59 80//59 79//59
f 74//2 79//2 80//2
f 71//60 81//60 80//60
f 74//2 80//2 81//2
f 71//61 82//61 81//61
f 74//2 81//2 82//2
f 71//62 73//62 82//62
f 74//2 82//2 73//2
