# Created by Open3D 
# object name: D00315
# number of vertices: 66
# number of triangles: 128
v -0.760098 0.004096 -0.142845
vn -0.269085 -0.0767375 -0.960054
v -0.768596 -0.083766 -0.103342
vn -0.346503 -0.484359 -0.803325
v -0.847541 0.015967 -0.079789
vn -0.95115 -0.0444054 -0.305519
v -0.813491 0.032881 0.018703
vn -0.830677 0.0208659 0.556364
v -0.804546 0.120291 -0.020731
vn -0.829265 0.405254 0.384824
v -0.62963 -0.165845 -0.088546
vn -0.0578744 -0.605054 -0.794078
v -0.665905 -0.218528 0.032044
vn -0.345905 -0.9358 -0.0680241
v -0.788041 -0.111554 -0.039538
vn -0.647638 -0.71594 -0.260759
v -0.626334 0.179934 -0.149069
vn -0.0773254 0.437973 -0.895656
v -0.613144 -0.000895 -0.163361
vn 0.021021 -0.117856 -0.992808
v -0.697522 0.21834 0.066482
vn -0.504895 0.58475 0.63494
v -0.661237 0.271102 -0.053657
vn -0.376825 0.914885 -0.144874
v -0.785566 0.148004 -0.084969
vn -0.748103 0.6364 -0.187983
v -0.700819 -0.127438 0.127004
vn -0.5196 -0.463871 0.717524
v -0.714001 0.053469 0.141744
vn -0.518352 0.0961358 0.849747
v -0.381504 -0.202666 -0.045981
vn 0.0321409 -0.674592 -0.737491
v -0.414562 -0.266993 0.105585
vn -0.123452 -0.983605 0.131456
v -0.377433 0.224422 -0.120735
vn 0.0661969 0.412918 -0.908359
v -0.366271 0.00085 -0.139941
vn 0.0777982 -0.159347 -0.984152
v -0.441396 0.272746 0.151865
vn -0.250497 0.673694 0.695261
v -0.408803 0.337004 -0.000134
vn -0.0880299 0.980893 -0.173494
v -0.445468 -0.154343 0.226619
vn -0.25728 -0.416078 0.872173
v -0.456629 0.069233 0.245827
vn -0.284637 0.157509 0.945607
v -0.13064 -0.199968 -0.027426
vn 0.126273 -0.728778 -0.673007
v -0.161112 -0.261538 0.137412
vn 0.0962447 -0.968077 0.231437
v -0.126602 0.223546 -0.101554
vn 0.13427 0.409894 -0.902196
v -0.116457 0.000835 -0.126418
vn 0.111647 -0.189302 -0.975551
v -0.185869 0.276422 0.197314
vn 0.0441347 0.708566 0.704263
v -0.155401 0.337548 0.032553
vn 0.141432 0.9748 -0.172517
v -0.189907 -0.147092 0.271442
vn 0.00387054 -0.405779 0.913963
v -0.200055 0.075622 0.296302
vn -0.0143534 0.178657 0.983807
v 0.062633 -0.155827 -0.012014
vn 0.364585 -0.732624 -0.574752
v 0.064802 -0.205096 0.122282
vn 0.369987 -0.876122 0.309064
v 0.06587 0.183698 -0.071442
vn 0.349252 0.328562 -0.877536
v 0.063065 0.005035 -0.092648
vn 0.332509 -0.233149 -0.913827
v 0.071563 0.226409 0.172885
vn 0.354519 0.719821 0.596803
v 0.069385 0.275601 0.038145
vn 0.407533 0.874152 -0.264151
v 0.068326 -0.113116 0.232312
vn 0.297767 -0.322338 0.898573
v 0.071121 0.06547 0.253071
vn 0.292601 0.231311 0.927836
v 0.136737 -0.097816 0.023556
vn 0.131149 -0.657183 -0.742233
v 0.138038 -0.133681 0.108091
vn 0.236067 -0.967067 0.0951495
v 0.139003 0.139853 -0.018044
vn 0.209703 0.446102 -0.870068
v 0.137131 0.015476 -0.028958
vn 0.130275 -0.131991 -0.982653
v 0.142552 0.166479 0.134269
vn 0.179908 0.652651 0.735989
v 0.14124 0.202269 0.049289
vn 0.257863 0.960267 -0.106743
v 0.140286 -0.071191 0.175869
vn 0.233362 -0.451925 0.860991
v 0.142147 0.053112 0.186336
vn 0.174645 0.128473 0.976214
v 0.321115 -0.112361 -0.002147
vn 0.00963962 -0.747148 -0.664588
v 0.322923 -0.14774 0.106241
vn 0.0553725 -0.976035 0.21045
v 0.323534 0.141391 -0.046562
vn -0.0104993 0.437584 -0.899116
v 0.321356 0.007255 -0.065892
vn -0.0394578 -0.184627 -0.982016
v 0.328165 0.176137 0.152206
vn 0.0583543 0.747214 0.662016
v 0.326343 0.210994 0.043451
vn 0.0725542 0.974316 -0.213176
v 0.325746 -0.077615 0.19662
vn 0.0168345 -0.436356 0.899617
v 0.327913 0.056446 0.215503
vn 0.00709922 0.18435 0.982835
v 0.452365 -0.086679 0.00965
vn 0.565397 -0.676867 -0.471357
v 0.453834 -0.115065 0.097479
vn 0.617959 -0.745844 0.248686
v 0.454324 0.118822 -0.026319
vn 0.547291 0.291473 -0.784549
v 0.452564 0.010215 -0.041836
vn 0.511804 -0.238721 -0.825269
v 0.458071 0.146931 0.134478
vn 0.60273 0.662022 0.445469
v 0.456602 0.175317 0.046653
vn 0.625741 0.730271 -0.27414
v 0.456112 -0.058571 0.170447
vn 0.572852 -0.305212 0.760714
v 0.457872 0.050037 0.185964
vn 0.552668 0.223656 0.80283
v 0.496478 0.029581 0.0712
vn 0.999693 -0.0132029 -0.0209867
v -0.806297 -0.063322 0.011407
vn -0.826296 -0.420011 0.375267
v -0.766845 0.099847 -0.13548
vn -0.445689 0.3772 -0.811838
f 66//66 3//3 13//13
f 65//65 3//3 8//8
f 6//6 2//2 10//10
f 9//9 66//66 12//12
f 11//11 5//5 15//15
f 14//14 65//65 7//7
f 16//16 6//6 19//19
f 18//18 9//9 21//21
f 20//20 11//11 23//23
f 22//22 14//14 17//17
f 24//24 16//16 27//27
f 26//26 18//18 29//29
f 28//28 20//20 31//31
f 30//30 22//22 25//25
f 32//32 24//24 35//35
f 34//34 26//26 37//37
f 36//36 28//28 39//39
f 38//38 30//30 33//33
f 40//40 32//32 43//43
f 42//42 34//34 45//45
f 44//44 36//36 47//47
f 46//46 38//38 41//41
f 48//48 40//40 51//51
f 50//50 42//42 53//53
f 52//52 44//44 55//55
f 54//54 46//46 49//49
f 56//56 48//48 59//59
f 58//58 50//50 61//61
f 60//60 52//52 63//63
f 62//62 54//54 57//57
f 58//58 61//61 64//64
f 62//62 57//57 64//64
f 61//61 60//60 64//64
f 57//57 56//56 64//64
f 55//55 54//54 62//62
f 53//53 52//52 60//60
f 51//51 50//50 58//58
f 49//49 48//48 56//56
f 47//47 46//46 54//54
f 45//45 44//44 52//52
f 43//43 42//42 50//50
f 41//41 40//40 48//48
f 39//39 38//38 46//46
f 37//37 36//36 44//44
f 35//35 34//34 42//42
f 33//33 32//32 40//40
f 31//31 30//30 38//38
f 29//29 28//28 36//36
f 27//27 26//26 34//34
f 25//25 24//24 32//32
f 23//23 22//22 30//30
f 21//21 20//20 28//28
f 19//19 18//18 26//26
f 17//17 16//16 24//24
f 15//15 14//14 22//22
f 12//12 11//11 20//20
f 10//10 9//9 18//18
f 7//7 6//6 16//16
f 4//4 65//65 14//14
f 13//13 5//5 11//11
f 1//1 66//66 9//9
f 8//8 2//2 6//6
f 13//13 3//3 5//5
f 8//8 3//3 2//2
f 1//1 3//3 66//66
f 4//4 3//3 65//65
f 2//2 1//1 10//10
f 66//66 13//13 12//12
f 5//5 4//4 15//15
f 65//65 8//8 7//7
f 6//6 10//10 19//19
f 9//9 12//12 21//21
f 11//11 15//15 23//23
f 14//14 7//7 17//17
f 16//16 19//19 27//27
f 18//18 21//21 29//29
f 20//20 23//23 31//31
f 22//22 17//17 25//25
f 24//24 27//27 35//35
f 26//26 29//29 37//37
f 28//28 31//31 39//39
f 30//30 25//25 33//33
f 32//32 35//35 43//43
f 34//34 37//37 45//45
f 36//36 39//39 47//47
f 38//38 33//33 41//41
f 40//40 43//43 51//51
f 42//42 45//45 53//53
f 44//44 47//47 55//55
f 46//46 41//41 49//49
f 48//48 51//51 59//59
f 50//50 53//53 61//61
f 52//52 55//55 63//63
f 54//54 49//49 57//57
f 59//59 58//58 64//64
f 63//63 62//62 64//64
f 60//60 63//63 64//64
f 56//56 59//59 64//64
f 63//63 55//55 62//62
f 61//61 53//53 60//60
f 59//59 51//51 58//58
f 57//57 49//49 56//56
f 55//55 47//47 54//54
f 53//53 45//45 52//52
f 51//51 43//43 50//50
f 49//49 41//41 48//48
f 47//47 39//39 46//46
f 45//45 37//37 44//44
f 43//43 35//35 42//42
f 41//41 33//33 40//40
f 39//39 31//31 38//38
f 37//37 29//29 36//36
f 35//35 27//27 34//34
f 33//33 25//25 32//32
f 31//31 23//23 30//30
f 29//29 21//21 28//28
f 27//27 19//19 26//26
f 25//25 17//17 24//24
f 23//23 15//15 22//22
f 21//21 12//12 20//20
f 19//19 10//10 18//18
f 17//17 7//7 16//16
f 15//15 4//4 14//14
f 12//12 13//13 11//11
f 10//10 1//1 9//9
f 7//7 8//8 6//6
f 5//5 3//3 4//4
f 2//2 3//3 1//1
