# Created by Open3D 
# object name: D00989
# number of vertices: 82
# number of triangles: 160
v 1.00148 0.048266 0.051419
vn 0.287656 0.314964 0.904462
v 0.991375 -0.062714 0.073371
vn 0.204458 -0.118362 0.971693
v 1.06526 -0.068985 0.015301
vn 0.995579 -0.0930403 -0.012904
v 0.979416 -0.171819 -0.062782
vn 0.395686 -0.268891 -0.87814
v 0.989634 -0.060924 -0.075248
vn 0.375795 -0.000136992 -0.926703
v 0.75561 0.196459 -0.029289
vn 0.22393 0.970375 0.0907122
v 0.750385 0.126767 0.068868
vn 0.122395 0.452049 0.883556
v 1.0051 0.094807 -0.003968
vn 0.529208 0.8118 0.246821
v 0.735379 -0.039163 0.108033
vn 0.0663562 -0.0566137 0.996189
v 0.719428 -0.204078 0.065246
vn 0.0237188 -0.571741 0.820091
v 0.711845 -0.271413 -0.034411
vn 0.032039 -0.995041 -0.0941621
v 0.717073 -0.201692 -0.132567
vn 0.121881 -0.375983 -0.918576
v 0.975797 -0.218327 -0.007395
vn 0.408066 -0.87729 -0.252676
v 0.73239 -0.036136 -0.142939
vn 0.146142 0.0102816 -0.98921
v 0.748029 0.129152 -0.128946
vn 0.200654 0.483369 -0.85211
v 0.378508 0.240379 -0.035476
vn 0.0324903 0.997759 -0.0584863
v 0.373234 0.167982 0.07834
vn 0.0212894 0.569719 0.821564
v 0.357776 -0.00401 0.123935
vn -0.00802906 0.0133552 0.999879
v 0.341186 -0.174856 0.074587
vn -0.0767245 -0.519928 0.850757
v 0.333183 -0.244489 -0.040784
vn -0.162601 -0.984855 0.0601838
v 0.338456 -0.172091 -0.15463
vn -0.0800024 -0.510681 -0.85604
v 0.354243 -0.000432 -0.172699
vn 0.00715786 0.0162961 -0.999842
v 0.370505 0.170746 -0.150877
vn 0.0147558 0.441833 -0.896976
v 0.154998 0.209193 -0.026926
vn -0.296532 0.946449 -0.127687
v 0.150887 0.152152 0.066166
vn -0.243836 0.63094 0.736518
v 0.13873 0.016691 0.103511
vn -0.224333 0.078465 0.971348
v 0.125651 -0.117806 0.063211
vn -0.31075 -0.448469 0.83804
v 0.119309 -0.172586 -0.031105
vn -0.451588 -0.881475 0.138098
v 0.123419 -0.115546 -0.124197
vn -0.364396 -0.560213 -0.743893
v 0.135688 0.019771 -0.151915
vn -0.20166 0.00869943 -0.979417
v 0.148655 0.154413 -0.121242
vn -0.241295 0.438731 -0.865616
v 0.073098 0.137016 -0.033086
vn -0.00502052 0.993205 0.116266
v 0.070691 0.103627 0.023564
vn -0.042491 0.515618 0.855764
v 0.06359 0.02437 0.046323
vn -0.0861329 -0.0552143 0.994752
v 0.055926 -0.054317 0.021835
vn -0.152807 -0.628702 0.762485
v 0.052187 -0.086363 -0.035531
vn -0.203779 -0.972433 -0.113347
v 0.054568 -0.052942 -0.092183
vn -0.129988 -0.500736 -0.855784
v 0.061669 0.026315 -0.114939
vn -0.0276478 0.075048 -0.996797
v 0.069362 0.104999 -0.090455
vn 0.0106181 0.638625 -0.769445
v -0.129695 0.209801 -0.029822
vn 0.215024 0.975932 -0.0363388
v -0.133271 0.160459 0.051457
vn 0.164092 0.575483 0.801182
v -0.143777 0.043341 0.084084
vn 0.0939955 0.00440919 0.995563
v -0.155091 -0.072959 0.048901
vn 0.0528407 -0.562723 0.824955
v -0.160585 -0.12033 -0.033435
vn 0.0314531 -0.998951 0.0332698
v -0.157039 -0.070985 -0.114717
vn 0.0341634 -0.593908 -0.803807
v -0.146533 0.046132 -0.147316
vn 0.065979 -0.019333 -0.997634
v -0.13519 0.162429 -0.112162
vn 0.134853 0.54511 -0.827448
v -0.216388 0.203376 -0.028867
vn -0.369797 0.925701 -0.0795442
v -0.219626 0.158324 0.045332
vn -0.317848 0.606774 0.728559
v -0.229216 0.051427 0.075085
vn -0.308533 0.0675469 0.948812
v -0.239542 -0.054725 0.043
vn -0.404088 -0.452431 0.794996
v -0.244556 -0.097947 -0.032165
vn -0.532656 -0.8414 0.0912335
v -0.241321 -0.052924 -0.106365
vn -0.443202 -0.535821 -0.718657
v -0.231731 0.053974 -0.136117
vn -0.339678 -0.00698842 -0.940516
v -0.221405 0.160126 -0.104032
vn -0.333467 0.521245 -0.785559
v -0.262782 0.151683 -0.028967
vn -0.197584 0.978428 0.0603207
v -0.264837 0.123233 0.019289
vn -0.129487 0.556565 0.820651
v -0.270886 0.055721 0.038668
vn -0.130404 -0.0352946 0.990833
v -0.277411 -0.011278 0.017817
vn -0.260748 -0.599156 0.756982
v -0.280595 -0.038559 -0.031049
vn -0.376813 -0.924788 -0.0527244
v -0.278568 -0.010107 -0.079305
vn -0.251564 -0.521007 -0.815639
v -0.272522 0.057377 -0.098684
vn -0.147327 0.0611214 -0.987197
v -0.265965 0.124402 -0.077832
vn -0.164685 0.638806 -0.751535
v -0.34633 0.177692 -0.027629
vn 0.0905044 0.995885 0.00470513
v -0.348677 0.14374 0.037665
vn 0.099773 0.611285 0.785096
v -0.355834 0.063384 0.064004
vn 0.0799441 -0.0209714 0.996579
v -0.363639 -0.016315 0.035913
vn -0.000824073 -0.636014 0.771677
v -0.367518 -0.048657 -0.030106
vn -0.10187 -0.994787 -0.00456781
v -0.365203 -0.014732 -0.095404
vn -0.0730888 -0.614057 -0.785871
v -0.358046 0.065624 -0.12171
vn 0.0138163 0.0122567 -0.999829
v -0.350212 0.145321 -0.093652
vn 0.0675686 0.630214 -0.773476
v -0.42804 0.165454 -0.02324
vn -0.530835 0.841486 -0.100572
v -0.429977 0.137412 0.031231
vn -0.481912 0.647335 0.590524
v -0.435888 0.071015 0.053178
vn -0.469223 0.121231 0.874719
v -0.442342 0.005137 0.029783
vn -0.555181 -0.419464 0.718209
v -0.445554 -0.021587 -0.025287
vn -0.668643 -0.734379 0.116632
v -0.443646 0.006458 -0.079757
vn -0.650396 -0.519333 -0.554327
v -0.437733 0.072883 -0.101704
vn -0.57374 -0.0199031 -0.818796
v -0.431252 0.13873 -0.07831
vn -0.541085 0.502393 -0.67441
v -0.472591 0.07525 -0.020234
vn -0.995577 0.0930584 0.0129114
v 1.00014 0.049614 -0.060358
vn 0.502686 0.467713 -0.727015
v 0.980747 -0.173167 0.048995
vn 0.243657 -0.602802 0.759777
f 13//13 3//3 82//82
f 8//8 3//3 81//81
f 9//9 1//1 7//7
f 11//11 82//82 10//10
f 14//14 4//4 12//12
f 6//6 81//81 15//15
f 18//18 7//7 17//17
f 20//20 10//10 19//19
f 22//22 12//12 21//21
f 16//16 15//15 23//23
f 26//26 17//17 25//25
f 28//28 19//19 27//27
f 30//30 21//21 29//29
f 24//24 23//23 31//31
f 34//34 25//25 33//33
f 36//36 27//27 35//35
f 38//38 29//29 37//37
f 32//32 31//31 39//39
f 42//42 33//33 41//41
f 44//44 35//35 43//43
f 46//46 37//37 45//45
f 40//40 39//39 47//47
f 50//50 41//41 49//49
f 52//52 43//43 51//51
f 54//54 45//45 53//53
f 48//48 47//47 55//55
f 58//58 49//49 57//57
f 60//60 51//51 59//59
f 62//62 53//53 61//61
f 56//56 55//55 63//63
f 66//66 57//57 65//65
f 68//68 59//59 67//67
f 70//70 61//61 69//69
f 64//64 63//63 71//71
f 74//74 65//65 73//73
f 76//76 67//67 75//75
f 78//78 69//69 77//77
f 72//72 71//71 79//79
f 80//80 76//76 75//75
f 80//80 72//72 79//79
f 80//80 77//77 76//76
f 80//80 73//73 72//72
f 79//79 71//71 70//70
f 77//77 69//69 68//68
f 75//75 67//67 66//66
f 73//73 65//65 64//64
f 71//71 63//63 62//62
f 69//69 61//61 60//60
f 67//67 59//59 58//58
f 65//65 57//57 56//56
f 63//63 55//55 54//54
f 61//61 53//53 52//52
f 59//59 51//51 50//50
f 57//57 49//49 48//48
f 55//55 47//47 46//46
f 53//53 45//45 44//44
f 51//51 43//43 42//42
f 49//49 41//41 40//40
f 47//47 39//39 38//38
f 45//45 37//37 36//36
f 43//43 35//35 34//34
f 41//41 33//33 32//32
f 39//39 31//31 30//30
f 37//37 29//29 28//28
f 35//35 27//27 26//26
f 33//33 25//25 24//24
f 31//31 23//23 22//22
f 29//29 21//21 20//20
f 27//27 19//19 18//18
f 25//25 17//17 16//16
f 23//23 15//15 14//14
f 21//21 12//12 11//11
f 19//19 10//10 9//9
f 17//17 7//7 6//6
f 15//15 81//81 5//5
f 12//12 4//4 13//13
f 10//10 82//82 2//2
f 7//7 1//1 8//8
f 4//4 3//3 13//13
f 1//1 3//3 8//8
f 82//82 3//3 2//2
f 81//81 3//3 5//5
f 9//9 2//2 1//1
f 11//11 13//13 82//82
f 14//14 5//5 4//4
f 6//6 8//8 81//81
f 18//18 9//9 7//7
f 20//20 11//11 10//10
f 22//22 14//14 12//12
f 16//16 6//6 15//15
f 26//26 18//18 17//17
f 28//28 20//20 19//19
f 30//30 22//22 21//21
f 24//24 16//16 23//23
f 34//34 26//26 25//25
f 36//36 28//28 27//27
f 38//38 30//30 29//29
f 32//32 24//24 31//31
f 42//42 34//34 33//33
f 44//44 36//36 35//35
f 46//46 38//38 37//37
f 40//40 32//32 39//39
f 50//50 42//42 41//41
f 52//52 44//44 43//43
f 54//54 46//46 45//45
f 48//48 40//40 47//47
f 58//58 50//50 49//49
f 60//60 52//52 51//51
f 62//62 54//54 53//53
f 56//56 48//48 55//55
f 66//66 58//58 57//57
f 68//68 60//60 59//59
f 70//70 62//62 61//61
f 64//64 56//56 63//63
f 74//74 66//66 65//65
f 76//76 68//68 67//67
f 78//78 70//70 69//69
f 72//72 64//64 71//71
f 80//80 75//75 74//74
f 80//80 79//79 78//78
f 80//80 78//78 77//77
f 80//80 74//74 73//73
f 79//79 70//70 78//78
f 77//77 68//68 76//76
f 75//75 66//66 74//74
f 73//73 64//64 72//72
f 71//71 62//62 70//70
f 69//69 60//60 68//68
f 67//67 58//58 66//66
f 65//65 56//56 64//64
f 63//63 54//54 62//62
f 61//61 52//52 60//60
f 59//59 50//50 58//58
f 57//57 48//48 56//56
f 55//55 46//46 54//54
f 53//53 44//44 52//52
f 51//51 42//42 50//50
f 49//49 40//40 48//48
f 47//47 38//38 46//46
f 45//45 36//36 44//44
f 43//43 34//34 42//42
f 41//41 32//32 40//40
f 39//39 30//30 38//38
f 37//37 28//28 36//36
f 35//35 26//26 34//34
f 33//33 24//24 32//32
f 31//31 22//22 30//30
f 29//29 20//20 28//28
f 27//27 18//18 26//26
f 25//25 16//16 24//24
f 23//23 14//14 22//22
f 21//21 11//11 20//20
f 19//19 9//9 18//18
f 17//17 6//6 16//16
f 15//15 5//5 14//14
f 12//12 13//13 11//11
f 10//10 2//2 9//9
f 7//7 8//8 6//6
f 5//5 3//3 4//4
f 2//2 3//3 1//1
