# Created by Open3D 
# object name: m527
# number of vertices: 176
# number of triangles: 348
v 0.803525 0.025 0.196475
vn 0.40806 -0.778323 -0.477179
v 0.8933 0.025 0.33755
vn 0.78002 -0.49858 -0.378136
v 0.9275 0.025 0.5
vn 0.0419254 -0.999116 -0.00310117
v 0.66245 0.025 0.1067
vn 0.13309 -0.908412 -0.396326
v 0.5 0.025 0.0725
vn -0.0214828 -0.956655 -0.290431
v 0.33755 0.025 0.1067
vn -0.0973405 -0.974785 -0.200794
v 0.196475 0.025 0.196475
vn -0.13951 -0.983008 -0.119302
v 0.1067 0.025 0.33755
vn -0.156455 -0.986287 -0.0525391
v 0.0725 0.025 0.5
vn -0.158901 -0.987225 0.0117537
v 0.1067 0.025 0.66245
vn -0.148861 -0.986221 0.0721642
v 0.196475 0.025 0.803525
vn -0.119302 -0.983008 0.13951
v 0.33755 0.025 0.8933
vn -0.0708773 -0.974899 0.211064
v 0.5 0.025 0.9275
vn 0.0214828 -0.956655 0.29043
v 0.66245 0.025 0.8933
vn 0.182687 -0.908081 0.376848
v 0.803525 0.025 0.803525
vn 0.477179 -0.778323 0.40806
v 0.8933 0.025 0.66245
vn 0.821628 -0.498799 0.275911
v 0.926075 0.12 0.324012
vn 0.897692 -0.239354 -0.369945
v 0.963125 0.12 0.5
vn 0.970627 -0.240564 -0.00352318
v 0.828819 0.12 0.171181
vn 0.683543 -0.241492 -0.688803
v 0.675987 0.12 0.073925
vn 0.364287 -0.239682 -0.899915
v 0.5 0.12 0.036875
vn -0.00352315 -0.240564 -0.970627
v 0.324012 0.12 0.073925
vn -0.369945 -0.239354 -0.897692
v 0.171181 0.12 0.171181
vn -0.688802 -0.241492 -0.683544
v 0.073925 0.12 0.324012
vn -0.899915 -0.239682 -0.364287
v 0.036875 0.12 0.5
vn -0.970627 -0.240565 0.00352314
v 0.073925 0.12 0.675987
vn -0.897692 -0.239354 0.369945
v 0.171181 0.12 0.828819
vn -0.683545 -0.241491 0.688802
v 0.324012 0.12 0.926075
vn -0.364287 -0.239682 0.899915
v 0.5 0.12 0.963125
vn 0.00352318 -0.240565 0.970627
v 0.675987 0.12 0.926075
vn 0.369945 -0.239354 0.897692
v 0.828819 0.12 0.828819
vn 0.688802 -0.241492 0.683544
v 0.926075 0.12 0.675987
vn 0.899915 -0.239682 0.364287
v 0.937 0.215 0.3195
vn 0.925755 0.000180866 -0.378125
v 0.975 0.215 0.5
vn 1 -2.41005e-07 2.70558e-09
v 0.83725 0.215 0.16275
vn 0.707106 1.01678e-06 -0.707107
v 0.6805 0.215 0.063
vn 0.378125 -0.000181101 -0.925755
v 0.5 0.215 0.025
vn 2.70558e-09 -2.41005e-07 -1
v 0.3195 0.215 0.063
vn -0.378125 0.000180881 -0.925755
v 0.16275 0.215 0.16275
vn -0.707107 0 -0.707107
v 0.063 0.215 0.3195
vn -0.925755 -0.000180881 -0.378125
v 0.025 0.215 0.5
vn -1 2.41005e-07 -2.70558e-09
v 0.063 0.215 0.6805
vn -0.925755 0.000181101 0.378125
v 0.16275 0.215 0.83725
vn -0.707107 -1.01678e-06 0.707106
v 0.3195 0.215 0.937
vn -0.378125 -0.000180866 0.925755
v 0.5 0.215 0.975
vn -2.70558e-09 2.41005e-07 1
v 0.6805 0.215 0.937
vn 0.378125 0.000181086 0.925755
v 0.83725 0.215 0.83725
vn 0.707107 0 0.707107
v 0.937 0.215 0.6805
vn 0.925755 -0.000181086 0.378125
v 0.926075 0.31 0.324012
vn 0.899915 0.239682 -0.364287
v 0.963125 0.31 0.5
vn 0.970627 0.240565 0.00352318
v 0.828819 0.31 0.171181
vn 0.688802 0.241491 -0.683545
v 0.675987 0.31 0.073925
vn 0.369945 0.239354 -0.897692
v 0.5 0.31 0.036875
vn 0.00352314 0.240565 -0.970627
v 0.324012 0.31 0.073925
vn -0.364287 0.239682 -0.899915
v 0.171181 0.31 0.171181
vn -0.683544 0.241492 -0.688802
v 0.073925 0.31 0.324012
vn -0.897692 0.239354 -0.369945
v 0.036875 0.31 0.5
vn -0.970627 0.240564 -0.00352314
v 0.073925 0.31 0.675987
vn -0.899915 0.239682 0.364287
v 0.171181 0.31 0.828819
vn -0.688803 0.241493 0.683543
v 0.324012 0.31 0.926075
vn -0.369945 0.239354 0.897692
v 0.5 0.31 0.963125
vn -0.00352318 0.240564 0.970627
v 0.675987 0.31 0.926075
vn 0.364287 0.239682 0.899915
v 0.828819 0.31 0.828819
vn 0.683544 0.241492 0.688802
v 0.926075 0.31 0.675987
vn 0.897692 0.239354 0.369945
v 0.8933 0.405 0.33755
vn 0.812904 0.483432 -0.324776
v 0.9275 0.405 0.5
vn 0.874494 0.484974 0.00777909
v 0.803525 0.405 0.196475
vn 0.623563 0.486491 -0.611961
v 0.66245 0.405 0.1067
vn 0.337282 0.483094 -0.807998
v 0.5 0.405 0.0725
vn 0.00777904 0.484974 -0.874494
v 0.33755 0.405 0.1067
vn -0.324776 0.483432 -0.812904
v 0.196475 0.405 0.196475
vn -0.611961 0.486491 -0.623563
v 0.1067 0.405 0.33755
vn -0.807998 0.483095 -0.337282
v 0.0725 0.405 0.5
vn -0.874494 0.484975 -0.00777903
v 0.1067 0.405 0.66245
vn -0.812905 0.483431 0.324777
v 0.196475 0.405 0.803525
vn -0.623564 0.48649 0.611961
v 0.33755 0.405 0.8933
vn -0.337282 0.483095 0.807998
v 0.5 0.405 0.9275
vn -0.00777908 0.484975 0.874494
v 0.66245 0.405 0.8933
vn 0.324777 0.483431 0.812905
v 0.803525 0.405 0.803525
vn 0.611961 0.48649 0.623564
v 0.8933 0.405 0.66245
vn 0.807998 0.483094 0.337282
v 0.82775 0.5 0.364625
vn 0.745481 0.598175 -0.294014
v 0.85625 0.5 0.5
vn 0.79995 0.599962 0.0112273
v 0.752937 0.5 0.247063
vn 0.57318 0.601525 -0.556445
v 0.635375 0.5 0.17225
vn 0.311962 0.598213 -0.73812
v 0.5 0.5 0.14375
vn 0.0112274 0.599962 -0.79995
v 0.364625 0.5 0.17225
vn -0.294014 0.598175 -0.745481
v 0.247063 0.5 0.247063
vn -0.556445 0.601526 -0.57318
v 0.17225 0.5 0.364625
vn -0.73812 0.598213 -0.311962
v 0.14375 0.5 0.5
vn -0.79995 0.599962 -0.0112274
v 0.17225 0.5 0.635375
vn -0.745481 0.598175 0.294014
v 0.247063 0.5 0.752937
vn -0.57318 0.601526 0.556445
v 0.364625 0.5 0.82775
vn -0.311962 0.598213 0.73812
v 0.5 0.5 0.85625
vn -0.0112273 0.599962 0.79995
v 0.635375 0.5 0.82775
vn 0.294014 0.598175 0.745481
v 0.752937 0.5 0.752937
vn 0.556445 0.601525 0.57318
v 0.82775 0.5 0.635375
vn 0.73812 0.598213 0.311962
v 0.7622 0.595 0.3917
vn 0.807535 0.495847 -0.319409
v 0.785 0.595 0.5
vn 0.867234 0.497775 0.0111781
v 0.70235 0.595 0.29765
vn 0.620936 0.4993 -0.604267
v 0.6083 0.595 0.2378
vn 0.337192 0.496252 -0.800022
v 0.5 0.595 0.215
vn 0.0111782 0.497775 -0.867234
v 0.3917 0.595 0.2378
vn -0.319409 0.495847 -0.807535
v 0.29765 0.595 0.29765
vn -0.604267 0.4993 -0.620936
v 0.2378 0.595 0.3917
vn -0.800022 0.496252 -0.337192
v 0.215 0.595 0.5
vn -0.867234 0.497775 -0.0111782
v 0.2378 0.595 0.6083
vn -0.807535 0.495847 0.319409
v 0.29765 0.595 0.70235
vn -0.620936 0.4993 0.604267
v 0.3917 0.595 0.7622
vn -0.337192 0.496252 0.800022
v 0.5 0.595 0.785
vn -0.0111781 0.497775 0.867234
v 0.6083 0.595 0.7622
vn 0.319409 0.495847 0.807535
v 0.70235 0.595 0.70235
vn 0.604267 0.4993 0.620936
v 0.7622 0.595 0.6083
vn 0.800022 0.496252 0.337192
v 0.729425 0.69 0.405237
vn 0.899642 0.244847 -0.361517
v 0.749375 0.69 0.5
vn 0.969225 0.246092 0.0063765
v 0.677056 0.69 0.322944
vn 0.689932 0.247037 -0.680416
v 0.594763 0.69 0.270575
vn 0.371668 0.245204 -0.895398
v 0.5 0.69 0.250625
vn 0.0063764 0.246092 -0.969225
v 0.405237 0.69 0.270575
vn -0.361517 0.244847 -0.899642
v 0.322944 0.69 0.322944
vn -0.680416 0.247037 -0.689932
v 0.270575 0.69 0.405237
vn -0.895398 0.245204 -0.371668
v 0.250625 0.69 0.5
vn -0.969225 0.246092 -0.0063764
v 0.270575 0.69 0.594763
vn -0.899642 0.244847 0.361517
v 0.322944 0.69 0.677056
vn -0.689932 0.247037 0.680416
v 0.405237 0.69 0.729425
vn -0.371668 0.245204 0.895398
v 0.5 0.69 0.749375
vn -0.0063765 0.246092 0.969225
v 0.594763 0.69 0.729425
vn 0.361517 0.244847 0.899642
v 0.677056 0.69 0.677056
vn 0.680416 0.247037 0.689932
v 0.729425 0.69 0.594763
vn 0.895398 0.245204 0.371668
v 0.7185 0.785 0.40975
vn 0.925754 -0.000190032 -0.378126
v 0.7375 0.785 0.5
vn 1 -2.89618e-08 2.27364e-08
v 0.668625 0.785 0.331375
vn 0.707107 6.5329e-09 -0.707107
v 0.59025 0.785 0.2815
vn 0.378126 0.000190043 -0.925754
v 0.5 0.785 0.2625
vn 2.27364e-08 -2.89618e-08 -1
v 0.40975 0.785 0.2815
vn -0.378126 -0.000190032 -0.925754
v 0.331375 0.785 0.331375
vn -0.707107 0 -0.707107
v 0.2815 0.785 0.40975
vn -0.925754 0.000190032 -0.378126
v 0.2625 0.785 0.5
vn -1 2.89618e-08 -2.27364e-08
v 0.2815 0.785 0.59025
vn -0.925754 -0.000190043 0.378126
v 0.331375 0.785 0.668625
vn -0.707107 -6.5329e-09 0.707107
v 0.40975 0.785 0.7185
vn -0.378126 0.000190032 0.925754
v 0.5 0.785 0.7375
vn -2.27364e-08 2.89618e-08 1
v 0.59025 0.785 0.7185
vn 0.378126 -0.000190043 0.925754
v 0.668625 0.785 0.668625
vn 0.707107 0 0.707107
v 0.7185 0.785 0.59025
vn 0.925754 0.000190043 0.378126
v 0.729425 0.88 0.405237
vn 0.90818 -0.184954 -0.3755
v 0.749375 0.88 0.5
vn 0.982597 -0.185688 -0.00488651
v 0.677056 0.88 0.322944
vn 0.691054 -0.186422 -0.698349
v 0.594763 0.88 0.270575
vn 0.36771 -0.184767 -0.9114
v 0.5 0.88 0.250625
vn -0.00488646 -0.185688 -0.982597
v 0.405237 0.88 0.270575
vn -0.3755 -0.184954 -0.90818
v 0.322944 0.88 0.322944
vn -0.698348 -0.186422 -0.691055
v 0.270575 0.88 0.405237
vn -0.9114 -0.184768 -0.367709
v 0.250625 0.88 0.5
vn -0.982597 -0.185687 0.00488647
v 0.270575 0.88 0.594763
vn -0.908181 -0.184952 0.3755
v 0.322944 0.88 0.677056
vn -0.691055 -0.186422 0.698348
v 0.405237 0.88 0.729425
vn -0.367709 -0.184768 0.9114
v 0.5 0.88 0.749375
vn 0.00488652 -0.185687 0.982597
v 0.594763 0.88 0.729425
vn 0.3755 -0.184952 0.908181
v 0.677056 0.88 0.677056
vn 0.698349 -0.186421 0.691054
v 0.729425 0.88 0.594763
vn 0.9114 -0.184767 0.36771
v 0.751275 0.975 0.396212
vn 0.939991 -0.110335 -0.322866
v 0.773125 0.975 0.5
vn 0.0639231 0.997946 0.00421801
v 0.693919 0.975 0.306081
vn 0.715582 0.317123 -0.622395
v 0.603787 0.975 0.248725
vn 0.309229 0.694963 -0.649157
v 0.5 0.975 0.226875
vn 0.0330918 0.864525 -0.5015
v 0.396212 0.975 0.248725
vn -0.122266 0.926466 -0.355965
v 0.306081 0.975 0.306081
vn -0.200356 0.952257 -0.230355
v 0.248725 0.975 0.396212
vn -0.245871 0.9622 -0.117122
v 0.226875 0.975 0.5
vn -0.261018 0.96518 -0.0172234
v 0.248725 0.975 0.603787
vn -0.256969 0.962381 0.0882633
v 0.306081 0.975 0.693919
vn -0.230355 0.952257 0.200355
v 0.396212 0.975 0.751275
vn -0.162227 0.926122 0.340559
v 0.5 0.975 0.773125
vn -0.0330918 0.864524 0.5015
v 0.603787 0.975 0.751275
vn 0.233237 0.696059 0.679046
v 0.693919 0.975 0.693919
vn 0.622394 0.317121 0.715583
v 0.751275 0.975 0.603787
vn 0.897248 -0.110762 0.427408
f 175//175 176//176 162//162
f 174//174 175//175 162//162
f 173//173 174//174 162//162
f 172//172 173//173 162//162
f 171//171 172//172 162//162
f 170//170 171//171 162//162
f 169//169 170//170 162//162
f 168//168 169//169 162//162
f 167//167 168//168 162//162
f 166//166 167//167 162//162
f 165//165 166//166 162//162
f 164//164 165//165 162//162
f 163//163 164//164 162//162
f 161//161 163//163 162//162
f 146//146 162//162 160//160
f 162//162 176//176 160//160
f 160//160 176//176 159//159
f 176//176 175//175 159//159
f 159//159 175//175 158//158
f 175//175 174//174 158//158
f 158//158 174//174 157//157
f 174//174 173//173 157//157
f 157//157 173//173 156//156
f 173//173 172//172 156//156
f 156//156 172//172 155//155
f 172//172 171//171 155//155
f 155//155 171//171 154//154
f 171//171 170//170 154//154
f 154//154 170//170 153//153
f 170//170 169//169 153//153
f 153//153 169//169 152//152
f 169//169 168//168 152//152
f 152//152 168//168 151//151
f 168//168 167//167 151//151
f 151//151 167//167 150//150
f 167//167 166//166 150//150
f 150//150 166//166 149//149
f 166//166 165//165 149//149
f 149//149 165//165 148//148
f 165//165 164//164 148//148
f 148//148 164//164 147//147
f 164//164 163//163 147//147
f 147//147 163//163 145//145
f 163//163 161//161 145//145
f 145//145 161//161 146//146
f 161//161 162//162 146//146
f 130//130 146//146 144//144
f 146//146 160//160 144//144
f 144//144 160//160 143//143
f 160//160 159//159 143//143
f 143//143 159//159 142//142
f 159//159 158//158 142//142
f 142//142 158//158 141//141
f 158//158 157//157 141//141
f 141//141 157//157 140//140
f 157//157 156//156 140//140
f 140//140 156//156 139//139
f 156//156 155//155 139//139
f 139//139 155//155 138//138
f 155//155 154//154 138//138
f 138//138 154//154 137//137
f 154//154 153//153 137//137
f 137//137 153//153 136//136
f 153//153 152//152 136//136
f 136//136 152//152 135//135
f 152//152 151//151 135//135
f 135//135 151//151 134//134
f 151//151 150//150 134//134
f 134//134 150//150 133//133
f 150//150 149//149 133//133
f 133//133 149//149 132//132
f 149//149 148//148 132//132
f 132//132 148//148 131//131
f 148//148 147//147 131//131
f 131//131 147//147 129//129
f 147//147 145//145 129//129
f 129//129 145//145 130//130
f 145//145 146//146 130//130
f 114//114 130//130 128//128
f 130//130 144//144 128//128
f 128//128 144//144 127//127
f 144//144 143//143 127//127
f 127//127 143//143 126//126
f 143//143 142//142 126//126
f 126//126 142//142 125//125
f 142//142 141//141 125//125
f 125//125 141//141 124//124
f 141//141 140//140 124//124
f 124//124 140//140 123//123
f 140//140 139//139 123//123
f 123//123 139//139 122//122
f 139//139 138//138 122//122
f 122//122 138//138 121//121
f 138//138 137//137 121//121
f 121//121 137//137 120//120
f 137//137 136//136 120//120
f 120//120 136//136 119//119
f 136//136 135//135 119//119
f 119//119 135//135 118//118
f 135//135 134//134 118//118
f 118//118 134//134 117//117
f 134//134 133//133 117//117
f 117//117 133//133 116//116
f 133//133 132//132 116//116
f 116//116 132//132 115//115
f 132//132 131//131 115//115
f 115//115 131//131 113//113
f 131//131 129//129 113//113
f 113//113 129//129 114//114
f 129//129 130//130 114//114
f 98//98 114//114 112//112
f 114//114 128//128 112//112
f 112//112 128//128 111//111
f 128//128 127//127 111//111
f 111//111 127//127 110//110
f 127//127 126//126 110//110
f 110//110 126//126 109//109
f 126//126 125//125 109//109
f 109//109 125//125 108//108
f 125//125 124//124 108//108
f 108//108 124//124 107//107
f 124//124 123//123 107//107
f 107//107 123//123 106//106
f 123//123 122//122 106//106
f 106//106 122//122 105//105
f 122//122 121//121 105//105
f 105//105 121//121 104//104
f 121//121 120//120 104//104
f 104//104 120//120 103//103
f 120//120 119//119 103//103
f 103//103 119//119 102//102
f 119//119 118//118 102//102
f 102//102 118//118 101//101
f 118//118 117//117 101//101
f 101//101 117//117 100//100
f 117//117 116//116 100//100
f 100//100 116//116 99//99
f 116//116 115//115 99//99
f 99//99 115//115 97//97
f 115//115 113//113 97//97
f 97//97 113//113 98//98
f 113//113 114//114 98//98
f 82//82 98//98 96//96
f 98//98 112//112 96//96
f 96//96 112//112 95//95
f 112//112 111//111 95//95
f 95//95 111//111 94//94
f 111//111 110//110 94//94
f 94//94 110//110 93//93
f 110//110 109//109 93//93
f 93//93 109//109 92//92
f 109//109 108//108 92//92
f 92//92 108//108 91//91
f 108//108 107//107 91//91
f 91//91 107//107 90//90
f 107//107 106//106 90//90
f 90//90 106//106 89//89
f 106//106 105//105 89//89
f 89//89 105//105 88//88
f 105//105 104//104 88//88
f 88//88 104//104 87//87
f 104//104 103//103 87//87
f 87//87 103//103 86//86
f 103//103 102//102 86//86
f 86//86 102//102 85//85
f 102//102 101//101 85//85
f 85//85 101//101 84//84
f 101//101 100//100 84//84
f 84//84 100//100 83//83
f 100//100 99//99 83//83
f 83//83 99//99 81//81
f 99//99 97//97 81//81
f 81//81 97//97 82//82
f 97//97 98//98 82//82
f 66//66 82//82 80//80
f 82//82 96//96 80//80
f 80//80 96//96 79//79
f 96//96 95//95 79//79
f 79//79 95//95 78//78
f 95//95 94//94 78//78
f 78//78 94//94 77//77
f 94//94 93//93 77//77
f 77//77 93//93 76//76
f 93//93 92//92 76//76
f 76//76 92//92 75//75
f 92//92 91//91 75//75
f 75//75 91//91 74//74
f 91//91 90//90 74//74
f 74//74 90//90 73//73
f 90//90 89//89 73//73
f 73//73 89//89 72//72
f 89//89 88//88 72//72
f 72//72 88//88 71//71
f 88//88 87//87 71//71
f 71//71 87//87 70//70
f 87//87 86//86 70//70
f 70//70 86//86 69//69
f 86//86 85//85 69//69
f 69//69 85//85 68//68
f 85//85 84//84 68//68
f 68//68 84//84 67//67
f 84//84 83//83 67//67
f 67//67 83//83 65//65
f 83//83 81//81 65//65
f 65//65 81//81 66//66
f 81//81 82//82 66//66
f 50//50 66//66 64//64
f 66//66 80//80 64//64
f 64//64 80//80 63//63
f 80//80 79//79 63//63
f 63//63 79//79 62//62
f 79//79 78//78 62//62
f 62//62 78//78 61//61
f 78//78 77//77 61//61
f 61//61 77//77 60//60
f 77//77 76//76 60//60
f 60//60 76//76 59//59
f 76//76 75//75 59//59
f 59//59 75//75 58//58
f 75//75 74//74 58//58
f 58//58 74//74 57//57
f 74//74 73//73 57//57
f 57//57 73//73 56//56
f 73//73 72//72 56//56
f 56//56 72//72 55//55
f 72//72 71//71 55//55
f 55//55 71//71 54//54
f 71//71 70//70 54//54
f 54//54 70//70 53//53
f 70//70 69//69 53//53
f 53//53 69//69 52//52
f 69//69 68//68 52//52
f 52//52 68//68 51//51
f 68//68 67//67 51//51
f 51//51 67//67 49//49
f 67//67 65//65 49//49
f 49//49 65//65 50//50
f 65//65 66//66 50//50
f 34//34 50//50 48//48
f 50//50 64//64 48//48
f 48//48 64//64 47//47
f 64//64 63//63 47//47
f 47//47 63//63 46//46
f 63//63 62//62 46//46
f 46//46 62//62 45//45
f 62//62 61//61 45//45
f 45//45 61//61 44//44
f 61//61 60//60 44//44
f 44//44 60//60 43//43
f 60//60 59//59 43//43
f 43//43 59//59 42//42
f 59//59 58//58 42//42
f 42//42 58//58 41//41
f 58//58 57//57 41//41
f 41//41 57//57 40//40
f 57//57 56//56 40//40
f 40//40 56//56 39//39
f 56//56 55//55 39//39
f 39//39 55//55 38//38
f 55//55 54//54 38//38
f 38//38 54//54 37//37
f 54//54 53//53 37//37
f 37//37 53//53 36//36
f 53//53 52//52 36//36
f 36//36 52//52 35//35
f 52//52 51//51 35//35
f 35//35 51//51 33//33
f 51//51 49//49 33//33
f 33//33 49//49 34//34
f 49//49 50//50 34//34
f 18//18 34//34 32//32
f 34//34 48//48 32//32
f 32//32 48//48 31//31
f 48//48 47//47 31//31
f 31//31 47//47 30//30
f 47//47 46//46 30//30
f 30//30 46//46 29//29
f 46//46 45//45 29//29
f 29//29 45//45 28//28
f 45//45 44//44 28//28
f 28//28 44//44 27//27
f 44//44 43//43 27//27
f 27//27 43//43 26//26
f 43//43 42//42 26//26
f 26//26 42//42 25//25
f 42//42 41//41 25//25
f 25//25 41//41 24//24
f 41//41 40//40 24//24
f 24//24 40//40 23//23
f 40//40 39//39 23//23
f 23//23 39//39 22//22
f 39//39 38//38 22//22
f 22//22 38//38 21//21
f 38//38 37//37 21//21
f 21//21 37//37 20//20
f 37//37 36//36 20//20
f 20//20 36//36 19//19
f 36//36 35//35 19//19
f 19//19 35//35 17//17
f 35//35 33//33 17//17
f 17//17 33//33 18//18
f 33//33 34//34 18//18
f 3//3 18//18 16//16
f 18//18 32//32 16//16
f 16//16 32//32 15//15
f 32//32 31//31 15//15
f 15//15 31//31 14//14
f 31//31 30//30 14//14
f 14//14 30//30 13//13
f 30//30 29//29 13//13
f 13//13 29//29 12//12
f 29//29 28//28 12//12
f 12//12 28//28 11//11
f 28//28 27//27 11//11
f 11//11 27//27 10//10
f 27//27 26//26 10//10
f 10//10 26//26 9//9
f 26//26 25//25 9//9
f 9//9 25//25 8//8
f 25//25 24//24 8//8
f 8//8 24//24 7//7
f 24//24 23//23 7//7
f 7//7 23//23 6//6
f 23//23 22//22 6//6
f 6//6 22//22 5//5
f 22//22 21//21 5//5
f 5//5 21//21 4//4
f 21//21 20//20 4//4
f 4//4 20//20 1//1
f 20//20 19//19 1//1
f 1//1 19//19 2//2
f 19//19 17//17 2//2
f 2//2 17//17 3//3
f 17//17 18//18 3//3
f 15//15 3//3 16//16
f 14//14 3//3 15//15
f 13//13 3//3 14//14
f 12//12 3//3 13//13
f 11//11 3//3 12//12
f 10//10 3//3 11//11
f 9//9 3//3 10//10
f 8//8 3//3 9//9
f 7//7 3//3 8//8
f 6//6 3//3 7//7
f 5//5 3//3 6//6
f 4//4 3//3 5//5
f 1//1 3//3 4//4
f 2//2 3//3 1//1
