# Created by Open3D 
# object name: m859
# number of vertices: 32
# number of triangles: 60
v 0.083907 0.870057 0.305865
vn 0 0 1
v 0.110189 0.870808 0.287141
vn 0.83209 -0.530085 0.163208
v 0.108187 0.880865 0.287141
vn 0.77328 0.539514 0.333111
v 0.102491 0.889391 0.287141
vn 0.677947 0.680617 0.277755
v 0.093965 0.895089 0.287141
vn 0.166219 0.936522 0.308704
v 0.083907 0.897089 0.287141
vn 0.0690638 0.95516 0.287923
v 0.07385 0.895089 0.287141
vn -0.340514 0.880092 0.33089
v 0.065324 0.889391 0.287141
vn -0.622906 0.701809 0.34562
v 0.059626 0.880865 0.287141
vn -0.954781 0.166658 0.246209
v 0.057626 0.870808 0.287141
vn -0.179105 -0.981096 0.0733004
v 0.083907 0.870808 0.287141
vn -1.69025e-07 -0.999941 0.0108657
v 0.121074 0.869263 0.196413
vn 0.698585 -0.71464 0.0356067
v 0.118245 0.898668 0.196412
vn 0.929029 0.36366 0.068232
v 0.110189 0.901107 0.196412
vn 0.590031 0.80383 0.0756405
v 0.09813 0.913049 0.196412
vn 0.321845 0.943978 0.0729434
v 0.083906 0.910266 0.196412
vn -0.00340996 0.997676 0.0680557
v 0.069683 0.913049 0.196412
vn -0.0826443 0.994288 0.0675395
v 0.057626 0.908997 0.196412
vn -0.558381 0.825656 0.080639
v 0.04699 0.901486 0.196412
vn -0.966642 0.249061 0.0597686
v 0.046739 0.869263 0.196412
vn -0.551866 -0.832294 0.0522588
v 0.083906 0.869263 0.196412
vn -1.51055e-07 -0.999872 0.0160297
v 0.1207 0.867674 0.092188
vn 0.363133 -0.914343 -0.179195
v 0.1179 0.895088 0.092188
vn 0.960487 0.202845 -0.190574
v 0.109923 0.903614 0.092188
vn 0.504526 0.839952 -0.199837
v 0.097987 0.909311 0.092188
vn 0.445439 0.878548 -0.172447
v 0.083906 0.911312 0.092188
vn -0.0621317 0.98458 -0.163528
v 0.069826 0.909311 0.092188
vn -0.0266935 0.984537 -0.17313
v 0.05789 0.90762 0.092188
vn -0.487529 0.845164 -0.219119
v 0.049913 0.895088 0.092188
vn -0.877506 0.388189 -0.281588
v 0.047112 0.867674 0.092188
vn -0.842755 -0.492306 -0.217713
v 0.083906 0.867674 0.092188
vn 0 -0.995823 -0.0913078
v 0.083906 0.885031 0.085836
vn 0 0 -1
f 22//22 31//31 32//32
f 31//31 30//30 32//32
f 30//30 29//29 32//32
f 29//29 28//28 32//32
f 28//28 27//27 32//32
f 27//27 26//26 32//32
f 26//26 25//25 32//32
f 25//25 24//24 32//32
f 24//24 23//23 32//32
f 23//23 22//22 32//32
f 22//22 12//12 21//21
f 31//31 22//22 21//21
f 31//31 21//21 20//20
f 30//30 31//31 20//20
f 30//30 20//20 19//19
f 29//29 30//30 19//19
f 29//29 19//19 18//18
f 28//28 29//29 18//18
f 28//28 18//18 17//17
f 27//27 28//28 17//17
f 27//27 17//17 16//16
f 26//26 27//27 16//16
f 26//26 16//16 15//15
f 25//25 26//26 15//15
f 25//25 15//15 14//14
f 24//24 25//25 14//14
f 24//24 14//14 13//13
f 23//23 24//24 13//13
f 23//23 13//13 12//12
f 22//22 23//23 12//12
f 12//12 2//2 11//11
f 21//21 12//12 11//11
f 21//21 11//11 10//10
f 20//20 21//21 10//10
f 20//20 10//10 9//9
f 19//19 20//20 9//9
f 19//19 9//9 8//8
f 18//18 19//19 8//8
f 18//18 8//8 7//7
f 17//17 18//18 7//7
f 17//17 7//7 6//6
f 16//16 17//17 6//6
f 16//16 6//6 5//5
f 15//15 16//16 5//5
f 15//15 5//5 4//4
f 14//14 15//15 4//4
f 14//14 4//4 3//3
f 13//13 14//14 3//3
f 13//13 3//3 2//2
f 12//12 13//13 2//2
f 11//11 2//2 1//1
f 10//10 11//11 1//1
f 9//9 10//10 1//1
f 8//8 9//9 1//1
f 7//7 8//8 1//1
f 6//6 7//7 1//1
f 5//5 6//6 1//1
f 4//4 5//5 1//1
f 3//3 4//4 1//1
f 2//2 3//3 1//1
