# Blender 4.2.3 LTS
# www.blender.org
o m1215
v 0.095285 0.354029 0.912303
v 0.095285 0.365625 0.912301
v 0.090650 0.366936 0.912265
v 0.097433 0.416914 0.842331
v 0.098297 0.419877 0.759837
v 0.095577 0.468517 0.759813
v 0.104956 0.365094 0.842393
v 0.111258 0.359961 0.759942
v 0.098300 0.300045 0.759843
v 0.104956 0.354837 0.842393
v 0.082446 0.353677 0.842215
v 0.082446 0.366253 0.842215
v 0.061558 0.366248 0.759550
v 0.082444 0.416875 0.842212
v 0.061557 0.410373 0.759547
v 0.087478 0.459486 0.937108
v 0.081798 0.424163 0.903865
v 0.096787 0.424208 0.903983
v 0.089494 0.468520 0.821344
v 0.090650 0.352719 0.912265
v 0.087578 0.454032 0.821330
v 0.086573 0.461263 0.759742
v 0.089500 0.251407 0.821356
v 0.086579 0.258657 0.759752
v 0.095583 0.251404 0.759825
v 0.061560 0.309546 0.759552
v 0.087583 0.265896 0.821339
v 0.082447 0.303054 0.842218
v 0.087483 0.260358 0.937118
v 0.096790 0.295446 0.903991
v 0.097436 0.303016 0.842337
v 0.088236 0.254455 0.941986
v 0.081801 0.295490 0.903871
v 0.061558 0.353672 0.759550
v 0.088230 0.465389 0.941974
v 0.042538 0.353667 0.669655
v 0.042538 0.366242 0.669653
v 0.029820 0.366231 0.454585
v 0.042537 0.410368 0.669652
v 0.029819 0.410356 0.454583
v 0.099237 0.421496 0.670099
v 0.101489 0.423109 0.455149
v 0.093331 0.468859 0.455082
v 0.099240 0.298416 0.670106
v 0.101492 0.296780 0.455156
v 0.117169 0.359945 0.455276
v 0.114917 0.359956 0.670227
v 0.096517 0.468870 0.670076
v 0.082506 0.458538 0.669964
v 0.042539 0.309541 0.669657
v 0.029821 0.309530 0.454588
v 0.093337 0.251031 0.455094
v 0.082511 0.261374 0.669975
v 0.096523 0.251042 0.670087
v 0.029820 0.353655 0.454586
v 0.095577 0.468517 0.759813
v 0.126387 0.381834 0.318082
v 0.125042 0.381832 0.273146
v 0.085896 0.408323 0.265448
v 0.131792 0.369707 0.318151
v 0.140730 0.369705 0.284898
v 0.026344 0.410348 0.309901
v 0.025000 0.366221 0.264968
v 0.026345 0.366223 0.309903
v 0.092678 0.452451 0.310424
v 0.092679 0.408325 0.310426
v 0.131792 0.349118 0.318152
v 0.140731 0.349116 0.284900
v 0.025000 0.353645 0.264968
v 0.026345 0.353647 0.309904
v 0.117918 0.354813 0.383805
v 0.025578 0.366227 0.383074
v 0.025577 0.410352 0.383072
v 0.094080 0.460734 0.383611
v 0.102238 0.416609 0.383678
v 0.117917 0.365070 0.383805
v 0.126388 0.338042 0.318084
v 0.025580 0.309526 0.383077
v 0.094085 0.259148 0.383622
v 0.093337 0.251031 0.455094
v 0.025579 0.353651 0.383075
v 0.102241 0.303274 0.383684
v 0.092681 0.311549 0.310431
v 0.092683 0.267423 0.310433
v 0.026346 0.309522 0.309906
v 0.085899 0.311546 0.265452
v 0.125043 0.338040 0.273149
v 0.031536 0.363679 0.112715
v 0.065194 0.388818 0.111336
v 0.048785 0.359921 0.025000
v 0.096133 0.373000 0.109936
v 0.071567 0.400057 0.149581
v 0.111958 0.378088 0.147885
v 0.080964 0.408320 0.217084
v 0.028458 0.365142 0.151259
v 0.120110 0.381829 0.217395
v 0.025506 0.366218 0.216647
v 0.025507 0.353642 0.216648
v 0.028459 0.354712 0.151261
v 0.031536 0.356171 0.112716
v 0.111959 0.341770 0.147887
v 0.096134 0.346853 0.109937
v 0.080967 0.311543 0.217089
v 0.120112 0.338037 0.217397
v 0.071569 0.319798 0.149586
v 0.065195 0.331034 0.111339
v 0.151168 0.367944 0.197934
v 0.154240 0.369703 0.227912
v 0.154241 0.349114 0.227913
v 0.151168 0.350869 0.197936
v 0.091538 0.395231 0.869193
v 0.091540 0.324419 0.869196
v 0.097666 0.278660 0.690679
v 0.240927 0.205913 0.760594
v 0.239434 0.204747 0.796860
v 0.241660 0.207082 0.796878
v 0.240261 0.205916 0.824201
v 0.093232 0.275107 0.789983
v 0.095584 0.278670 0.889340
v 0.100018 0.282224 0.790036
v 0.240920 0.515060 0.753191
v 0.097661 0.442299 0.690670
v 0.093227 0.445862 0.789974
v 0.241652 0.513895 0.789475
v 0.239426 0.516230 0.789456
v 0.095580 0.442309 0.889331
v 0.240253 0.515063 0.816798
v 0.100014 0.438745 0.790028
v 0.087126 0.497877 0.970563
v 0.087154 0.510839 0.861679
v 0.085961 0.500780 0.818038
v 0.089070 0.527218 0.861692
v 0.087884 0.503780 0.974985
v 0.083899 0.583692 0.950099
v 0.080867 0.583689 0.899126
v 0.081982 0.583692 0.950083
v 0.083053 0.583692 0.954107
v 0.083814 0.583692 0.958196
v 0.083911 0.135966 0.950123
v 0.089079 0.192432 0.861711
v 0.087891 0.216068 0.975000
v 0.080879 0.135963 0.899149
v 0.085969 0.219147 0.818052
v 0.081994 0.135966 0.950108
v 0.087162 0.208811 0.861694
v 0.083065 0.135966 0.954132
v 0.087134 0.221970 0.970576
v 0.083826 0.135967 0.958219
v 0.072592 0.694911 0.694849
v 0.072724 0.694910 0.660228
v 0.069483 0.694911 0.694783
v 0.071195 0.694913 0.722365
v 0.072488 0.694913 0.722394
v 0.077394 0.663398 0.758228
v 0.089573 0.506890 0.813670
v 0.089581 0.213037 0.813685
v 0.069501 0.025001 0.694817
v 0.071212 0.025003 0.722400
v 0.077410 0.064625 0.758260
v 0.072506 0.025003 0.722429
v 0.072610 0.025001 0.694885
v 0.072742 0.025000 0.660264
vn -0.0077 0.0002 1.0000
vn 0.9984 0.0558 0.0125
vn 0.9755 0.2111 0.0614
vn 0.9755 -0.2111 0.0614
vn -0.9695 -0.0000 0.2450
vn -0.0037 -0.6850 0.7285
vn 0.9888 0.1492 -0.0073
vn 0.0017 -0.9931 0.1174
vn -0.9932 -0.0000 0.1163
vn 0.0514 0.9987 -0.0005
vn 0.9906 -0.0000 0.1370
vn -0.9860 0.1667 -0.0087
vn -0.9872 0.1557 0.0344
vn -0.6259 0.7775 -0.0619
vn -0.6258 -0.7775 -0.0618
vn -0.8955 -0.4400 0.0663
vn -0.9911 -0.1329 -0.0072
vn 0.0516 -0.9985 -0.0197
vn 0.0015 0.9925 0.1219
vn 0.9874 -0.1577 0.0143
vn -0.0039 0.6802 0.7330
vn 0.9936 -0.0555 0.0982
vn 0.9971 -0.0000 0.0762
vn -0.0082 -0.0000 1.0000
vn 0.9771 0.1896 0.0966
vn 0.9895 0.1437 0.0155
vn 0.9895 -0.1436 0.0155
vn 0.2167 -0.6372 0.7396
vn 0.9817 0.1899 0.0152
vn 0.0021 -0.9931 0.1175
vn 0.2722 0.9613 -0.0413
vn -0.9921 0.1231 -0.0249
vn -0.8816 0.4326 0.1887
vn -0.9425 -0.2529 0.2183
vn -0.9811 -0.1905 -0.0337
vn 0.2717 -0.9620 0.0265
vn 0.0019 0.9926 0.1218
vn 0.9756 -0.2190 -0.0167
vn 0.9580 -0.0996 -0.2690
vn 0.9873 -0.1583 0.0160
vn -0.9983 -0.0000 0.0590
vn 0.9844 0.1756 0.0116
vn 0.9705 -0.2409 0.0120
vn 0.9689 -0.2469 0.0146
vn -0.9783 -0.0000 0.2070
vn 0.9983 0.0573 0.0115
vn -0.8971 0.4409 0.0273
vn -0.6775 0.7355 0.0012
vn -0.6771 -0.7348 0.0401
vn -0.7695 -0.6385 0.0155
vn 0.9983 -0.0573 0.0107
vn 0.9844 -0.1755 -0.0146
vn 0.9773 0.2114 0.0141
vn 0.9690 0.2469 0.0120
vn 0.9982 0.0573 -0.0148
vn 0.9690 -0.2469 0.0102
vn 0.9766 -0.2113 0.0398
vn 0.9984 0.0558 0.0107
vn -0.7601 0.6296 0.1608
vn -0.7689 0.6377 0.0454
vn -0.7695 -0.6386 -0.0080
vn -0.8819 -0.4329 0.1866
vn 0.9984 -0.0558 0.0115
vn 0.9983 -0.0573 0.0109
vn 0.9683 0.2468 0.0395
vn 0.9705 0.2409 0.0102
vn 0.5626 0.8265 -0.0169
vn 0.5355 0.8322 0.1439
vn -0.9996 -0.0000 0.0299
vn 0.9888 -0.0000 -0.1491
vn 0.9657 -0.0000 0.2596
vn 0.9784 -0.0000 0.2068
vn -0.9999 -0.0000 -0.0105
vn -0.5335 0.8415 -0.0850
vn 0.9916 -0.0000 -0.1294
vn 0.5557 0.7857 0.2720
vn 0.9833 0.1818 -0.0062
vn 0.9562 0.2910 0.0309
vn 0.9999 0.0001 0.0105
vn -0.9982 -0.0000 0.0592
vn -0.6744 0.7329 -0.0904
vn 0.8913 0.3985 0.2165
vn 0.8757 -0.4286 0.2222
vn -0.5891 -0.8022 -0.0973
vn 0.9566 -0.2909 -0.0164
vn 0.9833 -0.1817 -0.0103
vn 0.6325 -0.7562 -0.1680
vn 0.9998 -0.0000 -0.0191
vn -0.5358 -0.8443 -0.0056
vn 0.5854 -0.8106 -0.0175
vn 0.5700 -0.8172 -0.0859
vn 0.6283 0.7721 -0.0948
vn 0.9131 0.4068 -0.0273
vn 0.9657 0.0001 0.2596
vn 0.9784 0.0001 0.2068
vn -0.9999 -0.0001 -0.0105
vn -0.5924 0.8056 -0.0063
vn 0.9826 0.1816 -0.0394
vn 0.9451 0.2871 -0.1558
vn 0.9844 0.1755 -0.0096
vn 0.9705 0.2409 -0.0117
vn -0.9982 -0.0001 0.0592
vn -0.5923 0.8050 0.0351
vn -0.6771 -0.7348 0.0402
vn 0.9702 -0.2408 0.0275
vn 0.9845 -0.1755 -0.0056
vn 0.9384 -0.2859 0.1939
vn 0.9727 -0.1796 -0.1472
vn -0.5902 -0.8034 -0.0795
vn 0.8731 -0.4274 0.2347
vn 0.6204 -0.7840 -0.0185
vn -0.5955 0.7890 -0.1509
vn 0.4120 0.8376 -0.3587
vn -0.5966 0.7914 -0.1332
vn 0.4249 0.8569 -0.2921
vn -0.6295 0.7769 -0.0075
vn 0.4720 0.8756 -0.1025
vn -0.6038 0.7947 0.0615
vn 0.5600 0.8270 -0.0496
vn -0.9990 -0.0001 -0.0451
vn -0.9968 -0.0000 -0.0796
vn 0.9230 -0.0000 -0.3849
vn 0.8735 -0.0000 -0.4869
vn -0.9812 -0.0000 -0.1930
vn 0.5599 -0.8266 -0.0570
vn -0.6046 -0.7965 -0.0063
vn 0.4653 -0.8685 -0.1710
vn -0.6298 -0.7757 -0.0411
vn 0.4199 -0.8495 -0.3195
vn -0.5986 -0.7973 -0.0780
vn 0.4120 -0.8376 -0.3586
vn -0.5955 -0.7891 -0.1508
vn -0.6293 0.7731 -0.0796
vn 0.4423 0.8379 -0.3199
vn -0.6040 0.7960 -0.0404
vn 0.5526 0.8145 -0.1766
vn -0.5686 0.8226 -0.0060
vn 0.5673 0.8215 -0.0579
vn -0.9968 -0.0001 -0.0796
vn 0.5665 -0.8225 -0.0501
vn -0.5680 -0.8210 0.0580
vn 0.5577 -0.8228 -0.1096
vn -0.6045 -0.7965 -0.0132
vn 0.4463 -0.8435 -0.2991
vn -0.6276 -0.7691 -0.1213
vn 0.3578 0.9293 -0.0920
vn 0.3135 0.9467 0.0743
vn 0.9730 0.0001 0.2307
vn 0.9948 -0.0000 -0.1020
vn 0.7872 -0.0001 -0.6167
vn 0.3164 -0.9482 -0.0279
vn 0.3323 -0.9389 -0.0894
vn 0.3582 0.9292 -0.0912
vn 0.6367 0.7690 -0.0564
vn 0.9948 -0.0000 -0.1019
vn 0.7872 -0.0000 -0.6167
vn 0.5104 -0.8514 0.1210
vn 0.3315 -0.9392 -0.0890
vn 0.9388 0.1367 0.3163
vn -0.0405 -0.6740 0.7376
vn -0.9476 -0.0000 0.3194
vn -0.0070 0.7789 0.6272
vn -0.0069 -0.7828 0.6223
vn -0.0404 0.6706 0.7408
vn 0.9392 -0.1366 0.3150
vn -0.4116 0.6564 -0.6323
vn -0.4251 -0.6774 -0.6004
vn -0.4574 0.6683 -0.5867
vn -0.4421 -0.6466 -0.6217
vn -0.4340 -0.8997 -0.0468
vn 0.7237 -0.6900 0.0076
vn -0.7237 0.6901 -0.0076
vn -0.4350 -0.8989 0.0516
vn 0.4704 0.8803 0.0617
vn 0.4697 0.8820 -0.0379
vn -0.4342 0.8993 -0.0517
vn 0.7237 0.6900 0.0076
vn -0.7236 -0.6902 -0.0075
vn -0.4332 0.9003 0.0425
vn 0.4696 -0.8813 0.0526
vn 0.4681 -0.8826 -0.0427
vn -0.4311 -0.9008 -0.0515
vn 0.7238 -0.6900 0.0076
vn -0.4335 -0.9001 0.0425
vn 0.4660 0.8832 0.0524
vn 0.4689 0.8822 -0.0427
vn -0.4334 0.9000 -0.0469
vn 0.7238 0.6900 0.0076
vn -0.7237 -0.6901 -0.0075
vn -0.4280 0.9023 0.0515
vn 0.4680 -0.8816 0.0616
vn 0.4656 -0.8842 -0.0378
vn 0.2520 -0.6345 0.7307
vn -1.0000 -0.0071 -0.0005
vn -0.9994 -0.0337 0.0124
vn 0.9977 0.0432 -0.0524
vn 0.9999 -0.0000 0.0105
vn -0.0000 1.0000 -0.0001
vn -0.0000 1.0000 -0.0000
vn -0.9829 -0.0114 0.1837
vn -0.9981 -0.0616 -0.0076
vn -0.9922 -0.1130 0.0532
vn 0.2120 0.8292 -0.5173
vn 0.9982 0.0554 0.0219
vn 0.9982 -0.0565 0.0223
vn 0.9216 -0.2984 -0.2482
vn -0.9876 0.1443 0.0612
vn -0.9988 0.0484 -0.0061
vn -0.9830 0.0114 0.1835
vn 0.0031 1.0000 -0.0008
vn -0.0000 -1.0000 0.0001
vn 0.9930 -0.1026 -0.0592
vn -0.9997 0.0174 0.0142
vn -1.0000 0.0087 -0.0004
vn 0.1929 0.6388 0.7448
vn 0.5227 -0.5531 0.6487
vn -1.0000 -0.0081 -0.0012
vn -0.9989 -0.0321 0.0347
vn 0.5922 0.6699 -0.4479
vn -0.9831 -0.0116 0.1830
vn -0.9664 0.0035 0.2572
vn -0.9950 -0.0971 0.0218
vn 0.9912 0.1186 -0.0590
vn 0.9971 0.0749 0.0105
vn 0.9985 -0.0529 0.0105
vn 0.9817 -0.1813 -0.0584
vn -0.9964 0.0822 0.0218
vn -0.9031 0.3558 0.2404
vn -0.9830 0.0115 0.1830
vn 0.9872 -0.0949 -0.1284
vn -0.9952 0.0853 0.0474
vn -1.0000 0.0066 -0.0011
vn 0.5579 0.5424 0.6281
vn -0.0149 0.7498 0.6615
vn 0.9942 0.1068 -0.0147
vn 0.9946 0.1032 0.0108
vn 0.9947 0.0932 0.0445
vn -0.9940 -0.0498 0.0975
vn -0.9971 -0.0599 0.0470
vn -0.9977 -0.0434 -0.0523
vn 0.5292 -0.6621 0.5307
vn 0.5291 0.6622 0.5306
vn -0.9974 0.0494 -0.0526
vn -0.9972 0.0581 0.0469
vn -0.9945 0.0463 0.0945
vn 0.9937 -0.1070 0.0345
vn 0.9945 -0.1040 0.0108
vn 0.9945 -0.1040 -0.0147
vn -0.0167 -0.6695 0.7426
vn -0.0000 -1.0000 -0.0000
vn 0.9962 0.0874 0.0038
vn 0.9945 0.1048 0.0037
vn 0.9942 0.0923 -0.0549
vn -0.9884 -0.0238 0.1499
vn -0.9965 -0.0557 0.0619
vn -0.9946 -0.0450 -0.0933
vn -0.9956 0.0059 -0.0934
vn -0.9962 0.0613 0.0618
vn -0.9916 0.0459 0.1206
vn 0.9956 -0.0524 -0.0783
vn 0.9948 -0.1020 0.0038
vn 0.9945 -0.1048 0.0038
s 0
f 1//1 2//1 3//1
f 4//2 5//2 6//2
f 7//3 8//3 5//3
f 9//4 8//4 10//4
f 11//5 12//5 13//5
f 14//5 15//5 13//5
f 16//6 17//6 18//6
f 18//7 4//7 19//7
f 17//8 14//8 4//8
f 20//9 3//9 12//9
f 2//10 7//10 12//10
f 1//11 10//11 7//11
f 17//12 16//12 21//12
f 14//13 21//13 22//13
f 19//14 6//14 22//14
f 23//15 24//15 25//15
f 26//16 24//16 27//16
f 28//17 27//17 29//17
f 20//18 11//18 10//18
f 30//19 31//19 28//19
f 32//20 23//20 31//20
f 32//21 30//21 33//21
f 11//5 34//5 26//5
f 23//22 25//22 9//22
f 10//23 8//23 7//23
f 3//24 20//24 1//24
f 6//25 19//25 4//25
f 5//26 4//26 7//26
f 10//27 31//27 9//27
f 13//5 34//5 11//5
f 13//5 12//5 14//5
f 18//28 35//28 16//28
f 19//29 35//29 18//29
f 4//30 18//30 17//30
f 12//9 11//9 20//9
f 12//31 3//31 2//31
f 7//11 2//11 1//11
f 21//32 14//32 17//32
f 22//33 15//33 14//33
f 27//34 28//34 26//34
f 29//35 33//35 28//35
f 10//36 1//36 20//36
f 28//37 33//37 30//37
f 31//38 30//38 32//38
f 33//39 29//39 32//39
f 26//5 28//5 11//5
f 9//40 31//40 23//40
f 36//41 37//41 38//41
f 39//41 40//41 38//41
f 41//42 42//42 43//42
f 44//43 45//43 46//43
f 9//44 44//44 47//44
f 34//45 13//45 37//45
f 15//45 39//45 37//45
f 5//46 41//46 48//46
f 15//47 22//47 49//47
f 49//48 43//48 40//48
f 50//49 51//49 52//49
f 50//50 53//50 24//50
f 25//51 54//51 44//51
f 34//45 36//45 50//45
f 54//52 52//52 45//52
f 36//41 55//41 51//41
f 41//53 5//53 8//53
f 42//54 41//54 47//54
f 38//41 55//41 36//41
f 38//41 37//41 39//41
f 43//55 48//55 41//55
f 46//56 47//56 44//56
f 47//57 8//57 9//57
f 37//45 36//45 34//45
f 37//45 13//45 15//45
f 48//58 56//58 5//58
f 49//59 39//59 15//59
f 40//60 39//60 49//60
f 52//61 53//61 50//61
f 24//62 26//62 50//62
f 44//63 9//63 25//63
f 50//45 26//45 34//45
f 45//64 44//64 54//64
f 51//41 50//41 36//41
f 8//65 47//65 41//65
f 47//66 46//66 42//66
f 57//67 58//67 59//67
f 60//68 61//68 58//68
f 62//69 63//69 64//69
f 65//70 66//70 59//70
f 60//71 67//71 68//71
f 63//69 69//69 70//69
f 71//72 67//72 60//72
f 72//73 64//73 70//73
f 73//73 62//73 64//73
f 74//74 65//74 62//74
f 75//75 66//75 65//75
f 76//76 57//76 66//76
f 42//77 75//77 74//77
f 46//78 76//78 75//78
f 46//79 71//79 76//79
f 55//80 38//80 72//80
f 40//80 73//80 72//80
f 40//81 43//81 74//81
f 60//82 57//82 76//82
f 67//83 71//83 77//83
f 78//84 79//84 80//84
f 55//80 81//80 78//80
f 45//85 82//85 71//85
f 80//86 79//86 82//86
f 82//87 83//87 77//87
f 79//88 84//88 83//88
f 78//89 85//89 84//89
f 81//73 70//73 85//73
f 84//70 86//70 83//70
f 85//69 70//69 69//69
f 77//90 87//90 68//90
f 83//91 86//91 87//91
f 59//92 66//92 57//92
f 58//93 57//93 60//93
f 68//94 61//94 60//94
f 70//69 64//69 63//69
f 60//95 76//95 71//95
f 70//96 81//96 72//96
f 64//73 72//73 73//73
f 62//97 73//97 74//97
f 65//98 74//98 75//98
f 66//99 75//99 76//99
f 74//100 43//100 42//100
f 75//101 42//101 46//101
f 72//102 81//102 55//102
f 72//80 38//80 40//80
f 74//103 73//103 40//103
f 80//104 51//104 78//104
f 78//80 51//80 55//80
f 71//105 46//105 45//105
f 82//106 45//106 80//106
f 77//107 71//107 82//107
f 83//108 82//108 79//108
f 84//109 79//109 78//109
f 85//73 78//73 81//73
f 68//110 67//110 77//110
f 87//111 77//111 83//111
f 88//112 89//112 90//112
f 89//113 91//113 90//113
f 92//114 89//114 88//114
f 93//115 91//115 89//115
f 94//116 92//116 95//116
f 96//117 93//117 92//117
f 59//118 94//118 97//118
f 58//119 96//119 94//119
f 97//96 98//96 69//96
f 95//120 99//120 98//120
f 88//121 100//121 99//121
f 93//122 101//122 102//122
f 91//123 102//123 90//123
f 88//124 90//124 100//124
f 86//125 103//125 104//125
f 69//126 98//126 103//126
f 103//127 105//127 101//127
f 98//128 99//128 105//128
f 105//129 106//129 102//129
f 99//130 100//130 106//130
f 106//131 90//131 102//131
f 100//132 90//132 106//132
f 88//133 95//133 92//133
f 89//134 92//134 93//134
f 95//135 97//135 94//135
f 92//136 94//136 96//136
f 97//137 63//137 59//137
f 94//138 59//138 58//138
f 69//73 63//73 97//73
f 98//120 97//120 95//120
f 99//139 95//139 88//139
f 102//122 91//122 93//122
f 104//140 87//140 86//140
f 103//141 86//141 69//141
f 101//142 104//142 103//142
f 105//143 103//143 98//143
f 102//144 101//144 105//144
f 106//145 105//145 99//145
f 107//146 93//146 96//146
f 61//147 108//147 96//147
f 61//148 68//148 109//148
f 108//149 109//149 110//149
f 107//150 110//150 101//150
f 87//151 104//151 109//151
f 109//152 104//152 101//152
f 96//153 108//153 107//153
f 96//154 58//154 61//154
f 109//148 108//148 61//148
f 110//155 107//155 108//155
f 101//156 93//156 107//156
f 109//157 68//157 87//157
f 101//158 110//158 109//158
f 111//159 7//159 4//159
f 111//160 12//160 7//160
f 111//161 14//161 12//161
f 111//162 4//162 14//162
f 112//163 28//163 31//163
f 112//161 11//161 28//161
f 112//164 10//164 11//164
f 112//165 31//165 10//165
f 63//166 62//166 65//166
f 86//167 84//167 85//167
f 65//168 59//168 63//168
f 85//169 69//169 86//169
f 113//170 114//170 115//170
f 114//171 116//171 117//171
f 118//172 119//172 120//172
f 118//173 115//173 117//173
f 119//174 117//174 116//174
f 120//175 116//175 114//175
f 121//176 122//176 123//176
f 124//177 121//177 125//177
f 126//178 123//178 122//178
f 125//179 123//179 126//179
f 127//180 126//180 128//180
f 124//181 128//181 122//181
f 115//182 118//182 113//182
f 117//183 115//183 114//183
f 120//172 113//172 118//172
f 117//184 119//184 118//184
f 116//185 120//185 119//185
f 114//186 113//186 120//186
f 123//187 125//187 121//187
f 125//188 127//188 124//188
f 122//189 128//189 126//189
f 126//190 127//190 125//190
f 128//191 124//191 127//191
f 122//192 121//192 124//192
f 129//193 16//193 35//193
f 130//194 21//194 16//194
f 131//195 22//195 21//195
f 132//196 19//196 22//196
f 133//197 35//197 19//197
f 134//198 135//198 136//198
f 134//199 136//199 137//199
f 137//200 129//200 133//200
f 136//201 130//201 129//201
f 135//202 131//202 130//202
f 134//203 132//203 131//203
f 138//204 133//204 132//204
f 139//205 140//205 141//205
f 142//206 143//206 140//206
f 144//207 145//207 143//207
f 146//208 147//208 145//208
f 148//209 141//209 147//209
f 148//210 146//210 144//210
f 139//211 144//211 142//211
f 140//197 23//197 32//197
f 143//212 24//212 23//212
f 145//213 27//213 24//213
f 147//214 29//214 27//214
f 141//215 32//215 29//215
f 35//216 133//216 129//216
f 16//217 129//217 130//217
f 21//218 130//218 131//218
f 22//219 131//219 132//219
f 19//197 132//197 133//197
f 137//199 138//199 134//199
f 133//220 138//220 137//220
f 129//221 137//221 136//221
f 130//222 136//222 135//222
f 131//223 135//223 134//223
f 132//224 134//224 138//224
f 141//225 148//225 139//225
f 140//226 139//226 142//226
f 143//227 142//227 144//227
f 145//228 144//228 146//228
f 147//229 146//229 148//229
f 144//211 139//211 148//211
f 32//197 141//197 140//197
f 23//230 140//230 143//230
f 24//231 143//231 145//231
f 27//232 145//232 147//232
f 29//233 147//233 141//233
f 149//199 150//199 151//199
f 149//198 151//198 152//198
f 153//234 152//234 154//234
f 149//235 48//235 43//235
f 153//236 56//236 48//236
f 154//237 155//237 56//237
f 152//238 22//238 155//238
f 151//239 49//239 22//239
f 150//240 43//240 49//240
f 56//241 155//241 22//241
f 25//242 24//242 156//242
f 157//243 53//243 52//243
f 158//244 24//244 53//244
f 159//245 156//245 24//245
f 160//246 25//246 156//246
f 161//247 54//247 25//247
f 162//248 52//248 54//248
f 160//249 159//249 158//249
f 160//211 158//211 157//211
f 161//250 157//250 162//250
f 152//198 153//198 149//198
f 43//251 150//251 149//251
f 48//252 149//252 153//252
f 56//253 153//253 154//253
f 155//254 154//254 152//254
f 22//255 152//255 151//255
f 49//256 151//256 150//256
f 52//257 162//257 157//257
f 53//258 157//258 158//258
f 24//259 158//259 159//259
f 156//260 159//260 160//260
f 25//261 160//261 161//261
f 54//262 161//262 162//262
f 157//211 161//211 160//211
