# Created by Open3D 
# object name: m47
# number of vertices: 62
# number of triangles: 120
v 0.573763 0.053908 0.500498
vn 0.255168 -0.965001 0.0605123
v 0.573763 0.063837 0.476618
vn 0.238403 -0.727667 -0.643168
v 0.607195 0.082815 0.491198
vn 0.372542 -0.744937 -0.553426
v 0.526003 0.054285 0.500498
vn 0.35134 -0.935551 0.036107
v 0.526003 0.063962 0.477372
vn 0.343783 -0.681646 -0.645888
v 0.487166 0.025 0.500498
vn 0.089854 -0.990094 0.107892
v 0.487166 0.043978 0.45764
vn 0.0878671 -0.794179 -0.601297
v 0.327923 0.03229 0.500498
vn -0.21097 -0.973484 -0.0884283
v 0.327923 0.051143 0.46141
vn -0.192338 -0.719687 -0.667126
v 0.229134 0.088597 0.500498
vn -0.47772 -0.856729 -0.194419
v 0.229134 0.092367 0.478503
vn -0.548601 -0.652708 -0.522503
v 0.573763 0.087717 0.466689
vn 0.213666 -0.139416 -0.966907
v 0.607195 0.09199 0.487427
vn 0.405593 -0.146753 -0.902196
v 0.526003 0.087088 0.467694
vn 0.332127 -0.041413 -0.942325
v 0.487166 0.076405 0.439918
vn 0.0910075 -0.116501 -0.989012
v 0.327923 0.079924 0.445323
vn -0.109271 0.089983 -0.989931
v 0.229134 0.097646 0.469328
vn -0.220317 0.349956 -0.91049
v 0.573763 0.099657 0.471716
vn 0.124308 0.484889 -0.865697
v 0.590479 0.106444 0.483908
vn 0.39845 0.554891 -0.730297
v 0.526003 0.11034 0.477372
vn 0.204938 0.702783 -0.681247
v 0.561823 0.11122 0.476744
vn 0.0246198 0.551514 -0.833802
v 0.487166 0.109963 0.45764
vn 0.0421621 0.703707 -0.709238
v 0.327923 0.110089 0.46141
vn -0.05165 0.813286 -0.579567
v 0.229134 0.104056 0.478503
vn -0.197805 0.923472 -0.328745
v 0.526003 0.119892 0.500498
vn 0.100512 0.993762 -0.0483242
v 0.573763 0.121401 0.500498
vn 0.156532 0.985353 -0.067654
v 0.487166 0.128942 0.500498
vn 0.0282209 0.995347 -0.0921321
v 0.327923 0.126428 0.500498
vn -0.0683609 0.99309 0.0953915
v 0.229134 0.106318 0.500498
vn -0.234044 0.953898 0.187886
v 0.573763 0.116499 0.512438
vn 0.0784543 0.901424 0.425769
v 0.590479 0.106444 0.517089
vn 0.376706 0.724142 0.577677
v 0.526003 0.11034 0.523624
vn 0.144734 0.713594 0.685446
v 0.561823 0.11122 0.524253
vn 0.0522261 0.816565 0.574886
v 0.487166 0.109963 0.543357
vn 0.0542624 0.799313 0.59846
v 0.327923 0.110089 0.539461
vn -0.0711323 0.73648 0.672709
v 0.229134 0.104056 0.522493
vn -0.243252 0.750174 0.614872
v 0.526003 0.087088 0.533302
vn 0.278991 0.0318032 0.959767
v 0.573763 0.087717 0.534308
vn 0.205426 -0.0139747 0.978573
v 0.487166 0.076405 0.561079
vn 0.105772 0.116054 0.987595
v 0.327923 0.079924 0.555674
vn -0.10115 -0.0888428 0.990896
v 0.229134 0.097646 0.531668
vn -0.431386 -0.33327 0.838354
v 0.573763 0.063837 0.524379
vn 0.24121 -0.642775 0.727088
v 0.607195 0.082815 0.509799
vn 0.356856 -0.594299 0.720737
v 0.526003 0.063962 0.523624
vn 0.338953 -0.672074 0.658352
v 0.487166 0.043978 0.543357
vn 0.0948674 -0.711209 0.69655
v 0.327923 0.051143 0.539586
vn -0.155594 -0.801351 0.577605
v 0.229134 0.092367 0.522493
vn -0.475686 -0.817507 0.324662
v 0.607195 0.078919 0.500498
vn 0.444964 -0.885081 0.136523
v 0.573763 0.099657 0.52928
vn 0.240058 0.411023 0.87945
v 0.607195 0.09199 0.51357
vn 0.344349 0.0956388 0.933958
v 0.573763 0.116499 0.488558
vn 0.220028 0.861474 -0.457657
v 0.607195 0.105187 0.500498
vn 0.240366 0.968247 -0.0687157
v 0.676448 0.10104 0.500498
vn 0.160306 0.987067 0
v 0.607195 0.101291 0.509799
vn 0.242094 0.708285 0.663116
v 0.641005 0.090482 0.513695
vn 0.134687 -0.0967219 0.986156
v 0.680344 0.090482 0.509422
vn 0.232258 -0.077412 0.969569
v 0.695803 0.089602 0.500498
vn 0.948692 -0.316201 0
v 0.607195 0.101291 0.491198
vn 0.247425 0.67126 -0.698707
v 0.641005 0.090482 0.487301
vn 0.134676 -0.0967116 -0.986159
v 0.680344 0.090482 0.491575
vn 0.232258 -0.077412 -0.969569
v 0.646535 0.079924 0.500498
vn 0.173903 -0.984763 0
v 0.672929 0.090482 0.500498
vn 0.139227 -0.99026 0
f 51//51 19//19 18//18
f 33//33 49//49 31//31
f 62//62 59//59 60//60
f 62//62 57//57 56//56
f 58//58 19//19 51//51
f 52//52 58//58 51//51
f 54//54 31//31 49//49
f 50//50 54//54 49//49
f 24//24 17//17 11//11
f 29//29 24//24 11//11
f 36//36 29//29 11//11
f 41//41 36//36 11//11
f 47//47 41//41 11//11
f 8//8 46//46 47//47
f 6//6 45//45 46//46
f 4//4 44//44 45//45
f 1//1 42//42 44//44
f 48//48 43//43 42//42
f 46//46 40//40 41//41
f 45//45 39//39 40//40
f 44//44 37//37 39//39
f 42//42 38//38 37//37
f 43//43 50//50 38//38
f 40//40 35//35 36//36
f 39//39 34//34 35//35
f 37//37 32//32 34//34
f 49//49 33//33 32//32
f 38//38 49//49 32//32
f 35//35 28//28 29//29
f 34//34 27//27 28//28
f 32//32 25//25 27//27
f 30//30 26//26 25//25
f 33//33 30//30 25//25
f 54//54 52//52 26//26
f 31//31 54//54 26//26
f 28//28 23//23 24//24
f 27//27 22//22 23//23
f 25//25 20//20 22//22
f 51//51 21//21 20//20
f 26//26 51//51 20//20
f 23//23 16//16 17//17
f 22//22 15//15 16//16
f 20//20 14//14 15//15
f 18//18 12//12 14//14
f 21//21 18//18 14//14
f 58//58 13//13 12//12
f 19//19 58//58 12//12
f 16//16 9//9 11//11
f 15//15 7//7 9//9
f 14//14 5//5 7//7
f 12//12 2//2 5//5
f 13//13 3//3 2//2
f 9//9 8//8 10//10
f 7//7 6//6 8//8
f 5//5 4//4 6//6
f 2//2 1//1 4//4
f 3//3 48//48 1//1
f 21//21 51//51 18//18
f 30//30 33//33 31//31
f 57//57 62//62 60//60
f 55//55 62//62 56//56
f 59//59 61//61 3//3
f 62//62 61//61 59//59
f 3//3 61//61 48//48
f 3//3 13//13 59//59
f 55//55 43//43 61//61
f 62//62 55//55 61//61
f 43//43 48//48 61//61
f 43//43 55//55 50//50
f 57//57 60//60 53//53
f 53//53 60//60 59//59
f 53//53 59//59 58//58
f 58//58 59//59 13//13
f 52//52 53//53 58//58
f 57//57 53//53 56//56
f 53//53 55//55 56//56
f 53//53 54//54 55//55
f 54//54 50//50 55//55
f 52//52 54//54 53//53
f 26//26 52//52 51//51
f 38//38 50//50 49//49
f 10//10 47//47 11//11
f 10//10 8//8 47//47
f 8//8 6//6 46//46
f 6//6 4//4 45//45
f 4//4 1//1 44//44
f 1//1 48//48 42//42
f 47//47 46//46 41//41
f 46//46 45//45 40//40
f 45//45 44//44 39//39
f 44//44 42//42 37//37
f 42//42 43//43 38//38
f 41//41 40//40 36//36
f 40//40 39//39 35//35
f 39//39 37//37 34//34
f 37//37 38//38 32//32
f 36//36 35//35 29//29
f 35//35 34//34 28//28
f 34//34 32//32 27//27
f 32//32 33//33 25//25
f 30//30 31//31 26//26
f 29//29 28//28 24//24
f 28//28 27//27 23//23
f 27//27 25//25 22//22
f 25//25 26//26 20//20
f 24//24 23//23 17//17
f 23//23 22//22 16//16
f 22//22 20//20 15//15
f 20//20 21//21 14//14
f 18//18 19//19 12//12
f 17//17 16//16 11//11
f 16//16 15//15 9//9
f 15//15 14//14 7//7
f 14//14 12//12 5//5
f 12//12 13//13 2//2
f 11//11 9//9 10//10
f 9//9 7//7 8//8
f 7//7 5//5 6//6
f 5//5 2//2 4//4
f 2//2 3//3 1//1
