# Created by Open3D 
# object name: m937
# number of vertices: 72
# number of triangles: 140
v 0.922222 0.025 0.325481
vn -0.270959 0.959971 0.0709653
v 0.674519 0.025 0.077778
vn -0.357103 0.708493 0.608699
v 0.325481 0.025 0.077778
vn 0.0184046 0.997358 0.0702724
v 0.922222 0.025 0.674519
vn -0.145299 0.985709 -0.0852419
v 0.674519 0.025 0.922222
vn -0.0365213 0.989556 -0.139445
v 0.325481 0.025 0.922222
vn 0.0852419 0.985709 -0.145299
v 0.077778 0.025 0.674519
vn 0.270211 0.960197 -0.0707692
v 0.077778 0.025 0.325481
vn 0.608699 0.708493 0.357103
v 0.674519 0.112963 0.077778
vn -0.264708 -0.672649 0.690994
v 0.325481 0.112963 0.077778
vn 0.302575 -0.672281 0.675638
v 0.922222 0.112963 0.325481
vn -0.675638 -0.672281 0.302575
v 0.922222 0.112963 0.674519
vn -0.690994 -0.672649 -0.264708
v 0.674519 0.112963 0.922222
vn -0.302575 -0.672281 -0.675638
v 0.325481 0.112963 0.922222
vn 0.264708 -0.672649 -0.690994
v 0.077778 0.112963 0.674519
vn 0.675638 -0.672281 -0.302575
v 0.077778 0.112963 0.325481
vn 0.690994 -0.672649 0.264708
v 0.609074 0.200926 0.236111
vn -0.196857 -0.80925 0.5535
v 0.390926 0.200926 0.236111
vn 0.252909 -0.809349 0.530086
v 0.763889 0.200926 0.390926
vn -0.530086 -0.809349 0.252909
v 0.763889 0.200926 0.609074
vn -0.5535 -0.80925 -0.196857
v 0.609074 0.200926 0.763889
vn -0.252909 -0.809349 -0.530086
v 0.390926 0.200926 0.763889
vn 0.196857 -0.80925 -0.5535
v 0.236111 0.200926 0.609074
vn 0.530086 -0.809349 -0.252909
v 0.236111 0.200926 0.390926
vn 0.5535 -0.80925 0.196857
v 0.587259 0.288889 0.288889
vn -0.351101 -0.445907 0.823344
v 0.412741 0.288889 0.288889
vn 0.335162 -0.445975 0.829923
v 0.711111 0.288889 0.412741
vn -0.829923 -0.445975 0.335162
v 0.711111 0.288889 0.587259
vn -0.823344 -0.445907 -0.351101
v 0.587259 0.288889 0.711111
vn -0.335162 -0.445975 -0.829923
v 0.412741 0.288889 0.711111
vn 0.351101 -0.445907 -0.823344
v 0.288889 0.288889 0.587259
vn 0.829923 -0.445975 -0.335162
v 0.288889 0.288889 0.412741
vn 0.823344 -0.445907 0.351101
v 0.54363 0.552778 0.394444
vn -0.265692 -0.183727 0.946389
v 0.45637 0.552778 0.394444
vn 0.482448 -0.184164 0.856346
v 0.605556 0.552778 0.45637
vn -0.856346 -0.184164 0.482448
v 0.605556 0.552778 0.54363
vn -0.946389 -0.183727 -0.265692
v 0.54363 0.552778 0.605556
vn -0.482448 -0.184164 -0.856346
v 0.45637 0.552778 0.605556
vn 0.265692 -0.183727 -0.946389
v 0.394444 0.552778 0.54363
vn 0.856346 -0.184164 -0.482448
v 0.394444 0.552778 0.45637
vn 0.946389 -0.183727 0.265692
v 0.565444 0.640741 0.341667
vn -0.0917276 0.976611 0.194467
v 0.434556 0.640741 0.341667
vn 0.0730246 0.976561 0.202476
v 0.658333 0.640741 0.434556
vn -0.202476 0.976561 0.0730246
v 0.658333 0.640741 0.565444
vn -0.194467 0.976611 -0.0917276
v 0.565444 0.640741 0.658333
vn -0.0730246 0.976561 -0.202476
v 0.434556 0.640741 0.658333
vn 0.0917276 0.976611 -0.194467
v 0.341667 0.640741 0.565444
vn 0.202476 0.976561 -0.0730246
v 0.341667 0.640741 0.434556
vn 0.194467 0.976611 0.0917276
v 0.696333 0.675926 0.025
vn -0.129251 0.957391 0.258256
v 0.303667 0.675926 0.025
vn 0.0915217 0.957483 0.273586
v 0.975 0.675926 0.303667
vn -0.273586 0.957483 0.0915217
v 0.975 0.675926 0.696333
vn -0.258256 0.957391 -0.129251
v 0.696333 0.675926 0.975
vn -0.0915217 0.957483 -0.273586
v 0.303667 0.675926 0.975
vn 0.129251 0.957391 -0.258256
v 0.025 0.675926 0.696333
vn 0.273586 0.957483 -0.0915217
v 0.025 0.675926 0.303667
vn 0.258256 0.957391 0.129251
v 0.696333 0.728704 0.025
vn -0.10737 -0.943697 0.312902
v 0.303667 0.728704 0.025
vn 0.145922 -0.943574 0.297279
v 0.975 0.728704 0.303667
vn -0.297279 -0.943574 0.145922
v 0.975 0.728704 0.696333
vn -0.312902 -0.943697 -0.10737
v 0.696333 0.728704 0.975
vn -0.145922 -0.943574 -0.297279
v 0.303667 0.728704 0.975
vn 0.10737 -0.943697 -0.312902
v 0.025 0.728704 0.696333
vn 0.297279 -0.943574 -0.145922
v 0.025 0.728704 0.303667
vn 0.312902 -0.943697 0.10737
v 0.587259 0.763889 0.288889
vn -0.0199094 -0.993611 0.111085
v 0.412741 0.763889 0.288889
vn 0.0287866 -0.998733 0.0412675
v 0.711111 0.763889 0.412741
vn -0.0749201 -0.995819 0.0522614
v 0.711111 0.763889 0.587259
vn -0.0753247 -0.997068 -0.0135002
v 0.587259 0.763889 0.711111
vn -0.0410915 -0.997417 -0.0589074
v 0.412741 0.763889 0.711111
vn 0.0135002 -0.997068 -0.0753247
v 0.288889 0.763889 0.587259
vn 0.074859 -0.995826 -0.0522188
v 0.288889 0.763889 0.412741
vn 0.111085 -0.993611 0.0199094
f 71//71 72//72 66//66
f 70//70 71//71 66//66
f 69//69 70//70 66//66
f 68//68 69//69 66//66
f 67//67 68//68 66//66
f 65//65 67//67 66//66
f 58//58 66//66 64//64
f 66//66 72//72 64//64
f 64//64 72//72 63//63
f 72//72 71//71 63//63
f 63//63 71//71 62//62
f 71//71 70//70 62//62
f 62//62 70//70 61//61
f 70//70 69//69 61//61
f 61//61 69//69 60//60
f 69//69 68//68 60//60
f 60//60 68//68 59//59
f 68//68 67//67 59//59
f 59//59 67//67 57//57
f 67//67 65//65 57//57
f 57//57 65//65 58//58
f 65//65 66//66 58//58
f 50//50 58//58 56//56
f 58//58 64//64 56//56
f 56//56 64//64 55//55
f 64//64 63//63 55//55
f 55//55 63//63 54//54
f 63//63 62//62 54//54
f 54//54 62//62 53//53
f 62//62 61//61 53//53
f 53//53 61//61 52//52
f 61//61 60//60 52//52
f 52//52 60//60 51//51
f 60//60 59//59 51//51
f 51//51 59//59 49//49
f 59//59 57//57 49//49
f 49//49 57//57 50//50
f 57//57 58//58 50//50
f 42//42 50//50 48//48
f 50//50 56//56 48//48
f 48//48 56//56 47//47
f 56//56 55//55 47//47
f 47//47 55//55 46//46
f 55//55 54//54 46//46
f 46//46 54//54 45//45
f 54//54 53//53 45//45
f 45//45 53//53 44//44
f 53//53 52//52 44//44
f 44//44 52//52 43//43
f 52//52 51//51 43//43
f 43//43 51//51 41//41
f 51//51 49//49 41//41
f 41//41 49//49 42//42
f 49//49 50//50 42//42
f 34//34 42//42 40//40
f 42//42 48//48 40//40
f 40//40 48//48 39//39
f 48//48 47//47 39//39
f 39//39 47//47 38//38
f 47//47 46//46 38//38
f 38//38 46//46 37//37
f 46//46 45//45 37//37
f 37//37 45//45 36//36
f 45//45 44//44 36//36
f 36//36 44//44 35//35
f 44//44 43//43 35//35
f 35//35 43//43 33//33
f 43//43 41//41 33//33
f 33//33 41//41 34//34
f 41//41 42//42 34//34
f 26//26 34//34 32//32
f 34//34 40//40 32//32
f 32//32 40//40 31//31
f 40//40 39//39 31//31
f 31//31 39//39 30//30
f 39//39 38//38 30//30
f 30//30 38//38 29//29
f 38//38 37//37 29//29
f 29//29 37//37 28//28
f 37//37 36//36 28//28
f 28//28 36//36 27//27
f 36//36 35//35 27//27
f 27//27 35//35 25//25
f 35//35 33//33 25//25
f 25//25 33//33 26//26
f 33//33 34//34 26//26
f 18//18 26//26 24//24
f 26//26 32//32 24//24
f 24//24 32//32 23//23
f 32//32 31//31 23//23
f 23//23 31//31 22//22
f 31//31 30//30 22//22
f 22//22 30//30 21//21
f 30//30 29//29 21//21
f 21//21 29//29 20//20
f 29//29 28//28 20//20
f 20//20 28//28 19//19
f 28//28 27//27 19//19
f 19//19 27//27 17//17
f 27//27 25//25 17//17
f 17//17 25//25 18//18
f 25//25 26//26 18//18
f 10//10 18//18 16//16
f 18//18 24//24 16//16
f 16//16 24//24 15//15
f 24//24 23//23 15//15
f 15//15 23//23 14//14
f 23//23 22//22 14//14
f 14//14 22//22 13//13
f 22//22 21//21 13//13
f 13//13 21//21 12//12
f 21//21 20//20 12//12
f 12//12 20//20 11//11
f 20//20 19//19 11//11
f 11//11 19//19 9//9
f 19//19 17//17 9//9
f 9//9 17//17 10//10
f 17//17 18//18 10//10
f 3//3 10//10 8//8
f 10//10 16//16 8//8
f 8//8 16//16 7//7
f 16//16 15//15 7//7
f 7//7 15//15 6//6
f 15//15 14//14 6//6
f 6//6 14//14 5//5
f 14//14 13//13 5//5
f 5//5 13//13 4//4
f 13//13 12//12 4//4
f 4//4 12//12 1//1
f 12//12 11//11 1//1
f 1//1 11//11 2//2
f 11//11 9//9 2//2
f 2//2 9//9 3//3
f 9//9 10//10 3//3
f 7//7 3//3 8//8
f 6//6 3//3 7//7
f 5//5 3//3 6//6
f 4//4 3//3 5//5
f 1//1 3//3 4//4
f 2//2 3//3 1//1
