# Blender 4.2.3 LTS
# www.blender.org
o D00796
v -0.164275 -0.149177 -0.030908
v -0.460291 -0.161929 -0.008070
v -0.176648 -0.094615 -0.158554
v -0.156730 -0.097190 0.098182
v -0.516844 -0.109707 -0.131627
v -0.636044 -0.116701 -0.013965
v -0.417069 -0.108563 0.117580
v -0.643205 -0.078524 -0.083883
v -0.630737 -0.080136 0.076832
v 0.051862 -0.037773 0.012945
v 0.046426 -0.013802 -0.043137
v 0.055177 -0.014933 0.069660
v 0.659636 0.038960 -0.033438
v 0.657497 0.048394 -0.055509
v 0.660941 0.047949 -0.011117
v 0.742870 0.065900 -0.239714
v 0.773735 0.061910 0.158121
v -0.184442 0.034256 -0.182177
v -0.524586 0.018479 -0.154979
v 0.741603 0.077119 -0.249406
v 0.804973 0.079598 -0.220488
v -0.649280 0.012195 -0.108140
v -0.749979 0.006394 -0.016633
v 0.042053 0.042940 -0.065733
v 0.655776 0.070725 -0.064401
v 0.774470 0.075798 -0.041977
v 0.660646 0.070095 -0.001623
v -0.631933 0.009953 0.115455
v 0.054429 0.041340 0.093786
v -0.402890 0.019577 0.170979
v -0.158431 0.030894 0.153095
v 0.832151 0.076085 0.129824
v 0.773994 0.072931 0.168113
v 0.741863 0.088139 -0.239413
v 0.772727 0.084149 0.158422
v 0.655482 0.092872 -0.054906
v 0.658926 0.092426 -0.010515
v 0.656786 0.101860 -0.032586
v 0.041306 0.099213 -0.041606
v 0.050057 0.098082 0.071191
v 0.044621 0.122054 0.015109
v -0.651401 0.102402 -0.081433
v -0.638933 0.100791 0.079282
v -0.528436 0.146161 -0.128161
v -0.647635 0.139167 -0.010499
v -0.428660 0.147305 0.121045
v -0.188301 0.162618 -0.155070
v -0.168383 0.160043 0.101666
v -0.476684 0.199922 -0.003169
v -0.180755 0.214605 -0.025981
v -0.466868 0.114185 -0.129867
v -0.241749 0.124618 -0.147227
v -0.482010 0.117646 -0.120261
v -0.450817 0.119092 -0.122666
v -0.256892 0.128080 -0.137621
v -0.225699 0.129526 -0.140027
v -0.481028 0.125592 -0.102750
v -0.449835 0.127037 -0.105156
v -0.255910 0.136025 -0.120111
v -0.224717 0.137471 -0.122516
v -0.464904 0.130079 -0.094848
v -0.239785 0.140513 -0.112209
v -0.249306 0.186396 -0.208100
v -0.474426 0.175963 -0.190739
v -0.489999 0.182836 -0.184672
v -0.458806 0.184282 -0.187078
v -0.264880 0.193269 -0.202033
v -0.233688 0.194715 -0.204438
v -0.489938 0.197864 -0.174853
v -0.458745 0.199309 -0.177258
v -0.264819 0.208297 -0.192213
v -0.233627 0.209743 -0.194619
v -0.480041 0.199642 -0.249320
v -0.254921 0.210076 -0.266680
v -0.474306 0.206014 -0.171120
v -0.249186 0.216447 -0.188481
v -0.496046 0.207951 -0.247995
v -0.464853 0.209396 -0.250400
v -0.270927 0.218384 -0.265355
v -0.239735 0.219830 -0.267760
v -0.496864 0.226012 -0.247750
v -0.465671 0.227458 -0.250155
v -0.271746 0.236446 -0.265110
v -0.240553 0.237891 -0.267516
v -0.481677 0.235766 -0.248830
v -0.256558 0.246200 -0.266191
v -0.462533 -0.186832 -0.254554
v -0.237413 -0.176399 -0.271914
v -0.478538 -0.178524 -0.253229
v -0.447345 -0.177078 -0.255634
v -0.253419 -0.168091 -0.270589
v -0.222227 -0.166645 -0.272995
v -0.457548 -0.163902 -0.176130
v -0.232428 -0.153468 -0.193491
v -0.479356 -0.160463 -0.252984
v -0.448163 -0.159017 -0.255390
v -0.254237 -0.150029 -0.270345
v -0.223045 -0.148584 -0.272750
v -0.473857 -0.157100 -0.179660
v -0.442664 -0.155655 -0.182066
v -0.248739 -0.146667 -0.197021
v -0.217546 -0.145221 -0.199426
v -0.464169 -0.150709 -0.254065
v -0.239050 -0.140275 -0.271425
v -0.475288 -0.141880 -0.189070
v -0.444095 -0.140434 -0.191476
v -0.250170 -0.131446 -0.206430
v -0.218977 -0.130000 -0.208836
v -0.460408 -0.133465 -0.194930
v -0.235289 -0.123031 -0.212291
v -0.454956 -0.089517 -0.097822
v -0.229837 -0.079084 -0.115183
v -0.471429 -0.086294 -0.105620
v -0.440236 -0.084848 -0.108026
v -0.246311 -0.075860 -0.122980
v -0.215118 -0.074415 -0.125386
v -0.473147 -0.078000 -0.122911
v -0.441954 -0.076554 -0.125316
v -0.248029 -0.067566 -0.140271
v -0.216836 -0.066120 -0.142676
v -0.458392 -0.072925 -0.132401
v -0.233272 -0.062492 -0.149762
v -0.575424 -0.200201 -0.257944
v -0.134191 -0.179751 -0.291971
v -0.577952 -0.185867 -0.282108
v -0.136719 -0.165418 -0.316135
v -0.574173 -0.186356 -0.233399
v -0.132940 -0.165906 -0.267425
v -0.587734 -0.172535 -0.256712
v -0.124437 -0.151063 -0.292440
v -0.579228 -0.157690 -0.281727
v -0.137996 -0.137241 -0.315753
v -0.575449 -0.158179 -0.233017
v -0.134217 -0.137729 -0.267043
v -0.577977 -0.143846 -0.257181
v -0.136744 -0.123396 -0.291207
v -0.592570 0.183280 -0.252768
v -0.151336 0.203730 -0.286795
v -0.595098 0.197613 -0.276932
v -0.153864 0.218063 -0.310959
v -0.591319 0.197125 -0.228223
v -0.150085 0.217574 -0.262249
v -0.604877 0.210946 -0.251536
v -0.141580 0.232418 -0.287264
v -0.596374 0.225790 -0.276551
v -0.155140 0.246240 -0.310577
v -0.592595 0.225302 -0.227841
v -0.151361 0.245751 -0.261867
v -0.595123 0.239635 -0.252005
v -0.153889 0.260085 -0.286031
v 0.731493 0.026055 -0.039788
v 0.700358 0.030106 -0.242457
v 0.730748 0.031514 -0.244801
v 0.714131 0.028325 -0.064925
v 0.744522 0.029734 -0.067269
v 0.700980 0.027357 -0.037407
v 0.761760 0.030174 -0.042095
v 0.718219 0.027797 -0.012234
v 0.748610 0.029205 -0.014577
v 0.731992 0.026016 0.165299
v 0.762383 0.027425 0.162955
v 0.730161 0.040439 -0.049634
v 0.721945 0.039990 -0.044000
v 0.739146 0.040787 -0.045327
v 0.730932 0.040339 -0.039694
v 0.722716 0.039890 -0.034061
v 0.739917 0.040688 -0.035387
v 0.731703 0.040239 -0.029755
v 0.699785 0.042749 -0.242286
v 0.730176 0.044158 -0.244630
v 0.713559 0.040969 -0.064754
v 0.743949 0.042377 -0.067097
v 0.700407 0.040000 -0.037236
v 0.761187 0.042817 -0.041923
v 0.717646 0.040440 -0.012062
v 0.748037 0.041849 -0.014406
v 0.731420 0.038660 0.165470
v 0.761810 0.040068 0.163126
v 0.730674 0.044118 -0.039543
v 0.729071 0.064502 -0.049308
v 0.720855 0.064054 -0.043674
v 0.738056 0.064851 -0.045001
v 0.729842 0.064403 -0.039368
v 0.721626 0.063954 -0.033735
v 0.738827 0.064751 -0.035061
v 0.730613 0.064303 -0.029429
v -0.262521 -0.889468 0.195227
v -0.201741 -0.886651 0.190539
v -0.260563 -0.889721 0.220465
v -0.199783 -0.886905 0.215778
v -0.301492 -0.029226 0.206877
v -0.240712 -0.026409 0.202190
v -0.299534 -0.029479 0.232116
v -0.238754 -0.026662 0.227428
v -0.276344 0.005694 0.159108
v -0.272618 0.005212 0.207141
v -0.293993 0.014857 0.160569
v -0.259595 0.016451 0.157916
v -0.290266 0.014375 0.208602
v -0.255868 0.015969 0.205950
v -0.273914 0.025029 0.199840
v -0.334273 0.022158 0.209936
v -0.212710 0.027792 0.200561
v -0.332315 0.021905 0.235174
v -0.210752 0.027539 0.225800
v -0.271116 0.024668 0.235894
v -0.277247 0.025612 0.159377
v -0.273520 0.025131 0.207411
v -0.294895 0.034774 0.160838
v -0.260497 0.036368 0.158186
v -0.291168 0.034292 0.208872
v -0.256771 0.035886 0.206219
v -0.278149 0.045530 0.159647
v -0.274422 0.045048 0.207681
v -0.306275 0.076359 0.208307
v -0.245495 0.079176 0.203620
v -0.304317 0.076106 0.233546
v -0.243537 0.078923 0.228858
v -0.345246 0.936601 0.219958
v -0.284466 0.939418 0.215271
v -0.343288 0.936348 0.245196
v -0.282508 0.939165 0.240509
vn 0.2290 0.9029 0.3637
vn 0.3101 -0.8880 0.3395
vn 0.2527 -0.8806 -0.4009
vn 0.1716 0.9103 -0.3766
vn -0.0151 0.9186 0.3950
vn -0.0156 0.9189 0.3943
vn 0.0508 0.3725 0.9266
vn 0.0505 0.3728 0.9265
vn 0.0851 -0.3913 0.9163
vn 0.0854 -0.3916 0.9161
vn 0.0681 -0.9265 0.3701
vn 0.0684 -0.9268 0.3692
vn 0.0093 -0.9195 -0.3929
vn 0.0096 -0.9191 -0.3938
vn -0.0695 -0.1829 -0.9807
vn -0.0699 -0.1839 -0.9804
vn -0.0874 0.2022 -0.9754
vn -0.0870 0.2033 -0.9752
vn -0.0740 0.9269 -0.3680
vn -0.0744 0.9265 -0.3688
vn -0.2080 -0.8673 -0.4523
vn -0.3177 -0.9168 -0.2421
vn -0.3970 -0.2618 -0.8797
vn -0.3370 -0.1884 -0.9225
vn -0.3511 0.2582 -0.9000
vn -0.4039 0.1764 -0.8977
vn -0.4376 0.8076 -0.3953
vn -0.3131 0.9126 -0.2629
vn -0.6655 0.1975 -0.7198
vn -0.6458 -0.2373 -0.7257
vn -0.7002 -0.6543 -0.2856
vn -0.7569 0.5958 -0.2686
vn 0.3005 0.8872 0.3501
vn 0.2317 0.3753 0.8975
vn 0.2317 0.3752 0.8975
vn 0.2657 -0.3769 0.8873
vn 0.3799 -0.8655 0.3264
vn 0.4834 -0.7870 -0.3833
vn 0.4920 -0.1281 -0.8611
vn 0.4451 -0.3015 -0.8432
vn 0.4422 0.1980 -0.8748
vn 0.4909 0.3488 -0.7984
vn 0.4098 0.8376 -0.3613
vn 0.0605 0.9199 0.3874
vn 0.1267 0.3754 0.9182
vn 0.1612 -0.3871 0.9078
vn 0.1612 -0.3870 0.9079
vn 0.1439 -0.9208 0.3624
vn 0.0849 -0.9132 -0.3986
vn 0.0187 -0.3687 -0.9294
vn 0.0187 -0.3686 -0.9294
vn -0.0158 0.3938 -0.9190
vn -0.0158 0.3938 -0.9191
vn 0.0015 0.9276 -0.3736
vn -0.3223 0.8588 0.3983
vn -0.2782 0.8411 0.4638
vn -0.2551 0.3407 0.9049
vn -0.2362 0.3121 0.9202
vn -0.2017 -0.3882 0.8992
vn -0.2204 -0.3543 0.9088
vn -0.1923 -0.9063 0.3762
vn -0.2369 -0.8622 0.4477
vn -0.7032 -0.6443 0.3006
vn -0.7109 -0.2851 0.6430
vn -0.7329 0.2022 0.6496
vn -0.7582 0.5698 0.3170
vn 0.4062 0.6232 0.6683
vn 0.4617 -0.6017 0.6517
vn 0.3547 -0.5880 -0.7270
vn 0.2992 0.6371 -0.7103
vn 0.1302 0.9905 -0.0454
vn 0.1194 0.9923 -0.0318
vn -0.8152 0.1590 0.5569
vn -0.7797 0.3566 0.5147
vn -0.8048 -0.2429 0.5415
vn -0.7236 -0.4542 0.5197
vn 0.2206 -0.9731 -0.0667
vn 0.2045 -0.9766 -0.0670
vn 0.2261 -0.9739 0.0179
vn 0.2136 -0.9769 0.0061
vn -0.8726 -0.2373 -0.4270
vn -0.8130 -0.4305 -0.3920
vn -0.8970 0.1641 -0.4105
vn -0.8331 0.3822 -0.3998
vn 0.1378 0.9897 0.0391
vn 0.1216 0.9917 0.0419
vn -0.5122 -0.6346 -0.5787
vn -0.5072 -0.6356 -0.5820
vn -0.9960 -0.0462 0.0768
vn -0.4816 0.5907 0.6474
vn -0.4666 0.5952 0.6543
vn 0.5195 0.6348 0.5721
vn 0.5044 0.6422 0.5772
vn 0.9960 0.0462 -0.0768
vn 0.4739 -0.5880 -0.6556
vn 0.4687 -0.5911 -0.6564
vn -0.4776 -0.8314 -0.2841
vn -0.4594 -0.8379 -0.2947
vn -0.9960 -0.0461 0.0768
vn -0.4974 0.7934 0.3509
vn -0.4873 0.7980 0.3545
vn 0.4706 0.8372 0.2786
vn 0.4605 0.8427 0.2790
vn 0.9960 0.0461 -0.0768
vn 0.5028 -0.7836 -0.3649
vn 0.4854 -0.7959 -0.3620
vn -0.4817 0.5907 0.6474
vn -0.4665 0.5952 0.6543
vn 0.4739 -0.5880 -0.6555
vn 0.4688 -0.5911 -0.6564
vn -0.4593 -0.8380 -0.2947
vn -0.4873 0.7981 0.3545
vn 0.4606 0.8427 0.2789
vn 0.5029 -0.7835 -0.3649
vn 0.4854 -0.7958 -0.3620
vn 0.4178 0.6468 -0.6380
vn 0.4124 0.6478 -0.6405
vn 0.5748 -0.6027 0.5535
vn 0.5609 -0.6074 0.5625
vn -0.4260 -0.6468 0.6326
vn -0.4103 -0.6544 0.6352
vn -0.5683 0.6002 -0.5628
vn -0.5635 0.6034 -0.5643
vn 0.4266 0.8609 -0.2775
vn 0.4243 0.8617 -0.2783
vn 0.5358 -0.8190 0.2054
vn 0.5393 -0.8171 0.2036
vn -0.4203 -0.8637 0.2782
vn -0.4241 -0.8616 0.2789
vn -0.5414 0.8158 -0.2034
vn -0.5393 0.8172 -0.2033
vn -0.4104 -0.6543 0.6351
vn -0.5684 0.6002 -0.5628
vn 0.4265 0.8609 -0.2774
vn 0.5357 -0.8190 0.2054
vn -0.4204 -0.8636 0.2782
vn 0.0779 -0.8700 0.4868
vn 0.0773 -0.0100 0.9970
vn -0.0005 0.8601 0.5102
vn -0.0779 0.8701 -0.4868
vn -0.0779 0.8701 -0.4867
vn -0.0773 0.0100 -0.9970
vn 0.0005 -0.8601 -0.5102
vn 0.0005 -0.8600 -0.5102
vn 0.9393 -0.3172 0.1310
vn 0.9390 0.0379 0.3417
vn 0.9069 0.3971 0.1407
vn 0.8750 0.4013 -0.2710
vn 0.8752 0.0462 -0.4816
vn 0.9073 -0.3131 -0.2806
vn -0.8749 -0.4014 0.2710
vn -0.8751 -0.0462 0.4817
vn -0.9073 0.3132 0.2807
vn -0.9392 0.3173 -0.1311
vn -0.9390 -0.0379 -0.3418
vn -0.9069 -0.3972 -0.1408
vn -0.0005 0.8600 0.5102
vn 0.0779 -0.8701 0.4868
vn -0.0779 0.8700 -0.4868
vn -0.9073 0.3131 0.2806
vn -0.8752 -0.0462 0.4816
vn -0.8750 -0.4013 0.2709
vn -0.9069 -0.3972 -0.1407
vn -0.9390 -0.0379 -0.3417
vn -0.9393 0.3172 -0.1310
vn 0.9069 0.3972 0.1407
vn 0.9392 -0.3173 0.1311
vn 0.9073 -0.3131 -0.2807
vn 0.8751 0.0462 -0.4817
vn 0.8749 0.4013 -0.2710
vn 0.8239 0.0450 -0.5650
vn -0.9012 -0.0350 -0.4319
vn -0.9012 -0.0349 -0.4320
vn -0.8239 -0.0450 0.5650
vn 0.9012 0.0350 0.4319
vn 0.1292 -0.9891 -0.0712
vn 0.0371 -0.9926 -0.1153
vn -0.0470 -0.9972 -0.0576
vn -0.0391 -0.9983 0.0443
vn 0.0529 -0.9947 0.0884
vn 0.1371 -0.9901 0.0306
vn 0.0391 0.9983 -0.0442
vn -0.0529 0.9947 -0.0883
vn -0.1370 0.9901 -0.0306
vn -0.1291 0.9891 0.0712
vn -0.0371 0.9926 0.1152
vn 0.0470 0.9972 0.0575
vn -0.0774 0.0100 -0.9970
vn 0.0774 -0.0100 0.9970
vn 0.0453 -0.9989 -0.0135
vn 0.0452 -0.9989 -0.0135
vn -0.0452 0.9989 0.0135
vn -0.0453 0.9989 0.0135
vn -0.5649 -0.0144 -0.8250
vn -0.4309 -0.0317 0.9019
vn 0.5649 0.0144 0.8250
vn 0.4310 0.0317 -0.9018
vn 0.0453 -0.9989 -0.0136
vn 0.0452 -0.9989 -0.0136
vn -0.0453 0.9989 0.0136
vn -0.0452 0.9989 0.0136
vn -0.8852 0.4594 0.0733
vn 0.8399 0.5394 -0.0598
vn 0.8852 -0.4595 -0.0733
vn -0.8399 -0.5394 0.0598
vn -0.0134 0.0369 0.9992
vn 0.0723 0.0920 0.9931
vn 0.1627 0.0451 0.9856
vn 0.1673 -0.0569 0.9843
vn 0.0816 -0.1119 0.9904
vn -0.0088 -0.0650 0.9978
vn -0.1673 0.0569 -0.9843
vn -0.0816 0.1119 -0.9904
vn 0.0088 0.0650 -0.9978
vn 0.0134 -0.0370 -0.9992
vn -0.0723 -0.0921 -0.9931
vn -0.1627 -0.0451 -0.9856
vn 0.4588 0.8881 -0.0267
vn 0.4588 0.8882 -0.0267
vn 0.5372 -0.8420 -0.0501
vn -0.4589 -0.8881 0.0267
vn -0.5372 0.8420 0.0501
vn 0.0737 -0.9097 0.4087
vn 0.0737 -0.9097 0.4086
vn -0.0084 0.9013 0.4332
vn -0.0083 0.9013 0.4332
vn -0.0084 0.9012 0.4332
s 0
f 26//1 38//1 37//1
f 26//2 15//2 13//2
f 26//3 13//3 14//3
f 26//4 36//4 38//4
f 50//5 49//5 46//5
f 50//6 46//6 48//6
f 48//7 46//7 30//7
f 48//8 30//8 31//8
f 31//9 30//9 7//9
f 31//10 7//10 4//10
f 4//11 7//11 2//11
f 4//12 2//12 1//12
f 1//13 2//13 5//13
f 1//14 5//14 3//14
f 3//15 5//15 19//15
f 3//16 19//16 18//16
f 18//17 19//17 44//17
f 18//18 44//18 47//18
f 47//19 44//19 49//19
f 47//20 49//20 50//20
f 2//21 6//21 8//21
f 2//22 8//22 5//22
f 5//23 8//23 22//23
f 5//24 22//24 19//24
f 19//25 22//25 42//25
f 19//26 42//26 44//26
f 44//27 42//27 45//27
f 44//28 45//28 49//28
f 23//29 42//29 22//29
f 23//30 22//30 8//30
f 23//31 8//31 6//31
f 23//32 45//32 42//32
f 41//33 50//33 48//33
f 48//33 40//33 41//33
f 40//34 48//34 31//34
f 31//35 29//35 40//35
f 29//36 31//36 4//36
f 4//36 12//36 29//36
f 12//37 4//37 1//37
f 1//37 10//37 12//37
f 10//38 1//38 3//38
f 3//38 11//38 10//38
f 11//39 3//39 18//39
f 18//40 24//40 11//40
f 24//41 18//41 47//41
f 47//42 39//42 24//42
f 39//43 47//43 50//43
f 50//43 41//43 39//43
f 38//44 41//44 40//44
f 40//44 37//44 38//44
f 37//45 40//45 29//45
f 29//45 27//45 37//45
f 27//46 29//46 12//46
f 12//47 15//47 27//47
f 15//48 12//48 10//48
f 10//48 13//48 15//48
f 13//49 10//49 11//49
f 11//49 14//49 13//49
f 14//50 11//50 24//50
f 24//51 25//51 14//51
f 25//52 24//52 39//52
f 39//53 36//53 25//53
f 36//54 39//54 41//54
f 41//54 38//54 36//54
f 49//55 45//55 43//55
f 49//56 43//56 46//56
f 46//57 43//57 28//57
f 46//58 28//58 30//58
f 30//59 28//59 9//59
f 30//60 9//60 7//60
f 7//61 9//61 6//61
f 7//62 6//62 2//62
f 23//63 6//63 9//63
f 23//64 9//64 28//64
f 23//65 28//65 43//65
f 23//66 43//66 45//66
f 32//67 35//67 33//67
f 32//68 33//68 17//68
f 21//69 16//69 20//69
f 21//70 20//70 34//70
f 32//71 26//71 37//71
f 37//72 35//72 32//72
f 35//73 37//73 27//73
f 27//74 33//74 35//74
f 33//75 27//75 15//75
f 15//76 17//76 33//76
f 17//77 15//77 26//77
f 26//78 32//78 17//78
f 21//79 26//79 14//79
f 14//80 16//80 21//80
f 16//81 14//81 25//81
f 25//82 20//82 16//82
f 20//83 25//83 36//83
f 36//84 34//84 20//84
f 34//85 36//85 26//85
f 26//86 21//86 34//86
f 51//87 53//87 65//87
f 51//88 65//88 64//88
f 53//89 57//89 69//89
f 53//89 69//89 65//89
f 57//90 61//90 75//90
f 57//91 75//91 69//91
f 61//92 58//92 70//92
f 61//93 70//93 75//93
f 58//94 54//94 66//94
f 58//94 66//94 70//94
f 54//95 51//95 64//95
f 54//96 64//96 66//96
f 64//97 65//97 77//97
f 64//98 77//98 73//98
f 65//99 69//99 81//99
f 65//89 81//89 77//89
f 69//100 75//100 85//100
f 69//101 85//101 81//101
f 75//102 70//102 82//102
f 75//103 82//103 85//103
f 70//104 66//104 78//104
f 70//104 78//104 82//104
f 66//105 64//105 73//105
f 66//106 73//106 78//106
f 52//87 55//87 67//87
f 52//88 67//88 63//88
f 55//89 59//89 71//89
f 55//99 71//99 67//99
f 59//107 62//107 76//107
f 59//108 76//108 71//108
f 62//92 60//92 72//92
f 62//93 72//93 76//93
f 60//94 56//94 68//94
f 60//104 68//104 72//104
f 56//109 52//109 63//109
f 56//110 63//110 68//110
f 63//97 67//97 79//97
f 63//111 79//111 74//111
f 67//89 71//89 83//89
f 67//89 83//89 79//89
f 71//100 76//100 86//100
f 71//112 86//112 83//112
f 76//102 72//102 84//102
f 76//113 84//113 86//113
f 72//104 68//104 80//104
f 72//104 80//104 84//104
f 68//114 63//114 74//114
f 68//115 74//115 80//115
f 122//116 120//116 108//116
f 122//117 108//117 110//117
f 120//94 116//94 102//94
f 120//94 102//94 108//94
f 116//118 112//118 94//118
f 116//119 94//119 102//119
f 112//120 115//120 101//120
f 112//121 101//121 94//121
f 115//89 119//89 107//89
f 115//89 107//89 101//89
f 119//122 122//122 110//122
f 119//123 110//123 107//123
f 110//124 108//124 98//124
f 110//125 98//125 104//125
f 108//94 102//94 92//94
f 108//94 92//94 98//94
f 102//126 94//126 88//126
f 102//127 88//127 92//127
f 94//128 101//128 91//128
f 94//129 91//129 88//129
f 101//89 107//89 97//89
f 101//99 97//99 91//99
f 107//130 110//130 104//130
f 107//131 104//131 97//131
f 121//116 118//116 106//116
f 121//117 106//117 109//117
f 118//94 114//94 100//94
f 118//94 100//94 106//94
f 114//118 111//118 93//118
f 114//119 93//119 100//119
f 111//120 113//120 99//120
f 111//132 99//132 93//132
f 113//89 117//89 105//89
f 113//89 105//89 99//89
f 117//133 121//133 109//133
f 117//123 109//123 105//123
f 109//134 106//134 96//134
f 109//125 96//125 103//125
f 106//94 100//94 90//94
f 106//104 90//104 96//104
f 100//135 93//135 87//135
f 100//127 87//127 90//127
f 93//136 99//136 89//136
f 93//129 89//129 87//129
f 99//89 105//89 95//89
f 99//89 95//89 89//89
f 105//130 109//130 103//130
f 105//131 103//131 95//131
f 124//137 128//137 127//137
f 124//137 127//137 123//137
f 128//138 134//138 133//138
f 128//138 133//138 127//138
f 134//139 136//139 135//139
f 134//139 135//139 133//139
f 136//140 132//140 131//140
f 136//141 131//141 135//141
f 132//142 126//142 125//142
f 132//142 125//142 131//142
f 126//143 124//143 123//143
f 126//144 123//144 125//144
f 128//145 124//145 130//145
f 134//146 128//146 130//146
f 136//147 134//147 130//147
f 132//148 136//148 130//148
f 126//149 132//149 130//149
f 124//150 126//150 130//150
f 123//151 127//151 129//151
f 127//152 133//152 129//152
f 133//153 135//153 129//153
f 135//154 131//154 129//154
f 131//155 125//155 129//155
f 125//156 123//156 129//156
f 149//139 147//139 148//139
f 149//157 148//157 150//157
f 147//138 141//138 142//138
f 147//138 142//138 148//138
f 141//137 137//137 138//137
f 141//158 138//158 142//158
f 137//143 139//143 140//143
f 137//143 140//143 138//143
f 139//142 145//142 146//142
f 139//142 146//142 140//142
f 145//159 149//159 150//159
f 145//159 150//159 146//159
f 147//160 149//160 143//160
f 141//161 147//161 143//161
f 137//162 141//162 143//162
f 139//163 137//163 143//163
f 145//164 139//164 143//164
f 149//165 145//165 143//165
f 150//166 148//166 144//166
f 148//146 142//146 144//146
f 142//167 138//167 144//167
f 138//168 140//168 144//168
f 140//169 146//169 144//169
f 146//170 150//170 144//170
f 157//171 155//171 172//171
f 157//171 172//171 174//171
f 154//172 156//172 173//172
f 154//173 173//173 171//173
f 156//174 158//174 175//174
f 156//174 175//174 173//174
f 159//175 157//175 174//175
f 159//175 174//175 176//175
f 155//176 157//176 151//176
f 154//177 155//177 151//177
f 156//178 154//178 151//178
f 158//179 156//179 151//179
f 159//180 158//180 151//180
f 157//181 159//181 151//181
f 174//182 172//182 179//182
f 172//183 171//183 179//183
f 171//184 173//184 179//184
f 173//185 175//185 179//185
f 175//186 176//186 179//186
f 176//187 174//187 179//187
f 153//188 152//188 169//188
f 153//188 169//188 170//188
f 160//189 161//189 178//189
f 160//189 178//189 177//189
f 153//190 155//190 154//190
f 154//191 152//191 153//191
f 152//99 154//99 171//99
f 171//89 169//89 152//89
f 169//192 171//192 172//192
f 172//193 170//193 169//193
f 170//94 172//94 155//94
f 155//104 153//104 170//104
f 160//191 158//191 159//191
f 159//190 161//190 160//190
f 161//94 159//94 176//94
f 176//94 178//94 161//94
f 178//193 176//193 175//193
f 175//192 177//192 178//192
f 177//89 175//89 158//89
f 158//99 160//99 177//99
f 162//194 163//194 181//194
f 162//194 181//194 180//194
f 163//89 166//89 184//89
f 163//89 184//89 181//89
f 166//195 168//195 186//195
f 166//195 186//195 184//195
f 168//196 167//196 185//196
f 168//196 185//196 186//196
f 167//94 164//94 182//94
f 167//94 182//94 185//94
f 164//197 162//197 180//197
f 164//197 180//197 182//197
f 163//198 162//198 165//198
f 166//198 163//198 165//198
f 168//198 166//198 165//198
f 167//198 168//198 165//198
f 164//190 167//190 165//190
f 162//199 164//199 165//199
f 180//192 181//192 183//192
f 181//200 184//200 183//200
f 184//200 186//200 183//200
f 186//201 185//201 183//201
f 185//201 182//201 183//201
f 182//193 180//193 183//193
f 204//202 217//202 215//202
f 204//202 215//202 202//202
f 218//203 205//203 203//203
f 218//203 203//203 216//203
f 205//204 194//204 192//204
f 205//204 192//204 203//204
f 193//205 204//205 202//205
f 193//205 202//205 191//205
f 217//206 204//206 206//206
f 218//207 217//207 206//207
f 205//208 218//208 206//208
f 194//209 205//209 206//209
f 193//210 194//210 206//210
f 204//211 193//211 206//211
f 202//212 215//212 201//212
f 215//213 216//213 201//213
f 216//214 203//214 201//214
f 203//215 192//215 201//215
f 192//216 191//216 201//216
f 191//217 202//217 201//217
f 221//193 222//193 220//193
f 221//193 220//193 219//193
f 190//191 189//191 187//191
f 190//198 187//198 188//198
f 221//189 217//189 218//189
f 218//138 222//138 221//138
f 222//94 218//94 216//94
f 216//94 220//94 222//94
f 220//142 216//142 215//142
f 215//142 219//142 220//142
f 219//89 215//89 217//89
f 217//89 221//89 219//89
f 190//189 194//189 193//189
f 193//138 189//138 190//138
f 189//89 193//89 191//89
f 191//89 187//89 189//89
f 187//142 191//142 192//142
f 192//188 188//188 187//188
f 188//94 192//94 194//94
f 194//94 190//94 188//94
f 214//218 212//218 210//218
f 214//219 210//219 213//219
f 212//94 200//94 198//94
f 212//104 198//104 210//104
f 200//220 196//220 195//220
f 200//220 195//220 198//220
f 196//221 199//221 197//221
f 196//221 197//221 195//221
f 199//99 211//99 209//99
f 199//99 209//99 197//99
f 211//222 214//222 213//222
f 211//222 213//222 209//222
f 212//189 214//189 208//189
f 200//138 212//138 208//138
f 196//138 200//138 208//138
f 199//138 196//138 208//138
f 211//138 199//138 208//138
f 214//138 211//138 208//138
f 213//142 210//142 207//142
f 210//142 198//142 207//142
f 198//142 195//142 207//142
f 195//188 197//188 207//188
f 197//188 209//188 207//188
f 209//142 213//142 207//142
f 53//223 58//223 57//223
f 81//142 85//142 82//142
f 55//224 60//224 59//224
f 83//188 86//188 84//188
f 119//225 115//225 120//225
f 97//142 104//142 92//142
f 117//225 113//225 118//225
f 95//188 103//188 90//188
f 53//223 51//223 54//223
f 54//224 58//224 53//224
f 58//223 61//223 57//223
f 82//142 78//142 81//142
f 78//142 73//142 81//142
f 73//142 77//142 81//142
f 55//223 52//223 56//223
f 56//224 60//224 55//224
f 60//223 62//223 59//223
f 84//142 80//142 74//142
f 74//142 79//142 84//142
f 79//188 83//188 84//188
f 112//225 116//225 115//225
f 116//226 120//226 115//226
f 120//227 122//227 119//227
f 104//142 98//142 92//142
f 92//188 88//188 91//188
f 91//188 97//188 92//188
f 111//227 114//227 113//227
f 114//225 118//225 113//225
f 118//227 121//227 117//227
f 103//188 96//188 90//188
f 90//142 87//142 89//142
f 89//142 95//142 90//142
