# Created by Open3D 
# object name: D01071
# number of vertices: 16
# number of triangles: 28
v 0.806395 0.806392 0.025
vn 0.120633 0.23258 -0.965067
v 0.806395 0.025 0.025
vn 0.342511 -0.22012 -0.913364
v 0.0250022 0.025 0.025
vn -0.18389 -0.0657105 -0.980748
v 0.0812668 0.025 0.122674
vn -4.02675e-08 -0.906632 0.421921
v 0.0250022 0.025 0.122674
vn -0.845212 -0.125787 0.519417
v 0.0250022 0.806392 0.220348
vn -0.937493 0.00150486 0.348001
v 0.0250022 0.806392 0.025
vn -0.234731 0.251634 -0.938926
v 0.806395 0.806392 0.220348
vn 0.421363 0.226361 0.878188
v 0.0812668 0.0772216 0.129202
vn -8.96336e-08 -0.124034 0.992278
v 0.0812683 0.55121 0.18845
vn 1.535e-08 -0.124034 0.992278
v 0.0812691 0.806392 0.220348
vn 7.26621e-07 0.774769 0.632245
v 0.744192 0.0772205 0.129202
vn -2.80248e-07 -0.124035 0.992278
v 0.806395 0.0772201 0.129202
vn 0.841584 -0.0669943 0.535955
v 0.806395 0.551208 0.18845
vn 0.686564 -0.0901813 0.721455
v 0.806395 0.025 0.122674
vn 0.0589461 -0.877924 0.475157
v 0.744191 0.551208 0.18845
vn -3.36451e-07 -0.124034 0.992278
f 6//6 11//11 7//7
f 11//11 1//1 7//7
f 11//11 8//8 1//1
f 12//12 16//16 10//10
f 14//14 16//16 12//12
f 15//15 13//13 12//12
f 4//4 15//15 12//12
f 16//16 14//14 8//8
f 10//10 16//16 8//8
f 5//5 4//4 9//9
f 6//6 5//5 9//9
f 11//11 6//6 9//9
f 13//13 15//15 2//2
f 14//14 13//13 2//2
f 8//8 14//14 2//2
f 3//3 5//5 6//6
f 2//2 15//15 4//4
f 3//3 2//2 4//4
f 3//3 7//7 1//1
f 9//9 12//12 10//10
f 13//13 14//14 12//12
f 9//9 4//4 12//12
f 11//11 10//10 8//8
f 10//10 11//11 9//9
f 1//1 8//8 2//2
f 7//7 3//3 6//6
f 5//5 3//3 4//4
f 2//2 3//3 1//1
