# Created by Open3D 
# object name: m1776
# number of vertices: 99
# number of triangles: 194
v 0.909483 0.05678 0.811207
vn 1 0 0
v 0.908016 0.064726 0.811207
vn 0.927095 0.374826 0
v 0.908016 0.05678 0.83107
vn 0.987173 0 0.159655
v 0.904792 0.066658 0.8359
vn 0.84062 0.502883 0.201163
v 0.90123 0.05678 0.856635
vn 0.925323 0 0.379179
v 0.893103 0.0677 0.865805
vn 0.687482 0.597676 0.412495
v 0.887602 0.05678 0.879349
vn 0.751255 0 0.660012
v 0.87516 0.066658 0.885285
vn 0.425892 0.638806 0.640736
v 0.872263 0.05678 0.890658
vn 0.409773 0 0.912187
v 0.860345 0.064726 0.890658
vn 0 0.558781 0.829315
v 0.860345 0.05678 0.893103
vn 0 0 1
v 0.90123 0.074952 0.811207
vn 0.698509 0.715601 0
v 0.893103 0.07862 0.838506
vn 0.544653 0.816993 0.189408
v 0.876724 0.07862 0.865805
vn 0.337683 0.873938 0.349575
v 0.860345 0.074952 0.879349
vn 0 0.862893 0.505387
v 0.887602 0.084037 0.811207
vn 0.414367 0.91011 0
v 0.87516 0.086412 0.8359
vn 0.253939 0.955144 0.152364
v 0.860345 0.084037 0.856635
vn 0 0.964654 0.263518
v 0.872263 0.088561 0.811207
vn 0.176861 0.984236 0
v 0.860345 0.088561 0.83107
vn 0 0.994238 0.107194
v 0.860345 0.089539 0.811207
vn 0 1 0
v 0.848427 0.05678 0.890658
vn -0.409766 0 0.912191
v 0.845529 0.066658 0.885285
vn -0.425885 0.638806 0.64074
v 0.833088 0.05678 0.879349
vn -0.751256 0 0.660011
v 0.827586 0.0677 0.865805
vn -0.68749 0.597666 0.412495
v 0.81946 0.05678 0.856635
vn -0.925327 0 0.379169
v 0.815898 0.066658 0.8359
vn -0.840638 0.502858 0.201153
v 0.812674 0.05678 0.83107
vn -0.987173 0 0.159654
v 0.812674 0.064726 0.811207
vn -0.927096 0.374824 0
v 0.811207 0.05678 0.811207
vn -1 0 0
v 0.843966 0.07862 0.865805
vn -0.337674 0.873941 0.349576
v 0.827586 0.07862 0.838506
vn -0.544658 0.816991 0.189404
v 0.81946 0.074952 0.811207
vn -0.69852 0.71559 0
v 0.845529 0.086412 0.8359
vn -0.253934 0.955146 0.152363
v 0.833088 0.084037 0.811207
vn -0.414367 0.91011 0
v 0.848427 0.088561 0.811207
vn -0.176858 0.984236 0
v 0.860345 0.048835 0.890658
vn 0 -0.558808 0.829297
v 0.87516 0.046903 0.885285
vn 0.425882 -0.638825 0.640725
v 0.893103 0.045861 0.865805
vn 0.687471 -0.597693 0.412488
v 0.904792 0.046903 0.8359
vn 0.84061 -0.5029 0.20116
v 0.908016 0.048835 0.811207
vn 0.927086 -0.374848 0
v 0.860345 0.038609 0.879349
vn 0 -0.862893 0.505387
v 0.876724 0.034941 0.865805
vn 0.337683 -0.873938 0.349575
v 0.893103 0.034941 0.838506
vn 0.544653 -0.816993 0.189408
v 0.90123 0.038609 0.811207
vn 0.698509 -0.715601 0
v 0.860345 0.029524 0.856635
vn 0 -0.967224 0.253926
v 0.87516 0.027149 0.8359
vn 0.158163 -0.978752 0.130498
v 0.887602 0.029524 0.811207
vn 0.414367 -0.91011 0
v 0.872263 0.025 0.811207
vn 0.114719 -0.993398 0
v 0.812674 0.048835 0.811207
vn -0.927087 -0.374846 0
v 0.815898 0.046903 0.8359
vn -0.840628 -0.502875 0.20115
v 0.827586 0.045861 0.865805
vn -0.687479 -0.597683 0.412489
v 0.845529 0.046903 0.885285
vn -0.425875 -0.638824 0.640729
v 0.81946 0.038609 0.811207
vn -0.69852 -0.71559 0
v 0.827586 0.034941 0.838506
vn -0.544658 -0.816991 0.189404
v 0.843966 0.034941 0.865805
vn -0.337674 -0.873941 0.349576
v 0.833088 0.029524 0.811207
vn -0.414367 -0.91011 0
v 0.845529 0.027149 0.8359
vn -0.186041 -0.972807 0.137968
v 0.848427 0.025 0.811207
vn -0.0656084 -0.997845 0
v 0.860345 0.05678 0.72931
vn 0 0 -1
v 0.860345 0.064726 0.731756
vn 0 0.558799 -0.829303
v 0.872263 0.05678 0.731756
vn 0.409789 0 -0.91218
v 0.87516 0.066658 0.737129
vn 0.425892 0.638806 -0.640736
v 0.887602 0.05678 0.743065
vn 0.751255 0 -0.660012
v 0.893103 0.0677 0.756609
vn 0.687482 0.597676 -0.412495
v 0.90123 0.05678 0.765779
vn 0.925323 0 -0.379179
v 0.904792 0.066658 0.786514
vn 0.84062 0.502883 -0.201163
v 0.908016 0.05678 0.791344
vn 0.987173 0 -0.159655
v 0.860345 0.074952 0.743065
vn 0 0.862893 -0.505387
v 0.876724 0.07862 0.756609
vn 0.337683 0.873938 -0.349575
v 0.893103 0.07862 0.783908
vn 0.544653 0.816993 -0.189408
v 0.860345 0.084037 0.765779
vn 0 0.964654 -0.263518
v 0.87516 0.086412 0.786514
vn 0.253939 0.955144 -0.152364
v 0.860345 0.088561 0.791344
vn 0 0.994238 -0.107194
v 0.812674 0.05678 0.791344
vn -0.987173 0 -0.159654
v 0.815898 0.066658 0.786514
vn -0.840638 0.502858 -0.201153
v 0.81946 0.05678 0.765779
vn -0.925327 0 -0.379169
v 0.827586 0.0677 0.756609
vn -0.68749 0.597666 -0.412495
v 0.833088 0.05678 0.743065
vn -0.751256 0 -0.660011
v 0.845529 0.066658 0.737129
vn -0.425885 0.638806 -0.64074
v 0.848427 0.05678 0.731756
vn -0.409781 0 -0.912184
v 0.827586 0.07862 0.783908
vn -0.544658 0.816991 -0.189404
v 0.843966 0.07862 0.756609
vn -0.337674 0.873941 -0.349576
v 0.845529 0.086412 0.786514
vn -0.253934 0.955146 -0.152363
v 0.904792 0.046903 0.786514
vn 0.84061 -0.5029 -0.20116
v 0.893103 0.045861 0.756609
vn 0.687471 -0.597693 -0.412488
v 0.87516 0.046903 0.737129
vn 0.425882 -0.638825 -0.640725
v 0.860345 0.048835 0.731756
vn 0 -0.558825 -0.829285
v 0.893103 0.034941 0.783908
vn 0.544653 -0.816993 -0.189408
v 0.876724 0.034941 0.756609
vn 0.337683 -0.873938 -0.349575
v 0.860345 0.038609 0.743065
vn 0 -0.862893 -0.505387
v 0.87516 0.027149 0.786514
vn 0.158163 -0.978752 -0.130498
v 0.860345 0.029524 0.765779
vn 0 -0.967224 -0.253926
v 0.845529 0.046903 0.737129
vn -0.425875 -0.638824 -0.640729
v 0.827586 0.045861 0.756609
vn -0.687479 -0.597683 -0.412489
v 0.815898 0.046903 0.786514
vn -0.840628 -0.502875 -0.20115
v 0.843966 0.034941 0.756609
vn -0.337674 -0.873941 -0.349576
v 0.827586 0.034941 0.783908
vn -0.544658 -0.816991 -0.189404
v 0.845529 0.027149 0.786514
vn -0.186041 -0.972807 -0.137968
f 93//93 92//92 99//99
f 59//59 49//49 47//47
f 47//47 46//46 58//58
f 92//92 49//49 59//59
f 92//92 59//59 99//99
f 58//58 59//59 47//47
f 72//72 70//70 69//69
f 59//59 57//57 99//99
f 57//57 54//54 98//98
f 99//99 57//57 98//98
f 99//99 98//98 97//97
f 93//93 99//99 97//97
f 93//93 97//97 91//91
f 54//54 50//50 96//96
f 98//98 54//54 96//96
f 98//98 96//96 95//95
f 97//97 98//98 95//95
f 97//97 95//95 94//94
f 91//91 97//97 94//94
f 91//91 94//94 88//88
f 50//50 30//30 75//75
f 96//96 50//50 75//75
f 96//96 75//75 77//77
f 95//95 96//96 77//77
f 95//95 77//77 79//79
f 94//94 95//95 79//79
f 94//94 79//79 81//81
f 88//88 94//94 81//81
f 88//88 81//81 60//60
f 49//49 92//92 48//48
f 93//93 91//91 90//90
f 92//92 93//93 90//90
f 92//92 90//90 89//89
f 48//48 92//92 89//89
f 48//48 89//89 45//45
f 91//91 88//88 87//87
f 90//90 91//91 87//87
f 90//90 87//87 86//86
f 89//89 90//90 86//86
f 89//89 86//86 85//85
f 45//45 89//89 85//85
f 45//45 85//85 41//41
f 88//88 60//60 62//62
f 87//87 88//88 62//62
f 87//87 62//62 64//64
f 86//86 87//87 64//64
f 86//86 64//64 66//66
f 85//85 86//86 66//66
f 85//85 66//66 68//68
f 41//41 85//85 68//68
f 41//41 68//68 1//1
f 36//36 21//21 74//74
f 74//74 72//72 84//84
f 36//36 74//74 84//84
f 36//36 84//84 35//35
f 72//72 69//69 83//83
f 84//84 72//72 83//83
f 84//84 83//83 82//82
f 35//35 84//84 82//82
f 35//35 82//82 33//33
f 69//69 61//61 80//80
f 83//83 69//69 80//80
f 83//83 80//80 78//78
f 82//82 83//83 78//78
f 82//82 78//78 76//76
f 33//33 82//82 76//76
f 33//33 76//76 29//29
f 61//61 60//60 81//81
f 80//80 61//61 81//81
f 80//80 81//81 79//79
f 78//78 80//80 79//79
f 78//78 79//79 77//77
f 76//76 78//78 77//77
f 76//76 77//77 75//75
f 29//29 76//76 75//75
f 29//29 75//75 30//30
f 74//74 21//21 19//19
f 19//19 16//16 73//73
f 74//74 19//19 73//73
f 74//74 73//73 72//72
f 16//16 12//12 71//71
f 73//73 16//16 71//71
f 73//73 71//71 70//70
f 72//72 73//73 70//70
f 12//12 2//2 67//67
f 71//71 12//12 67//67
f 71//71 67//67 65//65
f 70//70 71//71 65//65
f 70//70 65//65 63//63
f 69//69 70//70 63//63
f 69//69 63//63 61//61
f 2//2 1//1 68//68
f 67//67 2//2 68//68
f 67//67 68//68 66//66
f 65//65 67//67 66//66
f 65//65 66//66 64//64
f 63//63 65//65 64//64
f 63//63 64//64 62//62
f 61//61 63//63 62//62
f 61//61 62//62 60//60
f 59//59 58//58 57//57
f 46//46 42//42 56//56
f 58//58 46//46 56//56
f 58//58 56//56 55//55
f 57//57 58//58 55//55
f 57//57 55//55 54//54
f 42//42 37//37 53//53
f 56//56 42//42 53//53
f 56//56 53//53 52//52
f 55//55 56//56 52//52
f 55//55 52//52 51//51
f 54//54 55//55 51//51
f 54//54 51//51 50//50
f 37//37 11//11 22//22
f 53//53 37//37 22//22
f 53//53 22//22 24//24
f 52//52 53//53 24//24
f 52//52 24//24 26//26
f 51//51 52//52 26//26
f 51//51 26//26 28//28
f 50//50 51//51 28//28
f 50//50 28//28 30//30
f 49//49 48//48 47//47
f 48//48 45//45 44//44
f 47//47 48//48 44//44
f 47//47 44//44 43//43
f 46//46 47//47 43//43
f 46//46 43//43 42//42
f 45//45 41//41 40//40
f 44//44 45//45 40//40
f 44//44 40//40 39//39
f 43//43 44//44 39//39
f 43//43 39//39 38//38
f 42//42 43//43 38//38
f 42//42 38//38 37//37
f 41//41 1//1 3//3
f 40//40 41//41 3//3
f 40//40 3//3 5//5
f 39//39 40//40 5//5
f 39//39 5//5 7//7
f 38//38 39//39 7//7
f 38//38 7//7 9//9
f 37//37 38//38 9//9
f 37//37 9//9 11//11
f 20//20 21//21 36//36
f 36//36 35//35 34//34
f 20//20 36//36 34//34
f 20//20 34//34 18//18
f 35//35 33//33 32//32
f 34//34 35//35 32//32
f 34//34 32//32 31//31
f 18//18 34//34 31//31
f 18//18 31//31 15//15
f 33//33 29//29 27//27
f 32//32 33//33 27//27
f 32//32 27//27 25//25
f 31//31 32//32 25//25
f 31//31 25//25 23//23
f 15//15 31//31 23//23
f 15//15 23//23 10//10
f 29//29 30//30 28//28
f 27//27 29//29 28//28
f 27//27 28//28 26//26
f 25//25 27//27 26//26
f 25//25 26//26 24//24
f 23//23 25//25 24//24
f 23//23 24//24 22//22
f 10//10 23//23 22//22
f 10//10 22//22 11//11
f 19//19 21//21 20//20
f 20//20 18//18 17//17
f 19//19 20//20 17//17
f 19//19 17//17 16//16
f 18//18 15//15 14//14
f 17//17 18//18 14//14
f 17//17 14//14 13//13
f 16//16 17//17 13//13
f 16//16 13//13 12//12
f 15//15 10//10 8//8
f 14//14 15//15 8//8
f 14//14 8//8 6//6
f 13//13 14//14 6//6
f 13//13 6//6 4//4
f 12//12 13//13 4//4
f 12//12 4//4 2//2
f 10//10 11//11 9//9
f 8//8 10//10 9//9
f 8//8 9//9 7//7
f 6//6 8//8 7//7
f 6//6 7//7 5//5
f 4//4 6//6 5//5
f 4//4 5//5 3//3
f 2//2 4//4 3//3
f 2//2 3//3 1//1
