# Blender 4.2.3 LTS
# www.blender.org
o m1135
v 0.308585 0.506250 0.052203
v 0.251085 0.506250 0.043578
v 0.207960 0.506250 0.042859
v 0.197179 0.506250 0.043219
v 0.186398 0.506250 0.043578
v 0.179210 0.506250 0.045016
v 0.172023 0.506250 0.046453
v 0.164835 0.506250 0.051484
v 0.164835 0.506250 0.052922
v 0.172023 0.506250 0.057953
v 0.179210 0.506250 0.059391
v 0.186398 0.506250 0.060828
v 0.193585 0.506250 0.061187
v 0.207960 0.506250 0.061547
v 0.251085 0.506250 0.060828
v 0.351749 0.975000 0.064596
v 0.300870 0.975000 0.056964
v 0.262711 0.975000 0.056328
v 0.253172 0.975000 0.056646
v 0.243632 0.975000 0.056964
v 0.237272 0.975000 0.058236
v 0.230912 0.975000 0.059508
v 0.224553 0.975000 0.063960
v 0.224553 0.975000 0.065232
v 0.230912 0.975000 0.069684
v 0.237272 0.975000 0.070956
v 0.243632 0.975000 0.072228
v 0.249992 0.975000 0.072546
v 0.262711 0.975000 0.072864
v 0.300870 0.975000 0.072228
v 0.308585 0.493750 0.052203
v 0.251085 0.493750 0.043578
v 0.207960 0.493750 0.042859
v 0.197179 0.493750 0.043219
v 0.186398 0.493750 0.043578
v 0.179210 0.493750 0.045016
v 0.172023 0.493750 0.046453
v 0.164835 0.493750 0.051484
v 0.164835 0.493750 0.052922
v 0.172023 0.493750 0.057953
v 0.179210 0.493750 0.059391
v 0.186398 0.493750 0.060828
v 0.193585 0.493750 0.061187
v 0.207960 0.493750 0.061547
v 0.251085 0.493750 0.060828
v 0.351749 0.025000 0.064596
v 0.300870 0.025000 0.056964
v 0.262711 0.025000 0.056328
v 0.253172 0.025000 0.056646
v 0.243632 0.025000 0.056964
v 0.237272 0.025000 0.058236
v 0.230912 0.025000 0.059508
v 0.224553 0.025000 0.063960
v 0.224553 0.025000 0.065232
v 0.230912 0.025000 0.069684
v 0.237272 0.025000 0.070956
v 0.243632 0.025000 0.072228
v 0.249992 0.025000 0.072546
v 0.262711 0.025000 0.072864
v 0.300870 0.025000 0.072228
v 0.304389 0.500000 0.171570
v 0.246069 0.500000 0.162822
v 0.202329 0.500000 0.162093
v 0.191394 0.500000 0.162458
v 0.180459 0.500000 0.162822
v 0.173169 0.500000 0.164280
v 0.165879 0.500000 0.165738
v 0.158589 0.500000 0.170841
v 0.158589 0.500000 0.172299
v 0.165879 0.500000 0.177402
v 0.173169 0.500000 0.178860
v 0.180459 0.500000 0.180318
v 0.187749 0.500000 0.180683
v 0.202329 0.500000 0.181047
v 0.246069 0.500000 0.180318
v 0.339384 0.974980 0.160751
v 0.289391 0.974980 0.153252
v 0.251896 0.974980 0.152628
v 0.242522 0.974980 0.152940
v 0.233149 0.974980 0.153252
v 0.226900 0.974980 0.154502
v 0.220651 0.974980 0.155752
v 0.214401 0.974980 0.160126
v 0.214401 0.974980 0.161376
v 0.220651 0.974980 0.165751
v 0.226900 0.974980 0.167001
v 0.233149 0.974980 0.168250
v 0.239398 0.974980 0.168563
v 0.251896 0.974980 0.168875
v 0.289391 0.974980 0.168250
v 0.339384 0.025020 0.160751
v 0.289391 0.025020 0.153252
v 0.251896 0.025020 0.152628
v 0.242522 0.025020 0.152940
v 0.233149 0.025020 0.153252
v 0.226900 0.025020 0.154502
v 0.220651 0.025020 0.155752
v 0.214401 0.025020 0.160126
v 0.214401 0.025020 0.161376
v 0.220651 0.025020 0.165751
v 0.226900 0.025020 0.167001
v 0.233149 0.025020 0.168250
v 0.239398 0.025020 0.168563
v 0.251896 0.025020 0.168875
v 0.289391 0.025020 0.168250
v 0.512500 0.500000 0.080110
v 0.480000 0.500000 0.075234
v 0.455625 0.500000 0.074828
v 0.449531 0.500000 0.075031
v 0.443437 0.500000 0.075234
v 0.439375 0.500000 0.076047
v 0.435313 0.500000 0.076859
v 0.431250 0.500000 0.079703
v 0.431250 0.500000 0.080516
v 0.435313 0.500000 0.083360
v 0.439375 0.500000 0.084172
v 0.443437 0.500000 0.084985
v 0.447500 0.500000 0.085188
v 0.455625 0.500000 0.085391
v 0.480000 0.500000 0.084985
v 0.545907 0.656250 0.089412
v 0.518967 0.656250 0.085371
v 0.498762 0.656250 0.085034
v 0.493711 0.656250 0.085202
v 0.488660 0.656250 0.085371
v 0.485292 0.656250 0.086044
v 0.481925 0.656250 0.086718
v 0.478557 0.656250 0.089075
v 0.478557 0.656250 0.089748
v 0.481925 0.656250 0.092106
v 0.485292 0.656250 0.092779
v 0.488660 0.656250 0.093453
v 0.492027 0.656250 0.093621
v 0.498762 0.656250 0.093789
v 0.518967 0.656250 0.093453
v 0.545907 0.343750 0.089412
v 0.518967 0.343750 0.085371
v 0.498762 0.343750 0.085034
v 0.493711 0.343750 0.085202
v 0.488660 0.343750 0.085371
v 0.485292 0.343750 0.086044
v 0.481925 0.343750 0.086718
v 0.478557 0.343750 0.089075
v 0.478557 0.343750 0.089748
v 0.481925 0.343750 0.092106
v 0.485292 0.343750 0.092779
v 0.488660 0.343750 0.093453
v 0.492027 0.343750 0.093621
v 0.498762 0.343750 0.093789
v 0.518967 0.343750 0.093453
v 0.025000 0.531671 0.085245
v 0.025000 0.522395 0.127844
v 0.025000 0.500000 0.145490
v 0.025000 0.477605 0.127844
v 0.025000 0.468329 0.085245
v 0.025000 0.477605 0.042645
v 0.025000 0.500000 0.025000
v 0.025000 0.522395 0.042645
v 0.150000 0.531250 0.086850
v 0.150000 0.522097 0.129719
v 0.150000 0.500000 0.147476
v 0.150000 0.477903 0.129719
v 0.150000 0.468750 0.086850
v 0.150000 0.477903 0.043981
v 0.150000 0.500000 0.026224
v 0.150000 0.522097 0.043981
v 0.327632 0.517928 0.083378
v 0.327632 0.512677 0.120835
v 0.327632 0.500000 0.136350
v 0.327632 0.487323 0.120835
v 0.327632 0.482072 0.083378
v 0.327632 0.487323 0.045921
v 0.327632 0.500000 0.030406
v 0.327632 0.512677 0.045921
v 0.525000 0.503125 0.070867
v 0.525000 0.502210 0.096193
v 0.525000 0.500000 0.106683
v 0.525000 0.497790 0.096193
v 0.525000 0.496875 0.070867
v 0.525000 0.497790 0.045542
v 0.525000 0.500000 0.035052
v 0.525000 0.502210 0.045542
v 0.199625 0.271711 0.109330
v 0.199625 0.270836 0.149907
v 0.199625 0.268773 0.167115
v 0.199625 0.266709 0.149907
v 0.199625 0.265834 0.109330
v 0.199625 0.266709 0.071873
v 0.199625 0.268773 0.055989
v 0.199625 0.270836 0.071873
v 0.303686 0.275043 0.109330
v 0.303686 0.273176 0.149907
v 0.303686 0.268773 0.167115
v 0.303686 0.264369 0.149907
v 0.303686 0.262502 0.109330
v 0.303686 0.264369 0.071873
v 0.303686 0.268773 0.055989
v 0.303686 0.273176 0.071873
v 0.199625 0.271898 0.056042
v 0.199625 0.270967 0.056083
v 0.199625 0.268773 0.056100
v 0.199625 0.266578 0.056083
v 0.199625 0.265648 0.056042
v 0.199625 0.266578 0.056005
v 0.199625 0.270967 0.056005
v 0.199625 0.734166 0.109330
v 0.199625 0.733291 0.149907
v 0.199625 0.731227 0.167115
v 0.199625 0.729164 0.149907
v 0.199625 0.728289 0.109330
v 0.199625 0.729164 0.071873
v 0.199625 0.731227 0.055989
v 0.199625 0.733291 0.071873
v 0.303686 0.737498 0.109330
v 0.303686 0.735631 0.149907
v 0.303686 0.731227 0.167115
v 0.303686 0.726824 0.149907
v 0.303686 0.724957 0.109330
v 0.303686 0.726824 0.071873
v 0.303686 0.731227 0.055989
v 0.303686 0.735631 0.071873
v 0.199625 0.734352 0.056042
v 0.199625 0.733422 0.056083
v 0.199625 0.731227 0.056100
v 0.199625 0.729033 0.056083
v 0.199625 0.728102 0.056042
v 0.199625 0.729033 0.056005
v 0.199625 0.733422 0.056005
v 0.417786 0.500000 0.035052
v 0.422412 0.502847 0.035052
v 0.427039 0.503559 0.035052
v 0.431665 0.504270 0.035052
v 0.436291 0.504448 0.035052
v 0.445544 0.504626 0.035052
v 0.473302 0.504270 0.035052
v 0.510312 0.500000 0.035052
v 0.473302 0.495730 0.035052
v 0.445544 0.495374 0.035052
v 0.436291 0.495552 0.035052
v 0.431665 0.495730 0.035052
v 0.427039 0.496441 0.035052
v 0.422412 0.497153 0.035052
v 0.476716 0.500000 0.154115
v 0.479798 0.501896 0.154115
v 0.482880 0.502370 0.154115
v 0.485961 0.502844 0.154115
v 0.489043 0.502963 0.154115
v 0.495206 0.503082 0.154115
v 0.513695 0.502844 0.154115
v 0.538347 0.500000 0.154115
v 0.513695 0.497156 0.154115
v 0.495206 0.496918 0.154115
v 0.489043 0.497037 0.154115
v 0.485961 0.497156 0.154115
v 0.482880 0.497630 0.154115
v 0.479798 0.498104 0.154115
v 0.150000 0.498437 0.047552
v 0.168750 0.498437 0.047552
v 0.168750 0.507812 0.047552
v 0.150000 0.507812 0.047552
v 0.150000 0.498437 0.063177
v 0.168750 0.498437 0.063177
v 0.168750 0.507812 0.063177
v 0.150000 0.507812 0.063177
vn 0.1483 0.0125 -0.9889
vn 0.0167 0.0268 -0.9995
vn -0.0333 0.0326 -0.9989
vn -0.1959 0.0519 -0.9793
vn -0.5710 0.0944 -0.8155
vn -0.9920 0.1264 -0.0000
vn -0.5728 0.0515 0.8181
vn -0.1961 0.0001 0.9806
vn -0.0499 -0.0182 0.9986
vn -0.0250 -0.0212 0.9995
vn 0.0167 -0.0261 0.9995
vn 0.1482 -0.0398 0.9882
vn -0.0334 0.0326 -0.9989
vn -0.1959 0.0519 -0.9792
vn -0.1958 0.0519 -0.9793
vn -0.5709 0.0944 -0.8156
vn -0.5727 0.0515 0.8182
vn -0.1962 0.0001 0.9806
vn -0.1960 0.0001 0.9806
vn 0.1483 -0.0125 -0.9889
vn 0.0167 -0.0268 -0.9995
vn -0.0333 -0.0326 -0.9989
vn -0.1959 -0.0519 -0.9793
vn -0.5710 -0.0944 -0.8155
vn -0.9920 -0.1264 -0.0000
vn -0.5728 -0.0515 0.8181
vn -0.1961 -0.0001 0.9806
vn -0.0499 0.0182 0.9986
vn -0.0250 0.0212 0.9995
vn 0.0167 0.0261 0.9995
vn 0.1482 0.0398 0.9882
vn -0.0334 -0.0326 -0.9989
vn -0.1959 -0.0519 -0.9792
vn -0.1958 -0.0519 -0.9793
vn -0.5709 -0.0944 -0.8156
vn -0.5727 -0.0515 0.8182
vn -0.1962 -0.0001 0.9806
vn -0.1960 -0.0001 0.9806
vn 0.1483 -0.0334 -0.9884
vn 0.0166 -0.0217 -0.9996
vn -0.0333 -0.0164 -0.9993
vn -0.1961 0.0020 -0.9806
vn -0.5727 0.0488 -0.8183
vn -0.9932 0.1167 -0.0000
vn -0.5713 0.0859 0.8162
vn -0.1959 0.0466 0.9795
vn -0.1958 0.0466 0.9795
vn -0.0500 0.0309 0.9983
vn -0.0249 0.0282 0.9993
vn 0.0167 0.0239 0.9996
vn 0.1483 0.0116 0.9889
vn 0.0167 -0.0217 -0.9996
vn -0.0334 -0.0164 -0.9993
vn -0.5728 0.0488 -0.8183
vn 0.1483 0.0334 -0.9884
vn 0.0166 0.0217 -0.9996
vn -0.0333 0.0164 -0.9993
vn -0.1961 -0.0020 -0.9806
vn -0.5727 -0.0488 -0.8183
vn -0.9932 -0.1167 -0.0000
vn -0.5713 -0.0859 0.8162
vn -0.1959 -0.0466 0.9795
vn -0.1958 -0.0466 0.9795
vn -0.0500 -0.0309 0.9983
vn -0.0249 -0.0282 0.9993
vn 0.0167 -0.0239 0.9996
vn 0.1483 -0.0116 0.9889
vn 0.0167 0.0217 -0.9996
vn -0.0334 0.0164 -0.9993
vn -0.5728 -0.0488 -0.8183
vn 0.1483 0.0271 -0.9886
vn 0.0166 0.0606 -0.9980
vn -0.0332 0.0743 -0.9967
vn -0.0333 0.0743 -0.9967
vn -0.1945 0.1195 -0.9736
vn -0.1949 0.1196 -0.9735
vn -0.5596 0.2174 -0.7997
vn -0.9571 0.2898 -0.0000
vn -0.5691 0.1243 0.8128
vn -0.1960 0.0036 0.9806
vn -0.1962 0.0036 0.9806
vn -0.0498 -0.0397 0.9980
vn -0.0249 -0.0468 0.9986
vn 0.0166 -0.0582 0.9982
vn 0.1477 -0.0902 0.9849
vn -0.1948 0.1195 -0.9735
vn -0.1946 0.1195 -0.9736
vn -0.5597 0.2174 -0.7996
vn -0.5690 0.1242 0.8129
vn -0.1963 0.0037 0.9805
vn -0.0499 -0.0397 0.9980
vn 0.1483 -0.0271 -0.9886
vn 0.0166 -0.0606 -0.9980
vn -0.0332 -0.0743 -0.9967
vn -0.0333 -0.0743 -0.9967
vn -0.1945 -0.1195 -0.9736
vn -0.1949 -0.1196 -0.9735
vn -0.5596 -0.2174 -0.7997
vn -0.9571 -0.2898 -0.0000
vn -0.5691 -0.1243 0.8128
vn -0.1960 -0.0036 0.9806
vn -0.1962 -0.0036 0.9806
vn -0.0498 0.0397 0.9980
vn -0.0249 0.0468 0.9986
vn 0.0166 0.0582 0.9982
vn 0.1477 0.0902 0.9849
vn -0.1948 -0.1195 -0.9735
vn -0.1946 -0.1195 -0.9736
vn -0.5597 -0.2174 -0.7996
vn -0.5690 -0.1242 0.8129
vn -0.1963 -0.0037 0.9805
vn -0.0499 0.0397 0.9980
vn 0.0006 0.9780 0.2088
vn -0.0102 0.6264 0.7795
vn -0.0124 -0.6264 0.7794
vn -0.0008 -0.9780 0.2088
vn 0.0060 -0.9779 -0.2088
vn 0.0098 -0.6264 -0.7795
vn 0.0076 0.6264 -0.7795
vn 0.0046 0.9779 -0.2088
vn 0.0768 0.9874 0.1384
vn 0.0725 0.7723 0.6311
vn 0.0396 -0.7738 0.6322
vn 0.0594 -0.9886 0.1386
vn 0.0714 -0.9878 -0.1385
vn 0.0479 -0.7735 -0.6320
vn 0.0149 0.7743 -0.6327
vn 0.0540 0.9889 -0.1386
vn 0.0770 0.9964 0.0360
vn 0.0774 0.9756 0.2055
vn 0.0310 -0.9781 0.2061
vn 0.0574 -0.9977 0.0360
vn 0.0725 -0.9967 -0.0360
vn 0.0514 -0.9772 -0.2059
vn 0.0049 0.9785 -0.2062
vn 0.0529 0.9980 -0.0361
vn -0.0009 0.9771 0.2128
vn -0.0125 0.6189 0.7854
vn -0.0103 -0.6189 0.7854
vn 0.0006 -0.9771 0.2128
vn 0.0046 -0.9771 -0.2128
vn 0.0077 -0.6189 -0.7855
vn 0.0099 0.6189 -0.7854
vn 0.0060 0.9771 -0.2128
vn 0.0622 0.9761 0.2084
vn 0.0488 0.6257 0.7786
vn 0.0720 -0.6248 0.7775
vn 0.0772 -0.9750 0.2082
vn 0.0541 -0.9765 -0.2085
vn 0.0183 -0.6263 -0.7794
vn 0.0417 0.6259 -0.7788
vn 0.0691 0.9756 -0.2083
vn 0.0697 0.9879 0.1385
vn 0.0947 0.7709 0.6299
vn 0.1192 -0.7689 0.6282
vn 0.0828 -0.9869 0.1384
vn 0.0522 -0.9890 -0.1386
vn 0.0149 -0.7743 -0.6327
vn 0.0398 0.7738 -0.6322
vn 0.0653 0.9882 -0.1385
vn -0.0320 0.9984 0.0459
vn -0.0218 0.9686 0.2478
vn -0.0000 -0.9688 0.2479
vn -0.0225 -0.9987 0.0460
vn -0.0320 -0.9982 -0.0498
vn -0.0217 -0.9634 -0.2671
vn -0.0000 0.9637 -0.2671
vn -0.0225 0.9985 -0.0498
vn 0.4564 -0.0391 -0.8889
vn 0.6697 -0.0057 -0.7426
vn 0.7296 0.0053 -0.6839
vn 0.6697 0.0327 -0.7419
vn -0.4546 0.0354 0.8900
vn -0.1506 0.0072 0.9886
vn -0.0000 -0.0073 1.0000
vn -0.1498 -0.0393 0.9879
vn -0.0225 0.9995 0.0216
vn -0.0000 0.9929 0.1190
vn -0.0223 -0.9926 0.1191
vn -0.0320 -0.9993 0.0215
vn -0.0225 -0.9995 -0.0233
vn -0.0000 -0.9917 -0.1289
vn -0.0223 0.9914 -0.1288
vn -0.0320 0.9992 -0.0233
vn 0.0625 -0.9970 -0.0459
vn 0.2557 -0.9366 -0.2396
vn 0.2371 0.9411 -0.2409
vn 0.0537 0.9975 -0.0459
vn 0.0136 0.9987 0.0498
vn -0.0000 0.9636 0.2672
vn -0.0203 -0.9635 0.2671
vn 0.0047 -0.9987 0.0498
vn -0.0218 0.9685 0.2479
vn -0.0320 -0.9983 -0.0498
vn -0.0000 0.9636 -0.2672
vn 0.4564 -0.0392 -0.8889
vn 0.6696 0.0327 -0.7420
vn -0.4547 0.0354 0.8900
vn -0.0000 0.9929 0.1191
vn -0.0223 -0.9926 0.1190
vn -0.0000 -0.9917 -0.1288
vn 0.2557 -0.9366 -0.2397
vn 0.2371 0.9412 -0.2408
vn -0.0000 0.9637 0.2671
vn -0.0203 -0.9634 0.2671
vn -0.5072 0.8244 0.2510
vn -0.1515 0.9851 0.0809
vn -0.1516 0.9851 0.0809
vn -0.0386 0.9988 0.0296
vn -0.0193 0.9996 0.0210
vn 0.0129 0.9999 0.0076
vn 0.1146 0.9930 -0.0270
vn 0.1146 -0.9930 -0.0270
vn 0.0129 -0.9999 0.0076
vn -0.0193 -0.9996 0.0210
vn -0.0386 -0.9988 0.0295
vn -0.1516 -0.9851 0.0809
vn -0.1515 -0.9851 0.0809
vn -0.5072 -0.8245 0.2511
vn -0.5073 0.8244 0.2511
vn 0.0128 0.9999 0.0076
vn 0.0128 -0.9999 0.0076
vn -0.0384 -0.9988 0.0295
vn -0.1514 -0.9852 0.0809
vn -0.1514 0.9852 0.0808
vn -0.0384 0.9988 0.0295
vn -0.0192 0.9996 0.0210
vn -0.0192 -0.9996 0.0210
vn -0.5073 -0.8244 0.2511
vn -0.0000 -0.0000 -1.0000
vn -0.0000 -1.0000 -0.0000
vn -1.0000 -0.0000 -0.0000
vn -0.0000 1.0000 -0.0000
vn 1.0000 -0.0000 -0.0000
vn -0.0000 -0.0000 1.0000
s 0
f 1//1 17//1 16//1
f 2//2 18//2 17//2
f 3//3 19//3 18//3
f 4//3 20//3 19//3
f 5//4 21//4 20//4
f 6//4 22//4 21//4
f 7//5 23//5 22//5
f 8//6 24//6 23//6
f 9//7 25//7 24//7
f 10//8 26//8 25//8
f 11//8 27//8 26//8
f 12//9 28//9 27//9
f 13//10 29//10 28//10
f 14//11 30//11 29//11
f 15//12 16//12 30//12
f 1//1 2//1 17//1
f 2//2 3//2 18//2
f 3//13 4//13 19//13
f 4//3 5//3 20//3
f 5//14 6//14 21//14
f 6//15 7//15 22//15
f 7//16 8//16 23//16
f 8//6 9//6 24//6
f 9//17 10//17 25//17
f 10//18 11//18 26//18
f 11//19 12//19 27//19
f 12//9 13//9 28//9
f 13//10 14//10 29//10
f 14//11 15//11 30//11
f 15//12 1//12 16//12
f 31//20 46//20 47//20
f 32//21 47//21 48//21
f 33//22 48//22 49//22
f 34//22 49//22 50//22
f 35//23 50//23 51//23
f 36//23 51//23 52//23
f 37//24 52//24 53//24
f 38//25 53//25 54//25
f 39//26 54//26 55//26
f 40//27 55//27 56//27
f 41//27 56//27 57//27
f 42//28 57//28 58//28
f 43//29 58//29 59//29
f 44//30 59//30 60//30
f 45//31 60//31 46//31
f 31//20 47//20 32//20
f 32//21 48//21 33//21
f 33//32 49//32 34//32
f 34//22 50//22 35//22
f 35//33 51//33 36//33
f 36//34 52//34 37//34
f 37//35 53//35 38//35
f 38//25 54//25 39//25
f 39//36 55//36 40//36
f 40//37 56//37 41//37
f 41//38 57//38 42//38
f 42//28 58//28 43//28
f 43//29 59//29 44//29
f 44//30 60//30 45//30
f 45//31 46//31 31//31
f 61//39 77//39 76//39
f 62//40 78//40 77//40
f 63//41 79//41 78//41
f 64//41 80//41 79//41
f 65//42 81//42 80//42
f 66//42 82//42 81//42
f 67//43 83//43 82//43
f 68//44 84//44 83//44
f 69//45 85//45 84//45
f 70//46 86//46 85//46
f 71//47 87//47 86//47
f 72//48 88//48 87//48
f 73//49 89//49 88//49
f 74//50 90//50 89//50
f 75//51 76//51 90//51
f 61//39 62//39 77//39
f 62//52 63//52 78//52
f 63//53 64//53 79//53
f 64//41 65//41 80//41
f 65//42 66//42 81//42
f 66//42 67//42 82//42
f 67//54 68//54 83//54
f 68//44 69//44 84//44
f 69//45 70//45 85//45
f 70//46 71//46 86//46
f 71//46 72//46 87//46
f 72//48 73//48 88//48
f 73//49 74//49 89//49
f 74//50 75//50 90//50
f 75//51 61//51 76//51
f 61//55 91//55 92//55
f 62//56 92//56 93//56
f 63//57 93//57 94//57
f 64//57 94//57 95//57
f 65//58 95//58 96//58
f 66//58 96//58 97//58
f 67//59 97//59 98//59
f 68//60 98//60 99//60
f 69//61 99//61 100//61
f 70//62 100//62 101//62
f 71//63 101//63 102//63
f 72//64 102//64 103//64
f 73//65 103//65 104//65
f 74//66 104//66 105//66
f 75//67 105//67 91//67
f 61//55 92//55 62//55
f 62//68 93//68 63//68
f 63//69 94//69 64//69
f 64//57 95//57 65//57
f 65//58 96//58 66//58
f 66//58 97//58 67//58
f 67//70 98//70 68//70
f 68//60 99//60 69//60
f 69//61 100//61 70//61
f 70//62 101//62 71//62
f 71//62 102//62 72//62
f 72//64 103//64 73//64
f 73//65 104//65 74//65
f 74//66 105//66 75//66
f 75//67 91//67 61//67
f 106//71 122//71 121//71
f 107//72 123//72 122//72
f 108//73 124//73 123//73
f 109//74 125//74 124//74
f 110//75 126//75 125//75
f 111//76 127//76 126//76
f 112//77 128//77 127//77
f 113//78 129//78 128//78
f 114//79 130//79 129//79
f 115//80 131//80 130//80
f 116//81 132//81 131//81
f 117//82 133//82 132//82
f 118//83 134//83 133//83
f 119//84 135//84 134//84
f 120//85 121//85 135//85
f 106//71 107//71 122//71
f 107//72 108//72 123//72
f 108//73 109//73 124//73
f 109//73 110//73 125//73
f 110//86 111//86 126//86
f 111//87 112//87 127//87
f 112//88 113//88 128//88
f 113//78 114//78 129//78
f 114//89 115//89 130//89
f 115//80 116//80 131//80
f 116//90 117//90 132//90
f 117//91 118//91 133//91
f 118//83 119//83 134//83
f 119//84 120//84 135//84
f 120//85 106//85 121//85
f 106//92 136//92 137//92
f 107//93 137//93 138//93
f 108//94 138//94 139//94
f 109//95 139//95 140//95
f 110//96 140//96 141//96
f 111//97 141//97 142//97
f 112//98 142//98 143//98
f 113//99 143//99 144//99
f 114//100 144//100 145//100
f 115//101 145//101 146//101
f 116//102 146//102 147//102
f 117//103 147//103 148//103
f 118//104 148//104 149//104
f 119//105 149//105 150//105
f 120//106 150//106 136//106
f 106//92 137//92 107//92
f 107//93 138//93 108//93
f 108//94 139//94 109//94
f 109//94 140//94 110//94
f 110//107 141//107 111//107
f 111//108 142//108 112//108
f 112//109 143//109 113//109
f 113//99 144//99 114//99
f 114//110 145//110 115//110
f 115//101 146//101 116//101
f 116//111 147//111 117//111
f 117//112 148//112 118//112
f 118//104 149//104 119//104
f 119//105 150//105 120//105
f 120//106 136//106 106//106
f 151//113 160//113 159//113
f 152//114 161//114 160//114
f 153//115 162//115 161//115
f 154//116 163//116 162//116
f 155//117 164//117 163//117
f 156//118 165//118 164//118
f 157//119 166//119 165//119
f 158//120 159//120 166//120
f 159//121 168//121 167//121
f 160//122 169//122 168//122
f 161//123 170//123 169//123
f 162//124 171//124 170//124
f 163//125 172//125 171//125
f 164//126 173//126 172//126
f 165//127 174//127 173//127
f 166//128 167//128 174//128
f 167//129 176//129 175//129
f 168//130 177//130 176//130
f 169//131 178//131 177//131
f 170//132 179//132 178//132
f 171//133 180//133 179//133
f 172//134 181//134 180//134
f 173//135 182//135 181//135
f 174//136 175//136 182//136
f 151//137 152//137 160//137
f 152//138 153//138 161//138
f 153//139 154//139 162//139
f 154//140 155//140 163//140
f 155//141 156//141 164//141
f 156//142 157//142 165//142
f 157//143 158//143 166//143
f 158//144 151//144 159//144
f 159//145 160//145 168//145
f 160//146 161//146 169//146
f 161//147 162//147 170//147
f 162//148 163//148 171//148
f 163//149 164//149 172//149
f 164//150 165//150 173//150
f 165//151 166//151 174//151
f 166//152 159//152 167//152
f 167//153 168//153 176//153
f 168//154 169//154 177//154
f 169//155 170//155 178//155
f 170//156 171//156 179//156
f 171//157 172//157 180//157
f 172//158 173//158 181//158
f 173//159 174//159 182//159
f 174//160 167//160 175//160
f 183//161 192//161 191//161
f 184//162 193//162 192//162
f 185//163 194//163 193//163
f 186//164 195//164 194//164
f 187//165 196//165 195//165
f 188//166 197//166 196//166
f 189//167 198//167 197//167
f 190//168 191//168 198//168
f 191//169 200//169 199//169
f 192//170 201//170 200//170
f 193//171 202//171 201//171
f 194//172 203//172 202//172
f 195//173 204//173 203//173
f 196//174 189//174 204//174
f 197//175 205//175 189//175
f 198//176 199//176 205//176
f 183//177 184//177 192//177
f 184//178 185//178 193//178
f 185//179 186//179 194//179
f 186//180 187//180 195//180
f 187//181 188//181 196//181
f 188//182 189//182 197//182
f 189//183 190//183 198//183
f 190//184 183//184 191//184
f 191//185 192//185 200//185
f 192//186 193//186 201//186
f 193//187 194//187 202//187
f 194//188 195//188 203//188
f 195//189 196//189 204//189
f 196//190 197//190 189//190
f 197//191 198//191 205//191
f 198//192 191//192 199//192
f 206//161 215//161 214//161
f 207//193 216//193 215//193
f 208//163 217//163 216//163
f 209//164 218//164 217//164
f 210//194 219//194 218//194
f 211//166 220//166 219//166
f 212//195 221//195 220//195
f 213//168 214//168 221//168
f 214//196 223//196 222//196
f 215//170 224//170 223//170
f 216//171 225//171 224//171
f 217//197 226//197 225//197
f 218//198 227//198 226//198
f 219//174 212//174 227//174
f 220//175 228//175 212//175
f 221//176 222//176 228//176
f 206//177 207//177 215//177
f 207//199 208//199 216//199
f 208//200 209//200 217//200
f 209//180 210//180 218//180
f 210//181 211//181 219//181
f 211//201 212//201 220//201
f 212//183 213//183 221//183
f 213//184 206//184 214//184
f 214//185 215//185 223//185
f 215//202 216//202 224//202
f 216//203 217//203 225//203
f 217//188 218//188 226//188
f 218//189 219//189 227//189
f 219//204 220//204 212//204
f 220//205 221//205 228//205
f 221//192 214//192 222//192
f 229//206 243//206 244//206
f 230//207 244//207 245//207
f 231//208 245//208 246//208
f 232//209 246//209 247//209
f 233//210 247//210 248//210
f 234//211 248//211 249//211
f 235//212 249//212 250//212
f 236//213 250//213 251//213
f 237//214 251//214 252//214
f 238//215 252//215 253//215
f 239//216 253//216 254//216
f 240//217 254//217 255//217
f 241//218 255//218 256//218
f 242//219 256//219 243//219
f 229//220 244//220 230//220
f 234//221 249//221 235//221
f 235//212 250//212 236//212
f 236//213 251//213 237//213
f 237//222 252//222 238//222
f 239//223 254//223 240//223
f 240//224 255//224 241//224
f 241//217 256//217 242//217
f 230//208 245//208 231//208
f 231//225 246//225 232//225
f 232//226 247//226 233//226
f 233//227 248//227 234//227
f 238//228 253//228 239//228
f 242//229 243//229 229//229
f 257//230 260//230 258//230
f 258//230 260//230 259//230
f 257//231 262//231 261//231
f 257//231 258//231 262//231
f 257//232 261//232 260//232
f 260//232 261//232 264//232
f 260//233 264//233 263//233
f 260//233 263//233 259//233
f 258//234 263//234 262//234
f 258//234 259//234 263//234
f 262//235 264//235 261//235
f 262//235 263//235 264//235
