# Created by Open3D 
# object name: D00433
# number of vertices: 98
# number of triangles: 192
v 0.747257 -0.04578 0.020297
vn 0.300516 -0.887535 0.349245
v 0.746726 -0.051412 -0.036472
vn 0.305678 -0.910474 -0.278563
v 0.770157 -0.01947 -0.027043
vn 0.753665 -0.626926 -0.197365
v 0.781817 -0.016857 0.004523
vn 0.819506 -0.508024 0.265182
v 0.746221 -0.015258 -0.0806
vn 0.288903 -0.543392 -0.7882
v 0.746038 0.041521 -0.086231
vn 0.225179 0.162573 -0.960658
v 0.769777 0.031925 -0.054561
vn 0.747651 0.191891 -0.635764
v 0.781236 0.000265 -0.052092
vn 0.811508 -0.271146 -0.517624
v 0.746284 0.085646 -0.050072
vn 0.28823 0.786073 -0.546821
v 0.746815 0.09128 0.006693
vn 0.198458 0.938663 0.282005
v 0.770206 0.059443 -0.003172
vn 0.754468 0.630313 0.182985
v 0.781272 0.056885 -0.034959
vn 0.812031 0.511647 -0.280755
v 0.74732 0.055116 0.050822
vn 0.302891 0.352792 0.885322
v 0.747503 -0.001653 0.056452
vn 0.244061 -0.395898 0.885268
v 0.770587 0.008048 0.024346
vn 0.76049 -0.188492 0.62139
v 0.781853 0.039754 0.021654
vn 0.820019 0.274867 0.502012
v 0.645874 -0.058016 -0.037437
vn 0.0540656 -0.933246 -0.355146
v 0.645324 -0.01863 -0.085511
vn 0.0453261 -0.34666 -0.936895
v 0.527937 -0.06329 -0.037818
vn 0.0393667 -0.957966 -0.284167
v 0.429987 -0.066781 -0.037861
vn 0.0332469 -0.970495 -0.238817
v 0.429378 -0.023199 -0.091052
vn 0.0259638 -0.441658 -0.896808
v 0.527352 -0.02137 -0.088989
vn 0.0339039 -0.544156 -0.838299
v 0.645125 0.043228 -0.091646
vn 0.043875 0.417024 -0.907836
v 0.645393 0.091304 -0.052251
vn 0.0502444 0.912006 -0.407088
v 0.429158 0.045239 -0.097839
vn 0.023327 0.415721 -0.909193
v 0.429454 0.098427 -0.054255
vn 0.0277845 0.925582 -0.377527
v 0.527425 0.095642 -0.053588
vn 0.0335399 0.85327 -0.52039
v 0.52714 0.044472 -0.095517
vn 0.0296928 0.157272 -0.987109
v 0.645971 0.097441 0.009595
vn 0.05156 0.978515 0.199624
v 0.646521 0.058041 0.057669
vn 0.059967 0.587233 0.807193
v 0.430094 0.10522 0.014174
vn 0.0344061 0.940068 0.339248
v 0.430702 0.061631 0.067364
vn 0.0410369 0.424669 0.904418
v 0.528626 0.060239 0.063412
vn 0.0473563 0.466678 0.883159
v 0.528041 0.102176 0.012243
vn 0.0405708 0.954784 0.294518
v 0.64672 -0.003803 0.063803
vn 0.0633521 -0.155886 0.985741
v 0.646452 -0.05188 0.024413
vn 0.0592765 -0.856066 0.513457
v 0.528838 -0.005586 0.069942
vn 0.0489593 -0.34742 0.936431
v 0.430923 -0.0068 0.074152
vn 0.0427635 -0.237546 0.970434
v 0.430628 -0.059995 0.030567
vn 0.0400956 -0.837432 0.545068
v 0.528553 -0.056763 0.028013
vn 0.0448432 -0.915244 0.400397
v 0.389102 -0.068048 -0.037823
vn 0.157377 -0.962501 -0.220963
v 0.361066 -0.076022 -0.039948
vn 0.0244518 -0.989136 -0.144954
v 0.360393 -0.02784 -0.098748
vn 0.0168683 -0.474228 -0.88024
v 0.388486 -0.023874 -0.091735
vn 0.131272 -0.484022 -0.865153
v 0.361185 0.114129 0.017578
vn 0.0302572 0.904562 0.425267
v 0.361857 0.06594 0.076383
vn 0.0379065 0.466879 0.883509
v 0.389828 0.062109 0.068836
vn 0.145752 0.450831 0.880629
v 0.389211 0.106292 0.014922
vn 0.11337 0.920374 0.374244
v -0.533147 -0.093881 -0.0362
vn 0.0123677 -0.912779 -0.408266
v -0.533931 -0.037684 -0.104787
vn 0.00710893 -0.471968 -0.881587
v -0.533008 0.12791 0.030901
vn 0.0135541 0.986005 0.166161
v -0.532223 0.071703 0.099489
vn 0.0216013 0.472039 0.881313
v -0.781646 -0.038237 -0.102391
vn -0.0634505 -0.471433 -0.879616
v -0.780861 -0.094435 -0.033806
vn -0.124304 -0.979109 -0.160916
v -0.780723 0.127354 0.033296
vn -0.0974908 0.904266 0.41569
v -0.779938 0.071149 0.101884
vn -0.101426 0.469008 0.87735
v -0.793917 -0.024817 -0.077158
vn -0.713509 -0.286042 -0.639597
v -0.793326 -0.067197 -0.025438
vn -0.419774 -0.869925 -0.258882
v -0.792629 0.057671 0.076886
vn -0.703153 0.3787 0.601799
v -0.793221 0.100062 0.025163
vn -0.63168 0.765929 0.119719
v -0.817901 -0.067267 -0.025195
vn -0.962749 -0.261392 -0.0692022
v -0.817279 -0.060668 0.041351
vn -0.917807 -0.36968 0.144804
v -0.818419 0.093391 -0.041136
vn -0.874774 0.43015 -0.223028
v -0.817797 0.099996 0.025407
vn -0.919236 0.353895 0.172522
v -0.793843 0.093458 -0.041377
vn -0.614733 0.697448 -0.368334
v -0.816991 -0.008938 0.083733
vn -0.916158 -0.165819 0.364909
v -0.817849 0.016362 0.000107
vn -0.999952 -0.00227272 0.00957426
v -0.818707 0.041667 -0.083521
vn -0.923845 0.0589969 -0.378192
v 0.793522 0.022321 -0.022899
vn 0.834507 0.159094 -0.527529
v 0.793599 0.020031 -0.015333
vn 0.999952 0.00226501 -0.00955678
v 0.793517 0.014754 -0.025188
vn 0.958797 -0.128542 -0.253349
v 0.793677 0.017743 -0.007765
vn 0.845164 -0.155315 0.511445
v 0.793682 0.025308 -0.005479
vn 0.962887 0.132903 0.234915
v 0.793595 0.012465 -0.017622
vn 0.839442 -0.517734 -0.165192
v 0.793672 0.010178 -0.010059
vn 0.962625 -0.242015 0.121585
v 0.793604 0.027599 -0.013042
vn 0.840222 0.521336 0.14912
v -0.792703 -0.060597 0.041108
vn -0.702821 -0.596781 0.387163
v -0.792415 -0.008869 0.083487
vn -0.489201 -0.165766 0.856273
v -0.794132 0.041734 -0.083762
vn -0.638495 0.329352 -0.695594
v -0.781548 0.118598 -0.054942
vn -0.130395 0.927591 -0.350104
v -0.780036 -0.08568 0.054433
vn -0.0658666 -0.809282 0.583716
v -0.533833 0.119152 -0.057336
vn 0.00680355 0.8148 -0.579702
v -0.532322 -0.085126 0.052039
vn 0.0197374 -0.93403 0.35665
v 0.360477 0.106619 -0.05807
vn 0.0205544 0.939806 -0.34109
v 0.361773 -0.068516 0.035701
vn 0.0334533 -0.804573 0.59291
v 0.388563 0.099407 -0.054438
vn 0.114692 0.898051 -0.424677
v 0.389751 -0.061168 0.031537
vn 0.170405 -0.831968 0.528006
v 0.793527 0.029883 -0.02061
vn 0.959048 0.246302 -0.139864
v 0.388262 0.045494 -0.098616
vn 0.128612 0.268692 -0.954601
v 0.390051 -0.00725 0.075715
vn 0.148112 -0.304791 0.940832
v 0.360149 0.047818 -0.106255
vn 0.0163452 0.423522 -0.905739
v 0.362101 -0.009711 0.083885
vn 0.0357288 -0.149487 0.988118
v -0.534215 0.050564 -0.113539
vn 0.00438603 0.166315 -0.986063
v -0.531939 -0.016535 0.108241
vn 0.0238656 -0.408135 0.912609
v -0.78193 0.050009 -0.111144
vn -0.109278 0.405552 -0.907516
v -0.779654 -0.017089 0.110635
vn -0.115122 -0.162417 0.979983
v -0.818493 -0.024886 -0.076916
vn -0.922491 -0.23258 -0.308087
v -0.817205 0.057603 0.077131
vn -0.916756 0.133915 0.376331
f 8//8 3//3 5//5
f 2//2 5//5 3//3
f 12//12 7//7 9//9
f 6//6 9//9 7//7
f 16//16 11//11 13//13
f 10//10 13//13 11//11
f 4//4 15//15 1//1
f 14//14 1//1 15//15
f 18//18 17//17 22//22
f 19//19 22//22 17//17
f 21//21 20//20 44//44
f 41//41 44//44 20//20
f 24//24 23//23 27//27
f 28//28 27//27 23//23
f 26//26 25//25 86//86
f 89//89 86//86 25//25
f 29//29 34//34 30//30
f 33//33 30//30 34//34
f 31//31 48//48 32//32
f 47//47 32//32 48//48
f 35//35 37//37 36//36
f 40//40 36//36 37//37
f 38//38 90//90 39//39
f 87//87 39//39 90//90
f 86//86 89//89 84//84
f 91//91 84//84 89//89
f 90//90 92//92 87//87
f 85//85 87//87 92//92
f 84//84 91//91 82//82
f 93//93 82//82 91//91
f 92//92 94//94 85//85
f 83//83 85//85 94//94
f 93//93 95//95 82//82
f 80//80 82//82 95//95
f 94//94 96//96 81//81
f 83//83 94//94 81//81
f 80//80 79//79 65//65
f 95//95 79//79 80//80
f 96//96 78//78 77//77
f 81//81 96//96 77//77
f 79//79 57//57 68//68
f 97//97 68//68 57//57
f 59//59 98//98 78//78
f 66//66 78//78 98//98
f 67//67 98//98 64//64
f 67//67 97//97 61//61
f 70//70 88//88 76//76
f 67//67 61//61 62//62
f 70//70 72//72 75//75
f 70//70 69//69 88//88
f 67//67 68//68 97//97
f 67//67 66//66 98//98
f 60//60 64//64 59//59
f 98//98 59//59 64//64
f 57//57 58//58 97//97
f 61//61 97//97 58//58
f 96//96 59//59 78//78
f 56//56 59//59 96//96
f 95//95 57//57 79//79
f 53//53 57//57 95//95
f 94//94 52//52 96//96
f 56//56 96//96 52//52
f 93//93 53//53 95//95
f 50//50 53//53 93//93
f 46//46 52//52 92//92
f 94//94 92//92 52//52
f 91//91 43//43 93//93
f 50//50 93//93 43//43
f 47//47 46//46 90//90
f 92//92 90//90 46//46
f 89//89 44//44 91//91
f 43//43 91//91 44//44
f 32//32 47//47 38//38
f 90//90 38//38 47//47
f 30//30 33//33 35//35
f 37//37 35//35 33//33
f 26//26 86//86 31//31
f 48//48 31//31 86//86
f 24//24 27//27 29//29
f 34//34 29//29 27//27
f 25//25 21//21 89//89
f 44//44 89//89 21//21
f 23//23 18//18 28//28
f 22//22 28//28 18//18
f 20//20 39//39 41//41
f 87//87 41//41 39//39
f 17//17 36//36 19//19
f 40//40 19//19 36//36
f 75//75 72//72 4//4
f 15//15 4//4 72//72
f 73//73 76//76 16//16
f 11//11 16//16 76//76
f 88//88 69//69 12//12
f 7//7 12//12 69//69
f 71//71 74//74 8//8
f 3//3 8//8 74//74
f 75//75 4//4 74//74
f 3//3 74//74 4//4
f 71//71 8//8 69//69
f 7//7 69//69 8//8
f 88//88 12//12 76//76
f 11//11 76//76 12//12
f 73//73 16//16 72//72
f 15//15 72//72 16//16
f 2//2 1//1 17//17
f 36//36 17//17 1//1
f 19//19 40//40 20//20
f 39//39 20//20 40//40
f 5//5 18//18 6//6
f 23//23 6//6 18//18
f 22//22 21//21 28//28
f 25//25 28//28 21//21
f 9//9 24//24 10//10
f 29//29 10//10 24//24
f 27//27 26//26 34//34
f 31//31 34//34 26//26
f 14//14 13//13 35//35
f 30//30 35//35 13//13
f 33//33 32//32 37//37
f 38//38 37//37 32//32
f 87//87 85//85 41//41
f 42//42 41//41 85//85
f 48//48 86//86 45//45
f 84//84 45//45 86//86
f 85//85 83//83 42//42
f 49//49 42//42 83//83
f 45//45 84//84 51//51
f 82//82 51//51 84//84
f 49//49 83//83 54//54
f 81//81 54//54 83//83
f 82//82 80//80 51//51
f 55//55 51//51 80//80
f 54//54 77//77 58//58
f 81//81 77//77 54//54
f 80//80 65//65 60//60
f 55//55 80//80 60//60
f 62//62 58//58 77//77
f 65//65 79//79 63//63
f 68//68 63//63 79//79
f 78//78 66//66 77//77
f 62//62 77//77 66//66
f 67//67 64//64 63//63
f 70//70 74//74 71//71
f 70//70 76//76 73//73
f 70//70 75//75 74//74
f 70//70 73//73 72//72
f 70//70 71//71 69//69
f 67//67 63//63 68//68
f 67//67 62//62 66//66
f 65//65 63//63 60//60
f 64//64 60//60 63//63
f 58//58 62//62 61//61
f 55//55 60//60 59//59
f 56//56 55//55 59//59
f 54//54 58//58 57//57
f 53//53 54//54 57//57
f 52//52 55//55 56//56
f 51//51 55//55 52//52
f 49//49 54//54 53//53
f 50//50 49//49 53//53
f 46//46 45//45 52//52
f 51//51 52//52 45//45
f 42//42 49//49 43//43
f 50//50 43//43 49//49
f 48//48 45//45 47//47
f 46//46 47//47 45//45
f 44//44 41//41 43//43
f 42//42 43//43 41//41
f 40//40 37//37 39//39
f 38//38 39//39 37//37
f 1//1 14//14 36//36
f 35//35 36//36 14//14
f 34//34 31//31 33//33
f 32//32 33//33 31//31
f 13//13 10//10 30//30
f 29//29 30//30 10//10
f 28//28 25//25 27//27
f 26//26 27//27 25//25
f 6//6 23//23 9//9
f 24//24 9//9 23//23
f 22//22 19//19 21//21
f 20//20 21//21 19//19
f 2//2 17//17 5//5
f 18//18 5//5 17//17
f 16//16 13//13 15//15
f 14//14 15//15 13//13
f 12//12 9//9 11//11
f 10//10 11//11 9//9
f 8//8 5//5 7//7
f 6//6 7//7 5//5
f 4//4 1//1 3//3
f 2//2 3//3 1//1
