# Created by Open3D 
# object name: D00823
# number of vertices: 64
# number of triangles: 124
v 4.26276 2.9801 1.10514
vn -0.650479 0.485755 0.583883
v 4.04864 2.22106 1.11862
vn -0.979843 -0.161115 0.118113
v 4.31886 3.29421 0.809991
vn -0.874985 0.482363 -0.0415498
v 4.13362 2.41675 0.330907
vn -0.860015 -0.272915 -0.431151
v 4.40527 2.80146 0.520754
vn 0.834359 0.509869 -0.209472
v 4.43161 2.93276 1.00604
vn 0.992262 0.0113953 -0.123642
v 4.21085 2.56104 0.335828
vn 0.1821 -0.131538 -0.974442
v 4.43183 2.5793 0.628009
vn 0.998356 0.043923 -0.0368152
v 4.35438 2.16075 0.675116
vn 0.287177 -0.934194 -0.211687
v 4.15055 2.15121 0.628386
vn 0.10448 -0.949941 -0.294443
v 4.38657 2.63323 0.385674
vn 0.767132 -0.256907 -0.587798
v 4.42054 2.68701 0.479918
vn 0.993907 0.0285422 -0.106458
v 4.43748 2.46177 0.629038
vn 0.997885 0.0615159 -0.020996
v 4.41656 2.80644 0.711845
vn 0.972582 0.208591 -0.102833
v 4.30148 2.68956 0.326159
vn 0.117779 -0.0929064 -0.988684
v 4.09367 2.60581 0.310155
vn -0.974002 0.226497 -0.0043928
v 4.28644 2.37758 1.15074
vn 0.188155 -0.56507 0.803302
v 4.26906 2.82738 0.351657
vn 0.218949 0.67104 -0.708355
v 4.15055 2.10055 0.777437
vn 0.285023 -0.923663 -0.25614
v 4.33556 2.42395 0.395893
vn 0.317843 -0.0589444 -0.946309
v 4.42807 2.5591 0.496772
vn 0.931274 0.0158515 -0.363975
v 4.04864 2.10791 0.6909
vn -1 0 0
v 4.35438 2.15678 0.885476
vn 0.338184 -0.903281 0.264036
v 4.45064 2.32414 0.880863
vn 0.998828 0.0360334 -0.0323292
v 4.45064 2.68784 1.11341
vn 0.998583 0.0243861 -0.0472948
v 4.38226 2.90245 0.619279
vn 0.874202 0.390495 -0.288591
v 4.39919 3.02838 0.895679
vn 0.92918 0.175216 -0.325459
v 4.445 2.34699 0.644171
vn 0.998159 0.0592103 -0.0131489
v 4.24118 2.33782 0.387086
vn 0.104331 -0.425764 -0.898799
v 4.17279 2.72808 0.318227
vn -0.123123 0.221787 -0.967291
v 4.22889 2.95175 0.434845
vn -0.88222 0.456523 -0.115217
v 4.34873 2.25053 0.434618
vn -0.155367 -0.577662 -0.801354
v 4.35438 2.17517 0.565301
vn 0.0722676 -0.964784 -0.25292
v 4.32616 2.53828 0.35835
vn 0.538398 -0.219827 -0.813513
v 4.25246 2.14109 0.715953
vn 0.16016 -0.979628 -0.121154
v 4.45064 2.27548 0.774032
vn 0.998501 0.0518943 -0.0174192
v 4.45064 2.25653 0.398826
vn 0.702117 -0.294438 -0.648335
v 4.42807 2.6996 0.641083
vn 0.996335 0.0619516 -0.0589826
v 4.25246 2.2608 1.05513
vn 0.293998 -0.676814 0.674899
v 4.45064 2.23887 0.55328
vn 0.961022 -0.276416 -0.00560453
v 4.20665 2.76588 1.19935
vn -0.926416 0.277964 0.253949
v 4.445 2.5886 0.937956
vn 0.998927 0.0212299 -0.0411549
v 4.30193 3.08776 0.680761
vn 0.868961 0.323101 -0.37485
v 4.15055 2.20464 0.478306
vn -0.842184 -0.429083 -0.326518
v 4.15055 2.05265 0.925457
vn -0.434424 -0.802004 0.409959
v 4.43936 2.47921 0.746173
vn 0.99858 0.0399047 -0.0353049
v 4.43936 2.81726 0.875174
vn 0.991079 0.104663 -0.0825102
v 4.15055 2.47804 1.25306
vn -0.897861 0.180843 0.401425
v 4.43936 2.39576 0.442243
vn 0.976957 0.174601 -0.122759
v 4.43936 2.39206 0.352045
vn -0.376509 -0.0136807 -0.926312
v 4.40549 2.80233 0.301901
vn 0.751871 0.332103 -0.56956
v 4.45629 2.21896 0.280734
vn 0.996639 0.081854 -0.00335687
v 4.45629 2.15489 0.473502
vn 0.249771 -0.919093 -0.304766
v 4.45629 2.16598 0.744096
vn 0.700991 -0.709179 -0.0753387
v 4.45629 2.18124 0.831826
vn 0.834475 -0.527672 0.158788
v 4.45629 2.2146 0.905666
vn 0.927899 -0.339445 0.154212
v 4.45629 2.25169 0.986875
vn 0.487784 -0.713859 0.502465
v 4.45629 2.31195 1.06459
vn 0.895017 -0.317257 0.313517
v 4.45629 2.3939 1.14404
vn 0.148223 -0.62379 0.767409
v 4.45629 2.46934 1.19252
vn 0.964977 -0.115999 0.235294
v 4.45629 2.60124 1.24726
vn 0.216315 -0.147701 0.965086
v 4.45629 2.77694 1.27252
vn 0.33222 0 0.943202
v 4.45629 2.95264 1.24726
vn 0.522534 0.388573 0.758926
v 4.45629 3.30434 1.02949
vn 0.580495 0.717373 0.38523
f 22//22 45//45 44//44
f 45//45 2//2 44//44
f 2//2 4//4 44//44
f 2//2 16//16 4//4
f 2//2 48//48 16//16
f 48//48 41//41 16//16
f 41//41 31//31 16//16
f 41//41 3//3 31//31
f 41//41 1//1 3//3
f 1//1 64//64 3//3
f 31//31 30//30 16//16
f 31//31 18//18 30//30
f 1//1 63//63 64//64
f 3//3 43//43 31//31
f 22//22 19//19 45//45
f 44//44 10//10 22//22
f 63//63 6//6 64//64
f 6//6 27//27 64//64
f 4//4 29//29 44//44
f 60//60 59//59 58//58
f 38//38 8//8 12//12
f 39//39 23//23 57//57
f 10//10 44//44 33//33
f 38//38 47//47 42//42
f 53//53 33//33 32//32
f 2//2 39//39 17//17
f 52//52 50//50 49//49
f 32//32 37//37 53//53
f 21//21 34//34 11//11
f 17//17 48//48 2//2
f 27//27 43//43 3//3
f 47//47 25//25 42//42
f 21//21 11//11 12//12
f 33//33 35//35 10//10
f 33//33 9//9 35//35
f 16//16 7//7 4//4
f 14//14 5//5 26//26
f 20//20 34//34 21//21
f 18//18 5//5 51//51
f 25//25 61//61 60//60
f 54//54 35//35 9//9
f 61//61 25//25 62//62
f 17//17 58//58 59//59
f 14//14 26//26 47//47
f 6//6 63//63 25//25
f 4//4 20//20 29//29
f 38//38 12//12 5//5
f 42//42 60//60 58//58
f 21//21 8//8 13//13
f 33//33 53//53 40//40
f 11//11 51//51 12//12
f 35//35 19//19 10//10
f 35//35 54//54 23//23
f 46//46 13//13 8//8
f 20//20 49//49 50//50
f 60//60 42//42 25//25
f 61//61 62//62 41//41
f 11//11 34//34 15//15
f 39//39 57//57 58//58
f 7//7 16//16 30//30
f 15//15 7//7 30//30
f 49//49 37//37 52//52
f 42//42 24//24 46//46
f 30//30 18//18 15//15
f 49//49 21//21 13//13
f 56//56 24//24 57//57
f 45//45 23//23 39//39
f 33//33 40//40 9//9
f 34//34 7//7 15//15
f 32//32 29//29 20//20
f 54//54 55//55 23//23
f 61//61 41//41 48//48
f 36//36 56//56 55//55
f 27//27 26//26 43//43
f 47//47 26//26 27//27
f 17//17 39//39 58//58
f 20//20 21//21 49//49
f 20//20 7//7 34//34
f 5//5 18//18 31//31
f 14//14 38//38 5//5
f 49//49 40//40 37//37
f 47//47 6//6 25//25
f 36//36 55//55 54//54
f 40//40 53//53 37//37
f 19//19 35//35 23//23
f 10//10 19//19 22//22
f 26//26 5//5 31//31
f 24//24 42//42 58//58
f 36//36 24//24 56//56
f 54//54 40//40 28//28
f 19//19 23//23 45//45
f 44//44 32//32 33//33
f 47//47 27//27 6//6
f 28//28 49//49 13//13
f 50//50 52//52 37//37
f 41//41 62//62 63//63
f 11//11 15//15 51//51
f 45//45 39//39 2//2
f 56//56 57//57 23//23
f 60//60 17//17 59//59
f 29//29 32//32 44//44
f 20//20 50//50 32//32
f 17//17 61//61 48//48
f 28//28 46//46 36//36
f 1//1 41//41 63//63
f 42//42 46//46 38//38
f 46//46 28//28 13//13
f 61//61 17//17 60//60
f 18//18 51//51 15//15
f 23//23 55//55 56//56
f 49//49 28//28 40//40
f 40//40 54//54 9//9
f 57//57 24//24 58//58
f 62//62 25//25 63//63
f 38//38 46//46 8//8
f 12//12 8//8 21//21
f 28//28 36//36 54//54
f 31//31 43//43 26//26
f 46//46 24//24 36//36
f 47//47 38//38 14//14
f 4//4 7//7 20//20
f 64//64 27//27 3//3
f 12//12 51//51 5//5
f 50//50 37//37 32//32
