# Created by Open3D 
# object name: m797
# number of vertices: 132
# number of triangles: 260
v 0.5787 0.429763 0.492098
vn 0.943548 -0.331013 -0.0121536
v 0.4696 0.377328 0.133136
vn 0.0888002 0.602137 -0.793439
v 0.471267 0.365148 0.129098
vn 0.0434813 -0.0697483 -0.996617
v 0.552161 0.393546 0.133522
vn -0.985362 0.163963 -0.0466691
v 0.581007 0.521489 0.503892
vn 0.99837 0.0551804 -0.0146021
v 0.554618 0.572812 0.50652
vn -0.320696 -0.0662007 0.944866
v 0.551583 0.686292 0.49197
vn 0.992976 0.105088 0.0543647
v 0.546135 0.686292 0.503764
vn 0.732623 0.0687206 0.677157
v 0.534981 0.685972 0.507802
vn 0.112232 0.0144246 0.993577
v 0.570174 0.518091 0.50793
vn 0.082847 0.0124214 0.996485
v 0.523125 0.685651 0.503701
vn -0.622456 -0.0714099 0.77939
v 0.558698 0.514374 0.503829
vn -0.992802 -0.117144 0.0249253
v 0.519149 0.684625 0.491841
vn -0.99034 -0.134413 -0.0340549
v 0.572288 0.966538 0.492033
vn -0.8997 0.436465 0.00618669
v 0.582929 0.975 0.145507
vn -0.459994 0.887847 -0.0115166
v 0.573763 0.966538 0.145444
vn -0.928177 0.372004 -0.0100662
v 0.581391 0.975 0.492098
vn -0.205819 0.978552 0.00859011
v 0.59543 0.974357 0.14557
vn 0.305792 0.952063 -0.00819809
v 0.593891 0.974357 0.492161
vn 0.541829 0.840405 0.01191
v 0.603889 0.965191 0.145636
vn 0.84814 0.529746 -0.00528987
v 0.60235 0.965191 0.492161
vn 0.943738 0.330394 0.0140626
v 0.604595 0.955705 0.145636
vn 0.961425 -0.274193 -0.0219177
v 0.603057 0.955705 0.492161
vn 0.946093 -0.323307 0.0195084
v 0.575431 0.876222 0.145507
vn 0.950745 -0.309755 -0.0116418
v 0.573955 0.876222 0.492033
vn 0.960493 -0.277597 0.0198295
v 0.554468 0.792955 0.145379
vn 0.999402 -0.0158671 -0.0307336
v 0.55293 0.792955 0.49197
vn 0.992957 -0.115006 0.0284531
v 0.555175 0.390532 0.145379
vn 0.991316 -0.105794 -0.0781026
v 0.553636 0.390532 0.49197
vn 0.692305 -0.721441 0.0153518
v 0.517611 0.362457 0.14525
vn 0.501843 -0.864903 -0.0097709
v 0.516072 0.362457 0.491778
vn 0.400677 -0.916117 0.0136924
v 0.472549 0.348867 0.145059
vn 0.196228 -0.980493 -0.0113376
v 0.471073 0.348867 0.491584
vn 0.104349 -0.994461 0.0126011
v 0.425178 0.348546 0.144801
vn -0.0841525 -0.99638 -0.0120548
v 0.423703 0.348546 0.491392
vn -0.125837 -0.992018 0.00811183
v 0.299286 0.367842 0.144289
vn -0.0932137 -0.995575 -0.0119108
v 0.297747 0.367842 0.490817
vn -0.0365115 -0.999269 0.0113503
v 0.172047 0.364765 0.143712
vn 0.0817783 -0.996582 -0.0116656
v 0.170508 0.364765 0.490303
vn 0.137172 -0.990467 0.0126035
v 0.046795 0.339764 0.1432
vn 0.181908 -0.983247 -0.0116103
v 0.045319 0.339764 0.489725
vn 0.148935 -0.988603 0.0219684
v 0.034615 0.341111 0.143137
vn -0.365889 -0.930574 -0.0125694
v 0.033142 0.341111 0.489662
vn -0.592465 -0.805554 0.00828223
v 0.026476 0.350917 0.143071
vn -0.910457 -0.413348 -0.0145685
v 0.025 0.350917 0.489662
vn -0.988094 -0.153714 0.00644849
v 0.027886 0.363418 0.143071
vn -0.930039 0.36719 -0.0141186
v 0.026347 0.363418 0.489662
vn -0.796127 0.605093 0.00665726
v 0.037692 0.370919 0.143137
vn -0.287014 0.957861 -0.0111836
v 0.036153 0.370919 0.489725
vn -0.242945 0.970029 0.00459946
v 0.167943 0.400981 0.143712
vn -0.158096 0.987359 -0.0112893
v 0.16647 0.400981 0.490303
vn -0.092814 0.995631 0.010204
v 0.301977 0.404058 0.144289
vn 0.0354649 0.999312 -0.0108318
v 0.300504 0.404058 0.49088
vn 0.0920217 0.995692 0.0113998
v 0.433961 0.383737 0.144867
vn 0.136206 0.990624 -0.010626
v 0.432485 0.383737 0.491458
vn 0.132518 0.991004 0.0187061
v 0.475946 0.382392 0.145059
vn 0.198578 0.980053 0.00790988
v 0.521969 0.795326 0.14525
vn -0.998176 -0.0602321 -0.00397775
v 0.520496 0.795326 0.491841
vn -0.988349 0.152068 0.0063836
v 0.543315 0.882951 0.145316
vn -0.961949 0.272797 -0.015385
v 0.541776 0.882951 0.491907
vn -0.951652 0.307097 0.00710474
v 0.525753 0.795966 0.133393
vn -0.682419 0.00142685 -0.73096
v 0.547739 0.882951 0.133522
vn -0.684915 0.202366 -0.699957
v 0.577544 0.965897 0.133648
vn -0.751338 0.298409 -0.588595
v 0.53761 0.79462 0.129418
vn 0.0325561 -0.0147846 -0.999361
v 0.558955 0.88026 0.129484
vn -0.000727135 -0.0048406 -0.999988
v 0.588698 0.961793 0.12961
vn -0.0858626 0.0619341 -0.99438
v 0.548763 0.793596 0.133522
vn 0.806606 -0.0314668 -0.590252
v 0.570109 0.877566 0.133585
vn 0.655899 -0.207625 -0.725733
v 0.599531 0.957755 0.133714
vn 0.568077 -0.188175 -0.801173
v 0.469214 0.381046 0.144995
vn 0.110311 0.907523 -0.405256
v 0.433383 0.380019 0.133007
vn 0.0731541 0.532582 -0.843211
v 0.429665 0.363804 0.128906
vn -0.00587856 -0.0551099 -0.998463
v 0.515944 0.366495 0.133393
vn -0.124635 0.984499 -0.123398
v 0.472291 0.353291 0.133199
vn 0.0896591 -0.76332 -0.639768
v 0.426588 0.352585 0.133007
vn -0.0867669 -0.760412 -0.643618
v 0.58498 0.971986 0.133648
vn -0.339972 0.746866 -0.571498
v 0.594789 0.970639 0.133714
vn 0.286066 0.772087 -0.567492
v 0.600878 0.963203 0.133714
vn 0.718638 0.401572 -0.567715
v 0.301722 0.40002 0.132432
vn 0.0523584 0.611047 -0.789861
v 0.168712 0.397264 0.131855
vn -0.0635729 0.635069 -0.769835
v 0.038398 0.367135 0.131277
vn -0.203592 0.780034 -0.591691
v 0.301079 0.383416 0.128392
vn 0.0126757 0.00168471 -0.999918
v 0.170765 0.380725 0.127817
vn 0.0127472 0.0021769 -0.999916
v 0.042499 0.354958 0.127239
vn -0.0326689 0.0847201 -0.995869
v 0.29999 0.37188 0.132432
vn -0.0327412 -0.708212 -0.705241
v 0.171726 0.369186 0.131855
vn 0.09008 -0.699562 -0.708871
v 0.045513 0.343802 0.131343
vn 0.111485 -0.585554 -0.80293
v 0.036731 0.344829 0.131277
vn -0.286596 -0.733728 -0.616041
v 0.030577 0.352264 0.131277
vn -0.704482 -0.330699 -0.627968
v 0.031603 0.36143 0.131277
vn -0.727336 0.266812 -0.632293
v 0.524148 0.795966 0.503701
vn -0.727526 0.0709029 0.682406
v 0.546135 0.882951 0.503764
vn -0.690252 0.202119 0.694766
v 0.575943 0.965897 0.503892
vn -0.755978 0.298507 0.582573
v 0.535942 0.79462 0.507802
vn -0.0192257 -0.0120272 0.999743
v 0.557288 0.88026 0.507867
vn -0.0101102 -0.00438333 0.999939
v 0.587096 0.961793 0.507993
vn -0.0938584 0.0617053 0.993672
v 0.547161 0.793596 0.503764
vn 0.663893 -0.0909103 0.742281
v 0.568507 0.877566 0.503892
vn 0.648417 -0.20703 0.732594
v 0.597929 0.957755 0.504021
vn 0.560191 -0.187861 0.80678
v 0.560365 0.476812 0.503829
vn -0.99477 0.0884155 0.0511341
v 0.552226 0.440916 0.503829
vn -0.925027 0.379892 0.00257634
v 0.532931 0.409827 0.503701
vn -0.731539 0.681625 -0.0154414
v 0.503189 0.388161 0.503572
vn -0.446319 0.894853 0.00611118
v 0.467933 0.377328 0.503443
vn -0.110379 0.993881 0.00401068
v 0.431716 0.380019 0.503252
vn 0.0644416 0.49415 0.866985
v 0.572159 0.476492 0.50793
vn 0.00449615 -0.0155527 0.999869
v 0.563379 0.436237 0.50793
vn 0.000137755 -0.0224654 0.999748
v 0.542097 0.401685 0.507802
vn -0.00971005 -0.0242797 0.999658
v 0.508894 0.377007 0.507673
vn -0.0162896 -0.018541 0.999695
v 0.4696 0.365148 0.507482
vn -0.0184449 -0.0139713 0.999732
v 0.427998 0.363804 0.50729
vn -0.01438 -0.0548066 0.998393
v 0.583699 0.475786 0.503955
vn 0.999591 -0.0188512 -0.0215171
v 0.574275 0.431813 0.503892
vn 0.640267 -0.285823 0.712996
v 0.550559 0.393546 0.503764
vn 0.505209 -0.499348 0.703858
v 0.514342 0.366495 0.503635
vn 0.296041 -0.642585 0.706714
v 0.47069 0.353291 0.503443
vn 0.0867161 -0.704204 0.704682
v 0.424987 0.352585 0.503252
vn -0.0924797 -0.759794 0.643553
v 0.583378 0.971986 0.503955
vn -0.345239 0.745648 0.569929
v 0.593185 0.970639 0.503955
vn 0.280884 0.771804 0.570458
v 0.599276 0.963203 0.504021
vn 0.713621 0.40246 0.573386
v 0.300055 0.40002 0.502674
vn 0.0453205 0.610981 0.790347
v 0.167111 0.397264 0.502096
vn -0.0701417 0.634117 0.77005
v 0.036794 0.367135 0.501585
vn -0.208433 0.779055 0.591294
v 0.299415 0.383416 0.506778
vn 0.00415132 0.0015586 0.99999
v 0.169098 0.380725 0.5062
vn 0.00370053 0.00435963 0.999984
v 0.040832 0.354958 0.505623
vn -0.0415669 0.0858104 0.995444
v 0.298388 0.37188 0.502674
vn -0.0386756 -0.708353 0.704798
v 0.170125 0.369186 0.502162
vn 0.0839719 -0.700231 0.708961
v 0.043909 0.343802 0.501585
vn 0.104157 -0.585075 0.804263
v 0.035127 0.344829 0.501522
vn -0.292181 -0.734244 0.612794
v 0.028975 0.352264 0.501522
vn -0.710111 -0.332293 0.620745
v 0.029999 0.36143 0.501522
vn -0.733434 0.265646 0.625706
f 73//73 104//104 4//4
f 104//104 103//103 4//4
f 103//103 102//102 4//4
f 102//102 101//101 4//4
f 101//101 100//100 4//4
f 100//100 12//12 4//4
f 12//12 57//57 4//4
f 57//57 61//61 4//4
f 61//61 64//64 4//4
f 64//64 67//67 4//4
f 67//67 28//28 4//4
f 67//67 26//26 28//28
f 26//26 5//5 28//28
f 5//5 112//112 28//28
f 73//73 56//56 104//104
f 112//112 1//1 28//28
f 73//73 70//70 56//56
f 73//73 2//2 70//70
f 12//12 13//13 57//57
f 12//12 11//11 13//13
f 56//56 55//55 104//104
f 55//55 105//105 104//104
f 26//26 7//7 5//5
f 73//73 3//3 2//2
f 73//73 74//74 3//3
f 26//26 27//27 7//7
f 9//9 6//6 10//10
f 11//11 12//12 6//6
f 6//6 12//12 10//10
f 9//9 11//11 6//6
f 56//56 70//70 54//54
f 5//5 8//8 9//9
f 5//5 9//9 10//10
f 8//8 5//5 7//7
f 132//132 126//126 123//123
f 131//131 126//126 132//132
f 130//130 126//126 131//131
f 129//129 126//126 130//130
f 47//47 123//123 49//49
f 123//123 47//47 132//132
f 45//45 132//132 47//47
f 132//132 45//45 131//131
f 43//43 131//131 45//45
f 131//131 43//43 130//130
f 41//41 130//130 43//43
f 130//130 41//41 129//129
f 41//41 128//128 129//129
f 128//128 41//41 39//39
f 39//39 127//127 128//128
f 127//127 39//39 37//37
f 37//37 117//117 127//127
f 117//117 37//37 35//35
f 129//129 125//125 126//126
f 125//125 129//129 128//128
f 128//128 124//124 125//125
f 124//124 128//128 127//127
f 127//127 111//111 124//124
f 111//111 127//127 117//117
f 126//126 122//122 123//123
f 122//122 126//126 125//125
f 125//125 121//121 122//122
f 121//121 125//125 124//124
f 124//124 105//105 121//121
f 105//105 124//124 111//111
f 123//123 51//51 49//49
f 51//51 123//123 122//122
f 122//122 53//53 51//51
f 53//53 122//122 121//121
f 121//121 55//55 53//53
f 55//55 121//121 105//105
f 120//120 96//96 99//99
f 119//119 96//96 120//120
f 118//118 96//96 119//119
f 93//93 96//96 118//118
f 21//21 99//99 23//23
f 99//99 21//21 120//120
f 19//19 120//120 21//21
f 120//120 19//19 119//119
f 17//17 119//119 19//19
f 119//119 17//17 118//118
f 14//14 118//118 17//17
f 118//118 14//14 93//93
f 35//35 116//116 117//117
f 116//116 35//35 33//33
f 33//33 115//115 116//116
f 115//115 33//33 31//31
f 31//31 114//114 115//115
f 114//114 31//31 29//29
f 29//29 113//113 114//114
f 113//113 29//29 1//1
f 1//1 112//112 113//113
f 117//117 110//110 111//111
f 110//110 117//117 116//116
f 116//116 109//109 110//110
f 109//109 116//116 115//115
f 115//115 108//108 109//109
f 108//108 115//115 114//114
f 114//114 107//107 108//108
f 107//107 114//114 113//113
f 113//113 106//106 107//107
f 106//106 113//113 112//112
f 112//112 10//10 106//106
f 10//10 112//112 5//5
f 111//111 104//104 105//105
f 104//104 111//111 110//110
f 110//110 103//103 104//104
f 103//103 110//110 109//109
f 109//109 102//102 103//103
f 102//102 109//109 108//108
f 108//108 101//101 102//102
f 101//101 108//108 107//107
f 107//107 100//100 101//101
f 100//100 107//107 106//106
f 106//106 12//12 100//100
f 12//12 106//106 10//10
f 98//98 23//23 99//99
f 23//23 98//98 25//25
f 97//97 25//25 98//98
f 25//25 97//97 27//27
f 8//8 27//27 97//97
f 27//27 8//8 7//7
f 95//95 99//99 96//96
f 99//99 95//95 98//98
f 94//94 98//98 95//95
f 98//98 94//94 97//97
f 9//9 97//97 94//94
f 8//8 97//97 9//9
f 92//92 96//96 93//93
f 96//96 92//92 95//95
f 91//91 95//95 92//92
f 95//95 91//91 94//94
f 11//11 94//94 91//91
f 9//9 94//94 11//11
f 60//60 93//93 14//14
f 93//93 60//60 92//92
f 58//58 92//92 60//60
f 92//92 58//58 91//91
f 13//13 91//91 58//58
f 11//11 91//91 13//13
f 84//84 90//90 81//81
f 84//84 89//89 90//90
f 84//84 88//88 89//89
f 84//84 87//87 88//88
f 81//81 46//46 48//48
f 46//46 81//81 90//90
f 90//90 44//44 46//46
f 44//44 90//90 89//89
f 89//89 42//42 44//44
f 42//42 89//89 88//88
f 88//88 40//40 42//42
f 40//40 88//88 87//87
f 86//86 40//40 87//87
f 40//40 86//86 38//38
f 85//85 38//38 86//86
f 38//38 85//85 36//36
f 75//75 36//36 85//85
f 36//36 75//75 34//34
f 83//83 87//87 84//84
f 87//87 83//83 86//86
f 82//82 86//86 83//83
f 86//86 82//82 85//85
f 72//72 85//85 82//82
f 85//85 72//72 75//75
f 80//80 84//84 81//81
f 84//84 80//80 83//83
f 79//79 83//83 80//80
f 83//83 79//79 82//82
f 71//71 82//82 79//79
f 82//82 71//71 72//72
f 50//50 81//81 48//48
f 81//81 50//50 80//80
f 52//52 80//80 50//50
f 80//80 52//52 79//79
f 54//54 79//79 52//52
f 79//79 54//54 71//71
f 66//66 78//78 69//69
f 66//66 77//77 78//78
f 66//66 76//76 77//77
f 66//66 63//63 76//76
f 69//69 20//20 22//22
f 20//20 69//69 78//78
f 78//78 18//18 20//20
f 18//18 78//78 77//77
f 77//77 15//15 18//18
f 15//15 77//77 76//76
f 76//76 16//16 15//15
f 16//16 76//76 63//63
f 74//74 34//34 75//75
f 34//34 74//74 32//32
f 73//73 32//32 74//74
f 32//32 73//73 30//30
f 4//4 30//30 73//73
f 30//30 4//4 28//28
f 3//3 75//75 72//72
f 75//75 3//3 74//74
f 2//2 72//72 71//71
f 72//72 2//2 3//3
f 70//70 71//71 54//54
f 71//71 70//70 2//2
f 22//22 68//68 69//69
f 68//68 22//22 24//24
f 24//24 67//67 68//68
f 67//67 24//24 26//26
f 69//69 65//65 66//66
f 65//65 69//69 68//68
f 68//68 64//64 65//65
f 64//64 68//68 67//67
f 66//66 62//62 63//63
f 62//62 66//66 65//65
f 65//65 61//61 62//62
f 61//61 65//65 64//64
f 63//63 59//59 16//16
f 59//59 63//63 62//62
f 62//62 57//57 59//59
f 57//57 62//62 61//61
f 16//16 60//60 14//14
f 60//60 16//16 59//59
f 60//60 59//59 58//58
f 58//58 59//59 57//57
f 58//58 57//57 13//13
f 55//55 56//56 54//54
f 55//55 54//54 53//53
f 53//53 54//54 52//52
f 53//53 52//52 51//51
f 51//51 52//52 50//50
f 51//51 50//50 49//49
f 49//49 50//50 48//48
f 49//49 48//48 47//47
f 47//47 48//48 46//46
f 47//47 46//46 45//45
f 45//45 46//46 44//44
f 45//45 44//44 43//43
f 43//43 44//44 42//42
f 43//43 42//42 41//41
f 41//41 42//42 40//40
f 41//41 40//40 39//39
f 39//39 40//40 38//38
f 39//39 38//38 37//37
f 37//37 38//38 36//36
f 37//37 36//36 35//35
f 35//35 36//36 34//34
f 35//35 34//34 33//33
f 33//33 34//34 32//32
f 33//33 32//32 31//31
f 31//31 32//32 30//30
f 31//31 30//30 29//29
f 29//29 30//30 28//28
f 29//29 28//28 1//1
f 27//27 26//26 25//25
f 25//25 26//26 24//24
f 25//25 24//24 23//23
f 23//23 24//24 22//22
f 23//23 22//22 21//21
f 21//21 22//22 20//20
f 21//21 20//20 19//19
f 19//19 20//20 18//18
f 19//19 18//18 17//17
f 17//17 18//18 15//15
f 17//17 15//15 14//14
f 15//15 16//16 14//14
