# Created by Open3D 
# object name: m804
# number of vertices: 50
# number of triangles: 96
v 0.498066 0.410491 0.555635
vn 0.0106083 -0.998154 0.059793
v 0.363592 0.410491 0.566841
vn 0 -0.164397 0.986394
v 0.229119 0.410491 0.555635
vn -0.157706 -0.430107 0.888897
v 0.13947 0.468763 0.504087
vn -0.991998 0.0950128 0.083136
v 0.13947 0.486693 0.477192
vn -0.394401 0.908569 0.137663
v 0.13947 0.50014 0.342719
vn -0.409713 0.911244 0.0420564
v 0.587715 0.410491 0.522017
vn 0.870449 -0.490777 0.0381713
v 0.587715 0.410491 0.118596
vn 0.172272 -0.984415 -0.0353378
v 0.587715 0.441868 0.118596
vn 0.937468 0.0529272 -0.344024
v 0.13947 0.441868 0.522017
vn -0.432002 0.218738 0.874945
v 0.13947 0.410491 0.522017
vn -0.161297 -0.986741 0.0180579
v 0.229119 0.410491 0.084977
vn -0.0309016 -0.990531 -0.133764
v 0.13947 0.410491 0.118596
vn -0.183917 -0.98284 -0.0141125
v 0.13947 0.441868 0.118596
vn -0.928253 0.056558 -0.367624
v 0.363592 0.477728 0.566841
vn 0 0.116842 0.99315
v 0.229119 0.468763 0.555635
vn -0.204214 0.26673 0.941887
v 0.363592 0.504623 0.548911
vn 0 0.658504 0.752578
v 0.229119 0.495658 0.537705
vn -0.24753 0.694175 0.675907
v 0.363592 0.522552 0.522017
vn 0 0.967373 0.253356
v 0.229119 0.513587 0.510811
vn -0.168937 0.969285 0.178735
v 0.363592 0.536 0.387543
vn 0 0.997785 0.066522
v 0.229119 0.527035 0.376337
vn -0.169648 0.984304 0.0486375
v 0.363592 0.536 0.253069
vn 0 0.999378 -0.0352739
v 0.229119 0.527035 0.264276
vn -0.153071 0.9863 -0.0614866
v 0.363592 0.522552 0.118596
vn 0 0.988715 -0.149807
v 0.229119 0.513587 0.129802
vn -0.215938 0.956436 -0.196473
v 0.363592 0.504623 0.091701
vn 0 0.752587 -0.658493
v 0.229119 0.495658 0.102907
vn -0.245813 0.676215 -0.694485
v 0.363592 0.477728 0.073771
vn 0 0.284089 -0.958798
v 0.229119 0.468763 0.084977
vn -0.207901 0.177205 -0.961964
v 0.363592 0.410491 0.073771
vn 0 -0.967713 -0.252056
v 0.13947 0.50014 0.297894
vn -0.53207 0.843607 -0.0723097
v 0.13947 0.486693 0.16342
vn -0.758442 0.630476 -0.165121
v 0.13947 0.468763 0.136526
vn -0.923545 0.252527 -0.288607
v 0.587715 0.468763 0.136526
vn 0.942048 0.220912 -0.252475
v 0.498066 0.468763 0.084977
vn 0.2079 0.177205 -0.961965
v 0.587715 0.486693 0.16342
vn 0.866385 0.483084 -0.12652
v 0.498066 0.495658 0.102907
vn 0.245812 0.676215 -0.694485
v 0.587715 0.50014 0.297894
vn 0.709575 0.702056 -0.0601766
v 0.498066 0.513587 0.129802
vn 0.215937 0.956436 -0.196473
v 0.587715 0.50014 0.342719
vn 0.642966 0.76508 0.0353106
v 0.498066 0.527035 0.264276
vn 0.153071 0.986301 -0.0614866
v 0.587715 0.486693 0.477192
vn 0.604458 0.787647 0.119342
v 0.498066 0.527035 0.376337
vn 0.169648 0.984304 0.0486375
v 0.587715 0.468763 0.504087
vn 0.564777 0.62106 0.543426
v 0.498066 0.513587 0.510811
vn 0.168936 0.969286 0.178734
v 0.587715 0.441868 0.522017
vn 0.432001 0.218738 0.874945
v 0.498066 0.495658 0.537705
vn 0.247529 0.694175 0.675907
v 0.498066 0.410491 0.084977
vn 0.034355 -0.988283 -0.148713
v 0.498066 0.468763 0.555635
vn 0.204213 0.26673 0.941888
f 47//47 50//50 1//1
f 49//49 36//36 9//9
f 15//15 2//2 1//1
f 17//17 15//15 50//50
f 19//19 17//17 48//48
f 21//21 19//19 46//46
f 23//23 21//21 44//44
f 25//25 23//23 42//42
f 27//27 25//25 40//40
f 29//29 27//27 38//38
f 31//31 29//29 36//36
f 48//48 50//50 47//47
f 46//46 48//48 45//45
f 44//44 46//46 43//43
f 42//42 44//44 41//41
f 40//40 42//42 39//39
f 38//38 40//40 37//37
f 36//36 38//38 35//35
f 34//34 28//28 30//30
f 33//33 26//26 28//28
f 32//32 24//24 26//26
f 6//6 22//22 24//24
f 5//5 20//20 22//22
f 4//4 18//18 20//20
f 10//10 16//16 18//18
f 30//30 29//29 31//31
f 28//28 27//27 29//29
f 26//26 25//25 27//27
f 24//24 23//23 25//25
f 22//22 21//21 23//23
f 20//20 19//19 21//21
f 18//18 17//17 19//19
f 16//16 15//15 17//17
f 3//3 2//2 15//15
f 14//14 30//30 12//12
f 3//3 16//16 10//10
f 45//45 47//47 7//7
f 43//43 45//45 7//7
f 41//41 43//43 7//7
f 39//39 41//41 7//7
f 37//37 39//39 7//7
f 35//35 37//37 7//7
f 9//9 35//35 7//7
f 11//11 10//10 4//4
f 13//13 11//11 4//4
f 14//14 13//13 4//4
f 34//34 14//14 4//4
f 33//33 34//34 4//4
f 32//32 33//33 4//4
f 6//6 32//32 4//4
f 8//8 7//7 1//1
f 49//49 8//8 1//1
f 31//31 49//49 1//1
f 12//12 31//31 1//1
f 13//13 12//12 1//1
f 11//11 13//13 1//1
f 3//3 11//11 1//1
f 7//7 47//47 1//1
f 8//8 49//49 9//9
f 50//50 15//15 1//1
f 48//48 17//17 50//50
f 46//46 19//19 48//48
f 44//44 21//21 46//46
f 42//42 23//23 44//44
f 40//40 25//25 42//42
f 38//38 27//27 40//40
f 36//36 29//29 38//38
f 49//49 31//31 36//36
f 45//45 48//48 47//47
f 43//43 46//46 45//45
f 41//41 44//44 43//43
f 39//39 42//42 41//41
f 37//37 40//40 39//39
f 35//35 38//38 37//37
f 9//9 36//36 35//35
f 14//14 34//34 30//30
f 34//34 33//33 28//28
f 33//33 32//32 26//26
f 32//32 6//6 24//24
f 6//6 5//5 22//22
f 5//5 4//4 20//20
f 4//4 10//10 18//18
f 12//12 30//30 31//31
f 30//30 28//28 29//29
f 28//28 26//26 27//27
f 26//26 24//24 25//25
f 24//24 22//22 23//23
f 22//22 20//20 21//21
f 20//20 18//18 19//19
f 18//18 16//16 17//17
f 16//16 3//3 15//15
f 13//13 14//14 12//12
f 11//11 3//3 10//10
f 8//8 9//9 7//7
f 5//5 6//6 4//4
f 2//2 3//3 1//1
