# Created by Open3D 
# object name: m817
# number of vertices: 36
# number of triangles: 68
v 0.081603 0.965721 0.082531
vn -0.346942 -0.259575 -0.90125
v 0.080675 0.975 0.092739
vn 0 1 0
v 0.260509 0.894271 0.042631
vn -0.432301 -0.664785 -0.609243
v 0.380395 0.894271 0.060261
vn 0.296137 -0.0519082 -0.953734
v 0.493602 0.894271 0.130783
vn 0.0584348 -0.0941654 0.99384
v 0.027784 0.965721 0.130783
vn -0.0387741 0.0924859 0.994959
v 0.260509 0.965721 0.042631
vn -0.0287694 0.0919712 -0.995346
v 0.320915 0.894271 0.046342
vn 0.158494 -0.14773 -0.976246
v 0.439782 0.894271 0.081603
vn 0.425905 -0.00661709 -0.904744
v 0.439782 0.965721 0.082531
vn 0.388971 0.0621849 -0.919149
v 0.496386 0.965721 0.113153
vn 0.58885 0.0700355 -0.805202
v 0.380395 0.965721 0.060261
vn 0.270385 0.0632774 -0.96067
v 0.493602 0.965721 0.130783
vn 0.0341691 0.268376 0.962708
v 0.320915 0.965721 0.046342
vn 0.119684 0.040128 -0.992001
v 0.025 0.965721 0.113153
vn -0.652065 -0.0752255 -0.754422
v 0.496386 0.894271 0.113153
vn 0.733012 -0.0304571 -0.679533
v 0.027784 0.894271 0.130783
vn -0.167433 -0.535206 0.827962
v 0.469476 0.799622 0.116865
vn -0.225808 -0.938808 -0.260096
v 0.473188 0.799622 0.099234
vn 0.0838394 -0.807154 -0.584357
v 0.320915 0.975 0.057477
vn 0 1 0
v 0.320358 0.975 0.050982
vn 0.108661 0.66501 -0.738888
v 0.260509 0.975 0.048198
vn 0 0.840773 -0.541388
v 0.200471 0.975 0.050982
vn -0.561225 -0.799655 -0.213491
v 0.199914 0.975 0.057477
vn 0 1 0
v 0.260141 0.975 0.053766
vn 0 1 0
v 0.381323 0.975 0.071396
vn 0 1 0
v 0.380395 0.975 0.065829
vn 0.187548 0.795017 -0.576865
v 0.080675 0.975 0.087171
vn -0.336448 0.638919 -0.691799
v 0.027784 0.975 0.117792
vn -0.4073 0.837116 -0.365162
v 0.140991 0.975 0.065829
vn -0.151409 -0.495712 -0.855187
v 0.139135 0.975 0.071396
vn 0 1 0
v 0.439782 0.975 0.092739
vn 0 0.98955 0.144188
v 0.437926 0.975 0.086243
vn 0.330975 0.657538 -0.67683
v 0.492674 0.975 0.117792
vn 0.290829 0.862359 -0.414434
v 0.490818 0.975 0.12336
vn -0.077747 0.808643 0.583139
v 0.02964 0.975 0.12336
vn 0.00455259 0.987185 0.159515
f 3//3 19//19 23//23
f 19//19 18//18 23//23
f 18//18 30//30 23//23
f 18//18 17//17 30//30
f 17//17 1//1 30//30
f 18//18 5//5 17//17
f 5//5 13//13 17//17
f 13//13 6//6 17//17
f 13//13 36//36 6//6
f 13//13 32//32 36//36
f 17//17 15//15 1//1
f 3//3 8//8 19//19
f 32//32 26//26 36//36
f 26//26 20//20 36//36
f 20//20 25//25 36//36
f 25//25 24//24 36//36
f 24//24 31//31 36//36
f 31//31 2//2 36//36
f 8//8 4//4 19//19
f 4//4 9//9 19//19
f 9//9 16//16 19//19
f 23//23 7//7 3//3
f 33//33 34//34 11//11
f 15//15 29//29 28//28
f 7//7 22//22 21//21
f 21//21 27//27 12//12
f 27//27 33//33 10//10
f 6//6 36//36 29//29
f 1//1 28//28 30//30
f 35//35 13//13 11//11
f 32//32 35//35 34//34
f 27//27 26//26 32//32
f 30//30 28//28 2//2
f 30//30 31//31 24//24
f 29//29 36//36 2//2
f 27//27 21//21 20//20
f 25//25 22//22 23//23
f 22//22 25//25 20//20
f 19//19 16//16 5//5
f 13//13 5//5 16//16
f 14//14 8//8 3//3
f 12//12 4//4 8//8
f 10//10 9//9 4//4
f 11//11 16//16 9//9
f 10//10 33//33 11//11
f 1//1 15//15 28//28
f 35//35 32//32 13//13
f 22//22 7//7 23//23
f 14//14 7//7 21//21
f 14//14 21//21 12//12
f 12//12 27//27 10//10
f 15//15 6//6 29//29
f 34//34 35//35 11//11
f 33//33 32//32 34//34
f 33//33 27//27 32//32
f 31//31 30//30 2//2
f 23//23 30//30 24//24
f 28//28 29//29 2//2
f 26//26 27//27 20//20
f 24//24 25//25 23//23
f 21//21 22//22 20//20
f 18//18 19//19 5//5
f 6//6 15//15 17//17
f 11//11 13//13 16//16
f 7//7 14//14 3//3
f 14//14 12//12 8//8
f 12//12 10//10 4//4
f 10//10 11//11 9//9
