# Blender 4.2.3 LTS
# www.blender.org
o D00426
v 0.773061 -0.040523 -0.113511
v 0.773041 0.036959 -0.089956
v 0.773235 -0.111966 -0.075380
v 0.773607 -0.097390 0.073547
v 0.773461 -0.135523 0.002103
v 0.773588 -0.019910 0.097103
v 0.773188 0.075090 -0.018511
v 0.773414 0.051536 0.058972
v 0.700121 0.136980 -0.024275
v 0.400869 0.136666 -0.023513
v 0.700240 0.045372 -0.015309
v 0.400869 0.136666 -0.023516
v 0.160529 0.044806 -0.013936
v -1.007870 -0.074656 -0.016516
v -1.009120 -0.045883 0.041847
v -1.022240 -0.008100 -0.005882
v -0.964520 -0.040265 -0.087805
v -0.947515 0.038793 0.054456
v -0.947711 0.059195 -0.012655
v -0.905018 -0.021686 0.101230
v -0.947347 -0.090196 0.067080
v -0.947474 -0.123224 0.005198
v -0.947670 -0.102820 -0.061910
v -0.947837 0.026168 -0.074534
v -0.874620 0.073381 -0.014226
v -0.874394 0.049825 0.063266
v -0.874201 -0.099120 0.077844
v -0.874347 -0.137257 0.006389
v -0.874573 -0.113698 -0.071101
v -0.874747 -0.042246 -0.109235
v -0.874767 0.035247 -0.085679
v 0.401302 -0.196216 0.009066
v 0.700434 -0.104294 -0.000661
v 0.700553 -0.195902 0.008305
v 0.401302 -0.196216 0.009064
v 0.160724 -0.104861 0.000712
vn 1.0000 0.0010 -0.0026
vn 1.0000 0.0011 -0.0026
vn 0.0024 0.0974 0.9952
vn -0.0024 -0.0974 -0.9952
vn -0.9705 -0.2239 0.0896
vn -0.8306 -0.0916 -0.5493
vn -0.6417 0.7333 0.2248
vn -0.5233 0.2599 0.8115
vn -0.7149 0.4391 0.5441
vn -0.4636 -0.1489 0.8734
vn -0.6365 -0.6799 0.3642
vn -0.6609 -0.6786 0.3204
vn -0.5542 -0.7968 -0.2406
vn -0.6631 -0.4317 -0.6115
vn -0.7179 0.3053 -0.6257
vn -0.6431 0.6761 -0.3595
vn -0.1766 0.9416 0.2867
vn -0.1766 0.9416 0.2868
vn -0.1791 0.5201 0.8351
vn -0.1780 -0.3487 0.9202
vn -0.1742 -0.8686 0.4639
vn -0.1761 -0.9419 -0.2859
vn -0.1781 -0.4636 -0.8679
vn -0.2192 -0.4230 -0.8792
vn -0.1791 0.2861 -0.9413
vn -0.2201 0.2439 -0.9445
vn -0.1785 0.8682 -0.4630
vn -0.0002 0.9568 0.2908
vn 0.0018 0.4683 0.8836
vn 0.0017 0.4708 0.8822
vn 0.0028 -0.2881 0.9576
vn 0.0027 -0.2909 0.9568
vn 0.0022 -0.8822 0.4708
vn 0.0022 -0.8822 0.4709
vn 0.0003 -0.9568 -0.2909
vn -0.0018 -0.4708 -0.8822
vn -0.0018 -0.4709 -0.8822
vn -0.0028 0.2908 -0.9568
vn -0.0028 0.2909 -0.9568
vn -0.0021 0.8822 -0.4708
s 0
f 1//1 2//1 3//1
f 4//1 5//1 6//1
f 5//1 3//1 6//1
f 3//1 2//1 6//1
f 2//1 7//1 6//1
f 7//2 8//2 6//2
f 9//3 10//3 11//3
f 10//3 13//3 11//3
f 9//4 11//4 12//4
f 11//4 13//4 12//4
f 14//5 15//5 16//5
f 14//6 16//6 17//6
f 18//7 19//7 16//7
f 20//8 18//8 15//8
f 18//9 16//9 15//9
f 20//10 15//10 21//10
f 21//11 15//11 22//11
f 15//12 14//12 22//12
f 22//13 14//13 23//13
f 23//14 14//14 17//14
f 17//15 16//15 24//15
f 19//16 24//16 16//16
f 25//17 19//17 26//17
f 19//18 18//18 26//18
f 26//19 18//19 20//19
f 27//20 20//20 21//20
f 28//21 27//21 22//21
f 27//21 21//21 22//21
f 28//22 22//22 29//22
f 22//22 23//22 29//22
f 29//23 23//23 30//23
f 23//24 17//24 30//24
f 31//25 30//25 24//25
f 30//26 17//26 24//26
f 25//27 31//27 19//27
f 31//27 24//27 19//27
f 25//28 26//28 7//28
f 26//28 8//28 7//28
f 26//29 20//29 8//29
f 20//30 6//30 8//30
f 27//31 4//31 20//31
f 4//32 6//32 20//32
f 28//33 5//33 27//33
f 5//34 4//34 27//34
f 29//35 3//35 28//35
f 3//35 5//35 28//35
f 30//36 1//36 29//36
f 1//37 3//37 29//37
f 30//38 31//38 1//38
f 31//39 2//39 1//39
f 31//40 25//40 2//40
f 25//40 7//40 2//40
f 32//3 34//3 33//3
f 36//3 32//3 33//3
f 33//4 34//4 35//4
f 36//4 33//4 35//4
