# Created by Open3D 
# object name: m1441
# number of vertices: 168
# number of triangles: 332
v 0.261835 0.103854 0.043998
vn -0.240429 -0.0717312 -0.968013
v 0.57447 0.104173 0.227197
vn -0.435233 0.35038 0.829341
v 0.582081 0.070741 0.19224
vn 0.079145 -0.989449 -0.121351
v 0.428892 0.087964 0.144614
vn -0.497421 -0.13079 0.857593
v 0.303987 0.123896 0.042733
vn -0.187423 0.95584 0.226367
v 0.658519 0.111283 0.035214
vn 0.0398063 -0.238616 -0.970298
v 0.732396 0.120343 0.044502
vn 0.199486 -0.409218 -0.890363
v 0.658519 0.128468 0.035214
vn -0.0845955 0.986547 -0.139889
v 0.626213 0.067626 0.047678
vn -0.0116375 -0.649059 -0.760649
v 0.609667 0.078788 0.165735
vn 0.216903 -0.968308 -0.123824
v 0.56674 0.072749 0.085355
vn 0.0539061 -0.993086 0.104281
v 0.566928 0.075017 0.139827
vn 0.0473551 -0.9978 -0.0463903
v 0.543913 0.072283 0.084928
vn -0.0203259 -0.993251 0.114192
v 0.643191 0.087614 0.129429
vn 0.0356399 -0.997964 -0.052885
v 0.637253 0.085927 0.1491
vn 0.180693 -0.983316 0.0209769
v 0.648749 0.088393 0.170799
vn 0.0871754 -0.971511 -0.220378
v 0.469243 0.089018 0.136739
vn -0.064928 -0.993916 -0.0889689
v 0.642429 0.083331 0.183252
vn 0.121635 -0.957859 -0.260212
v 0.510527 0.079261 0.123542
vn -0.155762 -0.981107 0.114748
v 0.53298 0.075581 0.115901
vn -0.0926052 -0.993477 0.0665427
v 0.578236 0.075864 0.116924
vn 0.113766 -0.993155 0.0264801
v 0.544499 0.0752 0.139232
vn -0.101164 -0.994637 -0.0215029
v 0.60104 0.079827 0.125588
vn 0.220462 -0.975298 0.0138296
v 0.582081 0.070611 0.064493
vn 0.0651836 -0.982583 0.174018
v 0.610248 0.075024 0.186488
vn 0.177438 -0.955802 -0.23443
v 0.621744 0.076192 0.072402
vn 0.115107 -0.960069 0.254984
v 0.624032 0.085927 0.136282
vn 0.197051 -0.979427 -0.0435171
v 0.589544 0.076582 0.098032
vn 0.154685 -0.979446 0.129451
v 0.443016 0.085628 0.125777
vn 0.0369629 -0.982676 0.181608
v 0.629208 0.084369 0.168267
vn 0.224077 -0.964404 -0.140407
v 0.55562 0.074039 0.110287
vn 0.00597115 -0.998842 0.0477438
v 0.647023 0.089431 0.109256
vn 0.118271 -0.991947 0.0453218
v 0.521061 0.075184 0.096749
vn -0.0874075 -0.98581 0.143315
v 0.488262 0.085078 0.133213
vn -0.169782 -0.984763 0.0376353
v 0.462806 0.084666 0.119866
vn -0.0028714 -0.974037 0.226371
v 0.640703 0.084369 0.090321
vn 0.0287487 -0.93661 0.349193
v 0.63956 0.080476 0.199856
vn 0.664272 -0.723024 0.189681
v 0.663644 0.07113 0.123309
vn -0.344222 -0.938019 0.040379
v 0.658519 0.087484 0.142751
vn -0.542272 -0.818487 0.189791
v 0.676978 0.068819 0.140976
vn -0.141585 -0.989018 -0.0423801
v 0.695957 0.0677 0.121982
vn -0.0192965 -0.999792 0.0066428
v 0.658519 0.090989 0.122406
vn -0.454228 -0.871688 -0.183949
v 0.589544 0.076971 0.142451
vn 0.172377 -0.98214 -0.0754094
v 0.690311 0.067676 0.085914
vn -0.0625717 -0.998029 0.00472279
v 0.658519 0.075803 0.142751
vn -0.782655 -0.618411 -0.0708461
v 0.709812 0.06775 0.070594
vn 0.00419307 -0.999991 0.000125053
v 0.704166 0.067725 0.193237
vn 0.00194934 -0.999998 0.000248744
v 0.682103 0.067651 0.177772
vn -0.0609606 -0.998131 0.00436947
v 0.658519 0.075803 0.199873
vn -0.443973 -0.890643 -0.0981989
v 0.668769 0.067626 0.197785
vn -0.221658 -0.974256 0.041139
v 0.624032 0.085148 0.1039
vn 0.19055 -0.975183 0.112736
v 0.663644 0.075803 0.084426
vn -0.37117 -0.907279 0.197682
v 0.661082 0.072299 0.179984
vn -0.661984 -0.749375 -0.0146438
v 0.671332 0.067626 0.066927
vn -0.142808 -0.964573 0.221821
v 0.63956 0.075803 0.065603
vn -0.134367 -0.912969 0.38527
v 0.658519 0.085148 0.181635
vn -0.575473 -0.791053 -0.207524
v 0.658519 0.080475 0.123309
vn -0.915843 -0.399785 -0.0374525
v 0.485869 0.080406 0.101836
vn -0.0212042 -0.975083 0.220824
v 0.658519 0.095662 0.162494
vn -0.178886 -0.983399 -0.0304412
v 0.658519 0.092157 0.10146
vn -0.464965 -0.846848 0.258177
v 0.658519 0.085148 0.103265
vn -0.907913 -0.418508 -0.023337
v 0.658519 0.081644 0.162493
vn -0.965001 -0.260144 -0.0331449
v 0.658519 0.074635 0.104168
vn -0.814444 -0.570502 -0.105868
v 0.658519 0.07113 0.161591
vn -0.857362 -0.493564 0.146029
v 0.666207 0.067626 0.160251
vn -0.237261 -0.971184 -0.0225621
v 0.673894 0.067626 0.104169
vn -0.194967 -0.979419 -0.0522097
v 0.69852 0.0677 0.157169
vn -0.00539061 -0.999966 -0.00625357
v 0.715458 0.067775 0.104608
vn 0.00215479 -0.999997 -0.00106989
v 0.739883 0.067809 0.155187
vn -0.000276121 -1 -0.000148349
v 0.74737 0.067769 0.10769
vn -0.00106755 -0.999999 -0.00012379
v 0.778157 0.067695 0.116992
vn -0.00196669 -0.999998 0.000243428
v 0.801456 0.06766 0.155187
vn -0.000105151 -1 -8.22044e-05
v 0.875189 0.067713 0.132428
vn -0.00212807 -0.999998 0
v 0.626213 0.128094 0.235007
vn -0.071033 0.993276 0.0914125
v 0.658519 0.130071 0.235498
vn -0.0732448 0.997306 0.00398428
v 0.522848 0.123896 0.036576
vn -0.0263072 -0.115914 -0.992911
v 0.626213 0.128094 0.029852
vn -0.0389321 0.999189 -0.0103075
v 0.601641 0.126925 0.030222
vn -0.0135905 0.999753 -0.0175657
v 0.824756 0.144829 0.214404
vn -0.204783 0.972225 0.113326
v 0.825322 0.144843 0.050555
vn -0.243608 0.968505 0.0515076
v 0.854827 0.144959 0.206228
vn 0.0438364 0.991087 0.125794
v 0.854827 0.144959 0.058629
vn 0.0597636 0.978755 -0.196132
v 0.915914 0.144959 0.180154
vn 0.0964608 0.980321 0.172238
v 0.915914 0.144959 0.084703
vn 0.184041 0.926359 -0.328616
v 0.975 0.144959 0.132429
vn 0.708861 0.705348 0
v 0.824756 0.0882 0.184632
vn 0.298088 -0.289696 0.909516
v 0.754857 0.086555 0.204341
vn 0.251896 -0.253705 0.933907
v 0.754857 0.067729 0.200701
vn 0.103258 -0.929988 0.35279
v 0.824756 0.067626 0.178743
vn 0.199446 -0.810819 0.550267
v 0.824756 0.108063 0.192429
vn 0.243806 -0.363388 0.89917
v 0.754857 0.104935 0.209528
vn 0.22248 -0.351408 0.909404
v 0.824756 0.127006 0.202556
vn 0.226061 -0.482037 0.846485
v 0.754857 0.12268 0.216711
vn -0.365521 0.923311 0.117863
v 0.732396 0.085806 0.209319
vn 0.201196 -0.205881 0.957671
v 0.732396 0.067849 0.206648
vn 0.163907 -0.60455 0.779521
v 0.732396 0.103372 0.213906
vn 0.22126 -0.319485 0.921398
v 0.57447 0.067626 0.217131
vn -0.261144 -0.908907 0.325102
v 0.601641 0.105735 0.227469
vn -0.016213 -0.216664 0.976112
v 0.601641 0.067626 0.217157
vn 0.0234656 -0.77001 0.637601
v 0.626213 0.126491 0.229318
vn 0.0566612 -0.385214 0.921086
v 0.626213 0.109128 0.229318
vn -0.0167203 -0.174158 0.984576
v 0.626213 0.067626 0.217179
vn 0.224235 -0.702352 0.675589
v 0.658519 0.128468 0.229644
vn 0.000812723 -0.161138 0.986932
v 0.658519 0.111283 0.229644
vn 0.0218176 -0.223664 0.974422
v 0.930686 0.086959 0.132429
vn 0.794597 -0.607137 0
v 0.915914 0.088787 0.141144
vn 0.442418 -0.358072 0.822223
v 0.915914 0.067626 0.132429
vn 0.395935 -0.918279 0
v 0.945458 0.106292 0.132429
vn 0.776584 -0.630014 0
v 0.915914 0.108884 0.152092
vn 0.432731 -0.446076 0.783429
v 0.96023 0.125626 0.132429
vn 0.763938 -0.645289 0
v 0.915914 0.127681 0.165146
vn 0.43349 -0.523653 0.733399
v 0.854827 0.088701 0.17252
vn 0.40248 -0.344774 0.848022
v 0.854827 0.067756 0.165914
vn 0.178503 -0.920157 0.348493
v 0.854827 0.10873 0.181528
vn 0.364323 -0.446226 0.817405
v 0.854827 0.127569 0.192816
vn 0.320514 -0.545157 0.774645
v 0.824756 0.108063 0.192598
vn 0.306094 -0.430332 0.849188
v 0.681582 0.067626 0.215895
vn -0.0225762 -0.918623 0.39449
v 0.681582 0.07906 0.218152
vn 0.171608 -0.208098 0.962936
v 0.658519 0.078139 0.219916
vn -0.283805 0.945894 0.157286
v 0.681582 0.111925 0.228271
vn 0.680479 -0.70361 0.204649
v 0.681582 0.113528 0.229875
vn 0.0270152 -0.0452187 0.998612
v 0.681582 0.130185 0.229876
vn 0.644888 0.676212 0.356169
v 0.522848 0.102248 0.03818
vn -0.0233224 -0.32521 -0.945354
v 0.522848 0.067626 0.048531
vn -0.0229899 -0.944318 -0.328231
v 0.506911 0.067626 0.048975
vn -0.0261444 -0.824406 -0.565395
v 0.681582 0.111924 0.036584
vn 0.111676 -0.210002 -0.971302
v 0.681582 0.07906 0.046706
vn 0.183366 -0.204535 -0.961531
v 0.732396 0.085806 0.055536
vn 0.199708 -0.216203 -0.955705
v 0.732396 0.067849 0.058211
vn 0.0938278 -0.889695 -0.44681
v 0.681582 0.067626 0.048964
vn 0.0434666 -0.784389 -0.618744
v 0.732396 0.103372 0.050949
vn 0.195732 -0.308231 -0.930958
v 0.681582 0.101312 0.041011
vn 0.182117 -0.293557 -0.938434
v 0.824756 0.067626 0.086116
vn 0.104691 -0.951687 -0.288672
v 0.824756 0.0882 0.080227
vn 0.298085 -0.289763 -0.909496
v 0.854827 0.088701 0.092337
vn 0.402475 -0.344771 -0.848025
v 0.854827 0.067756 0.098941
vn 0.157313 -0.938939 -0.306015
v 0.824756 0.108063 0.07226
vn 0.30611 -0.430342 -0.849178
v 0.854827 0.10873 0.083328
vn 0.364315 -0.446238 -0.817402
v 0.824756 0.127006 0.062301
vn 0.218955 -0.464543 -0.858055
v 0.854827 0.127569 0.072041
vn 0.32051 -0.545151 -0.77465
v 0.915914 0.088787 0.123715
vn 0.442435 -0.358052 -0.822223
v 0.915914 0.108884 0.112766
vn 0.432739 -0.446101 -0.78341
v 0.915914 0.127681 0.099711
vn 0.433497 -0.523656 -0.733393
v 0.303987 0.103854 0.042733
vn -0.028209 -0.0738664 -0.996869
v 0.303987 0.10225 0.044337
vn -0.0249361 -0.301901 -0.953013
v 0.522848 0.103852 0.036576
vn -0.0234511 -0.0742903 -0.996961
v 0.626213 0.109128 0.035537
vn -0.00908831 -0.164213 -0.986383
v 0.626213 0.126491 0.035537
vn 0.0062531 -0.28712 -0.957874
v 0.601641 0.105735 0.037389
vn -0.00821089 -0.285197 -0.958434
v 0.601641 0.067626 0.047702
vn 0.0204265 -0.739861 -0.67245
v 0.601641 0.107338 0.035786
vn -0.00499072 -0.080752 -0.996722
v 0.601641 0.125321 0.035786
vn 0.00219381 -0.277642 -0.960682
v 0.57447 0.104173 0.037662
vn 0.00406813 -0.297093 -0.95484
v 0.57447 0.067626 0.047726
vn -6.23364e-05 -0.538496 -0.842628
v 0.57447 0.105777 0.036059
vn -0.00709564 -0.0570447 -0.998346
v 0.57447 0.124364 0.036057
vn -0.00467106 -0.27503 -0.961424
v 0.555057 0.10334 0.037856
vn 0.00117009 -0.298428 -0.954431
v 0.555057 0.067626 0.047746
vn 0.00353882 -0.846541 -0.532312
v 0.555057 0.104943 0.036253
vn -0.00593465 -0.103685 -0.994592
v 0.555057 0.123896 0.036253
vn -0.0100331 -4.07618e-05 -0.99995
v 0.754857 0.086555 0.060516
vn 0.251913 -0.253811 -0.933873
v 0.754857 0.067729 0.064158
vn 0.129141 -0.887195 -0.442953
v 0.754857 0.104935 0.055328
vn 0.222489 -0.3514 -0.909405
v 0.754857 0.12268 0.048145
vn 0.201151 -0.409483 -0.889866
v 0.754857 0.139609 0.039041
vn 0.216645 0.974541 0.0577434
v 0.824756 0.108063 0.072426
vn 0.243828 -0.363427 -0.899149
v 0.303987 0.067626 0.054622
vn 0.00359535 -0.994414 -0.10549
v 0.261835 0.067626 0.055887
vn -0.560594 0.158901 0.812702
f 168//168 5//5 1//1
f 1//1 145//145 168//168
f 1//1 144//144 145//145
f 168//168 4//4 5//5
f 4//4 2//2 5//5
f 2//2 74//74 5//5
f 74//74 78//78 5//5
f 78//78 76//76 5//5
f 78//78 156//156 76//76
f 168//168 167//167 4//4
f 4//4 97//97 2//2
f 2//2 100//100 74//74
f 156//156 160//160 76//76
f 4//4 17//17 97//97
f 2//2 98//98 100//100
f 17//17 34//34 97//97
f 34//34 22//22 97//97
f 34//34 19//19 22//22
f 5//5 144//144 1//1
f 22//22 3//3 97//97
f 22//22 12//12 3//3
f 98//98 101//101 100//100
f 4//4 29//29 17//17
f 19//19 20//20 22//22
f 12//12 43//43 3//3
f 167//167 29//29 4//4
f 167//167 35//35 29//29
f 167//167 58//58 35//35
f 167//167 125//125 58//58
f 120//120 122//122 121//121
f 120//120 165//165 122//122
f 120//120 37//37 165//165
f 37//37 119//119 165//165
f 119//119 80//80 165//165
f 165//165 75//75 122//122
f 165//165 8//8 75//75
f 8//8 77//77 75//75
f 119//119 93//93 80//80
f 93//93 79//79 80//80
f 119//119 118//118 93//93
f 118//118 96//96 93//93
f 80//80 82//82 165//165
f 75//75 103//103 122//122
f 8//8 148//148 77//77
f 37//37 49//49 119//119
f 49//49 50//50 119//119
f 50//50 117//117 119//119
f 165//165 126//126 8//8
f 126//126 6//6 8//8
f 126//126 132//132 6//6
f 132//132 127//127 6//6
f 127//127 130//130 6//6
f 130//130 9//9 6//6
f 130//130 54//54 9//9
f 54//54 55//55 9//9
f 120//120 102//102 37//37
f 120//120 104//104 102//102
f 165//165 7//7 126//126
f 104//104 101//101 102//102
f 101//101 98//98 102//102
f 9//9 147//147 6//6
f 9//9 149//149 147//147
f 149//149 151//151 147//147
f 118//118 94//94 96//96
f 132//132 128//128 127//127
f 132//132 131//131 128//128
f 82//82 139//139 165//165
f 139//139 164//164 165//165
f 27//27 14//14 15//15
f 30//30 10//10 27//27
f 51//51 23//23 28//28
f 11//11 13//13 158//158
f 20//20 31//31 22//22
f 34//34 17//17 35//35
f 33//33 19//19 58//58
f 31//31 21//21 12//12
f 18//18 16//16 56//56
f 36//36 32//32 51//51
f 30//30 15//15 16//16
f 16//16 62//62 56//56
f 16//16 15//15 59//59
f 16//16 59//59 62//62
f 51//51 14//14 27//27
f 13//13 31//31 20//20
f 11//11 31//31 13//13
f 27//27 43//43 23//23
f 51//51 26//26 36//36
f 31//31 12//12 22//22
f 43//43 10//10 3//3
f 43//43 27//27 10//10
f 11//11 28//28 21//21
f 36//36 26//26 55//55
f 9//9 55//55 26//26
f 37//37 18//18 49//49
f 158//158 13//13 124//124
f 88//88 95//95 47//47
f 48//48 50//50 53//53
f 55//55 52//52 36//36
f 31//31 11//11 21//21
f 21//21 23//23 43//43
f 99//99 25//25 102//102
f 21//21 28//28 23//23
f 25//25 3//3 10//10
f 33//33 58//58 125//125
f 60//60 63//63 61//61
f 68//68 46//46 129//129
f 35//35 17//17 29//29
f 25//25 10//10 30//30
f 43//43 12//12 21//21
f 58//58 19//19 34//34
f 24//24 26//26 28//28
f 49//49 53//53 50//50
f 25//25 18//18 37//37
f 18//18 30//30 16//16
f 32//32 60//60 61//61
f 65//65 48//48 53//53
f 63//63 60//60 52//52
f 64//64 45//45 65//65
f 70//70 69//69 41//41
f 57//57 63//63 38//38
f 133//133 72//72 71//71
f 150//150 26//26 24//24
f 35//35 58//58 34//34
f 46//46 130//130 129//129
f 70//70 162//162 71//71
f 45//45 62//62 39//39
f 44//44 46//46 68//68
f 95//95 117//117 47//47
f 47//47 117//117 50//50
f 15//15 30//30 27//27
f 57//57 39//39 14//14
f 102//102 25//25 37//37
f 42//42 32//32 61//61
f 62//62 64//64 65//65
f 42//42 61//61 57//57
f 52//52 60//60 36//36
f 44//44 41//41 66//66
f 55//55 54//54 52//52
f 49//49 56//56 53//53
f 25//25 30//30 18//18
f 71//71 69//69 70//70
f 68//68 129//129 70//70
f 24//24 154//154 150//150
f 14//14 32//32 42//42
f 24//24 28//28 11//11
f 41//41 67//67 40//40
f 36//36 60//60 32//32
f 59//59 39//39 62//62
f 124//124 13//13 33//33
f 45//45 57//57 38//38
f 125//125 124//124 33//33
f 45//45 39//39 57//57
f 56//56 49//49 18//18
f 44//44 54//54 130//130
f 61//61 63//63 57//57
f 14//14 51//51 32//32
f 28//28 26//26 51//51
f 99//99 97//97 3//3
f 65//65 45//45 40//40
f 41//41 69//69 67//67
f 48//48 67//67 47//47
f 48//48 65//65 67//67
f 89//89 88//88 72//72
f 67//67 69//69 47//47
f 38//38 63//63 66//66
f 52//52 66//66 63//63
f 62//62 65//65 53//53
f 41//41 40//40 38//38
f 133//133 71//71 162//162
f 45//45 38//38 40//40
f 41//41 44//44 68//68
f 69//69 88//88 47//47
f 70//70 129//129 162//162
f 68//68 70//70 41//41
f 44//44 66//66 52//52
f 72//72 88//88 69//69
f 136//136 72//72 133//133
f 113//113 72//72 136//136
f 107//107 113//113 73//73
f 20//20 19//19 33//33
f 150//150 9//9 26//26
f 51//51 27//27 23//23
f 24//24 158//158 154//154
f 62//62 53//53 56//56
f 20//20 33//33 13//13
f 11//11 158//158 24//24
f 39//39 15//15 14//14
f 14//14 42//42 57//57
f 39//39 59//59 15//15
f 44//44 130//130 46//46
f 40//40 67//67 65//65
f 64//64 62//62 45//45
f 66//66 41//41 38//38
f 89//89 72//72 113//113
f 69//69 71//71 72//72
f 50//50 48//48 47//47
f 54//54 44//44 52//52
f 25//25 99//99 3//3
f 136//136 73//73 113//113
f 136//136 107//107 73//73
f 92//92 90//90 116//116
f 90//90 86//86 116//116
f 137//137 166//166 139//139
f 137//137 134//134 166//166
f 167//167 145//145 125//125
f 123//123 125//125 145//145
f 167//167 168//168 145//145
f 166//166 163//163 139//139
f 164//164 139//139 163//163
f 134//134 161//161 166//166
f 163//163 166//166 161//161
f 133//133 162//162 134//134
f 161//161 134//134 162//162
f 164//164 7//7 165//165
f 163//163 131//131 164//164
f 7//7 164//164 131//131
f 161//161 128//128 163//163
f 131//131 163//163 128//128
f 162//162 129//129 161//161
f 128//128 161//161 129//129
f 159//159 146//146 160//160
f 76//76 160//160 146//146
f 123//123 146//146 157//157
f 159//159 157//157 146//146
f 124//124 123//123 158//158
f 157//157 158//158 123//123
f 159//159 160//160 155//155
f 156//156 155//155 160//160
f 157//157 159//159 153//153
f 155//155 153//153 159//159
f 158//158 157//157 154//154
f 153//153 154//154 157//157
f 152//152 156//156 78//78
f 155//155 156//156 151//151
f 152//152 151//151 156//156
f 149//149 153//153 151//151
f 155//155 151//151 153//153
f 154//154 153//153 150//150
f 149//149 150//150 153//153
f 78//78 77//77 152//152
f 148//148 152//152 77//77
f 151//151 152//152 147//147
f 148//148 147//147 152//152
f 150//150 149//149 9//9
f 6//6 147//147 8//8
f 148//148 8//8 147//147
f 146//146 144//144 76//76
f 5//5 76//76 144//144
f 145//145 144//144 123//123
f 146//146 123//123 144//144
f 110//110 143//143 85//85
f 84//84 85//85 143//143
f 108//108 142//142 110//110
f 143//143 110//110 142//142
f 105//105 141//141 108//108
f 142//142 108//108 141//141
f 141//141 105//105 107//107
f 143//143 140//140 84//84
f 82//82 84//84 140//140
f 142//142 138//138 143//143
f 140//140 143//143 138//138
f 141//141 135//135 142//142
f 138//138 142//142 135//135
f 107//107 136//136 141//141
f 135//135 141//141 136//136
f 140//140 139//139 82//82
f 138//138 137//137 140//140
f 139//139 140//140 137//137
f 135//135 134//134 138//138
f 137//137 138//138 134//134
f 136//136 133//133 135//135
f 134//134 135//135 133//133
f 132//132 126//126 7//7
f 7//7 131//131 132//132
f 130//130 127//127 129//129
f 128//128 129//129 127//127
f 124//124 125//125 123//123
f 121//121 104//104 120//120
f 104//104 121//121 103//103
f 122//122 103//103 121//121
f 117//117 95//95 118//118
f 94//94 118//118 95//95
f 118//118 119//119 117//117
f 115//115 81//81 92//92
f 79//79 92//92 81//81
f 114//114 115//115 116//116
f 92//92 116//116 115//115
f 112//112 114//114 86//86
f 116//116 86//86 114//114
f 113//113 112//112 89//89
f 86//86 89//89 112//112
f 111//111 83//83 115//115
f 81//81 115//115 83//83
f 109//109 111//111 114//114
f 115//115 114//114 111//111
f 106//106 109//109 112//112
f 114//114 112//112 109//109
f 107//107 106//106 113//113
f 112//112 113//113 106//106
f 110//110 85//85 111//111
f 83//83 111//111 85//85
f 108//108 110//110 109//109
f 111//111 109//109 110//110
f 105//105 108//108 106//106
f 109//109 106//106 108//108
f 106//106 107//107 105//105
f 104//104 103//103 101//101
f 100//100 101//101 103//103
f 74//74 100//100 75//75
f 103//103 75//75 100//100
f 99//99 102//102 98//98
f 97//97 99//99 2//2
f 98//98 2//2 99//99
f 91//91 93//93 96//96
f 87//87 91//91 94//94
f 96//96 94//94 91//91
f 88//88 87//87 95//95
f 94//94 95//95 87//87
f 92//92 79//79 93//93
f 90//90 92//92 91//91
f 93//93 91//91 92//92
f 86//86 90//90 87//87
f 91//91 87//87 90//90
f 89//89 86//86 88//88
f 87//87 88//88 86//86
f 85//85 84//84 83//83
f 81//81 83//83 82//82
f 84//84 82//82 83//83
f 79//79 81//81 80//80
f 82//82 80//80 81//81
f 77//77 78//78 74//74
f 74//74 75//75 77//77
