# Blender 4.2.3 LTS
# www.blender.org
o m86
v 0.164792 0.541064 0.786864
v 0.147900 0.504368 0.786281
v 0.057036 0.564362 0.787446
v 0.164792 0.409427 0.694834
v 0.065190 0.504368 0.786281
v 0.106545 0.339531 0.718133
v 0.164792 0.397777 0.537569
v 0.141493 0.397777 0.292934
v 0.141493 0.292934 0.292934
v 0.141493 0.304583 0.479322
v 0.164792 0.281284 0.456024
v 0.164792 0.223038 0.327882
v 0.164792 0.164792 0.304583
v 0.164792 0.048299 0.397777
v 0.156055 0.278372 0.620279
v 0.188090 0.025000 0.677361
v 0.164792 0.234687 0.654062
v 0.164792 0.275460 0.623191
v 0.131591 0.329047 0.683185
v 0.141493 0.234687 0.654062
v 0.129844 0.025000 0.677361
v 0.147318 0.025000 0.630763
v 0.106545 0.327882 0.304583
v 0.141493 0.223038 0.327882
v 0.147318 0.025000 0.351180
v 0.147318 0.205564 0.409427
v 0.141493 0.048299 0.397777
v 0.065772 0.292934 0.292934
v 0.065772 0.025000 0.351180
v 0.071597 0.048299 0.397777
v 0.065772 0.036649 0.374479
v 0.065772 0.153142 0.351180
v 0.071597 0.304583 0.479322
v 0.025000 0.025000 0.409427
v 0.048299 0.048299 0.397777
v 0.048299 0.036649 0.374479
v 0.048299 0.153142 0.351180
v 0.048299 0.211389 0.409427
v 0.048299 0.281284 0.456024
v 0.048299 0.025000 0.351180
v 0.071597 0.397777 0.292934
v 0.071597 0.234687 0.654062
v 0.083247 0.025000 0.677361
v 0.048299 0.409427 0.694834
v 0.048299 0.048299 0.665711
v 0.048299 0.362830 0.374479
v 0.106545 0.432725 0.537569
v 0.118194 0.403602 0.322057
v 0.094896 0.403602 0.322057
v 0.094896 0.397777 0.193915
v 0.118194 0.421076 0.100720
v 0.106545 0.473498 0.025000
v 0.048299 0.541064 0.786864
v 0.106545 0.592903 0.782204
v 0.147900 0.577759 0.787446
v 0.106545 0.488642 0.785699
v 0.106545 0.476410 0.975000
v 0.125766 0.585914 0.791524
v 0.156055 0.564362 0.787446
v 0.164792 0.592903 0.820064
v 0.172364 0.619114 0.806085
v 0.147318 0.626686 0.809580
v 0.048299 0.592903 0.820064
v 0.065772 0.627269 0.809580
v 0.040726 0.619114 0.806085
v 0.087324 0.585914 0.791524
v 0.139746 0.447869 0.676778
v 0.073345 0.447869 0.676778
v 0.106545 0.471168 0.664546
v 0.065190 0.577759 0.787446
v 0.164792 0.362830 0.374479
v 0.106545 0.432725 0.351180
v 0.164792 0.211389 0.409427
v 0.164792 0.025000 0.351180
v 0.188090 0.025000 0.409427
v 0.164792 0.036649 0.374479
v 0.164792 0.153142 0.351180
v 0.106545 0.246337 0.630763
v 0.164792 0.246337 0.607465
v 0.164792 0.025000 0.630763
v 0.164792 0.048299 0.665711
v 0.164792 0.036649 0.642413
v 0.164792 0.335454 0.591156
v 0.141493 0.036649 0.642413
v 0.141493 0.048299 0.665711
v 0.153142 0.246337 0.607465
v 0.141493 0.164792 0.304583
v 0.147318 0.153142 0.351180
v 0.147318 0.036649 0.374479
v 0.129844 0.025000 0.409427
v 0.083247 0.223038 0.327882
v 0.071597 0.164792 0.304583
v 0.083247 0.025000 0.409427
v 0.065772 0.205564 0.409427
v 0.048299 0.164792 0.304583
v 0.048299 0.223038 0.327882
v 0.106545 0.409427 0.292934
v 0.106545 0.281284 0.479322
v 0.081499 0.329047 0.683185
v 0.057036 0.278372 0.620279
v 0.059948 0.246337 0.607465
v 0.071597 0.048299 0.665711
v 0.071597 0.036649 0.642413
v 0.065772 0.025000 0.630763
v 0.048299 0.246337 0.607465
v 0.048299 0.025000 0.630763
v 0.048299 0.275460 0.623191
v 0.048299 0.335454 0.591156
v 0.048299 0.036649 0.642413
v 0.025000 0.025000 0.677361
v 0.048299 0.234687 0.654062
v 0.048299 0.397777 0.537569
v 0.118194 0.397777 0.193915
v 0.094896 0.421076 0.100720
v 0.106545 0.351180 0.223038
v 0.147318 0.627269 0.810162
v 0.172364 0.619696 0.806668
v 0.164792 0.592903 0.820647
v 0.040726 0.619114 0.806668
v 0.065772 0.627269 0.810162
v 0.048299 0.592903 0.820647
v 0.172364 0.619114 0.805503
v 0.147318 0.627269 0.808998
v 0.125766 0.585914 0.790941
v 0.156055 0.564362 0.786864
v 0.087324 0.585914 0.790941
v 0.065772 0.627269 0.808998
v 0.040726 0.619114 0.805503
v 0.057036 0.564362 0.786864
v 0.076839 0.553296 0.857925
v 0.075092 0.546306 0.863749
v 0.073345 0.549801 0.859089
v 0.079169 0.548636 0.865497
v 0.079752 0.552713 0.862002
v 0.136251 0.553296 0.857925
v 0.139746 0.549801 0.859089
v 0.137998 0.546306 0.864332
v 0.133921 0.548636 0.865497
v 0.133338 0.552713 0.862002
v 0.124601 0.568440 0.852100
v 0.128679 0.573099 0.840451
v 0.136251 0.568440 0.834044
v 0.142658 0.556790 0.837538
v 0.144988 0.545723 0.848605
v 0.140910 0.541064 0.860837
v 0.132756 0.545723 0.867826
v 0.133338 0.545723 0.867244
v 0.126349 0.556790 0.863749
v 0.088489 0.568440 0.852100
v 0.084411 0.573099 0.840451
v 0.076839 0.568440 0.834044
v 0.070432 0.556790 0.837538
v 0.068102 0.545723 0.848605
v 0.072180 0.541064 0.860837
v 0.080334 0.545723 0.867826
v 0.079752 0.545723 0.867244
v 0.086741 0.556790 0.863749
v 0.079752 0.545723 0.867826
v 0.079752 0.545723 0.868409
v 0.072180 0.541064 0.861419
v 0.068102 0.545723 0.849188
v 0.070432 0.556790 0.838121
v 0.076839 0.568440 0.834626
v 0.084411 0.573099 0.841033
v 0.088489 0.568440 0.852682
v 0.086741 0.556790 0.864332
v 0.136251 0.568440 0.834626
v 0.142658 0.556790 0.838121
v 0.144988 0.545723 0.849188
v 0.140910 0.541064 0.861419
v 0.133338 0.545723 0.868409
v 0.133338 0.545723 0.867826
v 0.126349 0.556790 0.864332
v 0.124601 0.568440 0.852682
v 0.128679 0.573099 0.841033
v 0.106545 0.374479 0.042474
vn 0.2428 0.3939 0.8865
vn -0.0247 -0.3288 0.9441
vn -0.1196 -0.3443 0.9312
vn -0.2525 0.3975 0.8822
vn -0.0317 0.3305 -0.9433
vn 0.9988 -0.0384 -0.0288
vn 0.9992 -0.0357 0.0178
vn 0.9081 0.3179 -0.2725
vn -0.0000 0.4472 0.8944
vn -0.0000 0.8944 -0.4472
vn -0.0000 0.1961 0.9806
vn -0.2294 -0.6882 0.6882
vn -0.2672 -0.5345 0.8018
vn -0.0000 -0.3162 -0.9487
vn -0.0000 0.3714 -0.9285
vn -0.0000 -0.4472 -0.8944
vn 0.2873 -0.0160 -0.9577
vn 0.6460 -0.7628 0.0275
vn -1.0000 -0.0000 -0.0000
vn -0.7454 0.5963 -0.2981
vn -0.5415 -0.8123 -0.2166
vn -0.5448 -0.8171 -0.1886
vn 0.9655 0.1676 -0.1995
vn 0.9363 -0.0123 -0.3511
vn -0.6960 -0.3761 0.6116
vn -0.0000 -0.1047 -0.9945
vn -0.9396 0.0302 0.3411
vn -0.0000 -0.0587 0.9983
vn -0.0000 -0.2949 0.9555
vn -0.2041 -0.2224 0.9534
vn -0.8934 -0.0470 -0.4467
vn -0.9654 -0.2195 -0.1405
vn -0.4999 -0.8407 -0.2080
vn -0.8865 -0.4590 -0.0580
vn -0.5905 -0.5520 0.5888
vn -0.8165 0.4082 0.4082
vn -0.2957 0.8870 -0.3548
vn -0.9660 0.0537 -0.2530
vn -0.7563 0.6512 0.0630
vn -0.8606 0.4417 -0.2533
vn -0.5060 0.8434 -0.1807
vn -0.7682 0.6402 -0.0000
vn 1.0000 -0.0000 -0.0000
vn -0.9992 -0.0357 0.0178
vn -0.8944 0.2683 -0.3578
vn -0.0000 -0.7433 0.6690
vn 0.1864 -0.5592 0.8078
vn -0.5976 -0.3586 -0.7171
vn -0.0471 -0.1413 -0.9889
vn 0.7454 0.5963 -0.2982
vn -0.6989 -0.7138 0.0446
vn 0.5415 -0.8123 -0.2166
vn 0.5448 -0.8171 -0.1886
vn -0.9267 0.0186 -0.3754
vn -0.9129 0.3651 -0.1826
vn -0.9709 0.0141 -0.2392
vn 0.6960 -0.3761 0.6116
vn 0.4116 0.4330 -0.8019
vn 0.8703 -0.4009 0.2861
vn 0.2040 -0.2224 0.9534
vn 0.9654 -0.2195 -0.1405
vn 0.4999 -0.8407 -0.2080
vn 0.5043 -0.5660 0.6521
vn 0.8165 0.4083 0.4083
vn 0.2957 0.8870 -0.3548
vn 0.9615 -0.0000 -0.2747
vn 0.7563 0.6512 0.0630
vn 0.5135 0.8558 -0.0634
vn 0.5060 0.8434 -0.1807
vn 0.7682 0.6402 -0.0000
vn 0.6142 0.7553 -0.2287
vn -0.6143 0.7552 -0.2287
vn 0.7185 -0.4119 0.5604
vn -0.8992 -0.4161 0.1354
vn -0.3555 -0.9327 -0.0603
vn 0.3555 -0.9327 -0.0603
vn 0.8992 -0.4161 0.1354
vn 0.8387 0.3799 0.3902
vn 0.2406 0.8308 0.5020
vn -0.2406 0.8308 0.5020
vn -0.8387 0.3799 0.3902
vn 0.7496 0.3540 -0.5592
vn 0.3267 0.6568 -0.6796
vn -0.3267 0.6568 -0.6796
vn 0.2443 0.4004 0.8832
vn -0.1196 0.3443 -0.9312
vn 0.8589 0.4263 -0.2839
vn 0.8975 -0.4155 0.1475
vn -0.5974 0.5399 -0.5930
vn -0.8589 0.4263 -0.2839
vn -0.8976 -0.4155 0.1475
vn -0.1427 -0.4085 0.9015
vn 0.6398 0.5509 0.5359
vn -0.4266 0.6395 0.6396
vn -0.6802 0.5669 0.4648
vn 0.6802 0.5669 0.4648
vn 0.7137 0.5299 0.4581
vn 0.5875 -0.5565 -0.5875
vn -0.0000 0.9990 -0.0454
vn -0.0000 0.9701 0.2425
vn -0.0000 0.8222 0.5692
vn 0.9845 -0.0304 -0.1725
vn -0.9845 -0.0304 -0.1725
vn 0.9772 -0.2104 -0.0271
vn -0.9564 -0.2834 -0.0708
vn 0.9716 -0.2362 0.0107
vn -0.9716 -0.2362 0.0107
vn 0.1196 -0.3443 0.9312
vn 0.0247 -0.3288 0.9441
vn 0.1219 0.3473 -0.9298
vn 0.9888 0.0575 0.1380
vn -0.8944 -0.0000 0.4472
vn 0.9911 0.0261 0.1304
vn -0.0002 0.8944 -0.4472
vn -0.1864 -0.5592 0.8078
vn 0.4851 -0.2910 -0.8246
vn 0.0471 -0.1413 -0.9889
vn -0.9728 0.0256 -0.2304
vn 0.5346 0.2672 0.8018
vn 0.9267 0.0186 -0.3754
vn 0.9714 0.0278 -0.2359
vn -0.9503 -0.0183 0.3107
vn 0.9129 0.3652 -0.1826
vn -0.4116 0.4330 -0.8019
vn -0.8703 -0.4009 0.2861
vn 0.1938 0.2768 0.9412
vn -0.5043 -0.5660 0.6521
vn -0.5135 0.8558 -0.0634
vn -0.9919 0.0115 0.1269
vn -0.9992 -0.0303 0.0273
vn -0.9981 -0.0614 0.0038
vn -0.9911 0.0261 0.1304
vn -0.8304 0.4983 -0.2491
vn 0.2294 -0.6882 0.6882
vn 0.2672 -0.5345 0.8018
vn -0.3162 -0.0000 -0.9487
vn 0.9401 0.3375 0.0482
vn 0.9713 -0.0535 -0.2317
vn 0.7454 0.5963 -0.2981
vn -0.9655 0.1676 -0.1995
vn -0.9300 -0.1163 -0.3487
vn -0.9027 -0.0215 -0.4298
vn 0.9396 0.0302 0.3411
vn 0.8165 0.4083 -0.4082
vn 0.8865 -0.4590 -0.0580
vn 0.5905 -0.5520 0.5888
vn 0.8606 0.4417 -0.2533
vn 0.1427 -0.4085 0.9015
vn 0.5974 0.5399 -0.5930
vn 0.0247 0.3288 -0.9441
vn -0.7497 0.3539 -0.5592
vn -0.7185 -0.4119 0.5604
vn 0.5263 0.6423 0.5572
vn 0.4617 0.6593 0.5934
vn -0.5796 0.6023 0.5490
vn -0.6398 0.5509 0.5359
vn -0.7121 0.5398 0.4490
vn -0.7199 0.5303 0.4479
vn -0.6933 0.5773 0.4314
vn -0.6963 0.5621 0.4463
vn -0.7129 0.5899 0.3791
vn 0.8455 -0.5339 -0.0000
vn 0.6729 0.5727 0.4682
vn -0.9858 -0.1678 -0.0000
vn 0.7246 0.5450 0.4217
vn 0.7046 0.5524 0.4454
vn 0.7298 0.5541 0.4004
vn 0.7299 0.5541 0.4004
vn 0.7046 0.5524 0.4453
vn 0.7013 0.5536 0.4492
vn -0.5488 -0.6305 -0.5488
vn 0.6728 0.5728 0.4682
vn 0.6802 0.5668 0.4648
vn -0.6986 0.5658 0.4379
vn -0.7199 0.5302 0.4479
vn -0.7121 0.5397 0.4490
vn -0.6802 0.5668 0.4648
vn 0.9564 -0.2834 -0.0708
vn -0.9772 -0.2104 -0.0271
s 0
f 118//1 117//1 116//1
f 129//2 127//2 128//2
f 125//3 123//3 124//3
f 121//4 120//4 119//4
f 59//5 62//5 61//5
f 28//6 33//6 94//6
f 31//7 29//7 92//7
f 30//8 93//8 29//8
f 30//9 35//9 34//9
f 31//10 36//10 35//10
f 32//11 37//11 36//11
f 94//12 38//12 37//12
f 33//13 39//13 38//13
f 40//14 95//14 92//14
f 91//15 92//15 95//15
f 91//16 96//16 28//16
f 23//17 28//17 41//17
f 23//18 33//18 28//18
f 37//19 38//19 39//19
f 95//19 40//19 36//19
f 40//20 34//20 35//20
f 98//21 33//21 23//21
f 78//22 33//22 98//22
f 42//23 101//23 100//23
f 43//24 104//24 101//24
f 44//25 99//25 6//25
f 101//26 104//26 106//26
f 100//15 101//15 105//15
f 108//27 100//27 99//27
f 102//10 103//10 109//10
f 43//9 102//9 45//9
f 103//28 42//28 111//28
f 99//29 111//29 42//29
f 99//30 44//30 111//30
f 105//31 106//31 110//31
f 105//19 111//19 44//19
f 33//32 100//32 108//32
f 78//33 100//33 33//33
f 46//34 33//34 108//34
f 78//35 6//35 99//35
f 39//36 33//36 46//36
f 97//37 41//37 72//37
f 28//38 46//38 41//38
f 41//39 46//39 72//39
f 44//40 68//40 47//40
f 46//41 112//41 47//41
f 72//42 46//42 47//42
f 9//43 24//43 87//43
f 87//44 25//44 89//44
f 90//45 27//45 89//45
f 27//9 90//9 75//9
f 89//10 27//10 14//10
f 88//11 89//11 76//11
f 26//46 88//46 77//46
f 10//47 26//47 73//47
f 74//14 25//14 87//14
f 24//15 12//15 13//15
f 24//48 23//48 9//48
f 23//49 97//49 8//49
f 73//43 77//43 13//43
f 77//43 76//43 74//43
f 76//50 14//50 75//50
f 23//51 9//51 10//51
f 98//52 23//52 10//52
f 78//53 98//53 10//53
f 20//54 19//54 15//54
f 21//55 85//55 84//55
f 84//56 20//56 86//56
f 4//57 6//57 19//57
f 86//26 79//26 80//26
f 15//58 18//58 79//58
f 83//59 4//59 19//59
f 85//10 81//10 82//10
f 21//9 16//9 81//9
f 84//28 82//28 17//28
f 19//29 20//29 17//29
f 19//60 17//60 4//60
f 79//43 17//43 82//43
f 82//50 81//50 16//50
f 79//19 18//19 83//19
f 10//61 83//61 15//61
f 78//62 10//62 15//62
f 71//43 7//43 4//43
f 78//63 15//63 19//63
f 11//64 71//64 10//64
f 97//65 72//65 8//65
f 9//66 8//66 71//66
f 8//67 72//67 71//67
f 4//68 7//68 47//68
f 71//69 47//69 7//69
f 72//70 47//70 71//70
f 47//71 69//71 67//71
f 47//72 68//72 69//72
f 6//73 4//73 2//73
f 57//74 53//74 5//74
f 57//75 5//75 56//75
f 57//76 56//76 2//76
f 57//77 2//77 1//77
f 57//78 1//78 55//78
f 57//79 55//79 54//79
f 57//80 54//80 70//80
f 57//81 70//81 53//81
f 69//82 55//82 1//82
f 69//83 54//83 55//83
f 69//84 70//84 54//84
f 60//85 61//85 62//85
f 3//86 64//86 66//86
f 63//4 64//4 65//4
f 67//87 2//87 4//87
f 67//88 1//88 2//88
f 69//89 68//89 53//89
f 68//90 44//90 5//90
f 68//91 5//91 53//91
f 6//92 56//92 5//92
f 135//93 139//93 138//93
f 130//94 132//94 131//94
f 166//95 165//95 164//95
f 175//96 174//96 173//96
f 141//97 143//97 142//97
f 157//98 155//98 156//98
f 48//99 113//99 50//99
f 113//100 51//100 114//100
f 51//101 52//101 114//101
f 52//102 51//102 176//102
f 114//103 52//103 176//103
f 115//104 176//104 51//104
f 115//105 50//105 114//105
f 115//106 113//106 48//106
f 49//107 50//107 115//107
f 129//108 126//108 127//108
f 125//109 122//109 123//109
f 59//110 58//110 62//110
f 28//43 94//43 32//43
f 28//111 32//111 92//111
f 28//112 92//112 91//112
f 31//113 92//113 32//113
f 30//114 29//114 31//114
f 30//9 34//9 93//9
f 31//10 35//10 30//10
f 32//11 36//11 31//11
f 94//46 37//46 32//46
f 33//115 38//115 94//115
f 40//14 92//14 29//14
f 91//15 95//15 96//15
f 91//116 28//116 23//116
f 23//117 41//117 97//117
f 37//19 39//19 46//19
f 37//118 46//118 28//118
f 37//119 28//119 96//119
f 37//19 96//19 95//19
f 95//19 36//19 37//19
f 40//43 35//43 36//43
f 42//120 100//120 99//120
f 43//121 101//121 42//121
f 43//122 42//122 103//122
f 43//123 103//123 102//123
f 101//26 106//26 105//26
f 100//124 105//124 107//124
f 108//125 99//125 44//125
f 102//10 109//10 45//10
f 43//9 45//9 110//9
f 103//28 111//28 109//28
f 105//126 110//126 45//126
f 105//43 45//43 109//43
f 105//19 109//19 111//19
f 105//19 44//19 108//19
f 105//43 108//43 107//43
f 46//19 108//19 44//19
f 46//19 44//19 112//19
f 78//127 99//127 100//127
f 44//128 47//128 112//128
f 9//129 87//129 88//129
f 9//130 88//130 26//130
f 9//131 26//131 10//131
f 87//132 89//132 88//132
f 90//133 89//133 25//133
f 27//9 75//9 14//9
f 89//10 14//10 76//10
f 88//11 76//11 77//11
f 26//134 77//134 73//134
f 10//135 73//135 11//135
f 74//14 87//14 13//14
f 24//15 13//15 87//15
f 24//16 9//16 12//16
f 23//136 8//136 9//136
f 73//43 13//43 12//43
f 73//137 12//137 9//137
f 73//138 9//138 71//138
f 73//43 71//43 11//43
f 77//43 74//43 13//43
f 76//139 75//139 74//139
f 20//140 15//140 86//140
f 21//141 84//141 22//141
f 84//142 86//142 22//142
f 86//26 80//26 22//26
f 15//15 79//15 86//15
f 83//143 19//143 15//143
f 85//10 82//10 84//10
f 21//9 81//9 85//9
f 84//28 17//28 20//28
f 79//43 82//43 80//43
f 82//144 16//144 80//144
f 79//43 83//43 4//43
f 79//43 4//43 17//43
f 71//43 4//43 83//43
f 71//145 83//145 10//145
f 78//146 19//146 6//146
f 4//147 47//147 67//147
f 6//148 2//148 56//148
f 69//149 1//149 67//149
f 3//150 65//150 64//150
f 69//151 53//151 70//151
f 6//152 5//152 44//152
f 135//153 138//153 137//153
f 135//154 137//154 136//154
f 130//155 131//155 133//155
f 130//156 133//156 134//156
f 166//157 164//157 163//157
f 166//158 163//158 162//158
f 166//159 162//159 161//159
f 166//160 161//160 160//160
f 166//161 160//161 159//161
f 166//162 159//162 158//162
f 175//163 173//163 172//163
f 175//164 172//164 171//164
f 175//165 171//165 170//165
f 175//166 170//166 169//166
f 175//167 169//167 168//167
f 175//97 168//97 167//97
f 141//168 144//168 143//168
f 141//169 145//169 144//169
f 141//170 146//170 145//170
f 141//171 147//171 146//171
f 141//172 148//172 147//172
f 141//173 140//173 148//173
f 157//174 154//174 155//174
f 157//160 153//160 154//160
f 157//159 152//159 153//159
f 157//175 151//175 152//175
f 157//176 150//176 151//176
f 157//177 149//177 150//177
f 48//99 50//99 49//99
f 113//100 114//100 50//100
f 115//178 51//178 113//178
f 115//179 114//179 176//179
