# Created by Open3D 
# object name: D01058
# number of vertices: 219
# number of triangles: 438
v 0.464472 0.964873 0.089036
vn -0.0159274 -0.0637034 -0.997842
v 0.08158 0.968665 0.088971
vn 1 0 0
v 0.464472 0.968665 0.088972
vn -1 0 0
v 0.034615 0.025099 0.10177
vn 0.0147091 -0.99415 0.107002
v 0.056314 0.957764 0.110798
vn 0 0 1
v 0.069412 0.025484 0.099228
vn 0.0108219 0.995814 0.0907626
v 0.034615 0.025484 0.10177
vn -0.130035 0.99022 0.0505482
v 0.493362 0.957368 0.110798
vn 0 0 1
v 0.498613 0.954337 0.110798
vn 0 0 1
v 0.501644 0.943023 0.110798
vn 0 0 1
v 0.496186 0.935912 0.110798
vn 0 0 1
v 0.495343 0.964764 0.110798
vn 0 0 1
v 0.070031 0.932359 0.110798
vn 0 0 1
v 0.061356 0.964764 0.110798
vn 0 0 1
v 0.069412 0.138623 0.099228
vn 0.238964 -0.00552884 0.971013
v 0.055491 0.138623 0.099228
vn -0.00139469 -8.59312e-05 0.999999
v 0.034615 0.138623 0.10177
vn 0.181666 -0.00500101 0.983348
v 0.054198 0.138623 0.089709
vn 0.0860179 -0.0157527 -0.996169
v 0.034615 0.138623 0.094228
vn -0.999994 -0.00344436 0
v 0.049903 0.063197 0.089335
vn 0.000288893 0 1
v 0.054198 0.025484 0.089709
vn 0.00282084 0.999462 -0.032668
v 0.054198 0.025484 0.099078
vn 0.0011315 0.997049 0.0767574
v 0.034615 0.025484 0.089335
vn -0.00742827 0.0609986 0.99811
v 0.504026 0.932359 0.110798
vn 0 0 1
v 0.064626 0.954337 0.110798
vn 0 0 1
v 0.067649 0.943023 0.110798
vn 0 0 1
v 0.0622 0.935912 0.110798
vn 0 0 1
v 0.510252 0.10091 0.089335
vn 0.000641119 0 -1
v 0.510252 0.138623 0.089324
vn 1 0 0
v 0.038718 0.138623 0.097241
vn 0.133963 -0.0214018 0.990755
v 0.076377 0.025484 0.091621
vn 0.0162626 0.999411 -0.0302287
v 0.062457 0.138623 0.099174
vn -0.00258621 -0.0209464 0.999777
v 0.076377 0.138623 0.096631
vn 0.875459 -0.00326656 0.483282
v 0.049903 0.138623 0.089335
vn 0.0882215 -0.01304 -0.996016
v 0.049903 0.10091 0.089335
vn 0.000725891 0 1
v 0.049903 0.025484 0.089335
vn 0.0293034 0.600545 0.799053
v 0.076377 0.138623 0.091621
vn 0.297885 -0.0163851 -0.954461
v 0.062457 0.025484 0.099174
vn 6.37734e-05 0.999696 0.0246665
v 0.076377 0.025484 0.096631
vn 0.110594 0.982331 0.150977
v 0.034615 0.138623 0.089335
vn -0.932599 -0.0176245 0.360484
v 0.038718 0.025484 0.097241
vn 0.00264029 0.999812 0.0192069
v 0.055491 0.025484 0.099228
vn -0.0109686 0.330818 0.943631
v 0.034615 0.025484 0.094228
vn -0.0934232 0.995626 0
v 0.464472 0.925377 0.096599
vn -0.002597 -0.999997 0
v 0.08158 0.925377 0.096599
vn 0.00125424 -0.999999 0
v 0.464472 0.925377 0.089431
vn -0.00315878 -0.722077 -0.691806
v 0.464472 0.939112 0.103768
vn -0.0122396 0 0.999925
v 0.08158 0.939112 0.103768
vn 0.00970609 0 0.999953
v 0.464472 0.925377 0.103768
vn -0.0935433 -0.368369 0.924962
v 0.464472 0.952847 0.103768
vn -0.011609 0 0.999933
v 0.08158 0.952846 0.103768
vn 0.00472717 0 0.999989
v 0.464472 0.939112 0.089431
vn -0.000847426 0 -1
v 0.08158 0.939112 0.089431
vn 0.000317114 0 -1
v 0.464472 0.952847 0.089431
vn -0.000166204 -0.00461381 -0.999989
v 0.464472 0.966769 0.10661
vn -0.00729164 0 0.999973
v 0.08158 0.966769 0.10661
vn 0.00729172 0 0.999973
v 0.464472 0.964873 0.10661
vn -0.0303207 -0.831493 0.554708
v 0.464472 0.968665 0.100734
vn -0.0110329 0.999939 0
v 0.08158 0.968665 0.100734
vn 0.0272415 0.999629 0
v 0.464472 0.968665 0.10661
vn -0.0189308 0.987057 0.159248
v 0.464472 0.968665 0.089014
vn -0.0140523 0.838326 -0.544989
v 0.08158 0.968665 0.088993
vn 0.0069813 0.833752 -0.552096
v 0.464472 0.968665 0.094869
vn -0.0110194 0.999939 0
v 0.464472 0.964766 0.089249
vn -0.000870248 -0.0240408 -0.999711
v 0.08158 0.964873 0.089249
vn 0.00802112 -0.0409929 -0.999127
v 0.08158 0.884417 0.096631
vn 0.0343887 -0.605899 0.794798
v 0.08158 0.884417 0.091621
vn 0.00833389 -0.903221 -0.429095
v 0.464472 0.884417 0.096632
vn -0.040515 -0.882703 0.468181
v 0.08158 0.897801 0.099174
vn 0.00799869 -0.00268964 0.999964
v 0.08158 0.891109 0.099228
vn 0.0752569 -0.122682 0.989589
v 0.464472 0.897802 0.099174
vn -0.0202352 0.00268918 0.999792
v 0.08158 0.911187 0.089217
vn 0.00531116 -0.0554851 -0.998445
v 0.08158 0.924571 0.089217
vn 0.00267162 0.184004 -0.982922
v 0.464472 0.911187 0.089217
vn -0.00301403 -0.0577655 -0.998326
v 0.08158 0.952905 0.089431
vn 0.000171911 -0.00965999 -0.999953
v 0.08158 0.964873 0.10661
vn 0.124527 -0.8254 0.550643
v 0.08158 0.964873 0.103768
vn 0.00361188 -0.229976 0.97319
v 0.464472 0.880114 0.088907
vn -0.0484781 -0.0439437 -0.997857
v 0.464472 0.975 0.088907
vn -0.0261033 0.0906297 -0.995542
v 0.515565 0.880114 0.088907
vn 0.391719 -0.0188645 -0.919892
v 0.515565 0.975 0.088907
vn 0.302803 0.326099 -0.895527
v 0.464472 0.96949 0.110798
vn -0.318969 0.0744016 0.94484
v 0.515565 0.96949 0.110798
vn 0.690991 0.130889 0.710915
v 0.464472 0.975 0.106183
vn -0.0412318 0.968928 0.243882
v 0.468491 0.880114 0.091621
vn -0.175823 -0.00257597 -0.984418
v 0.468491 0.880114 0.096632
vn -0.875416 -0.020319 0.482944
v 0.515565 0.975 0.106183
vn 0.883233 0.454751 0.114462
v 0.464472 0.884417 0.091621
vn -0.00834491 -0.240454 -0.970625
v 0.490118 0.965395 0.110798
vn 0 0 1
v 0.490331 0.957767 0.110798
vn 0 0 1
v 0.515565 0.880114 0.110798
vn 0.403948 -0.23297 0.884619
v 0.501355 0.942327 0.110798
vn 0 0 1
v 0.504007 0.932344 0.110798
vn 0 0 1
v 0.504009 0.932336 0.110798
vn 0 0 1
v 0.490218 0.934358 0.110798
vn 0 0 1
v 0.464472 0.880114 0.110798
vn -0.253232 -0.137543 0.957578
v 0.490281 0.926692 0.110798
vn 0 0 1
v 0.490303 0.957763 0.110798
vn 0 0 1
v 0.490303 0.957771 0.110798
vn 0 0 1
v 0.490305 0.957764 0.110798
vn 0 0 1
v 0.490323 0.934341 0.110798
vn 0 0 1
v 0.464472 0.964873 0.103768
vn -0.00722331 -0.22998 0.973168
v 0.464472 0.924571 0.089217
vn -0.00585715 0.599378 -0.800445
v 0.464472 0.891109 0.099228
vn -0.0230332 -0.247905 0.968511
v 0.464472 0.924571 0.10177
vn -0.0041504 0.795213 0.606316
v 0.464472 0.924571 0.094228
vn -0.00330716 0.999995 0
v 0.464472 0.904494 0.099228
vn -0.0123636 0.0843812 0.996357
v 0.08158 0.925377 0.099997
vn 0.00215988 -0.999998 0
v 0.08158 0.925377 0.089431
vn 0.0019241 -0.252484 -0.967599
v 0.08158 0.968665 0.10661
vn 0.0268971 0.839922 0.54204
v 0.08158 0.968665 0.094869
vn 0.0110329 0.999939 0
v 0.08158 0.922382 0.09926
vn 0.00758186 -0.754029 0.656798
v 0.464472 0.920626 0.097241
vn -0.0550973 -0.204179 0.977382
v 0.08158 0.924571 0.094228
vn 0.00192427 0.999998 0
v 0.08158 0.940783 0.103768
vn 0.0254352 0 0.999676
v 0.08158 0.904494 0.099228
vn 0.0159299 0.0753198 0.997032
v 0.030481 0.880114 0.088907
vn -0.393602 -0.0308014 -0.918765
v 0.030481 0.975 0.088907
vn -0.390382 0.083467 -0.916861
v 0.08158 0.880114 0.088907
vn 0.0252329 -0.0251304 -0.999366
v 0.08158 0.975 0.088907
vn 0.0368032 0.341931 -0.939004
v 0.030481 0.96949 0.110798
vn -0.564007 0.0648262 0.823222
v 0.08158 0.96949 0.110798
vn 0.315782 0.171755 0.933157
v 0.030481 0.975 0.106183
vn -0.0412269 0.968928 0.243882
v 0.08158 0.880114 0.110798
vn 0.28049 -0.179813 0.942864
v 0.076378 0.880114 0.096631
vn 0.590795 -0.0196883 0.806581
v 0.08158 0.975 0.106183
vn 0.148782 0.958959 0.241373
v 0.030481 0.880114 0.110798
vn -0.584603 -0.160236 0.795339
v 0.056132 0.965395 0.110798
vn 0 0 1
v 0.056314 0.957771 0.110798
vn 0 0 1
v 0.056346 0.957767 0.110798
vn 0 0 1
v 0.0697 0.932101 0.110798
vn 0 0 1
v 0.070021 0.932336 0.110798
vn 0 0 1
v 0.06736 0.942327 0.110798
vn 0 0 1
v 0.070021 0.932344 0.110798
vn 0 0 1
v 0.056314 0.957763 0.110798
vn 0 0 1
v 0.056228 0.934357 0.110798
vn 0 0 1
v 0.056292 0.926692 0.110798
vn 0 0 1
v 0.056335 0.934341 0.110798
vn 0 0 1
v 0.059369 0.957368 0.110798
vn 0 0 1
v 0.08158 0.920626 0.097241
vn 0.00113998 0.0226129 0.999744
v 0.08158 0.91632 0.097775
vn 0.0187327 0.122226 0.992325
v 0.08158 0.925377 0.103768
vn 0.23946 -0.257054 0.93626
v 0.08158 0.889391 0.091172
vn 0.00403241 -0.0894413 -0.995984
v 0.08158 0.924571 0.10177
vn 0.00809355 -0.23699 0.971478
v 0.510252 0.880114 0.089217
vn 0.158392 -0.001942 -0.987374
v 0.475452 0.880114 0.099228
vn -0.238636 -0.0490378 0.96987
v 0.510252 0.880114 0.10177
vn -0.1816 -0.0273598 0.982992
v 0.506149 0.880114 0.097241
vn -0.120834 -0.0166125 0.992534
v 0.496333 0.880114 0.089217
vn -0.0557864 -0.00265398 -0.998439
v 0.494963 0.025783 0.089335
vn -0.0395412 -0.000492786 -0.999218
v 0.496333 0.025783 0.089217
vn -0.00419703 -7.26797e-05 -0.999991
v 0.496467 0.025783 0.089335
vn 0 -0.250844 -0.968028
v 0.510252 0.025783 0.089217
vn 0.00880658 -0.000274905 -0.999961
v 0.468491 0.138623 0.096632
vn -0.591069 0.0130156 0.806516
v 0.468491 0.138623 0.091621
vn -0.44975 0.00490807 -0.893141
v 0.482412 0.138623 0.099174
vn -0.00258627 0.00432277 0.999987
v 0.482412 0.880114 0.099174
vn 0.00258615 -0.0104504 0.999942
v 0.475452 0.138623 0.099228
vn -0.118301 0.0152256 0.992861
v 0.510252 0.138623 0.094228
vn 0.999436 0.0335911 0
v 0.510252 0.880114 0.094228
vn 0.999994 -0.00359953 0
v 0.510252 0.138623 0.10177
vn 0.931674 0.0286126 0.362166
v 0.489372 0.138623 0.099228
vn 0.0306152 0.00653741 0.99951
v 0.489372 0.880114 0.099228
vn 0.081162 -0.00920574 0.996658
v 0.510252 0.138623 0.089335
vn 0.998253 0.00760209 -0.0585935
v 0.495145 0.138623 0.089324
vn -0.0857721 -7.17573e-08 -0.996315
v 0.069412 0.880114 0.099228
vn 0.118239 -0.0503552 0.991708
v 0.034615 0.880114 0.094228
vn -0.999992 -0.00401155 0
v 0.034615 0.880114 0.089217
vn -0.1583 -0.00103823 -0.987391
v 0.038718 0.880114 0.097241
vn 0.127256 -0.00862594 0.991832
v 0.055491 0.880114 0.099228
vn -0.0826447 -0.0174558 0.996426
v 0.034615 0.880114 0.10177
vn -0.931926 -0.0166698 0.362264
v 0.048536 0.880114 0.089217
vn 0.0557615 -0.00320623 -0.998439
v 0.076378 0.880114 0.091621
vn 0.261405 -0.00273751 -0.965225
v 0.076377 0.025099 0.091621
vn 0.0112308 -0.997957 -0.0628869
v 0.076377 0.025099 0.096631
vn 0.137479 -0.987593 0.0758927
v 0.069412 0.025099 0.099228
vn 0.0223439 -0.99562 0.0907883
v 0.062457 0.025099 0.099174
vn -3.84005e-05 -0.99989 0.0148449
v 0.048536 0.025099 0.089217
vn 0.00422456 -0.0208452 -0.999774
v 0.034615 0.025099 0.094228
vn -0.0185738 -0.999678 0.0172746
v 0.034615 0.025099 0.089217
vn -0.00975967 -0.00586034 -0.999935
v 0.055491 0.025099 0.099228
vn -0.0465263 -0.941732 0.333131
v 0.049775 0.138623 0.089324
vn 0.0860021 0 -0.996295
v 0.503691 0.932101 0.110798
vn 0 0 1
v 0.494963 0.063197 0.089335
vn -0.00281517 -2.06042e-06 -0.999996
v 0.49509 0.138623 0.089324
vn -0.0606742 -4.23911e-05 -0.998158
v 0.494964 0.138623 0.089335
vn -0.0853665 2.19811e-05 -0.99635
v 0.49251 0.138623 0.089548
vn -0.0860317 0.000285886 -0.996292
v 0.4925 0.138623 0.098865
vn 0.117611 0.00686291 0.993036
v 0.506149 0.138623 0.097241
vn -0.139614 0.00551148 0.990191
v 0.494963 0.10091 0.089335
vn -0.00424964 5.709e-08 -0.999991
v 0.510252 0.063197 0.089335
vn 0.00064027 0 -1
v 0.510252 0.025783 0.089335
vn 0.0158895 -0.0018829 -0.999872
v 0.463304 0.025484 0.089335
vn -0.270786 -0.419265 -0.86654
v 0.463304 0.063197 0.089335
vn -0.529989 0 -0.848005
v 0.4925 0.063197 0.089335
vn 0 0 -1
v 0.521695 0.025484 0.089335
vn 0.89297 -0.34564 -0.288337
v 0.463304 0.10091 0.089335
vn -0.604733 0 -0.796429
v 0.4925 0.10091 0.089335
vn 0 0 -1
v 0.521695 0.10091 0.089335
vn 0.772019 0 -0.6356
v 0.463304 0.138623 0.089335
vn -0.621793 0.118616 -0.774147
v 0.4925 0.138623 0.089335
vn 0 0.0315318 -0.999503
v 0.521695 0.138623 0.089335
vn 0.52666 0.213185 -0.82291
v 0.463304 0.025484 0.107582
vn -0.519176 -0.200963 0.830704
v 0.4925 0.025484 0.107582
vn 0 -0.435541 0.900169
v 0.4925 0.063197 0.107582
vn 0 0 1
v 0.521695 0.025484 0.107582
vn 0.409715 -0.634351 0.65554
v 0.521695 0.063197 0.107582
vn 0.530001 0 0.847997
v 0.463304 0.063197 0.107582
vn -0.469011 0 0.883192
v 0.4925 0.125226 0.107582
vn 0 0.0476742 0.998863
v 0.521695 0.125226 0.107582
vn 0.472465 0.023075 0.881047
v 0.463304 0.125226 0.107582
vn -0.612541 0.0638636 0.787855
v 0.4925 0.138623 0.103982
vn 0 0.544098 0.839022
v 0.521695 0.138623 0.103982
vn 0.683623 0.40868 0.604681
v 0.4925 0.025484 0.089335
vn 0 -0.79892 -0.601438
v 0.521695 0.063197 0.089335
vn 0.889096 0 -0.457721
v 0.463304 0.138623 0.103982
vn -0.336852 0.660064 0.67145
v 0.08158 0.924571 0.099794
vn 0.00210512 0.999998 0
v 0.054369 0.138623 0.099099
vn -0.117635 -0.0104438 0.993002
v 0.062457 0.880114 0.099174
vn 0.00258528 -0.0104477 0.999942
f 1//1 62//62 61//61
f 1//1 65//65 62//62
f 61//61 3//3 1//1
f 65//65 2//2 62//62
f 65//65 119//119 2//2
f 3//3 78//78 1//1
f 4//4 179//179 22//22
f 22//22 41//41 4//4
f 179//179 181//181 22//22
f 179//179 177//177 181//181
f 179//179 178//178 177//177
f 34//34 40//40 35//35
f 35//35 182//182 34//34
f 34//34 30//30 40//40
f 182//182 172//172 34//34
f 5//5 129//129 128//128
f 34//34 218//218 30//30
f 19//19 30//30 17//17
f 22//22 42//42 38//38
f 41//41 22//22 36//36
f 23//23 41//41 36//36
f 39//39 31//31 6//6
f 19//19 40//40 30//30
f 218//218 34//34 18//18
f 18//18 37//37 32//32
f 38//38 21//21 22//22
f 32//32 16//16 218//218
f 21//21 38//38 31//31
f 38//38 6//6 31//31
f 32//32 37//37 15//15
f 23//23 43//43 41//41
f 43//43 7//7 41//41
f 218//218 18//18 32//32
f 15//15 37//37 33//33
f 36//36 22//22 21//21
f 23//23 20//20 40//40
f 36//36 20//20 23//23
f 40//40 20//20 35//35
f 19//19 171//171 167//167
f 32//32 166//166 219//219
f 33//33 173//173 125//125
f 219//219 16//16 32//32
f 125//125 15//15 33//33
f 170//170 169//169 218//218
f 169//169 17//17 30//30
f 27//27 25//25 139//139
f 27//27 139//139 5//5
f 133//133 26//26 25//25
f 25//25 27//27 133//133
f 82//82 47//47 49//49
f 82//82 49//49 96//96
f 82//82 50//50 47//47
f 91//91 157//157 163//163
f 96//96 146//146 91//91
f 142//142 112//112 144//144
f 141//141 142//142 116//116
f 65//65 109//109 73//73
f 75//75 53//53 65//65
f 105//105 217//217 144//144
f 114//114 105//105 106//106
f 107//107 141//141 116//116
f 140//140 107//107 113//113
f 198//198 190//190 184//184
f 186//186 198//198 201//201
f 164//164 159//159 202//202
f 159//159 213//213 202//202
f 161//161 189//189 212//212
f 212//212 162//162 156//156
f 156//156 158//158 212//212
f 200//200 155//155 201//201
f 196//196 192//192 215//215
f 195//195 150//150 214//214
f 208//208 194//194 203//203
f 211//211 197//197 208//208
f 216//216 200//200 211//211
f 154//154 200//200 216//216
f 210//210 199//199 213//213
f 207//207 215//215 210//210
f 206//206 196//196 207//207
f 204//204 214//214 206//206
f 203//203 193//193 204//204
f 212//212 209//209 213//213
f 216//216 211//211 212//212
f 209//209 205//205 210//210
f 211//211 208//208 209//209
f 205//205 204//204 207//207
f 208//208 203//203 205//205
f 199//199 28//28 202//202
f 198//198 197//197 201//201
f 191//191 199//199 215//215
f 195//195 194//194 198//198
f 196//196 214//214 152//152
f 214//214 193//193 195//195
f 158//158 146//146 154//154
f 153//153 29//29 192//192
f 190//190 185//185 184//184
f 165//165 151//151 150//150
f 161//161 147//147 189//189
f 163//163 189//189 148//148
f 162//162 188//188 163//163
f 85//85 186//186 187//187
f 160//160 159//159 164//164
f 149//149 185//185 186//186
f 185//185 149//149 165//165
f 92//92 11//11 183//183
f 11//11 91//91 183//183
f 91//91 97//97 96//96
f 160//160 145//145 80//80
f 80//80 147//147 160//160
f 27//27 124//124 131//131
f 138//138 137//137 27//27
f 9//9 11//11 92//92
f 11//11 8//8 100//100
f 11//11 9//9 8//8
f 91//91 94//94 183//183
f 67//67 143//143 88//88
f 143//143 74//74 88//88
f 113//113 49//49 105//105
f 49//49 113//113 96//96
f 178//178 182//182 36//36
f 178//178 168//168 172//172
f 168//168 180//180 40//40
f 179//179 7//7 43//43
f 177//177 6//6 38//38
f 175//175 31//31 39//39
f 178//178 174//174 177//177
f 119//119 172//172 117//117
f 117//117 167//167 171//171
f 171//171 169//169 127//127
f 127//127 219//219 166//166
f 170//170 219//219 127//127
f 139//139 122//122 14//14
f 13//13 134//134 132//132
f 13//13 26//26 134//134
f 78//78 103//103 1//1
f 78//78 74//74 103//103
f 156//156 163//163 157//157
f 145//145 151//151 149//149
f 161//161 160//160 147//147
f 158//158 157//157 146//146
f 155//155 86//86 85//85
f 152//152 153//153 192//192
f 91//91 163//163 148//148
f 78//78 145//145 149//149
f 135//135 128//128 121//121
f 103//103 106//106 46//46
f 109//109 45//45 114//114
f 217//217 114//114 108//108
f 108//108 144//144 217//217
f 142//142 70//70 69//69
f 110//110 59//59 126//126
f 122//122 115//115 76//76
f 120//120 126//126 59//59
f 62//62 2//2 120//120
f 124//124 70//70 142//142
f 124//124 119//119 66//66
f 127//127 137//137 136//136
f 133//133 131//131 134//134
f 134//134 131//131 132//132
f 129//129 14//14 128//128
f 117//117 127//127 118//118
f 118//118 123//123 120//120
f 119//119 125//125 173//173
f 71//71 107//107 69//69
f 68//68 104//104 66//66
f 106//106 103//103 114//114
f 144//144 112//112 105//105
f 111//111 58//58 63//63
f 110//110 55//55 60//60
f 52//52 46//46 109//109
f 77//77 50//50 102//102
f 142//142 108//108 49//49
f 96//96 98//98 82//82
f 71//71 104//104 96//96
f 44//44 105//105 49//49
f 52//52 1//1 46//46
f 58//58 60//60 79//79
f 64//64 1//1 52//52
f 98//98 100//100 99//99
f 100//100 90//90 99//99
f 90//90 12//12 99//99
f 97//97 101//101 95//95
f 92//92 183//183 93//93
f 24//24 93//93 94//94
f 24//24 10//10 93//93
f 8//8 83//83 12//12
f 68//68 78//78 96//96
f 87//87 81//81 84//84
f 83//83 80//80 87//87
f 96//96 78//78 86//86
f 57//57 77//77 102//102
f 74//74 73//73 103//103
f 71//71 70//70 104//104
f 68//68 67//67 88//88
f 63//63 62//62 111//111
f 60//60 59//59 110//110
f 57//57 56//56 76//76
f 54//54 53//53 75//75
f 47//47 51//51 115//115
f 49//49 48//48 142//142
f 46//46 45//45 109//109
f 19//19 17//17 171//171
f 173//173 18//18 34//34
f 182//182 35//35 20//20
f 36//36 182//182 20//20
f 170//170 218//218 16//16
f 32//32 15//15 166//166
f 33//33 37//37 173//173
f 181//181 38//38 42//42
f 16//16 219//219 170//170
f 176//176 39//39 6//6
f 15//15 125//125 166//166
f 174//174 21//21 31//31
f 173//173 37//37 18//18
f 167//167 40//40 19//19
f 4//4 41//41 7//7
f 30//30 218//218 169//169
f 17//17 169//169 171//171
f 42//42 22//22 181//181
f 173//173 34//34 172//172
f 168//168 40//40 167//167
f 174//174 36//36 21//21
f 178//178 36//36 174//174
f 179//179 43//43 23//23
f 179//179 23//23 180//180
f 150//150 152//152 214//214
f 28//28 191//191 29//29
f 5//5 139//139 130//130
f 122//122 139//139 25//25
f 82//82 57//57 50//50
f 91//91 146//146 157//157
f 112//112 142//142 141//141
f 124//124 137//137 127//127
f 109//109 65//65 53//53
f 133//133 27//27 131//131
f 105//105 114//114 217//217
f 107//107 140//140 141//141
f 101//101 97//97 11//11
f 195//195 198//198 184//184
f 198//198 186//186 190//190
f 201//201 187//187 186//186
f 213//213 159//159 161//161
f 188//188 212//212 189//189
f 213//213 161//161 212//212
f 212//212 188//188 162//162
f 216//216 158//158 154//154
f 216//216 212//212 158//158
f 201//201 155//155 187//187
f 215//215 192//192 191//191
f 195//195 184//184 150//150
f 193//193 203//203 194//194
f 194//194 208//208 197//197
f 197//197 211//211 200//200
f 200//200 154//154 155//155
f 202//202 213//213 199//199
f 199//199 210//210 215//215
f 215//215 207//207 196//196
f 196//196 206//206 214//214
f 214//214 204//204 193//193
f 210//210 213//213 209//209
f 209//209 212//212 211//211
f 207//207 210//210 205//205
f 205//205 209//209 208//208
f 206//206 207//207 204//204
f 204//204 205//205 203//203
f 202//202 28//28 164//164
f 200//200 201//201 197//197
f 199//199 191//191 28//28
f 197//197 198//198 194//194
f 192//192 196//196 152//152
f 194//194 195//195 193//193
f 146//146 86//86 154//154
f 191//191 192//192 29//29
f 186//186 185//185 190//190
f 184//184 165//165 150//150
f 29//29 164//164 28//28
f 147//147 148//148 189//189
f 189//189 163//163 188//188
f 85//85 187//187 155//155
f 160//160 164//164 145//145
f 149//149 186//186 85//85
f 153//153 145//145 29//29
f 185//185 165//165 184//184
f 91//91 11//11 97//97
f 91//91 147//147 80//80
f 124//124 27//27 137//137
f 92//92 10//10 9//9
f 93//93 183//183 94//94
f 74//74 143//143 72//72
f 113//113 107//107 96//96
f 182//182 178//178 172//172
f 168//168 178//178 180//180
f 23//23 40//40 180//180
f 7//7 179//179 4//4
f 177//177 38//38 181//181
f 6//6 177//177 176//176
f 175//175 39//39 176//176
f 31//31 175//175 174//174
f 180//180 178//178 179//179
f 176//176 177//177 174//174
f 175//175 176//176 174//174
f 173//173 172//172 119//119
f 168//168 117//117 172//172
f 117//117 171//171 127//127
f 169//169 170//170 127//127
f 117//117 168//168 167//167
f 127//127 166//166 124//124
f 166//166 125//125 124//124
f 14//14 130//130 139//139
f 122//122 26//26 13//13
f 165//165 149//149 151//151
f 164//164 29//29 145//145
f 163//163 156//156 162//162
f 151//151 145//145 153//153
f 160//160 161//161 159//159
f 157//157 158//158 156//156
f 86//86 155//155 154//154
f 153//153 152//152 151//151
f 151//151 152//152 150//150
f 78//78 149//149 85//85
f 91//91 148//148 147//147
f 96//96 86//86 146//146
f 145//145 78//78 80//80
f 77//77 76//76 51//51
f 127//127 135//135 121//121
f 27//27 135//135 138//138
f 113//113 112//112 140//140
f 44//44 108//108 45//45
f 106//106 44//44 46//46
f 55//55 57//57 82//82
f 114//114 73//73 109//109
f 119//119 73//73 72//72
f 65//65 73//73 119//119
f 45//45 108//108 114//114
f 119//119 72//72 143//143
f 142//142 144//144 108//108
f 142//142 69//69 116//116
f 124//124 66//66 70//70
f 143//143 67//67 119//119
f 2//2 119//119 120//120
f 122//122 110//110 126//126
f 115//115 51//51 76//76
f 122//122 56//56 110//110
f 120//120 59//59 111//111
f 120//120 111//111 62//62
f 122//122 48//48 115//115
f 122//122 142//142 48//48
f 124//124 142//142 122//122
f 112//112 141//141 140//140
f 122//122 76//76 56//56
f 123//123 118//118 121//121
f 67//67 66//66 119//119
f 123//123 122//122 126//126
f 138//138 135//135 136//136
f 5//5 130//130 129//129
f 128//128 135//135 5//5
f 122//122 121//121 128//128
f 135//135 127//127 136//136
f 137//137 138//138 136//136
f 135//135 27//27 5//5
f 133//133 134//134 26//26
f 124//124 13//13 132//132
f 124//124 132//132 131//131
f 124//124 122//122 13//13
f 122//122 25//25 26//26
f 130//130 14//14 129//129
f 122//122 128//128 14//14
f 121//121 118//118 127//127
f 126//126 120//120 123//123
f 125//125 119//119 124//124
f 122//122 123//123 121//121
f 118//118 120//120 119//119
f 118//118 119//119 117//117
f 116//116 69//69 107//107
f 70//70 66//66 104//104
f 47//47 115//115 48//48
f 73//73 114//114 103//103
f 112//112 113//113 105//105
f 64//64 75//75 65//65
f 111//111 59//59 58//58
f 110//110 56//56 55//55
f 53//53 52//52 109//109
f 77//77 51//51 50//50
f 108//108 44//44 49//49
f 11//11 98//98 101//101
f 98//98 89//89 82//82
f 78//78 88//88 74//74
f 107//107 71//71 96//96
f 44//44 106//106 105//105
f 104//104 68//68 96//96
f 1//1 103//103 46//46
f 79//79 61//61 63//63
f 3//3 61//61 79//79
f 78//78 3//3 79//79
f 50//50 57//57 102//102
f 79//79 63//63 58//58
f 79//79 60//60 82//82
f 52//52 54//54 64//64
f 82//82 60//60 55//55
f 83//83 8//8 9//9
f 84//84 79//79 82//82
f 91//91 80//80 83//83
f 84//84 83//83 87//87
f 98//98 11//11 100//100
f 101//101 98//98 95//95
f 100//100 8//8 90//90
f 89//89 98//98 99//99
f 99//99 12//12 89//89
f 83//83 82//82 89//89
f 98//98 96//96 95//95
f 96//96 97//97 95//95
f 91//91 24//24 94//94
f 92//92 93//93 10//10
f 83//83 10//10 24//24
f 91//91 83//83 24//24
f 83//83 9//9 10//10
f 12//12 90//90 8//8
f 83//83 89//89 12//12
f 78//78 68//68 88//88
f 79//79 84//84 81//81
f 81//81 87//87 80//80
f 85//85 86//86 78//78
f 83//83 84//84 82//82
f 79//79 81//81 80//80
f 79//79 80//80 78//78
f 77//77 57//57 76//76
f 54//54 75//75 64//64
f 73//73 74//74 72//72
f 70//70 71//71 69//69
f 67//67 68//68 66//66
f 65//65 1//1 64//64
f 62//62 63//63 61//61
f 59//59 60//60 58//58
f 56//56 57//57 55//55
f 53//53 54//54 52//52
f 51//51 47//47 50//50
f 48//48 49//49 47//47
f 45//45 46//46 44//44
