# Blender 4.2.3 LTS
# www.blender.org
o m435
v 0.025000 0.030937 0.025000
v 0.975000 0.030937 0.025000
v 0.975000 0.030937 0.500000
v 0.025000 0.030937 0.500000
v 0.025000 0.025000 0.025000
v 0.975000 0.025000 0.025000
v 0.975000 0.025000 0.500000
v 0.025000 0.025000 0.500000
v 0.262500 0.042813 0.143750
v 0.500000 0.042813 0.143750
v 0.583125 0.042813 0.143750
v 0.737500 0.042813 0.143750
v 0.262500 0.161563 0.143750
v 0.500000 0.161563 0.143750
v 0.583125 0.161563 0.143750
v 0.737500 0.161563 0.143750
v 0.262500 0.220938 0.143750
v 0.737500 0.220938 0.143750
v 0.500000 0.339687 0.143750
v 0.262500 0.042813 0.381250
v 0.500000 0.042813 0.381250
v 0.583125 0.042813 0.381250
v 0.737500 0.042813 0.381250
v 0.262500 0.161563 0.381250
v 0.500000 0.161563 0.381250
v 0.583125 0.161563 0.381250
v 0.737500 0.161563 0.381250
v 0.262500 0.220938 0.381250
v 0.737500 0.220938 0.381250
v 0.500000 0.339687 0.381250
v 0.203125 0.197187 0.143750
v 0.500000 0.345625 0.143750
v 0.500000 0.345625 0.381250
v 0.203125 0.197187 0.381250
v 0.203125 0.192437 0.143750
v 0.500000 0.340875 0.143750
v 0.500000 0.340875 0.381250
v 0.203125 0.192437 0.381250
v 0.796875 0.197187 0.143750
v 0.796875 0.197187 0.381250
v 0.796875 0.192437 0.143750
v 0.796875 0.192437 0.381250
v 0.500000 0.042813 0.386000
v 0.503563 0.042813 0.386000
v 0.503563 0.161563 0.386000
v 0.500000 0.161563 0.386000
v 0.583125 0.161563 0.386000
v 0.583125 0.165125 0.386000
v 0.500000 0.165125 0.386000
v 0.579562 0.042813 0.386000
v 0.583125 0.042813 0.386000
v 0.579562 0.161563 0.386000
v 0.503563 0.042813 0.381250
v 0.503563 0.161563 0.381250
v 0.583125 0.165125 0.381250
v 0.500000 0.165125 0.381250
v 0.579562 0.042813 0.381250
v 0.579562 0.161563 0.381250
v 0.204313 0.161563 0.476250
v 0.204086 0.161563 0.476948
v 0.204313 0.042813 0.476250
v 0.204086 0.042813 0.476948
v 0.203125 0.042813 0.476250
v 0.203125 0.161563 0.476250
v 0.203492 0.161563 0.477379
v 0.203492 0.042813 0.477379
v 0.202758 0.161563 0.477379
v 0.202758 0.042813 0.477379
v 0.202164 0.161563 0.476948
v 0.202164 0.042813 0.476948
v 0.201937 0.161563 0.476250
v 0.201937 0.042813 0.476250
v 0.202164 0.161563 0.475552
v 0.202164 0.042813 0.475552
v 0.202758 0.161563 0.475121
v 0.202758 0.042813 0.475121
v 0.203492 0.161563 0.475121
v 0.203492 0.042813 0.475121
v 0.204086 0.161563 0.475552
v 0.204086 0.042813 0.475552
v 0.179375 0.039844 0.470313
v 0.226875 0.039844 0.470313
v 0.226875 0.045781 0.470313
v 0.179375 0.045781 0.470313
v 0.179375 0.039844 0.482188
v 0.226875 0.039844 0.482188
v 0.226875 0.045781 0.482188
v 0.179375 0.045781 0.482188
v 0.203125 0.131875 0.476250
v 0.262500 0.131875 0.476250
v 0.262500 0.161563 0.476250
v 0.504750 0.042813 0.386000
v 0.504750 0.160375 0.386000
v 0.578375 0.160375 0.386000
v 0.578375 0.042813 0.386000
v 0.321875 0.078437 0.378875
v 0.440625 0.078437 0.378875
v 0.440625 0.197187 0.378875
v 0.321875 0.197187 0.378875
v 0.321875 0.078437 0.383625
v 0.440625 0.078437 0.383625
v 0.440625 0.197187 0.383625
v 0.321875 0.197187 0.383625
v 0.324250 0.080812 0.381250
v 0.377688 0.080812 0.381250
v 0.377688 0.193625 0.381250
v 0.324250 0.193625 0.381250
v 0.324250 0.080812 0.386000
v 0.377688 0.080812 0.386000
v 0.377688 0.193625 0.386000
v 0.324250 0.193625 0.386000
v 0.383625 0.080812 0.381250
v 0.437063 0.080812 0.381250
v 0.437063 0.193625 0.381250
v 0.383625 0.193625 0.381250
v 0.383625 0.080812 0.386000
v 0.437063 0.080812 0.386000
v 0.437063 0.193625 0.386000
v 0.383625 0.193625 0.386000
vn -0.0000 1.0000 -0.0000
vn -0.0000 -1.0000 -0.0000
vn -0.0000 -0.0000 -1.0000
vn 1.0000 -0.0000 -0.0000
vn -0.0000 -0.0000 1.0000
vn -1.0000 -0.0000 -0.0000
vn 0.4472 0.8944 -0.0000
vn -0.4472 0.8944 -0.0000
vn 0.4472 -0.8944 -0.0000
vn -0.4472 -0.8944 -0.0000
vn 0.9510 -0.0000 0.3093
vn 0.9510 -0.0000 0.3092
vn 0.5873 -0.0000 0.8094
vn -0.5873 -0.0000 0.8094
vn -0.9510 -0.0000 0.3092
vn -0.9510 -0.0000 0.3093
vn -0.9510 -0.0000 -0.3093
vn -0.5873 -0.0000 -0.8094
vn 0.5873 -0.0000 -0.8094
vn 0.9510 -0.0000 -0.3093
s 0
f 1//1 3//1 2//1
f 5//2 6//2 7//2
f 1//3 2//3 6//3
f 2//4 3//4 7//4
f 3//5 4//5 8//5
f 4//6 1//6 5//6
f 9//5 10//5 14//5
f 11//5 12//5 16//5
f 13//3 18//3 16//3
f 17//3 19//3 18//3
f 10//5 11//5 15//5
f 20//3 25//3 21//3
f 23//5 27//5 26//5
f 24//5 27//5 29//5
f 28//5 29//5 30//5
f 9//6 28//6 17//6
f 9//2 12//2 23//2
f 12//4 18//4 29//4
f 18//7 30//7 29//7
f 17//8 30//8 19//8
f 31//8 33//8 32//8
f 35//9 36//9 37//9
f 35//3 32//3 36//3
f 37//5 34//5 38//5
f 38//6 31//6 35//6
f 39//7 32//7 33//7
f 41//10 37//10 36//10
f 41//3 36//3 32//3
f 36//4 33//4 37//4
f 37//5 42//5 40//5
f 42//4 41//4 39//4
f 43//5 44//5 45//5
f 46//5 47//5 48//5
f 50//3 47//3 51//3
f 21//3 54//3 53//3
f 25//3 55//3 26//3
f 57//5 22//5 26//5
f 44//4 53//4 54//4
f 43//6 56//6 21//6
f 46//1 52//1 58//1
f 50//4 57//4 58//4
f 51//4 22//4 55//4
f 49//1 48//1 55//1
f 59//11 60//11 61//11
f 60//12 62//12 61//12
f 63//2 61//2 62//2
f 64//1 60//1 59//1
f 60//13 65//13 62//13
f 65//13 66//13 62//13
f 63//2 62//2 66//2
f 64//1 65//1 60//1
f 65//5 67//5 66//5
f 67//5 68//5 66//5
f 63//2 66//2 68//2
f 64//1 67//1 65//1
f 67//14 69//14 68//14
f 69//14 70//14 68//14
f 63//2 68//2 70//2
f 64//1 69//1 67//1
f 69//15 71//15 70//15
f 71//16 72//16 70//16
f 63//2 70//2 72//2
f 64//1 71//1 69//1
f 71//17 73//17 72//17
f 73//17 74//17 72//17
f 63//2 72//2 74//2
f 64//1 73//1 71//1
f 73//18 75//18 74//18
f 75//18 76//18 74//18
f 63//2 74//2 76//2
f 64//1 75//1 73//1
f 75//3 77//3 76//3
f 77//3 78//3 76//3
f 63//2 76//2 78//2
f 64//1 77//1 75//1
f 77//19 79//19 78//19
f 79//19 80//19 78//19
f 63//2 78//2 80//2
f 64//1 79//1 77//1
f 79//20 59//20 80//20
f 59//20 61//20 80//20
f 63//2 80//2 61//2
f 64//1 59//1 79//1
f 81//3 84//3 82//3
f 82//3 84//3 83//3
f 81//2 86//2 85//2
f 81//2 82//2 86//2
f 81//6 85//6 84//6
f 84//6 85//6 88//6
f 84//1 88//1 87//1
f 84//1 87//1 83//1
f 82//4 87//4 86//4
f 82//4 83//4 87//4
f 86//5 88//5 85//5
f 86//5 87//5 88//5
f 89//5 90//5 91//5
f 92//5 94//5 93//5
f 96//3 98//3 97//3
f 100//5 101//5 102//5
f 97//4 102//4 101//4
f 98//1 103//1 102//1
f 99//6 100//6 103//6
f 96//2 97//2 101//2
f 104//3 106//3 105//3
f 108//5 109//5 110//5
f 105//4 110//4 109//4
f 106//1 111//1 110//1
f 107//6 108//6 111//6
f 104//2 105//2 109//2
f 112//3 114//3 113//3
f 116//5 117//5 118//5
f 113//4 118//4 117//4
f 114//1 119//1 118//1
f 115//6 116//6 119//6
f 112//2 113//2 117//2
f 1//1 4//1 3//1
f 5//2 7//2 8//2
f 1//3 6//3 5//3
f 2//4 7//4 6//4
f 3//5 8//5 7//5
f 4//6 5//6 8//6
f 9//5 14//5 13//5
f 11//5 16//5 15//5
f 13//3 17//3 18//3
f 10//5 15//5 14//5
f 20//3 24//3 25//3
f 23//5 26//5 22//5
f 24//5 29//5 28//5
f 9//6 20//6 28//6
f 9//2 23//2 20//2
f 12//4 29//4 23//4
f 18//7 19//7 30//7
f 17//8 28//8 30//8
f 31//8 34//8 33//8
f 35//9 37//9 38//9
f 35//3 31//3 32//3
f 36//4 32//4 33//4
f 37//5 33//5 34//5
f 38//6 34//6 31//6
f 39//7 33//7 40//7
f 41//10 42//10 37//10
f 41//3 32//3 39//3
f 37//5 40//5 33//5
f 42//4 39//4 40//4
f 43//5 45//5 46//5
f 46//5 48//5 49//5
f 50//3 52//3 47//3
f 21//3 25//3 54//3
f 25//3 56//3 55//3
f 57//5 26//5 58//5
f 44//4 54//4 45//4
f 43//6 49//6 56//6
f 46//1 58//1 54//1
f 50//4 58//4 52//4
f 51//4 55//4 48//4
f 49//1 55//1 56//1
f 89//5 91//5 64//5
f 92//5 95//5 94//5
f 96//3 99//3 98//3
f 100//5 102//5 103//5
f 97//4 98//4 102//4
f 98//1 99//1 103//1
f 99//6 96//6 100//6
f 96//2 101//2 100//2
f 104//3 107//3 106//3
f 108//5 110//5 111//5
f 105//4 106//4 110//4
f 106//1 107//1 111//1
f 107//6 104//6 108//6
f 104//2 109//2 108//2
f 112//3 115//3 114//3
f 116//5 118//5 119//5
f 113//4 114//4 118//4
f 114//1 115//1 119//1
f 115//6 112//6 116//6
f 112//2 117//2 116//2
