# Created by Open3D 
# object name: m738
# number of vertices: 137
# number of triangles: 270
v 0.265448 0.508279 0.272941
vn -0.211665 0.113085 0.970778
v 0.478299 0.290895 0.24774
vn 0.00597647 -0.705873 -0.708313
v 0.527048 0.290895 0.247725
vn -0.00758598 -0.712743 -0.701384
v 0.709105 0.478299 0.24774
vn 0.705885 0.00597401 -0.708301
v 0.709105 0.527048 0.247726
vn 0.712761 -0.00757697 -0.701366
v 0.290895 0.5217 0.247741
vn -0.705903 -0.00597744 -0.708283
v 0.290896 0.472951 0.247726
vn -0.712766 0.00757123 -0.701361
v 0.521701 0.709104 0.247741
vn -0.00596936 0.705887 -0.708299
v 0.472952 0.709104 0.247726
vn 0.00757691 0.712766 -0.701361
v 0.5 0.499999 0.229427
vn 0 0 -1
v 0.568276 0.477815 0.229427
vn -0.439673 0.168979 -0.882119
v 0.571789 0.499999 0.229427
vn -0.470374 0.0248297 -0.882118
v 0.558078 0.457802 0.229427
vn -0.365931 0.296576 -0.882121
v 0.568276 0.477815 0.203907
vn -0.190616 0.0501783 -0.980381
v 0.568276 0.522182 0.229427
vn -0.455017 -0.121736 -0.882123
v 0.542196 0.441921 0.229427
vn -0.2564 0.395134 -0.882116
v 0.558078 0.457802 0.203907
vn -0.165777 0.106631 -0.980381
v 0.571789 0.499999 0.203907
vn -0.196788 -0.0111791 -0.980382
v 0.558078 0.542195 0.229427
vn -0.39514 -0.256394 -0.882115
v 0.522184 0.431723 0.229427
vn -0.121735 0.455021 -0.882121
v 0.542196 0.441921 0.203907
vn -0.124715 0.152635 -0.980382
v 0.568276 0.522182 0.203907
vn -0.183708 -0.0714515 -0.980381
v 0.542197 0.558077 0.229427
vn -0.296572 -0.365936 -0.88212
v 0.5 0.42821 0.229427
vn 0.0248296 0.470369 -0.882121
v 0.522184 0.431723 0.203907
vn -0.0714508 0.183703 -0.980382
v 0.558078 0.542195 0.203907
vn -0.152635 -0.124712 -0.980382
v 0.522184 0.568274 0.229427
vn -0.168974 -0.439678 -0.882117
v 0.477817 0.431723 0.229427
vn 0.168982 0.439677 -0.882116
v 0.5 0.42821 0.203907
vn -0.0111791 0.196793 -0.980381
v 0.542197 0.558077 0.203907
vn -0.106626 -0.165779 -0.980382
v 0.5 0.571788 0.229427
vn -0.0248364 -0.470374 -0.882117
v 0.457804 0.441921 0.229427
vn 0.296562 0.365946 -0.88212
v 0.477817 0.431723 0.203907
vn 0.0501787 0.190612 -0.980382
v 0.522184 0.568274 0.203907
vn -0.0501804 -0.190613 -0.980382
v 0.477817 0.568274 0.229427
vn 0.121744 -0.455021 -0.882119
v 0.441922 0.457802 0.229427
vn 0.395138 0.256391 -0.882117
v 0.457804 0.441921 0.203907
vn 0.106629 0.165781 -0.980381
v 0.5 0.571788 0.203907
vn 0.0111819 -0.196787 -0.980382
v 0.457804 0.558077 0.229427
vn 0.256388 -0.395141 -0.882116
v 0.431725 0.477815 0.229427
vn 0.455023 0.12174 -0.882119
v 0.441922 0.457802 0.203907
vn 0.152634 0.124719 -0.980382
v 0.477817 0.568274 0.203907
vn 0.0714483 -0.183707 -0.980381
v 0.441922 0.542195 0.229427
vn 0.365945 -0.296568 -0.882118
v 0.428211 0.499999 0.229427
vn 0.470369 -0.0248366 -0.88212
v 0.431725 0.477815 0.203907
vn 0.183708 0.0714474 -0.980381
v 0.457804 0.558077 0.203907
vn 0.124716 -0.152637 -0.980382
v 0.431725 0.522182 0.229427
vn 0.439682 -0.168977 -0.882115
v 0.428211 0.499999 0.203907
vn 0.196794 0.0111822 -0.980381
v 0.441922 0.542195 0.203907
vn 0.165781 -0.106626 -0.980381
v 0.431725 0.522182 0.203907
vn 0.190611 -0.0501813 -0.980382
v 0.629064 0.406229 0.204427
vn 0.152565 -0.123985 -0.980485
v 0.651724 0.450701 0.204427
vn 0.183415 -0.0707713 -0.980485
v 0.59377 0.370935 0.204427
vn 0.106787 -0.165063 -0.980485
v 0.659532 0.499999 0.204427
vn 0.19631 -0.0106302 -0.980484
v 0.549298 0.348275 0.204427
vn 0.0505519 -0.189984 -0.980485
v 0.603148 0.358028 0.221094
vn 0.307827 -0.443485 -0.841762
v 0.641971 0.396851 0.221094
vn 0.42981 -0.326658 -0.841759
v 0.666896 0.445771 0.221094
vn 0.509952 -0.178439 -0.841492
v 0.651724 0.549296 0.204427
vn 0.189984 0.0505532 -0.980485
v 0.5 0.340467 0.204427
vn -0.0106288 -0.196307 -0.980485
v 0.554228 0.333102 0.221094
vn 0.187375 -0.535939 -0.823201
v 0.675485 0.499999 0.221094
vn 0.604174 -0.0071458 -0.79682
v 0.629064 0.593769 0.204427
vn 0.165063 0.106785 -0.980485
v 0.450703 0.348275 0.204427
vn -0.0707729 -0.183415 -0.980485
v 0.5 0.324514 0.221094
vn 0.0276136 -0.66977 -0.742055
v 0.569528 0.28601 0.247136
vn 0.246281 -0.513315 -0.822103
v 0.632251 0.31797 0.247136
vn 0.299577 -0.148305 0.942475
v 0.682028 0.367747 0.247136
vn -0.0122665 -0.173906 0.984686
v 0.710571 0.434897 0.24497
vn 0.609421 -0.00318016 -0.79284
v 0.666896 0.554227 0.221094
vn 0.535934 0.187383 -0.823203
v 0.593771 0.629063 0.204427
vn 0.123986 0.152567 -0.980485
v 0.406231 0.370935 0.204427
vn -0.123985 -0.152565 -0.980485
v 0.445773 0.333102 0.221094
vn -0.17717 -0.509441 -0.842069
v 0.50828 0.317809 0.225311
vn 0.0162506 -0.571323 -0.820564
v 0.564584 0.289429 0.244927
vn -0.00369189 -0.616674 -0.78721
v 0.713988 0.430471 0.247136
vn 0.564812 -0.265286 -0.781416
v 0.68219 0.491719 0.225311
vn 0.636241 0.0396526 -0.770471
v 0.682191 0.50828 0.225311
vn 0.571316 0.0162523 -0.820569
v 0.641971 0.603146 0.221094
vn 0.443491 0.307829 -0.841759
v 0.549298 0.651723 0.204427
vn 0.0707718 0.183415 -0.980485
v 0.370937 0.406229 0.204427
vn -0.165064 -0.106788 -0.980485
v 0.396853 0.358028 0.221094
vn -0.326657 -0.429806 -0.841761
v 0.710571 0.564584 0.244927
vn 0.61668 -0.00367361 -0.787205
v 0.713988 0.569527 0.247136
vn 0.51332 0.246294 -0.822096
v 0.603148 0.641969 0.221094
vn 0.326663 0.429813 -0.841756
v 0.5 0.659531 0.204427
vn 0.0106301 0.196309 -0.980484
v 0.348277 0.450701 0.204427
vn -0.189984 -0.050552 -0.980485
v 0.35803 0.396851 0.221094
vn -0.443486 -0.307825 -0.841762
v 0.36775 0.31797 0.247136
vn -0.173724 -0.0104172 0.984739
v 0.430472 0.28601 0.247136
vn -0.265278 -0.564814 -0.781417
v 0.434898 0.289429 0.24497
vn 0.00359408 -0.622255 -0.782806
v 0.566251 0.277954 0.265036
vn 0.220213 -0.0607048 0.973561
v 0.682028 0.63225 0.247136
vn 0.518397 0.40071 -0.755444
v 0.554228 0.666895 0.221094
vn 0.177173 0.509447 -0.842065
v 0.450703 0.651723 0.204427
vn -0.0505536 0.189983 -0.980485
v 0.340469 0.499999 0.204427
vn -0.196309 0.0106288 -0.980485
v 0.333104 0.445771 0.221094
vn -0.535939 -0.187377 -0.823201
v 0.317972 0.367747 0.247136
vn 0.0746851 -0.156588 0.984836
v 0.49172 0.317809 0.225311
vn -0.0212859 -0.547605 -0.836466
v 0.722043 0.433749 0.265036
vn -0.229417 -0.0865922 0.969469
v 0.632251 0.682027 0.247136
vn 0.00317436 0.0366494 0.999323
v 0.5 0.675484 0.221094
vn -0.0276126 0.669767 -0.742058
v 0.406231 0.629063 0.204427
vn -0.106788 0.165064 -0.980485
v 0.348277 0.549296 0.204427
vn -0.183414 0.0707726 -0.980485
v 0.324516 0.499999 0.221094
vn -0.669749 -0.0276134 -0.742074
v 0.286013 0.430471 0.247136
vn -0.513334 -0.246284 -0.82209
v 0.722044 0.56625 0.265037
vn 0.755137 0.364242 0.545065
v 0.569528 0.713986 0.247136
vn 0.265282 0.564822 -0.78141
v 0.445773 0.666895 0.221094
vn -0.187386 0.53594 -0.823198
v 0.370937 0.593769 0.204427
vn -0.152567 0.123985 -0.980485
v 0.333104 0.554227 0.221094
vn -0.509437 0.177172 -0.842071
v 0.31781 0.491719 0.225311
vn -0.571328 -0.0162624 -0.82056
v 0.28943 0.435415 0.244928
vn -0.616693 0.00368021 -0.787195
v 0.734552 0.491719 0.272939
vn -0.195595 -0.0708859 0.97812
v 0.565102 0.71057 0.244971
vn -0.00357332 0.622259 -0.782803
v 0.49172 0.68219 0.225311
vn -0.0162547 0.571323 -0.820564
v 0.396853 0.641969 0.221094
vn -0.30783 0.44349 -0.841758
v 0.35803 0.603146 0.221094
vn -0.429804 0.326661 -0.841761
v 0.317809 0.50828 0.225311
vn -0.547598 0.0212898 -0.83647
v 0.277956 0.433749 0.265039
vn 0.0812923 -0.161611 0.983501
v 0.43375 0.277954 0.265037
vn -0.169878 0.0658627 0.983262
v 0.50828 0.265447 0.272938
vn 0.114827 -0.0750865 0.990544
v 0.734553 0.50828 0.272939
vn 0.677087 0.168497 0.716353
v 0.430472 0.713986 0.247136
vn -0.246289 0.513323 -0.822095
v 0.317972 0.63225 0.247136
vn -0.7306 0.570259 -0.375537
v 0.286013 0.569527 0.247136
vn -0.564829 0.265289 -0.781403
v 0.289429 0.565102 0.244971
vn -0.622269 -0.00356904 -0.782796
v 0.49172 0.265447 0.272938
vn -0.0986348 0.0403587 0.994305
v 0.566251 0.722043 0.265038
vn 0.157818 -0.093215 0.983059
v 0.435416 0.71057 0.244928
vn 0.00366535 0.616685 -0.787201
v 0.36775 0.682027 0.247136
vn -0.400706 0.518397 -0.755446
v 0.508281 0.734552 0.27294
vn 0.126257 -0.101114 0.986831
v 0.50828 0.682189 0.225311
vn 0.0212962 0.547602 -0.836468
v 0.433749 0.722043 0.265038
vn -0.384926 0.574844 0.722071
v 0.265448 0.491719 0.27294
vn -0.0566348 -0.110624 0.992247
v 0.277956 0.56625 0.265039
vn -0.416146 0.287574 0.862626
v 0.49172 0.734552 0.27294
vn -0.161286 0.307786 0.937686
f 101//101 107//107 93//93
f 101//101 123//123 107//107
f 101//101 114//114 123//123
f 101//101 100//100 114//114
f 101//101 68//68 100//100
f 101//101 67//67 68//68
f 101//101 92//92 67//67
f 101//101 122//122 92//92
f 101//101 128//128 122//122
f 101//101 121//121 128//128
f 101//101 89//89 121//121
f 101//101 98//98 89//89
f 101//101 129//129 98//98
f 129//129 132//132 98//98
f 132//132 120//120 98//98
f 132//132 135//135 120//120
f 132//132 1//1 135//135
f 132//132 137//137 1//1
f 137//137 136//136 1//1
f 137//137 134//134 136//136
f 134//134 125//125 136//136
f 134//134 131//131 125//125
f 89//89 90//90 121//121
f 68//68 76//76 100//100
f 125//125 126//126 136//136
f 101//101 108//108 129//129
f 92//92 66//66 67//67
f 120//120 106//106 98//98
f 107//107 84//84 93//93
f 134//134 124//124 131//131
f 92//92 122//122 3//3
f 121//121 90//90 91//91
f 74//74 75//75 3//3
f 92//92 75//75 66//66
f 75//75 92//92 3//3
f 2//2 121//121 91//91
f 2//2 99//99 74//74
f 128//128 2//2 122//122
f 2//2 91//91 99//99
f 3//3 2//2 74//74
f 3//3 122//122 2//2
f 128//128 121//121 2//2
f 107//107 123//123 5//5
f 100//100 76//76 69//69
f 78//78 83//83 5//5
f 107//107 83//83 84//84
f 83//83 107//107 5//5
f 4//4 100//100 69//69
f 4//4 77//77 78//78
f 114//114 4//4 123//123
f 4//4 69//69 77//77
f 5//5 4//4 78//78
f 114//114 100//100 4//4
f 5//5 123//123 4//4
f 120//120 135//135 7//7
f 136//136 126//126 127//127
f 112//112 113//113 7//7
f 120//120 113//113 106//106
f 113//113 120//120 7//7
f 6//6 136//136 127//127
f 6//6 119//119 112//112
f 1//1 6//6 135//135
f 6//6 127//127 119//119
f 7//7 6//6 112//112
f 7//7 135//135 6//6
f 1//1 136//136 6//6
f 134//134 137//137 9//9
f 129//129 108//108 115//115
f 116//116 130//130 9//9
f 134//134 130//130 124//124
f 130//130 134//134 9//9
f 8//8 129//129 115//115
f 8//8 133//133 116//116
f 132//132 8//8 137//137
f 8//8 115//115 133//133
f 9//9 8//8 116//116
f 9//9 137//137 8//8
f 132//132 129//129 8//8
f 119//119 111//111 105//105
f 111//111 119//119 127//127
f 99//99 91//91 73//73
f 99//99 73//73 65//65
f 133//133 115//115 94//94
f 133//133 94//94 102//102
f 116//116 109//109 130//130
f 133//133 102//102 116//116
f 111//111 126//126 125//125
f 118//118 125//125 131//131
f 118//118 131//131 117//117
f 117//117 131//131 124//124
f 130//130 109//109 124//124
f 111//111 127//127 126//126
f 111//111 125//125 118//118
f 110//110 118//118 117//117
f 117//117 124//124 109//109
f 112//112 97//97 113//113
f 105//105 112//112 119//119
f 104//104 111//111 118//118
f 104//104 118//118 110//110
f 110//110 117//117 103//103
f 103//103 117//117 109//109
f 102//102 109//109 116//116
f 94//94 115//115 108//108
f 113//113 97//97 106//106
f 105//105 97//97 112//112
f 96//96 105//105 111//111
f 96//96 111//111 104//104
f 50//50 104//104 110//110
f 50//50 110//110 49//49
f 49//49 110//110 103//103
f 103//103 109//109 95//95
f 95//95 109//109 102//102
f 94//94 108//108 101//101
f 88//88 98//98 106//106
f 88//88 106//106 97//97
f 87//87 97//97 105//105
f 87//87 105//105 96//96
f 48//48 96//96 104//104
f 48//48 104//104 50//50
f 49//49 103//103 46//46
f 46//46 103//103 95//95
f 95//95 102//102 86//86
f 86//86 102//102 94//94
f 94//94 101//101 85//85
f 85//85 101//101 93//93
f 99//99 65//65 74//74
f 73//73 90//90 89//89
f 82//82 89//89 98//98
f 82//82 98//98 88//88
f 81//81 88//88 97//97
f 81//81 97//97 87//87
f 45//45 87//87 96//96
f 45//45 96//96 48//48
f 46//46 95//95 42//42
f 42//42 95//95 86//86
f 86//86 94//94 80//80
f 80//80 94//94 85//85
f 85//85 93//93 79//79
f 79//79 93//93 84//84
f 83//83 70//70 84//84
f 77//77 62//62 78//78
f 73//73 91//91 90//90
f 73//73 89//89 82//82
f 72//72 82//82 88//88
f 72//72 88//88 81//81
f 41//41 81//81 87//87
f 41//41 87//87 45//45
f 42//42 86//86 38//38
f 38//38 86//86 80//80
f 80//80 85//85 71//71
f 71//71 85//85 79//79
f 79//79 84//84 70//70
f 78//78 70//70 83//83
f 74//74 61//61 75//75
f 64//64 73//73 82//82
f 64//64 82//82 72//72
f 37//37 72//72 81//81
f 37//37 81//81 41//41
f 38//38 80//80 34//34
f 34//34 80//80 71//71
f 71//71 79//79 63//63
f 63//63 79//79 70//70
f 62//62 70//70 78//78
f 69//69 62//62 77//77
f 58//58 69//69 76//76
f 58//58 76//76 68//68
f 57//57 68//68 67//67
f 56//56 67//67 66//66
f 75//75 61//61 66//66
f 65//65 61//61 74//74
f 60//60 65//65 73//73
f 60//60 73//73 64//64
f 33//33 64//64 72//72
f 33//33 72//72 37//37
f 34//34 71//71 30//30
f 30//30 71//71 63//63
f 63//63 70//70 59//59
f 59//59 70//70 62//62
f 58//58 62//62 69//69
f 58//58 68//68 57//57
f 57//57 67//67 56//56
f 56//56 66//66 61//61
f 55//55 61//61 65//65
f 55//55 65//65 60//60
f 29//29 60//60 64//64
f 29//29 64//64 33//33
f 30//30 63//63 26//26
f 26//26 63//63 59//59
f 59//59 62//62 54//54
f 54//54 62//62 58//58
f 52//52 58//58 57//57
f 51//51 57//57 56//56
f 53//53 56//56 61//61
f 53//53 61//61 55//55
f 25//25 55//55 60//60
f 25//25 60//60 29//29
f 26//26 59//59 22//22
f 22//22 59//59 54//54
f 54//54 58//58 52//52
f 52//52 57//57 51//51
f 51//51 56//56 53//53
f 21//21 53//53 55//55
f 21//21 55//55 25//25
f 22//22 54//54 18//18
f 18//18 54//54 52//52
f 14//14 52//52 51//51
f 17//17 51//51 53//53
f 17//17 53//53 21//21
f 18//18 52//52 14//14
f 14//14 51//51 17//17
f 47//47 50//50 49//49
f 44//44 48//48 50//50
f 44//44 50//50 47//47
f 47//47 49//49 43//43
f 43//43 49//49 46//46
f 40//40 45//45 48//48
f 40//40 48//48 44//44
f 10//10 44//44 47//47
f 10//10 47//47 43//43
f 43//43 46//46 39//39
f 39//39 46//46 42//42
f 36//36 41//41 45//45
f 36//36 45//45 40//40
f 10//10 40//40 44//44
f 10//10 43//43 39//39
f 39//39 42//42 35//35
f 35//35 42//42 38//38
f 32//32 37//37 41//41
f 32//32 41//41 36//36
f 10//10 36//36 40//40
f 10//10 39//39 35//35
f 35//35 38//38 31//31
f 31//31 38//38 34//34
f 28//28 33//33 37//37
f 28//28 37//37 32//32
f 10//10 32//32 36//36
f 10//10 35//35 31//31
f 31//31 34//34 27//27
f 27//27 34//34 30//30
f 24//24 29//29 33//33
f 24//24 33//33 28//28
f 10//10 28//28 32//32
f 10//10 31//31 27//27
f 27//27 30//30 23//23
f 23//23 30//30 26//26
f 20//20 25//25 29//29
f 20//20 29//29 24//24
f 10//10 24//24 28//28
f 10//10 27//27 23//23
f 23//23 26//26 19//19
f 19//19 26//26 22//22
f 16//16 21//21 25//25
f 16//16 25//25 20//20
f 10//10 20//20 24//24
f 10//10 23//23 19//19
f 19//19 22//22 15//15
f 15//15 22//22 18//18
f 13//13 17//17 21//21
f 13//13 21//21 16//16
f 10//10 16//16 20//20
f 10//10 19//19 15//15
f 15//15 18//18 12//12
f 12//12 18//18 14//14
f 11//11 14//14 17//17
f 11//11 17//17 13//13
f 10//10 13//13 16//16
f 10//10 15//15 12//12
f 12//12 14//14 11//11
f 10//10 11//11 13//13
f 10//10 12//12 11//11
