# Blender 4.2.3 LTS
# www.blender.org
o D01155
v 0.549317 0.337514 0.150001
v 0.535089 0.342340 0.158070
v 0.517017 0.341479 0.153365
v 0.531293 0.336647 0.145486
v 0.551165 0.368573 0.130204
v 0.534159 0.378175 0.136021
v 0.513453 0.373203 0.134127
v 0.530517 0.363594 0.128567
v 0.543793 0.375963 0.093930
v 0.524754 0.386734 0.093163
v 0.504961 0.380731 0.097974
v 0.523969 0.369963 0.098602
v 0.523157 0.259152 0.111286
v 0.513175 0.251895 0.112609
v 0.504970 0.261387 0.113388
v 0.514975 0.268644 0.112114
v 0.528937 0.266352 0.130180
v 0.518657 0.260252 0.133185
v 0.509382 0.268756 0.132394
v 0.519602 0.274866 0.129189
v 0.539489 0.297275 0.146032
v 0.527596 0.295937 0.151786
v 0.514359 0.300358 0.148720
v 0.526207 0.301702 0.142816
v 0.431374 0.337514 0.150001
v 0.445601 0.342340 0.158070
v 0.463673 0.341479 0.153365
v 0.449397 0.336647 0.145486
v 0.429525 0.368573 0.130204
v 0.446531 0.378175 0.136021
v 0.467240 0.373203 0.134127
v 0.450174 0.363594 0.128567
v 0.436897 0.375963 0.093930
v 0.455936 0.386734 0.093163
v 0.475733 0.380731 0.097974
v 0.456721 0.369963 0.098602
v 0.457534 0.259152 0.111286
v 0.467515 0.251895 0.112609
v 0.475720 0.261387 0.113391
v 0.465715 0.268644 0.112114
v 0.451753 0.266352 0.130180
v 0.462036 0.260252 0.133185
v 0.471308 0.268756 0.132394
v 0.461091 0.274866 0.129189
v 0.441204 0.297275 0.146032
v 0.453094 0.295937 0.151786
v 0.466331 0.300358 0.148720
v 0.454483 0.301702 0.142816
v 0.942605 0.034610 0.025000
v 0.950965 0.975000 0.025000
v 0.029179 0.975000 0.025000
v 0.025000 0.034610 0.025000
v 0.850593 0.029276 0.025000
v 0.854869 0.867587 0.025000
v 0.123486 0.867587 0.025000
v 0.119210 0.025000 0.025000
v 0.942605 0.034610 0.111761
v 0.950965 0.975000 0.111761
v 0.029179 0.975000 0.111764
v 0.025000 0.034610 0.111764
v 0.850593 0.029276 0.111761
v 0.854869 0.867587 0.111761
v 0.123486 0.867587 0.111764
v 0.119210 0.025000 0.111764
v 0.848488 0.033278 0.050809
v 0.850569 0.857079 0.050809
v 0.495136 0.857079 0.050809
v 0.486701 0.041861 0.050809
v 0.846371 0.037515 0.085951
v 0.848449 0.857079 0.085951
v 0.493019 0.857079 0.085951
v 0.490939 0.043981 0.085951
v 0.484008 0.033278 0.050809
v 0.486088 0.857079 0.050809
v 0.130656 0.857079 0.050809
v 0.122221 0.041861 0.050809
v 0.481890 0.037515 0.085951
v 0.483968 0.857079 0.085951
v 0.128539 0.857079 0.085951
v 0.126458 0.043981 0.085951
v 0.790192 0.778303 0.102927
v 0.787721 0.490194 0.102927
v 0.548093 0.490194 0.102927
v 0.548093 0.778303 0.102927
v 0.767958 0.753599 0.102927
v 0.570327 0.753599 0.102927
v 0.767958 0.513973 0.102927
v 0.570327 0.513973 0.102927
v 0.780310 0.765951 0.137634
v 0.780310 0.501621 0.137634
v 0.557975 0.501621 0.137634
v 0.557975 0.765951 0.137634
v 0.425711 0.778303 0.102927
v 0.423241 0.490194 0.102927
v 0.183613 0.490194 0.102927
v 0.183613 0.778303 0.102927
v 0.403477 0.753599 0.102927
v 0.205847 0.753599 0.102927
v 0.403477 0.513973 0.102927
v 0.205847 0.513973 0.102927
v 0.415829 0.765951 0.137634
v 0.415829 0.501621 0.137634
v 0.193495 0.501621 0.137634
v 0.193495 0.765951 0.137634
v 0.425711 0.412015 0.102927
v 0.423241 0.123907 0.102927
v 0.183613 0.123907 0.102927
v 0.183613 0.412015 0.102927
v 0.403477 0.387311 0.102927
v 0.205847 0.387311 0.102927
v 0.403477 0.147684 0.102927
v 0.205847 0.147684 0.102927
v 0.415829 0.399664 0.137634
v 0.415829 0.135332 0.137634
v 0.193495 0.135332 0.137634
v 0.193495 0.399664 0.137634
v 0.790192 0.412015 0.102927
v 0.787721 0.123907 0.102927
v 0.548093 0.123907 0.102927
v 0.548093 0.412015 0.102927
v 0.767958 0.387311 0.102927
v 0.570327 0.387311 0.102927
v 0.767958 0.147684 0.102927
v 0.570327 0.147684 0.102927
v 0.780310 0.399664 0.137634
v 0.780310 0.135332 0.137634
v 0.557975 0.135332 0.137634
v 0.557975 0.399664 0.137634
vn 0.5512 0.4476 0.7042
vn 0.5037 0.4428 0.7417
vn -0.2421 0.4831 0.8414
vn -0.1990 0.5098 0.8370
vn -0.5433 -0.4576 -0.7039
vn -0.5064 -0.4880 -0.7109
vn 0.2297 -0.5328 -0.8145
vn 0.1910 -0.5180 -0.8338
vn 0.5064 0.8602 0.0606
vn 0.4885 0.8691 0.0778
vn -0.2477 0.9352 0.2529
vn -0.2283 0.9439 0.2386
vn -0.5071 -0.8589 -0.0718
vn -0.4902 -0.8691 -0.0658
vn 0.2455 -0.9389 -0.2412
vn 0.2262 -0.9416 -0.2496
vn 0.5942 -0.7879 0.1617
vn 0.5369 -0.8299 0.1520
vn -0.6779 -0.6186 0.3972
vn -0.6297 -0.6467 0.4304
vn -0.5930 0.7948 -0.1290
vn -0.5469 0.8155 -0.1892
vn 0.6629 0.6094 -0.4350
vn 0.6379 0.6517 -0.4103
vn 0.5013 -0.4954 0.7094
vn 0.4181 -0.5233 0.7425
vn -0.4082 -0.3674 0.8357
vn -0.3255 -0.3717 0.8694
vn -0.5125 0.4857 -0.7081
vn -0.4364 0.4663 -0.7695
vn 0.3803 0.3158 -0.8693
vn 0.3314 0.3611 -0.8717
vn 0.4448 -0.1903 0.8752
vn 0.4338 -0.1928 0.8802
vn -0.2539 -0.0924 0.9628
vn -0.2469 -0.0908 0.9648
vn -0.4541 0.1334 -0.8809
vn -0.4454 0.1289 -0.8860
vn 0.2463 0.0354 -0.9685
vn 0.2410 0.0390 -0.9697
vn -0.5512 0.4476 0.7042
vn -0.5037 0.4428 0.7417
vn 0.2421 0.4831 0.8415
vn 0.1989 0.5098 0.8370
vn 0.5433 -0.4576 -0.7038
vn 0.5064 -0.4880 -0.7109
vn -0.2297 -0.5328 -0.8145
vn -0.1910 -0.5180 -0.8338
vn -0.5064 0.8602 0.0606
vn -0.4885 0.8691 0.0778
vn 0.2477 0.9352 0.2529
vn 0.2282 0.9439 0.2386
vn 0.5070 -0.8589 -0.0718
vn 0.4901 -0.8692 -0.0658
vn -0.2455 -0.9389 -0.2412
vn -0.2262 -0.9416 -0.2495
vn -0.5943 -0.7878 0.1617
vn -0.5368 -0.8299 0.1520
vn 0.6778 -0.6186 0.3973
vn 0.6298 -0.6467 0.4303
vn 0.5930 0.7948 -0.1290
vn 0.5470 0.8155 -0.1892
vn -0.6629 0.6093 -0.4350
vn -0.6378 0.6518 -0.4102
vn -0.5012 -0.4954 0.7095
vn -0.4182 -0.5233 0.7425
vn 0.4083 -0.3674 0.8357
vn 0.3255 -0.3716 0.8694
vn 0.5126 0.4857 -0.7080
vn 0.4364 0.4663 -0.7695
vn -0.3803 0.3159 -0.8693
vn -0.3315 0.3610 -0.8717
vn -0.4449 -0.1904 0.8751
vn -0.4338 -0.1928 0.8801
vn 0.2539 -0.0924 0.9628
vn 0.2469 -0.0908 0.9648
vn 0.4541 0.1334 -0.8809
vn 0.4454 0.1289 -0.8860
vn -0.2464 0.0354 -0.9685
vn -0.2411 0.0390 -0.9697
vn -0.0000 -0.0000 1.0000
vn -0.0000 -0.0000 -1.0000
vn -0.0000 1.0000 -0.0000
vn -0.0000 -1.0000 -0.0000
vn 0.0579 -0.9983 -0.0000
vn -1.0000 0.0051 -0.0000
vn 1.0000 -0.0051 -0.0000
vn -0.1015 -0.9948 -0.0000
vn -1.0000 0.0044 -0.0000
vn 1.0000 -0.0089 -0.0000
vn 0.9982 -0.0025 0.0604
vn 0.9982 -0.0025 0.0602
vn -0.9981 0.0103 -0.0601
vn -0.9928 0.0025 0.1196
vn 0.9982 -0.0025 0.0605
vn -0.9928 0.0025 0.1195
vn -0.0000 -0.9421 0.3353
vn -0.0000 0.9421 0.3353
vn -0.9421 -0.0000 0.3353
vn 0.9618 -0.0000 0.2738
vn 0.9774 -0.0084 0.2115
vn -0.0000 -0.9498 0.3127
vn 0.9421 -0.0000 0.3353
vn -0.9618 -0.0000 0.2738
vn 0.9773 -0.0084 0.2115
vn -0.0000 -0.9499 0.3127
vn -0.1352 -0.2999 -0.9443
vn -0.1168 -0.0168 -0.9930
vn 0.1352 -0.2999 -0.9443
vn 0.1170 -0.0168 -0.9930
vn -0.0009 -0.0432 0.9991
vn -0.0010 -0.0432 0.9991
vn -0.0008 -0.0432 0.9991
s 0
f 1//1 6//1 2//1
f 1//2 5//2 6//2
f 2//3 7//3 3//3
f 2//4 6//4 7//4
f 3//5 8//5 4//5
f 3//6 7//6 8//6
f 4//7 5//7 1//7
f 4//8 8//8 5//8
f 5//9 10//9 6//9
f 5//10 9//10 10//10
f 6//11 11//11 7//11
f 6//12 10//12 11//12
f 7//13 12//13 8//13
f 7//14 11//14 12//14
f 8//15 9//15 5//15
f 8//16 12//16 9//16
f 13//17 18//17 14//17
f 13//18 17//18 18//18
f 14//19 19//19 15//19
f 14//20 18//20 19//20
f 15//21 20//21 16//21
f 15//22 19//22 20//22
f 16//23 17//23 13//23
f 16//24 20//24 17//24
f 17//25 22//25 18//25
f 17//26 21//26 22//26
f 18//27 23//27 19//27
f 18//28 22//28 23//28
f 19//29 24//29 20//29
f 19//30 23//30 24//30
f 20//31 21//31 17//31
f 20//32 24//32 21//32
f 21//33 2//33 22//33
f 21//34 1//34 2//34
f 22//35 3//35 23//35
f 22//36 2//36 3//36
f 23//37 4//37 24//37
f 23//38 3//38 4//38
f 24//39 1//39 21//39
f 24//40 4//40 1//40
f 26//41 30//41 25//41
f 30//42 29//42 25//42
f 27//43 31//43 26//43
f 31//44 30//44 26//44
f 28//45 32//45 27//45
f 32//46 31//46 27//46
f 25//47 29//47 28//47
f 29//48 32//48 28//48
f 30//49 34//49 29//49
f 34//50 33//50 29//50
f 31//51 35//51 30//51
f 35//52 34//52 30//52
f 32//53 36//53 31//53
f 36//54 35//54 31//54
f 29//55 33//55 32//55
f 33//56 36//56 32//56
f 38//57 42//57 37//57
f 42//58 41//58 37//58
f 39//59 43//59 38//59
f 43//60 42//60 38//60
f 40//61 44//61 39//61
f 44//62 43//62 39//62
f 37//63 41//63 40//63
f 41//64 44//64 40//64
f 42//65 46//65 41//65
f 46//66 45//66 41//66
f 43//67 47//67 42//67
f 47//68 46//68 42//68
f 44//69 48//69 43//69
f 48//70 47//70 43//70
f 41//71 45//71 44//71
f 45//72 48//72 44//72
f 46//73 26//73 45//73
f 26//74 25//74 45//74
f 47//75 27//75 46//75
f 27//76 26//76 46//76
f 48//77 28//77 47//77
f 28//78 27//78 47//78
f 45//79 25//79 48//79
f 25//80 28//80 48//80
f 59//81 63//81 58//81
f 58//81 63//81 62//81
f 49//82 53//82 54//82
f 61//81 57//81 62//81
f 60//81 64//81 63//81
f 63//81 59//81 60//81
f 58//81 62//81 57//81
f 50//83 51//83 59//83
f 59//83 58//83 50//83
f 55//84 54//84 62//84
f 62//84 63//84 55//84
f 53//85 49//85 57//85
f 57//85 61//85 53//85
f 54//86 53//86 61//86
f 61//86 62//86 54//86
f 56//87 55//87 63//87
f 63//87 64//87 56//87
f 52//88 56//88 64//88
f 64//88 60//88 52//88
f 51//89 52//89 60//89
f 60//89 59//89 51//89
f 49//90 50//90 58//90
f 58//90 57//90 49//90
f 67//83 70//83 66//83
f 70//83 67//83 71//83
f 66//91 69//91 65//91
f 69//92 66//92 70//92
f 68//93 71//93 67//93
f 71//94 68//94 72//94
f 67//82 65//82 68//82
f 66//82 65//82 67//82
f 75//83 78//83 74//83
f 78//83 75//83 79//83
f 74//95 77//95 73//95
f 77//92 74//92 78//92
f 76//93 79//93 75//93
f 79//96 76//96 80//96
f 75//82 73//82 76//82
f 74//82 73//82 75//82
f 89//97 86//97 85//97
f 92//97 86//97 89//97
f 81//98 84//98 89//98
f 84//98 92//98 89//98
f 89//99 85//99 87//99
f 90//99 89//99 87//99
f 81//100 89//100 90//100
f 90//101 82//101 81//101
f 90//102 83//102 82//102
f 91//102 83//102 90//102
f 87//98 91//98 90//98
f 88//98 91//98 87//98
f 86//103 92//103 88//103
f 92//103 91//103 88//103
f 92//104 84//104 91//104
f 84//104 83//104 91//104
f 101//97 98//97 97//97
f 104//97 98//97 101//97
f 93//98 96//98 101//98
f 96//98 104//98 101//98
f 101//99 97//99 99//99
f 102//99 101//99 99//99
f 93//100 101//100 102//100
f 102//105 94//105 93//105
f 102//102 95//102 94//102
f 103//102 95//102 102//102
f 99//98 103//98 102//98
f 100//98 103//98 99//98
f 98//103 104//103 100//103
f 104//103 103//103 100//103
f 104//104 96//104 103//104
f 96//104 95//104 103//104
f 113//97 110//97 109//97
f 116//97 110//97 113//97
f 105//98 108//98 113//98
f 108//98 116//98 113//98
f 113//99 109//99 111//99
f 114//99 113//99 111//99
f 105//100 113//100 114//100
f 114//105 106//105 105//105
f 114//106 107//106 106//106
f 115//106 107//106 114//106
f 111//98 115//98 114//98
f 112//98 115//98 111//98
f 110//103 116//103 112//103
f 116//103 115//103 112//103
f 116//104 108//104 115//104
f 108//104 107//104 115//104
f 125//97 122//97 121//97
f 128//97 122//97 125//97
f 117//98 120//98 125//98
f 120//98 128//98 125//98
f 125//99 121//99 123//99
f 126//99 125//99 123//99
f 117//100 125//100 126//100
f 126//101 118//101 117//101
f 126//106 119//106 118//106
f 127//106 119//106 126//106
f 123//98 127//98 126//98
f 124//98 127//98 123//98
f 122//103 128//103 124//103
f 128//103 127//103 124//103
f 128//104 120//104 127//104
f 120//104 119//104 127//104
f 12//107 10//107 9//107
f 16//108 14//108 15//108
f 36//109 34//109 35//109
f 40//110 38//110 37//110
f 55//82 52//82 51//82
f 69//111 72//111 65//112
f 77//111 80//111 73//111
f 85//81 88//81 87//81
f 82//82 84//82 81//82
f 97//81 100//81 99//81
f 94//82 96//82 93//82
f 109//81 112//81 111//81
f 106//82 108//82 105//82
f 121//81 124//81 123//81
f 118//82 120//82 117//82
f 12//107 11//107 10//107
f 16//108 13//108 14//108
f 36//109 33//109 34//109
f 40//110 39//110 38//110
f 50//82 49//82 54//82
f 55//82 56//82 52//82
f 50//82 54//82 51//82
f 54//82 55//82 51//82
f 69//111 70//111 72//111
f 70//111 71//111 72//111
f 72//111 68//112 65//113
f 77//111 78//111 80//111
f 78//111 79//111 80//111
f 80//111 76//113 73//113
f 85//81 86//81 88//81
f 82//82 83//82 84//82
f 97//81 98//81 100//81
f 94//82 95//82 96//82
f 109//81 110//81 112//81
f 106//82 107//82 108//82
f 121//81 122//81 124//81
f 118//82 119//82 120//82
