# Created by Open3D 
# object name: m1215
# number of vertices: 131
# number of triangles: 258
v 0.085969 0.219147 0.818052
vn -0.99972 0.0216495 0.00958932
v 0.095285 0.354029 0.912303
vn 0.960347 -0.192482 0.201701
v 0.095285 0.365625 0.912301
vn 0.458492 0.885896 0.07052
v 0.09065 0.366936 0.912265
vn -0.91714 0.328749 0.225342
v 0.097433 0.416914 0.842331
vn 0.995202 0.044366 0.0872063
v 0.098297 0.419877 0.759837
vn 0.991291 0.129856 0.0218916
v 0.104956 0.365094 0.842393
vn 0.968062 0.212738 0.132661
v 0.111258 0.359961 0.759942
vn 0.997647 0.0520176 0.0446574
v 0.0983 0.300045 0.759843
vn 0.985488 -0.166287 0.0340842
v 0.104956 0.354837 0.842393
vn 0.959974 -0.248531 0.129159
v 0.082446 0.353677 0.842215
vn -0.926143 -0.228977 0.299714
v 0.082446 0.366253 0.842215
vn -0.942725 0.146434 0.29971
v 0.061558 0.366248 0.75955
vn -0.972669 -1.02019e-05 0.232195
v 0.082444 0.416875 0.842212
vn -0.971718 0.117943 0.204581
v 0.061557 0.410373 0.759547
vn -0.938082 0.30006 0.173109
v 0.087478 0.459486 0.937108
vn -0.999189 -0.00108953 0.0402519
v 0.081798 0.424163 0.903865
vn -0.972252 -0.21158 0.0998028
v 0.096787 0.424208 0.903983
vn 0.995822 -0.00056267 0.0913124
v 0.089494 0.46852 0.821344
vn 0.994527 0.103966 0.0103389
v 0.09065 0.352719 0.912265
vn -0.664254 -0.740416 0.102715
v 0.087578 0.454032 0.82133
vn -0.998467 0.0551984 0.00416532
v 0.086573 0.461263 0.759742
vn -0.99586 0.0500287 0.0758911
v 0.0895 0.251407 0.821356
vn 0.987208 -0.158427 0.0179151
v 0.086579 0.258657 0.759752
vn -0.988092 -0.104491 0.112943
v 0.095583 0.251404 0.759825
vn 0.995053 -0.0953229 0.0279923
v 0.06156 0.309546 0.759552
vn -0.929242 -0.244114 0.277341
v 0.09679 0.295446 0.903991
vn 0.985532 0.0976125 0.138557
v 0.097436 0.303016 0.842337
vn 0.990612 -0.131985 0.0356184
v 0.088236 0.254455 0.941986
vn 0.566863 -0.668877 0.480905
v 0.061558 0.353672 0.75955
vn -0.975708 -1.82566e-05 0.219075
v 0.08823 0.465389 0.941974
vn 0.995854 0.0867368 0.0274167
v 0.042538 0.353667 0.669655
vn -0.996366 -1.20058e-05 0.0851763
v 0.042538 0.366242 0.669653
vn -0.991839 -1.06938e-05 0.127498
v 0.02982 0.366231 0.454585
vn -0.998255 -1.44473e-05 0.0590577
v 0.042537 0.410368 0.669652
vn -0.947748 0.306678 0.0878778
v 0.029819 0.410356 0.454583
vn -0.826324 0.562775 0.0217339
v 0.099237 0.421496 0.670099
vn 0.984795 0.173446 0.00977642
v 0.101489 0.423109 0.455149
vn 0.97525 0.221009 0.00646776
v 0.093331 0.468859 0.455082
vn 0.438689 0.887441 -0.141426
v 0.09924 0.298416 0.670106
vn 0.984065 -0.177439 0.0114877
v 0.101492 0.29678 0.455156
vn 0.982541 -0.186006 0.00390773
v 0.117169 0.359945 0.455276
vn 0.999056 -0.0417312 0.0120358
v 0.114917 0.359956 0.670227
vn 0.999087 0.0390907 0.0172113
v 0.096517 0.46887 0.670076
vn 0.995365 0.0960012 -0.00563086
v 0.082506 0.458538 0.669964
vn -0.977309 0.21172 -0.00646419
v 0.042539 0.309541 0.669657
vn -0.866671 -0.494061 0.0691817
v 0.029821 0.30953 0.454588
vn -0.904519 -0.423059 0.0535396
v 0.093337 0.251031 0.455094
vn -0.552051 -0.828883 -0.0905114
v 0.082511 0.261374 0.669975
vn -0.996225 -0.0856582 -0.0140648
v 0.096523 0.251042 0.670087
vn 0.994516 -0.104484 -0.00450972
v 0.02982 0.353655 0.454586
vn -0.998252 -1.79628e-05 0.0591
v 0.095577 0.468517 0.759813
vn 0.994877 0.0987765 0.0215138
v 0.126387 0.381834 0.318082
vn 0.656053 0.749044 0.0923434
v 0.125042 0.381832 0.273146
vn 0.597669 0.801238 -0.0284276
v 0.085896 0.408323 0.265448
vn -0.0214949 0.977813 -0.208373
v 0.131792 0.369707 0.318151
vn 0.952958 0.227266 0.200551
v 0.14073 0.369705 0.284898
vn 0.795557 0.58496 0.157829
v 0.026344 0.410348 0.309901
vn -0.721583 0.669613 -0.175884
v 0.025 0.366221 0.264968
vn -0.684875 0.624441 -0.375526
v 0.026345 0.366223 0.309903
vn -1 -1.92551e-05 -0.000107877
v 0.092678 0.452451 0.310424
vn 0.124526 0.853731 -0.505605
v 0.092679 0.408325 0.310426
vn 0.922218 0.382391 -0.0573731
v 0.131792 0.349118 0.318152
vn 0.959082 -0.164166 0.230674
v 0.140731 0.349116 0.2849
vn 0.88602 -0.42156 0.193019
v 0.025 0.353645 0.264968
vn -0.744907 -0.641662 -0.182712
v 0.026345 0.353647 0.309904
vn -0.999988 -2.3265e-05 0.00490074
v 0.117918 0.354813 0.383805
vn 0.968364 -0.233152 0.088949
v 0.025578 0.366227 0.383074
vn -0.999473 -2.56729e-05 0.0324535
v 0.025577 0.410352 0.383072
vn -0.86258 0.505698 0.015005
v 0.09408 0.460734 0.383611
vn -0.225812 0.972946 -0.0488257
v 0.102238 0.416609 0.383678
vn 0.977056 0.206757 -0.0511123
v 0.117917 0.36507 0.383805
vn 0.915804 0.398362 0.0511045
v 0.126388 0.338042 0.318084
vn 0.798097 -0.60126 0.0390912
v 0.02558 0.309526 0.383077
vn -0.780144 -0.625362 -0.0172716
v 0.094085 0.259148 0.383622
vn 0.204072 -0.967984 -0.146155
v 0.025579 0.353651 0.383075
vn -0.999898 -3.09348e-05 0.0142771
v 0.102241 0.303274 0.383684
vn 0.94743 -0.319197 -0.0221127
v 0.092681 0.311549 0.310431
vn 0.894673 -0.432611 -0.111389
v 0.092683 0.267423 0.310433
vn -0.248567 -0.933987 -0.256677
v 0.026346 0.309522 0.309906
vn -0.790343 -0.547433 -0.275092
v 0.085899 0.311546 0.265452
vn 0.0101654 -0.927484 -0.373723
v 0.125043 0.33804 0.273149
vn 0.530634 -0.847229 -0.0251208
v 0.031536 0.363679 0.112715
vn -0.700901 0.70037 -0.134982
v 0.065194 0.388818 0.111336
vn -0.0442572 0.956004 -0.289997
v 0.048785 0.359921 0.025
vn -0.0432519 -5.47266e-05 -0.999064
v 0.096133 0.373 0.109936
vn 0.713035 0.540591 -0.446478
v 0.071567 0.400057 0.149581
vn -0.0431662 0.988249 -0.146633
v 0.111958 0.378088 0.147885
vn 0.671932 0.661468 -0.333118
v 0.080964 0.40832 0.217084
vn -0.161706 0.985471 -0.051942
v 0.028458 0.365142 0.151259
vn -0.713636 0.699309 -0.0411111
v 0.12011 0.381829 0.217395
vn 0.471126 0.878462 -0.0796504
v 0.025506 0.366218 0.216647
vn -0.691736 0.722141 -0.00373366
v 0.025507 0.353642 0.216648
vn -0.708263 -0.705559 -0.0234459
v 0.028459 0.354712 0.151261
vn -0.717998 -0.692013 -0.0748199
v 0.031536 0.356171 0.112716
vn -0.692248 -0.707822 -0.140643
v 0.111959 0.34177 0.147887
vn 0.639752 -0.706162 -0.303403
v 0.096134 0.346853 0.109937
vn 0.723758 -0.537664 -0.432542
v 0.080967 0.311543 0.217089
vn -0.137002 -0.989112 -0.0537389
v 0.120112 0.338037 0.217397
vn 0.48297 -0.872693 -0.071745
v 0.071569 0.319798 0.149586
vn -0.251061 -0.957683 -0.140753
v 0.065195 0.331034 0.111339
vn -0.251262 -0.936534 -0.244482
v 0.151168 0.367944 0.197934
vn 0.733603 0.544335 -0.406848
v 0.15424 0.369703 0.227912
vn 0.737989 0.672954 0.0500469
v 0.154241 0.349114 0.227913
vn 0.65449 -0.755338 0.0332832
v 0.151168 0.350869 0.197936
vn 0.866632 -0.377675 -0.326054
v 0.091538 0.395231 0.869193
vn -0.00791707 5.26256e-05 0.999969
v 0.09154 0.324419 0.869196
vn -0.991213 0.059759 0.118005
v 0.087126 0.497877 0.970563
vn -0.998908 -0.0452449 0.0116165
v 0.087154 0.510839 0.861679
vn -0.998792 -0.048512 0.00785962
v 0.085961 0.50078 0.818038
vn -0.965835 0.221423 -0.134664
v 0.08907 0.527218 0.861692
vn 0.997599 0.0670728 -0.0172251
v 0.087884 0.50378 0.974985
vn 0.999451 0.0220172 0.024743
v 0.083899 0.583692 0.950099
vn 0.966348 0.231453 -0.112256
v 0.080867 0.583689 0.899126
vn -0.999382 -0.0340509 -0.00873419
v 0.081982 0.583692 0.950083
vn -0.998044 -0.0620134 0.00790708
v 0.083053 0.583692 0.954107
vn -0.97854 0.00514362 0.205993
v 0.083814 0.583692 0.958196
vn 0.997847 0.058802 0.0290349
v 0.072592 0.694911 0.694849
vn 0.994115 0.107812 -0.0105865
v 0.072724 0.69491 0.660228
vn -0.997188 -0.0348384 -0.0663562
v 0.069483 0.694911 0.694783
vn -0.998572 -0.0504388 0.017611
v 0.071195 0.694913 0.722365
vn -0.994347 -0.0405134 0.0981452
v 0.072488 0.694913 0.722394
vn 0.994603 0.10371 -0.00290941
v 0.077394 0.663398 0.758228
vn 0.991942 0.115457 0.0521622
v 0.089573 0.50689 0.81367
vn -0.929532 -0.0394642 0.366624
v 0.089581 0.213037 0.813685
vn 0.966807 -0.0960511 0.236767
v 0.069501 0.025001 0.694817
vn -0.998056 0.0419157 -0.0461283
v 0.071212 0.025003 0.7224
vn -0.996358 0.0539131 0.0660593
v 0.07741 0.064625 0.75826
vn -0.992594 0.0415503 0.114149
v 0.072506 0.025003 0.722429
vn 0.994333 -0.105498 0.0130974
v 0.07261 0.025001 0.694885
vn 0.99397 -0.109364 0.00794469
v 0.072742 0.025 0.660264
vn 0.992132 -0.121781 -0.0290343
f 27//27 107//107 29//29
f 107//107 1//1 29//29
f 107//107 24//24 1//1
f 107//107 11//11 24//24
f 11//11 26//26 24//24
f 1//1 23//23 29//29
f 27//27 28//28 107//107
f 130//130 129//129 126//126
f 130//130 131//131 50//50
f 129//129 130//130 25//25
f 128//128 129//129 125//125
f 127//127 128//128 24//24
f 126//126 127//127 49//49
f 131//131 126//126 48//48
f 120//120 119//119 45//45
f 121//121 120//120 22//22
f 123//123 121//121 124//124
f 122//122 123//123 52//52
f 118//118 122//122 44//44
f 119//119 118//118 39//39
f 122//122 118//118 121//121
f 126//126 131//131 130//130
f 127//127 126//126 129//129
f 128//128 127//127 129//129
f 48//48 50//50 131//131
f 50//50 25//25 130//130
f 25//25 125//125 129//129
f 125//125 24//24 128//128
f 24//24 49//49 127//127
f 49//49 48//48 126//126
f 24//24 125//125 25//25
f 124//124 22//22 52//52
f 39//39 45//45 119//119
f 45//45 22//22 120//120
f 22//22 124//124 121//121
f 124//124 52//52 123//123
f 52//52 44//44 122//122
f 44//44 39//39 118//118
f 121//121 123//123 122//122
f 120//120 121//121 118//118
f 119//119 120//120 118//118
f 113//113 117//117 111//111
f 114//114 113//113 110//110
f 115//115 114//114 109//109
f 116//116 115//115 108//108
f 117//117 116//116 112//112
f 117//117 113//113 116//116
f 111//111 112//112 19//19
f 110//110 111//111 22//22
f 109//109 110//110 21//21
f 108//108 109//109 16//16
f 112//112 108//108 31//31
f 24//24 23//23 1//1
f 112//112 111//111 117//117
f 111//111 110//110 113//113
f 110//110 109//109 114//114
f 109//109 108//108 115//115
f 108//108 112//112 116//116
f 115//115 116//116 113//113
f 114//114 115//115 113//113
f 31//31 19//19 112//112
f 19//19 22//22 111//111
f 22//22 21//21 110//110
f 21//21 16//16 109//109
f 16//16 31//31 108//108
f 65//65 81//81 80//80
f 55//55 59//59 61//61
f 79//79 80//80 81//81
f 58//58 61//61 59//59
f 28//28 10//10 107//107
f 10//10 11//11 107//107
f 5//5 14//14 106//106
f 14//14 12//12 106//106
f 12//12 7//7 106//106
f 7//7 5//5 106//106
f 105//105 104//104 96//96
f 64//64 82//82 104//104
f 88//88 102//102 96//96
f 102//102 103//103 105//105
f 103//103 57//57 104//104
f 54//54 57//57 91//91
f 103//103 102//102 91//91
f 99//99 96//96 104//104
f 99//99 104//104 82//82
f 105//105 96//96 102//102
f 104//104 105//105 103//103
f 64//64 104//104 57//57
f 103//103 91//91 57//57
f 88//88 91//91 102//102
f 100//100 94//94 101//101
f 96//96 100//100 97//97
f 98//98 93//93 100//100
f 99//99 98//98 96//96
f 81//81 65//65 98//98
f 82//82 81//81 99//99
f 86//86 88//88 97//97
f 90//90 83//83 94//94
f 92//92 90//90 93//93
f 59//59 92//92 65//65
f 55//55 54//54 89//89
f 59//59 55//55 92//92
f 89//89 91//91 87//87
f 92//92 89//89 90//90
f 87//87 88//88 84//84
f 90//90 87//87 83//83
f 85//85 101//101 95//95
f 85//85 97//97 101//101
f 95//95 101//101 94//94
f 101//101 97//97 100//100
f 94//94 100//100 93//93
f 100//100 96//96 98//98
f 93//93 98//98 65//65
f 98//98 99//99 81//81
f 85//85 95//95 83//83
f 97//97 85//85 86//86
f 96//96 97//97 88//88
f 95//95 94//94 83//83
f 94//94 93//93 90//90
f 93//93 65//65 92//92
f 91//91 89//89 54//54
f 89//89 92//92 55//55
f 88//88 87//87 91//91
f 87//87 90//90 89//89
f 86//86 84//84 88//88
f 84//84 83//83 87//87
f 86//86 85//85 84//84
f 84//84 85//85 83//83
f 73//73 78//78 82//82
f 63//63 73//73 64//64
f 74//74 76//76 80//80
f 75//75 74//74 79//79
f 77//77 75//75 78//78
f 67//67 77//77 73//73
f 41//41 48//48 77//77
f 42//42 41//41 67//67
f 47//47 51//51 74//74
f 47//47 74//74 48//48
f 69//69 36//36 70//70
f 34//34 36//36 68//68
f 76//76 51//51 68//68
f 38//38 42//42 71//71
f 39//39 38//38 70//70
f 71//71 72//72 62//62
f 70//70 71//71 61//61
f 69//69 70//70 58//58
f 68//68 69//69 60//60
f 76//76 68//68 66//66
f 72//72 67//67 56//56
f 60//60 59//59 66//66
f 57//57 56//56 64//64
f 53//53 56//56 54//54
f 62//62 53//53 55//55
f 81//81 82//82 78//78
f 82//82 64//64 73//73
f 66//66 65//65 80//80
f 81//81 78//78 79//79
f 66//66 80//80 76//76
f 80//80 79//79 74//74
f 79//79 78//78 75//75
f 78//78 73//73 77//77
f 75//75 77//77 48//48
f 77//77 67//67 41//41
f 76//76 74//74 51//51
f 75//75 48//48 74//74
f 67//67 73//73 63//63
f 53//53 72//72 56//56
f 39//39 70//70 36//36
f 69//69 68//68 36//36
f 34//34 68//68 51//51
f 67//67 72//72 42//42
f 72//72 71//71 42//42
f 71//71 70//70 38//38
f 53//53 62//62 72//72
f 62//62 61//61 71//71
f 61//61 58//58 70//70
f 58//58 60//60 69//69
f 60//60 66//66 68//68
f 63//63 56//56 67//67
f 65//65 66//66 59//59
f 63//63 64//64 56//56
f 62//62 55//55 61//61
f 59//59 60//60 58//58
f 57//57 54//54 56//56
f 54//54 55//55 53//53
f 42//42 38//38 43//43
f 43//43 37//37 8//8
f 46//46 32//32 47//47
f 40//40 50//50 41//41
f 26//26 30//30 46//46
f 9//9 25//25 40//40
f 26//26 46//46 24//24
f 49//49 46//46 48//48
f 35//35 45//45 36//36
f 35//35 15//15 45//45
f 52//52 6//6 44//44
f 13//13 15//15 33//33
f 32//32 30//30 33//33
f 8//8 9//9 43//43
f 43//43 40//40 42//42
f 44//44 37//37 39//39
f 33//33 35//35 34//34
f 51//51 32//32 34//34
f 37//37 43//43 38//38
f 6//6 8//8 37//37
f 51//51 47//47 32//32
f 48//48 41//41 50//50
f 32//32 46//46 30//30
f 50//50 40//40 25//25
f 49//49 24//24 46//46
f 47//47 48//48 46//46
f 39//39 36//36 45//45
f 22//22 45//45 15//15
f 37//37 44//44 6//6
f 35//35 33//33 15//15
f 13//13 33//33 30//30
f 40//40 43//43 9//9
f 41//41 42//42 40//40
f 38//38 39//39 37//37
f 36//36 34//34 35//35
f 33//33 34//34 32//32
f 28//28 23//23 9//9
f 27//27 29//29 28//28
f 2//2 20//20 10//10
f 15//15 14//14 22//22
f 14//14 17//17 21//21
f 3//3 2//2 7//7
f 4//4 3//3 12//12
f 11//11 20//20 12//12
f 18//18 17//17 5//5
f 31//31 18//18 19//19
f 31//31 16//16 18//18
f 12//12 14//14 13//13
f 30//30 11//11 13//13
f 28//28 9//9 10//10
f 5//5 7//7 6//6
f 19//19 5//5 52//52
f 20//20 2//2 4//4
f 8//8 7//7 10//10
f 25//25 9//9 23//23
f 30//30 26//26 11//11
f 23//23 28//28 29//29
f 11//11 10//10 20//20
f 24//24 25//25 23//23
f 52//52 22//22 19//19
f 21//21 22//22 14//14
f 16//16 21//21 17//17
f 10//10 7//7 2//2
f 7//7 12//12 3//3
f 4//4 12//12 20//20
f 14//14 5//5 17//17
f 5//5 19//19 18//18
f 17//17 18//18 16//16
f 15//15 13//13 14//14
f 12//12 13//13 11//11
f 8//8 10//10 9//9
f 8//8 6//6 7//7
f 6//6 52//52 5//5
f 3//3 4//4 2//2
