# Created by Open3D 
# object name: m1228
# number of vertices: 36
# number of triangles: 68
v 0.57291 0.421973 0.04712
vn -0.0544246 0.990673 0.124923
v 0.661604 0.420772 0.058007
vn 0.00856053 0.817774 0.575475
v 0.661604 0.424789 0.044513
vn 0.0288505 0.999419 0.0181311
v 0.57291 0.418291 0.057403
vn -0.204612 0.685332 0.698895
v 0.661604 0.409359 0.066394
vn -0.0184236 0.348602 0.93709
v 0.57291 0.407829 0.063794
vn -0.343137 0.231187 0.91039
v 0.661604 0.390997 0.069347
vn -0.0256355 -0.0263325 0.999324
v 0.57291 0.390997 0.066044
vn -0.415899 -0.0515373 0.907949
v 0.661604 0.372636 0.066394
vn -0.0125797 -0.405076 0.914196
v 0.57291 0.374166 0.063794
vn -0.0521648 -0.402138 0.914092
v 0.661604 0.361223 0.058007
vn 0.0180623 -0.850156 0.526221
v 0.57291 0.363704 0.057403
vn -0.345473 -0.803964 0.484036
v 0.661604 0.357205 0.044513
vn 0.0302512 -0.999365 -0.0188203
v 0.57291 0.360021 0.04712
vn -0.0639709 -0.988486 -0.137122
v 0.661604 0.361223 0.03391
vn 0.0156904 -0.744827 -0.667074
v 0.57291 0.363704 0.039041
vn -0.155807 -0.602842 -0.7825
v 0.661604 0.372636 0.02732
vn -0.00602552 -0.280547 -0.959821
v 0.57291 0.374166 0.03402
vn -0.402567 -0.179111 -0.897697
v 0.661604 0.390997 0.025
vn -0.0135755 0.0206948 -0.999694
v 0.57291 0.390997 0.032252
vn -0.398923 0.0408513 -0.916074
v 0.661604 0.409359 0.02732
vn -0.00651804 0.328783 -0.944383
v 0.57291 0.407829 0.03402
vn -0.330719 0.308301 -0.89195
v 0.661604 0.420772 0.03391
vn 0.0173182 0.785442 -0.618693
v 0.57291 0.418291 0.039041
vn -0.151205 0.784662 -0.601201
v 0.851526 0.410847 0.062132
vn 0.288698 0.888822 0.355877
v 0.851526 0.413525 0.048422
vn 0.14914 0.982398 -0.112479
v 0.851526 0.403238 0.070653
vn 0.0147188 0.537074 0.843407
v 0.851526 0.390997 0.073653
vn 0.0142831 0.0687543 0.997531
v 0.851526 0.378756 0.070653
vn 0.265735 -0.341502 0.901533
v 0.851526 0.371148 0.062132
vn 0.0367917 -0.815319 0.577843
v 0.851526 0.368469 0.048422
vn 0.193827 -0.97559 0.103221
v 0.851526 0.371148 0.03765
vn 0.0685252 -0.888885 -0.452976
v 0.851526 0.378756 0.030954
vn 0.0734877 -0.446278 -0.891872
v 0.851526 0.390997 0.028597
vn 0.331186 -0.0510204 -0.942185
v 0.851526 0.403238 0.030954
vn 0.0589587 0.284766 -0.956782
v 0.851526 0.410847 0.03765
vn 0.0580321 0.741309 -0.66865
f 18//18 16//16 12//12
f 16//16 14//14 12//12
f 12//12 8//8 18//18
f 1//1 24//24 4//4
f 10//10 8//8 12//12
f 20//20 18//18 8//8
f 20//20 8//8 6//6
f 22//22 20//20 6//6
f 22//22 6//6 4//4
f 24//24 22//22 4//4
f 31//31 34//34 29//29
f 35//35 36//36 26//26
f 34//34 35//35 26//26
f 28//28 29//29 25//25
f 29//29 34//34 25//25
f 27//27 28//28 25//25
f 34//34 26//26 25//25
f 32//32 33//33 31//31
f 30//30 31//31 29//29
f 33//33 34//34 31//31
f 3//3 26//26 23//23
f 23//23 36//36 21//21
f 21//21 35//35 19//19
f 19//19 34//34 17//17
f 17//17 33//33 15//15
f 15//15 32//32 13//13
f 13//13 31//31 11//11
f 11//11 30//30 9//9
f 9//9 29//29 7//7
f 7//7 28//28 5//5
f 5//5 27//27 2//2
f 2//2 25//25 3//3
f 1//1 3//3 24//24
f 24//24 23//23 22//22
f 22//22 21//21 20//20
f 20//20 19//19 18//18
f 18//18 17//17 16//16
f 16//16 15//15 14//14
f 14//14 13//13 12//12
f 12//12 11//11 10//10
f 10//10 9//9 8//8
f 8//8 7//7 6//6
f 6//6 5//5 4//4
f 4//4 2//2 1//1
f 26//26 36//36 23//23
f 36//36 35//35 21//21
f 35//35 34//34 19//19
f 34//34 33//33 17//17
f 33//33 32//32 15//15
f 32//32 31//31 13//13
f 31//31 30//30 11//11
f 30//30 29//29 9//9
f 29//29 28//28 7//7
f 28//28 27//27 5//5
f 27//27 25//25 2//2
f 25//25 26//26 3//3
f 3//3 23//23 24//24
f 23//23 21//21 22//22
f 21//21 19//19 20//20
f 19//19 17//17 18//18
f 17//17 15//15 16//16
f 15//15 13//13 14//14
f 13//13 11//11 12//12
f 11//11 9//9 10//10
f 9//9 7//7 8//8
f 7//7 5//5 6//6
f 5//5 2//2 4//4
f 2//2 3//3 1//1
