# Blender 4.2.3 LTS
# www.blender.org
o m895
v 0.974998 0.321663 0.618752
v 0.025000 0.321663 0.618749
v 0.975000 0.321663 0.025003
v 0.025002 0.321663 0.025000
v 0.970052 0.326611 0.029950
v 0.970051 0.326611 0.613804
v 0.029948 0.326611 0.613801
v 0.029950 0.326611 0.029948
v 0.865894 0.297250 0.477736
v 0.865894 0.237875 0.477736
v 0.836206 0.237875 0.477736
v 0.836206 0.297250 0.477736
v 0.865895 0.297250 0.166018
v 0.865895 0.237875 0.166018
v 0.836207 0.237875 0.166018
v 0.836207 0.297250 0.166018
v 0.168770 0.297250 0.477734
v 0.168770 0.237875 0.477734
v 0.139083 0.237875 0.477734
v 0.139083 0.297250 0.477734
v 0.139084 0.297250 0.166016
v 0.139084 0.237875 0.166016
v 0.168771 0.237875 0.166016
v 0.168771 0.297250 0.166016
v 0.168564 0.297250 0.507432
v 0.168564 0.237875 0.507432
v 0.168564 0.237875 0.477744
v 0.168564 0.297250 0.477744
v 0.836531 0.297250 0.477734
v 0.836531 0.237875 0.477734
v 0.836532 0.237875 0.507422
v 0.836532 0.297250 0.507422
v 0.168554 0.297250 0.166237
v 0.168554 0.237875 0.166237
v 0.168554 0.237875 0.136550
v 0.168554 0.297250 0.136550
v 0.836521 0.297250 0.136540
v 0.836521 0.237875 0.136540
v 0.836522 0.237875 0.166228
v 0.836522 0.297250 0.166228
v 0.876363 0.297135 0.165413
v 0.876363 0.025000 0.165413
v 0.836780 0.025000 0.165413
v 0.836780 0.297135 0.165413
v 0.876363 0.297135 0.125830
v 0.876363 0.025000 0.125830
v 0.836780 0.025000 0.125830
v 0.836780 0.297135 0.125830
v 0.128739 0.297135 0.165728
v 0.128739 0.025000 0.165728
v 0.168322 0.025000 0.165728
v 0.168322 0.297135 0.165728
v 0.168322 0.297135 0.126145
v 0.168322 0.025000 0.126145
v 0.128739 0.025000 0.126145
v 0.128739 0.297135 0.126145
v 0.876362 0.297135 0.516974
v 0.876362 0.025000 0.516974
v 0.836779 0.025000 0.516974
v 0.836779 0.297135 0.516974
v 0.836779 0.297135 0.477391
v 0.836779 0.025000 0.477391
v 0.876362 0.025000 0.477391
v 0.876362 0.297135 0.477391
v 0.168321 0.297135 0.517289
v 0.168321 0.025000 0.517289
v 0.128738 0.025000 0.517289
v 0.128738 0.297135 0.517289
v 0.128738 0.297135 0.477706
v 0.128738 0.025000 0.477706
v 0.168321 0.025000 0.477706
v 0.168321 0.297135 0.477706
v 0.974998 0.296923 0.618752
v 0.025000 0.296923 0.618749
v 0.975000 0.296923 0.025003
v 0.025002 0.296923 0.025000
v 0.890885 0.326611 0.109117
v 0.890884 0.326611 0.534637
v 0.109115 0.326611 0.534635
v 0.109116 0.326611 0.109115
vn 0.7072 0.7070 -0.0000
vn 0.7071 0.7071 -0.0000
vn -0.0000 0.7071 0.7071
vn -0.7071 0.7071 -0.0000
vn -0.0000 0.7070 -0.7072
vn -0.0000 0.7071 -0.7071
vn -1.0000 -0.0000 -0.0000
vn -0.0000 1.0000 -0.0000
vn 1.0000 -0.0000 -0.0000
vn -0.0000 -1.0000 -0.0000
vn -0.0000 -0.0000 -1.0000
vn -0.0000 -0.0000 1.0000
s 0
f 5//1 6//1 1//1
f 3//2 5//2 1//2
f 6//3 7//3 2//3
f 1//3 6//3 2//3
f 7//4 8//4 4//4
f 2//4 7//4 4//4
f 8//5 5//5 3//5
f 4//6 8//6 3//6
f 15//7 11//7 12//7
f 16//7 15//7 12//7
f 12//8 9//8 13//8
f 16//8 12//8 13//8
f 10//9 14//9 13//9
f 9//9 10//9 13//9
f 15//10 14//10 10//10
f 11//10 15//10 10//10
f 22//7 19//7 20//7
f 21//7 22//7 20//7
f 20//8 17//8 24//8
f 21//8 20//8 24//8
f 18//9 23//9 24//9
f 17//9 18//9 24//9
f 22//10 23//10 18//10
f 19//10 22//10 18//10
f 30//11 27//11 28//11
f 29//11 30//11 28//11
f 28//8 25//8 32//8
f 29//8 28//8 32//8
f 26//12 31//12 32//12
f 25//12 26//12 32//12
f 30//10 31//10 26//10
f 27//10 30//10 26//10
f 38//11 35//11 36//11
f 37//11 38//11 36//11
f 36//8 33//8 40//8
f 37//8 36//8 40//8
f 34//12 39//12 40//12
f 33//12 34//12 40//12
f 38//10 39//10 34//10
f 35//10 38//10 34//10
f 43//12 42//12 41//12
f 44//12 43//12 41//12
f 46//11 47//11 48//11
f 45//11 46//11 48//11
f 47//7 43//7 44//7
f 48//7 47//7 44//7
f 44//8 41//8 45//8
f 48//8 44//8 45//8
f 42//9 46//9 45//9
f 41//9 42//9 45//9
f 50//12 51//12 52//12
f 49//12 50//12 52//12
f 54//11 55//11 56//11
f 53//11 54//11 56//11
f 51//9 54//9 53//9
f 52//9 51//9 53//9
f 49//8 52//8 53//8
f 56//8 49//8 53//8
f 55//7 50//7 49//7
f 56//7 55//7 49//7
f 59//12 58//12 57//12
f 60//12 59//12 57//12
f 63//11 62//11 61//11
f 64//11 63//11 61//11
f 62//7 59//7 60//7
f 61//7 62//7 60//7
f 60//8 57//8 64//8
f 61//8 60//8 64//8
f 58//9 63//9 64//9
f 57//9 58//9 64//9
f 67//12 66//12 65//12
f 68//12 67//12 65//12
f 71//11 70//11 69//11
f 72//11 71//11 69//11
f 66//9 71//9 72//9
f 65//9 66//9 72//9
f 68//8 65//8 72//8
f 69//8 68//8 72//8
f 70//7 67//7 68//7
f 69//7 70//7 68//7
f 74//12 73//12 1//12
f 2//12 74//12 1//12
f 75//11 76//11 4//11
f 3//11 75//11 4//11
f 76//7 74//7 2//7
f 4//7 76//7 2//7
f 73//9 75//9 3//9
f 1//9 73//9 3//9
f 76//10 75//10 73//10
f 74//10 76//10 73//10
f 77//8 78//8 6//8
f 5//8 77//8 6//8
f 78//8 79//8 7//8
f 6//8 78//8 7//8
f 79//8 80//8 8//8
f 7//8 79//8 8//8
f 80//8 77//8 5//8
f 8//8 80//8 5//8
f 79//8 78//8 77//8
f 80//8 79//8 77//8
