# Created by Open3D 
# object name: m1578
# number of vertices: 24
# number of triangles: 44
v 0.162273 0.031767 0.061834
vn 0.993745 -0.090228 -0.0657935
v 0.162402 0.041954 0.05595
vn 0.210955 -0.338505 -0.917013
v 0.162563 0.053718 0.05595
vn 0.639132 0.123487 -0.759119
v 0.153183 0.031892 0.061849
vn -0.226932 -0.623121 -0.74848
v 0.153312 0.042079 0.055966
vn -0.641761 -0.12349 -0.756897
v 0.153473 0.053843 0.055966
vn -0.854892 0.189025 -0.483145
v 0.153622 0.064029 0.061846
vn -0.924377 0.298556 -0.237468
v 0.162712 0.063906 0.061831
vn 0.860368 0.319186 -0.39735
v 0.15372 0.069913 0.072035
vn -0.947508 0.315615 -0.0511422
v 0.16281 0.069788 0.072019
vn 0.932433 0.337242 -0.129755
v 0.153741 0.069912 0.083799
vn -0.953544 0.283891 0.100799
v 0.162831 0.069788 0.083784
vn 0.955781 0.2896 0.051129
v 0.153678 0.064031 0.093987
vn -0.94845 0.210053 0.237318
v 0.162768 0.063907 0.093972
vn 0.960764 0.208156 0.183314
v 0.153549 0.053844 0.099871
vn -0.926366 0.0767393 0.368723
v 0.162639 0.05372 0.099855
vn 0.953493 0.0925895 0.286843
v 0.153388 0.04208 0.099871
vn -0.858092 -0.165614 0.486056
v 0.162478 0.041956 0.099855
vn 0.927634 -0.0766998 0.365529
v 0.153239 0.031894 0.09399
vn -0.645842 -0.581534 0.494679
v 0.162329 0.031769 0.093975
vn 0.852684 -0.342591 0.394412
v 0.153141 0.02601 0.083802
vn -0.230047 -0.958534 0.168197
v 0.162231 0.025886 0.083786
vn 0.629193 -0.73124 0.263447
v 0.15312 0.026011 0.072037
vn -0.996245 -0.0802008 -0.0326055
v 0.16221 0.025886 0.072021
vn 0.203583 -0.964513 -0.168134
f 5//5 4//4 23//23
f 6//6 5//5 23//23
f 7//7 6//6 23//23
f 9//9 7//7 23//23
f 11//11 9//9 23//23
f 13//13 11//11 23//23
f 15//15 13//13 23//23
f 17//17 15//15 23//23
f 19//19 17//17 23//23
f 1//1 24//24 23//23
f 24//24 22//22 21//21
f 22//22 20//20 19//19
f 20//20 18//18 17//17
f 18//18 16//16 15//15
f 16//16 14//14 13//13
f 14//14 12//12 11//11
f 12//12 10//10 9//9
f 10//10 8//8 7//7
f 8//8 3//3 6//6
f 3//3 2//2 5//5
f 2//2 1//1 4//4
f 22//22 24//24 1//1
f 20//20 22//22 1//1
f 18//18 20//20 1//1
f 16//16 18//18 1//1
f 14//14 16//16 1//1
f 12//12 14//14 1//1
f 10//10 12//12 1//1
f 8//8 10//10 1//1
f 3//3 8//8 1//1
f 21//21 19//19 23//23
f 4//4 1//1 23//23
f 23//23 24//24 21//21
f 21//21 22//22 19//19
f 19//19 20//20 17//17
f 17//17 18//18 15//15
f 15//15 16//16 13//13
f 13//13 14//14 11//11
f 11//11 12//12 9//9
f 9//9 10//10 7//7
f 7//7 8//8 6//6
f 6//6 3//3 5//5
f 5//5 2//2 4//4
f 2//2 3//3 1//1
