# Created by Open3D 
# object name: m130
# number of vertices: 177
# number of triangles: 350
v 0.127981 0.869968 0.126892
vn -0.917976 -0.395665 -0.0277361
v 0.152121 0.873351 0.164279
vn -0.515172 -0.0371759 0.85628
v 0.155454 0.873625 0.165831
vn 0.0166582 -0.282737 0.959053
v 0.156626 0.876848 0.163504
vn 0.0633414 -0.075102 0.995162
v 0.147137 0.879679 0.16109
vn -0.605095 -0.155936 0.780733
v 0.165906 0.877729 0.16214
vn 0.375861 -0.0944616 0.921849
v 0.159914 0.889875 0.165748
vn 0.115118 -0.195613 0.973901
v 0.140441 0.911096 0.151065
vn -0.486338 0.199124 0.850779
v 0.13092 0.914221 0.145812
vn -0.600229 0.139738 0.787527
v 0.127396 0.903597 0.142828
vn -0.823834 0.0251927 0.566271
v 0.177405 0.86608 0.146324
vn 0.86298 -0.194879 0.466141
v 0.163859 0.859564 0.163032
vn 0.403313 -0.652445 0.641602
v 0.17286 0.859142 0.153765
vn 0.600848 -0.660239 0.450629
v 0.14226 0.854485 0.13738
vn -0.2054 -0.967411 -0.148074
v 0.133592 0.863273 0.134126
vn -0.893839 -0.291017 0.341118
v 0.134881 0.8586 0.128557
vn -0.185903 -0.918584 -0.348776
v 0.143586 0.859142 0.153765
vn -0.61117 -0.67476 0.413728
v 0.13792 0.860644 0.145058
vn -0.833329 -0.442771 0.330933
v 0.192506 0.894669 0.098005
vn 0.562004 -0.561686 -0.607174
v 0.195001 0.887159 0.110886
vn 0.904349 -0.409792 -0.119262
v 0.189116 0.890027 0.096919
vn 0.853077 -0.354089 -0.38325
v 0.151612 0.859411 0.163827
vn -0.395081 -0.299474 0.868462
v 0.142753 0.867382 0.155877
vn -0.761002 -0.103492 0.640441
v 0.155716 0.87041 0.162677
vn -0.357459 -0.341998 0.869057
v 0.164326 0.873351 0.164279
vn 0.31959 0.0376019 0.946809
v 0.163312 0.8695 0.161539
vn 0.433509 -0.48412 0.760064
v 0.170589 0.870125 0.157476
vn 0.523092 -0.547811 0.6529
v 0.206187 0.915141 0.103784
vn 0.961321 0.267733 0.0646585
v 0.202531 0.904877 0.106356
vn 0.903144 -0.166364 0.395796
v 0.204934 0.906271 0.101246
vn 0.930809 -0.167291 -0.324975
v 0.201698 0.896608 0.106708
vn 0.81378 -0.239413 0.529569
v 0.200732 0.895142 0.102939
vn 0.619988 -0.608336 -0.495522
v 0.202201 0.908314 0.109069
vn 0.749529 -0.244942 0.614988
v 0.197361 0.903932 0.110891
vn 0.911879 -0.198089 0.359496
v 0.181513 0.859676 0.128202
vn 0.696917 -0.704144 0.135971
v 0.185368 0.862241 0.11826
vn 0.0470532 -0.939155 -0.340256
v 0.186219 0.867264 0.127134
vn 0.948452 -0.260249 0.180859
v 0.178526 0.860644 0.145058
vn 0.785178 -0.552775 0.279168
v 0.157945 0.864584 0.162061
vn 0.199787 0.191175 0.961009
v 0.15493 0.853389 0.140699
vn -0.0254887 -0.982653 -0.183691
v 0.153394 0.855874 0.156757
vn -0.0312509 -0.966801 0.253611
v 0.186213 0.888518 0.14377
vn 0.847315 -0.180182 0.499592
v 0.176311 0.873653 0.154609
vn 0.804625 -0.216145 0.553046
v 0.181132 0.871247 0.096051
vn 0.756824 -0.4523 -0.471849
v 0.183666 0.868894 0.100862
vn 0.893156 -0.403856 -0.197923
v 0.191389 0.904936 0.138092
vn 0.895538 -0.0678365 0.439785
v 0.192104 0.894057 0.130263
vn 0.922358 -0.219133 0.318178
v 0.171298 0.854497 0.137496
vn 0.277167 -0.952725 0.124477
v 0.203414 0.900267 0.101027
vn 0.600175 -0.23505 -0.764553
v 0.126427 0.915195 0.139339
vn -0.822018 0.06221 0.566054
v 0.128728 0.920754 0.143303
vn -0.799558 0.159591 0.578997
v 0.130167 0.936552 0.138617
vn -0.591275 0.122695 0.797082
v 0.149567 0.881711 0.164562
vn -0.531317 -0.148854 0.833993
v 0.155195 0.884808 0.167139
vn -0.205178 0.118913 0.971474
v 0.148123 0.888883 0.160235
vn -0.624257 0.0114895 0.781135
v 0.128672 0.883926 0.137758
vn -0.8782 -0.201839 0.433619
v 0.173226 0.884641 0.158269
vn 0.684236 -0.0331458 0.728507
v 0.174901 0.877022 0.157511
vn 0.534003 -0.0905745 0.840617
v 0.168137 0.889005 0.159184
vn 0.530755 -0.0211799 0.847261
v 0.176635 0.895221 0.156255
vn 0.602051 0.00746897 0.798423
v 0.166527 0.891962 0.162854
vn 0.702188 -0.0718936 0.708353
v 0.166586 0.886489 0.162225
vn 0.562328 -0.0552445 0.825067
v 0.159761 0.892138 0.169158
vn 0.132156 -0.687013 0.714527
v 0.163509 0.932697 0.159257
vn 0.22032 0.188832 0.956975
v 0.182082 0.930055 0.15002
vn 0.787546 0.126474 0.603138
v 0.176441 0.932096 0.153873
vn 0.45391 0.390132 0.801101
v 0.15938 0.923202 0.159796
vn -0.140305 0.00274912 0.990105
v 0.181573 0.92549 0.15219
vn 0.426066 -0.150306 0.892119
v 0.182992 0.912529 0.147288
vn 0.543086 0.0037263 0.839669
v 0.186912 0.90493 0.145924
vn 0.781964 0.0877588 0.617115
v 0.194013 0.912463 0.130124
vn 0.950914 -0.109484 0.289441
v 0.186779 0.899006 0.146941
vn 0.704816 0.0206055 0.709091
v 0.187537 0.91765 0.146382
vn 0.885918 0.114845 0.449399
v 0.17472 0.906112 0.154789
vn 0.498376 0.242381 0.83239
v 0.174647 0.901548 0.156447
vn 0.503711 0.20164 0.84001
v 0.202735 0.920984 0.112805
vn 0.896397 0.00550104 0.443217
v 0.200041 0.923009 0.111627
vn 0.787889 0.615593 0.0166134
v 0.19993 0.916267 0.115999
vn 0.864801 -0.123109 0.486789
v 0.197217 0.919967 0.117344
vn 0.933422 -0.107946 0.342157
v 0.148335 0.942609 0.152151
vn -0.506044 0.111895 0.855219
v 0.170281 0.906613 0.155008
vn 0.381288 0.256794 0.888075
v 0.164754 0.914832 0.155954
vn 0.458236 0.0158143 0.88869
v 0.16485 0.898559 0.161478
vn 0.734 0.316756 0.600758
v 0.165369 0.895575 0.166953
vn 0.877924 -0.15325 0.453612
v 0.161823 0.89673 0.173569
vn 0.819675 0.0352985 0.57174
v 0.158188 0.894445 0.173909
vn -0.513053 -0.52017 0.682788
v 0.114212 0.90502 0.107716
vn -0.905121 -0.392568 -0.163236
v 0.112081 0.916301 0.108253
vn 0.466112 0.363202 -0.806737
v 0.114733 0.918578 0.114121
vn -0.919446 -0.10365 0.379309
v 0.13803 0.898554 0.153124
vn -0.647096 0.03736 0.761492
v 0.149876 0.905793 0.15601
vn -0.510599 0.349697 0.785494
v 0.153643 0.893965 0.165316
vn -0.72998 0.185133 0.657917
v 0.15467 0.911808 0.15804
vn -0.555776 0.201455 0.806554
v 0.122737 0.9106 0.131959
vn -0.922628 -0.0801285 0.377275
v 0.119229 0.919967 0.117344
vn -0.988461 0.106736 0.107481
v 0.142831 0.875741 0.081483
vn -0.400454 -0.811489 -0.425584
v 0.139527 0.883966 0.079833
vn -0.473247 -0.590329 -0.653872
v 0.129932 0.89757 0.147978
vn -0.730013 -0.214593 0.648869
v 0.158223 0.899378 0.173518
vn -0.738083 0.344725 0.579999
v 0.16119 0.903344 0.170487
vn 0.697211 0.489101 0.524096
v 0.157097 0.913244 0.160688
vn -0.550988 0.416383 0.723213
v 0.160588 0.911983 0.161692
vn 0.745711 0.42146 0.51603
v 0.200078 0.917647 0.100385
vn 0.987782 -0.0295809 -0.15301
v 0.20166 0.923983 0.115531
vn 0.983891 -0.0376463 0.174758
v 0.197617 0.934084 0.12149
vn 0.962176 -0.095451 0.25516
v 0.196569 0.92776 0.126208
vn 0.856089 -0.273429 0.438574
v 0.19667 0.934611 0.12839
vn 0.893539 -0.066645 0.444011
v 0.175025 0.884611 0.078028
vn 0.559164 -0.444268 -0.699972
v 0.18663 0.892947 0.083568
vn 0.775595 -0.447996 -0.444693
v 0.182054 0.883123 0.087679
vn 0.750875 -0.42977 -0.501482
v 0.190259 0.898214 0.09627
vn 0.727941 -0.445135 -0.521496
v 0.153911 0.952681 0.153122
vn -0.00174593 0.0235884 0.99972
v 0.147142 0.949716 0.152609
vn -0.37733 -0.390528 0.839708
v 0.151577 0.969409 0.151495
vn -0.545003 0.764783 0.343627
v 0.144375 0.95572 0.154376
vn -0.579434 0.175516 0.795896
v 0.150746 0.957945 0.159211
vn -0.358864 0.0572868 0.93163
v 0.194101 0.950944 0.13771
vn 0.865241 -0.0561902 0.498197
v 0.197399 0.958354 0.125971
vn 0.956292 0.123878 0.264877
v 0.188105 0.953725 0.145421
vn 0.720248 0.0490482 0.691981
v 0.191973 0.960926 0.133925
vn 0.520878 0.768756 0.371079
v 0.180327 0.953773 0.15004
vn 0.440447 0.798236 0.410885
v 0.198702 0.95636 0.114939
vn 0.688403 0.681785 -0.247529
v 0.14281 0.916407 0.059947
vn -0.429733 -0.0988021 -0.897534
v 0.158223 0.918356 0.05769
vn 0 -0.0724677 -0.997371
v 0.158223 0.908848 0.060292
vn -0.0543479 -0.463024 -0.884678
v 0.116475 0.940583 0.083343
vn -0.774859 0.176218 -0.607076
v 0.158223 0.947343 0.057495
vn -0.173498 0.330036 -0.927887
v 0.127707 0.923917 0.070948
vn -0.559663 0.174383 -0.810165
v 0.142705 0.961592 0.077763
vn -0.191394 0.895889 -0.400938
v 0.145766 0.970948 0.124865
vn -0.313789 0.949077 -0.0280867
v 0.166382 0.974656 0.118274
vn 0.202946 0.976696 -0.0698387
v 0.157157 0.968373 0.155199
vn -0.0259927 0.89313 0.449047
v 0.158223 0.975 0.134782
vn -0.13389 0.981945 0.133633
v 0.162737 0.969409 0.151495
vn 0.554953 0.755184 0.34889
v 0.119563 0.950191 0.086733
vn -0.529222 0.428729 -0.732199
v 0.119238 0.960857 0.091946
vn -0.430601 0.884856 -0.1778
v 0.13674 0.954078 0.149867
vn -0.600087 0.118309 0.791138
v 0.176159 0.947492 0.151005
vn 0.404309 -0.0486692 0.913327
v 0.189572 0.945733 0.138141
vn 0.756927 -0.00537363 0.653477
v 0.117134 0.920005 0.079995
vn -0.883469 -0.0890364 -0.459952
v 0.166802 0.886014 0.072129
vn 0.0214552 -0.44884 -0.893355
v 0.169975 0.892699 0.071952
vn 0.382963 -0.440217 -0.812126
v 0.173636 0.916407 0.059947
vn 0.462372 -0.0920387 -0.881896
v 0.117745 0.956361 0.114939
vn -0.703833 0.684008 0.191711
v 0.114216 0.936841 0.12031
vn -0.987641 0.05635 0.146251
v 0.116733 0.943576 0.124474
vn -0.891027 -0.00539976 0.453919
v 0.121057 0.902156 0.078435
vn -0.764195 -0.472864 -0.43864
v 0.113291 0.949891 0.092928
vn -0.989309 0.130037 -0.06602
v 0.172072 0.95572 0.154377
vn 0.416595 0.0694254 0.906437
v 0.195055 0.964159 0.119526
vn 0.446489 0.888787 -0.10347
v 0.19734 0.909882 0.092939
vn 0.849843 -0.383559 -0.361456
v 0.184107 0.899322 0.074543
vn 0.651421 -0.417694 -0.63339
v 0.162536 0.952681 0.153122
vn 0.05839 -0.633493 0.771542
v 0.163567 0.957945 0.159211
vn 0.377168 0.142057 0.915185
v 0.188653 0.947737 0.073427
vn 0.634236 0.410232 -0.655327
v 0.170452 0.958114 0.069674
vn 0.260092 0.877155 -0.403671
v 0.157157 0.957173 0.15973
vn 0 -0.305611 0.952156
v 0.114588 0.926062 0.116662
vn -0.921482 -0.255112 0.292899
v 0.119877 0.927761 0.126208
vn -0.855638 -0.157164 0.493137
v 0.119777 0.934611 0.12839
vn -0.801748 -0.0491895 0.595634
v 0.122346 0.950944 0.13771
vn -0.728672 0.549538 0.408711
v 0.122517 0.94078 0.127051
vn -0.802571 -0.0107389 0.59646
v 0.126875 0.945733 0.138141
vn -0.711573 -0.204898 0.672072
v 0.144951 0.918869 0.151296
vn -0.428104 -0.0809311 0.900099
v 0.14517 0.91346 0.15115
vn -0.437731 0.228131 0.869683
v 0.173615 0.875383 0.081811
vn 0.5072 -0.630311 -0.587755
v 0.166082 0.87564 0.077578
vn -0.00548509 -0.889792 -0.456334
v 0.202222 0.951566 0.102227
vn 0.99838 0.0436398 0.0365144
v 0.203885 0.916895 0.101117
vn 0.52997 0.163243 -0.832156
v 0.140482 0.923832 0.151795
vn -0.448843 0.0318168 0.893044
v 0.161516 0.85338 0.140619
vn 0.0417935 -0.990744 -0.129148
v 0.201471 0.944537 0.092078
vn 0.918176 0.2557 -0.302605
v 0.199313 0.919979 0.080361
vn 0.823148 -0.0980641 -0.559295
v 0.138773 0.901368 0.068863
vn -0.413365 -0.367506 -0.833108
v 0.128963 0.95403 0.145248
vn -0.536759 -0.405303 0.740013
v 0.119601 0.916404 0.122282
vn -0.9456 -0.19625 0.259472
v 0.114768 0.92586 0.107713
vn -0.998244 -0.0526192 -0.0271885
f 88//88 95//95 87//87
f 95//95 177//177 87//87
f 177//177 140//140 87//87
f 140//140 147//147 87//87
f 147//147 97//97 87//87
f 97//97 96//96 87//87
f 96//96 1//1 87//87
f 96//96 16//16 1//1
f 177//177 126//126 140//140
f 177//177 148//148 126//126
f 177//177 145//145 148//148
f 145//145 144//144 148//148
f 96//96 36//36 16//16
f 1//1 89//89 87//87
f 105//105 106//106 107//107
f 107//107 71//71 105//105
f 106//106 104//104 107//107
f 104//104 118//118 107//107
f 79//79 78//78 77//77
f 95//95 176//176 158//158
f 32//32 19//19 111//111
f 49//49 32//32 111//111
f 169//169 28//28 30//30
f 103//103 169//169 30//30
f 80//80 64//64 112//112
f 46//46 139//139 65//65
f 154//154 134//134 132//132
f 157//157 154//154 132//132
f 116//116 157//157 132//132
f 137//137 114//114 161//161
f 114//114 130//130 144//144
f 103//103 173//173 172//172
f 97//97 174//174 125//125
f 140//140 123//123 174//174
f 173//173 143//143 155//155
f 143//143 124//124 127//127
f 155//155 150//150 122//122
f 172//172 155//155 122//122
f 156//156 131//131 150//150
f 131//131 134//134 121//121
f 150//150 131//131 121//121
f 45//45 20//20 37//37
f 44//44 45//45 36//36
f 166//166 44//44 36//36
f 167//167 166//166 36//36
f 96//96 167//167 36//36
f 14//14 16//16 36//36
f 40//40 14//14 36//36
f 171//171 40//40 36//36
f 48//48 171//171 36//36
f 44//44 166//166 110//110
f 48//48 38//38 13//13
f 77//77 76//76 28//28
f 103//103 77//77 28//28
f 9//9 80//80 52//52
f 82//82 67//67 101//101
f 11//11 26//26 39//39
f 104//104 79//79 77//77
f 159//159 158//158 176//176
f 76//76 33//33 29//29
f 12//12 41//41 48//48
f 48//48 41//41 171//171
f 22//22 41//41 12//12
f 160//160 145//145 158//158
f 158//158 145//145 177//177
f 177//177 95//95 158//158
f 125//125 143//143 142//142
f 142//142 143//143 152//152
f 152//152 143//143 173//173
f 103//103 151//151 173//173
f 173//173 151//151 152//152
f 103//103 49//49 151//151
f 151//151 49//49 111//111
f 19//19 32//32 20//20
f 49//49 103//103 30//30
f 113//113 80//80 112//112
f 112//112 64//64 138//138
f 139//139 138//138 64//64
f 159//159 176//176 160//160
f 160//160 176//176 94//94
f 94//94 176//176 95//95
f 162//162 160//160 94//94
f 80//80 163//163 52//52
f 50//50 163//163 94//94
f 52//52 163//163 50//50
f 94//94 163//163 162//162
f 113//113 163//163 80//80
f 175//175 163//163 137//137
f 137//137 163//163 113//113
f 161//161 163//163 175//175
f 104//104 106//106 79//79
f 79//79 106//106 71//71
f 71//71 106//106 105//105
f 71//71 107//107 139//139
f 73//73 46//46 65//65
f 65//65 139//139 66//66
f 71//71 139//139 46//46
f 66//66 139//139 64//64
f 112//112 138//138 153//153
f 130//130 136//136 144//144
f 144//144 136//136 148//148
f 131//131 156//156 129//129
f 129//129 156//156 127//127
f 114//114 116//116 132//132
f 148//148 136//136 135//135
f 175//175 137//137 161//161
f 161//161 114//114 144//144
f 139//139 107//107 117//117
f 117//117 107//107 118//118
f 118//118 104//104 168//168
f 168//168 104//104 103//103
f 168//168 103//103 172//172
f 174//174 97//97 147//147
f 128//128 127//127 123//123
f 123//123 127//127 124//124
f 141//141 97//97 125//125
f 142//142 141//141 125//125
f 147//147 140//140 174//174
f 174//174 123//123 125//125
f 172//172 173//173 155//155
f 155//155 143//143 127//127
f 168//168 172//172 122//122
f 155//155 156//156 150//150
f 120//120 150//150 121//121
f 36//36 45//45 37//37
f 35//35 48//48 36//36
f 21//21 44//44 110//110
f 111//111 109//109 151//151
f 21//21 109//109 111//111
f 110//110 109//109 21//21
f 12//12 48//48 13//13
f 41//41 40//40 171//171
f 167//167 96//96 141//141
f 98//98 90//90 10//10
f 8//8 10//10 90//90
f 170//170 164//164 67//67
f 67//67 164//164 93//93
f 9//9 164//164 170//170
f 67//67 80//80 170//170
f 170//170 80//80 9//9
f 169//169 103//103 28//28
f 33//33 76//76 78//78
f 28//28 76//76 29//29
f 33//33 78//78 34//34
f 89//89 88//88 87//87
f 51//51 9//9 52//52
f 102//102 82//82 101//101
f 101//101 67//67 93//93
f 74//74 69//69 82//82
f 12//12 11//11 39//39
f 47//47 11//11 37//37
f 27//27 58//58 26//26
f 26//26 58//58 6//6
f 43//43 58//58 27//27
f 62//62 58//58 59//59
f 6//6 58//58 62//62
f 92//92 86//86 99//99
f 99//99 86//86 85//85
f 26//26 25//25 3//3
f 3//3 25//25 4//4
f 26//26 3//3 24//24
f 168//168 122//122 118//118
f 11//11 43//43 27//27
f 4//4 25//25 6//6
f 110//110 141//141 108//108
f 166//166 141//141 110//110
f 97//97 141//141 96//96
f 167//167 141//141 166//166
f 70//70 74//74 72//72
f 60//60 61//61 59//59
f 4//4 54//54 53//53
f 4//4 53//53 5//5
f 8//8 165//165 164//164
f 9//9 8//8 164//164
f 93//93 165//165 8//8
f 68//68 67//67 82//82
f 165//165 93//93 164//164
f 112//112 153//153 157//157
f 157//157 153//153 154//154
f 134//134 149//149 121//121
f 129//129 136//136 130//130
f 133//133 132//132 131//131
f 130//130 133//133 131//131
f 126//126 135//135 127//127
f 161//161 146//146 163//163
f 145//145 160//160 146//146
f 162//162 146//146 160//160
f 163//163 146//146 162//162
f 146//146 161//161 144//144
f 159//159 160//160 158//158
f 137//137 113//113 115//115
f 116//116 115//115 113//113
f 116//116 113//113 112//112
f 157//157 116//116 112//112
f 127//127 156//156 155//155
f 134//134 154//154 149//149
f 149//149 154//154 153//153
f 153//153 138//138 149//149
f 142//142 152//152 109//109
f 109//109 152//152 151//151
f 120//120 122//122 150//150
f 138//138 121//121 149//149
f 126//126 148//148 135//135
f 126//126 128//128 140//140
f 145//145 146//146 144//144
f 143//143 125//125 124//124
f 108//108 142//142 109//109
f 141//141 142//142 108//108
f 128//128 123//123 140//140
f 119//119 121//121 138//138
f 117//117 119//119 139//139
f 138//138 139//139 119//119
f 137//137 115//115 114//114
f 127//127 135//135 129//129
f 136//136 129//129 135//135
f 134//134 131//131 132//132
f 132//132 130//130 114//114
f 133//133 130//130 132//132
f 130//130 131//131 129//129
f 127//127 128//128 126//126
f 124//124 125//125 123//123
f 122//122 120//120 118//118
f 120//120 121//121 119//119
f 120//120 119//119 118//118
f 118//118 119//119 117//117
f 115//115 116//116 114//114
f 93//93 92//92 101//101
f 82//82 102//102 83//83
f 83//83 102//102 100//100
f 83//83 100//100 85//85
f 99//99 100//100 101//101
f 19//19 21//21 111//111
f 109//109 110//110 108//108
f 103//103 104//104 77//77
f 62//62 63//63 7//7
f 100//100 102//102 101//101
f 63//63 92//92 55//55
f 99//99 101//101 92//92
f 93//93 90//90 91//91
f 90//90 92//92 91//91
f 55//55 92//92 90//90
f 23//23 5//5 55//55
f 85//85 100//100 99//99
f 63//63 86//86 92//92
f 98//98 56//56 90//90
f 90//90 56//56 23//23
f 60//60 81//81 83//83
f 61//61 83//83 84//84
f 54//54 7//7 55//55
f 56//56 98//98 10//10
f 8//8 90//90 93//93
f 1//1 94//94 89//89
f 94//94 95//95 89//89
f 1//1 15//15 94//94
f 88//88 89//89 95//95
f 15//15 56//56 94//94
f 56//56 10//10 94//94
f 94//94 10//10 50//50
f 50//50 10//10 9//9
f 51//51 50//50 9//9
f 55//55 7//7 63//63
f 63//63 84//84 85//85
f 92//92 93//93 91//91
f 6//6 62//62 7//7
f 5//5 53//53 55//55
f 23//23 55//55 90//90
f 18//18 17//17 23//23
f 15//15 18//18 23//23
f 24//24 5//5 23//23
f 16//16 15//15 1//1
f 82//82 69//69 68//68
f 75//75 72//72 74//74
f 60//60 75//75 81//81
f 42//42 60//60 57//57
f 61//61 60//60 83//83
f 83//83 85//85 84//84
f 86//86 63//63 85//85
f 84//84 63//63 61//61
f 74//74 82//82 81//81
f 74//74 81//81 75//75
f 82//82 83//83 81//81
f 60//60 42//42 72//72
f 67//67 64//64 80//80
f 79//79 71//71 78//78
f 34//34 78//78 71//71
f 71//71 46//46 47//47
f 65//65 68//68 73//73
f 77//77 78//78 76//76
f 46//46 70//70 42//42
f 60//60 72//72 75//75
f 74//74 70//70 69//69
f 68//68 46//46 73//73
f 70//70 46//46 69//69
f 69//69 46//46 68//68
f 71//71 47//47 37//37
f 70//70 72//72 42//42
f 34//34 71//71 37//37
f 68//68 65//65 64//64
f 68//68 64//64 67//67
f 65//65 66//66 64//64
f 62//62 61//61 63//63
f 61//61 62//62 59//59
f 58//58 57//57 59//59
f 57//57 60//60 59//59
f 43//43 57//57 58//58
f 42//42 57//57 43//43
f 4//4 7//7 54//54
f 22//22 39//39 23//23
f 23//23 56//56 15//15
f 22//22 17//17 41//41
f 54//54 55//55 53//53
f 51//51 52//52 50//50
f 32//32 49//49 30//30
f 33//33 31//31 29//29
f 38//38 48//48 35//35
f 31//31 20//20 32//32
f 47//47 46//46 11//11
f 38//38 37//37 11//11
f 46//46 42//42 11//11
f 44//44 20//20 45//45
f 21//21 20//20 44//44
f 38//38 11//11 13//13
f 34//34 37//37 20//20
f 42//42 43//43 11//11
f 20//20 31//31 34//34
f 39//39 24//24 23//23
f 12//12 39//39 22//22
f 41//41 17//17 14//14
f 41//41 14//14 40//40
f 24//24 39//39 26//26
f 35//35 37//37 38//38
f 36//36 37//37 35//35
f 33//33 34//34 31//31
f 30//30 31//31 32//32
f 30//30 29//29 31//31
f 29//29 30//30 28//28
f 11//11 27//27 26//26
f 5//5 24//24 2//2
f 25//25 26//26 6//6
f 2//2 24//24 3//3
f 23//23 17//17 22//22
f 18//18 15//15 14//14
f 20//20 21//21 19//19
f 17//17 18//18 14//14
f 15//15 16//16 14//14
f 12//12 13//13 11//11
f 9//9 10//10 8//8
f 6//6 7//7 4//4
f 2//2 4//4 5//5
f 3//3 4//4 2//2
