# Created by Open3D 
# object name: m160
# number of vertices: 159
# number of triangles: 314
v 0.152682 0.915606 0.147831
vn -0.972379 -0.0615641 0.225142
v 0.156414 0.914362 0.151252
vn -0.384599 -0.0797732 0.91963
v 0.153615 0.9268 0.153429
vn -0.852909 0.24667 0.460108
v 0.186453 0.929288 0.160581
vn -0.22775 0.0431944 0.972761
v 0.19076 0.911563 0.162447
vn -0.643166 0.24498 0.725481
v 0.191578 0.928355 0.160892
vn -0.0722123 0.105925 0.991749
v 0.172864 0.92338 0.154984
vn -0.230891 -0.181638 0.955875
v 0.177684 0.914362 0.156538
vn -0.320516 0.102669 0.941663
v 0.199763 0.929288 0.160581
vn 0.21403 0.0331533 0.976264
v 0.195456 0.911563 0.162447
vn 0.621165 0.266311 0.737043
v 0.19827 0.910319 0.16027
vn 0.466553 0.186223 0.864667
v 0.208532 0.914362 0.156538
vn 0.304277 0.0921318 0.948118
v 0.215746 0.92338 0.154673
vn 0.228451 -0.186868 0.955453
v 0.232912 0.9268 0.153429
vn 0.862634 0.209277 0.460506
v 0.233534 0.915606 0.147831
vn 0.97134 -0.0670202 0.22805
v 0.237887 0.916538 0.120746
vn 0.959868 0.00910317 0.280305
v 0.14864 0.872838 0.112972
vn -0.962247 -0.0493209 0.267671
v 0.153304 0.888054 0.139435
vn -0.932614 -0.0439607 0.358187
v 0.155792 0.904722 0.149386
vn -0.834132 -0.0363599 0.550365
v 0.158902 0.890044 0.156538
vn -0.803643 -0.118495 0.583195
v 0.168293 0.895299 0.163069
vn -0.323427 0.124184 0.938069
v 0.1617 0.905655 0.153118
vn -0.437276 0.230552 0.869273
v 0.178275 0.881617 0.164624
vn -0.403182 0.148638 0.902968
v 0.193108 0.878912 0.169599
vn -0.00205044 -0.133638 0.991028
v 0.187355 0.879409 0.174574
vn -0.510103 -0.705959 0.491342
v 0.172926 0.905655 0.155606
vn -0.110972 0.302183 0.946768
v 0.199918 0.879316 0.174574
vn 0.486887 -0.731439 0.477428
v 0.207755 0.881773 0.164313
vn 0.408583 0.144079 0.901278
v 0.217923 0.895299 0.163069
vn 0.323863 0.11676 0.938871
v 0.214005 0.905655 0.155606
vn 0.109916 0.290697 0.950481
v 0.223427 0.905344 0.153118
vn 0.454351 0.224321 0.862117
v 0.227314 0.890044 0.156538
vn 0.80187 -0.110262 0.587236
v 0.230113 0.904722 0.149386
vn 0.81491 -0.026762 0.578969
v 0.232912 0.888054 0.139435
vn 0.930502 -0.044372 0.363589
v 0.237576 0.872838 0.112972
vn 0.963399 -0.0618388 0.260841
v 0.152061 0.853008 0.115367
vn -0.907983 -0.388325 0.157388
v 0.154548 0.842871 0.141612
vn -0.798883 -0.583177 0.147281
v 0.152372 0.86892 0.145033
vn -0.914318 -0.00721857 0.404932
v 0.171745 0.838797 0.165867
vn -0.641341 -0.343607 0.686014
v 0.16935 0.866162 0.158404
vn -0.640879 -0.00718572 0.767608
v 0.214471 0.838797 0.165867
vn 0.62826 -0.206268 0.750162
v 0.233845 0.86892 0.145033
vn 0.912461 -0.00459646 0.409138
v 0.216524 0.866255 0.158404
vn 0.631459 -0.00623988 0.775384
v 0.231668 0.842871 0.141612
vn 0.808151 -0.572548 0.138133
v 0.234155 0.853008 0.115367
vn 0.899276 -0.423525 0.109218
v 0.160768 0.83662 0.112133
vn -0.52311 -0.844034 0.118164
v 0.172926 0.838486 0.136015
vn -0.430376 -0.900798 0.0577839
v 0.181105 0.8332 0.133527
vn -0.267157 -0.962813 0.0402364
v 0.173517 0.835065 0.155606
vn -0.229073 -0.97147 0.0614175
v 0.193108 0.832578 0.128645
vn 0 -0.994855 0.101313
v 0.212699 0.835065 0.155606
vn 0.22995 -0.972209 0.043969
v 0.205111 0.8332 0.133527
vn 0.267157 -0.962813 0.0402364
v 0.21329 0.838486 0.136015
vn 0.422391 -0.905432 0.0421661
v 0.225448 0.83662 0.112133
vn 0.526046 -0.844941 0.096691
v 0.193108 0.827291 0.099661
vn 0 -0.999733 -0.0231024
v 0.174823 0.836931 0.066669
vn -0.20079 -0.939976 -0.275913
v 0.193108 0.836309 0.069841
vn 0.010401 -0.932522 -0.360964
v 0.16481 0.83662 0.08343
vn -0.446636 -0.887734 -0.111552
v 0.221406 0.83662 0.08343
vn 0.381897 -0.912545 -0.146345
v 0.211393 0.836931 0.066669
vn 0.100652 -0.946295 -0.307239
v 0.184339 0.883638 0.172398
vn -0.723965 0.336475 0.602212
v 0.202779 0.883545 0.172398
vn 0.726833 0.350965 0.590371
v 0.206853 0.869306 0.168355
vn 0.567187 0.0859493 0.819092
v 0.199887 0.888272 0.169288
vn 0.714923 0.38181 0.585753
v 0.17899 0.868948 0.168355
vn -0.546654 0.0882876 0.832691
v 0.187946 0.910319 0.16027
vn -0.448657 0.188739 0.873547
v 0.187106 0.888334 0.169288
vn -0.713205 0.367555 0.59686
v 0.193108 0.839792 0.173953
vn -0.00116858 0.106839 0.994276
v 0.177342 0.861871 0.163691
vn -0.479841 0.0663603 0.874842
v 0.208097 0.861653 0.163691
vn 0.478903 0.0724705 0.874871
v 0.188537 0.868597 0.173642
vn -0.162667 0.061088 0.984788
v 0.198239 0.868945 0.173642
vn 0.169211 0.0601544 0.983742
v 0.200758 0.857393 0.169599
vn 0.390757 -0.114656 0.913325
v 0.185085 0.857548 0.169599
vn -0.366155 -0.106477 0.924442
v 0.193263 0.866846 0.170843
vn -0.000907967 -0.0918267 0.995775
v 0.193264 0.855061 0.171154
vn 0.00112916 0.114196 0.993458
v 0.223489 0.92338 0.152496
vn 0.190647 -0.237899 0.952396
v 0.214782 0.930532 0.159648
vn 0.382569 0.227935 0.895369
v 0.162416 0.92338 0.152496
vn -0.184915 -0.233784 0.954543
v 0.172646 0.930221 0.159648
vn -0.389731 0.220656 0.894103
v 0.229802 0.914362 0.151252
vn 0.38295 -0.0980765 0.918548
v 0.193108 0.833511 0.149075
vn 0 -0.999371 0.0354741
v 0.193108 0.833511 0.173331
vn 0 -0.864371 0.502855
v 0.193108 0.833822 0.163691
vn 0 -0.995093 0.0989413
v 0.193108 0.911563 0.164002
vn 0.0196448 0.348077 0.93726
v 0.213787 0.944836 0.154673
vn 0.474718 0.114718 0.87263
v 0.193108 0.944836 0.159648
vn 0.0419862 0.105163 0.993568
v 0.172429 0.944836 0.154673
vn -0.389785 0.107799 0.914575
v 0.156725 0.945147 0.138813
vn -0.832218 0.193607 0.519547
v 0.230424 0.944836 0.139124
vn 0.867113 0.162594 0.470827
v 0.148329 0.916538 0.120746
vn -0.966575 0.00438155 0.256346
v 0.193019 0.887183 0.179239
vn 0.00231061 0.4441 0.895974
v 0.194902 0.928355 0.160581
vn 0.106597 0.104939 0.988749
v 0.193064 0.88 0.179239
vn -0.00562087 -0.758952 0.651122
v 0.193124 0.975 0.101246
vn 0 1 0
v 0.193124 0.968159 0.06356
vn -0.0652567 0.900268 -0.430418
v 0.175818 0.968159 0.067602
vn -0.19683 0.902161 -0.383879
v 0.162011 0.968159 0.078797
vn -0.305982 0.926203 -0.220279
v 0.156414 0.968159 0.09164
vn -0.410623 0.910655 -0.0457856
v 0.156414 0.968159 0.109769
vn -0.342189 0.938093 0.0537427
v 0.162011 0.968159 0.127277
vn -0.385712 0.885479 0.25914
v 0.175818 0.968159 0.137881
vn -0.138142 0.943939 0.299827
v 0.193124 0.968159 0.141612
vn 0 0.898927 0.438099
v 0.210429 0.968159 0.137881
vn 0.138257 0.943941 0.299768
v 0.224205 0.968159 0.127277
vn 0.378131 0.890264 0.253862
v 0.229802 0.968159 0.109769
vn 0.411332 0.910519 0.0419646
v 0.229802 0.968159 0.09164
vn 0.369912 0.92391 -0.0977542
v 0.224205 0.968159 0.078797
vn 0.284481 0.910389 -0.300436
v 0.210429 0.968159 0.067602
vn 0.189886 0.892667 -0.408765
v 0.193124 0.950434 0.038372
vn -0.0335359 0.668553 -0.742908
v 0.166241 0.951367 0.051121
vn -0.417368 0.626127 -0.658611
v 0.148329 0.955098 0.06698
vn -0.633474 0.559037 -0.534966
v 0.140244 0.955098 0.082653
vn -0.812207 0.560099 -0.163121
v 0.140244 0.955098 0.111946
vn -0.911655 0.352413 0.211399
v 0.151128 0.954787 0.131661
vn -0.867532 0.135659 0.478524
v 0.166241 0.954787 0.152496
vn -0.436966 0.578758 0.688549
v 0.193124 0.954787 0.159026
vn -0.0281108 0.558713 0.828885
v 0.220007 0.954787 0.152496
vn 0.380642 0.584016 0.716963
v 0.236332 0.954787 0.132283
vn 0.841253 0.150156 0.519371
v 0.245972 0.955098 0.111946
vn 0.927015 0.307905 0.214099
v 0.245972 0.955098 0.082653
vn 0.831242 0.524857 -0.183199
v 0.237887 0.955098 0.06698
vn 0.613266 0.58133 -0.534752
v 0.220007 0.951367 0.051121
vn 0.337675 0.638823 -0.691289
v 0.193124 0.926489 0.025
vn 0.00472482 0.154087 -0.988046
v 0.162416 0.926489 0.033707
vn -0.542041 0.211121 -0.8134
v 0.141799 0.926489 0.057651
vn -0.787685 0.253277 -0.561607
v 0.133403 0.926489 0.075408
vn -0.992242 0.113556 -0.0506011
v 0.14211 0.926489 0.105385
vn -0.934357 -0.0459803 0.353359
v 0.244106 0.926489 0.105385
vn 0.940135 -0.0485736 0.337323
v 0.252813 0.926489 0.075408
vn 0.996007 0.0884242 -0.0123109
v 0.244417 0.926489 0.057651
vn 0.791306 0.148339 -0.593154
v 0.223831 0.926489 0.033707
vn 0.488357 0.162619 -0.857358
v 0.193124 0.89474 0.030908
vn 0.0113245 -0.209778 -0.977683
v 0.160768 0.89474 0.039615
vn -0.444969 -0.1861 -0.875996
v 0.134957 0.89474 0.063871
vn -0.790716 -0.103125 -0.603435
v 0.132781 0.89474 0.074941
vn -0.995232 -0.0571686 0.0790217
v 0.140244 0.882705 0.101582
vn -0.947836 -0.109222 0.299461
v 0.245972 0.882705 0.101582
vn 0.950385 -0.102725 0.293626
v 0.253435 0.89474 0.074941
vn 0.988938 -0.119138 0.0883638
v 0.251259 0.89474 0.063871
vn 0.762677 -0.10322 -0.63849
v 0.225448 0.89474 0.039615
vn 0.511395 -0.177762 -0.840759
v 0.193124 0.863394 0.038372
vn 0.0837195 -0.280057 -0.956326
v 0.169101 0.86666 0.045213
vn -0.408789 -0.234954 -0.881866
v 0.149884 0.866411 0.055475
vn -0.657631 -0.329015 -0.677695
v 0.141799 0.866193 0.072391
vn -0.909652 -0.406868 -0.0836171
v 0.144286 0.862866 0.104669
vn -0.918432 -0.382068 0.102501
v 0.24193 0.862866 0.104669
vn 0.903026 -0.417025 0.103121
v 0.244417 0.866193 0.072391
vn 0.921098 -0.380813 -0.0809949
v 0.236332 0.866411 0.055475
vn 0.752165 -0.270666 -0.600822
v 0.217146 0.86666 0.045213
vn 0.406732 -0.209084 -0.889299
v 0.193124 0.846105 0.048633
vn 0.0434798 -0.692883 -0.719738
v 0.16935 0.846696 0.044591
vn -0.281748 -0.643641 -0.711579
v 0.156414 0.846385 0.066358
vn -0.718422 -0.610289 -0.333792
v 0.154548 0.846416 0.100506
vn -0.805587 -0.591541 -0.033304
v 0.231668 0.846416 0.100506
vn 0.846444 -0.532468 -0.00322499
v 0.229802 0.846385 0.066358
vn 0.767837 -0.616377 -0.174659
v 0.216897 0.846696 0.044591
vn 0.382647 -0.631851 -0.674052
v 0.167733 0.914673 0.155295
vn -0.235199 0.0386341 0.971179
v 0.219136 0.914673 0.155295
vn 0.247371 0.0298885 0.96846
f 43//43 63//63 70//70
f 73//73 72//72 75//75
f 75//75 74//74 76//76
f 75//75 71//71 74//74
f 65//65 40//40 69//69
f 76//76 73//73 75//75
f 63//63 72//72 73//73
f 63//63 73//73 70//70
f 74//74 71//71 65//65
f 69//69 74//74 65//65
f 159//159 12//12 30//30
f 159//159 30//30 31//31
f 159//159 31//31 81//81
f 159//159 81//81 77//77
f 159//159 77//77 13//13
f 159//159 13//13 12//12
f 8//8 7//7 158//158
f 8//8 158//158 26//26
f 26//26 158//158 22//22
f 2//2 22//22 158//158
f 2//2 158//158 79//79
f 158//158 7//7 79//79
f 118//118 86//86 119//119
f 90//90 119//119 86//86
f 115//115 89//89 116//116
f 88//88 116//116 89//89
f 157//157 60//60 151//151
f 57//57 151//151 60//60
f 156//156 59//59 157//157
f 60//60 157//157 59//59
f 155//155 54//54 156//156
f 59//59 156//156 54//54
f 147//147 45//45 155//155
f 54//54 155//155 45//45
f 154//154 46//46 146//146
f 36//36 146//146 46//46
f 153//153 58//58 154//154
f 46//46 154//154 58//58
f 152//152 56//56 153//153
f 58//58 153//153 56//56
f 151//151 57//57 152//152
f 56//56 152//152 57//57
f 138//138 35//35 147//147
f 45//45 147//147 35//35
f 146//146 36//36 137//137
f 17//17 137//137 36//36
f 129//129 16//16 138//138
f 35//35 138//138 16//16
f 137//137 17//17 128//128
f 91//91 128//128 17//17
f 119//119 90//90 129//129
f 16//16 129//129 90//90
f 128//128 91//91 115//115
f 89//89 115//115 91//91
f 117//117 87//87 118//118
f 86//86 118//118 87//87
f 116//116 88//88 117//117
f 87//87 117//117 88//88
f 118//118 119//119 105//105
f 105//105 104//104 118//118
f 115//115 116//116 101//101
f 116//116 102//102 101//101
f 151//151 142//142 150//150
f 157//157 151//151 150//150
f 157//157 150//150 149//149
f 156//156 157//157 149//149
f 156//156 149//149 148//148
f 156//156 148//148 147//147
f 155//155 156//156 147//147
f 154//154 146//146 145//145
f 153//153 154//154 145//145
f 153//153 145//145 144//144
f 153//153 144//144 143//143
f 152//152 153//153 143//143
f 152//152 143//143 142//142
f 151//151 152//152 142//142
f 142//142 133//133 141//141
f 150//150 142//142 141//141
f 150//150 141//141 140//140
f 149//149 150//150 140//140
f 149//149 140//140 139//139
f 148//148 149//149 139//139
f 148//148 139//139 138//138
f 147//147 148//148 138//138
f 137//137 136//136 145//145
f 146//146 137//137 145//145
f 145//145 136//136 135//135
f 144//144 145//145 135//135
f 144//144 135//135 134//134
f 143//143 144//144 134//134
f 143//143 134//134 133//133
f 142//142 143//143 133//133
f 133//133 124//124 132//132
f 141//141 133//133 132//132
f 141//141 132//132 131//131
f 140//140 141//141 131//131
f 140//140 131//131 130//130
f 139//139 140//140 130//130
f 139//139 130//130 129//129
f 138//138 139//139 129//129
f 128//128 127//127 136//136
f 137//137 128//128 136//136
f 136//136 127//127 126//126
f 135//135 136//136 126//126
f 135//135 126//126 125//125
f 134//134 135//135 125//125
f 134//134 125//125 124//124
f 133//133 134//134 124//124
f 124//124 110//110 123//123
f 132//132 124//124 123//123
f 132//132 123//123 122//122
f 131//131 132//132 122//122
f 131//131 122//122 121//121
f 130//130 131//131 121//121
f 130//130 121//121 120//120
f 129//129 130//130 120//120
f 129//129 120//120 119//119
f 115//115 114//114 128//128
f 114//114 113//113 127//127
f 128//128 114//114 127//127
f 127//127 113//113 112//112
f 126//126 127//127 112//112
f 126//126 112//112 111//111
f 125//125 126//126 111//111
f 125//125 111//111 110//110
f 124//124 125//125 110//110
f 110//110 96//96 109//109
f 123//123 110//110 109//109
f 123//123 109//109 108//108
f 122//122 123//123 108//108
f 122//122 108//108 107//107
f 121//121 122//122 107//107
f 121//121 107//107 106//106
f 120//120 121//121 106//106
f 120//120 106//106 105//105
f 119//119 120//120 105//105
f 118//118 104//104 103//103
f 117//117 118//118 103//103
f 103//103 102//102 116//116
f 117//117 103//103 116//116
f 101//101 100//100 114//114
f 115//115 101//101 114//114
f 114//114 100//100 99//99
f 113//113 114//114 99//99
f 113//113 99//99 98//98
f 112//112 113//113 98//98
f 112//112 98//98 97//97
f 111//111 112//112 97//97
f 111//111 97//97 96//96
f 110//110 111//111 96//96
f 109//109 96//96 95//95
f 108//108 109//109 95//95
f 107//107 108//108 95//95
f 106//106 107//107 95//95
f 105//105 106//106 95//95
f 104//104 105//105 95//95
f 103//103 104//104 95//95
f 102//102 103//103 95//95
f 101//101 102//102 95//95
f 100//100 101//101 95//95
f 99//99 100//100 95//95
f 98//98 99//99 95//95
f 97//97 98//98 95//95
f 96//96 97//97 95//95
f 81//81 33//33 15//15
f 32//32 34//34 33//33
f 19//19 18//18 20//20
f 1//1 19//19 2//2
f 1//1 91//91 17//17
f 3//3 91//91 1//1
f 15//15 33//33 34//34
f 14//14 81//81 15//15
f 92//92 67//67 61//61
f 61//61 67//67 23//23
f 62//62 64//64 92//92
f 28//28 64//64 62//62
f 32//32 29//29 43//43
f 31//31 29//29 32//32
f 20//20 18//18 40//40
f 22//22 19//19 20//20
f 94//94 24//24 27//27
f 25//25 24//24 94//94
f 62//62 92//92 27//27
f 27//27 92//92 94//94
f 25//25 92//92 61//61
f 94//94 92//92 25//25
f 11//11 28//28 12//12
f 11//11 12//12 9//9
f 8//8 23//23 66//66
f 4//4 8//8 66//66
f 93//93 9//9 87//87
f 10//10 93//93 85//85
f 6//6 93//93 87//87
f 85//85 93//93 6//6
f 5//5 66//66 67//67
f 4//4 66//66 5//5
f 85//85 92//92 10//10
f 93//93 10//10 9//9
f 11//11 10//10 64//64
f 10//10 92//92 64//64
f 5//5 92//92 85//85
f 67//67 92//92 5//5
f 3//3 80//80 89//89
f 3//3 89//89 91//91
f 90//90 78//78 14//14
f 16//16 90//90 14//14
f 78//78 86//86 9//9
f 90//90 86//86 78//78
f 4//4 88//88 80//80
f 80//80 88//88 89//89
f 4//4 87//87 88//88
f 4//4 6//6 87//87
f 86//86 87//87 9//9
f 5//5 85//85 6//6
f 84//84 51//51 41//41
f 51//51 84//84 82//82
f 39//39 49//49 84//84
f 82//82 84//84 49//49
f 41//41 83//83 84//84
f 68//68 83//83 41//41
f 68//68 39//39 83//83
f 39//39 84//84 83//83
f 82//82 50//50 51//51
f 41//41 51//51 44//44
f 37//37 47//47 39//39
f 82//82 49//49 50//50
f 42//42 35//35 34//34
f 42//42 34//34 43//43
f 40//40 18//18 38//38
f 18//18 17//17 38//38
f 12//12 28//28 30//30
f 33//33 81//81 31//31
f 77//77 81//81 14//14
f 9//9 13//13 78//78
f 80//80 7//7 4//4
f 3//3 2//2 79//79
f 22//22 2//2 19//19
f 26//26 23//23 8//8
f 3//3 79//79 80//80
f 7//7 80//80 79//79
f 78//78 77//77 14//14
f 77//77 78//78 13//13
f 31//31 30//30 29//29
f 21//21 26//26 22//22
f 74//74 68//68 76//76
f 76//76 68//68 73//73
f 72//72 24//24 75//75
f 75//75 24//24 71//71
f 69//69 68//68 74//74
f 73//73 68//68 70//70
f 63//63 24//24 72//72
f 71//71 24//24 65//65
f 40//40 23//23 21//21
f 40//40 65//65 23//23
f 29//29 28//28 43//43
f 24//24 63//63 28//28
f 70//70 41//41 43//43
f 68//68 41//41 70//70
f 40//40 39//39 69//69
f 69//69 39//39 68//68
f 34//34 32//32 43//43
f 41//41 44//44 42//42
f 40//40 21//21 20//20
f 38//38 37//37 39//39
f 23//23 67//67 66//66
f 24//24 23//23 65//65
f 11//11 64//64 28//28
f 63//63 43//43 28//28
f 28//28 62//62 27//27
f 25//25 61//61 23//23
f 57//57 60//60 55//55
f 60//60 59//59 55//55
f 59//59 54//54 55//55
f 54//54 53//53 55//55
f 53//53 52//52 55//55
f 52//52 50//50 55//55
f 50//50 48//48 55//55
f 48//48 47//47 55//55
f 47//47 46//46 55//55
f 46//46 58//58 55//55
f 58//58 56//56 55//55
f 56//56 57//57 55//55
f 45//45 44//44 53//53
f 54//54 45//45 53//53
f 51//51 53//53 44//44
f 52//52 53//53 51//51
f 50//50 52//52 51//51
f 50//50 49//49 48//48
f 47//47 49//49 39//39
f 48//48 49//49 47//47
f 47//47 37//37 36//36
f 46//46 47//47 36//36
f 42//42 45//45 35//35
f 44//44 45//45 42//42
f 42//42 43//43 41//41
f 39//39 40//40 38//38
f 17//17 36//36 38//38
f 37//37 38//38 36//36
f 35//35 16//16 15//15
f 35//35 15//15 34//34
f 32//32 33//33 31//31
f 29//29 30//30 28//28
f 24//24 28//28 27//27
f 23//23 26//26 21//21
f 24//24 25//25 23//23
f 21//21 22//22 20//20
f 19//19 1//1 18//18
f 17//17 18//18 1//1
f 15//15 16//16 14//14
f 13//13 9//9 12//12
f 10//10 11//11 9//9
f 8//8 4//4 7//7
f 5//5 6//6 4//4
f 2//2 3//3 1//1
