# Created by Open3D 
# object name: m198
# number of vertices: 211
# number of triangles: 418
v 0.199514 0.949699 0.236241
vn 0.00124326 -0.9755 -0.219997
v 0.208462 0.945074 0.246289
vn -0.0801917 -0.785622 -0.613487
v 0.226196 0.948737 0.231217
vn -0.0221849 -0.997375 0.0689206
v 0.204316 0.951101 0.219814
vn -0.166059 -0.963174 0.211474
v 0.201434 0.941182 0.201573
vn 0.0929175 -0.684637 0.722937
v 0.22407 0.928516 0.194733
vn -0.241909 -0.697004 0.67503
v 0.195728 0.877239 0.198288
vn 0.168099 0.949615 0.264526
v 0.189548 0.880739 0.187067
vn 0.221326 0.952344 0.209897
v 0.196957 0.880349 0.183984
vn 0.136799 0.957739 0.253026
v 0.208886 0.879095 0.183984
vn 0.0855903 0.964494 0.249853
v 0.216272 0.877931 0.187067
vn 0.0228585 0.966751 0.254698
v 0.209926 0.874672 0.200013
vn 0.110807 0.952127 0.284913
v 0.216324 0.873999 0.200013
vn -0.00885687 0.960686 0.277497
v 0.220007 0.873608 0.200021
vn -0.0865756 0.961486 0.260864
v 0.202231 0.875866 0.236851
vn 0.608452 0.492054 -0.622631
v 0.199362 0.922949 0.246481
vn 0.609696 0.476331 -0.633546
v 0.195776 0.92689 0.246021
vn 0.450073 0.545485 -0.707022
v 0.190673 0.927998 0.244373
vn 0.541395 0.630114 -0.556639
v 0.226173 0.923695 0.246021
vn -0.321087 0.628683 -0.708281
v 0.231395 0.923719 0.244373
vn -0.382816 0.750016 -0.539377
v 0.186093 0.92294 0.23905
vn 0.572328 -0.164218 -0.803413
v 0.234824 0.917818 0.23905
vn -0.570282 0.00668921 -0.821422
v 0.221847 0.920586 0.246481
vn -0.530375 0.641598 -0.554124
v 0.187242 0.938536 0.248041
vn 0.258136 -0.426782 -0.866731
v 0.211788 0.932366 0.256803
vn 0.054857 -0.419831 -0.905943
v 0.236942 0.933313 0.248041
vn -0.589631 0.116268 -0.79926
v 0.225494 0.932361 0.253628
vn -0.130686 -0.654728 -0.744481
v 0.185804 0.928311 0.237734
vn 0.611386 0.379759 -0.694255
v 0.202548 0.919443 0.247038
vn 0.54263 0.188901 -0.818455
v 0.236222 0.923012 0.237734
vn -0.514882 0.494818 -0.700037
v 0.218001 0.917818 0.247038
vn -0.477848 0.346552 -0.807194
v 0.199212 0.919416 0.244738
vn 0.499957 0.0690552 -0.863293
v 0.19459 0.917213 0.243137
vn 0.371466 -0.128181 -0.919556
v 0.188474 0.918847 0.24124
vn 0.492765 -0.107408 -0.863508
v 0.200401 0.919621 0.245432
vn 0.567392 -0.0395882 -0.822496
v 0.231644 0.91431 0.24124
vn -0.533898 0.00416374 -0.845538
v 0.225321 0.913984 0.243137
vn -0.385633 -0.0901705 -0.918236
v 0.221258 0.917099 0.244738
vn -0.484097 -0.09018 -0.870355
v 0.220138 0.917547 0.245432
vn -0.523185 0.243003 -0.81684
v 0.185765 0.952921 0.242619
vn 0.401963 -0.776924 -0.484577
v 0.241378 0.947077 0.242619
vn -0.42368 -0.773319 -0.47167
v 0.195328 0.883897 0.236085
vn 0.695278 0.43285 -0.573785
v 0.200779 0.882399 0.239223
vn 0.499484 0.468602 -0.728648
v 0.197885 0.884689 0.238451
vn 0.534374 0.462565 -0.707444
v 0.206051 0.879205 0.240432
vn 0.0526813 0.501414 -0.863602
v 0.212029 0.881217 0.239223
vn -0.385195 0.562909 -0.731272
v 0.217672 0.881549 0.236085
vn -0.590305 0.563237 -0.57819
v 0.209251 0.875127 0.236851
vn -0.483301 0.613072 -0.62495
v 0.205557 0.875079 0.239416
vn 0.0920068 0.874545 -0.476136
v 0.20806 0.898326 0.251107
vn 0.0642278 0.611821 -0.788384
v 0.206707 0.901438 0.255159
vn 0.562922 0.640888 -0.521901
v 0.208358 0.901168 0.257502
vn 0.0715539 0.681981 -0.727861
v 0.20617 0.913175 0.251812
vn 0.696485 -0.280097 -0.660647
v 0.208254 0.918976 0.253249
vn 0.631045 -0.139262 -0.763143
v 0.207348 0.914145 0.253777
vn 0.925443 -0.265506 -0.270301
v 0.206203 0.909679 0.255359
vn 0.636424 -0.335985 -0.694319
v 0.199302 0.914672 0.246838
vn 0.45758 -0.206791 -0.864788
v 0.193606 0.91006 0.244538
vn 0.51201 -0.0028465 -0.858975
v 0.186333 0.910975 0.240712
vn 0.691827 0.114757 -0.712886
v 0.181387 0.914861 0.235266
vn 0.858156 0.0804352 -0.507048
v 0.180156 0.922677 0.232268
vn 0.815516 0.0176772 -0.578465
v 0.204728 0.892761 0.24833
vn 0.0756321 0.354967 -0.931814
v 0.207137 0.889517 0.246345
vn 0.0636161 0.604868 -0.793781
v 0.187712 0.876306 0.207783
vn 0.783334 0.58927 -0.197861
v 0.181791 0.880754 0.198516
vn 0.841896 0.539351 -0.0176442
v 0.181121 0.898728 0.203196
vn 0.969531 0.244845 0.00779131
v 0.185789 0.886265 0.21372
vn 0.884992 0.455495 -0.0965093
v 0.205848 0.877274 0.218972
vn 0.103199 0.982166 -0.15716
v 0.195729 0.872564 0.211169
vn 0.255172 0.950796 -0.175708
v 0.196498 0.878465 0.219033
vn 0.373027 0.908778 -0.187011
v 0.205409 0.871577 0.211118
vn 0.114777 0.992383 0.0447426
v 0.190136 0.883129 0.216084
vn 0.644235 0.720545 -0.256468
v 0.202236 0.909171 0.173769
vn 0.0340985 -0.56227 0.826251
v 0.206531 0.88378 0.168592
vn -0.010521 -0.100205 0.994911
v 0.209208 0.909253 0.171141
vn -0.0213348 -0.203199 0.978905
v 0.206482 0.883367 0.168505
vn 0.0308916 0.293997 0.955307
v 0.186906 0.904174 0.182809
vn 0.831054 -0.0676145 0.552066
v 0.188661 0.885115 0.172278
vn 0.464831 0.158654 0.871069
v 0.193597 0.907645 0.177257
vn 0.370124 -0.264068 0.890661
v 0.184253 0.884539 0.177753
vn 0.845736 0.360771 0.39316
v 0.182222 0.901563 0.194446
vn 0.960115 0.114204 0.255221
v 0.181338 0.882197 0.191391
vn 0.967915 0.109461 0.226182
v 0.1942 0.872743 0.211142
vn 0.531022 0.571968 -0.625194
v 0.180781 0.930311 0.235605
vn 0.758314 0.366878 -0.538851
v 0.19705 0.891501 0.24007
vn 0.709276 0.201821 -0.675423
v 0.195863 0.886844 0.238416
vn 0.688241 0.27126 -0.672862
v 0.194944 0.892959 0.237669
vn 0.549991 0.385998 -0.740618
v 0.182511 0.891545 0.216858
vn 0.924544 0.335762 -0.180227
v 0.183464 0.932287 0.242555
vn 0.695209 0.447659 -0.562394
v 0.189598 0.931853 0.247746
vn 0.491386 0.470526 -0.732902
v 0.197282 0.929882 0.250587
vn 0.490817 0.442739 -0.750387
v 0.19839 0.875324 0.229889
vn 0.567397 0.811183 -0.141573
v 0.205417 0.873747 0.234512
vn 0.103887 0.988748 0.107637
v 0.186787 0.88524 0.224238
vn 0.776971 0.57845 -0.248417
v 0.210682 0.923275 0.254349
vn 0.0234706 0.223462 -0.97443
v 0.208614 0.923884 0.253777
vn 0.50676 0.273706 -0.817484
v 0.210284 0.918053 0.254247
vn -0.0205642 -0.195685 -0.980451
v 0.207066 0.918528 0.251661
vn 0.658351 -0.110938 -0.744491
v 0.207199 0.923826 0.252435
vn 0.668042 0.357812 -0.652449
v 0.209314 0.908734 0.256452
vn -0.0260791 -0.248259 -0.968343
v 0.205122 0.905017 0.256328
vn 0.592359 -0.00756787 -0.805639
v 0.20864 0.903848 0.257966
vn -0.0142464 -0.13568 -0.99065
v 0.202325 0.908242 0.251744
vn 0.794287 -0.205703 -0.57166
v 0.200824 0.901438 0.246835
vn 0.559182 0.193618 -0.806119
v 0.2006 0.907133 0.248382
vn 0.643567 -0.093178 -0.759697
v 0.201185 0.902944 0.251859
vn 0.833333 0.00038559 -0.55277
v 0.20477 0.902099 0.253365
vn 0.572839 0.705345 -0.417545
v 0.202055 0.900269 0.24771
vn 0.628742 0.354754 -0.691978
v 0.206476 0.921149 0.250088
vn 0.694756 0.0561469 -0.717051
v 0.185759 0.902466 0.236979
vn 0.793561 0.250528 -0.554523
v 0.192468 0.901177 0.243686
vn 0.546643 0.340052 -0.76521
v 0.179591 0.93789 0.238648
vn 0.901175 -0.0243226 -0.432773
v 0.177766 0.944456 0.230689
vn 0.611387 -0.756459 -0.232326
v 0.178307 0.920401 0.226038
vn 0.977953 0.150512 -0.144753
v 0.174085 0.931072 0.219975
vn 0.907412 -0.215411 0.360835
v 0.206629 0.884713 0.244847
vn 0.0590065 0.561598 -0.825304
v 0.201907 0.887133 0.243656
vn 0.533363 0.301923 -0.790168
v 0.204681 0.890432 0.248021
vn 0.527929 0.350643 -0.773525
v 0.197932 0.891314 0.242959
vn 0.659644 0.178441 -0.730088
v 0.199229 0.897334 0.24341
vn 0.727987 0.653258 -0.208061
v 0.197979 0.894432 0.241791
vn 0.842189 -0.14249 -0.520013
v 0.180865 0.908763 0.228086
vn 0.913733 0.264953 -0.308045
v 0.179781 0.902044 0.2178
vn 0.953586 0.20815 -0.217592
v 0.206757 0.928813 0.255029
vn 0.258042 0.237533 -0.936479
v 0.205296 0.898936 0.250361
vn 0.571936 0.471068 -0.671553
v 0.178368 0.903786 0.212382
vn 0.989873 0.141856 0.00523704
v 0.203562 0.929078 0.253859
vn 0.407017 0.206252 -0.88983
v 0.20117 0.928312 0.251858
vn 0.42644 0.492309 -0.758802
v 0.203765 0.8942 0.248209
vn 0.832907 0.0900162 -0.546043
v 0.204087 0.897121 0.248071
vn 0.703299 0.140871 -0.696797
v 0.17712 0.923164 0.187894
vn 0.794319 -0.351265 0.49565
v 0.175738 0.954169 0.208412
vn 0.486897 -0.731061 0.477997
v 0.188749 0.892474 0.233918
vn 0.798004 0.389922 -0.459511
v 0.17854 0.93034 0.22843
vn 0.982303 0.0566125 -0.178539
v 0.210189 0.901073 0.255159
vn -0.403622 0.748684 -0.525892
v 0.213155 0.912441 0.251812
vn -0.739453 -0.129136 -0.660706
v 0.212204 0.913634 0.253777
vn -0.960443 -0.0672521 -0.270234
v 0.212323 0.918549 0.253249
vn -0.653217 -0.00418071 -0.757159
v 0.212396 0.909028 0.255359
vn -0.704472 -0.194576 -0.682539
v 0.220184 0.912477 0.246838
vn -0.490565 -0.107154 -0.864791
v 0.224797 0.906783 0.244538
vn -0.501416 0.103655 -0.858975
v 0.232101 0.906164 0.240712
vn -0.652851 0.256103 -0.712879
v 0.237747 0.908938 0.235266
vn -0.8227 0.257135 -0.506997
v 0.240576 0.916326 0.232268
vn -0.794035 0.186846 -0.578444
v 0.210321 0.892173 0.24833
vn 0.00233686 0.364076 -0.931366
v 0.223544 0.872541 0.207783
vn -0.668582 0.700426 -0.249801
v 0.234653 0.893102 0.203196
vn -0.89744 0.441067 0.00778022
v 0.23026 0.87566 0.198516
vn -0.841834 0.534552 -0.0746281
v 0.227495 0.881881 0.21372
vn -0.77095 0.629544 -0.0964847
v 0.215399 0.876479 0.219033
vn -0.173367 0.966975 -0.186822
v 0.214924 0.870547 0.211169
vn -0.0377993 0.986313 -0.160496
v 0.222592 0.879718 0.216084
vn -0.480317 0.838766 -0.256451
v 0.21617 0.907708 0.173769
vn -0.428832 -0.248517 0.868529
v 0.230126 0.899631 0.182809
vn -0.915383 -0.0617618 0.397818
v 0.224303 0.904417 0.177257
vn -0.387397 -0.310526 0.868042
v 0.224447 0.881354 0.172278
vn -0.369719 0.410689 0.833452
v 0.228639 0.879874 0.177753
vn -0.743608 0.54949 0.380931
v 0.234165 0.896102 0.194446
vn -0.882731 0.30535 0.357138
v 0.231003 0.876976 0.191391
vn -0.751295 0.600505 0.27377
v 0.216457 0.870404 0.211142
vn -0.400525 0.669913 -0.625137
v 0.241552 0.923923 0.235605
vn -0.665439 0.516559 -0.538849
v 0.21757 0.889345 0.24007
vn -0.661055 0.340179 -0.668793
v 0.219857 0.890665 0.237732
vn -0.457672 0.491947 -0.740624
v 0.217762 0.884542 0.238416
vn -0.623482 0.406015 -0.668149
v 0.215336 0.882856 0.238451
vn -0.426505 0.563711 -0.707335
v 0.231799 0.886364 0.216858
vn -0.834536 0.520643 -0.180224
v 0.239338 0.926414 0.242555
vn -0.586868 0.58245 -0.562439
v 0.233248 0.927266 0.247746
vn -0.382824 0.562408 -0.732901
v 0.225322 0.926935 0.250587
vn -0.38807 0.535117 -0.750368
v 0.212895 0.8738 0.229889
vn -0.381458 0.913832 -0.139289
v 0.226306 0.881086 0.224238
vn -0.639716 0.727356 -0.248427
v 0.212991 0.923424 0.253777
vn -0.429732 0.36987 -0.823727
v 0.214363 0.923074 0.252435
vn -0.578932 0.488939 -0.652516
v 0.213391 0.917864 0.251661
vn -0.667099 0.0283413 -0.744429
v 0.212484 0.904244 0.256328
vn -0.576583 0.121813 -0.807907
v 0.215891 0.906816 0.251744
vn -0.819681 -0.0360578 -0.571685
v 0.217347 0.905373 0.248382
vn -0.648899 0.042643 -0.759679
v 0.215944 0.899849 0.246835
vn -0.509622 0.304406 -0.804749
v 0.215903 0.901397 0.251859
vn -0.814998 0.173636 -0.552838
v 0.212222 0.901315 0.253365
vn -0.413608 0.809013 -0.417645
v 0.214497 0.898961 0.24771
vn -0.537358 0.469822 -0.700367
v 0.214513 0.920303 0.250088
vn -0.667894 0.199364 -0.717058
v 0.230893 0.897722 0.236979
vn -0.724149 0.410042 -0.554504
v 0.224063 0.897855 0.243686
vn -0.4611 0.449817 -0.764886
v 0.244292 0.931089 0.238648
vn -0.88655 0.163568 -0.432752
v 0.247441 0.937132 0.230689
vn -0.959424 0.0245679 -0.280897
v 0.24826 0.923275 0.219975
vn -0.947811 0.0104329 0.318661
v 0.241911 0.913717 0.226038
vn -0.925282 0.350571 -0.144749
v 0.21191 0.886082 0.243656
vn -0.454013 0.406883 -0.792666
v 0.2101 0.889862 0.248021
vn -0.440548 0.455404 -0.773644
v 0.21665 0.895504 0.24341
vn -0.590192 0.791201 -0.160231
v 0.216667 0.889344 0.242959
vn -0.615939 0.308855 -0.724726
v 0.21727 0.892404 0.241791
vn -0.857 0.0352756 -0.514108
v 0.236989 0.902864 0.228086
vn -0.838687 0.449134 -0.30803
v 0.236652 0.896065 0.2178
vn -0.889474 0.401854 -0.217599
v 0.215832 0.92786 0.255029
vn -0.208819 0.269162 -0.940184
v 0.211049 0.898332 0.250361
vn -0.452022 0.582048 -0.675941
v 0.238397 0.897477 0.212382
vn -0.938756 0.344543 0.00522552
v 0.221193 0.926208 0.251858
vn -0.314832 0.570207 -0.758778
v 0.219012 0.927453 0.253859
vn -0.371025 0.491891 -0.787645
v 0.211854 0.896305 0.248071
vn -0.637334 0.270727 -0.721466
v 0.211561 0.893379 0.248209
vn -0.769659 0.248689 -0.588029
v 0.243646 0.916171 0.187894
vn -0.901869 -0.0666153 0.426844
v 0.251445 0.946212 0.208412
vn -0.510968 -0.701255 0.497144
v 0.225891 0.88857 0.233918
vn -0.697406 0.547706 -0.462215
v 0.24375 0.923487 0.22843
vn -0.949095 0.25959 -0.178413
v 0.197012 0.891114 0.241489
vn 0.562724 0.728394 -0.390875
v 0.206857 0.886883 0.244817
vn 0.0192986 0.183197 -0.982887
v 0.201477 0.88875 0.243102
vn 0.425494 0.612773 -0.665931
v 0.212667 0.887573 0.243102
vn -0.278798 0.696976 -0.660679
v 0.217526 0.888958 0.241489
vn -0.419308 0.822266 -0.384785
f 127//127 25//25 124//124
f 127//127 24//24 25//25
f 24//24 2//2 25//25
f 2//2 24//24 1//1
f 4//4 3//3 1//1
f 153//153 155//155 73//73
f 3//3 204//204 41//41
f 204//204 3//3 6//6
f 5//5 115//115 131//131
f 131//131 73//73 5//5
f 132//132 5//5 4//4
f 2//2 1//1 3//3
f 77//77 79//79 73//73
f 6//6 4//4 5//5
f 155//155 154//154 158//158
f 6//6 187//187 204//204
f 24//24 40//40 1//1
f 41//41 26//26 27//27
f 40//40 113//113 1//1
f 73//73 6//6 5//5
f 113//113 132//132 4//4
f 5//5 132//132 115//115
f 1//1 113//113 4//4
f 3//3 4//4 6//6
f 77//77 131//131 81//81
f 153//153 73//73 75//75
f 41//41 27//27 3//3
f 203//203 6//6 155//155
f 155//155 158//158 203//203
f 73//73 155//155 6//6
f 2//2 3//3 27//27
f 203//203 187//187 6//6
f 77//77 73//73 131//131
f 27//27 25//25 2//2
f 11//11 157//157 156//156
f 7//7 69//69 71//71
f 8//8 82//82 65//65
f 71//71 12//12 7//7
f 76//76 9//9 10//10
f 69//69 64//64 83//83
f 10//10 7//7 12//12
f 11//11 156//156 10//10
f 13//13 159//159 11//11
f 12//12 13//13 11//11
f 64//64 69//69 7//7
f 156//156 76//76 10//10
f 146//146 151//151 160//160
f 13//13 14//14 148//148
f 82//82 8//8 80//80
f 14//14 13//13 146//146
f 151//151 12//12 71//71
f 151//151 146//146 13//13
f 65//65 7//7 8//8
f 80//80 9//9 78//78
f 10//10 12//12 11//11
f 80//80 8//8 9//9
f 7//7 9//9 8//8
f 7//7 10//10 9//9
f 159//159 157//157 11//11
f 12//12 151//151 13//13
f 7//7 65//65 64//64
f 78//78 9//9 76//76
f 13//13 148//148 159//159
f 146//146 148//148 14//14
f 163//163 162//162 211//211
f 210//210 63//63 190//190
f 192//192 211//211 190//190
f 210//210 190//190 211//211
f 211//211 192//192 163//163
f 208//208 63//63 210//210
f 189//189 210//210 162//162
f 211//211 162//162 210//210
f 116//116 208//208 189//189
f 210//210 189//189 208//208
f 63//63 209//209 118//118
f 207//207 119//119 118//118
f 118//118 209//209 207//207
f 119//119 207//207 87//87
f 63//63 208//208 209//209
f 209//209 117//117 85//85
f 85//85 207//207 209//209
f 208//208 116//116 117//117
f 117//117 209//209 208//208
f 85//85 87//87 207//207
f 169//169 23//23 31//31
f 23//23 169//169 19//19
f 36//36 142//142 37//37
f 145//145 190//190 63//63
f 200//200 26//26 169//169
f 168//168 169//169 26//26
f 185//185 188//188 161//161
f 144//144 161//161 188//188
f 179//179 139//139 136//136
f 176//176 174//174 182//182
f 173//173 182//182 174//174
f 166//166 205//205 194//194
f 183//183 194//194 205//205
f 190//190 201//201 181//181
f 197//197 181//181 201//201
f 202//202 190//190 145//145
f 163//163 184//184 205//205
f 183//183 205//205 184//184
f 27//27 26//26 200//200
f 206//206 188//188 185//185
f 177//177 141//141 178//178
f 184//184 178//178 141//141
f 175//175 139//139 179//179
f 138//138 139//139 97//97
f 100//100 97//97 139//139
f 136//136 174//174 176//176
f 171//171 205//205 166//166
f 184//184 192//192 178//178
f 190//190 178//178 192//192
f 202//202 201//201 190//190
f 189//189 164//164 46//46
f 165//165 46//46 164//164
f 116//116 46//46 45//45
f 188//188 206//206 186//186
f 185//185 186//186 206//206
f 93//93 49//49 170//170
f 205//205 47//47 163//163
f 164//164 163//163 47//47
f 47//47 205//205 170//170
f 171//171 170//170 205//205
f 186//186 41//41 204//204
f 187//187 203//203 188//188
f 198//198 188//188 203//203
f 186//186 204//204 187//187
f 198//198 203//203 147//147
f 158//158 147//147 203//203
f 193//193 163//163 192//192
f 197//197 145//145 50//50
f 145//145 197//197 202//202
f 201//201 202//202 197//197
f 191//191 184//184 163//163
f 147//147 166//166 198//198
f 195//195 198//198 166//166
f 166//166 149//149 171//171
f 152//152 171//171 149//149
f 199//199 182//182 200//200
f 173//173 200//200 182//182
f 182//182 199//199 31//31
f 169//169 31//31 199//199
f 200//200 196//196 27//27
f 25//25 27//27 196//196
f 196//196 200//200 172//172
f 173//173 172//172 200//200
f 143//143 194//194 142//142
f 183//183 142//142 194//194
f 194//194 143//143 188//188
f 144//144 188//188 143//143
f 180//180 135//135 179//179
f 175//175 179//179 135//135
f 135//135 180//180 197//197
f 181//181 197//197 180//180
f 199//199 200//200 169//169
f 167//167 185//185 161//161
f 198//198 195//195 188//188
f 194//194 188//188 195//195
f 140//140 141//141 177//177
f 197//197 50//50 135//135
f 176//176 179//179 136//136
f 137//137 139//139 138//138
f 177//177 176//176 182//182
f 25//25 196//196 95//95
f 172//172 95//95 196//196
f 195//195 166//166 194//194
f 192//192 191//191 193//193
f 163//163 193//193 191//191
f 191//191 192//192 184//184
f 178//178 190//190 181//181
f 162//162 164//164 189//189
f 189//189 46//46 116//116
f 187//187 188//188 186//186
f 26//26 41//41 185//185
f 186//186 185//185 41//41
f 185//185 167//167 26//26
f 168//168 26//26 167//167
f 184//184 141//141 183//183
f 142//142 183//183 141//141
f 182//182 31//31 177//177
f 140//140 177//177 31//31
f 170//170 49//49 48//48
f 47//47 170//170 48//48
f 102//102 175//175 52//52
f 135//135 52//52 175//175
f 181//181 180//180 178//178
f 179//179 178//178 180//180
f 179//179 176//176 178//178
f 177//177 178//178 176//176
f 102//102 100//100 175//175
f 139//139 175//175 100//100
f 174//174 136//136 138//138
f 138//138 172//172 174//174
f 173//173 174//174 172//172
f 97//97 95//95 138//138
f 172//172 138//138 95//95
f 165//165 47//47 46//46
f 171//171 152//152 170//170
f 150//150 170//170 152//152
f 150//150 68//68 170//170
f 93//93 170//170 68//68
f 168//168 19//19 169//169
f 167//167 20//20 168//168
f 19//19 168//168 20//20
f 161//161 30//30 167//167
f 20//20 167//167 30//30
f 166//166 147//147 149//149
f 164//164 47//47 165//165
f 163//163 164//164 162//162
f 144//144 30//30 161//161
f 151//151 152//152 160//160
f 146//146 160//160 152//152
f 157//157 159//159 154//154
f 158//158 154//154 159//159
f 147//147 158//158 148//148
f 159//159 148//148 158//158
f 149//149 146//146 152//152
f 156//156 155//155 76//76
f 153//153 76//76 155//155
f 157//157 154//154 156//156
f 155//155 156//156 154//154
f 76//76 153//153 74//74
f 75//75 74//74 153//153
f 150//150 152//152 151//151
f 71//71 68//68 151//151
f 150//150 151//151 68//68
f 146//146 149//149 147//147
f 147//147 148//148 146//146
f 63//63 50//50 145//145
f 143//143 22//22 144//144
f 30//30 144//144 22//22
f 142//142 36//36 143//143
f 22//22 143//143 36//36
f 141//141 37//37 142//142
f 140//140 38//38 141//141
f 37//37 141//141 38//38
f 31//31 39//39 140//140
f 38//38 140//140 39//39
f 137//137 136//136 139//139
f 137//137 138//138 136//136
f 52//52 135//135 50//50
f 16//16 91//91 29//29
f 91//91 16//16 17//17
f 59//59 34//34 33//33
f 118//118 62//62 63//63
f 24//24 127//127 91//91
f 91//91 90//90 24//24
f 114//114 112//112 84//84
f 84//84 61//61 114//114
f 56//56 106//106 53//53
f 98//98 103//103 109//109
f 109//109 99//99 98//98
f 133//133 88//88 122//122
f 122//122 110//110 133//133
f 130//130 118//118 108//108
f 108//108 125//125 130//130
f 118//118 129//129 62//62
f 111//111 87//87 133//133
f 133//133 110//110 111//111
f 114//114 134//134 112//112
f 58//58 105//105 104//104
f 104//104 111//111 58//58
f 56//56 101//101 106//106
f 56//56 54//54 97//97
f 97//97 100//100 56//56
f 98//98 53//53 103//103
f 133//133 94//94 88//88
f 119//119 111//111 104//104
f 104//104 118//118 119//119
f 130//130 129//129 118//118
f 86//86 117//117 43//43
f 43//43 44//44 86//86
f 43//43 116//116 45//45
f 134//134 114//114 113//113
f 113//113 112//112 134//134
f 49//49 93//93 92//92
f 42//42 133//133 87//87
f 87//87 86//86 42//42
f 133//133 42//42 92//92
f 92//92 94//94 133//133
f 131//131 115//115 114//114
f 114//114 126//126 131//131
f 132//132 113//113 115//115
f 131//131 126//126 66//66
f 66//66 81//81 131//131
f 87//87 121//121 119//119
f 62//62 125//125 50//50
f 125//125 62//62 129//129
f 129//129 130//130 125//125
f 111//111 120//120 87//87
f 88//88 66//66 126//126
f 126//126 123//123 88//88
f 67//67 88//88 94//94
f 94//94 72//72 67//67
f 109//109 128//128 127//127
f 127//127 99//99 109//109
f 128//128 109//109 29//29
f 29//29 91//91 128//128
f 127//127 124//124 96//96
f 96//96 99//99 127//127
f 122//122 60//60 59//59
f 59//59 110//110 122//122
f 60//60 122//122 114//114
f 114//114 61//61 60//60
f 51//51 107//107 106//106
f 106//106 101//101 51//51
f 107//107 51//51 125//125
f 125//125 108//108 107//107
f 127//127 128//128 91//91
f 112//112 89//89 84//84
f 123//123 126//126 114//114
f 114//114 122//122 123//123
f 58//58 57//57 105//105
f 50//50 125//125 51//51
f 106//106 103//103 53//53
f 56//56 55//55 54//54
f 103//103 105//105 109//109
f 124//124 25//25 95//95
f 95//95 96//96 124//124
f 88//88 123//123 122//122
f 120//120 119//119 121//121
f 121//121 87//87 120//120
f 119//119 120//120 111//111
f 118//118 104//104 108//108
f 86//86 85//85 117//117
f 43//43 117//117 116//116
f 114//114 115//115 113//113
f 40//40 24//24 112//112
f 112//112 113//113 40//40
f 89//89 112//112 24//24
f 24//24 90//90 89//89
f 58//58 111//111 110//110
f 110//110 59//59 58//58
f 29//29 109//109 105//105
f 105//105 57//57 29//29
f 15//15 49//49 92//92
f 42//42 15//15 92//92
f 101//101 102//102 52//52
f 52//52 51//51 101//101
f 107//107 108//108 104//104
f 104//104 106//106 107//107
f 103//103 106//106 104//104
f 104//104 105//105 103//103
f 100//100 102//102 101//101
f 101//101 56//56 100//100
f 53//53 98//98 54//54
f 96//96 54//54 98//98
f 98//98 99//99 96//96
f 95//95 97//97 54//54
f 54//54 96//96 95//95
f 42//42 44//44 43//43
f 72//72 94//94 92//92
f 92//92 70//70 72//72
f 68//68 70//70 92//92
f 92//92 93//93 68//68
f 17//17 90//90 91//91
f 18//18 89//89 90//90
f 90//90 17//17 18//18
f 28//28 84//84 89//89
f 89//89 18//18 28//28
f 66//66 88//88 67//67
f 42//42 86//86 44//44
f 86//86 87//87 85//85
f 28//28 61//61 84//84
f 72//72 69//69 83//83
f 83//83 64//64 72//72
f 82//82 80//80 77//77
f 77//77 81//81 82//82
f 81//81 66//66 65//65
f 65//65 82//82 81//81
f 64//64 67//67 72//72
f 79//79 78//78 76//76
f 76//76 73//73 79//79
f 77//77 80//80 78//78
f 78//78 79//79 77//77
f 73//73 76//76 74//74
f 74//74 75//75 73//73
f 72//72 70//70 69//69
f 68//68 71//71 69//69
f 69//69 70//70 68//68
f 67//67 64//64 66//66
f 65//65 66//66 64//64
f 50//50 63//63 62//62
f 21//21 60//60 61//61
f 61//61 28//28 21//21
f 34//34 59//59 60//60
f 60//60 21//21 34//34
f 33//33 58//58 59//59
f 32//32 57//57 58//58
f 58//58 33//33 32//32
f 35//35 29//29 57//57
f 57//57 32//32 35//35
f 53//53 55//55 56//56
f 54//54 55//55 53//53
f 51//51 52//52 50//50
f 45//45 49//49 15//15
f 45//45 48//48 49//49
f 45//45 46//46 48//48
f 47//47 48//48 46//46
f 43//43 45//45 15//15
f 42//42 43//43 15//15
f 39//39 31//31 22//22
f 38//38 39//39 22//22
f 37//37 38//38 22//22
f 36//36 37//37 22//22
f 30//30 22//22 31//31
f 20//20 30//30 31//31
f 19//19 20//20 31//31
f 23//23 19//19 31//31
f 35//35 32//32 16//16
f 29//29 35//35 16//16
f 17//17 16//16 32//32
f 18//18 17//17 32//32
f 28//28 18//18 32//32
f 21//21 28//28 32//32
f 34//34 21//21 32//32
f 33//33 34//34 32//32
