# Created by Open3D 
# object name: m890
# number of vertices: 58
# number of triangles: 112
v 0.869739 0.553765 0.650796
vn 0 -0.157772 -0.987476
v 0.0965 0.553765 0.649081
vn 0.00410307 -0.249982 -0.968242
v 0.047538 0.568416 0.108929
vn -0.012834 -0.563496 0.826019
v 0.956761 0.568416 0.139486
vn -0.0266392 -0.996569 0.0783649
v 0.047988 0.568416 0.14348
vn 0.0106993 -0.999943 -4.77505e-05
v 0.957435 0.568416 0.275322
vn -0.016161 -0.999869 7.98265e-05
v 0.047988 0.568416 0.277985
vn 0.0159765 -0.999872 0
v 0.958109 0.568416 0.411159
vn -0.0121837 -0.999926 6.0239e-05
v 0.047988 0.568416 0.41249
vn 0.0237627 -0.999718 0
v 0.047988 0.568416 0.546995
vn 0.0147073 -0.999892 6.16987e-05
v 0.958784 0.568416 0.546995
vn -0.018562 -0.999828 -8.67111e-06
v 0.95841 0.568416 0.574665
vn -0.0160683 -0.999871 -0.0002164
v 0.046713 0.568416 0.574665
vn 0.0159974 -0.999872 0.000733223
v 0.958035 0.568416 0.602335
vn -0.0144948 -0.999887 -0.00404093
v 0.04544 0.568416 0.602335
vn 0.0176907 -0.999843 -0.00137615
v 0.948665 0.568416 0.622904
vn -0.0121286 -0.999753 -0.0186104
v 0.05406 0.568416 0.622904
vn 0.0211712 -0.999619 -0.017734
v 0.924301 0.568416 0.631634
vn -0.00453765 -0.919625 -0.392772
v 0.079172 0.568416 0.631634
vn 0.00613756 -0.839185 -0.543812
v 0.939133 0.553765 0.647365
vn -0.22062 -0.264733 -0.938746
v 0.904436 0.553765 0.649081
vn -0.0125312 -0.676349 -0.736475
v 0.964474 0.553765 0.638164
vn -0.723419 -0.306025 -0.618881
v 0.97422 0.553765 0.616489
vn -0.958923 -0.253836 -0.126626
v 0.974609 0.553765 0.587327
vn -0.972309 -0.233337 -0.0130223
v 0.975 0.553765 0.558166
vn -0.973232 -0.229803 0.00312286
v 0.974298 0.553765 0.415012
vn -0.973007 -0.230725 0.00477137
v 0.973597 0.553765 0.271857
vn -0.972981 -0.230837 0.0047769
v 0.972894 0.553765 0.128702
vn -0.173134 -0.576731 0.798377
v 0.027184 0.553765 0.0965
vn 0.923482 -0.313716 0.220822
v 0.027651 0.553765 0.132913
vn 0.958716 -0.284363 -0.00140643
v 0.027651 0.553765 0.274664
vn 0.958306 -0.285745 0
v 0.027651 0.553765 0.416415
vn 0.958306 -0.285745 0
v 0.027651 0.553765 0.558166
vn 0.958208 -0.285792 0.01266
v 0.026326 0.553765 0.587327
vn 0.959421 -0.278579 0.0436501
v 0.025 0.553765 0.616489
vn 0.923167 -0.321198 -0.211174
v 0.033967 0.553765 0.638165
vn 0.517395 -0.330357 -0.789409
v 0.060088 0.553765 0.647365
vn 0.131061 -0.189393 -0.973115
v 0.972583 0.501124 0.093849
vn -0.028402 -0.0982691 0.994754
v 0.027184 0.501124 0.0965
vn 0.016898 0.651649 0.758332
v 0.972894 0.501124 0.128702
vn -0.0831207 0.996539 0.000444372
v 0.027651 0.501124 0.132913
vn 0.0371516 0.99931 -0.000161712
v 0.973597 0.501124 0.271857
vn -0.0557579 0.998444 0.000273294
v 0.027651 0.501124 0.274664
vn 0.0553669 0.998466 0
v 0.974298 0.501124 0.415012
vn -0.0557168 0.998447 0.000273102
v 0.027651 0.501124 0.416415
vn 0.0553263 0.998468 0
v 0.975 0.501124 0.558166
vn -0.0356357 0.999365 -1.4148e-05
v 0.027651 0.501124 0.558166
vn 0.0864985 0.996252 0.000366563
v 0.974609 0.501124 0.587327
vn -0.0554453 0.998461 -0.000740931
v 0.026326 0.501124 0.587327
vn 0.0554075 0.998461 0.00251818
v 0.97422 0.501124 0.616489
vn -0.0502168 0.998643 -0.0137682
v 0.025 0.501124 0.616489
vn 0.0614288 0.9981 -0.00484903
v 0.964474 0.501124 0.638164
vn -0.0426604 0.997017 -0.0643234
v 0.033967 0.501124 0.638165
vn 0.0747774 0.995228 -0.0626868
v 0.939133 0.501124 0.647365
vn -0.0352955 0.96369 -0.264681
v 0.060088 0.501124 0.647365
vn 0.0883952 0.916745 -0.38957
v 0.904436 0.501124 0.649081
vn -0.0389297 0.615149 -0.787449
v 0.0965 0.501124 0.649081
vn 0.00423538 0.0325024 -0.999463
v 0.869739 0.501124 0.650796
vn 0 0.032562 -0.99947
f 29//29 39//39 3//3
f 39//39 38//38 3//3
f 38//38 28//28 3//3
f 28//28 4//4 3//3
f 57//57 1//1 58//58
f 57//57 2//2 1//1
f 2//2 19//19 1//1
f 2//2 37//37 19//19
f 19//19 21//21 1//1
f 19//19 18//18 21//21
f 56//56 58//58 1//1
f 57//57 55//55 37//37
f 55//55 53//53 36//36
f 53//53 51//51 35//35
f 51//51 49//49 34//34
f 49//49 47//47 33//33
f 47//47 45//45 32//32
f 45//45 43//43 31//31
f 43//43 41//41 30//30
f 41//41 39//39 29//29
f 38//38 40//40 28//28
f 40//40 42//42 27//27
f 42//42 44//44 26//26
f 44//44 46//46 25//25
f 46//46 48//48 24//24
f 48//48 50//50 23//23
f 50//50 52//52 22//22
f 52//52 54//54 20//20
f 54//54 56//56 21//21
f 36//36 17//17 19//19
f 35//35 15//15 17//17
f 34//34 13//13 15//15
f 33//33 10//10 13//13
f 32//32 9//9 10//10
f 31//31 7//7 9//9
f 30//30 5//5 7//7
f 29//29 3//3 5//5
f 27//27 6//6 4//4
f 26//26 8//8 6//6
f 25//25 11//11 8//8
f 24//24 12//12 11//11
f 23//23 14//14 12//12
f 22//22 16//16 14//14
f 20//20 18//18 16//16
f 21//21 56//56 1//1
f 2//2 57//57 37//37
f 37//37 55//55 36//36
f 36//36 53//53 35//35
f 35//35 51//51 34//34
f 34//34 49//49 33//33
f 33//33 47//47 32//32
f 32//32 45//45 31//31
f 31//31 43//43 30//30
f 30//30 41//41 29//29
f 28//28 40//40 27//27
f 27//27 42//42 26//26
f 26//26 44//44 25//25
f 25//25 46//46 24//24
f 24//24 48//48 23//23
f 23//23 50//50 22//22
f 22//22 52//52 20//20
f 20//20 54//54 21//21
f 56//56 57//57 58//58
f 56//56 55//55 57//57
f 54//54 55//55 56//56
f 54//54 53//53 55//55
f 52//52 53//53 54//54
f 52//52 51//51 53//53
f 50//50 51//51 52//52
f 50//50 49//49 51//51
f 48//48 49//49 50//50
f 48//48 47//47 49//49
f 46//46 47//47 48//48
f 46//46 45//45 47//47
f 44//44 45//45 46//46
f 44//44 43//43 45//45
f 42//42 43//43 44//44
f 42//42 41//41 43//43
f 40//40 41//41 42//42
f 40//40 39//39 41//41
f 38//38 39//39 40//40
f 37//37 36//36 19//19
f 36//36 35//35 17//17
f 35//35 34//34 15//15
f 34//34 33//33 13//13
f 33//33 32//32 10//10
f 32//32 31//31 9//9
f 31//31 30//30 7//7
f 30//30 29//29 5//5
f 28//28 27//27 4//4
f 27//27 26//26 6//6
f 26//26 25//25 8//8
f 25//25 24//24 11//11
f 24//24 23//23 12//12
f 23//23 22//22 14//14
f 22//22 20//20 16//16
f 20//20 21//21 18//18
f 17//17 18//18 19//19
f 17//17 16//16 18//18
f 15//15 16//16 17//17
f 15//15 14//14 16//16
f 13//13 14//14 15//15
f 13//13 12//12 14//14
f 10//10 12//12 13//13
f 10//10 11//11 12//12
f 10//10 8//8 11//11
f 9//9 8//8 10//10
f 7//7 8//8 9//9
f 7//7 6//6 8//8
f 5//5 6//6 7//7
f 5//5 4//4 6//6
f 3//3 4//4 5//5
