# Created by Open3D 
# object name: m904
# number of vertices: 8
# number of triangles: 12
v 0.20357 0.124933 0.393192
vn -0.242529 -0.00698857 0.970119
v 0.22738 0.124933 0.393192
vn 0.70696 -0.0203713 0.70696
v 0.22738 0.951229 0.393192
vn 0.242529 0.00698857 0.970119
v 0.20357 0.951229 0.393192
vn -0.70696 0.0203713 0.70696
v 0.22738 0.124933 0.381287
vn 0.242529 -0.00698857 -0.970119
v 0.20357 0.124933 0.381287
vn -0.70696 -0.0203713 -0.70696
v 0.20357 0.951229 0.381287
vn -0.242529 0.00698857 -0.970119
v 0.22738 0.951229 0.381287
vn 0.70696 0.0203713 -0.70696
f 6//6 2//2 1//1
f 5//5 2//2 6//6
f 2//2 8//8 3//3
f 5//5 8//8 2//2
f 4//4 8//8 7//7
f 3//3 8//8 4//4
f 6//6 4//4 7//7
f 1//1 4//4 6//6
f 5//5 7//7 8//8
f 6//6 7//7 5//5
f 1//1 3//3 4//4
f 2//2 3//3 1//1
